<svg xmlns="http://www.w3.org/2000/svg" version="1.1"><g stroke-width="0.6"><path fill="none" stroke="#000000" d="M0 200.00000 L1000.00000 200.00000" /><path fill="none" stroke="#000000" d="M0 300.00220 L1000.00000 300.00220" /><path fill="none" stroke="#000000" d="M500.00000 0 L500.00000 400.00000" /><path fill="none" stroke="#550000" d="M0 350.00330 L1000.00000 350.00330" /><path fill="none" stroke="#550000" d="M0 300.00220 L1000.00000 300.00220" /><path fill="none" stroke="#550000" d="M0 250.00110 L1000.00000 250.00110" /><path fill="none" stroke="#000000" d="M0 200.00000  L0.00000 199.99942 L0.48828 199.99048 L0.97656 199.99937 L1.46484 199.98999 L1.95313 199.99924 L2.44141 199.98904 L2.92969 199.99902 L3.41797 199.98772 L3.90625 199.99879 L4.39453 199.98608 L4.88281 199.99854 L5.37109 199.98418 L5.85938 199.99825 L6.34766 199.98203 L6.83594 199.99794 L7.32422 199.97961 L7.81250 199.99759 L8.30078 199.97696 L8.78906 199.99721 L9.27734 199.97400 L9.76563 199.99678 L10.25391 199.97072 L10.74219 199.99632 L11.23047 199.96704 L11.71875 199.99579 L12.20703 199.96292 L12.69531 199.99518 L13.18359 199.95827 L13.67188 199.99449 L14.16016 199.95296 L14.64844 199.99367 L15.13672 199.94687 L15.62500 199.99274 L16.11328 199.93982 L16.60156 199.99164 L17.08984 199.93155 L17.57813 199.99030 L18.06641 199.92177 L18.55469 199.98869 L19.04297 199.91002 L19.53125 199.98672 L20.01953 199.89575 L20.50781 199.98428 L20.99609 199.87813 L21.48438 199.98120 L21.97266 199.85597 L22.46094 199.97720 L22.94922 199.82751 L23.43750 199.97194 L23.92578 199.79004 L24.41406 199.96478 L24.90234 199.73921 L25.39063 199.95473 L25.87891 199.66769 L26.36719 199.94000 L26.85547 199.56223 L27.34375 199.91724 L27.83203 199.39696 L28.32031 199.87949 L28.80859 199.11555 L29.29688 199.81027 L29.78516 198.57489 L30.27344 199.66273 L30.76172 197.31538 L31.25000 199.25598 L31.73828 193.10365 L32.22656 197.30063 L32.71484 154.72719 L33.20313 0.00001 L33.69141 66.83093 L34.17969 195.13646 L34.66797 190.55846 L35.15625 198.92041 L35.64453 196.90092 L36.13281 199.52730 L36.62109 198.49266 L37.10938 199.73071 L37.59766 199.11737 L38.08594 199.82298 L38.57422 199.42302 L39.06250 199.87228 L39.55078 199.59328 L40.03906 199.90138 L40.52734 199.69609 L41.01563 199.91949 L41.50391 199.76112 L41.99219 199.93095 L42.48047 199.80287 L42.96875 199.93790 L43.45703 199.82899 L43.94531 199.94139 L44.43359 199.84380 L44.92188 199.94197 L45.41016 199.84981 L45.89844 199.93982 L46.38672 199.84846 L46.87500 199.93478 L47.36328 199.84045 L47.85156 199.92647 L48.33984 199.82567 L48.82813 199.91403 L49.31641 199.80307 L49.80469 199.89601 L50.29297 199.77031 L50.78125 199.86981 L51.26953 199.72299 L51.75781 199.83087 L52.24609 199.65285 L52.73438 199.77049 L53.22266 199.54367 L53.71094 199.67081 L54.19922 199.36050 L54.68750 199.49022 L55.17578 199.01648 L55.66406 199.11327 L56.15234 198.24237 L56.64063 198.11273 L57.12891 195.80951 L57.61719 193.71736 L58.10547 177.57925 L58.59375 23.89802 L59.08203 33.60401 L59.57031 183.04088 L60.05859 192.98070 L60.54688 196.76056 L61.03516 197.88947 L61.52344 198.65747 L62.01172 199.01955 L62.50000 199.26353 L62.98828 199.44463 L63.47656 199.53241 L63.96484 199.64728 L64.45313 199.67516 L64.94141 199.75859 L65.42969 199.76016 L65.91797 199.82578 L66.40625 199.81496 L66.89453 199.86922 L67.38281 199.85240 L67.87109 199.89874 L68.35938 199.87917 L68.84766 199.91966 L69.33594 199.89899 L69.82422 199.93495 L70.31250 199.91411 L70.80078 199.94643 L71.28906 199.92589 L71.77734 199.95525 L72.26563 199.93529 L72.75391 199.96216 L73.24219 199.94290 L73.73047 199.96765 L74.21875 199.94917 L74.70703 199.97211 L75.19531 199.95439 L75.68359 199.97572 L76.17188 199.95879 L76.66016 199.97873 L77.14844 199.96252 L77.63672 199.98125 L78.12500 199.96573 L78.61328 199.98337 L79.10156 199.96852 L79.58984 199.98518 L80.07813 199.97095 L80.56641 199.98674 L81.05469 199.97307 L81.54297 199.98808 L82.03125 199.97495 L82.51953 199.98924 L83.00781 199.97662 L83.49609 199.99026 L83.98438 199.97810 L84.47266 199.99117 L84.96094 199.97943 L85.44922 199.99197 L85.93750 199.98064 L86.42578 199.99268 L86.91406 199.98172 L87.40234 199.99332 L87.89063 199.98271 L88.37891 199.99388 L88.86719 199.98360 L89.35547 199.99438 L89.84375 199.98442 L90.33203 199.99486 L90.82031 199.98517 L91.30859 199.99527 L91.79688 199.98587 L92.28516 199.99565 L92.77344 199.98650 L93.26172 199.99600 L93.75000 199.98708 L94.23828 199.99632 L94.72656 199.98763 L95.21484 199.99663 L95.70313 199.98813 L96.19141 199.99689 L96.67969 199.98859 L97.16797 199.99715 L97.65625 199.98903 L98.14453 199.99738 L98.63281 199.98943 L99.12109 199.99759 L99.60938 199.98981 L100.09766 199.99777 L100.58594 199.99016 L101.07422 199.99797 L101.56250 199.99049 L102.05078 199.99814 L102.53906 199.99080 L103.02734 199.99829 L103.51563 199.99109 L104.00391 199.99844 L104.49219 199.99136 L104.98047 199.99858 L105.46875 199.99162 L105.95703 199.99870 L106.44531 199.99187 L106.93359 199.99881 L107.42188 199.99210 L107.91016 199.99892 L108.39844 199.99231 L108.88672 199.99901 L109.37500 199.99252 L109.86328 199.99910 L110.35156 199.99272 L110.83984 199.99916 L111.32813 199.99290 L111.81641 199.99924 L112.30469 199.99307 L112.79297 199.99928 L113.28125 199.99324 L113.76953 199.99933 L114.25781 199.99341 L114.74609 199.99936 L115.23438 199.99356 L115.72266 199.99937 L116.21094 199.99370 L116.69922 199.99937 L117.18750 199.99382 L117.67578 199.99937 L118.16406 199.99396 L118.65234 199.99936 L119.14063 199.99408 L119.62891 199.99933 L120.11719 199.99420 L120.60547 199.99930 L121.09375 199.99431 L121.58203 199.99927 L122.07031 199.99442 L122.55859 199.99924 L123.04688 199.99452 L123.53516 199.99921 L124.02344 199.99461 L124.51172 199.99916 L125.00000 199.99471 L125.48828 199.99911 L125.97656 199.99480 L126.46484 199.99907 L126.95313 199.99487 L127.44141 199.99902 L127.92969 199.99495 L128.41797 199.99899 L128.90625 199.99504 L129.39453 199.99895 L129.88281 199.99510 L130.37109 199.99890 L130.85938 199.99518 L131.34766 199.99886 L131.83594 199.99524 L132.32422 199.99883 L132.81250 199.99530 L133.30078 199.99878 L133.78906 199.99536 L134.27734 199.99873 L134.76563 199.99542 L135.25391 199.99869 L135.74219 199.99547 L136.23047 199.99864 L136.71875 199.99551 L137.20703 199.99860 L137.69531 199.99557 L138.18359 199.99855 L138.67188 199.99562 L139.16016 199.99850 L139.64844 199.99565 L140.13672 199.99846 L140.62500 199.99570 L141.11328 199.99841 L141.60156 199.99574 L142.08984 199.99837 L142.57813 199.99577 L143.06641 199.99832 L143.55469 199.99580 L144.04297 199.99828 L144.53125 199.99583 L145.01953 199.99823 L145.50781 199.99586 L145.99609 199.99818 L146.48438 199.99590 L146.97266 199.99814 L147.46094 199.99591 L147.94922 199.99809 L148.43750 199.99594 L148.92578 199.99805 L149.41406 199.99596 L149.90234 199.99799 L150.39063 199.99597 L150.87891 199.99794 L151.36719 199.99599 L151.85547 199.99789 L152.34375 199.99600 L152.83203 199.99783 L153.32031 199.99602 L153.80859 199.99777 L154.29688 199.99602 L154.78516 199.99771 L155.27344 199.99603 L155.76172 199.99765 L156.25000 199.99603 L156.73828 199.99760 L157.22656 199.99603 L157.71484 199.99753 L158.20313 199.99603 L158.69141 199.99747 L159.17969 199.99603 L159.66797 199.99741 L160.15625 199.99602 L160.64453 199.99734 L161.13281 199.99602 L161.62109 199.99727 L162.10938 199.99600 L162.59766 199.99719 L163.08594 199.99599 L163.57422 199.99712 L164.06250 199.99596 L164.55078 199.99702 L165.03906 199.99594 L165.52734 199.99695 L166.01563 199.99591 L166.50391 199.99686 L166.99219 199.99588 L167.48047 199.99677 L167.96875 199.99585 L168.45703 199.99667 L168.94531 199.99582 L169.43359 199.99657 L169.92188 199.99577 L170.41016 199.99646 L170.89844 199.99571 L171.38672 199.99634 L171.87500 199.99565 L172.36328 199.99620 L172.85156 199.99559 L173.33984 199.99606 L173.82813 199.99553 L174.31641 199.99593 L174.80469 199.99544 L175.29297 199.99576 L175.78125 199.99536 L176.26953 199.99559 L176.75781 199.99527 L177.24609 199.99541 L177.73438 199.99516 L178.22266 199.99522 L178.71094 199.99504 L179.19922 199.99500 L179.68750 199.99490 L180.17578 199.99477 L180.66406 199.99477 L181.15234 199.99451 L181.64063 199.99460 L182.12891 199.99422 L182.61719 199.99440 L183.10547 199.99390 L183.59375 199.99420 L184.08203 199.99353 L184.57031 199.99394 L185.05859 199.99313 L185.54688 199.99367 L186.03516 199.99266 L186.52344 199.99335 L187.01172 199.99213 L187.50000 199.99297 L187.98828 199.99152 L188.47656 199.99252 L188.96484 199.99078 L189.45313 199.99199 L189.94141 199.98993 L190.42969 199.99135 L190.91797 199.98888 L191.40625 199.99054 L191.89453 199.98756 L192.38281 199.98955 L192.87109 199.98590 L193.35938 199.98825 L193.84766 199.98370 L194.33594 199.98650 L194.82422 199.98068 L195.31250 199.98399 L195.80078 199.97627 L196.28906 199.98018 L196.77734 199.96918 L197.26563 199.97362 L197.75391 199.95592 L198.24219 199.95975 L198.73047 199.92229 L199.21875 199.91119 L199.70703 199.66428 L200.19531 199.65158 L200.68359 199.85658 L201.17188 199.94305 L201.66016 199.94115 L202.14844 199.96954 L202.63672 199.96307 L203.12500 199.97946 L203.61328 199.97316 L204.10156 199.98465 L204.58984 199.97894 L205.07813 199.98784 L205.56641 199.98268 L206.05469 199.98999 L206.54297 199.98532 L207.03125 199.99155 L207.51953 199.98727 L208.00781 199.99272 L208.49609 199.98878 L208.98438 199.99364 L209.47266 199.98997 L209.96094 199.99437 L210.44922 199.99094 L210.93750 199.99496 L211.42578 199.99174 L211.91406 199.99547 L212.40234 199.99243 L212.89063 199.99590 L213.37891 199.99301 L213.86719 199.99626 L214.35547 199.99350 L214.84375 199.99657 L215.33203 199.99394 L215.82031 199.99684 L216.30859 199.99432 L216.79688 199.99707 L217.28516 199.99467 L217.77344 199.99730 L218.26172 199.99498 L218.75000 199.99748 L219.23828 199.99525 L219.72656 199.99767 L220.21484 199.99550 L220.70313 199.99780 L221.19141 199.99573 L221.67969 199.99794 L222.16797 199.99593 L222.65625 199.99808 L223.14453 199.99611 L223.63281 199.99818 L224.12109 199.99628 L224.60938 199.99829 L225.09766 199.99644 L225.58594 199.99838 L226.07422 199.99660 L226.56250 199.99847 L227.05078 199.99673 L227.53906 199.99855 L228.02734 199.99686 L228.51563 199.99863 L229.00391 199.99696 L229.49219 199.99870 L229.98047 199.99709 L230.46875 199.99876 L230.95703 199.99718 L231.44531 199.99884 L231.93359 199.99728 L232.42188 199.99889 L232.91016 199.99738 L233.39844 199.99895 L233.88672 199.99747 L234.37500 199.99899 L234.86328 199.99754 L235.35156 199.99902 L235.83984 199.99762 L236.32813 199.99908 L236.81641 199.99770 L237.30469 199.99911 L237.79297 199.99776 L238.28125 199.99916 L238.76953 199.99782 L239.25781 199.99919 L239.74609 199.99789 L240.23438 199.99922 L240.72266 199.99794 L241.21094 199.99925 L241.69922 199.99800 L242.18750 199.99928 L242.67578 199.99806 L243.16406 199.99931 L243.65234 199.99811 L244.14063 199.99934 L244.62891 199.99817 L245.11719 199.99937 L245.60547 199.99820 L246.09375 199.99940 L246.58203 199.99826 L247.07031 199.99942 L247.55859 199.99829 L248.04688 199.99945 L248.53516 199.99834 L249.02344 199.99947 L249.51172 199.99837 L250.00000 199.99950 L250.48828 199.99841 L250.97656 199.99951 L251.46484 199.99844 L251.95313 199.99953 L252.44141 199.99849 L252.92969 199.99954 L253.41797 199.99852 L253.90625 199.99956 L254.39453 199.99855 L254.88281 199.99957 L255.37109 199.99858 L255.85938 199.99959 L256.34766 199.99863 L256.83594 199.99960 L257.32422 199.99864 L257.81250 199.99962 L258.30078 199.99867 L258.78906 199.99963 L259.27734 199.99870 L259.76563 199.99963 L260.25391 199.99873 L260.74219 199.99965 L261.23047 199.99875 L261.71875 199.99966 L262.20703 199.99878 L262.69531 199.99968 L263.18359 199.99879 L263.67188 199.99968 L264.16016 199.99883 L264.64844 199.99969 L265.13672 199.99886 L265.62500 199.99971 L266.11328 199.99887 L266.60156 199.99973 L267.08984 199.99889 L267.57813 199.99973 L268.06641 199.99892 L268.55469 199.99974 L269.04297 199.99893 L269.53125 199.99974 L270.01953 199.99895 L270.50781 199.99976 L270.99609 199.99898 L271.48438 199.99976 L271.97266 199.99899 L272.46094 199.99977 L272.94922 199.99901 L273.43750 199.99977 L273.92578 199.99902 L274.41406 199.99977 L274.90234 199.99905 L275.39063 199.99979 L275.87891 199.99905 L276.36719 199.99980 L276.85547 199.99907 L277.34375 199.99979 L277.83203 199.99910 L278.32031 199.99980 L278.80859 199.99910 L279.29688 199.99980 L279.78516 199.99913 L280.27344 199.99980 L280.76172 199.99915 L281.25000 199.99982 L281.73828 199.99915 L282.22656 199.99982 L282.71484 199.99916 L283.20313 199.99983 L283.69141 199.99918 L284.17969 199.99983 L284.66797 199.99919 L285.15625 199.99983 L285.64453 199.99921 L286.13281 199.99983 L286.62109 199.99922 L287.10938 199.99985 L287.59766 199.99922 L288.08594 199.99985 L288.57422 199.99924 L289.06250 199.99985 L289.55078 199.99925 L290.03906 199.99986 L290.52734 199.99925 L291.01563 199.99985 L291.50391 199.99928 L291.99219 199.99985 L292.48047 199.99928 L292.96875 199.99985 L293.45703 199.99930 L293.94531 199.99986 L294.43359 199.99930 L294.92188 199.99986 L295.41016 199.99931 L295.89844 199.99986 L296.38672 199.99933 L296.87500 199.99986 L297.36328 199.99933 L297.85156 199.99986 L298.33984 199.99934 L298.82813 199.99988 L299.31641 199.99936 L299.80469 199.99988 L300.29297 199.99936 L300.78125 199.99988 L301.26953 199.99937 L301.75781 199.99988 L302.24609 199.99937 L302.73438 199.99988 L303.22266 199.99939 L303.71094 199.99989 L304.19922 199.99939 L304.68750 199.99989 L305.17578 199.99940 L305.66406 199.99989 L306.15234 199.99940 L306.64063 199.99989 L307.12891 199.99942 L307.61719 199.99989 L308.10547 199.99942 L308.59375 199.99989 L309.08203 199.99945 L309.57031 199.99989 L310.05859 199.99945 L310.54688 199.99989 L311.03516 199.99944 L311.52344 199.99991 L312.01172 199.99945 L312.50000 199.99989 L312.98828 199.99947 L313.47656 199.99989 L313.96484 199.99947 L314.45313 199.99991 L314.94141 199.99948 L315.42969 199.99989 L315.91797 199.99948 L316.40625 199.99991 L316.89453 199.99948 L317.38281 199.99989 L317.87109 199.99950 L318.35938 199.99991 L318.84766 199.99950 L319.33594 199.99991 L319.82422 199.99951 L320.31250 199.99991 L320.80078 199.99951 L321.28906 199.99991 L321.77734 199.99951 L322.26563 199.99991 L322.75391 199.99953 L323.24219 199.99991 L323.73047 199.99953 L324.21875 199.99991 L324.70703 199.99953 L325.19531 199.99991 L325.68359 199.99954 L326.17188 199.99991 L326.66016 199.99954 L327.14844 199.99991 L327.63672 199.99956 L328.12500 199.99991 L328.61328 199.99956 L329.10156 199.99991 L329.58984 199.99956 L330.07813 199.99991 L330.56641 199.99957 L331.05469 199.99991 L331.54297 199.99957 L332.03125 199.99991 L332.51953 199.99957 L333.00781 199.99991 L333.49609 199.99959 L333.98438 199.99991 L334.47266 199.99959 L334.96094 199.99991 L335.44922 199.99960 L335.93750 199.99991 L336.42578 199.99960 L336.91406 199.99991 L337.40234 199.99960 L337.89063 199.99991 L338.37891 199.99960 L338.86719 199.99991 L339.35547 199.99962 L339.84375 199.99991 L340.33203 199.99962 L340.82031 199.99992 L341.30859 199.99962 L341.79688 199.99991 L342.28516 199.99962 L342.77344 199.99991 L343.26172 199.99963 L343.75000 199.99991 L344.23828 199.99963 L344.72656 199.99991 L345.21484 199.99963 L345.70313 199.99991 L346.19141 199.99963 L346.67969 199.99991 L347.16797 199.99965 L347.65625 199.99991 L348.14453 199.99965 L348.63281 199.99991 L349.12109 199.99965 L349.60938 199.99991 L350.09766 199.99966 L350.58594 199.99991 L351.07422 199.99966 L351.56250 199.99991 L352.05078 199.99966 L352.53906 199.99991 L353.02734 199.99966 L353.51563 199.99992 L354.00391 199.99966 L354.49219 199.99991 L354.98047 199.99968 L355.46875 199.99991 L355.95703 199.99968 L356.44531 199.99991 L356.93359 199.99968 L357.42188 199.99991 L357.91016 199.99968 L358.39844 199.99991 L358.88672 199.99968 L359.37500 199.99991 L359.86328 199.99969 L360.35156 199.99991 L360.83984 199.99969 L361.32813 199.99991 L361.81641 199.99969 L362.30469 199.99991 L362.79297 199.99969 L363.28125 199.99991 L363.76953 199.99969 L364.25781 199.99991 L364.74609 199.99971 L365.23438 199.99991 L365.72266 199.99971 L366.21094 199.99991 L366.69922 199.99971 L367.18750 199.99991 L367.67578 199.99971 L368.16406 199.99992 L368.65234 199.99971 L369.14063 199.99991 L369.62891 199.99973 L370.11719 199.99991 L370.60547 199.99973 L371.09375 199.99991 L371.58203 199.99973 L372.07031 199.99991 L372.55859 199.99973 L373.04688 199.99991 L373.53516 199.99974 L374.02344 199.99991 L374.51172 199.99974 L375.00000 199.99991 L375.48828 199.99973 L375.97656 199.99992 L376.46484 199.99974 L376.95313 199.99991 L377.44141 199.99974 L377.92969 199.99991 L378.41797 199.99974 L378.90625 199.99991 L379.39453 199.99974 L379.88281 199.99991 L380.37109 199.99976 L380.85938 199.99991 L381.34766 199.99976 L381.83594 199.99992 L382.32422 199.99976 L382.81250 199.99991 L383.30078 199.99976 L383.78906 199.99991 L384.27734 199.99976 L384.76563 199.99991 L385.25391 199.99977 L385.74219 199.99991 L386.23047 199.99977 L386.71875 199.99991 L387.20703 199.99977 L387.69531 199.99991 L388.18359 199.99977 L388.67188 199.99991 L389.16016 199.99977 L389.64844 199.99991 L390.13672 199.99977 L390.62500 199.99991 L391.11328 199.99977 L391.60156 199.99991 L392.08984 199.99977 L392.57813 199.99991 L393.06641 199.99979 L393.55469 199.99991 L394.04297 199.99979 L394.53125 199.99991 L395.01953 199.99979 L395.50781 199.99991 L395.99609 199.99979 L396.48438 199.99991 L396.97266 199.99979 L397.46094 199.99991 L397.94922 199.99979 L398.43750 199.99991 L398.92578 199.99979 L399.41406 199.99991 L399.90234 199.99979 L400.39063 199.99991 L400.87891 199.99979 L401.36719 199.99991 L401.85547 199.99979 L402.34375 199.99991 L402.83203 199.99979 L403.32031 199.99992 L403.80859 199.99980 L404.29688 199.99991 L404.78516 199.99980 L405.27344 199.99991 L405.76172 199.99980 L406.25000 199.99991 L406.73828 199.99980 L407.22656 199.99991 L407.71484 199.99980 L408.20313 199.99991 L408.69141 199.99980 L409.17969 199.99992 L409.66797 199.99980 L410.15625 199.99991 L410.64453 199.99980 L411.13281 199.99991 L411.62109 199.99980 L412.10938 199.99991 L412.59766 199.99980 L413.08594 199.99991 L413.57422 199.99982 L414.06250 199.99991 L414.55078 199.99982 L415.03906 199.99991 L415.52734 199.99982 L416.01563 199.99991 L416.50391 199.99982 L416.99219 199.99991 L417.48047 199.99982 L417.96875 199.99991 L418.45703 199.99982 L418.94531 199.99991 L419.43359 199.99982 L419.92188 199.99991 L420.41016 199.99982 L420.89844 199.99991 L421.38672 199.99983 L421.87500 199.99991 L422.36328 199.99983 L422.85156 199.99991 L423.33984 199.99983 L423.82813 199.99992 L424.31641 199.99983 L424.80469 199.99991 L425.29297 199.99983 L425.78125 199.99991 L426.26953 199.99983 L426.75781 199.99991 L427.24609 199.99983 L427.73438 199.99991 L428.22266 199.99983 L428.71094 199.99991 L429.19922 199.99983 L429.68750 199.99992 L430.17578 199.99983 L430.66406 199.99992 L431.15234 199.99983 L431.64063 199.99991 L432.12891 199.99983 L432.61719 199.99991 L433.10547 199.99983 L433.59375 199.99991 L434.08203 199.99985 L434.57031 199.99991 L435.05859 199.99985 L435.54688 199.99992 L436.03516 199.99985 L436.52344 199.99991 L437.01172 199.99985 L437.50000 199.99991 L437.98828 199.99985 L438.47656 199.99991 L438.96484 199.99985 L439.45313 199.99991 L439.94141 199.99985 L440.42969 199.99991 L440.91797 199.99985 L441.40625 199.99992 L441.89453 199.99985 L442.38281 199.99991 L442.87109 199.99985 L443.35938 199.99992 L443.84766 199.99985 L444.33594 199.99991 L444.82422 199.99985 L445.31250 199.99991 L445.80078 199.99985 L446.28906 199.99991 L446.77734 199.99985 L447.26563 199.99991 L447.75391 199.99985 L448.24219 199.99991 L448.73047 199.99985 L449.21875 199.99991 L449.70703 199.99986 L450.19531 199.99991 L450.68359 199.99985 L451.17188 199.99991 L451.66016 199.99986 L452.14844 199.99991 L452.63672 199.99986 L453.12500 199.99991 L453.61328 199.99986 L454.10156 199.99991 L454.58984 199.99986 L455.07813 199.99991 L455.56641 199.99986 L456.05469 199.99991 L456.54297 199.99986 L457.03125 199.99991 L457.51953 199.99986 L458.00781 199.99991 L458.49609 199.99986 L458.98438 199.99992 L459.47266 199.99986 L459.96094 199.99992 L460.44922 199.99986 L460.93750 199.99992 L461.42578 199.99986 L461.91406 199.99992 L462.40234 199.99986 L462.89063 199.99991 L463.37891 199.99986 L463.86719 199.99991 L464.35547 199.99986 L464.84375 199.99991 L465.33203 199.99986 L465.82031 199.99991 L466.30859 199.99988 L466.79688 199.99992 L467.28516 199.99986 L467.77344 199.99991 L468.26172 199.99988 L468.75000 199.99991 L469.23828 199.99988 L469.72656 199.99991 L470.21484 199.99988 L470.70313 199.99991 L471.19141 199.99988 L471.67969 199.99991 L472.16797 199.99988 L472.65625 199.99991 L473.14453 199.99988 L473.63281 199.99991 L474.12109 199.99988 L474.60938 199.99991 L475.09766 199.99988 L475.58594 199.99991 L476.07422 199.99988 L476.56250 199.99991 L477.05078 199.99988 L477.53906 199.99991 L478.02734 199.99988 L478.51563 199.99992 L479.00391 199.99988 L479.49219 199.99991 L479.98047 199.99988 L480.46875 199.99991 L480.95703 199.99988 L481.44531 199.99991 L481.93359 199.99988 L482.42188 199.99991 L482.91016 199.99988 L483.39844 199.99991 L483.88672 199.99988 L484.37500 199.99991 L484.86328 199.99988 L485.35156 199.99991 L485.83984 199.99988 L486.32813 199.99991 L486.81641 199.99988 L487.30469 199.99991 L487.79297 199.99988 L488.28125 199.99991 L488.76953 199.99988 L489.25781 199.99991 L489.74609 199.99988 L490.23438 199.99991 L490.72266 199.99988 L491.21094 199.99991 L491.69922 199.99988 L492.18750 199.99991 L492.67578 199.99988 L493.16406 199.99991 L493.65234 199.99988 L494.14063 199.99992 L494.62891 199.99988 L495.11719 199.99991 L495.60547 199.99988 L496.09375 199.99991 L496.58203 199.99988 L497.07031 199.99991 L497.55859 199.99988 L498.04688 199.99992 L498.53516 199.99988 L499.02344 199.99991 L499.51172 199.99988 L500.00000 199.99991 L500.48828 199.99988 L500.97656 199.99991 L501.46484 199.99988 L501.95313 199.99992 L502.44141 199.99988 L502.92969 199.99991 L503.41797 199.99988 L503.90625 199.99991 L504.39453 199.99988 L504.88281 199.99991 L505.37109 199.99988 L505.85938 199.99992 L506.34766 199.99988 L506.83594 199.99991 L507.32422 199.99988 L507.81250 199.99991 L508.30078 199.99988 L508.78906 199.99991 L509.27734 199.99988 L509.76563 199.99991 L510.25391 199.99988 L510.74219 199.99991 L511.23047 199.99988 L511.71875 199.99991 L512.20703 199.99988 L512.69531 199.99991 L513.18359 199.99988 L513.67188 199.99991 L514.16016 199.99988 L514.64844 199.99991 L515.13672 199.99988 L515.62500 199.99991 L516.11328 199.99988 L516.60156 199.99991 L517.08984 199.99988 L517.57813 199.99991 L518.06641 199.99988 L518.55469 199.99991 L519.04297 199.99988 L519.53125 199.99991 L520.01953 199.99988 L520.50781 199.99991 L520.99609 199.99988 L521.48438 199.99992 L521.97266 199.99988 L522.46094 199.99991 L522.94922 199.99988 L523.43750 199.99991 L523.92578 199.99988 L524.41406 199.99991 L524.90234 199.99988 L525.39063 199.99991 L525.87891 199.99988 L526.36719 199.99991 L526.85547 199.99988 L527.34375 199.99991 L527.83203 199.99988 L528.32031 199.99991 L528.80859 199.99988 L529.29688 199.99991 L529.78516 199.99988 L530.27344 199.99991 L530.76172 199.99988 L531.25000 199.99991 L531.73828 199.99988 L532.22656 199.99991 L532.71484 199.99986 L533.20313 199.99992 L533.69141 199.99986 L534.17969 199.99991 L534.66797 199.99986 L535.15625 199.99991 L535.64453 199.99986 L536.13281 199.99991 L536.62109 199.99986 L537.10938 199.99991 L537.59766 199.99986 L538.08594 199.99992 L538.57422 199.99986 L539.06250 199.99992 L539.55078 199.99986 L540.03906 199.99992 L540.52734 199.99986 L541.01563 199.99992 L541.50391 199.99986 L541.99219 199.99991 L542.48047 199.99986 L542.96875 199.99991 L543.45703 199.99986 L543.94531 199.99991 L544.43359 199.99986 L544.92188 199.99991 L545.41016 199.99986 L545.89844 199.99991 L546.38672 199.99986 L546.87500 199.99991 L547.36328 199.99986 L547.85156 199.99991 L548.33984 199.99986 L548.82813 199.99991 L549.31641 199.99985 L549.80469 199.99991 L550.29297 199.99986 L550.78125 199.99991 L551.26953 199.99985 L551.75781 199.99991 L552.24609 199.99985 L552.73438 199.99991 L553.22266 199.99985 L553.71094 199.99991 L554.19922 199.99985 L554.68750 199.99991 L555.17578 199.99985 L555.66406 199.99991 L556.15234 199.99985 L556.64063 199.99992 L557.12891 199.99985 L557.61719 199.99991 L558.10547 199.99985 L558.59375 199.99992 L559.08203 199.99985 L559.57031 199.99991 L560.05859 199.99985 L560.54688 199.99991 L561.03516 199.99985 L561.52344 199.99991 L562.01172 199.99985 L562.50000 199.99991 L562.98828 199.99985 L563.47656 199.99991 L563.96484 199.99985 L564.45313 199.99992 L564.94141 199.99985 L565.42969 199.99991 L565.91797 199.99985 L566.40625 199.99991 L566.89453 199.99983 L567.38281 199.99991 L567.87109 199.99983 L568.35938 199.99991 L568.84766 199.99983 L569.33594 199.99992 L569.82422 199.99983 L570.31250 199.99992 L570.80078 199.99983 L571.28906 199.99991 L571.77734 199.99983 L572.26563 199.99991 L572.75391 199.99983 L573.24219 199.99991 L573.73047 199.99983 L574.21875 199.99991 L574.70703 199.99983 L575.19531 199.99991 L575.68359 199.99983 L576.17188 199.99992 L576.66016 199.99983 L577.14844 199.99991 L577.63672 199.99983 L578.12500 199.99991 L578.61328 199.99983 L579.10156 199.99991 L579.58984 199.99982 L580.07813 199.99991 L580.56641 199.99982 L581.05469 199.99991 L581.54297 199.99982 L582.03125 199.99991 L582.51953 199.99982 L583.00781 199.99991 L583.49609 199.99982 L583.98438 199.99991 L584.47266 199.99982 L584.96094 199.99991 L585.44922 199.99982 L585.93750 199.99991 L586.42578 199.99980 L586.91406 199.99991 L587.40234 199.99980 L587.89063 199.99991 L588.37891 199.99980 L588.86719 199.99991 L589.35547 199.99980 L589.84375 199.99991 L590.33203 199.99980 L590.82031 199.99992 L591.30859 199.99980 L591.79688 199.99991 L592.28516 199.99980 L592.77344 199.99991 L593.26172 199.99980 L593.75000 199.99991 L594.23828 199.99980 L594.72656 199.99991 L595.21484 199.99980 L595.70313 199.99991 L596.19141 199.99980 L596.67969 199.99992 L597.16797 199.99979 L597.65625 199.99991 L598.14453 199.99979 L598.63281 199.99991 L599.12109 199.99979 L599.60938 199.99991 L600.09766 199.99979 L600.58594 199.99991 L601.07422 199.99979 L601.56250 199.99991 L602.05078 199.99979 L602.53906 199.99991 L603.02734 199.99979 L603.51563 199.99991 L604.00391 199.99979 L604.49219 199.99991 L604.98047 199.99977 L605.46875 199.99991 L605.95703 199.99979 L606.44531 199.99991 L606.93359 199.99979 L607.42188 199.99991 L607.91016 199.99977 L608.39844 199.99991 L608.88672 199.99977 L609.37500 199.99991 L609.86328 199.99977 L610.35156 199.99991 L610.83984 199.99977 L611.32813 199.99991 L611.81641 199.99977 L612.30469 199.99991 L612.79297 199.99977 L613.28125 199.99991 L613.76953 199.99977 L614.25781 199.99991 L614.74609 199.99977 L615.23438 199.99991 L615.72266 199.99976 L616.21094 199.99991 L616.69922 199.99976 L617.18750 199.99991 L617.67578 199.99976 L618.16406 199.99992 L618.65234 199.99976 L619.14063 199.99991 L619.62891 199.99976 L620.11719 199.99991 L620.60547 199.99974 L621.09375 199.99991 L621.58203 199.99974 L622.07031 199.99991 L622.55859 199.99974 L623.04688 199.99991 L623.53516 199.99974 L624.02344 199.99992 L624.51172 199.99973 L625.00000 199.99991 L625.48828 199.99974 L625.97656 199.99991 L626.46484 199.99974 L626.95313 199.99991 L627.44141 199.99973 L627.92969 199.99991 L628.41797 199.99973 L628.90625 199.99991 L629.39453 199.99973 L629.88281 199.99991 L630.37109 199.99973 L630.85938 199.99991 L631.34766 199.99971 L631.83594 199.99992 L632.32422 199.99971 L632.81250 199.99991 L633.30078 199.99971 L633.78906 199.99991 L634.27734 199.99971 L634.76563 199.99991 L635.25391 199.99971 L635.74219 199.99991 L636.23047 199.99969 L636.71875 199.99991 L637.20703 199.99969 L637.69531 199.99991 L638.18359 199.99969 L638.67188 199.99991 L639.16016 199.99969 L639.64844 199.99991 L640.13672 199.99969 L640.62500 199.99991 L641.11328 199.99968 L641.60156 199.99991 L642.08984 199.99968 L642.57813 199.99991 L643.06641 199.99968 L643.55469 199.99991 L644.04297 199.99968 L644.53125 199.99991 L645.01953 199.99968 L645.50781 199.99991 L645.99609 199.99966 L646.48438 199.99992 L646.97266 199.99966 L647.46094 199.99991 L647.94922 199.99966 L648.43750 199.99991 L648.92578 199.99966 L649.41406 199.99991 L649.90234 199.99966 L650.39063 199.99991 L650.87891 199.99965 L651.36719 199.99991 L651.85547 199.99965 L652.34375 199.99991 L652.83203 199.99965 L653.32031 199.99991 L653.80859 199.99963 L654.29688 199.99991 L654.78516 199.99963 L655.27344 199.99991 L655.76172 199.99963 L656.25000 199.99991 L656.73828 199.99963 L657.22656 199.99991 L657.71484 199.99962 L658.20313 199.99991 L658.69141 199.99962 L659.17969 199.99992 L659.66797 199.99962 L660.15625 199.99991 L660.64453 199.99962 L661.13281 199.99991 L661.62109 199.99960 L662.10938 199.99991 L662.59766 199.99960 L663.08594 199.99991 L663.57422 199.99960 L664.06250 199.99991 L664.55078 199.99960 L665.03906 199.99991 L665.52734 199.99959 L666.01563 199.99991 L666.50391 199.99959 L666.99219 199.99991 L667.48047 199.99959 L667.96875 199.99991 L668.45703 199.99957 L668.94531 199.99991 L669.43359 199.99957 L669.92188 199.99991 L670.41016 199.99956 L670.89844 199.99991 L671.38672 199.99956 L671.87500 199.99991 L672.36328 199.99956 L672.85156 199.99991 L673.33984 199.99954 L673.82813 199.99991 L674.31641 199.99954 L674.80469 199.99991 L675.29297 199.99953 L675.78125 199.99991 L676.26953 199.99953 L676.75781 199.99991 L677.24609 199.99953 L677.73438 199.99991 L678.22266 199.99951 L678.71094 199.99991 L679.19922 199.99951 L679.68750 199.99991 L680.17578 199.99951 L680.66406 199.99991 L681.15234 199.99950 L681.64063 199.99991 L682.12891 199.99950 L682.61719 199.99989 L683.10547 199.99948 L683.59375 199.99991 L684.08203 199.99948 L684.57031 199.99989 L685.05859 199.99948 L685.54688 199.99991 L686.03516 199.99947 L686.52344 199.99989 L687.01172 199.99947 L687.50000 199.99989 L687.98828 199.99945 L688.47656 199.99991 L688.96484 199.99944 L689.45313 199.99989 L689.94141 199.99945 L690.42969 199.99989 L690.91797 199.99942 L691.40625 199.99991 L691.89453 199.99942 L692.38281 199.99989 L692.87109 199.99942 L693.35938 199.99989 L693.84766 199.99940 L694.33594 199.99989 L694.82422 199.99940 L695.31250 199.99989 L695.80078 199.99939 L696.28906 199.99989 L696.77734 199.99939 L697.26563 199.99988 L697.75391 199.99937 L698.24219 199.99988 L698.73047 199.99937 L699.21875 199.99988 L699.70703 199.99936 L700.19531 199.99988 L700.68359 199.99936 L701.17188 199.99988 L701.66016 199.99934 L702.14844 199.99986 L702.63672 199.99933 L703.12500 199.99986 L703.61328 199.99933 L704.10156 199.99986 L704.58984 199.99931 L705.07813 199.99986 L705.56641 199.99930 L706.05469 199.99986 L706.54297 199.99930 L707.03125 199.99985 L707.51953 199.99928 L708.00781 199.99985 L708.49609 199.99928 L708.98438 199.99985 L709.47266 199.99925 L709.96094 199.99986 L710.44922 199.99924 L710.93750 199.99985 L711.42578 199.99924 L711.91406 199.99985 L712.40234 199.99922 L712.89063 199.99985 L713.37891 199.99922 L713.86719 199.99983 L714.35547 199.99921 L714.84375 199.99983 L715.33203 199.99919 L715.82031 199.99983 L716.30859 199.99918 L716.79688 199.99983 L717.28516 199.99916 L717.77344 199.99982 L718.26172 199.99915 L718.75000 199.99982 L719.23828 199.99915 L719.72656 199.99980 L720.21484 199.99913 L720.70313 199.99980 L721.19141 199.99910 L721.67969 199.99980 L722.16797 199.99910 L722.65625 199.99979 L723.14453 199.99907 L723.63281 199.99980 L724.12109 199.99905 L724.60938 199.99979 L725.09766 199.99905 L725.58594 199.99977 L726.07422 199.99902 L726.56250 199.99977 L727.05078 199.99901 L727.53906 199.99977 L728.02734 199.99899 L728.51563 199.99976 L729.00391 199.99898 L729.49219 199.99976 L729.98047 199.99895 L730.46875 199.99974 L730.95703 199.99893 L731.44531 199.99974 L731.93359 199.99892 L732.42188 199.99973 L732.91016 199.99889 L733.39844 199.99973 L733.88672 199.99887 L734.37500 199.99971 L734.86328 199.99886 L735.35156 199.99969 L735.83984 199.99883 L736.32813 199.99968 L736.81641 199.99879 L737.30469 199.99968 L737.79297 199.99878 L738.28125 199.99966 L738.76953 199.99875 L739.25781 199.99965 L739.74609 199.99873 L740.23438 199.99963 L740.72266 199.99870 L741.21094 199.99963 L741.69922 199.99867 L742.18750 199.99962 L742.67578 199.99864 L743.16406 199.99960 L743.65234 199.99863 L744.14063 199.99959 L744.62891 199.99858 L745.11719 199.99957 L745.60547 199.99855 L746.09375 199.99956 L746.58203 199.99852 L747.07031 199.99954 L747.55859 199.99849 L748.04688 199.99953 L748.53516 199.99846 L749.02344 199.99951 L749.51172 199.99841 L750.00000 199.99950 L750.48828 199.99838 L750.97656 199.99947 L751.46484 199.99834 L751.95313 199.99945 L752.44141 199.99829 L752.92969 199.99942 L753.41797 199.99825 L753.90625 199.99940 L754.39453 199.99820 L754.88281 199.99937 L755.37109 199.99817 L755.85938 199.99934 L756.34766 199.99811 L756.83594 199.99931 L757.32422 199.99806 L757.81250 199.99928 L758.30078 199.99800 L758.78906 199.99925 L759.27734 199.99794 L759.76563 199.99922 L760.25391 199.99789 L760.74219 199.99919 L761.23047 199.99782 L761.71875 199.99916 L762.20703 199.99776 L762.69531 199.99911 L763.18359 199.99770 L763.67188 199.99908 L764.16016 199.99762 L764.64844 199.99902 L765.13672 199.99754 L765.62500 199.99899 L766.11328 199.99747 L766.60156 199.99895 L767.08984 199.99738 L767.57813 199.99889 L768.06641 199.99728 L768.55469 199.99884 L769.04297 199.99718 L769.53125 199.99876 L770.01953 199.99709 L770.50781 199.99870 L770.99609 199.99696 L771.48438 199.99863 L771.97266 199.99686 L772.46094 199.99855 L772.94922 199.99673 L773.43750 199.99847 L773.92578 199.99660 L774.41406 199.99838 L774.90234 199.99644 L775.39063 199.99829 L775.87891 199.99628 L776.36719 199.99818 L776.85547 199.99611 L777.34375 199.99808 L777.83203 199.99593 L778.32031 199.99794 L778.80859 199.99573 L779.29688 199.99780 L779.78516 199.99550 L780.27344 199.99767 L780.76172 199.99525 L781.25000 199.99748 L781.73828 199.99498 L782.22656 199.99730 L782.71484 199.99467 L783.20313 199.99707 L783.69141 199.99432 L784.17969 199.99684 L784.66797 199.99394 L785.15625 199.99657 L785.64453 199.99350 L786.13281 199.99626 L786.62109 199.99301 L787.10938 199.99590 L787.59766 199.99243 L788.08594 199.99547 L788.57422 199.99174 L789.06250 199.99496 L789.55078 199.99094 L790.03906 199.99437 L790.52734 199.98997 L791.01563 199.99364 L791.50391 199.98878 L791.99219 199.99272 L792.48047 199.98727 L792.96875 199.99155 L793.45703 199.98532 L793.94531 199.98999 L794.43359 199.98268 L794.92188 199.98784 L795.41016 199.97894 L795.89844 199.98465 L796.38672 199.97316 L796.87500 199.97946 L797.36328 199.96307 L797.85156 199.96954 L798.33984 199.94115 L798.82813 199.94305 L799.31641 199.85660 L799.80469 199.65158 L800.29297 199.66428 L800.78125 199.91119 L801.26953 199.92227 L801.75781 199.95975 L802.24609 199.95592 L802.73438 199.97362 L803.22266 199.96918 L803.71094 199.98018 L804.19922 199.97627 L804.68750 199.98399 L805.17578 199.98068 L805.66406 199.98650 L806.15234 199.98370 L806.64063 199.98825 L807.12891 199.98590 L807.61719 199.98955 L808.10547 199.98756 L808.59375 199.99054 L809.08203 199.98888 L809.57031 199.99135 L810.05859 199.98991 L810.54688 199.99199 L811.03516 199.99078 L811.52344 199.99252 L812.01172 199.99152 L812.50000 199.99297 L812.98828 199.99213 L813.47656 199.99335 L813.96484 199.99266 L814.45313 199.99367 L814.94141 199.99313 L815.42969 199.99394 L815.91797 199.99355 L816.40625 199.99419 L816.89453 199.99390 L817.38281 199.99440 L817.87109 199.99422 L818.35938 199.99460 L818.84766 199.99451 L819.33594 199.99477 L819.82422 199.99477 L820.31250 199.99490 L820.80078 199.99500 L821.28906 199.99504 L821.77734 199.99522 L822.26563 199.99516 L822.75391 199.99541 L823.24219 199.99527 L823.73047 199.99559 L824.21875 199.99536 L824.70703 199.99576 L825.19531 199.99544 L825.68359 199.99593 L826.17188 199.99553 L826.66016 199.99606 L827.14844 199.99559 L827.63672 199.99620 L828.12500 199.99565 L828.61328 199.99634 L829.10156 199.99571 L829.58984 199.99644 L830.07813 199.99576 L830.56641 199.99657 L831.05469 199.99582 L831.54297 199.99667 L832.03125 199.99585 L832.51953 199.99677 L833.00781 199.99588 L833.49609 199.99686 L833.98438 199.99591 L834.47266 199.99695 L834.96094 199.99594 L835.44922 199.99702 L835.93750 199.99596 L836.42578 199.99712 L836.91406 199.99599 L837.40234 199.99719 L837.89063 199.99600 L838.37891 199.99727 L838.86719 199.99602 L839.35547 199.99734 L839.84375 199.99602 L840.33203 199.99741 L840.82031 199.99603 L841.30859 199.99747 L841.79688 199.99603 L842.28516 199.99753 L842.77344 199.99603 L843.26172 199.99760 L843.75000 199.99603 L844.23828 199.99765 L844.72656 199.99603 L845.21484 199.99771 L845.70313 199.99602 L846.19141 199.99777 L846.67969 199.99602 L847.16797 199.99783 L847.65625 199.99600 L848.14453 199.99789 L848.63281 199.99599 L849.12109 199.99794 L849.60938 199.99597 L850.09766 199.99799 L850.58594 199.99596 L851.07422 199.99805 L851.56250 199.99594 L852.05078 199.99809 L852.53906 199.99593 L853.02734 199.99814 L853.51563 199.99590 L854.00391 199.99818 L854.49219 199.99586 L854.98047 199.99823 L855.46875 199.99583 L855.95703 199.99828 L856.44531 199.99580 L856.93359 199.99832 L857.42188 199.99577 L857.91016 199.99837 L858.39844 199.99574 L858.88672 199.99841 L859.37500 199.99570 L859.86328 199.99846 L860.35156 199.99565 L860.83984 199.99850 L861.32813 199.99561 L861.81641 199.99855 L862.30469 199.99557 L862.79297 199.99860 L863.28125 199.99553 L863.76953 199.99864 L864.25781 199.99547 L864.74609 199.99869 L865.23438 199.99542 L865.72266 199.99873 L866.21094 199.99536 L866.69922 199.99878 L867.18750 199.99530 L867.67578 199.99883 L868.16406 199.99524 L868.65234 199.99886 L869.14063 199.99518 L869.62891 199.99890 L870.11719 199.99510 L870.60547 199.99895 L871.09375 199.99504 L871.58203 199.99899 L872.07031 199.99495 L872.55859 199.99902 L873.04688 199.99487 L873.53516 199.99907 L874.02344 199.99480 L874.51172 199.99911 L875.00000 199.99471 L875.48828 199.99916 L875.97656 199.99461 L876.46484 199.99921 L876.95313 199.99452 L877.44141 199.99924 L877.92969 199.99442 L878.41797 199.99927 L878.90625 199.99431 L879.39453 199.99930 L879.88281 199.99420 L880.37109 199.99933 L880.85938 199.99408 L881.34766 199.99936 L881.83594 199.99396 L882.32422 199.99937 L882.81250 199.99382 L883.30078 199.99937 L883.78906 199.99370 L884.27734 199.99937 L884.76563 199.99356 L885.25391 199.99936 L885.74219 199.99341 L886.23047 199.99933 L886.71875 199.99324 L887.20703 199.99928 L887.69531 199.99307 L888.18359 199.99924 L888.67188 199.99290 L889.16016 199.99916 L889.64844 199.99272 L890.13672 199.99910 L890.62500 199.99252 L891.11328 199.99901 L891.60156 199.99231 L892.08984 199.99892 L892.57813 199.99210 L893.06641 199.99881 L893.55469 199.99187 L894.04297 199.99870 L894.53125 199.99162 L895.01953 199.99858 L895.50781 199.99136 L895.99609 199.99844 L896.48438 199.99109 L896.97266 199.99829 L897.46094 199.99080 L897.94922 199.99814 L898.43750 199.99049 L898.92578 199.99796 L899.41406 199.99016 L899.90234 199.99777 L900.39063 199.98981 L900.87891 199.99759 L901.36719 199.98943 L901.85547 199.99738 L902.34375 199.98903 L902.83203 199.99715 L903.32031 199.98859 L903.80859 199.99689 L904.29688 199.98811 L904.78516 199.99661 L905.27344 199.98763 L905.76172 199.99632 L906.25000 199.98708 L906.73828 199.99600 L907.22656 199.98650 L907.71484 199.99565 L908.20313 199.98586 L908.69141 199.99527 L909.17969 199.98517 L909.66797 199.99486 L910.15625 199.98442 L910.64453 199.99440 L911.13281 199.98360 L911.62109 199.99388 L912.10938 199.98271 L912.59766 199.99332 L913.08594 199.98172 L913.57422 199.99268 L914.06250 199.98064 L914.55078 199.99197 L915.03906 199.97943 L915.52734 199.99117 L916.01563 199.97810 L916.50391 199.99026 L916.99219 199.97662 L917.48047 199.98924 L917.96875 199.97495 L918.45703 199.98808 L918.94531 199.97307 L919.43359 199.98674 L919.92188 199.97095 L920.41016 199.98518 L920.89844 199.96852 L921.38672 199.98338 L921.87500 199.96573 L922.36328 199.98125 L922.85156 199.96252 L923.33984 199.97873 L923.82813 199.95879 L924.31641 199.97572 L924.80469 199.95439 L925.29297 199.97211 L925.78125 199.94917 L926.26953 199.96765 L926.75781 199.94290 L927.24609 199.96216 L927.73438 199.93529 L928.22266 199.95525 L928.71094 199.92589 L929.19922 199.94644 L929.68750 199.91411 L930.17578 199.93495 L930.66406 199.89899 L931.15234 199.91966 L931.64063 199.87917 L932.12891 199.89874 L932.61719 199.85240 L933.10547 199.86922 L933.59375 199.81497 L934.08203 199.82579 L934.57031 199.76016 L935.05859 199.75858 L935.54688 199.67516 L936.03516 199.64728 L936.52344 199.53241 L937.01172 199.44463 L937.50000 199.26353 L937.98828 199.01955 L938.47656 198.65747 L938.96484 197.88947 L939.45313 196.76056 L939.94141 192.98070 L940.42969 183.04088 L940.91797 33.60402 L941.40625 23.89804 L941.89453 177.57925 L942.38281 193.71736 L942.87109 195.80951 L943.35938 198.11273 L943.84766 198.24237 L944.33594 199.11327 L944.82422 199.01648 L945.31250 199.49022 L945.80078 199.36050 L946.28906 199.67081 L946.77734 199.54367 L947.26563 199.77049 L947.75391 199.65285 L948.24219 199.83087 L948.73047 199.72299 L949.21875 199.86981 L949.70703 199.77031 L950.19531 199.89601 L950.68359 199.80305 L951.17188 199.91403 L951.66016 199.82567 L952.14844 199.92647 L952.63672 199.84045 L953.12500 199.93478 L953.61328 199.84846 L954.10156 199.93982 L954.58984 199.84981 L955.07813 199.94197 L955.56641 199.84380 L956.05469 199.94139 L956.54297 199.82899 L957.03125 199.93790 L957.51953 199.80287 L958.00781 199.93095 L958.49609 199.76114 L958.98438 199.91949 L959.47266 199.69609 L959.96094 199.90138 L960.44922 199.59328 L960.93750 199.87228 L961.42578 199.42302 L961.91406 199.82298 L962.40234 199.11737 L962.89063 199.73073 L963.37891 198.49268 L963.86719 199.52730 L964.35547 196.90092 L964.84375 198.92041 L965.33203 190.55846 L965.82031 195.13646 L966.30859 66.83093 L966.79688 -0.00000 L967.28516 154.72719 L967.77344 197.30063 L968.26172 193.10365 L968.75000 199.25598 L969.23828 197.31538 L969.72656 199.66273 L970.21484 198.57489 L970.70313 199.81027 L971.19141 199.11555 L971.67969 199.87949 L972.16797 199.39696 L972.65625 199.91725 L973.14453 199.56223 L973.63281 199.94000 L974.12109 199.66768 L974.60938 199.95473 L975.09766 199.73921 L975.58594 199.96478 L976.07422 199.79004 L976.56250 199.97194 L977.05078 199.82751 L977.53906 199.97720 L978.02734 199.85597 L978.51563 199.98120 L979.00391 199.87813 L979.49219 199.98428 L979.98047 199.89575 L980.46875 199.98672 L980.95703 199.91003 L981.44531 199.98869 L981.93359 199.92175 L982.42188 199.99030 L982.91016 199.93155 L983.39844 199.99164 L983.88672 199.93982 L984.37500 199.99274 L984.86328 199.94687 L985.35156 199.99367 L985.83984 199.95296 L986.32813 199.99449 L986.81641 199.95827 L987.30469 199.99518 L987.79297 199.96292 L988.28125 199.99579 L988.76953 199.96704 L989.25781 199.99632 L989.74609 199.97072 L990.23438 199.99678 L990.72266 199.97400 L991.21094 199.99721 L991.69922 199.97696 L992.18750 199.99759 L992.67578 199.97961 L993.16406 199.99794 L993.65234 199.98203 L994.14063 199.99825 L994.62891 199.98418 L995.11719 199.99854 L995.60547 199.98608 L996.09375 199.99879 L996.58203 199.98772 L997.07031 199.99902 L997.55859 199.98904 L998.04688 199.99922 L998.53516 199.98999 L999.02344 199.99937 L999.51172 199.99048" /><path fill="none" stroke="#000000" d="M0 300.00220  L0.00000 200.00000  L0.48828 296.07935  L0.97656 386.77417  L1.46484 288.53000  L1.95313 376.78223  L2.44141 281.83737  L2.92969 370.18134  L3.41797 276.21634  L3.90625 366.05530  L4.39453 271.51312  L4.88281 362.84134  L5.37109 267.58856  L5.85938 360.48749  L6.34766 264.31708  L6.83594 358.76950  L7.32422 261.52097  L7.81250 357.33438  L8.30078 259.06720  L8.78906 356.09296  L9.27734 256.90982  L9.76563 355.01566  L10.25391 254.96481  L10.74219 353.96655  L11.23047 253.18326  L11.71875 353.06931  L12.20703 251.53232  L12.69531 352.13034  L13.18359 249.98410  L13.67188 351.21793  L14.16016 248.51578  L14.64844 350.34497  L15.13672 247.10822  L15.62500 349.38947  L16.11328 245.75020  L16.60156 348.41849  L17.08984 244.42542  L17.57813 347.42166  L18.06641 243.12892  L18.55469 346.38330  L19.04297 241.85133  L19.53125 345.28821  L20.01953 240.57866  L20.50781 344.11313  L20.99609 239.30426  L21.48438 342.85699  L21.97266 238.02769  L22.46094 341.55997  L22.94922 236.74170  L23.43750 340.17715  L23.92578 235.43228  L24.41406 338.69873  L24.90234 234.09662  L25.39063 337.13223  L25.87891 232.72572  L26.36719 335.45465  L26.85547 231.31349  L27.34375 333.68353  L27.83203 229.84766  L28.32031 331.79181  L28.80859 228.31981  L29.29688 329.78442  L29.78516 226.71669  L30.27344 327.64798  L30.76172 225.02441  L31.25000 325.37399  L31.73828 223.22490  L32.22656 322.94965  L32.71484 221.29778  L33.20313 320.36087  L33.69141 219.21815  L34.17969 317.59106  L34.66797 216.95436  L35.15625 314.61630  L35.64453 214.46904  L36.13281 311.40942  L36.62109 211.71663  L37.10938 307.93939  L37.59766 208.64008  L38.08594 304.16354  L38.57422 205.17577  L39.06250 300.04077  L39.55078 201.25471  L40.03906 295.53241  L40.52734 396.81000  L41.01563 290.60110  L41.50391 391.79507  L41.99219 285.24838  L42.48047 386.22003  L42.96875 279.51935  L43.45703 380.18665  L43.94531 273.53717  L44.43359 373.88977  L44.92188 267.46411  L45.41016 367.59247  L45.89844 261.49713  L46.38672 361.55005  L46.87500 255.81989  L47.36328 355.94522  L47.85156 250.57040  L48.33984 350.86389  L48.82813 245.80138  L49.31641 346.29791  L49.80469 241.51624  L50.29297 342.20450  L50.78125 237.69060  L51.26953 338.51486  L51.75781 234.27463  L52.24609 335.15991  L52.73438 231.21703  L53.22266 332.07990  L53.71094 228.46895  L54.19922 329.22128  L54.68750 225.98528  L55.17578 326.54553  L55.66406 223.73137  L56.15234 324.01532  L56.64063 221.67262  L57.12891 321.60516  L57.61719 219.78265  L58.10547 319.29401  L58.59375 218.03821  L59.08203 317.06714  L59.57031 216.42175  L60.05859 314.91180  L60.54688 214.91750  L61.03516 312.81879  L61.52344 213.51210  L62.01172 310.78122  L62.50000 212.19441  L62.98828 308.79425  L63.47656 210.95497  L63.96484 306.85373  L64.45313 209.78288  L64.94141 304.96152  L65.42969 208.67589  L65.91797 303.11310  L66.40625 207.62486  L66.89453 301.30811  L67.38281 206.62585  L67.87109 299.54535  L68.35938 205.67113  L68.84766 297.82874  L69.33594 204.76048  L69.82422 296.15994  L70.31250 203.88945  L70.80078 294.53577  L71.28906 203.05284  L71.77734 292.95361  L72.26563 202.24399  L72.75391 291.41782  L73.24219 201.46863  L73.73047 289.93744  L74.21875 200.72404  L74.70703 288.50781  L75.19531 200.00453  L75.68359 287.11411  L76.17188 399.30585  L76.66016 285.77368  L77.14844 398.62897  L77.63672 284.48529  L78.12500 397.97293  L78.61328 283.25073  L79.10156 397.34210  L79.58984 282.06589  L80.07813 396.72174  L80.56641 280.92297  L81.05469 396.11993  L81.54297 279.83374  L82.03125 395.53043  L82.51953 278.79962  L83.00781 394.96936  L83.49609 277.78992  L83.98438 394.40656  L84.47266 276.82639  L84.96094 393.84744  L85.44922 275.94202  L85.93750 393.32697  L86.42578 275.12720  L86.91406 392.81262  L87.40234 274.30106  L87.89063 392.29303  L88.37891 273.51569  L88.86719 391.77753  L89.35547 272.84628  L89.84375 391.31744  L90.33203 272.21039  L90.82031 390.80011  L91.30859 271.55392  L91.79688 390.34192  L92.28516 271.04019  L92.77344 389.86072  L93.26172 270.51978  L93.75000 389.40509  L94.23828 270.10147  L94.72656 388.95447  L95.21484 269.70682  L95.70313 388.49152  L96.19141 269.40619  L96.67969 388.05731  L97.16797 269.13690  L97.65625 387.63577  L98.14453 269.00864  L98.63281 387.20782  L99.12109 268.90085  L99.60938 386.78082  L100.09766 268.91180  L100.58594 386.36267  L101.07422 269.04318  L101.56250 385.96667  L102.05078 269.27057  L102.53906 385.56183  L103.02734 269.60999  L103.51563 385.15411  L104.00391 270.04767  L104.49219 384.75443  L104.98047 270.54907  L105.46875 384.33707  L105.95703 271.56982  L106.44531 383.96783  L106.93359 272.46497  L107.42188 383.59143  L107.91016 273.73923  L108.39844 383.17603  L108.88672 275.45056  L109.37500 382.83850  L109.86328 277.33029  L110.35156 382.45099  L110.83984 279.52820  L111.32813 382.04645  L111.81641 281.77121  L112.30469 381.67230  L112.79297 284.73401  L113.28125 381.32654  L113.76953 288.42221  L114.25781 380.97467  L114.74609 291.82922  L115.23438 380.59259  L115.72266 295.17859  L116.21094 380.22720  L116.69922 298.65781  L117.18750 379.86267  L117.67578 301.91196  L118.16406 379.52875  L118.65234 305.20975  L119.14063 379.15628  L119.62891 308.13501  L120.11719 378.80756  L120.60547 310.75104  L121.09375 378.49646  L121.58203 312.73169  L122.07031 378.13849  L122.55859 314.70340  L123.04688 377.80573  L123.53516 316.30737  L124.02344 377.42911  L124.51172 317.50897  L125.00000 377.08417  L125.48828 318.60825  L125.97656 376.76794  L126.46484 319.55481  L126.95313 376.42059  L127.44141 320.41782  L127.92969 376.07220  L128.41797 321.04565  L128.90625 375.70184  L129.39453 321.55847  L129.88281 375.35983  L130.37109 321.80463  L130.85938 375.07141  L131.34766 322.31729  L131.83594 374.69482  L132.32422 322.50336  L132.81250 374.33728  L133.30078 322.80048  L133.78906 374.04178  L134.27734 322.89395  L134.76563 373.70593  L135.25391 322.86646  L135.74219 373.35242  L136.23047 323.06271  L136.71875 373.05426  L137.20703 323.14981  L137.69531 372.74316  L138.18359 323.23856  L138.67188 372.39279  L139.16016 322.95688  L139.64844 372.07220  L140.13672 323.00531  L140.62500 371.78131  L141.11328 323.01129  L141.60156 371.42542  L142.08984 322.94299  L142.57813 371.13177  L143.06641 322.74292  L143.55469 370.76068  L144.04297 322.58185  L144.53125 370.46497  L145.01953 322.48050  L145.50781 370.13712  L145.99609 322.28778  L146.48438 369.75943  L146.97266 322.15799  L147.46094 369.45013  L147.94922 322.02734  L148.43750 369.12701  L148.92578 321.78662  L149.41406 368.83435  L149.90234 321.63098  L150.39063 368.53357  L150.87891 321.44653  L151.36719 368.15729  L151.85547 321.24860  L152.34375 367.86536  L152.83203 320.98792  L153.32031 367.52374  L153.80859 320.78964  L154.29688 367.27411  L154.78516 320.59387  L155.27344 366.96869  L155.76172 320.36841  L156.25000 366.60461  L156.73828 320.14728  L157.22656 366.30377  L157.71484 319.86572  L158.20313 365.96960  L158.69141 319.71857  L159.17969 365.67609  L159.66797 319.41675  L160.15625 365.26105  L160.64453 319.23660  L161.13281 364.98761  L161.62109 318.94965  L162.10938 364.67151  L162.59766 318.72620  L163.08594 364.33942  L163.57422 318.41446  L164.06250 363.99612  L164.55078 318.22711  L165.03906 363.70520  L165.52734 317.91510  L166.01563 363.32587  L166.50391 317.64575  L166.99219 363.01300  L167.48047 317.39520  L167.96875 362.68393  L168.45703 317.23053  L168.94531 362.35052  L169.43359 316.95068  L169.92188 362.02426  L170.41016 316.66895  L170.89844 361.70825  L171.38672 316.39331  L171.87500 361.39026  L172.36328 316.16684  L172.85156 361.08795  L173.33984 315.84613  L173.82813 360.75464  L174.31641 315.55609  L174.80469 360.42352  L175.29297 315.28787  L175.78125 360.07410  L176.26953 315.06668  L176.75781 359.76440  L177.24609 314.79556  L177.73438 359.40460  L178.22266 314.50729  L178.71094 359.07593  L179.19922 314.22461  L179.68750 358.75702  L180.17578 313.95456  L180.66406 358.41846  L181.15234 313.70212  L181.64063 358.07651  L182.12891 313.39325  L182.61719 357.71771  L183.10547 313.15704  L183.59375 357.36533  L184.08203 312.83896  L184.57031 357.06104  L185.05859 312.60529  L185.54688 356.76184  L186.03516 312.31900  L186.52344 356.40945  L187.01172 312.03571  L187.50000 356.05688  L187.98828 311.76892  L188.47656 355.71191  L188.96484 311.49930  L189.45313 355.36996  L189.94141 311.21033  L190.42969 355.02118  L190.91797 310.91547  L191.40625 354.67761  L191.89453 310.66693  L192.38281 354.34052  L192.87109 310.39569  L193.35938 353.99152  L193.84766 310.11218  L194.33594 353.66577  L194.82422 309.83600  L195.31250 353.31711  L195.80078 309.55453  L196.28906 352.96234  L196.77734 309.28409  L197.26563 352.60861  L197.75391 309.00284  L198.24219 352.25058  L198.73047 308.72705  L199.21875 351.89688  L199.70703 308.45139  L200.19531 251.53873  L200.68359 208.16643  L201.17188 251.18086  L201.66016 207.89163  L202.14844 250.82149  L202.63672 207.61768  L203.12500 250.44949  L203.61328 207.33463  L204.10156 250.09711  L204.58984 207.06929  L205.07813 249.75694  L205.56641 206.78633  L206.05469 249.37057  L206.54297 206.49062  L207.03125 248.97783  L207.51953 206.22328  L208.00781 248.61661  L208.49609 205.94301  L208.98438 248.24417  L209.47266 205.65800  L209.96094 247.89487  L210.44922 205.39163  L210.93750 247.50139  L211.42578 205.11684  L211.91406 247.12544  L212.40234 204.83456  L212.89063 246.71777  L213.37891 204.57350  L213.86719 246.35349  L214.35547 204.30803  L214.84375 245.94669  L215.33203 204.00702  L215.82031 245.56181  L216.30859 203.73257  L216.79688 245.20990  L217.28516 203.44316  L217.77344 244.75066  L218.26172 203.21085  L218.75000 244.34541  L219.23828 202.94797  L219.72656 243.95847  L220.21484 202.65390  L220.70313 243.58133  L221.19141 202.30688  L221.67969 243.18742  L222.16797 202.07315  L222.65625 242.77461  L223.14453 201.81204  L223.63281 242.39989  L224.12109 201.48727  L224.60938 241.92567  L225.09766 201.19827  L225.58594 241.47211  L226.07422 200.95219  L226.56250 241.06696  L227.05078 200.70627  L227.53906 240.72289  L228.02734 200.39046  L228.51563 240.33759  L229.00391 200.16174  L229.49219 239.82201  L229.98047 399.83224  L230.46875 239.49252  L230.95703 399.60687  L231.44531 238.93002  L231.93359 399.35632  L232.42188 238.53131  L232.91016 399.08356  L233.39844 238.07333  L233.88672 398.80518  L234.37500 237.56163  L234.86328 398.48999  L235.35156 237.06714  L235.83984 398.14090  L236.32813 236.71425  L236.81641 397.93549  L237.30469 236.33649  L237.79297 397.65961  L238.28125 235.71649  L238.76953 397.37073  L239.25781 235.40231  L239.74609 397.08844  L240.23438 234.97649  L240.72266 396.76703  L241.21094 234.39748  L241.69922 396.46942  L242.18750 233.79886  L242.67578 396.25671  L243.16406 233.39679  L243.65234 395.88477  L244.14063 232.91438  L244.62891 395.57574  L245.11719 232.48131  L245.60547 395.39001  L246.09375 231.67769  L246.58203 395.24915  L247.07031 231.11227  L247.55859 394.96075  L248.04688 230.64859  L248.53516 394.69806  L249.02344 230.29088  L249.51172 394.32791  L250.00000 229.88208  L250.48828 394.10364  L250.97656 229.10408  L251.46484 393.74811  L251.95313 228.88493  L252.44141 393.45294  L252.92969 228.10826  L253.41797 393.18341  L253.90625 227.35748  L254.39453 392.82565  L254.88281 227.03549  L255.37109 392.70923  L255.85938 226.23985  L256.34766 392.41861  L256.83594 225.47899  L257.32422 392.15277  L257.81250 224.97694  L258.30078 391.76413  L258.78906 224.63362  L259.27734 391.47110  L259.76563 223.84576  L260.25391 391.25665  L260.74219 223.21468  L261.23047 391.08969  L261.71875 222.38168  L262.20703 390.71027  L262.69531 222.33131  L263.18359 390.37067  L263.67188 221.57735  L264.16016 390.08438  L264.64844 220.43262  L265.13672 389.84039  L265.62500 219.75565  L266.11328 389.69440  L266.60156 219.57791  L267.08984 389.39938  L267.57813 219.19450  L268.06641 388.99777  L268.55469 217.91023  L269.04297 388.88770  L269.53125 217.32031  L270.01953 388.56494  L270.50781 216.54295  L270.99609 388.21753  L271.48438 216.32234  L271.97266 387.94769  L272.46094 215.40111  L272.94922 387.63629  L273.43750 214.91058  L273.92578 387.25214  L274.41406 213.74698  L274.90234 387.03229  L275.39063 212.83722  L275.87891 386.80908  L276.36719 212.52853  L276.85547 386.63495  L277.34375 211.24232  L277.83203 386.31088  L278.32031 210.07565  L278.80859 386.10330  L279.29688 209.59135  L279.78516 385.67822  L280.27344 208.45927  L280.76172 385.35068  L281.25000 208.66074  L281.73828 385.03333  L282.22656 208.05388  L282.71484 384.86087  L283.20313 206.69003  L283.69141 384.65057  L284.17969 206.10280  L284.66797 384.29016  L285.15625 205.89784  L285.64453 383.91464  L286.13281 203.76501  L286.62109 383.78012  L287.10938 203.26784  L287.59766 383.54370  L288.08594 201.76404  L288.57422 383.22510  L289.06250 202.04721  L289.55078 382.88562  L290.03906 201.24722  L290.52734 382.60468  L291.01563 200.65623  L291.50391 382.02234  L291.99219 399.23886  L292.48047 381.86810  L292.96875 398.35141  L293.45703 381.56744  L293.94531 398.25653  L294.43359 381.21240  L294.92188 398.19794  L295.41016 381.09998  L295.89844 395.11188  L296.38672 380.92853  L296.87500 394.76276  L297.36328 380.37415  L297.85156 395.47049  L298.33984 380.07813  L298.82813 392.87265  L299.31641 380.18994  L299.80469 391.30676  L300.29297 379.94946  L300.78125 391.02795  L301.26953 379.31946  L301.75781 390.70630  L302.24609 379.01944  L302.73438 389.70248  L303.22266 378.92114  L303.71094 389.45398  L304.19922 378.51825  L304.68750 387.66653  L305.17578 378.40152  L305.66406 387.44849  L306.15234 377.80957  L306.64063 386.53363  L307.12891 377.54865  L307.61719 385.81952  L308.10547 377.25116  L308.59375 384.58154  L309.08203 376.86096  L309.57031 382.86853  L310.05859 376.89056  L310.54688 381.37018  L311.03516 376.77649  L311.52344 382.06213  L312.01172 376.25079  L312.50000 380.25510  L312.98828 376.05344  L313.47656 379.57513  L313.96484 375.67926  L314.45313 378.59454  L314.94141 375.52637  L315.42969 377.60742  L315.91797 375.11426  L316.40625 376.96661  L316.89453 375.06561  L317.38281 375.97443  L317.87109 374.45096  L318.35938 374.99741  L318.84766 374.52893  L319.33594 373.15186  L319.82422 374.05075  L320.31250 373.37552  L320.80078 373.70251  L321.28906 373.84915  L321.77734 373.02124  L322.26563 373.56503  L322.75391 373.17062  L323.24219 370.36450  L323.73047 372.95633  L324.21875 369.85153  L324.70703 372.42590  L325.19531 371.09033  L325.68359 371.85077  L326.17188 370.43723  L326.66016 371.76526  L327.14844 368.12961  L327.63672 371.91943  L328.12500 366.37421  L328.61328 371.26056  L329.10156 367.81836  L329.58984 370.80121  L330.07813 366.74603  L330.56641 370.95724  L331.05469 364.74454  L331.54297 370.59341  L332.03125 363.15778  L332.51953 370.14447  L333.00781 365.03067  L333.49609 369.74295  L333.98438 363.70209  L334.47266 369.36938  L334.96094 364.10138  L335.44922 369.16895  L335.93750 361.64267  L336.42578 369.15771  L336.91406 362.14001  L337.40234 368.49420  L337.89063 361.42712  L338.37891 368.12927  L338.86719 360.53540  L339.35547 368.13867  L339.84375 359.23923  L340.33203 367.48874  L340.82031 359.20749  L341.30859 367.13028  L341.79688 360.82788  L342.28516 366.45160  L342.77344 358.43054  L343.26172 366.88358  L343.75000 357.17743  L344.23828 366.37857  L344.72656 357.18463  L345.21484 366.23431  L345.70313 356.77423  L346.19141 365.82932  L346.67969 355.83582  L347.16797 365.57745  L347.65625 354.24323  L348.14453 365.28064  L348.63281 353.83151  L349.12109 365.09933  L349.60938 353.16672  L350.09766 364.79913  L350.58594 353.65900  L351.07422 364.23776  L351.56250 352.47552  L352.05078 364.31625  L352.53906 351.98148  L353.02734 363.09106  L353.51563 352.97742  L354.00391 362.98746  L354.49219 352.56305  L354.98047 363.00879  L355.46875 351.33923  L355.95703 362.57327  L356.44531 349.83289  L356.93359 362.68195  L357.42188 349.86578  L357.91016 362.29666  L358.39844 348.02386  L358.88672 362.01202  L359.37500 348.71603  L359.86328 361.12927  L360.35156 349.53705  L360.83984 360.99521  L361.32813 348.16922  L361.81641 360.64160  L362.30469 345.32269  L362.79297 361.42154  L363.28125 345.55890  L363.76953 360.09595  L364.25781 346.78049  L364.74609 359.49112  L365.23438 347.38443  L365.72266 359.37604  L366.21094 345.37177  L366.69922 359.88171  L367.18750 343.86627  L367.67578 359.09552  L368.16406 343.85837  L368.65234 358.55493  L369.14063 342.43939  L369.62891 358.45154  L370.11719 344.13995  L370.60547 357.41806  L371.09375 344.55078  L371.58203 357.77603  L372.07031 342.35767  L372.55859 357.23102  L373.04688 342.49619  L373.53516 356.51147  L374.02344 344.01129  L374.51172 356.51047  L375.00000 340.31244  L375.48828 356.22229  L375.97656 341.10992  L376.46484 355.61560  L376.95313 340.77161  L377.44141 355.71686  L377.92969 339.96091  L378.41797 354.74286  L378.90625 341.07074  L379.39453 354.95154  L379.88281 338.13391  L380.37109 355.03473  L380.85938 339.21875  L381.34766 353.97491  L381.83594 339.23480  L382.32422 353.36798  L382.81250 338.23438  L383.30078 353.54453  L383.78906 338.50760  L384.27734 353.15646  L384.76563 338.11209  L385.25391 353.03659  L385.74219 337.14203  L386.23047 352.45053  L386.71875 337.48615  L387.20703 351.25342  L387.69531 338.50793  L388.18359 350.46945  L388.67188 339.84470  L389.16016 350.15115  L389.64844 338.00195  L390.13672 350.73352  L390.62500 336.08386  L391.11328 350.78314  L391.60156 334.90387  L392.08984 349.92200  L392.57813 334.76343  L393.06641 350.19806  L393.55469 334.31934  L394.04297 349.90393  L394.53125 333.33832  L395.01953 349.40994  L395.50781 332.08551  L395.99609 349.51813  L396.48438 332.77289  L396.97266 347.89636  L397.46094 334.28632  L397.94922 348.19830  L398.43750 332.42896  L398.92578 348.15381  L399.41406 330.27307  L399.90234 347.57477  L400.39063 332.87982  L400.87891 346.18060  L401.36719 331.64105  L401.85547 347.13287  L402.34375 329.85791  L402.83203 345.63028  L403.32031 331.76556  L403.80859 345.50803  L404.29688 330.34277  L404.78516 346.43860  L405.27344 329.35706  L405.76172 344.94379  L406.25000 330.79962  L406.73828 343.98761  L407.22656 329.64099  L407.71484 344.72064  L408.20313 328.14081  L408.69141 343.24139  L409.17969 327.83334  L409.66797 344.35858  L410.15625 326.51163  L410.64453 343.59277  L411.13281 325.99759  L411.62109 343.74515  L412.10938 325.96094  L412.59766 343.40131  L413.08594 323.70648  L413.57422 342.62592  L414.06250 325.04440  L414.55078 342.93567  L415.03906 324.22162  L415.52734 342.32227  L416.01563 324.66501  L416.50391 341.27567  L416.99219 325.88699  L417.48047 340.12112  L417.96875 325.74896  L418.45703 339.75958  L418.94531 324.79227  L419.43359 340.25488  L419.92188 323.05991  L420.41016 338.95657  L420.89844 325.14294  L421.38672 338.18085  L421.87500 325.09497  L422.36328 338.44342  L422.85156 323.21667  L423.33984 337.20764  L423.82813 323.63019  L424.31641 338.02026  L424.80469 322.22372  L425.29297 337.60718  L425.78125 322.01733  L426.26953 337.38608  L426.75781 323.12363  L427.24609 336.30872  L427.73438 321.73544  L428.22266 336.13702  L428.71094 321.03223  L429.19922 335.75983  L429.68750 321.61719  L430.17578 334.32187  L430.66406 322.35742  L431.15234 334.32928  L431.64063 319.36969  L432.12891 335.47400  L432.61719 319.52469  L433.10547 334.26080  L433.59375 320.42474  L434.08203 333.30139  L434.57031 319.91431  L435.05859 333.45471  L435.54688 319.87479  L436.03516 332.59149  L436.52344 319.57980  L437.01172 332.23010  L437.50000 318.15204  L437.98828 331.64838  L438.47656 321.58353  L438.96484 329.85477  L439.45313 319.23828  L439.94141 331.03143  L440.42969 318.59656  L440.91797 328.31641  L441.40625 319.44263  L441.89453 328.85992  L442.38281 318.35229  L442.87109 329.65314  L443.35938 317.64905  L443.84766 328.88016  L444.33594 317.27539  L444.82422 327.44305  L445.31250 318.27710  L445.80078 327.87479  L446.28906 316.43887  L446.77734 328.43054  L447.26563 313.55994  L447.75391 327.80719  L448.24219 315.56836  L448.73047 328.19629  L449.21875 311.74942  L449.70703 326.47018  L450.19531 315.45578  L450.68359 326.15637  L451.17188 315.17365  L451.66016 325.13104  L452.14844 315.26370  L452.63672 323.68372  L453.12500 316.76691  L453.61328 323.78317  L454.10156 313.94736  L454.58984 325.21906  L455.07813 311.33768  L455.56641 324.18024  L456.05469 312.69141  L456.54297 324.18527  L457.03125 312.58722  L457.51953 322.01035  L458.00781 312.70251  L458.49609 322.04877  L458.98438 312.88733  L459.47266 321.11868  L459.96094 312.48157  L460.44922 319.60254  L460.93750 310.88553  L461.42578 321.50101  L461.91406 311.42081  L462.40234 319.05243  L462.89063 312.13370  L463.37891 319.37704  L463.86719 310.04910  L464.35547 319.94101  L464.84375 310.97290  L465.33203 318.63934  L465.82031 309.38882  L466.30859 318.28329  L466.79688 312.56906  L467.28516 318.71930  L467.77344 308.37643  L468.26172 317.17871  L468.75000 308.99084  L469.23828 317.53415  L469.72656 308.27621  L470.21484 315.90930  L470.70313 308.88910  L471.19141 315.27826  L471.67969 308.04333  L472.16797 316.53363  L472.65625 307.05389  L473.14453 314.33658  L473.63281 307.74426  L474.12109 313.69672  L474.60938 308.88971  L475.09766 312.93762  L475.58594 308.35037  L476.07422 312.27579  L476.56250 307.01834  L477.05078 313.45148  L477.53906 305.36230  L478.02734 313.52588  L478.51563 304.26202  L479.00391 311.74716  L479.49219 306.53427  L479.98047 309.48337  L480.46875 308.20380  L480.95703 308.88202  L481.44531 307.87866  L481.93359 308.68985  L482.42188 305.88559  L482.91016 309.95538  L483.39844 304.44870  L483.88672 309.02988  L484.37500 303.04407  L484.86328 309.90698  L485.35156 302.71878  L485.83984 308.90393  L486.32813 302.54477  L486.81641 307.47421  L487.30469 302.12897  L487.79297 308.63809  L488.28125 301.95212  L488.76953 307.06494  L489.25781 303.05667  L489.74609 305.67087  L490.23438 301.78925  L490.72266 305.44696  L491.21094 302.15710  L491.69922 305.61948  L492.18750 301.55872  L492.67578 302.60147  L493.16406 304.46045  L493.65234 302.70828  L494.14063 301.65781  L494.62891 302.38898  L495.11719 302.50070  L495.60547 302.84778  L496.09375 301.74527  L496.58203 301.78424  L497.07031 300.50967  L497.55859 300.87573  L498.04688 303.72849  L498.53516 299.93915  L499.02344 301.26031  L499.51172 300.11746  L500.00000 300.00220  L500.48828 299.89011  L500.97656 298.73975  L501.46484 300.34430  L501.95313 296.48083  L502.44141 299.29718  L502.92969 299.56882  L503.41797 297.40494  L503.90625 300.01837  L504.39453 297.23169  L504.88281 297.47034  L505.37109 297.56964  L505.85938 298.26593  L506.34766 297.29129  L506.83594 295.53683  L507.32422 297.34363  L507.81250 298.44595  L508.30078 294.44327  L508.78906 297.85535  L509.27734 294.64832  L509.76563 297.98807  L510.25391 294.47046  L510.74219 296.95944  L511.23047 292.93866  L511.71875 298.18710  L512.20703 290.97113  L512.69531 297.90030  L513.18359 292.28860  L513.67188 297.17032  L514.16016 291.10092  L514.64844 297.28482  L515.13672 289.82465  L515.62500 296.96063  L516.11328 290.92477  L516.60156 295.54312  L517.08984 290.00366  L517.57813 293.76993  L518.06641 291.66177  L518.55469 292.12274  L519.04297 291.22357  L519.53125 291.83386  L520.01953 290.50656  L520.50781 293.50232  L520.99609 288.25296  L521.48438 295.67154  L521.97266 286.51340  L522.46094 294.65613  L522.94922 286.55176  L523.43750 292.98584  L523.92578 287.53687  L524.41406 291.67389  L524.90234 287.21262  L525.39063 290.89243  L525.87891 286.33591  L526.36719 292.24857  L526.85547 285.77051  L527.34375 293.23395  L527.83203 284.02985  L528.32031 291.97903  L528.80859 284.38739  L529.29688 291.19904  L529.78516 284.06738  L530.27344 291.73132  L530.76172 282.40710  L531.25000 291.00775  L531.73828 282.62692  L532.22656 291.59320  L532.71484 281.07001  L533.20313 287.43533  L533.69141 281.90509  L534.17969 290.44083  L534.66797 281.27173  L535.15625 288.86819  L535.64453 279.97531  L536.13281 289.91742  L536.62109 280.76089  L537.10938 287.97006  L537.59766 280.99060  L538.08594 288.57779  L538.57422 278.42264  L539.06250 289.11462  L539.55078 280.27258  L540.03906 287.51880  L540.52734 278.89240  L541.01563 287.07092  L541.50391 277.83606  L541.99219 287.28583  L542.48047 277.79285  L542.96875 287.39325  L543.45703 275.77652  L543.94531 287.27359  L544.43359 275.69452  L544.92188 287.97772  L545.41016 274.76733  L545.89844 286.05106  L546.38672 276.21225  L546.87500 283.23792  L547.36328 276.41174  L547.85156 284.74365  L548.33984 274.90128  L548.82813 284.75146  L549.31641 274.17108  L549.80469 284.56073  L550.29297 273.05206  L550.78125 288.12280  L551.26953 271.99194  L551.75781 284.45175  L552.24609 272.14050  L552.73438 286.61548  L553.22266 271.50861  L553.71094 283.57562  L554.19922 272.05328  L554.68750 281.72617  L555.17578 272.58411  L555.66406 282.72903  L556.15234 271.16730  L556.64063 282.21298  L557.12891 270.36761  L557.61719 281.75375  L558.10547 271.27390  L558.59375 278.96008  L559.08203 270.87299  L559.57031 280.95352  L560.05859 269.45013  L560.54688 281.15375  L561.03516 270.24561  L561.52344 278.42645  L562.01172 268.27353  L562.50000 281.87189  L562.98828 267.73343  L563.47656 280.45175  L563.96484 267.42773  L564.45313 280.42191  L564.94141 266.82590  L565.42969 280.08014  L565.91797 267.89297  L566.40625 279.81891  L566.89453 266.10428  L567.38281 280.47137  L567.87109 264.39630  L568.35938 280.71594  L568.84766 265.56372  L569.33594 277.66382  L569.82422 265.73193  L570.31250 278.39127  L570.80078 264.41266  L571.28906 278.97104  L571.77734 263.92538  L572.26563 278.66626  L572.75391 263.65176  L573.24219 276.93411  L573.73047 262.77356  L574.21875 278.07996  L574.70703 262.55878  L575.19531 277.86423  L575.68359 261.97156  L576.17188 276.46091  L576.66016 262.77551  L577.14844 276.82465  L577.63672 261.63287  L578.12500 274.91071  L578.61328 261.72964  L579.10156 274.86938  L579.58984 261.03027  L580.07813 276.50873  L580.56641 259.83484  L581.05469 275.32205  L581.54297 260.22479  L582.03125 274.21695  L582.51953 259.78934  L583.00781 274.11874  L583.49609 258.71341  L583.98438 275.36707  L584.47266 257.62296  L584.96094 275.77563  L585.44922 257.16275  L585.93750 274.95789  L586.42578 257.30917  L586.91406 276.32642  L587.40234 256.61697  L587.89063 274.16739  L588.37891 256.37894  L588.86719 274.00580  L589.35547 256.34903  L589.84375 272.83490  L590.33203 255.89922  L590.82031 272.08551  L591.30859 256.56927  L591.79688 272.55106  L592.28516 255.42104  L592.77344 270.32562  L593.26172 256.07428  L593.75000 269.20490  L594.23828 255.13396  L594.72656 270.66656  L595.21484 253.45178  L595.70313 269.62842  L596.19141 254.73560  L596.67969 268.21399  L597.16797 254.11096  L597.65625 270.18567  L598.14453 252.83626  L598.63281 268.37488  L599.12109 253.65465  L599.60938 267.00391  L600.09766 252.44724  L600.58594 269.72192  L601.07422 251.82304  L601.56250 267.57483  L602.05078 251.71460  L602.53906 265.71835  L603.02734 252.21912  L603.51563 267.13898  L604.00391 250.47098  L604.49219 267.92395  L604.98047 250.50986  L605.46875 266.69019  L605.95703 250.10220  L606.44531 265.71741  L606.93359 249.77582  L607.42188 265.16183  L607.91016 250.08492  L608.39844 265.08426  L608.88672 249.19560  L609.37500 263.92050  L609.86328 249.34540  L610.35156 262.02179  L610.83984 249.92775  L611.32813 259.87897  L611.81641 249.43939  L612.30469 261.46359  L612.79297 248.67007  L613.28125 262.47046  L613.76953 247.44328  L614.25781 262.86716  L614.74609 246.75676  L615.23438 261.73306  L615.72266 246.89290  L616.21094 261.50024  L616.69922 246.41054  L617.18750 261.76724  L617.67578 246.71286  L618.16406 260.77606  L618.65234 246.04922  L619.14063 260.76501  L619.62891 245.01210  L620.11719 261.91806  L620.60547 245.13756  L621.09375 259.07922  L621.58203 244.89502  L622.07031 260.19971  L622.55859 244.18347  L623.04688 258.14215  L623.53516 244.53149  L624.02344 258.89963  L624.51172 243.74252  L625.00000 259.69205  L625.48828 243.53130  L625.97656 256.00027  L626.46484 243.52440  L626.95313 256.82944  L627.44141 242.68698  L627.92969 257.67633  L628.41797 242.25323  L628.90625 255.48741  L629.39453 242.50412  L629.88281 255.83510  L630.37109 241.53827  L630.85938 257.38724  L631.34766 241.48325  L631.83594 256.13443  L632.32422 240.88264  L632.81250 256.14023  L633.30078 240.03793  L633.78906 254.60001  L634.27734 240.62885  L634.76563 253.05725  L635.25391 240.51366  L635.74219 253.21777  L636.23047 239.90530  L636.71875 254.52481  L637.20703 238.73666  L637.69531 254.67331  L638.18359 239.21408  L638.67188 251.85229  L639.16016 239.10327  L639.64844 250.45947  L640.13672 238.86852  L640.62500 251.28816  L641.11328 238.06131  L641.60156 251.98148  L642.08984 237.72797  L642.57813 250.09198  L643.06641 237.24390  L643.55469 250.21951  L644.04297 237.27443  L644.53125 248.77655  L645.01953 237.01843  L645.50781 247.48140  L645.99609 236.98668  L646.48438 247.13927  L646.97266 236.85576  L647.46094 248.02641  L647.94922 235.69788  L648.43750 247.52939  L648.92578 235.78935  L649.41406 246.35373  L649.90234 235.16719  L650.39063 246.79044  L650.87891 234.92014  L651.36719 246.14410  L651.85547 234.64496  L652.34375 244.90091  L652.83203 234.43332  L653.32031 244.09203  L653.80859 234.09610  L654.29688 244.08984  L654.78516 233.68053  L655.27344 242.81543  L655.76172 233.59926  L656.25000 242.82707  L656.73828 233.11270  L657.22656 241.58322  L657.71484 233.51352  L658.20313 238.23572  L658.69141 233.20120  L659.17969 240.76332  L659.66797 232.29480  L660.15625 240.97861  L660.64453 231.83183  L661.13281 239.55026  L661.62109 231.90149  L662.10938 238.74805  L662.59766 231.47238  L663.08594 237.86752  L663.57422 230.86270  L664.06250 238.36095  L664.55078 230.85556  L665.03906 235.89107  L665.52734 230.59775  L666.01563 236.29861  L666.50391 230.27855  L666.99219 234.98297  L667.48047 229.87846  L667.96875 236.85968  L668.45703 229.23276  L668.94531 235.24608  L669.43359 229.15302  L669.92188 233.47705  L670.41016 229.14571  L670.89844 232.18292  L671.38672 228.71030  L671.87500 233.63013  L672.36328 228.13144  L672.85156 231.87077  L673.33984 228.27985  L673.82813 230.09439  L674.31641 228.13206  L674.80469 228.92697  L675.29297 227.48364  L675.78125 230.19594  L676.26953 226.96942  L676.75781 229.64972  L677.24609 226.88647  L677.73438 226.57719  L678.22266 226.98146  L678.71094 226.15639  L679.19922 226.26035  L679.68750 226.62492  L680.17578 225.89664  L680.66406 226.85904  L681.15234 225.47165  L681.64063 224.83060  L682.12891 225.55876  L682.61719 223.95648  L683.10547 224.92743  L683.59375 223.15930  L684.08203 225.33527  L684.57031 222.17700  L685.05859 224.45624  L685.54688 221.69533  L686.03516 224.34854  L686.52344 220.42882  L687.01172 223.93338  L687.50000 219.74942  L687.98828 223.80672  L688.47656 217.95380  L688.96484 223.24263  L689.45313 218.22437  L689.94141 223.06371  L690.42969 217.12047  L690.91797 222.92868  L691.40625 214.33514  L691.89453 222.67116  L692.38281 214.24940  L692.87109 222.40773  L693.35938 213.56746  L693.84766 222.20316  L694.33594 212.53241  L694.82422 221.62196  L695.31250 212.33270  L695.80078 221.49196  L696.28906 210.56030  L696.77734 221.10040  L697.26563 210.41975  L697.75391 220.97244  L698.24219 209.28957  L698.73047 220.67110  L699.21875 208.93886  L699.70703 220.14706  L700.19531 208.68280  L700.68359 219.80573  L701.17188 206.86243  L701.66016 219.96014  L702.14844 204.52528  L702.63672 219.58940  L703.12500 205.24149  L703.61328 219.07870  L704.10156 204.89175  L704.58984 218.89079  L705.07813 201.91803  L705.56641 218.89503  L706.05469 201.73778  L706.54297 218.45708  L707.03125 201.60561  L707.51953 218.15417  L708.00781 200.76291  L708.49609 217.98483  L708.98438 399.36853  L709.47266 217.43324  L709.96094 398.75827  L710.44922 217.12898  L710.93750 397.95880  L711.42578 216.76038  L711.91406 398.23883  L712.40234 216.48224  L712.89063 396.73395  L713.37891 216.20361  L713.86719 396.25067  L714.35547 216.11047  L714.84375 394.06046  L715.33203 215.63692  L715.82031 393.92325  L716.30859 215.39532  L716.79688 393.99786  L717.28516 215.17293  L717.77344 391.95770  L718.26172 214.99640  L718.75000 391.34711  L719.23828 214.67096  L719.72656 391.55273  L720.21484 214.32552  L720.70313 390.22452  L721.19141 213.86884  L721.67969 389.93488  L722.16797 213.73152  L722.65625 388.75110  L723.14453 213.33168  L723.63281 387.46622  L724.12109 213.21941  L724.60938 387.22665  L725.09766 212.97157  L725.58594 386.26050  L726.07422 212.73444  L726.56250 385.09399  L727.05078 212.36266  L727.53906 384.60605  L728.02734 212.05539  L728.51563 383.67896  L729.00391 211.78137  L729.49219 383.44635  L729.98047 211.44481  L730.46875 382.64722  L730.95703 211.08362  L731.44531 382.07190  L731.93359 210.97342  L732.42188 380.99084  L732.91016 210.61357  L733.39844 380.42590  L733.88672 210.31744  L734.37500 380.24872  L734.86328 210.14485  L735.35156 379.57373  L735.83984 209.91818  L736.32813 378.39301  L736.81641 209.68034  L737.30469 377.66437  L737.79297 209.34047  L738.28125 377.62317  L738.76953 208.93956  L739.25781 376.79315  L739.74609 208.73105  L740.23438 376.15985  L740.72266 208.53584  L741.21094 375.36804  L741.69922 208.24797  L742.18750 375.02618  L742.67578 207.85602  L743.16406 374.53033  L743.65234 207.58524  L744.14063 373.79175  L744.62891 207.29301  L745.11719 372.96552  L745.60547 207.16818  L746.09375 372.54773  L746.58203 206.84569  L747.07031 371.88086  L747.55859 206.59431  L748.04688 371.37317  L748.53516 206.24385  L749.02344 370.90039  L749.51172 205.88976  L750.00000 370.12231  L750.48828 205.68031  L750.97656 369.71344  L751.46484 205.31383  L751.95313 369.24750  L752.44141 205.00027  L752.92969 368.87390  L753.41797 204.75615  L753.90625 368.19739  L754.39453 204.62936  L754.88281 367.52637  L755.37109 204.42555  L755.85938 367.09772  L756.34766 204.10921  L756.83594 366.60809  L757.32422 203.75432  L757.81250 366.20535  L758.30078 203.52939  L758.78906 365.60837  L759.27734 203.23570  L759.76563 365.03387  L760.25391 202.90694  L760.74219 364.60577  L761.23047 202.64693  L761.71875 364.26636  L762.20703 202.35388  L762.69531 363.66205  L763.18359 202.05664  L763.67188 363.24210  L764.16016 201.86224  L764.64844 362.93542  L765.13672 201.52512  L765.62500 362.44275  L766.11328 201.19778  L766.60156 361.93097  L767.08984 200.91565  L767.57813 361.46844  L768.06641 200.65826  L768.55469 361.07050  L769.04297 200.39597  L769.53125 360.52167  L770.01953 200.17299  L770.50781 360.18109  L770.99609 399.83948  L771.48438 359.65970  L771.97266 399.61099  L772.46094 359.28278  L772.94922 399.29538  L773.43750 358.93747  L773.92578 399.05969  L774.41406 358.53220  L774.90234 398.80328  L775.39063 358.07883  L775.87891 398.50916  L776.36719 357.60300  L776.85547 398.19312  L777.34375 357.23105  L777.83203 397.93579  L778.32031 356.81738  L778.80859 397.68619  L779.29688 356.45508  L779.78516 397.35431  L780.27344 356.04666  L780.76172 397.05630  L781.25000 355.65906  L781.73828 396.79321  L782.22656 355.25558  L782.71484 396.55536  L783.20313 354.80316  L783.69141 396.23975  L784.17969 354.44397  L784.66797 395.98990  L785.15625 354.02457  L785.64453 395.70221  L786.13281 353.65009  L786.62109 395.42957  L787.10938 353.28265  L787.59766 395.16742  L788.08594 352.87903  L788.57422 394.88971  L789.06250 352.50305  L789.55078 394.61237  L790.03906 352.10956  L790.52734 394.34531  L791.01563 351.76056  L791.50391 394.05984  L791.99219 351.38751  L792.48047 393.78091  L792.96875 351.02518  L793.45703 393.51318  L793.94531 350.63385  L794.43359 393.21667  L794.92188 350.24896  L795.41016 392.93448  L795.89844 349.90723  L796.38672 392.67145  L796.87500 349.55493  L797.36328 392.38632  L797.85156 349.18295  L798.33984 392.11310  L798.82813 348.82428  L799.31641 391.83765  L799.80469 348.46567  L800.29297 291.55298  L800.78125 248.10759  L801.26953 291.27740  L801.75781 247.75374  L802.24609 291.00162  L802.73438 247.39578  L803.22266 290.72028  L803.71094 247.04204  L804.19922 290.45044  L804.68750 246.68739  L805.17578 290.16891  L805.66406 246.33867  L806.15234 289.89221  L806.64063 246.01349  L807.12891 289.61047  L807.61719 245.66351  L808.10547 289.33411  L808.59375 245.33835  L809.08203 289.09369  L809.57031 244.98410  L810.05859 288.79587  L810.54688 244.62048  L811.03516 288.50668  L811.52344 244.29263  L812.01172 288.23645  L812.50000 243.94749  L812.98828 287.96747  L813.47656 243.59509  L813.96484 287.68539  L814.45313 243.23491  L814.94141 287.39212  L815.42969 242.94681  L815.91797 287.15842  L816.40625 242.66467  L816.89453 286.84653  L817.38281 242.28790  L817.87109 286.60840  L818.35938 241.92947  L818.84766 286.30255  L819.33594 241.58627  L819.82422 286.04718  L820.31250 241.24745  L820.80078 285.77643  L821.28906 240.92776  L821.77734 285.49933  L822.26563 240.59586  L822.75391 285.20428  L823.24219 240.24017  L823.73047 284.93777  L824.21875 239.90875  L824.70703 284.71704  L825.19531 239.58115  L825.68359 284.45041  L826.17188 239.23853  L826.66016 284.15533  L827.14844 238.91621  L827.63672 283.83594  L828.12500 238.61420  L828.61328 283.60785  L829.10156 238.29651  L829.58984 283.33286  L830.07813 237.97116  L830.56641 283.05664  L831.05469 237.65422  L831.54297 282.77802  L832.03125 237.31789  L832.51953 282.60699  L833.00781 236.99176  L833.49609 282.36096  L833.98438 236.66992  L834.47266 282.09045  L834.96094 236.29921  L835.44922 281.77185  L835.93750 236.00824  L836.42578 281.59198  L836.91406 235.66498  L837.40234 281.27527  L837.89063 235.34218  L838.37891 281.06671  L838.86719 235.01685  L839.35547 280.76291  L839.84375 234.73889  L840.33203 280.59549  L840.82031 234.32759  L841.30859 280.34576  L841.79688 233.90654  L842.28516 280.16934  L842.77344 233.69894  L843.26172 279.85010  L843.75000 233.39978  L844.23828 279.63696  L844.72656 233.03630  L845.21484 279.41425  L845.70313 232.74925  L846.19141 279.22510  L846.67969 232.47992  L847.16797 278.98227  L847.65625 232.16821  L848.14453 278.73633  L848.63281 231.84726  L849.12109 278.59903  L849.60938 231.46722  L850.09766 278.37109  L850.58594 231.17015  L851.07422 278.21457  L851.56250 230.87735  L852.05078 277.96313  L852.53906 230.55464  L853.02734 277.84409  L853.51563 230.24681  L854.00391 277.72070  L854.49219 229.86745  L854.98047 277.50531  L855.46875 229.53902  L855.95703 277.41547  L856.44531 229.24426  L856.93359 277.27411  L857.42188 228.86160  L857.91016 277.06088  L858.39844 228.57945  L858.88672 276.99805  L859.37500 228.22308  L859.86328 276.98541  L860.35156 227.93259  L860.83984 277.03738  L861.32813 227.61284  L861.81641 276.78790  L862.30469 227.26291  L862.79297 276.83606  L863.28125 226.95012  L863.76953 276.94189  L864.25781 226.65317  L864.74609 277.16254  L865.23438 226.29912  L865.72266 277.10925  L866.21094 225.96315  L866.69922 277.19229  L867.18750 225.66713  L867.67578 277.49670  L868.16406 225.30954  L868.65234 277.68634  L869.14063 224.93224  L869.62891 278.21265  L870.11719 224.64455  L870.60547 278.47644  L871.09375 224.32191  L871.58203 279.02460  L872.07031 223.93054  L872.55859 279.68121  L873.04688 223.56378  L873.53516 280.45673  L874.02344 223.23666  L874.51172 281.38208  L875.00000 222.92024  L875.48828 282.50372  L875.97656 222.57613  L876.46484 283.69919  L876.95313 222.22078  L877.44141 285.28497  L877.92969 221.87050  L878.41797 287.24136  L878.90625 221.49397  L879.39453 289.23807  L879.88281 221.19833  L880.37109 291.84070  L880.85938 220.84818  L881.34766 294.82111  L881.83594 220.47548  L882.32422 298.08728  L882.81250 220.14189  L883.30078 301.37332  L883.78906 219.77750  L884.27734 304.81134  L884.76563 219.41095  L885.25391 308.20007  L885.74219 219.02983  L886.23047 311.60211  L886.71875 218.67940  L887.20703 315.26675  L887.69531 218.33255  L888.18359 318.21576  L888.67188 217.95641  L889.16016 320.47955  L889.64844 217.55336  L890.13672 322.68573  L890.62500 217.16589  L891.11328 324.56995  L891.60156 216.82845  L892.08984 326.27094  L892.57813 216.40132  L893.06641 327.57202  L893.55469 216.03650  L894.04297 328.46432  L894.53125 215.66731  L895.01953 329.42963  L895.50781 215.25099  L895.99609 329.95538  L896.48438 214.84981  L896.97266 330.40070  L897.46094 214.44269  L897.94922 330.74734  L898.43750 214.03773  L898.92578 330.96356  L899.41406 213.64195  L899.90234 331.08838  L900.39063 213.22890  L900.87891 331.09973  L901.36719 212.79669  L901.85547 330.99921  L902.34375 212.36661  L902.83203 330.87009  L903.32031 211.94656  L903.80859 330.58029  L904.29688 211.50142  L904.78516 330.28094  L905.27344 211.04974  L905.76172 329.90948  L906.25000 210.59932  L906.73828 329.48828  L907.22656 210.14429  L907.71484 328.96484  L908.20313 209.68510  L908.69141 328.42227  L909.17969 209.20351  L909.66797 327.83307  L910.15625 208.70557  L910.64453 327.16162  L911.13281 208.22728  L911.62109 326.48151  L912.10938 207.71265  L912.59766 325.70389  L913.08594 207.19167  L913.57422 324.88214  L914.06250 206.67744  L914.55078 324.06497  L915.03906 206.15698  L915.52734 323.18161  L916.01563 205.59744  L916.50391 322.21207  L916.99219 205.03531  L917.48047 321.21051  L917.96875 204.47487  L918.45703 320.17142  L918.94531 203.88438  L919.43359 319.07947  L919.92188 203.28227  L920.41016 317.93936  L920.89844 202.66240  L921.38672 316.75635  L921.87500 202.03148  L922.36328 315.51996  L922.85156 201.37546  L923.33984 314.23071  L923.82813 200.69945  L924.31641 312.88971  L924.80469 400.00000  L925.29297 311.49994  L925.78125 399.28012  L926.26953 310.06656  L926.75781 398.53595  L927.24609 308.58624  L927.73438 397.76056  L928.22266 307.05154  L928.71094 396.95160  L929.19922 305.46912  L929.68750 396.11496  L930.17578 303.84467  L930.66406 395.24396  L931.15234 302.17572  L931.64063 394.33325  L932.12891 300.45892  L932.61719 393.37860  L933.10547 298.69727  L933.59375 392.37921  L934.08203 296.89087  L934.57031 391.32843  L935.05859 295.04254  L935.54688 390.22107  L936.03516 293.15070  L936.52344 389.04944  L937.01172 291.21008  L937.50000 387.81000  L937.98828 289.22327  L938.47656 386.49231  L938.96484 287.18564  L939.45313 385.08691  L939.94141 285.09259  L940.42969 383.58264  L940.91797 282.93729  L941.40625 381.96619  L941.89453 280.71042  L942.38281 380.22177  L942.87109 278.39926  L943.35938 378.33179  L943.84766 275.98914  L944.33594 376.27307  L944.82422 273.45908  L945.31250 374.01913  L945.80078 270.78314  L946.28906 371.53546  L946.77734 267.92456  L947.26563 368.78741  L947.75391 264.84467  L948.24219 365.72980  L948.73047 261.48975  L949.21875 362.31433  L949.70703 257.80008  L950.19531 358.48822  L950.68359 253.70720  L951.17188 354.20737  L951.66016 249.14053  L952.14844 349.43408  L952.63672 244.05984  L953.12500 344.18451  L953.61328 238.45450  L954.10156 338.50739  L954.58984 232.41205  L955.07813 332.54117  L955.56641 226.11502  L956.05469 326.46753  L956.54297 219.81854  L957.03125 320.48511  L957.51953 213.78438  L958.00781 314.75626  L958.49609 208.21028  L958.98438 309.40335  L959.47266 203.19458  L959.96094 304.47208  L960.44922 398.74982  L960.93750 299.96362  L961.42578 394.82870  L961.91406 295.84088  L962.40234 391.36444  L962.89063 292.06531  L963.37891 388.28778  L963.86719 288.59500  L964.35547 385.53540  L964.84375 285.38821  L965.33203 383.05008  L965.82031 282.41336  L966.30859 380.78625  L966.79688 279.64355  L967.28516 378.70663  L967.77344 277.05478  L968.26172 376.77951  L968.75000 274.63043  L969.23828 374.98001  L969.72656 272.35641  L970.21484 373.28766  L970.70313 270.21918  L971.19141 371.68445  L971.67969 268.21259  L972.16797 370.15674  L972.65625 266.32056  L973.14453 368.69098  L973.63281 264.54980  L974.12109 367.27914  L974.60938 262.87170  L975.09766 365.90784  L975.58594 261.30585  L976.07422 364.57193  L976.56250 259.82727  L977.05078 363.26288  L977.53906 258.44446  L978.02734 361.97659  L978.51563 257.14847  L979.00391 360.69989  L979.49219 255.89139  L979.98047 359.42596  L980.46875 254.71439  L980.95703 358.15353  L981.44531 253.62091  L981.93359 356.87726  L982.42188 252.61247  L982.91016 355.57886  L983.39844 251.58600  L983.88672 354.25391  L984.37500 250.61496  L984.86328 352.89636  L985.35156 249.65916  L985.83984 351.48883  L986.32813 248.76993  L986.81641 350.02014  L987.30469 247.87306  L987.79297 348.47119  L988.28125 246.93857  L988.76953 346.82108  L989.25781 246.03748  L989.74609 345.04276  L990.23438 244.98196  L990.72266 343.09497  L991.21094 243.91257  L991.69922 340.93585  L992.18750 242.66983  L992.67578 338.48480  L993.16406 241.23367  L993.65234 335.68738  L994.14063 239.54057  L994.62891 332.41241  L995.11719 237.16034  L995.60547 328.49045  L996.09375 234.03658  L996.58203 323.79050  L997.07031 229.81010  L997.55859 318.17755  L998.04688 223.38849  L998.53516 311.47888  L999.02344 213.22743  L999.51172 303.92645 " /></g><text x="1000.00000" dx="10" y="200.00000">[-0.00000;120.26628]</text><text x="1000.00000" dx="10" y="300.00220">[-3.14145;3.14159]</text></svg>