<svg xmlns="http://www.w3.org/2000/svg" version="1.1"><g stroke-width="0.6"><path fill="none" stroke="#000000" d="M0 149.61932 L1000.00000 149.61932" /><path fill="none" stroke="#000000" d="M0 300.00000 L1000.00000 300.00000" /><path fill="none" stroke="#000000" d="M500.00000 0 L500.00000 400.00000" /><path fill="none" stroke="#000000" d="M0 149.61932  L0.00000 149.75880 L0.97656 149.75818 L1.95313 149.75659 L2.92969 149.75385 L3.90625 149.75029 L4.88281 149.74516 L5.85938 149.73900 L6.83594 149.73148 L7.81250 149.72240 L8.78906 149.71190 L9.76563 149.69971 L10.74219 149.68593 L11.71875 149.66978 L12.69531 149.65126 L13.67188 149.63023 L14.64844 149.60594 L15.62500 149.57825 L16.60156 149.54636 L17.57813 149.50951 L18.55469 149.46666 L19.53125 149.41672 L20.50781 149.35777 L21.48438 149.28764 L22.46094 149.20352 L23.43750 149.10114 L24.41406 148.97427 L25.39063 148.81380 L26.36719 148.60507 L27.34375 148.32542 L28.32031 147.93169 L29.29688 147.34196 L30.27344 146.36726 L31.25000 144.46562 L32.22656 139.18015 L33.20313 54.35924 L34.17969 165.32233 L35.15625 157.41898 L36.13281 155.04561 L37.10938 153.91325 L38.08594 153.25836 L39.06250 152.83817 L40.03906 152.55148 L41.01563 152.34921 L41.99219 152.20396 L42.96875 152.10071 L43.94531 152.02986 L44.92188 151.98558 L45.89844 151.96494 L46.87500 151.96657 L47.85156 151.99052 L48.82813 152.03897 L49.80469 152.11557 L50.78125 152.22746 L51.75781 152.38608 L52.73438 152.61115 L53.71094 152.93794 L54.68750 153.43526 L55.66406 154.25952 L56.64063 155.84465 L57.61719 160.03444 L58.59375 200.00000 L59.57031 135.39299 L60.54688 143.98952 L61.52344 146.35722 L62.50000 147.46049 L63.47656 148.09601 L64.45313 148.50810 L65.42969 148.79558 L66.40625 149.00699 L67.38281 149.16849 L68.35938 149.29576 L69.33594 149.39848 L70.31250 149.48277 L71.28906 149.55321 L72.26563 149.61284 L73.24219 149.66400 L74.21875 149.70836 L75.19531 149.74696 L76.17188 149.78104 L77.14844 149.81117 L78.12500 149.83829 L79.10156 149.86267 L80.07813 149.88464 L81.05469 149.90460 L82.03125 149.92282 L83.00781 149.93936 L83.98438 149.95483 L84.96094 149.96942 L85.93750 149.98259 L86.91406 149.99472 L87.89063 150.00621 L88.86719 150.01752 L89.84375 150.02754 L90.82031 150.03758 L91.79688 150.04668 L92.77344 150.05537 L93.75000 150.06386 L94.72656 150.07185 L95.70313 150.07962 L96.67969 150.08702 L97.65625 150.09418 L98.63281 150.10109 L99.60938 150.10786 L100.58594 150.11444 L101.56250 150.12068 L102.53906 150.12694 L103.51563 150.13307 L104.49219 150.13902 L105.46875 150.14503 L106.44531 150.15071 L107.42188 150.15623 L108.39844 150.16211 L109.37500 150.16771 L110.35156 150.17348 L111.32813 150.17892 L112.30469 150.18442 L113.28125 150.19002 L114.25781 150.19547 L115.23438 150.20094 L116.21094 150.20651 L117.18750 150.21194 L118.16406 150.21754 L119.14063 150.22310 L120.11719 150.22887 L121.09375 150.23450 L122.07031 150.24037 L123.04688 150.24619 L124.02344 150.25204 L125.00000 150.25801 L125.97656 150.26407 L126.95313 150.27028 L127.92969 150.27658 L128.90625 150.28293 L129.88281 150.28941 L130.85938 150.29599 L131.83594 150.30272 L132.81250 150.30969 L133.78906 150.31685 L134.76563 150.32404 L135.74219 150.33142 L136.71875 150.33902 L137.69531 150.34674 L138.67188 150.35486 L139.64844 150.36270 L140.62500 150.37137 L141.60156 150.38007 L142.57813 150.38902 L143.55469 150.39821 L144.53125 150.40765 L145.50781 150.41751 L146.48438 150.42769 L147.46094 150.43823 L148.43750 150.44897 L149.41406 150.46022 L150.39063 150.47191 L151.36719 150.48410 L152.34375 150.49669 L153.32031 150.50981 L154.29688 150.52333 L155.27344 150.53752 L156.25000 150.55246 L157.22656 150.56790 L158.20313 150.58423 L159.17969 150.60092 L160.15625 150.61876 L161.13281 150.63744 L162.10938 150.65698 L163.08594 150.67749 L164.06250 150.69897 L165.03906 150.72194 L166.01563 150.74626 L166.99219 150.77194 L167.96875 150.79900 L168.94531 150.82712 L169.92188 150.85796 L170.89844 150.89087 L171.87500 150.92636 L172.85156 150.96420 L173.82813 151.00456 L174.80469 151.04770 L175.78125 151.09441 L176.75781 151.14528 L177.73438 151.20065 L178.71094 151.26105 L179.68750 151.32701 L180.66406 151.39978 L181.64063 151.48035 L182.61719 151.57011 L183.59375 151.67029 L184.57031 151.78322 L185.54688 151.91138 L186.52344 152.05809 L187.50000 152.22784 L188.47656 152.42632 L189.45313 152.66158 L190.42969 152.94481 L191.40625 153.29230 L192.38281 153.72905 L193.35938 154.29413 L194.33594 155.05417 L195.31250 156.13080 L196.28906 157.77428 L197.26563 160.59157 L198.24219 166.53914 L199.21875 187.35582 L200.19531 0.00000 L201.17188 124.90528 L202.14844 136.25993 L203.12500 140.51787 L204.10156 142.74817 L205.07813 144.12051 L206.05469 145.05028 L207.03125 145.72183 L208.00781 146.22951 L208.98438 146.62668 L209.96094 146.94617 L210.93750 147.20840 L211.91406 147.42780 L212.89063 147.61383 L213.86719 147.77377 L214.84375 147.91252 L215.82031 148.03418 L216.79688 148.14175 L217.77344 148.23735 L218.75000 148.32307 L219.72656 148.40027 L220.70313 148.47025 L221.67969 148.53391 L222.65625 148.59190 L223.63281 148.64525 L224.60938 148.69421 L225.58594 148.73958 L226.56250 148.78157 L227.53906 148.82060 L228.51563 148.85689 L229.49219 148.89066 L230.46875 148.92232 L231.44531 148.95251 L232.42188 148.98012 L233.39844 149.00642 L234.37500 149.03134 L235.35156 149.05469 L236.32813 149.07684 L237.30469 149.09781 L238.28125 149.11774 L239.25781 149.13667 L240.23438 149.15457 L241.21094 149.17178 L242.18750 149.18800 L243.16406 149.20367 L244.14063 149.21857 L245.11719 149.23282 L246.09375 149.24651 L247.07031 149.25946 L248.04688 149.27202 L249.02344 149.28403 L250.00000 149.29555 L250.97656 149.30672 L251.95313 149.31744 L252.92969 149.32774 L253.90625 149.33752 L254.88281 149.34717 L255.85938 149.35623 L256.83594 149.36507 L257.81250 149.37375 L258.78906 149.38203 L259.76563 149.39005 L260.74219 149.39777 L261.71875 149.40524 L262.69531 149.41280 L263.67188 149.41965 L264.64844 149.42635 L265.62500 149.43300 L266.60156 149.43935 L267.57813 149.44568 L268.55469 149.45175 L269.53125 149.45760 L270.50781 149.46330 L271.48438 149.46875 L272.46094 149.47420 L273.43750 149.47937 L274.41406 149.48454 L275.39063 149.48949 L276.36719 149.49426 L277.34375 149.49905 L278.32031 149.50369 L279.29688 149.50803 L280.27344 149.51241 L281.25000 149.51651 L282.22656 149.52097 L283.20313 149.52518 L284.17969 149.52904 L285.15625 149.53230 L286.13281 149.53654 L287.10938 149.53992 L288.08594 149.54356 L289.06250 149.54712 L290.03906 149.55057 L291.01563 149.55397 L291.99219 149.55711 L292.96875 149.56038 L293.94531 149.56366 L294.92188 149.56656 L295.89844 149.56953 L296.87500 149.57248 L297.85156 149.57538 L298.82813 149.57820 L299.80469 149.58093 L300.78125 149.58359 L301.75781 149.58626 L302.73438 149.58885 L303.71094 149.59140 L304.68750 149.59378 L305.66406 149.59628 L306.64063 149.59866 L307.61719 149.60114 L308.59375 149.60339 L309.57031 149.60541 L310.54688 149.60767 L311.52344 149.60971 L312.50000 149.61215 L313.47656 149.61407 L314.45313 149.61627 L315.42969 149.61830 L316.40625 149.62074 L317.38281 149.62206 L318.35938 149.62424 L319.33594 149.62605 L320.31250 149.62778 L321.28906 149.62970 L322.26563 149.63133 L323.24219 149.63315 L324.21875 149.63490 L325.19531 149.63664 L326.17188 149.63823 L327.14844 149.63974 L328.12500 149.64143 L329.10156 149.64294 L330.07813 149.64452 L331.05469 149.64612 L332.03125 149.64749 L333.00781 149.64900 L333.98438 149.65038 L334.96094 149.65181 L335.93750 149.65320 L336.91406 149.65463 L337.89063 149.65598 L338.86719 149.65736 L339.84375 149.65862 L340.82031 149.65993 L341.79688 149.66124 L342.77344 149.66243 L343.75000 149.66368 L344.72656 149.66466 L345.70313 149.66577 L346.67969 149.66705 L347.65625 149.66844 L348.63281 149.66943 L349.60938 149.67064 L350.58594 149.67171 L351.56250 149.67273 L352.53906 149.67389 L353.51563 149.67491 L354.49219 149.67593 L355.46875 149.67697 L356.44531 149.67801 L357.42188 149.67891 L358.39844 149.67989 L359.37500 149.68089 L360.35156 149.68181 L361.32813 149.68275 L362.30469 149.68373 L363.28125 149.68456 L364.25781 149.68549 L365.23438 149.68628 L366.21094 149.68712 L367.18750 149.68797 L368.16406 149.68895 L369.14063 149.68974 L370.11719 149.69057 L371.09375 149.69131 L372.07031 149.69215 L373.04688 149.69293 L374.02344 149.69368 L375.00000 149.69449 L375.97656 149.69496 L376.95313 149.69585 L377.92969 149.69670 L378.90625 149.69745 L379.88281 149.69809 L380.85938 149.69878 L381.83594 149.69939 L382.81250 149.70009 L383.78906 149.70084 L384.76563 149.70146 L385.74219 149.70206 L386.71875 149.70277 L387.69531 149.70343 L388.67188 149.70399 L389.64844 149.70448 L390.62500 149.70515 L391.60156 149.70573 L392.57813 149.70634 L393.55469 149.70703 L394.53125 149.70740 L395.50781 149.70804 L396.48438 149.70845 L397.46094 149.70905 L398.43750 149.70961 L399.41406 149.71027 L400.39063 149.71075 L401.36719 149.71124 L402.34375 149.71170 L403.32031 149.71220 L404.29688 149.71275 L405.27344 149.71317 L406.25000 149.71371 L407.22656 149.71405 L408.20313 149.71452 L409.17969 149.71503 L410.15625 149.71556 L411.13281 149.71593 L412.10938 149.71637 L413.08594 149.71680 L414.06250 149.71716 L415.03906 149.71767 L416.01563 149.71805 L416.99219 149.71848 L417.96875 149.71893 L418.94531 149.71928 L419.92188 149.71964 L420.89844 149.71992 L421.87500 149.72044 L422.85156 149.72079 L423.82813 149.72113 L424.80469 149.72157 L425.78125 149.72176 L426.75781 149.72269 L427.73438 149.72287 L428.71094 149.72296 L429.68750 149.72275 L430.66406 149.72290 L431.64063 149.72321 L432.61719 149.72380 L433.59375 149.72429 L434.57031 149.72450 L435.54688 149.72473 L436.52344 149.72493 L437.50000 149.72533 L438.47656 149.72563 L439.45313 149.72589 L440.42969 149.72610 L441.40625 149.72641 L442.38281 149.72672 L443.35938 149.72699 L444.33594 149.72717 L445.31250 149.72729 L446.28906 149.72763 L447.26563 149.72797 L448.24219 149.72815 L449.21875 149.72838 L450.19531 149.72845 L451.17188 149.72864 L452.14844 149.72908 L453.12500 149.72928 L454.10156 149.72928 L455.07813 149.72932 L456.05469 149.72939 L457.03125 149.73058 L458.00781 149.72984 L458.98438 149.73080 L459.96094 149.73082 L460.93750 149.73082 L461.91406 149.73064 L462.89063 149.73094 L463.86719 149.73123 L464.84375 149.73138 L465.82031 149.73151 L466.79688 149.73149 L467.77344 149.73167 L468.75000 149.73190 L469.72656 149.73193 L470.70313 149.73210 L471.67969 149.73213 L472.65625 149.73238 L473.63281 149.73248 L474.60938 149.73254 L475.58594 149.73265 L476.56250 149.73267 L477.53906 149.73291 L478.51563 149.73303 L479.49219 149.73302 L480.46875 149.73318 L481.44531 149.73312 L482.42188 149.73325 L483.39844 149.73332 L484.37500 149.73341 L485.35156 149.73343 L486.32813 149.73340 L487.30469 149.73351 L488.28125 149.73378 L489.25781 149.73361 L490.23438 149.73383 L491.21094 149.73378 L492.18750 149.73375 L493.16406 149.73373 L494.14063 149.73380 L495.11719 149.73387 L496.09375 149.73390 L497.07031 149.73389 L498.04688 149.73389 L499.02344 149.73381 L500.00000 149.73393 L500.97656 149.73381 L501.95313 149.73389 L502.92969 149.73389 L503.90625 149.73390 L504.88281 149.73387 L505.85938 149.73380 L506.83594 149.73373 L507.81250 149.73375 L508.78906 149.73378 L509.76563 149.73383 L510.74219 149.73361 L511.71875 149.73378 L512.69531 149.73351 L513.67188 149.73340 L514.64844 149.73343 L515.62500 149.73341 L516.60156 149.73332 L517.57813 149.73325 L518.55469 149.73312 L519.53125 149.73318 L520.50781 149.73302 L521.48438 149.73303 L522.46094 149.73291 L523.43750 149.73267 L524.41406 149.73265 L525.39063 149.73254 L526.36719 149.73248 L527.34375 149.73238 L528.32031 149.73213 L529.29688 149.73212 L530.27344 149.73193 L531.25000 149.73190 L532.22656 149.73167 L533.20313 149.73149 L534.17969 149.73151 L535.15625 149.73138 L536.13281 149.73123 L537.10938 149.73094 L538.08594 149.73064 L539.06250 149.73082 L540.03906 149.73082 L541.01563 149.73080 L541.99219 149.72984 L542.96875 149.73058 L543.94531 149.72939 L544.92188 149.72932 L545.89844 149.72928 L546.87500 149.72928 L547.85156 149.72908 L548.82813 149.72864 L549.80469 149.72845 L550.78125 149.72838 L551.75781 149.72815 L552.73438 149.72797 L553.71094 149.72763 L554.68750 149.72729 L555.66406 149.72717 L556.64063 149.72699 L557.61719 149.72672 L558.59375 149.72641 L559.57031 149.72610 L560.54688 149.72589 L561.52344 149.72563 L562.50000 149.72533 L563.47656 149.72493 L564.45313 149.72473 L565.42969 149.72450 L566.40625 149.72429 L567.38281 149.72382 L568.35938 149.72321 L569.33594 149.72290 L570.31250 149.72275 L571.28906 149.72296 L572.26563 149.72287 L573.24219 149.72269 L574.21875 149.72176 L575.19531 149.72157 L576.17188 149.72113 L577.14844 149.72079 L578.12500 149.72044 L579.10156 149.71992 L580.07813 149.71964 L581.05469 149.71928 L582.03125 149.71893 L583.00781 149.71846 L583.98438 149.71805 L584.96094 149.71767 L585.93750 149.71716 L586.91406 149.71680 L587.89063 149.71637 L588.86719 149.71593 L589.84375 149.71556 L590.82031 149.71503 L591.79688 149.71454 L592.77344 149.71405 L593.75000 149.71371 L594.72656 149.71317 L595.70313 149.71275 L596.67969 149.71222 L597.65625 149.71172 L598.63281 149.71124 L599.60938 149.71075 L600.58594 149.71027 L601.56250 149.70961 L602.53906 149.70906 L603.51563 149.70845 L604.49219 149.70804 L605.46875 149.70740 L606.44531 149.70703 L607.42188 149.70634 L608.39844 149.70573 L609.37500 149.70515 L610.35156 149.70448 L611.32813 149.70399 L612.30469 149.70343 L613.28125 149.70277 L614.25781 149.70206 L615.23438 149.70146 L616.21094 149.70084 L617.18750 149.70009 L618.16406 149.69939 L619.14063 149.69878 L620.11719 149.69809 L621.09375 149.69745 L622.07031 149.69670 L623.04688 149.69585 L624.02344 149.69496 L625.00000 149.69449 L625.97656 149.69368 L626.95313 149.69293 L627.92969 149.69215 L628.90625 149.69131 L629.88281 149.69057 L630.85938 149.68974 L631.83594 149.68895 L632.81250 149.68797 L633.78906 149.68713 L634.76563 149.68628 L635.74219 149.68549 L636.71875 149.68456 L637.69531 149.68373 L638.67188 149.68275 L639.64844 149.68181 L640.62500 149.68089 L641.60156 149.67989 L642.57813 149.67891 L643.55469 149.67801 L644.53125 149.67696 L645.50781 149.67593 L646.48438 149.67491 L647.46094 149.67389 L648.43750 149.67273 L649.41406 149.67171 L650.39063 149.67064 L651.36719 149.66943 L652.34375 149.66844 L653.32031 149.66705 L654.29688 149.66577 L655.27344 149.66466 L656.25000 149.66368 L657.22656 149.66243 L658.20313 149.66122 L659.17969 149.65994 L660.15625 149.65862 L661.13281 149.65736 L662.10938 149.65598 L663.08594 149.65463 L664.06250 149.65320 L665.03906 149.65181 L666.01563 149.65038 L666.99219 149.64900 L667.96875 149.64749 L668.94531 149.64612 L669.92188 149.64452 L670.89844 149.64294 L671.87500 149.64143 L672.85156 149.63974 L673.82813 149.63823 L674.80469 149.63664 L675.78125 149.63490 L676.75781 149.63315 L677.73438 149.63133 L678.71094 149.62970 L679.68750 149.62778 L680.66406 149.62605 L681.64063 149.62424 L682.61719 149.62206 L683.59375 149.62074 L684.57031 149.61832 L685.54688 149.61627 L686.52344 149.61407 L687.50000 149.61215 L688.47656 149.60971 L689.45313 149.60767 L690.42969 149.60541 L691.40625 149.60339 L692.38281 149.60114 L693.35938 149.59866 L694.33594 149.59628 L695.31250 149.59378 L696.28906 149.59140 L697.26563 149.58885 L698.24219 149.58626 L699.21875 149.58359 L700.19531 149.58093 L701.17188 149.57820 L702.14844 149.57538 L703.12500 149.57248 L704.10156 149.56953 L705.07813 149.56656 L706.05469 149.56366 L707.03125 149.56038 L708.00781 149.55711 L708.98438 149.55397 L709.96094 149.55057 L710.93750 149.54712 L711.91406 149.54356 L712.89063 149.53992 L713.86719 149.53654 L714.84375 149.53230 L715.82031 149.52904 L716.79688 149.52519 L717.77344 149.52098 L718.75000 149.51651 L719.72656 149.51241 L720.70313 149.50803 L721.67969 149.50369 L722.65625 149.49905 L723.63281 149.49426 L724.60938 149.48949 L725.58594 149.48454 L726.56250 149.47937 L727.53906 149.47420 L728.51563 149.46875 L729.49219 149.46330 L730.46875 149.45760 L731.44531 149.45175 L732.42188 149.44568 L733.39844 149.43935 L734.37500 149.43300 L735.35156 149.42635 L736.32813 149.41965 L737.30469 149.41280 L738.28125 149.40523 L739.25781 149.39777 L740.23438 149.39005 L741.21094 149.38203 L742.18750 149.37375 L743.16406 149.36507 L744.14063 149.35623 L745.11719 149.34717 L746.09375 149.33752 L747.07031 149.32776 L748.04688 149.31744 L749.02344 149.30672 L750.00000 149.29555 L750.97656 149.28403 L751.95313 149.27202 L752.92969 149.25946 L753.90625 149.24651 L754.88281 149.23282 L755.85938 149.21857 L756.83594 149.20367 L757.81250 149.18800 L758.78906 149.17178 L759.76563 149.15457 L760.74219 149.13667 L761.71875 149.11774 L762.69531 149.09781 L763.67188 149.07684 L764.64844 149.05469 L765.62500 149.03134 L766.60156 149.00642 L767.57813 148.98012 L768.55469 148.95251 L769.53125 148.92232 L770.50781 148.89066 L771.48438 148.85689 L772.46094 148.82060 L773.43750 148.78157 L774.41406 148.73958 L775.39063 148.69421 L776.36719 148.64525 L777.34375 148.59190 L778.32031 148.53391 L779.29688 148.47025 L780.27344 148.40027 L781.25000 148.32307 L782.22656 148.23735 L783.20313 148.14175 L784.17969 148.03419 L785.15625 147.91252 L786.13281 147.77376 L787.10938 147.61383 L788.08594 147.42780 L789.06250 147.20840 L790.03906 146.94617 L791.01563 146.62668 L791.99219 146.22951 L792.96875 145.72183 L793.94531 145.05028 L794.92188 144.12051 L795.89844 142.74817 L796.87500 140.51787 L797.85156 136.25993 L798.82813 124.90527 L799.80469 -0.00001 L800.78125 187.35583 L801.75781 166.53914 L802.73438 160.59157 L803.71094 157.77428 L804.68750 156.13080 L805.66406 155.05417 L806.64063 154.29413 L807.61719 153.72905 L808.59375 153.29230 L809.57031 152.94481 L810.54688 152.66158 L811.52344 152.42632 L812.50000 152.22784 L813.47656 152.05809 L814.45313 151.91138 L815.42969 151.78322 L816.40625 151.67029 L817.38281 151.57011 L818.35938 151.48035 L819.33594 151.39978 L820.31250 151.32701 L821.28906 151.26105 L822.26563 151.20065 L823.24219 151.14526 L824.21875 151.09441 L825.19531 151.04770 L826.17188 151.00456 L827.14844 150.96420 L828.12500 150.92636 L829.10156 150.89087 L830.07813 150.85796 L831.05469 150.82712 L832.03125 150.79900 L833.00781 150.77194 L833.98438 150.74626 L834.96094 150.72194 L835.93750 150.69897 L836.91406 150.67749 L837.89063 150.65698 L838.86719 150.63744 L839.84375 150.61876 L840.82031 150.60092 L841.79688 150.58424 L842.77344 150.56790 L843.75000 150.55246 L844.72656 150.53752 L845.70313 150.52333 L846.67969 150.50981 L847.65625 150.49669 L848.63281 150.48410 L849.60938 150.47191 L850.58594 150.46022 L851.56250 150.44897 L852.53906 150.43823 L853.51563 150.42767 L854.49219 150.41751 L855.46875 150.40765 L856.44531 150.39821 L857.42188 150.38902 L858.39844 150.38007 L859.37500 150.37137 L860.35156 150.36270 L861.32813 150.35486 L862.30469 150.34674 L863.28125 150.33902 L864.25781 150.33142 L865.23438 150.32404 L866.21094 150.31686 L867.18750 150.30969 L868.16406 150.30272 L869.14063 150.29599 L870.11719 150.28941 L871.09375 150.28293 L872.07031 150.27658 L873.04688 150.27028 L874.02344 150.26407 L875.00000 150.25801 L875.97656 150.25204 L876.95313 150.24619 L877.92969 150.24037 L878.90625 150.23451 L879.88281 150.22887 L880.85938 150.22310 L881.83594 150.21754 L882.81250 150.21194 L883.78906 150.20651 L884.76563 150.20094 L885.74219 150.19547 L886.71875 150.19002 L887.69531 150.18442 L888.67188 150.17892 L889.64844 150.17348 L890.62500 150.16771 L891.60156 150.16212 L892.57813 150.15625 L893.55469 150.15071 L894.53125 150.14505 L895.50781 150.13902 L896.48438 150.13307 L897.46094 150.12694 L898.43750 150.12068 L899.41406 150.11444 L900.39063 150.10786 L901.36719 150.10109 L902.34375 150.09418 L903.32031 150.08702 L904.29688 150.07962 L905.27344 150.07185 L906.25000 150.06386 L907.22656 150.05537 L908.20313 150.04668 L909.17969 150.03758 L910.15625 150.02754 L911.13281 150.01752 L912.10938 150.00621 L913.08594 149.99472 L914.06250 149.98259 L915.03906 149.96942 L916.01563 149.95483 L916.99219 149.93936 L917.96875 149.92282 L918.94531 149.90460 L919.92188 149.88464 L920.89844 149.86267 L921.87500 149.83829 L922.85156 149.81117 L923.82813 149.78104 L924.80469 149.74696 L925.78125 149.70836 L926.75781 149.66400 L927.73438 149.61284 L928.71094 149.55321 L929.68750 149.48277 L930.66406 149.39848 L931.64063 149.29576 L932.61719 149.16849 L933.59375 149.00699 L934.57031 148.79558 L935.54688 148.50810 L936.52344 148.09601 L937.50000 147.46049 L938.47656 146.35722 L939.45313 143.98952 L940.42969 135.39301 L941.40625 199.99995 L942.38281 160.03442 L943.35938 155.84465 L944.33594 154.25952 L945.31250 153.43526 L946.28906 152.93794 L947.26563 152.61113 L948.24219 152.38608 L949.21875 152.22746 L950.19531 152.11557 L951.17188 152.03899 L952.14844 151.99052 L953.12500 151.96657 L954.10156 151.96494 L955.07813 151.98558 L956.05469 152.02986 L957.03125 152.10071 L958.00781 152.20396 L958.98438 152.34921 L959.96094 152.55150 L960.93750 152.83817 L961.91406 153.25836 L962.89063 153.91325 L963.86719 155.04561 L964.84375 157.41898 L965.82031 165.32233 L966.79688 54.35918 L967.77344 139.18015 L968.75000 144.46562 L969.72656 146.36726 L970.70313 147.34195 L971.67969 147.93169 L972.65625 148.32542 L973.63281 148.60507 L974.60938 148.81380 L975.58594 148.97427 L976.56250 149.10114 L977.53906 149.20352 L978.51563 149.28764 L979.49219 149.35777 L980.46875 149.41672 L981.44531 149.46666 L982.42188 149.50951 L983.39844 149.54636 L984.37500 149.57825 L985.35156 149.60594 L986.32813 149.63023 L987.30469 149.65126 L988.28125 149.66978 L989.25781 149.68593 L990.23438 149.69971 L991.21094 149.71190 L992.18750 149.72240 L993.16406 149.73148 L994.14063 149.73898 L995.11719 149.74516 L996.09375 149.75029 L997.07031 149.75385 L998.04688 149.75659 L999.02344 149.75818" /><path fill="none" stroke="#000000" d="M0 300.00000  L0.00000 300.00000  L0.97656 300.03482  L1.95313 300.06970  L2.92969 300.10486  L3.90625 300.14047  L4.88281 300.17679  L5.85938 300.21362  L6.83594 300.25150  L7.81250 300.29050  L8.78906 300.33044  L9.76563 300.37219  L10.74219 300.41556  L11.71875 300.46121  L12.69531 300.50916  L13.67188 300.55988  L14.64844 300.61398  L15.62500 300.67191  L16.60156 300.73441  L17.57813 300.80243  L18.55469 300.87686  L19.53125 300.95926  L20.50781 301.05136  L21.48438 301.15533  L22.46094 301.27448  L23.43750 301.41318  L24.41406 301.57773  L25.39063 301.77765  L26.36719 302.02692  L27.34375 302.35004  L28.32031 302.78915  L29.29688 303.42798  L30.27344 304.45636  L31.25000 306.42053  L32.22656 311.79263  L33.20313 397.20654  L34.17969 285.60159  L35.15625 293.61996  L36.13281 296.07785  L37.10938 297.29205  L38.08594 298.03235  L39.06250 298.54373  L40.03906 298.92896  L41.01563 299.23950  L41.99219 299.50391  L42.96875 299.74002  L43.94531 299.96002  L44.92188 300.17307  L45.89844 300.38702  L46.87500 300.60925  L47.85156 300.84784  L48.82813 301.11218  L49.80469 301.41461  L50.78125 301.77258  L51.75781 302.21207  L52.73438 302.77551  L53.71094 303.53653  L54.68750 304.63794  L55.66406 306.39841  L56.64063 309.70599  L57.61719 318.32584  L58.59375 400.00000  L59.57031 268.12125  L60.54688 285.72778  L61.52344 290.61069  L62.50000 292.90796  L63.47656 294.24719  L64.45313 295.12640  L65.42969 295.74945  L66.40625 296.21503  L67.38281 296.57654  L68.35938 296.86600  L69.33594 297.10345  L70.31250 297.30188  L71.28906 297.47046  L72.26563 297.61548  L73.24219 297.74182  L74.21875 297.85291  L75.19531 297.95151  L76.17188 298.03958  L77.14844 298.11871  L78.12500 298.19031  L79.10156 298.25555  L80.07813 298.31512  L81.05469 298.36981  L82.03125 298.42026  L83.00781 298.46680  L83.98438 298.50989  L84.96094 298.55011  L85.93750 298.58783  L86.91406 298.62286  L87.89063 298.65555  L88.86719 298.68646  L89.84375 298.71548  L90.82031 298.74295  L91.79688 298.76889  L92.77344 298.79340  L93.75000 298.81656  L94.72656 298.83856  L95.70313 298.85950  L96.67969 298.87939  L97.65625 298.89838  L98.63281 298.91641  L99.60938 298.93356  L100.58594 298.95010  L101.56250 298.96576  L102.53906 298.98077  L103.51563 298.99518  L104.49219 299.00891  L105.46875 299.02213  L106.44531 299.03485  L107.42188 299.04684  L108.39844 299.05847  L109.37500 299.06952  L110.35156 299.08044  L111.32813 299.09070  L112.30469 299.10056  L113.28125 299.11011  L114.25781 299.11923  L115.23438 299.12802  L116.21094 299.13647  L117.18750 299.14456  L118.16406 299.15231  L119.14063 299.15976  L120.11719 299.16696  L121.09375 299.17377  L122.07031 299.18042  L123.04688 299.18680  L124.02344 299.19284  L125.00000 299.19867  L125.97656 299.20419  L126.95313 299.20947  L127.92969 299.21460  L128.90625 299.21942  L129.88281 299.22403  L130.85938 299.22839  L131.83594 299.23254  L132.81250 299.23639  L133.78906 299.24011  L134.76563 299.24365  L135.74219 299.24689  L136.71875 299.24991  L137.69531 299.25278  L138.67188 299.25540  L139.64844 299.25778  L140.62500 299.25980  L141.60156 299.26178  L142.57813 299.26352  L143.55469 299.26501  L144.53125 299.26630  L145.50781 299.26727  L146.48438 299.26813  L147.46094 299.26865  L148.43750 299.26895  L149.41406 299.26895  L150.39063 299.26865  L151.36719 299.26816  L152.34375 299.26736  L153.32031 299.26630  L154.29688 299.26492  L155.27344 299.26318  L156.25000 299.26111  L157.22656 299.25873  L158.20313 299.25598  L159.17969 299.25290  L160.15625 299.24933  L161.13281 299.24527  L162.10938 299.24084  L163.08594 299.23596  L164.06250 299.23041  L165.03906 299.22430  L166.01563 299.21774  L166.99219 299.21054  L167.96875 299.20258  L168.94531 299.19388  L169.92188 299.18384  L170.89844 299.17307  L171.87500 299.16156  L172.85156 299.14914  L173.82813 299.13553  L174.80469 299.12036  L175.78125 299.10358  L176.75781 299.08505  L177.73438 299.06473  L178.71094 299.04227  L179.68750 299.01724  L180.66406 298.98932  L181.64063 298.95807  L182.61719 298.92310  L183.59375 298.88354  L184.57031 298.83856  L185.54688 298.78711  L186.52344 298.72778  L187.50000 298.65872  L188.47656 298.57751  L189.45313 298.48074  L190.42969 298.36374  L191.40625 298.21954  L192.38281 298.03760  L193.35938 297.80145  L194.33594 297.48306  L195.31250 297.03088  L196.28906 296.33948  L197.26563 295.15259  L198.24219 292.64429  L199.21875 283.85962  L200.19531 362.94681  L201.17188 310.22513  L202.14844 305.43439  L203.12500 303.63916  L204.10156 302.69986  L205.07813 302.12262  L206.05469 301.73206  L207.03125 301.45074  L208.00781 301.23849  L208.98438 301.07275  L209.96094 300.93991  L210.93750 300.83112  L211.91406 300.74048  L212.89063 300.66382  L213.86719 300.59827  L214.84375 300.54153  L215.82031 300.49207  L216.79688 300.44852  L217.77344 300.40991  L218.75000 300.37555  L219.72656 300.34470  L220.70313 300.31689  L221.67969 300.29190  L222.65625 300.26910  L223.63281 300.24829  L224.60938 300.22919  L225.58594 300.21182  L226.56250 300.19574  L227.53906 300.18091  L228.51563 300.16718  L229.49219 300.15439  L230.46875 300.14270  L231.44531 300.13162  L232.42188 300.12158  L233.39844 300.11203  L234.37500 300.10303  L235.35156 300.09460  L236.32813 300.08676  L237.30469 300.07944  L238.28125 300.07251  L239.25781 300.06598  L240.23438 300.05984  L241.21094 300.05405  L242.18750 300.04858  L243.16406 300.04340  L244.14063 300.03848  L245.11719 300.03387  L246.09375 300.02948  L247.07031 300.02536  L248.04688 300.02145  L249.02344 300.01764  L250.00000 300.01413  L250.97656 300.01080  L251.95313 300.00751  L252.92969 300.00464  L253.90625 300.00171  L254.88281 299.99890  L255.85938 299.99622  L256.83594 299.99384  L257.81250 299.99136  L258.78906 299.98911  L259.76563 299.98697  L260.74219 299.98489  L261.71875 299.98297  L262.69531 299.98105  L263.67188 299.97934  L264.64844 299.97760  L265.62500 299.97601  L266.60156 299.97446  L267.57813 299.97296  L268.55469 299.97153  L269.53125 299.97021  L270.50781 299.96893  L271.48438 299.96774  L272.46094 299.96655  L273.43750 299.96539  L274.41406 299.96436  L275.39063 299.96332  L276.36719 299.96240  L277.34375 299.96149  L278.32031 299.96057  L279.29688 299.95984  L280.27344 299.95889  L281.25000 299.95816  L282.22656 299.95752  L283.20313 299.95657  L284.17969 299.95636  L285.15625 299.95575  L286.13281 299.95499  L287.10938 299.95435  L288.08594 299.95392  L289.06250 299.95337  L290.03906 299.95291  L291.01563 299.95245  L291.99219 299.95197  L292.96875 299.95166  L293.94531 299.95123  L294.92188 299.95099  L295.89844 299.95062  L296.87500 299.95029  L297.85156 299.95001  L298.82813 299.94971  L299.80469 299.94949  L300.78125 299.94928  L301.75781 299.94901  L302.73438 299.94885  L303.71094 299.94864  L304.68750 299.94852  L305.66406 299.94827  L306.64063 299.94818  L307.61719 299.94806  L308.59375 299.94797  L309.57031 299.94797  L310.54688 299.94778  L311.52344 299.94760  L312.50000 299.94754  L313.47656 299.94736  L314.45313 299.94763  L315.42969 299.94733  L316.40625 299.94739  L317.38281 299.94757  L318.35938 299.94760  L319.33594 299.94751  L320.31250 299.94760  L321.28906 299.94757  L322.26563 299.94766  L323.24219 299.94772  L324.21875 299.94775  L325.19531 299.94781  L326.17188 299.94794  L327.14844 299.94803  L328.12500 299.94812  L329.10156 299.94818  L330.07813 299.94830  L331.05469 299.94843  L332.03125 299.94855  L333.00781 299.94870  L333.98438 299.94879  L334.96094 299.94891  L335.93750 299.94904  L336.91406 299.94919  L337.89063 299.94937  L338.86719 299.94952  L339.84375 299.94965  L340.82031 299.94983  L341.79688 299.95007  L342.77344 299.95026  L343.75000 299.95047  L344.72656 299.95062  L345.70313 299.95081  L346.67969 299.95084  L347.65625 299.95108  L348.63281 299.95135  L349.60938 299.95160  L350.58594 299.95178  L351.56250 299.95197  L352.53906 299.95218  L353.51563 299.95242  L354.49219 299.95264  L355.46875 299.95288  L356.44531 299.95313  L357.42188 299.95337  L358.39844 299.95361  L359.37500 299.95386  L360.35156 299.95404  L361.32813 299.95428  L362.30469 299.95456  L363.28125 299.95483  L364.25781 299.95511  L365.23438 299.95535  L366.21094 299.95557  L367.18750 299.95581  L368.16406 299.95605  L369.14063 299.95636  L370.11719 299.95667  L371.09375 299.95691  L372.07031 299.95715  L373.04688 299.95746  L374.02344 299.95776  L375.00000 299.95807  L375.97656 299.95825  L376.95313 299.95856  L377.92969 299.95874  L378.90625 299.95914  L379.88281 299.95941  L380.85938 299.95975  L381.83594 299.95999  L382.81250 299.96027  L383.78906 299.96054  L384.76563 299.96088  L385.74219 299.96118  L386.71875 299.96146  L387.69531 299.96179  L388.67188 299.96210  L389.64844 299.96240  L390.62500 299.96268  L391.60156 299.96295  L392.57813 299.96326  L393.55469 299.96359  L394.53125 299.96396  L395.50781 299.96420  L396.48438 299.96454  L397.46094 299.96475  L398.43750 299.96506  L399.41406 299.96539  L400.39063 299.96576  L401.36719 299.96606  L402.34375 299.96637  L403.32031 299.96671  L404.29688 299.96704  L405.27344 299.96735  L406.25000 299.96765  L407.22656 299.96793  L408.20313 299.96826  L409.17969 299.96857  L410.15625 299.96890  L411.13281 299.96924  L412.10938 299.96957  L413.08594 299.96991  L414.06250 299.97021  L415.03906 299.97052  L416.01563 299.97086  L416.99219 299.97116  L417.96875 299.97153  L418.94531 299.97186  L419.92188 299.97223  L420.89844 299.97247  L421.87500 299.97281  L422.85156 299.97314  L423.82813 299.97351  L424.80469 299.97382  L425.78125 299.97409  L426.75781 299.97440  L427.73438 299.97513  L428.71094 299.97552  L429.68750 299.97589  L430.66406 299.97601  L431.64063 299.97614  L432.61719 299.97644  L433.59375 299.97678  L434.57031 299.97723  L435.54688 299.97754  L436.52344 299.97781  L437.50000 299.97812  L438.47656 299.97845  L439.45313 299.97888  L440.42969 299.97916  L441.40625 299.97943  L442.38281 299.97980  L443.35938 299.98016  L444.33594 299.98056  L445.31250 299.98083  L446.28906 299.98114  L447.26563 299.98151  L448.24219 299.98181  L449.21875 299.98230  L450.19531 299.98254  L451.17188 299.98279  L452.14844 299.98315  L453.12500 299.98355  L454.10156 299.98401  L455.07813 299.98419  L456.05469 299.98434  L457.03125 299.98462  L458.00781 299.98535  L458.98438 299.98526  L459.96094 299.98608  L460.93750 299.98645  L461.91406 299.98666  L462.89063 299.98694  L463.86719 299.98724  L464.84375 299.98767  L465.82031 299.98804  L466.79688 299.98834  L467.77344 299.98868  L468.75000 299.98898  L469.72656 299.98938  L470.70313 299.98969  L471.67969 299.98999  L472.65625 299.99036  L473.63281 299.99069  L474.60938 299.99109  L475.58594 299.99142  L476.56250 299.99170  L477.53906 299.99203  L478.51563 299.99243  L479.49219 299.99277  L480.46875 299.99316  L481.44531 299.99347  L482.42188 299.99384  L483.39844 299.99414  L484.37500 299.99451  L485.35156 299.99487  L486.32813 299.99518  L487.30469 299.99548  L488.28125 299.99579  L489.25781 299.99628  L490.23438 299.99652  L491.21094 299.99695  L492.18750 299.99731  L493.16406 299.99756  L494.14063 299.99796  L495.11719 299.99826  L496.09375 299.99863  L497.07031 299.99899  L498.04688 299.99930  L499.02344 299.99966  L500.00000 300.00000  L500.97656 300.00034  L501.95313 300.00070  L502.92969 300.00101  L503.90625 300.00137  L504.88281 300.00174  L505.85938 300.00204  L506.83594 300.00244  L507.81250 300.00269  L508.78906 300.00305  L509.76563 300.00348  L510.74219 300.00372  L511.71875 300.00421  L512.69531 300.00452  L513.67188 300.00482  L514.64844 300.00513  L515.62500 300.00549  L516.60156 300.00586  L517.57813 300.00616  L518.55469 300.00653  L519.53125 300.00684  L520.50781 300.00723  L521.48438 300.00757  L522.46094 300.00797  L523.43750 300.00830  L524.41406 300.00858  L525.39063 300.00891  L526.36719 300.00931  L527.34375 300.00964  L528.32031 300.01001  L529.29688 300.01028  L530.27344 300.01062  L531.25000 300.01102  L532.22656 300.01132  L533.20313 300.01166  L534.17969 300.01196  L535.15625 300.01233  L536.13281 300.01276  L537.10938 300.01306  L538.08594 300.01334  L539.06250 300.01355  L540.03906 300.01392  L541.01563 300.01474  L541.99219 300.01465  L542.96875 300.01538  L543.94531 300.01566  L544.92188 300.01581  L545.89844 300.01599  L546.87500 300.01645  L547.85156 300.01685  L548.82813 300.01721  L549.80469 300.01746  L550.78125 300.01770  L551.75781 300.01819  L552.73438 300.01849  L553.71094 300.01886  L554.68750 300.01917  L555.66406 300.01944  L556.64063 300.01984  L557.61719 300.02020  L558.59375 300.02054  L559.57031 300.02084  L560.54688 300.02112  L561.52344 300.02155  L562.50000 300.02188  L563.47656 300.02219  L564.45313 300.02246  L565.42969 300.02277  L566.40625 300.02322  L567.38281 300.02356  L568.35938 300.02386  L569.33594 300.02399  L570.31250 300.02411  L571.28906 300.02448  L572.26563 300.02487  L573.24219 300.02560  L574.21875 300.02591  L575.19531 300.02618  L576.17188 300.02649  L577.14844 300.02686  L578.12500 300.02719  L579.10156 300.02753  L580.07813 300.02777  L581.05469 300.02814  L582.03125 300.02847  L583.00781 300.02884  L583.98438 300.02914  L584.96094 300.02948  L585.93750 300.02979  L586.91406 300.03009  L587.89063 300.03043  L588.86719 300.03076  L589.84375 300.03110  L590.82031 300.03143  L591.79688 300.03174  L592.77344 300.03207  L593.75000 300.03235  L594.72656 300.03265  L595.70313 300.03296  L596.67969 300.03329  L597.65625 300.03363  L598.63281 300.03394  L599.60938 300.03424  L600.58594 300.03461  L601.56250 300.03494  L602.53906 300.03525  L603.51563 300.03546  L604.49219 300.03580  L605.46875 300.03604  L606.44531 300.03641  L607.42188 300.03674  L608.39844 300.03705  L609.37500 300.03732  L610.35156 300.03760  L611.32813 300.03790  L612.30469 300.03821  L613.28125 300.03854  L614.25781 300.03882  L615.23438 300.03912  L616.21094 300.03946  L617.18750 300.03973  L618.16406 300.04001  L619.14063 300.04025  L620.11719 300.04059  L621.09375 300.04086  L622.07031 300.04126  L623.04688 300.04141  L624.02344 300.04175  L625.00000 300.04193  L625.97656 300.04224  L626.95313 300.04254  L627.92969 300.04285  L628.90625 300.04309  L629.88281 300.04333  L630.85938 300.04364  L631.83594 300.04395  L632.81250 300.04419  L633.78906 300.04443  L634.76563 300.04465  L635.74219 300.04489  L636.71875 300.04517  L637.69531 300.04544  L638.67188 300.04572  L639.64844 300.04596  L640.62500 300.04614  L641.60156 300.04639  L642.57813 300.04663  L643.55469 300.04688  L644.53125 300.04712  L645.50781 300.04736  L646.48438 300.04758  L647.46094 300.04782  L648.43750 300.04803  L649.41406 300.04822  L650.39063 300.04840  L651.36719 300.04865  L652.34375 300.04892  L653.32031 300.04916  L654.29688 300.04919  L655.27344 300.04938  L656.25000 300.04953  L657.22656 300.04974  L658.20313 300.04993  L659.17969 300.05017  L660.15625 300.05035  L661.13281 300.05048  L662.10938 300.05063  L663.08594 300.05081  L664.06250 300.05096  L665.03906 300.05109  L666.01563 300.05121  L666.99219 300.05130  L667.96875 300.05145  L668.94531 300.05157  L669.92188 300.05170  L670.89844 300.05182  L671.87500 300.05188  L672.85156 300.05197  L673.82813 300.05206  L674.80469 300.05219  L675.78125 300.05225  L676.75781 300.05228  L677.73438 300.05234  L678.71094 300.05243  L679.68750 300.05240  L680.66406 300.05249  L681.64063 300.05240  L682.61719 300.05243  L683.59375 300.05261  L684.57031 300.05267  L685.54688 300.05237  L686.52344 300.05264  L687.50000 300.05246  L688.47656 300.05240  L689.45313 300.05222  L690.42969 300.05203  L691.40625 300.05203  L692.38281 300.05194  L693.35938 300.05182  L694.33594 300.05173  L695.31250 300.05148  L696.28906 300.05136  L697.26563 300.05115  L698.24219 300.05099  L699.21875 300.05072  L700.19531 300.05051  L701.17188 300.05029  L702.14844 300.04999  L703.12500 300.04971  L704.10156 300.04938  L705.07813 300.04901  L706.05469 300.04877  L707.03125 300.04834  L708.00781 300.04803  L708.98438 300.04755  L709.96094 300.04709  L710.93750 300.04663  L711.91406 300.04608  L712.89063 300.04565  L713.86719 300.04501  L714.84375 300.04425  L715.82031 300.04364  L716.79688 300.04343  L717.77344 300.04248  L718.75000 300.04184  L719.72656 300.04111  L720.70313 300.04016  L721.67969 300.03943  L722.65625 300.03851  L723.63281 300.03760  L724.60938 300.03668  L725.58594 300.03564  L726.56250 300.03461  L727.53906 300.03345  L728.51563 300.03226  L729.49219 300.03107  L730.46875 300.02979  L731.44531 300.02847  L732.42188 300.02704  L733.39844 300.02554  L734.37500 300.02399  L735.35156 300.02240  L736.32813 300.02066  L737.30469 300.01895  L738.28125 300.01703  L739.25781 300.01511  L740.23438 300.01303  L741.21094 300.01089  L742.18750 300.00864  L743.16406 300.00616  L744.14063 300.00378  L745.11719 300.00110  L746.09375 299.99829  L747.07031 299.99536  L748.04688 299.99249  L749.02344 299.98920  L750.00000 299.98587  L750.97656 299.98236  L751.95313 299.97855  L752.92969 299.97464  L753.90625 299.97052  L754.88281 299.96613  L755.85938 299.96152  L756.83594 299.95660  L757.81250 299.95142  L758.78906 299.94595  L759.76563 299.94016  L760.74219 299.93402  L761.71875 299.92749  L762.69531 299.92056  L763.67188 299.91324  L764.64844 299.90540  L765.62500 299.89697  L766.60156 299.88797  L767.57813 299.87842  L768.55469 299.86838  L769.53125 299.85730  L770.50781 299.84561  L771.48438 299.83282  L772.46094 299.81909  L773.43750 299.80426  L774.41406 299.78818  L775.39063 299.77081  L776.36719 299.75171  L777.34375 299.73090  L778.32031 299.70810  L779.29688 299.68311  L780.27344 299.65530  L781.25000 299.62445  L782.22656 299.59009  L783.20313 299.55148  L784.17969 299.50793  L785.15625 299.45847  L786.13281 299.40173  L787.10938 299.33618  L788.08594 299.25952  L789.06250 299.16888  L790.03906 299.06009  L791.01563 298.92725  L791.99219 298.76151  L792.96875 298.54926  L793.94531 298.26794  L794.92188 297.87738  L795.89844 297.30014  L796.87500 296.36084  L797.85156 294.56561  L798.82813 289.77490  L799.80469 237.05321  L800.78125 316.14038  L801.75781 307.35571  L802.73438 304.84741  L803.71094 303.66052  L804.68750 302.96912  L805.66406 302.51694  L806.64063 302.19855  L807.61719 301.96240  L808.59375 301.78046  L809.57031 301.63626  L810.54688 301.51926  L811.52344 301.42249  L812.50000 301.34128  L813.47656 301.27222  L814.45313 301.21289  L815.42969 301.16144  L816.40625 301.11646  L817.38281 301.07690  L818.35938 301.04193  L819.33594 301.01068  L820.31250 300.98276  L821.28906 300.95773  L822.26563 300.93527  L823.24219 300.91495  L824.21875 300.89642  L825.19531 300.87964  L826.17188 300.86447  L827.14844 300.85086  L828.12500 300.83844  L829.10156 300.82693  L830.07813 300.81616  L831.05469 300.80612  L832.03125 300.79742  L833.00781 300.78946  L833.98438 300.78226  L834.96094 300.77570  L835.93750 300.76959  L836.91406 300.76404  L837.89063 300.75916  L838.86719 300.75473  L839.84375 300.75067  L840.82031 300.74710  L841.79688 300.74402  L842.77344 300.74127  L843.75000 300.73889  L844.72656 300.73682  L845.70313 300.73508  L846.67969 300.73370  L847.65625 300.73264  L848.63281 300.73184  L849.60938 300.73135  L850.58594 300.73105  L851.56250 300.73105  L852.53906 300.73135  L853.51563 300.73187  L854.49219 300.73273  L855.46875 300.73370  L856.44531 300.73495  L857.42188 300.73648  L858.39844 300.73822  L859.37500 300.74020  L860.35156 300.74222  L861.32813 300.74457  L862.30469 300.74719  L863.28125 300.75009  L864.25781 300.75311  L865.23438 300.75635  L866.21094 300.75989  L867.18750 300.76361  L868.16406 300.76746  L869.14063 300.77161  L870.11719 300.77597  L871.09375 300.78058  L872.07031 300.78540  L873.04688 300.79053  L874.02344 300.79581  L875.00000 300.80133  L875.97656 300.80716  L876.95313 300.81320  L877.92969 300.81955  L878.90625 300.82623  L879.88281 300.83304  L880.85938 300.84024  L881.83594 300.84769  L882.81250 300.85544  L883.78906 300.86353  L884.76563 300.87198  L885.74219 300.88077  L886.71875 300.88989  L887.69531 300.89944  L888.67188 300.90930  L889.64844 300.91956  L890.62500 300.93048  L891.60156 300.94153  L892.57813 300.95316  L893.55469 300.96515  L894.53125 300.97787  L895.50781 300.99109  L896.48438 301.00482  L897.46094 301.01923  L898.43750 301.03424  L899.41406 301.04990  L900.39063 301.06644  L901.36719 301.08359  L902.34375 301.10162  L903.32031 301.12061  L904.29688 301.14053  L905.27344 301.16144  L906.25000 301.18344  L907.22656 301.20660  L908.20313 301.23111  L909.17969 301.25705  L910.15625 301.28452  L911.13281 301.31354  L912.10938 301.34445  L913.08594 301.37714  L914.06250 301.41217  L915.03906 301.44989  L916.01563 301.49011  L916.99219 301.53320  L917.96875 301.57974  L918.94531 301.63019  L919.92188 301.68488  L920.89844 301.74445  L921.87500 301.80969  L922.85156 301.88129  L923.82813 301.96042  L924.80469 302.04849  L925.78125 302.14709  L926.75781 302.25818  L927.73438 302.38452  L928.71094 302.52954  L929.68750 302.69812  L930.66406 302.89655  L931.64063 303.13400  L932.61719 303.42346  L933.59375 303.78497  L934.57031 304.25055  L935.54688 304.87360  L936.52344 305.75281  L937.50000 307.09204  L938.47656 309.38931  L939.45313 314.27222  L940.42969 331.87875  L941.40625 200.00000  L942.38281 281.67416  L943.35938 290.29401  L944.33594 293.60159  L945.31250 295.36206  L946.28906 296.46347  L947.26563 297.22449  L948.24219 297.78793  L949.21875 298.22742  L950.19531 298.58539  L951.17188 298.88782  L952.14844 299.15216  L953.12500 299.39075  L954.10156 299.61298  L955.07813 299.82693  L956.05469 300.03998  L957.03125 300.25998  L958.00781 300.49609  L958.98438 300.76050  L959.96094 301.07104  L960.93750 301.45627  L961.91406 301.96765  L962.89063 302.70795  L963.86719 303.92215  L964.84375 306.38004  L965.82031 314.39841  L966.79688 202.79349  L967.77344 288.20737  L968.75000 293.57947  L969.72656 295.54364  L970.70313 296.57202  L971.67969 297.21085  L972.65625 297.64996  L973.63281 297.97308  L974.60938 298.22235  L975.58594 298.42227  L976.56250 298.58682  L977.53906 298.72552  L978.51563 298.84467  L979.49219 298.94864  L980.46875 299.04074  L981.44531 299.12314  L982.42188 299.19757  L983.39844 299.26559  L984.37500 299.32809  L985.35156 299.38602  L986.32813 299.44012  L987.30469 299.49084  L988.28125 299.53879  L989.25781 299.58444  L990.23438 299.62781  L991.21094 299.66956  L992.18750 299.70950  L993.16406 299.74850  L994.14063 299.78638  L995.11719 299.82321  L996.09375 299.85953  L997.07031 299.89514  L998.04688 299.93030  L999.02344 299.96518 " /></g><text x="1000.00000" dx="10" y="149.61932">[-0.12720;0.37775]</text><text x="1000.00000" dx="10" y="300.00000">[-0.43454;0.43454]</text></svg>