<svg xmlns="http://www.w3.org/2000/svg" version="1.1"><g stroke-width="0.6"><path fill="none" stroke="#000000" d="M0 100.42744 L1000.00000 100.42744" /><path fill="none" stroke="#000000" d="M0 300.00000 L1000.00000 300.00000" /><path fill="none" stroke="#000000" d="M500.00000 0 L500.00000 400.00000" /><path fill="none" stroke="#000000" d="M0 100.42744  L0.00000 92.90628 L0.97656 81.57154 L1.95313 68.29655 L2.92969 55.17054 L3.90625 44.44573 L4.88281 38.21219 L5.85938 38.08765 L6.83594 44.96496 L7.81250 58.85331 L8.78906 78.83595 L9.76563 103.15213 L10.74219 129.39384 L11.71875 154.79282 L12.69531 176.56047 L13.67188 192.23643 L14.64844 199.99989 L15.62500 198.90259 L16.60156 188.99252 L17.57813 171.31171 L18.55469 147.76859 L19.53125 120.90113 L20.50781 93.56213 L21.48438 68.56781 L22.46094 48.35576 L23.43750 34.69682 L24.41406 28.49770 L25.39063 29.71953 L26.36719 37.42150 L27.34375 49.92179 L28.32031 65.05267 L29.29688 80.47427 L30.27344 94.00360 L31.25000 103.91367 L32.22656 109.16241 L33.20313 109.52048 L34.17969 105.58109 L35.15625 98.65219 L36.13281 90.54548 L37.10938 83.29401 L38.08594 78.83598 L39.06250 78.71140 L40.03906 83.81326 L41.01563 94.22831 L41.99219 109.19159 L42.96875 127.16167 L43.94531 146.00806 L44.92188 163.28549 L45.89844 176.56052 L46.87500 183.74376 L47.85156 183.38570 L48.82813 174.89302 L49.80469 158.63686 L50.78125 135.93666 L51.75781 108.92028 L52.73438 80.27737 L53.71094 52.93833 L54.68750 29.71950 L55.66406 12.98076 L56.64063 4.34121 L57.61719 4.48811 L58.59375 13.10537 L59.57031 28.92885 L60.54688 49.92188 L61.52344 73.54538 L62.50000 97.08845 L63.47656 118.01318 L64.45313 134.26927 L65.42969 144.53743 L66.40625 148.36876 L67.38281 146.20486 L68.35938 139.27591 L69.33594 129.39383 L70.31250 118.66895 L71.28906 109.19154 L72.26563 102.72096 L73.24219 100.42744 L74.21875 102.72098 L75.19531 109.19156 L76.17188 118.66895 L77.14844 129.39395 L78.12500 139.27599 L79.10156 146.20482 L80.07813 148.36876 L81.05469 144.53737 L82.03125 134.26929 L83.00781 118.01309 L83.98438 97.08836 L84.96094 73.54533 L85.93750 49.92181 L86.91406 28.92871 L87.89063 13.10528 L88.86719 4.48811 L89.84375 4.34124 L90.82031 12.98079 L91.79688 29.71964 L92.77344 52.93847 L93.75000 80.27748 L94.72656 108.92039 L95.70313 135.93671 L96.67969 158.63699 L97.65625 174.89302 L98.63281 183.38571 L99.60938 183.74377 L100.58594 176.56050 L101.56250 163.28539 L102.53906 146.00792 L103.51563 127.16164 L104.49219 109.19154 L105.46875 94.22825 L106.44531 83.81324 L107.42188 78.71139 L108.39844 78.83599 L109.37500 83.29401 L110.35156 90.54546 L111.32813 98.65231 L112.30469 105.58115 L113.28125 109.52051 L114.25781 109.16241 L115.23438 103.91364 L116.21094 94.00350 L117.18750 80.47417 L118.16406 65.05260 L119.14063 49.92176 L120.11719 37.42155 L121.09375 29.71949 L122.07031 28.49767 L123.04688 34.69689 L124.02344 48.35579 L125.00000 68.56785 L125.97656 93.56236 L126.95313 120.90128 L127.92969 147.76872 L128.90625 171.31174 L129.88281 188.99252 L130.85938 198.90263 L131.83594 199.99986 L132.81250 192.23637 L133.78906 176.56041 L134.76563 154.79282 L135.74219 129.39365 L136.71875 103.15193 L137.69531 78.83586 L138.67188 58.85323 L139.64844 44.96495 L140.62500 38.08767 L141.60156 38.21221 L142.57813 44.44579 L143.55469 55.17057 L144.53125 68.29658 L145.50781 81.57166 L146.48438 92.90635 L147.46094 100.66976 L148.43750 103.91367 L149.41406 102.49629 L150.39063 97.08831 L151.36719 89.06206 L152.34375 80.27740 L153.32031 72.79648 L154.29688 68.56778 L155.27344 69.12148 L156.25000 75.32063 L157.22656 87.20410 L158.20313 103.94291 L159.17969 123.91782 L160.15625 144.91072 L161.13281 164.38274 L162.10938 179.80431 L163.08594 188.99265 L164.06250 190.40999 L165.03906 183.38560 L166.01563 168.22676 L166.99219 146.20480 L167.96875 119.41767 L168.94531 90.54547 L169.92188 62.52839 L170.89844 38.21213 L171.87500 20.00500 L172.85156 9.58998 L173.82813 7.73206 L174.80469 14.20274 L175.78125 27.83168 L176.75781 46.67802 L177.73438 68.29666 L178.71094 90.06425 L179.68750 109.52058 L180.66406 124.67938 L181.64063 134.26932 L182.61719 137.87106 L183.59375 135.93665 L184.57031 129.68582 L185.54688 120.90099 L186.52344 111.64477 L187.50000 103.94278 L188.47656 99.47704 L189.45313 99.33018 L190.42969 103.81825 L191.40625 112.43543 L192.38281 123.91796 L193.35938 136.41824 L194.33594 147.76878 L195.31250 155.79498 L196.28906 158.63687 L197.26563 155.03491 L198.24219 144.53741 L199.21875 127.60300 L200.19531 105.58108 L201.17188 80.56960 L202.14844 55.17019 L203.12500 32.17250 L204.10156 14.20248 L205.07813 3.39077 L206.05469 1.09731 L207.03125 7.73207 L208.00781 22.69543 L208.98438 44.44581 L209.96094 70.68745 L210.93750 98.65228 L211.91406 125.43954 L212.89063 148.36894 L213.86719 165.30309 L214.84375 174.89308 L215.82031 176.71950 L216.79688 171.31163 L217.77344 160.04156 L218.75000 144.91071 L219.72656 128.25897 L220.70313 112.43548 L221.67969 99.47691 L222.65625 90.83746 L223.63281 87.20405 L224.60938 88.42596 L225.58594 93.56226 L226.56250 101.04321 L227.53906 108.92028 L228.51563 115.17107 L229.49219 118.01315 L230.46875 116.18654 L231.44531 109.16233 L232.42188 97.24734 L233.39844 81.57132 L234.37500 63.95517 L235.35156 46.67771 L236.32813 32.17269 L237.30469 22.69530 L238.28125 20.00501 L239.25781 25.10700 L240.23438 38.08773 L241.21094 58.07055 L242.18750 83.29444 L243.16406 111.31154 L244.14063 139.27617 L245.11719 164.28763 L246.09375 183.74390 L247.07031 195.65872 L248.04688 198.90259 L249.02344 193.33371 L250.00000 179.80438 L250.97656 160.04126 L251.95313 136.41768 L252.92969 111.64450 L253.90625 88.42574 L254.88281 69.12122 L255.85938 55.46238 L256.83594 48.35577 L257.81250 47.80223 L258.78906 52.93832 L259.76563 62.19472 L260.74219 73.54528 L261.71875 84.81564 L262.69531 94.00370 L263.67188 99.57249 L264.64844 100.66974 L265.62500 97.24744 L266.60156 90.06413 L267.57813 80.56958 L268.55469 70.68748 L269.53125 62.52840 L270.50781 58.07048 L271.48438 58.85330 L272.46094 65.73066 L273.43750 78.71164 L274.41406 96.91881 L275.39063 118.66918 L276.36719 141.66693 L277.34375 163.28560 L278.32031 180.90172 L279.29688 192.23643 L280.27344 195.65862 L281.25000 190.40981 L282.22656 176.71938 L283.20313 155.79449 L284.17969 129.68568 L285.15625 101.04286 L286.13281 72.79621 L287.10938 47.80200 L288.08594 28.49763 L289.06250 16.61420 L290.03906 12.98071 L291.01563 17.44673 L291.99219 28.92908 L292.96875 45.58083 L293.94531 65.05286 L294.92188 84.81560 L295.89844 102.49641 L296.87500 116.18672 L297.85156 124.67933 L298.82813 127.60326 L299.80469 125.43913 L300.78125 119.41756 L301.75781 111.31107 L302.73438 103.15182 L303.71094 96.91848 L304.68750 94.22834 L305.66406 96.08621 L306.64063 102.72102 L307.61719 113.53281 L308.59375 127.16172 L309.57031 141.66676 L310.54688 154.79303 L311.52344 164.28777 L312.50000 168.22691 L313.47656 165.30289 L314.45313 155.03493 L315.42969 137.87105 L316.40625 115.17075 L317.38281 89.06215 L318.35938 62.19464 L319.33594 37.42136 L320.31250 17.44631 L321.28906 4.48798 L322.26563 0.00001 L323.24219 4.48820 L324.21875 17.44673 L325.19531 37.42181 L326.17188 62.19491 L327.14844 89.06243 L328.12500 115.17102 L329.10156 137.87128 L330.07813 155.03510 L331.05469 165.30299 L332.03125 168.22696 L333.00781 164.28775 L333.98438 154.79295 L334.96094 141.66629 L335.93750 127.16126 L336.91406 113.53245 L337.89063 102.72079 L338.86719 96.08615 L339.84375 94.22845 L340.82031 96.91874 L341.79688 103.15218 L342.77344 111.31147 L343.75000 119.41794 L344.72656 125.43910 L345.70313 127.60320 L346.67969 124.67923 L347.65625 116.18644 L348.63281 102.49624 L349.60938 84.81541 L350.58594 65.05264 L351.56250 45.58068 L352.53906 28.92897 L353.51563 17.44676 L354.49219 12.98060 L355.46875 16.61430 L356.44531 28.49811 L357.42188 47.80250 L358.39844 72.79704 L359.37500 101.04374 L360.35156 129.68634 L361.32813 155.79521 L362.30469 176.71962 L363.28125 190.41000 L364.25781 195.65872 L365.23438 192.23633 L366.21094 180.90158 L367.18750 163.28539 L368.16406 141.66679 L369.14063 118.66895 L370.11719 96.91845 L371.09375 78.71146 L372.07031 65.73051 L373.04688 58.85302 L374.02344 58.07071 L375.00000 62.52875 L375.97656 70.68774 L376.95313 80.57000 L377.92969 90.06448 L378.90625 97.24759 L379.88281 100.66981 L380.85938 99.57240 L381.83594 94.00348 L382.81250 84.81526 L383.78906 73.54522 L384.76563 62.19481 L385.74219 52.93831 L386.71875 47.80225 L387.69531 48.35605 L388.67188 55.46253 L389.64844 69.12160 L390.62500 88.42581 L391.60156 111.64475 L392.57813 136.41803 L393.55469 160.04140 L394.53125 179.80486 L395.50781 193.33398 L396.48438 198.90269 L397.46094 195.65857 L398.43750 183.74341 L399.41406 164.28723 L400.39063 139.27553 L401.36719 111.31068 L402.34375 83.29382 L403.32031 58.07003 L404.29688 38.08735 L405.27344 25.10688 L406.25000 20.00496 L407.22656 22.69520 L408.20313 32.17278 L409.17969 46.67785 L410.15625 63.95532 L411.13281 81.57148 L412.10938 97.24749 L413.08594 109.16256 L414.06250 116.18655 L415.03906 118.01300 L416.01563 115.17095 L416.99219 108.91991 L417.96875 101.04281 L418.94531 93.56210 L419.92188 88.42573 L420.89844 87.20410 L421.87500 90.83765 L422.85156 99.47717 L423.82813 112.43565 L424.80469 128.25912 L425.78125 144.91084 L426.75781 160.04158 L427.73438 171.31178 L428.71094 176.71947 L429.68750 174.89284 L430.66406 165.30310 L431.64063 148.36871 L432.61719 125.43907 L433.59375 98.65163 L434.57031 70.68679 L435.54688 44.44508 L436.52344 22.69498 L437.50000 7.73182 L438.47656 1.09724 L439.45313 3.39096 L440.42969 14.20288 L441.40625 32.17312 L442.38281 55.17082 L443.35938 80.56986 L444.33594 105.58150 L445.31250 127.60322 L446.28906 144.53760 L447.26563 155.03522 L448.24219 158.63692 L449.21875 155.79498 L450.19531 147.76889 L451.17188 136.41817 L452.14844 123.91796 L453.12500 112.43506 L454.10156 103.81805 L455.07813 99.33010 L456.05469 99.47725 L457.03125 103.94306 L458.00781 111.64500 L458.98438 120.90157 L459.96094 129.68620 L460.93750 135.93674 L461.91406 137.87140 L462.89063 134.26921 L463.86719 124.67906 L464.84375 109.52039 L465.82031 90.06404 L466.79688 68.29638 L467.77344 46.67783 L468.75000 27.83153 L469.72656 14.20271 L470.70313 7.73206 L471.67969 9.59006 L472.65625 20.00544 L473.63281 38.21262 L474.60938 62.52902 L475.58594 90.54634 L476.56250 119.41834 L477.53906 146.20537 L478.51563 168.22734 L479.49219 183.38582 L480.46875 190.40997 L481.44531 188.99249 L482.42188 179.80420 L483.39844 164.38258 L484.37500 144.91048 L485.35156 123.91762 L486.32813 103.94260 L487.30469 87.20408 L488.28125 75.32050 L489.25781 69.12121 L490.23438 68.56780 L491.21094 72.79630 L492.18750 80.27782 L493.16406 89.06281 L494.14063 97.08878 L495.11719 102.49638 L496.09375 103.91375 L497.07031 100.66963 L498.04688 92.90607 L499.02344 81.57124 L500.00000 68.29630 L500.97656 55.17041 L501.95313 44.44551 L502.92969 38.21218 L503.90625 38.08786 L504.88281 44.96500 L505.85938 58.85352 L506.83594 78.83629 L507.81250 103.15220 L508.78906 129.39398 L509.76563 154.79298 L510.74219 176.56046 L511.71875 192.23682 L512.69531 200.00000 L513.67188 198.90247 L514.64844 188.99214 L515.62500 171.31133 L516.60156 147.76808 L517.57813 120.90054 L518.55469 93.56182 L519.53125 68.56747 L520.50781 48.35543 L521.48438 34.69684 L522.46094 28.49767 L523.43750 29.71947 L524.41406 37.42166 L525.39063 49.92187 L526.36719 65.05268 L527.34375 80.47429 L528.32031 94.00362 L529.29688 103.91376 L530.27344 109.16245 L531.25000 109.52064 L532.22656 105.58085 L533.20313 98.65165 L534.17969 90.54515 L535.15625 83.29385 L536.13281 78.83567 L537.10938 78.71140 L538.08594 83.81349 L539.06250 94.22846 L540.03906 109.19187 L541.01563 127.16202 L541.99219 146.00827 L542.96875 163.28568 L543.94531 176.56049 L544.92188 183.74377 L545.89844 183.38556 L546.87500 174.89270 L547.85156 158.63678 L548.82813 135.93649 L549.80469 108.92036 L550.78125 80.27737 L551.75781 52.93760 L552.73438 29.71911 L553.71094 12.98051 L554.68750 4.34111 L555.66406 4.48829 L556.64063 13.10565 L557.61719 28.92927 L558.59375 49.92218 L559.57031 73.54575 L560.54688 97.08889 L561.52344 118.01332 L562.50000 134.26949 L563.47656 144.53767 L564.45313 148.36873 L565.42969 146.20493 L566.40625 139.27612 L567.38281 129.39383 L568.35938 118.66911 L569.33594 109.19172 L570.31250 102.72101 L571.28906 100.42744 L572.26563 102.72112 L573.24219 109.19193 L574.21875 118.66937 L575.19531 129.39409 L576.17188 139.27631 L577.14844 146.20499 L578.12500 148.36899 L579.10156 144.53737 L580.07813 134.26898 L581.05469 118.01299 L582.03125 97.08813 L583.00781 73.54497 L583.98438 49.92161 L584.96094 28.92868 L585.93750 13.10527 L586.91406 4.48810 L587.89063 4.34127 L588.86719 12.98096 L589.84375 29.71951 L590.82031 52.93916 L591.79688 80.27834 L592.77344 108.92094 L593.75000 135.93736 L594.72656 158.63747 L595.70313 174.89317 L596.67969 183.38576 L597.65625 183.74373 L598.63281 176.56035 L599.60938 163.28513 L600.58594 146.00771 L601.56250 127.16142 L602.53906 109.19132 L603.51563 94.22801 L604.49219 83.81290 L605.46875 78.71157 L606.44531 78.83602 L607.42188 83.29395 L608.39844 90.54530 L609.37500 98.65179 L610.35156 105.58122 L611.32813 109.52091 L612.30469 109.16253 L613.28125 103.91350 L614.25781 94.00323 L615.23438 80.47384 L616.21094 65.05230 L617.18750 49.92131 L618.16406 37.42117 L619.14063 29.71940 L620.11719 28.49782 L621.09375 34.69724 L622.07031 48.35642 L623.04688 68.56788 L624.02344 93.56236 L625.00000 120.90146 L625.97656 147.76894 L626.95313 171.31203 L627.92969 188.99245 L628.90625 198.90257 L629.88281 199.99976 L630.85938 192.23602 L631.83594 176.55983 L632.81250 154.79196 L633.78906 129.39339 L634.76563 103.15166 L635.74219 78.83552 L636.71875 58.85290 L637.69531 44.96459 L638.67188 38.08731 L639.64844 38.21254 L640.62500 44.44599 L641.60156 55.17074 L642.57813 68.29668 L643.55469 81.57161 L644.53125 92.90636 L645.50781 100.66975 L646.48438 103.91365 L647.46094 102.49632 L648.43750 97.08864 L649.41406 89.06188 L650.39063 80.27724 L651.36719 72.79583 L652.34375 68.56745 L653.32031 69.12140 L654.29688 75.32085 L655.27344 87.20459 L656.25000 103.94301 L657.22656 123.91814 L658.20313 144.91113 L659.17969 164.38313 L660.15625 179.80457 L661.13281 188.99248 L662.10938 190.41006 L663.08594 183.38570 L664.06250 168.22667 L665.03906 146.20453 L666.01563 119.41738 L666.99219 90.54499 L667.96875 62.52848 L668.94531 38.21221 L669.92188 20.00493 L670.89844 9.58982 L671.87500 7.73182 L672.85156 14.20241 L673.82813 27.83136 L674.80469 46.67764 L675.78125 68.29636 L676.75781 90.06413 L677.73438 109.52059 L678.71094 124.67972 L679.68750 134.26900 L680.66406 137.87073 L681.64063 135.93608 L682.61719 129.68532 L683.59375 120.90060 L684.57031 111.64441 L685.54688 103.94218 L686.52344 99.47678 L687.50000 99.33019 L688.47656 103.81853 L689.45313 112.43587 L690.42969 123.91846 L691.40625 136.41872 L692.38281 147.76912 L693.35938 155.79507 L694.33594 158.63683 L695.31250 155.03453 L696.28906 144.53746 L697.26563 127.60289 L698.24219 105.58069 L699.21875 80.56901 L700.19531 55.17001 L701.17188 32.17229 L702.14844 14.20249 L703.12500 3.39075 L704.10156 1.09732 L705.07813 7.73219 L706.05469 22.69561 L707.03125 44.44617 L708.00781 70.68738 L708.98438 98.65220 L709.96094 125.43932 L710.93750 148.36902 L711.91406 165.30345 L712.89063 174.89355 L713.86719 176.71960 L714.84375 171.31195 L715.82031 160.04195 L716.79688 144.91112 L717.77344 128.25929 L718.75000 112.43459 L719.72656 99.47667 L720.70313 90.83742 L721.67969 87.20428 L722.65625 88.42626 L723.63281 93.56253 L724.60938 101.04411 L725.58594 108.92116 L726.56250 115.17162 L727.53906 118.01334 L728.51563 116.18649 L729.49219 109.16198 L730.46875 97.24718 L731.44531 81.57102 L732.42188 63.95477 L733.39844 46.67736 L734.37500 32.17244 L735.35156 22.69530 L736.32813 20.00478 L737.30469 25.10690 L738.28125 38.08795 L739.25781 58.07083 L740.23438 83.29473 L741.21094 111.31200 L742.18750 139.27609 L743.16406 164.28770 L744.14063 183.74394 L745.11719 195.65883 L746.09375 198.90268 L747.07031 193.33369 L748.04688 179.80440 L749.02344 160.04158 L750.00000 136.41798 L750.97656 111.64462 L751.95313 88.42558 L752.92969 69.12164 L753.90625 55.46250 L754.88281 48.35557 L755.85938 47.80173 L756.83594 52.93777 L757.81250 62.19555 L758.78906 73.54648 L759.76563 84.81631 L760.74219 94.00410 L761.71875 99.57264 L762.69531 100.66965 L763.67188 97.24722 L764.64844 90.06344 L765.62500 80.56874 L766.60156 70.68677 L767.57813 62.52795 L768.55469 58.07022 L769.53125 58.85361 L770.50781 65.73055 L771.48438 78.71169 L772.46094 96.91914 L773.43750 118.66971 L774.41406 141.66753 L775.39063 163.28610 L776.36719 180.90204 L777.34375 192.23662 L778.32031 195.65866 L779.29688 190.40965 L780.27344 176.71901 L781.25000 155.79474 L782.22656 129.68576 L783.20313 101.04276 L784.17969 72.79611 L785.15625 47.80172 L786.13281 28.49722 L787.10938 16.61428 L788.08594 12.98078 L789.06250 17.44646 L790.03906 28.92871 L791.01563 45.58047 L791.99219 65.05262 L792.96875 84.81526 L793.94531 102.49615 L794.92188 116.18671 L795.89844 124.67963 L796.87500 127.60370 L797.85156 125.43884 L798.82813 119.41669 L799.80469 111.31017 L800.78125 103.15135 L801.75781 96.91815 L802.73438 94.22821 L803.71094 96.08647 L804.68750 102.72128 L805.66406 113.53335 L806.64063 127.16237 L807.61719 141.66745 L808.59375 154.79326 L809.57031 164.28760 L810.54688 168.22723 L811.52344 165.30307 L812.50000 155.03458 L813.47656 137.87057 L814.45313 115.17017 L815.42969 89.06186 L816.40625 62.19432 L817.38281 37.42107 L818.35938 17.44618 L819.33594 4.48792 L820.31250 0.00001 L821.28906 4.48819 L822.26563 17.44670 L823.24219 37.42176 L824.21875 62.19513 L825.19531 89.06269 L826.17188 115.17165 L827.14844 137.87119 L828.12500 155.03499 L829.10156 165.30325 L830.07813 168.22717 L831.05469 164.28793 L832.03125 154.79332 L833.00781 141.66699 L833.98438 127.16190 L834.96094 113.53295 L835.93750 102.72101 L836.91406 96.08604 L837.89063 94.22835 L838.86719 96.91936 L839.84375 103.15298 L840.82031 111.31200 L841.79688 119.41843 L842.77344 125.43947 L843.75000 127.60299 L844.72656 124.67947 L845.70313 116.18638 L846.67969 102.49567 L847.65625 84.81467 L848.63281 65.05183 L849.60938 45.57988 L850.58594 28.92824 L851.56250 17.44619 L852.53906 12.98075 L853.51563 16.61450 L854.49219 28.49835 L855.46875 47.80241 L856.44531 72.79694 L857.42188 101.04365 L858.39844 129.68661 L859.37500 155.79547 L860.35156 176.72012 L861.32813 190.40994 L862.30469 195.65868 L863.28125 192.23637 L864.25781 180.90157 L865.23438 163.28531 L866.21094 141.66650 L867.18750 118.66900 L868.16406 96.91852 L869.14063 78.71121 L870.11719 65.73026 L871.09375 58.85276 L872.07031 58.06955 L873.04688 62.52819 L874.02344 70.68710 L875.00000 80.56908 L875.97656 90.06496 L876.95313 97.24789 L877.92969 100.66998 L878.90625 99.57225 L879.88281 94.00304 L880.85938 84.81474 L881.83594 73.54461 L882.81250 62.19422 L883.78906 52.93750 L884.76563 47.80162 L885.74219 48.35566 L886.71875 55.46280 L887.69531 69.12214 L888.67188 88.42690 L889.64844 111.64538 L890.62500 136.41875 L891.60156 160.04227 L892.57813 179.80493 L893.55469 193.33400 L894.53125 198.90257 L895.50781 195.65860 L896.48438 183.74345 L897.46094 164.28700 L898.43750 139.27527 L899.41406 111.31040 L900.39063 83.29314 L901.36719 58.07013 L902.34375 38.08746 L903.32031 25.10664 L904.29688 20.00476 L905.27344 22.69506 L906.25000 32.17285 L907.22656 46.67789 L908.20313 63.95534 L909.17969 81.57155 L910.15625 97.24761 L911.13281 109.16272 L912.10938 116.18660 L913.08594 118.01329 L914.06250 115.17143 L915.03906 108.91941 L916.01563 101.04229 L916.99219 93.56164 L917.96875 88.42509 L918.94531 87.20374 L919.92188 90.83759 L920.89844 99.47756 L921.87500 112.43625 L922.85156 128.25983 L923.82813 144.91165 L924.80469 160.04239 L925.78125 171.31226 L926.75781 176.71968 L927.73438 174.89275 L928.71094 165.30232 L929.68750 148.36841 L930.66406 125.43855 L931.64063 98.65134 L932.61719 70.68653 L933.59375 44.44485 L934.57031 22.69458 L935.54688 7.73185 L936.52344 1.09727 L937.50000 3.39097 L938.47656 14.20295 L939.45313 32.17326 L940.42969 55.17078 L941.40625 80.56980 L942.38281 105.58142 L943.35938 127.60349 L944.33594 144.53787 L945.31250 155.03548 L946.28906 158.63681 L947.26563 155.79488 L948.24219 147.76878 L949.21875 136.41830 L950.19531 123.91805 L951.17188 112.43569 L952.14844 103.81832 L953.12500 99.33013 L954.10156 99.47688 L955.07813 103.94344 L956.05469 111.64552 L957.03125 120.90179 L958.00781 129.68707 L958.98438 135.93748 L959.96094 137.87155 L960.93750 134.26910 L961.91406 124.67868 L962.89063 109.51949 L963.86719 90.06348 L964.84375 68.29566 L965.82031 46.67698 L966.79688 27.83083 L967.77344 14.20223 L968.75000 7.73205 L969.72656 9.59000 L970.70313 20.00537 L971.67969 38.21287 L972.65625 62.52929 L973.63281 90.54664 L974.60938 119.41825 L975.58594 146.20529 L976.56250 168.22725 L977.53906 183.38602 L978.51563 190.41013 L979.49219 188.99258 L980.46875 179.80417 L981.44531 164.38257 L982.42188 144.91048 L983.39844 123.91748 L984.37500 103.94244 L985.35156 87.20359 L986.32813 75.32059 L987.30469 69.12133 L988.28125 68.56755 L989.25781 72.79606 L990.23438 80.27682 L991.21094 89.06152 L992.18750 97.08828 L993.16406 102.49606 L994.14063 103.91378 L995.11719 100.66943 L996.09375 92.90565 L997.07031 81.57075 L998.04688 68.29549 L999.02344 55.16956" /><path fill="none" stroke="#000000" d="M0 300.00000  L0.00000 300.00000  L0.97656 300.00000  L1.95313 300.00000  L2.92969 300.00000  L3.90625 300.00000  L4.88281 300.00000  L5.85938 300.00000  L6.83594 300.00000  L7.81250 300.00000  L8.78906 300.00000  L9.76563 300.00000  L10.74219 300.00000  L11.71875 300.00000  L12.69531 300.00000  L13.67188 300.00000  L14.64844 300.00000  L15.62500 300.00000  L16.60156 300.00000  L17.57813 300.00000  L18.55469 300.00000  L19.53125 300.00000  L20.50781 300.00000  L21.48438 300.00000  L22.46094 300.00000  L23.43750 300.00000  L24.41406 300.00000  L25.39063 300.00000  L26.36719 300.00000  L27.34375 300.00000  L28.32031 300.00000  L29.29688 300.00000  L30.27344 300.00000  L31.25000 300.00000  L32.22656 300.00000  L33.20313 300.00000  L34.17969 300.00000  L35.15625 300.00000  L36.13281 300.00000  L37.10938 300.00000  L38.08594 300.00000  L39.06250 300.00000  L40.03906 300.00000  L41.01563 300.00000  L41.99219 300.00000  L42.96875 300.00000  L43.94531 300.00000  L44.92188 300.00000  L45.89844 300.00000  L46.87500 300.00000  L47.85156 300.00000  L48.82813 300.00000  L49.80469 300.00000  L50.78125 300.00000  L51.75781 300.00000  L52.73438 300.00000  L53.71094 300.00000  L54.68750 300.00000  L55.66406 300.00000  L56.64063 300.00000  L57.61719 300.00000  L58.59375 300.00000  L59.57031 300.00000  L60.54688 300.00000  L61.52344 300.00000  L62.50000 300.00000  L63.47656 300.00000  L64.45313 300.00000  L65.42969 300.00000  L66.40625 300.00000  L67.38281 300.00000  L68.35938 300.00000  L69.33594 300.00000  L70.31250 300.00000  L71.28906 300.00000  L72.26563 300.00000  L73.24219 300.00000  L74.21875 300.00000  L75.19531 300.00000  L76.17188 300.00000  L77.14844 300.00000  L78.12500 300.00000  L79.10156 300.00000  L80.07813 300.00000  L81.05469 300.00000  L82.03125 300.00000  L83.00781 300.00000  L83.98438 300.00000  L84.96094 300.00000  L85.93750 300.00000  L86.91406 300.00000  L87.89063 300.00000  L88.86719 300.00000  L89.84375 300.00000  L90.82031 300.00000  L91.79688 300.00000  L92.77344 300.00000  L93.75000 300.00000  L94.72656 300.00000  L95.70313 300.00000  L96.67969 300.00000  L97.65625 300.00000  L98.63281 300.00000  L99.60938 300.00000  L100.58594 300.00000  L101.56250 300.00000  L102.53906 300.00000  L103.51563 300.00000  L104.49219 300.00000  L105.46875 300.00000  L106.44531 300.00000  L107.42188 300.00000  L108.39844 300.00000  L109.37500 300.00000  L110.35156 300.00000  L111.32813 300.00000  L112.30469 300.00000  L113.28125 300.00000  L114.25781 300.00000  L115.23438 300.00000  L116.21094 300.00000  L117.18750 300.00000  L118.16406 300.00000  L119.14063 300.00000  L120.11719 300.00000  L121.09375 300.00000  L122.07031 300.00000  L123.04688 300.00000  L124.02344 300.00000  L125.00000 300.00000  L125.97656 300.00000  L126.95313 300.00000  L127.92969 300.00000  L128.90625 300.00000  L129.88281 300.00000  L130.85938 300.00000  L131.83594 300.00000  L132.81250 300.00000  L133.78906 300.00000  L134.76563 300.00000  L135.74219 300.00000  L136.71875 300.00000  L137.69531 300.00000  L138.67188 300.00000  L139.64844 300.00000  L140.62500 300.00000  L141.60156 300.00000  L142.57813 300.00000  L143.55469 300.00000  L144.53125 300.00000  L145.50781 300.00000  L146.48438 300.00000  L147.46094 300.00000  L148.43750 300.00000  L149.41406 300.00000  L150.39063 300.00000  L151.36719 300.00000  L152.34375 300.00000  L153.32031 300.00000  L154.29688 300.00000  L155.27344 300.00000  L156.25000 300.00000  L157.22656 300.00000  L158.20313 300.00000  L159.17969 300.00000  L160.15625 300.00000  L161.13281 300.00000  L162.10938 300.00000  L163.08594 300.00000  L164.06250 300.00000  L165.03906 300.00000  L166.01563 300.00000  L166.99219 300.00000  L167.96875 300.00000  L168.94531 300.00000  L169.92188 300.00000  L170.89844 300.00000  L171.87500 300.00000  L172.85156 300.00000  L173.82813 300.00000  L174.80469 300.00000  L175.78125 300.00000  L176.75781 300.00000  L177.73438 300.00000  L178.71094 300.00000  L179.68750 300.00000  L180.66406 300.00000  L181.64063 300.00000  L182.61719 300.00000  L183.59375 300.00000  L184.57031 300.00000  L185.54688 300.00000  L186.52344 300.00000  L187.50000 300.00000  L188.47656 300.00000  L189.45313 300.00000  L190.42969 300.00000  L191.40625 300.00000  L192.38281 300.00000  L193.35938 300.00000  L194.33594 300.00000  L195.31250 300.00000  L196.28906 300.00000  L197.26563 300.00000  L198.24219 300.00000  L199.21875 300.00000  L200.19531 300.00000  L201.17188 300.00000  L202.14844 300.00000  L203.12500 300.00000  L204.10156 300.00000  L205.07813 300.00000  L206.05469 300.00000  L207.03125 300.00000  L208.00781 300.00000  L208.98438 300.00000  L209.96094 300.00000  L210.93750 300.00000  L211.91406 300.00000  L212.89063 300.00000  L213.86719 300.00000  L214.84375 300.00000  L215.82031 300.00000  L216.79688 300.00000  L217.77344 300.00000  L218.75000 300.00000  L219.72656 300.00000  L220.70313 300.00000  L221.67969 300.00000  L222.65625 300.00000  L223.63281 300.00000  L224.60938 300.00000  L225.58594 300.00000  L226.56250 300.00000  L227.53906 300.00000  L228.51563 300.00000  L229.49219 300.00000  L230.46875 300.00000  L231.44531 300.00000  L232.42188 300.00000  L233.39844 300.00000  L234.37500 300.00000  L235.35156 300.00000  L236.32813 300.00000  L237.30469 300.00000  L238.28125 300.00000  L239.25781 300.00000  L240.23438 300.00000  L241.21094 300.00000  L242.18750 300.00000  L243.16406 300.00000  L244.14063 300.00000  L245.11719 300.00000  L246.09375 300.00000  L247.07031 300.00000  L248.04688 300.00000  L249.02344 300.00000  L250.00000 300.00000  L250.97656 300.00000  L251.95313 300.00000  L252.92969 300.00000  L253.90625 300.00000  L254.88281 300.00000  L255.85938 300.00000  L256.83594 300.00000  L257.81250 300.00000  L258.78906 300.00000  L259.76563 300.00000  L260.74219 300.00000  L261.71875 300.00000  L262.69531 300.00000  L263.67188 300.00000  L264.64844 300.00000  L265.62500 300.00000  L266.60156 300.00000  L267.57813 300.00000  L268.55469 300.00000  L269.53125 300.00000  L270.50781 300.00000  L271.48438 300.00000  L272.46094 300.00000  L273.43750 300.00000  L274.41406 300.00000  L275.39063 300.00000  L276.36719 300.00000  L277.34375 300.00000  L278.32031 300.00000  L279.29688 300.00000  L280.27344 300.00000  L281.25000 300.00000  L282.22656 300.00000  L283.20313 300.00000  L284.17969 300.00000  L285.15625 300.00000  L286.13281 300.00000  L287.10938 300.00000  L288.08594 300.00000  L289.06250 300.00000  L290.03906 300.00000  L291.01563 300.00000  L291.99219 300.00000  L292.96875 300.00000  L293.94531 300.00000  L294.92188 300.00000  L295.89844 300.00000  L296.87500 300.00000  L297.85156 300.00000  L298.82813 300.00000  L299.80469 300.00000  L300.78125 300.00000  L301.75781 300.00000  L302.73438 300.00000  L303.71094 300.00000  L304.68750 300.00000  L305.66406 300.00000  L306.64063 300.00000  L307.61719 300.00000  L308.59375 300.00000  L309.57031 300.00000  L310.54688 300.00000  L311.52344 300.00000  L312.50000 300.00000  L313.47656 300.00000  L314.45313 300.00000  L315.42969 300.00000  L316.40625 300.00000  L317.38281 300.00000  L318.35938 300.00000  L319.33594 300.00000  L320.31250 300.00000  L321.28906 300.00000  L322.26563 300.00000  L323.24219 300.00000  L324.21875 300.00000  L325.19531 300.00000  L326.17188 300.00000  L327.14844 300.00000  L328.12500 300.00000  L329.10156 300.00000  L330.07813 300.00000  L331.05469 300.00000  L332.03125 300.00000  L333.00781 300.00000  L333.98438 300.00000  L334.96094 300.00000  L335.93750 300.00000  L336.91406 300.00000  L337.89063 300.00000  L338.86719 300.00000  L339.84375 300.00000  L340.82031 300.00000  L341.79688 300.00000  L342.77344 300.00000  L343.75000 300.00000  L344.72656 300.00000  L345.70313 300.00000  L346.67969 300.00000  L347.65625 300.00000  L348.63281 300.00000  L349.60938 300.00000  L350.58594 300.00000  L351.56250 300.00000  L352.53906 300.00000  L353.51563 300.00000  L354.49219 300.00000  L355.46875 300.00000  L356.44531 300.00000  L357.42188 300.00000  L358.39844 300.00000  L359.37500 300.00000  L360.35156 300.00000  L361.32813 300.00000  L362.30469 300.00000  L363.28125 300.00000  L364.25781 300.00000  L365.23438 300.00000  L366.21094 300.00000  L367.18750 300.00000  L368.16406 300.00000  L369.14063 300.00000  L370.11719 300.00000  L371.09375 300.00000  L372.07031 300.00000  L373.04688 300.00000  L374.02344 300.00000  L375.00000 300.00000  L375.97656 300.00000  L376.95313 300.00000  L377.92969 300.00000  L378.90625 300.00000  L379.88281 300.00000  L380.85938 300.00000  L381.83594 300.00000  L382.81250 300.00000  L383.78906 300.00000  L384.76563 300.00000  L385.74219 300.00000  L386.71875 300.00000  L387.69531 300.00000  L388.67188 300.00000  L389.64844 300.00000  L390.62500 300.00000  L391.60156 300.00000  L392.57813 300.00000  L393.55469 300.00000  L394.53125 300.00000  L395.50781 300.00000  L396.48438 300.00000  L397.46094 300.00000  L398.43750 300.00000  L399.41406 300.00000  L400.39063 300.00000  L401.36719 300.00000  L402.34375 300.00000  L403.32031 300.00000  L404.29688 300.00000  L405.27344 300.00000  L406.25000 300.00000  L407.22656 300.00000  L408.20313 300.00000  L409.17969 300.00000  L410.15625 300.00000  L411.13281 300.00000  L412.10938 300.00000  L413.08594 300.00000  L414.06250 300.00000  L415.03906 300.00000  L416.01563 300.00000  L416.99219 300.00000  L417.96875 300.00000  L418.94531 300.00000  L419.92188 300.00000  L420.89844 300.00000  L421.87500 300.00000  L422.85156 300.00000  L423.82813 300.00000  L424.80469 300.00000  L425.78125 300.00000  L426.75781 300.00000  L427.73438 300.00000  L428.71094 300.00000  L429.68750 300.00000  L430.66406 300.00000  L431.64063 300.00000  L432.61719 300.00000  L433.59375 300.00000  L434.57031 300.00000  L435.54688 300.00000  L436.52344 300.00000  L437.50000 300.00000  L438.47656 300.00000  L439.45313 300.00000  L440.42969 300.00000  L441.40625 300.00000  L442.38281 300.00000  L443.35938 300.00000  L444.33594 300.00000  L445.31250 300.00000  L446.28906 300.00000  L447.26563 300.00000  L448.24219 300.00000  L449.21875 300.00000  L450.19531 300.00000  L451.17188 300.00000  L452.14844 300.00000  L453.12500 300.00000  L454.10156 300.00000  L455.07813 300.00000  L456.05469 300.00000  L457.03125 300.00000  L458.00781 300.00000  L458.98438 300.00000  L459.96094 300.00000  L460.93750 300.00000  L461.91406 300.00000  L462.89063 300.00000  L463.86719 300.00000  L464.84375 300.00000  L465.82031 300.00000  L466.79688 300.00000  L467.77344 300.00000  L468.75000 300.00000  L469.72656 300.00000  L470.70313 300.00000  L471.67969 300.00000  L472.65625 300.00000  L473.63281 300.00000  L474.60938 300.00000  L475.58594 300.00000  L476.56250 300.00000  L477.53906 300.00000  L478.51563 300.00000  L479.49219 300.00000  L480.46875 300.00000  L481.44531 300.00000  L482.42188 300.00000  L483.39844 300.00000  L484.37500 300.00000  L485.35156 300.00000  L486.32813 300.00000  L487.30469 300.00000  L488.28125 300.00000  L489.25781 300.00000  L490.23438 300.00000  L491.21094 300.00000  L492.18750 300.00000  L493.16406 300.00000  L494.14063 300.00000  L495.11719 300.00000  L496.09375 300.00000  L497.07031 300.00000  L498.04688 300.00000  L499.02344 300.00000  L500.00000 300.00000  L500.97656 300.00000  L501.95313 300.00000  L502.92969 300.00000  L503.90625 300.00000  L504.88281 300.00000  L505.85938 300.00000  L506.83594 300.00000  L507.81250 300.00000  L508.78906 300.00000  L509.76563 300.00000  L510.74219 300.00000  L511.71875 300.00000  L512.69531 300.00000  L513.67188 300.00000  L514.64844 300.00000  L515.62500 300.00000  L516.60156 300.00000  L517.57813 300.00000  L518.55469 300.00000  L519.53125 300.00000  L520.50781 300.00000  L521.48438 300.00000  L522.46094 300.00000  L523.43750 300.00000  L524.41406 300.00000  L525.39063 300.00000  L526.36719 300.00000  L527.34375 300.00000  L528.32031 300.00000  L529.29688 300.00000  L530.27344 300.00000  L531.25000 300.00000  L532.22656 300.00000  L533.20313 300.00000  L534.17969 300.00000  L535.15625 300.00000  L536.13281 300.00000  L537.10938 300.00000  L538.08594 300.00000  L539.06250 300.00000  L540.03906 300.00000  L541.01563 300.00000  L541.99219 300.00000  L542.96875 300.00000  L543.94531 300.00000  L544.92188 300.00000  L545.89844 300.00000  L546.87500 300.00000  L547.85156 300.00000  L548.82813 300.00000  L549.80469 300.00000  L550.78125 300.00000  L551.75781 300.00000  L552.73438 300.00000  L553.71094 300.00000  L554.68750 300.00000  L555.66406 300.00000  L556.64063 300.00000  L557.61719 300.00000  L558.59375 300.00000  L559.57031 300.00000  L560.54688 300.00000  L561.52344 300.00000  L562.50000 300.00000  L563.47656 300.00000  L564.45313 300.00000  L565.42969 300.00000  L566.40625 300.00000  L567.38281 300.00000  L568.35938 300.00000  L569.33594 300.00000  L570.31250 300.00000  L571.28906 300.00000  L572.26563 300.00000  L573.24219 300.00000  L574.21875 300.00000  L575.19531 300.00000  L576.17188 300.00000  L577.14844 300.00000  L578.12500 300.00000  L579.10156 300.00000  L580.07813 300.00000  L581.05469 300.00000  L582.03125 300.00000  L583.00781 300.00000  L583.98438 300.00000  L584.96094 300.00000  L585.93750 300.00000  L586.91406 300.00000  L587.89063 300.00000  L588.86719 300.00000  L589.84375 300.00000  L590.82031 300.00000  L591.79688 300.00000  L592.77344 300.00000  L593.75000 300.00000  L594.72656 300.00000  L595.70313 300.00000  L596.67969 300.00000  L597.65625 300.00000  L598.63281 300.00000  L599.60938 300.00000  L600.58594 300.00000  L601.56250 300.00000  L602.53906 300.00000  L603.51563 300.00000  L604.49219 300.00000  L605.46875 300.00000  L606.44531 300.00000  L607.42188 300.00000  L608.39844 300.00000  L609.37500 300.00000  L610.35156 300.00000  L611.32813 300.00000  L612.30469 300.00000  L613.28125 300.00000  L614.25781 300.00000  L615.23438 300.00000  L616.21094 300.00000  L617.18750 300.00000  L618.16406 300.00000  L619.14063 300.00000  L620.11719 300.00000  L621.09375 300.00000  L622.07031 300.00000  L623.04688 300.00000  L624.02344 300.00000  L625.00000 300.00000  L625.97656 300.00000  L626.95313 300.00000  L627.92969 300.00000  L628.90625 300.00000  L629.88281 300.00000  L630.85938 300.00000  L631.83594 300.00000  L632.81250 300.00000  L633.78906 300.00000  L634.76563 300.00000  L635.74219 300.00000  L636.71875 300.00000  L637.69531 300.00000  L638.67188 300.00000  L639.64844 300.00000  L640.62500 300.00000  L641.60156 300.00000  L642.57813 300.00000  L643.55469 300.00000  L644.53125 300.00000  L645.50781 300.00000  L646.48438 300.00000  L647.46094 300.00000  L648.43750 300.00000  L649.41406 300.00000  L650.39063 300.00000  L651.36719 300.00000  L652.34375 300.00000  L653.32031 300.00000  L654.29688 300.00000  L655.27344 300.00000  L656.25000 300.00000  L657.22656 300.00000  L658.20313 300.00000  L659.17969 300.00000  L660.15625 300.00000  L661.13281 300.00000  L662.10938 300.00000  L663.08594 300.00000  L664.06250 300.00000  L665.03906 300.00000  L666.01563 300.00000  L666.99219 300.00000  L667.96875 300.00000  L668.94531 300.00000  L669.92188 300.00000  L670.89844 300.00000  L671.87500 300.00000  L672.85156 300.00000  L673.82813 300.00000  L674.80469 300.00000  L675.78125 300.00000  L676.75781 300.00000  L677.73438 300.00000  L678.71094 300.00000  L679.68750 300.00000  L680.66406 300.00000  L681.64063 300.00000  L682.61719 300.00000  L683.59375 300.00000  L684.57031 300.00000  L685.54688 300.00000  L686.52344 300.00000  L687.50000 300.00000  L688.47656 300.00000  L689.45313 300.00000  L690.42969 300.00000  L691.40625 300.00000  L692.38281 300.00000  L693.35938 300.00000  L694.33594 300.00000  L695.31250 300.00000  L696.28906 300.00000  L697.26563 300.00000  L698.24219 300.00000  L699.21875 300.00000  L700.19531 300.00000  L701.17188 300.00000  L702.14844 300.00000  L703.12500 300.00000  L704.10156 300.00000  L705.07813 300.00000  L706.05469 300.00000  L707.03125 300.00000  L708.00781 300.00000  L708.98438 300.00000  L709.96094 300.00000  L710.93750 300.00000  L711.91406 300.00000  L712.89063 300.00000  L713.86719 300.00000  L714.84375 300.00000  L715.82031 300.00000  L716.79688 300.00000  L717.77344 300.00000  L718.75000 300.00000  L719.72656 300.00000  L720.70313 300.00000  L721.67969 300.00000  L722.65625 300.00000  L723.63281 300.00000  L724.60938 300.00000  L725.58594 300.00000  L726.56250 300.00000  L727.53906 300.00000  L728.51563 300.00000  L729.49219 300.00000  L730.46875 300.00000  L731.44531 300.00000  L732.42188 300.00000  L733.39844 300.00000  L734.37500 300.00000  L735.35156 300.00000  L736.32813 300.00000  L737.30469 300.00000  L738.28125 300.00000  L739.25781 300.00000  L740.23438 300.00000  L741.21094 300.00000  L742.18750 300.00000  L743.16406 300.00000  L744.14063 300.00000  L745.11719 300.00000  L746.09375 300.00000  L747.07031 300.00000  L748.04688 300.00000  L749.02344 300.00000  L750.00000 300.00000  L750.97656 300.00000  L751.95313 300.00000  L752.92969 300.00000  L753.90625 300.00000  L754.88281 300.00000  L755.85938 300.00000  L756.83594 300.00000  L757.81250 300.00000  L758.78906 300.00000  L759.76563 300.00000  L760.74219 300.00000  L761.71875 300.00000  L762.69531 300.00000  L763.67188 300.00000  L764.64844 300.00000  L765.62500 300.00000  L766.60156 300.00000  L767.57813 300.00000  L768.55469 300.00000  L769.53125 300.00000  L770.50781 300.00000  L771.48438 300.00000  L772.46094 300.00000  L773.43750 300.00000  L774.41406 300.00000  L775.39063 300.00000  L776.36719 300.00000  L777.34375 300.00000  L778.32031 300.00000  L779.29688 300.00000  L780.27344 300.00000  L781.25000 300.00000  L782.22656 300.00000  L783.20313 300.00000  L784.17969 300.00000  L785.15625 300.00000  L786.13281 300.00000  L787.10938 300.00000  L788.08594 300.00000  L789.06250 300.00000  L790.03906 300.00000  L791.01563 300.00000  L791.99219 300.00000  L792.96875 300.00000  L793.94531 300.00000  L794.92188 300.00000  L795.89844 300.00000  L796.87500 300.00000  L797.85156 300.00000  L798.82813 300.00000  L799.80469 300.00000  L800.78125 300.00000  L801.75781 300.00000  L802.73438 300.00000  L803.71094 300.00000  L804.68750 300.00000  L805.66406 300.00000  L806.64063 300.00000  L807.61719 300.00000  L808.59375 300.00000  L809.57031 300.00000  L810.54688 300.00000  L811.52344 300.00000  L812.50000 300.00000  L813.47656 300.00000  L814.45313 300.00000  L815.42969 300.00000  L816.40625 300.00000  L817.38281 300.00000  L818.35938 300.00000  L819.33594 300.00000  L820.31250 300.00000  L821.28906 300.00000  L822.26563 300.00000  L823.24219 300.00000  L824.21875 300.00000  L825.19531 300.00000  L826.17188 300.00000  L827.14844 300.00000  L828.12500 300.00000  L829.10156 300.00000  L830.07813 300.00000  L831.05469 300.00000  L832.03125 300.00000  L833.00781 300.00000  L833.98438 300.00000  L834.96094 300.00000  L835.93750 300.00000  L836.91406 300.00000  L837.89063 300.00000  L838.86719 300.00000  L839.84375 300.00000  L840.82031 300.00000  L841.79688 300.00000  L842.77344 300.00000  L843.75000 300.00000  L844.72656 300.00000  L845.70313 300.00000  L846.67969 300.00000  L847.65625 300.00000  L848.63281 300.00000  L849.60938 300.00000  L850.58594 300.00000  L851.56250 300.00000  L852.53906 300.00000  L853.51563 300.00000  L854.49219 300.00000  L855.46875 300.00000  L856.44531 300.00000  L857.42188 300.00000  L858.39844 300.00000  L859.37500 300.00000  L860.35156 300.00000  L861.32813 300.00000  L862.30469 300.00000  L863.28125 300.00000  L864.25781 300.00000  L865.23438 300.00000  L866.21094 300.00000  L867.18750 300.00000  L868.16406 300.00000  L869.14063 300.00000  L870.11719 300.00000  L871.09375 300.00000  L872.07031 300.00000  L873.04688 300.00000  L874.02344 300.00000  L875.00000 300.00000  L875.97656 300.00000  L876.95313 300.00000  L877.92969 300.00000  L878.90625 300.00000  L879.88281 300.00000  L880.85938 300.00000  L881.83594 300.00000  L882.81250 300.00000  L883.78906 300.00000  L884.76563 300.00000  L885.74219 300.00000  L886.71875 300.00000  L887.69531 300.00000  L888.67188 300.00000  L889.64844 300.00000  L890.62500 300.00000  L891.60156 300.00000  L892.57813 300.00000  L893.55469 300.00000  L894.53125 300.00000  L895.50781 300.00000  L896.48438 300.00000  L897.46094 300.00000  L898.43750 300.00000  L899.41406 300.00000  L900.39063 300.00000  L901.36719 300.00000  L902.34375 300.00000  L903.32031 300.00000  L904.29688 300.00000  L905.27344 300.00000  L906.25000 300.00000  L907.22656 300.00000  L908.20313 300.00000  L909.17969 300.00000  L910.15625 300.00000  L911.13281 300.00000  L912.10938 300.00000  L913.08594 300.00000  L914.06250 300.00000  L915.03906 300.00000  L916.01563 300.00000  L916.99219 300.00000  L917.96875 300.00000  L918.94531 300.00000  L919.92188 300.00000  L920.89844 300.00000  L921.87500 300.00000  L922.85156 300.00000  L923.82813 300.00000  L924.80469 300.00000  L925.78125 300.00000  L926.75781 300.00000  L927.73438 300.00000  L928.71094 300.00000  L929.68750 300.00000  L930.66406 300.00000  L931.64063 300.00000  L932.61719 300.00000  L933.59375 300.00000  L934.57031 300.00000  L935.54688 300.00000  L936.52344 300.00000  L937.50000 300.00000  L938.47656 300.00000  L939.45313 300.00000  L940.42969 300.00000  L941.40625 300.00000  L942.38281 300.00000  L943.35938 300.00000  L944.33594 300.00000  L945.31250 300.00000  L946.28906 300.00000  L947.26563 300.00000  L948.24219 300.00000  L949.21875 300.00000  L950.19531 300.00000  L951.17188 300.00000  L952.14844 300.00000  L953.12500 300.00000  L954.10156 300.00000  L955.07813 300.00000  L956.05469 300.00000  L957.03125 300.00000  L958.00781 300.00000  L958.98438 300.00000  L959.96094 300.00000  L960.93750 300.00000  L961.91406 300.00000  L962.89063 300.00000  L963.86719 300.00000  L964.84375 300.00000  L965.82031 300.00000  L966.79688 300.00000  L967.77344 300.00000  L968.75000 300.00000  L969.72656 300.00000  L970.70313 300.00000  L971.67969 300.00000  L972.65625 300.00000  L973.63281 300.00000  L974.60938 300.00000  L975.58594 300.00000  L976.56250 300.00000  L977.53906 300.00000  L978.51563 300.00000  L979.49219 300.00000  L980.46875 300.00000  L981.44531 300.00000  L982.42188 300.00000  L983.39844 300.00000  L984.37500 300.00000  L985.35156 300.00000  L986.32813 300.00000  L987.30469 300.00000  L988.28125 300.00000  L989.25781 300.00000  L990.23438 300.00000  L991.21094 300.00000  L992.18750 300.00000  L993.16406 300.00000  L994.14063 300.00000  L995.11719 300.00000  L996.09375 300.00000  L997.07031 300.00000  L998.04688 300.00000  L999.02344 300.00000 " /></g><text x="1000.00000" dx="10" y="100.42744">[-1.98298;2.00000]</text><text x="1000.00000" dx="10" y="300.00000">[-0.00000;0.00000]</text></svg>