<svg xmlns="http://www.w3.org/2000/svg" version="1.1"><g stroke-width="0.6"><path fill="none" stroke="#000000" d="M0 199.99995 L1000.00000 199.99995" /><path fill="none" stroke="#000000" d="M0 300.07953 L1000.00000 300.07953" /><path fill="none" stroke="#000000" d="M500.00000 0 L500.00000 400.00000" /><path fill="none" stroke="#550000" d="M0 350.11926 L1000.00000 350.11926" /><path fill="none" stroke="#550000" d="M0 300.07953 L1000.00000 300.07953" /><path fill="none" stroke="#550000" d="M0 250.03976 L1000.00000 250.03976" /><path fill="none" stroke="#000000" d="M0 199.99995  L0.00000 199.85506 L0.97656 199.84285 L1.95313 199.81058 L2.92969 199.76611 L3.90625 199.71432 L4.88281 199.65790 L5.85938 199.59831 L6.83594 199.53546 L7.81250 199.46962 L8.78906 199.40135 L9.76563 199.32924 L10.74219 199.25374 L11.71875 199.17368 L12.69531 199.08899 L13.67188 198.99884 L14.64844 198.90208 L15.62500 198.79787 L16.60156 198.68468 L17.57813 198.56071 L18.55469 198.42416 L19.53125 198.27197 L20.50781 198.10060 L21.48438 197.90570 L22.46094 197.68065 L23.43750 197.41653 L24.41406 197.10054 L25.39063 196.71329 L26.36719 196.22585 L27.34375 195.58844 L28.32031 194.71387 L29.29688 193.43010 L30.27344 191.34555 L31.25000 187.33324 L32.22656 176.28973 L33.20313 -0.00000 L34.17969 169.52292 L35.15625 186.00793 L36.13281 191.00256 L37.10938 193.41669 L38.08594 194.83588 L39.06250 195.76196 L40.03906 196.40198 L41.01563 196.85497 L41.99219 197.17224 L42.96875 197.38066 L43.94531 197.49481 L44.92188 197.52245 L45.89844 197.46693 L46.87500 197.32933 L47.85156 197.10762 L48.82813 196.79491 L49.80469 196.37758 L50.78125 195.83040 L51.75781 195.11084 L52.73438 194.14450 L53.71094 192.79802 L54.68750 190.80872 L55.66406 187.58574 L56.64063 181.48010 L57.61719 165.49384 L58.59375 13.70062 L59.57031 141.11697 L60.54688 173.82007 L61.52344 182.87355 L62.50000 187.12283 L63.47656 189.59311 L64.45313 191.21001 L65.42969 192.35208 L66.40625 193.20270 L67.38281 193.86104 L68.35938 194.38640 L69.33594 194.81593 L70.31250 195.17374 L71.28906 195.47668 L72.26563 195.73651 L73.24219 195.96211 L74.21875 196.15993 L75.19531 196.33493 L76.17188 196.49077 L77.14844 196.63036 L78.12500 196.75632 L79.10156 196.87071 L80.07813 196.97490 L81.05469 197.07022 L82.03125 197.15788 L83.00781 197.23859 L83.98438 197.31300 L84.96094 197.38223 L85.93750 197.44698 L86.91406 197.50699 L87.89063 197.56274 L88.86719 197.61526 L89.84375 197.66446 L90.82031 197.71080 L91.79688 197.75446 L92.77344 197.79556 L93.75000 197.83421 L94.72656 197.87083 L95.70313 197.90543 L96.67969 197.93829 L97.65625 197.96947 L98.63281 197.99895 L99.60938 198.02684 L100.58594 198.05357 L101.56250 198.07884 L102.53906 198.10287 L103.51563 198.12576 L104.49219 198.14749 L105.46875 198.16826 L106.44531 198.18819 L107.42188 198.20677 L108.39844 198.22464 L109.37500 198.24147 L110.35156 198.25797 L111.32813 198.27338 L112.30469 198.28801 L113.28125 198.30203 L114.25781 198.31529 L115.23438 198.32791 L116.21094 198.33987 L117.18750 198.35121 L118.16406 198.36188 L119.14063 198.37195 L120.11719 198.38152 L121.09375 198.39040 L122.07031 198.39886 L123.04688 198.40680 L124.02344 198.41415 L125.00000 198.42104 L125.97656 198.42732 L126.95313 198.43306 L127.92969 198.43849 L128.90625 198.44336 L129.88281 198.44772 L130.85938 198.45157 L131.83594 198.45502 L132.81250 198.45778 L133.78906 198.46017 L134.76563 198.46219 L135.74219 198.46359 L136.71875 198.46449 L137.69531 198.46507 L138.67188 198.46497 L139.64844 198.46455 L140.62500 198.46312 L141.60156 198.46156 L142.57813 198.45941 L143.55469 198.45674 L144.53125 198.45351 L145.50781 198.44954 L146.48438 198.44510 L147.46094 198.43996 L148.43750 198.43430 L149.41406 198.42784 L150.39063 198.42062 L151.36719 198.41275 L152.34375 198.40414 L153.32031 198.39474 L154.29688 198.38464 L155.27344 198.37352 L156.25000 198.36137 L157.22656 198.34840 L158.20313 198.33430 L159.17969 198.31944 L160.15625 198.30307 L161.13281 198.28546 L162.10938 198.26666 L163.08594 198.24654 L164.06250 198.22478 L165.03906 198.20120 L166.01563 198.17601 L166.99219 198.14899 L167.96875 198.11992 L168.94531 198.08904 L169.92188 198.05443 L170.89844 198.01732 L171.87500 197.97737 L172.85156 197.93446 L173.82813 197.88812 L174.80469 197.83772 L175.78125 197.78252 L176.75781 197.72203 L177.73438 197.65584 L178.71094 197.58316 L179.68750 197.50304 L180.66406 197.41412 L181.64063 197.31517 L182.61719 197.20456 L183.59375 197.08035 L184.57031 196.93968 L185.54688 196.77936 L186.52344 196.59515 L187.50000 196.38139 L188.47656 196.13066 L189.45313 195.83264 L190.42969 195.47304 L191.40625 195.03078 L192.38281 194.47386 L193.35938 193.75208 L194.33594 192.78003 L195.31250 191.40128 L196.28906 189.29471 L197.26563 185.68085 L198.24219 178.04752 L199.21875 151.32169 L200.19531 8.10231 L201.17188 168.48221 L202.14844 183.05856 L203.12500 188.52257 L204.10156 191.38297 L205.07813 193.14186 L206.05469 194.33257 L207.03125 195.19151 L208.00781 195.84016 L208.98438 196.34703 L209.96094 196.75410 L210.93750 197.08775 L211.91406 197.36636 L212.89063 197.60222 L213.86719 197.80452 L214.84375 197.97974 L215.82031 198.13300 L216.79688 198.26816 L217.77344 198.38805 L218.75000 198.49525 L219.72656 198.59155 L220.70313 198.67862 L221.67969 198.75748 L222.65625 198.82919 L223.63281 198.89497 L224.60938 198.95520 L225.58594 199.01068 L226.56250 199.06195 L227.53906 199.10941 L228.51563 199.15338 L229.49219 199.19424 L230.46875 199.23225 L231.44531 199.26837 L232.42188 199.30125 L233.39844 199.33250 L234.37500 199.36197 L235.35156 199.38950 L236.32813 199.41545 L237.30469 199.43988 L238.28125 199.46301 L239.25781 199.48488 L240.23438 199.50545 L241.21094 199.52510 L242.18750 199.54355 L243.16406 199.56125 L244.14063 199.57800 L245.11719 199.59390 L246.09375 199.60909 L247.07031 199.62338 L248.04688 199.63715 L249.02344 199.65021 L250.00000 199.66267 L250.97656 199.67464 L251.95313 199.68607 L252.92969 199.69695 L253.90625 199.70720 L254.88281 199.71722 L255.85938 199.72656 L256.83594 199.73560 L257.81250 199.74437 L258.78906 199.75269 L259.76563 199.76065 L260.74219 199.76822 L261.71875 199.77548 L262.69531 199.78275 L263.67188 199.78926 L264.64844 199.79553 L265.62500 199.80170 L266.60156 199.80750 L267.57813 199.81320 L268.55469 199.81859 L269.53125 199.82372 L270.50781 199.82861 L271.48438 199.83324 L272.46094 199.83778 L273.43750 199.84195 L274.41406 199.84612 L275.39063 199.84998 L276.36719 199.85367 L277.34375 199.85730 L278.32031 199.86066 L279.29688 199.86385 L280.27344 199.86678 L281.25000 199.86957 L282.22656 199.87265 L283.20313 199.87508 L284.17969 199.87796 L285.15625 199.87984 L286.13281 199.88217 L287.10938 199.88390 L288.08594 199.88603 L289.06250 199.88783 L290.03906 199.88956 L291.01563 199.89116 L291.99219 199.89250 L292.96875 199.89403 L293.94531 199.89534 L294.92188 199.89661 L295.89844 199.89764 L296.87500 199.89862 L297.85156 199.89957 L298.82813 199.90038 L299.80469 199.90125 L300.78125 199.90193 L301.75781 199.90253 L302.73438 199.90317 L303.71094 199.90367 L304.68750 199.90416 L305.66406 199.90443 L306.64063 199.90488 L307.61719 199.90518 L308.59375 199.90546 L309.57031 199.90581 L310.54688 199.90582 L311.52344 199.90575 L312.50000 199.90585 L313.47656 199.90569 L314.45313 199.90630 L315.42969 199.90581 L316.40625 199.90588 L317.38281 199.90616 L318.35938 199.90611 L319.33594 199.90584 L320.31250 199.90585 L321.28906 199.90562 L322.26563 199.90556 L323.24219 199.90540 L324.21875 199.90515 L325.19531 199.90494 L326.17188 199.90482 L327.14844 199.90463 L328.12500 199.90440 L329.10156 199.90410 L330.07813 199.90387 L331.05469 199.90361 L332.03125 199.90344 L333.00781 199.90318 L333.98438 199.90291 L334.96094 199.90257 L335.93750 199.90228 L336.91406 199.90196 L337.89063 199.90175 L338.86719 199.90144 L339.84375 199.90112 L340.82031 199.90085 L341.79688 199.90062 L342.77344 199.90041 L343.75000 199.90012 L344.72656 199.89990 L345.70313 199.89961 L346.67969 199.89903 L347.65625 199.89868 L348.63281 199.89861 L349.60938 199.89830 L350.58594 199.89798 L351.56250 199.89774 L352.53906 199.89738 L353.51563 199.89714 L354.49219 199.89687 L355.46875 199.89658 L356.44531 199.89633 L357.42188 199.89612 L358.39844 199.89584 L359.37500 199.89554 L360.35156 199.89525 L361.32813 199.89499 L362.30469 199.89470 L363.28125 199.89455 L364.25781 199.89427 L365.23438 199.89409 L366.21094 199.89377 L367.18750 199.89352 L368.16406 199.89317 L369.14063 199.89301 L370.11719 199.89279 L371.09375 199.89256 L372.07031 199.89230 L373.04688 199.89211 L374.02344 199.89192 L375.00000 199.89171 L375.97656 199.89160 L376.95313 199.89131 L377.92969 199.89087 L378.90625 199.89075 L379.88281 199.89061 L380.85938 199.89046 L381.83594 199.89026 L382.81250 199.89003 L383.78906 199.88976 L384.76563 199.88963 L385.74219 199.88948 L386.71875 199.88922 L387.69531 199.88904 L388.67188 199.88893 L389.64844 199.88884 L390.62500 199.88860 L391.60156 199.88840 L392.57813 199.88821 L393.55469 199.88800 L394.53125 199.88805 L395.50781 199.88776 L396.48438 199.88777 L397.46094 199.88745 L398.43750 199.88727 L399.41406 199.88702 L400.39063 199.88695 L401.36719 199.88684 L402.34375 199.88670 L403.32031 199.88658 L404.29688 199.88641 L405.27344 199.88635 L406.25000 199.88614 L407.22656 199.88608 L408.20313 199.88596 L409.17969 199.88574 L410.15625 199.88556 L411.13281 199.88553 L412.10938 199.88541 L413.08594 199.88528 L414.06250 199.88522 L415.03906 199.88499 L416.01563 199.88492 L416.99219 199.88478 L417.96875 199.88463 L418.94531 199.88457 L419.92188 199.88452 L420.89844 199.88445 L421.87500 199.88422 L422.85156 199.88412 L423.82813 199.88408 L424.80469 199.88388 L425.78125 199.88391 L426.75781 199.88324 L427.73438 199.88356 L428.71094 199.88374 L429.68750 199.88420 L430.66406 199.88412 L431.64063 199.88393 L432.61719 199.88351 L433.59375 199.88329 L434.57031 199.88336 L435.54688 199.88333 L436.52344 199.88332 L437.50000 199.88310 L438.47656 199.88301 L439.45313 199.88300 L440.42969 199.88295 L441.40625 199.88280 L442.38281 199.88271 L443.35938 199.88263 L444.33594 199.88266 L445.31250 199.88268 L446.28906 199.88251 L447.26563 199.88234 L448.24219 199.88232 L449.21875 199.88232 L450.19531 199.88237 L451.17188 199.88231 L452.14844 199.88202 L453.12500 199.88200 L454.10156 199.88222 L455.07813 199.88225 L456.05469 199.88225 L457.03125 199.88116 L458.00781 199.88220 L458.98438 199.88118 L459.96094 199.88150 L460.93750 199.88162 L461.91406 199.88188 L462.89063 199.88168 L463.86719 199.88148 L464.84375 199.88148 L465.82031 199.88148 L466.79688 199.88159 L467.77344 199.88152 L468.75000 199.88136 L469.72656 199.88145 L470.70313 199.88136 L471.67969 199.88142 L472.65625 199.88126 L473.63281 199.88123 L474.60938 199.88127 L475.58594 199.88126 L476.56250 199.88130 L477.53906 199.88112 L478.51563 199.88107 L479.49219 199.88115 L480.46875 199.88104 L481.44531 199.88116 L482.42188 199.88110 L483.39844 199.88107 L484.37500 199.88104 L485.35156 199.88107 L486.32813 199.88115 L487.30469 199.88107 L488.28125 199.88083 L489.25781 199.88106 L490.23438 199.88086 L491.21094 199.88094 L492.18750 199.88100 L493.16406 199.88103 L494.14063 199.88100 L495.11719 199.88092 L496.09375 199.88092 L497.07031 199.88094 L498.04688 199.88095 L499.02344 199.88103 L500.00000 199.88089 L500.97656 199.88103 L501.95313 199.88095 L502.92969 199.88094 L503.90625 199.88092 L504.88281 199.88092 L505.85938 199.88100 L506.83594 199.88103 L507.81250 199.88100 L508.78906 199.88094 L509.76563 199.88086 L510.74219 199.88106 L511.71875 199.88083 L512.69531 199.88107 L513.67188 199.88115 L514.64844 199.88107 L515.62500 199.88104 L516.60156 199.88107 L517.57813 199.88110 L518.55469 199.88116 L519.53125 199.88104 L520.50781 199.88115 L521.48438 199.88107 L522.46094 199.88112 L523.43750 199.88130 L524.41406 199.88126 L525.39063 199.88127 L526.36719 199.88124 L527.34375 199.88126 L528.32031 199.88142 L529.29688 199.88136 L530.27344 199.88145 L531.25000 199.88136 L532.22656 199.88152 L533.20313 199.88159 L534.17969 199.88148 L535.15625 199.88148 L536.13281 199.88148 L537.10938 199.88168 L538.08594 199.88188 L539.06250 199.88162 L540.03906 199.88150 L541.01563 199.88118 L541.99219 199.88220 L542.96875 199.88116 L543.94531 199.88225 L544.92188 199.88225 L545.89844 199.88222 L546.87500 199.88200 L547.85156 199.88202 L548.82813 199.88231 L549.80469 199.88237 L550.78125 199.88232 L551.75781 199.88232 L552.73438 199.88234 L553.71094 199.88251 L554.68750 199.88268 L555.66406 199.88266 L556.64063 199.88263 L557.61719 199.88271 L558.59375 199.88280 L559.57031 199.88295 L560.54688 199.88300 L561.52344 199.88301 L562.50000 199.88310 L563.47656 199.88332 L564.45313 199.88333 L565.42969 199.88336 L566.40625 199.88329 L567.38281 199.88351 L568.35938 199.88393 L569.33594 199.88412 L570.31250 199.88420 L571.28906 199.88374 L572.26563 199.88356 L573.24219 199.88324 L574.21875 199.88391 L575.19531 199.88388 L576.17188 199.88408 L577.14844 199.88412 L578.12500 199.88422 L579.10156 199.88445 L580.07813 199.88452 L581.05469 199.88457 L582.03125 199.88463 L583.00781 199.88478 L583.98438 199.88492 L584.96094 199.88499 L585.93750 199.88522 L586.91406 199.88528 L587.89063 199.88541 L588.86719 199.88553 L589.84375 199.88556 L590.82031 199.88574 L591.79688 199.88594 L592.77344 199.88608 L593.75000 199.88614 L594.72656 199.88635 L595.70313 199.88641 L596.67969 199.88658 L597.65625 199.88670 L598.63281 199.88684 L599.60938 199.88695 L600.58594 199.88702 L601.56250 199.88727 L602.53906 199.88745 L603.51563 199.88777 L604.49219 199.88776 L605.46875 199.88805 L606.44531 199.88800 L607.42188 199.88821 L608.39844 199.88840 L609.37500 199.88860 L610.35156 199.88884 L611.32813 199.88893 L612.30469 199.88904 L613.28125 199.88922 L614.25781 199.88948 L615.23438 199.88963 L616.21094 199.88976 L617.18750 199.89003 L618.16406 199.89026 L619.14063 199.89046 L620.11719 199.89061 L621.09375 199.89075 L622.07031 199.89087 L623.04688 199.89131 L624.02344 199.89160 L625.00000 199.89171 L625.97656 199.89192 L626.95313 199.89211 L627.92969 199.89230 L628.90625 199.89258 L629.88281 199.89279 L630.85938 199.89301 L631.83594 199.89317 L632.81250 199.89352 L633.78906 199.89377 L634.76563 199.89409 L635.74219 199.89427 L636.71875 199.89455 L637.69531 199.89470 L638.67188 199.89499 L639.64844 199.89525 L640.62500 199.89554 L641.60156 199.89584 L642.57813 199.89612 L643.55469 199.89633 L644.53125 199.89658 L645.50781 199.89687 L646.48438 199.89714 L647.46094 199.89738 L648.43750 199.89774 L649.41406 199.89798 L650.39063 199.89830 L651.36719 199.89861 L652.34375 199.89868 L653.32031 199.89903 L654.29688 199.89961 L655.27344 199.89990 L656.25000 199.90012 L657.22656 199.90041 L658.20313 199.90062 L659.17969 199.90085 L660.15625 199.90112 L661.13281 199.90144 L662.10938 199.90175 L663.08594 199.90196 L664.06250 199.90228 L665.03906 199.90257 L666.01563 199.90291 L666.99219 199.90318 L667.96875 199.90344 L668.94531 199.90361 L669.92188 199.90387 L670.89844 199.90410 L671.87500 199.90440 L672.85156 199.90463 L673.82813 199.90482 L674.80469 199.90494 L675.78125 199.90515 L676.75781 199.90538 L677.73438 199.90556 L678.71094 199.90562 L679.68750 199.90585 L680.66406 199.90584 L681.64063 199.90611 L682.61719 199.90616 L683.59375 199.90588 L684.57031 199.90581 L685.54688 199.90630 L686.52344 199.90569 L687.50000 199.90585 L688.47656 199.90575 L689.45313 199.90582 L690.42969 199.90581 L691.40625 199.90546 L692.38281 199.90518 L693.35938 199.90488 L694.33594 199.90443 L695.31250 199.90416 L696.28906 199.90367 L697.26563 199.90317 L698.24219 199.90253 L699.21875 199.90193 L700.19531 199.90126 L701.17188 199.90039 L702.14844 199.89957 L703.12500 199.89862 L704.10156 199.89764 L705.07813 199.89661 L706.05469 199.89532 L707.03125 199.89403 L708.00781 199.89250 L708.98438 199.89116 L709.96094 199.88956 L710.93750 199.88783 L711.91406 199.88603 L712.89063 199.88390 L713.86719 199.88217 L714.84375 199.87984 L715.82031 199.87796 L716.79688 199.87509 L717.77344 199.87265 L718.75000 199.86957 L719.72656 199.86678 L720.70313 199.86385 L721.67969 199.86066 L722.65625 199.85730 L723.63281 199.85367 L724.60938 199.84998 L725.58594 199.84612 L726.56250 199.84195 L727.53906 199.83778 L728.51563 199.83324 L729.49219 199.82861 L730.46875 199.82372 L731.44531 199.81860 L732.42188 199.81320 L733.39844 199.80750 L734.37500 199.80170 L735.35156 199.79553 L736.32813 199.78926 L737.30469 199.78275 L738.28125 199.77548 L739.25781 199.76822 L740.23438 199.76065 L741.21094 199.75269 L742.18750 199.74437 L743.16406 199.73560 L744.14063 199.72656 L745.11719 199.71722 L746.09375 199.70720 L747.07031 199.69695 L748.04688 199.68607 L749.02344 199.67464 L750.00000 199.66267 L750.97656 199.65021 L751.95313 199.63715 L752.92969 199.62338 L753.90625 199.60909 L754.88281 199.59390 L755.85938 199.57799 L756.83594 199.56125 L757.81250 199.54355 L758.78906 199.52510 L759.76563 199.50545 L760.74219 199.48488 L761.71875 199.46301 L762.69531 199.43990 L763.67188 199.41545 L764.64844 199.38950 L765.62500 199.36197 L766.60156 199.33250 L767.57813 199.30127 L768.55469 199.26837 L769.53125 199.23225 L770.50781 199.19423 L771.48438 199.15338 L772.46094 199.10941 L773.43750 199.06195 L774.41406 199.01068 L775.39063 198.95520 L776.36719 198.89497 L777.34375 198.82919 L778.32031 198.75748 L779.29688 198.67863 L780.27344 198.59157 L781.25000 198.49525 L782.22656 198.38805 L783.20313 198.26816 L784.17969 198.13300 L785.15625 197.97974 L786.13281 197.80452 L787.10938 197.60222 L788.08594 197.36636 L789.06250 197.08775 L790.03906 196.75410 L791.01563 196.34703 L791.99219 195.84016 L792.96875 195.19151 L793.94531 194.33255 L794.92188 193.14186 L795.89844 191.38297 L796.87500 188.52257 L797.85156 183.05856 L798.82813 168.48221 L799.80469 8.10232 L800.78125 151.32167 L801.75781 178.04752 L802.73438 185.68085 L803.71094 189.29471 L804.68750 191.40128 L805.66406 192.78003 L806.64063 193.75208 L807.61719 194.47388 L808.59375 195.03078 L809.57031 195.47302 L810.54688 195.83264 L811.52344 196.13066 L812.50000 196.38139 L813.47656 196.59515 L814.45313 196.77936 L815.42969 196.93968 L816.40625 197.08035 L817.38281 197.20456 L818.35938 197.31517 L819.33594 197.41412 L820.31250 197.50304 L821.28906 197.58316 L822.26563 197.65584 L823.24219 197.72203 L824.21875 197.78252 L825.19531 197.83772 L826.17188 197.88812 L827.14844 197.93446 L828.12500 197.97737 L829.10156 198.01732 L830.07813 198.05443 L831.05469 198.08904 L832.03125 198.11992 L833.00781 198.14899 L833.98438 198.17601 L834.96094 198.20120 L835.93750 198.22478 L836.91406 198.24654 L837.89063 198.26666 L838.86719 198.28546 L839.84375 198.30307 L840.82031 198.31946 L841.79688 198.33429 L842.77344 198.34839 L843.75000 198.36137 L844.72656 198.37352 L845.70313 198.38464 L846.67969 198.39474 L847.65625 198.40414 L848.63281 198.41275 L849.60938 198.42061 L850.58594 198.42784 L851.56250 198.43430 L852.53906 198.43996 L853.51563 198.44510 L854.49219 198.44954 L855.46875 198.45351 L856.44531 198.45674 L857.42188 198.45941 L858.39844 198.46156 L859.37500 198.46310 L860.35156 198.46455 L861.32813 198.46497 L862.30469 198.46507 L863.28125 198.46449 L864.25781 198.46359 L865.23438 198.46219 L866.21094 198.46017 L867.18750 198.45778 L868.16406 198.45502 L869.14063 198.45157 L870.11719 198.44772 L871.09375 198.44336 L872.07031 198.43849 L873.04688 198.43306 L874.02344 198.42732 L875.00000 198.42104 L875.97656 198.41415 L876.95313 198.40680 L877.92969 198.39886 L878.90625 198.39040 L879.88281 198.38152 L880.85938 198.37195 L881.83594 198.36188 L882.81250 198.35121 L883.78906 198.33986 L884.76563 198.32791 L885.74219 198.31529 L886.71875 198.30203 L887.69531 198.28801 L888.67188 198.27338 L889.64844 198.25797 L890.62500 198.24147 L891.60156 198.22464 L892.57813 198.20677 L893.55469 198.18819 L894.53125 198.16826 L895.50781 198.14749 L896.48438 198.12576 L897.46094 198.10287 L898.43750 198.07884 L899.41406 198.05357 L900.39063 198.02684 L901.36719 197.99895 L902.34375 197.96947 L903.32031 197.93829 L904.29688 197.90543 L905.27344 197.87083 L906.25000 197.83421 L907.22656 197.79556 L908.20313 197.75447 L909.17969 197.71080 L910.15625 197.66446 L911.13281 197.61526 L912.10938 197.56274 L913.08594 197.50699 L914.06250 197.44698 L915.03906 197.38223 L916.01563 197.31300 L916.99219 197.23859 L917.96875 197.15787 L918.94531 197.07022 L919.92188 196.97490 L920.89844 196.87071 L921.87500 196.75632 L922.85156 196.63036 L923.82813 196.49077 L924.80469 196.33493 L925.78125 196.15993 L926.75781 195.96211 L927.73438 195.73651 L928.71094 195.47667 L929.68750 195.17374 L930.66406 194.81593 L931.64063 194.38640 L932.61719 193.86104 L933.59375 193.20268 L934.57031 192.35208 L935.54688 191.21001 L936.52344 189.59311 L937.50000 187.12283 L938.47656 182.87355 L939.45313 173.82007 L940.42969 141.11697 L941.40625 13.70063 L942.38281 165.49385 L943.35938 181.48010 L944.33594 187.58575 L945.31250 190.80872 L946.28906 192.79802 L947.26563 194.14450 L948.24219 195.11084 L949.21875 195.83040 L950.19531 196.37758 L951.17188 196.79491 L952.14844 197.10762 L953.12500 197.32933 L954.10156 197.46693 L955.07813 197.52245 L956.05469 197.49481 L957.03125 197.38066 L958.00781 197.17224 L958.98438 196.85497 L959.96094 196.40198 L960.93750 195.76196 L961.91406 194.83588 L962.89063 193.41669 L963.86719 191.00256 L964.84375 186.00795 L965.82031 169.52290 L966.79688 -0.00000 L967.77344 176.28975 L968.75000 187.33324 L969.72656 191.34555 L970.70313 193.43008 L971.67969 194.71387 L972.65625 195.58844 L973.63281 196.22585 L974.60938 196.71329 L975.58594 197.10054 L976.56250 197.41653 L977.53906 197.68065 L978.51563 197.90569 L979.49219 198.10062 L980.46875 198.27197 L981.44531 198.42416 L982.42188 198.56070 L983.39844 198.68468 L984.37500 198.79787 L985.35156 198.90208 L986.32813 198.99883 L987.30469 199.08897 L988.28125 199.17368 L989.25781 199.25374 L990.23438 199.32924 L991.21094 199.40135 L992.18750 199.46962 L993.16406 199.53546 L994.14063 199.59831 L995.11719 199.65790 L996.09375 199.71431 L997.07031 199.76611 L998.04688 199.81058 L999.02344 199.84285" /><path fill="none" stroke="#000000" d="M0 300.07953  L0.00000 200.00000  L0.97656 387.17804  L1.95313 377.27551  L2.92969 370.52286  L3.90625 365.93317  L4.88281 362.61102  L5.85938 360.14346  L6.83594 358.19540  L7.81250 356.59558  L8.78906 355.25949  L9.76563 354.09546  L10.74219 353.07697  L11.71875 352.14148  L12.69531 351.27966  L13.67188 350.47992  L14.64844 349.71570  L15.62500 348.98834  L16.60156 348.28247  L17.57813 347.59167  L18.55469 346.90765  L19.53125 346.22949  L20.50781 345.54639  L21.48438 344.85425  L22.46094 344.15161  L23.43750 343.43243  L24.41406 342.68976  L25.39063 341.91818  L26.36719 341.10614  L27.34375 340.25620  L28.32031 339.34998  L29.29688 338.38434  L30.27344 337.34427  L31.25000 336.21771  L32.22656 334.98621  L33.20313 333.63062  L34.17969 232.04745  L35.15625 230.36543  L36.13281 228.47096  L37.10938 226.32420  L38.08594 223.87584  L39.06250 221.07642  L40.03906 217.87956  L41.01563 214.24275  L41.99219 210.16460  L42.96875 205.68329  L43.94531 200.90929  L44.92188 396.16971  L45.89844 391.34442  L46.87500 386.77490  L47.85156 382.58478  L48.82813 378.83771  L49.80469 375.53650  L50.78125 372.65201  L51.75781 370.13849  L52.73438 367.94354  L53.71094 366.02057  L54.68750 364.32468  L55.66406 362.82288  L56.64063 361.48276  L57.61719 360.27927  L58.59375 359.19070  L59.57031 258.12158  L60.54688 257.21677  L61.52344 256.38495  L62.50000 255.61623  L63.47656 254.90268  L64.45313 254.23549  L65.42969 253.61168  L66.40625 253.02538  L67.38281 252.47247  L68.35938 251.94836  L69.33594 251.45001  L70.31250 250.97629  L71.28906 250.52356  L72.26563 250.09013  L73.24219 249.67368  L74.21875 249.27243  L75.19531 248.88696  L76.17188 248.51421  L77.14844 248.15451  L78.12500 247.80394  L79.10156 247.46347  L80.07813 247.13324  L81.05469 246.81195  L82.03125 246.49866  L83.00781 246.19499  L83.98438 245.89589  L84.96094 245.59949  L85.93750 245.31372  L86.91406 245.03607  L87.89063 244.76248  L88.86719 244.48593  L89.84375 244.22318  L90.82031 243.95636  L91.79688 243.69994  L92.77344 243.44669  L93.75000 243.19475  L94.72656 242.94765  L95.70313 242.70261  L96.67969 242.46118  L97.65625 242.22232  L98.63281 241.98668  L99.60938 241.75281  L100.58594 241.52040  L101.56250 241.29399  L102.53906 241.06683  L103.51563 240.84122  L104.49219 240.61902  L105.46875 240.39505  L106.44531 240.17697  L107.42188 239.96384  L108.39844 239.74348  L109.37500 239.53018  L110.35156 239.31088  L111.32813 239.10040  L112.30469 238.88997  L113.28125 238.67738  L114.25781 238.46973  L115.23438 238.26178  L116.21094 238.05365  L117.18750 237.84964  L118.16406 237.64404  L119.14063 237.44080  L120.11719 237.23416  L121.09375 237.03313  L122.07031 236.82773  L123.04688 236.62567  L124.02344 236.42529  L125.00000 236.22429  L125.97656 236.02464  L126.95313 235.82428  L127.92969 235.62320  L128.90625 235.42426  L129.88281 235.22571  L130.85938 235.02812  L131.83594 234.83003  L132.81250 234.63168  L133.78906 234.43141  L134.76563 234.23370  L135.74219 234.03674  L136.71875 233.83923  L137.69531 233.64160  L138.67188 233.44141  L139.64844 233.25128  L140.62500 233.05219  L141.60156 232.85368  L142.57813 232.65562  L143.55469 232.45831  L144.53125 232.26149  L145.50781 232.06415  L146.48438 231.86488  L147.46094 231.66579  L148.43750 231.46977  L149.41406 231.27187  L150.39063 231.07448  L151.36719 230.87379  L152.34375 230.67453  L153.32031 230.47427  L154.29688 230.27574  L155.27344 230.07591  L156.25000 229.87390  L157.22656 229.67361  L158.20313 229.46935  L159.17969 229.26907  L160.15625 229.06583  L161.13281 228.86281  L162.10938 228.65869  L163.08594 228.45444  L164.06250 228.25401  L165.03906 228.04880  L166.01563 227.83911  L166.99219 227.62903  L167.96875 227.42189  L168.94531 227.22195  L169.92188 227.01895  L170.89844 226.81155  L171.87500 226.59442  L172.85156 226.37531  L173.82813 226.15759  L174.80469 225.94632  L175.78125 225.73567  L176.75781 225.52127  L177.73438 225.30350  L178.71094 225.08456  L179.68750 224.86787  L180.66406 224.64969  L181.64063 224.42960  L182.61719 224.20555  L183.59375 223.98262  L184.57031 223.75862  L185.54688 223.53366  L186.52344 223.30728  L187.50000 223.07872  L188.47656 222.84885  L189.45313 222.61765  L190.42969 222.38452  L191.40625 222.15047  L192.38281 221.91467  L193.35938 221.67755  L194.33594 221.43799  L195.31250 221.19754  L196.28906 220.95477  L197.26563 220.71024  L198.24219 220.46387  L199.21875 220.21544  L200.19531 320.04462  L201.17188 319.79230  L202.14844 319.53790  L203.12500 319.28110  L204.10156 319.02234  L205.07813 318.76068  L206.05469 318.49591  L207.03125 318.23062  L208.00781 317.96216  L208.98438 317.69000  L209.96094 317.41608  L210.93750 317.13879  L211.91406 316.85950  L212.89063 316.57642  L213.86719 316.29196  L214.84375 316.00220  L215.82031 315.71094  L216.79688 315.41681  L217.77344 315.11694  L218.75000 314.81482  L219.72656 314.50815  L220.70313 314.19672  L221.67969 313.88928  L222.65625 313.57208  L223.63281 313.24948  L224.60938 312.91974  L225.58594 312.59436  L226.56250 312.26050  L227.53906 311.92133  L228.51563 311.57556  L229.49219 311.21982  L230.46875 310.87106  L231.44531 310.51273  L232.42188 310.15723  L233.39844 309.78842  L234.37500 309.40918  L235.35156 309.02377  L236.32813 308.63611  L237.30469 308.24695  L238.28125 307.84790  L239.25781 307.44260  L240.23438 307.02768  L241.21094 306.60788  L242.18750 306.17819  L243.16406 305.74243  L244.14063 305.29770  L245.11719 304.84949  L246.09375 304.39020  L247.07031 303.92484  L248.04688 303.45337  L249.02344 302.95599  L250.00000 302.46796  L250.97656 301.97052  L251.95313 301.44205  L252.92969 300.94803  L253.90625 300.41101  L254.88281 299.85754  L255.85938 299.29391  L256.83594 298.74860  L257.81250 298.15149  L258.78906 297.56696  L259.76563 296.97455  L260.74219 296.36005  L261.71875 295.74786  L262.69531 295.08978  L263.67188 294.46332  L264.64844 293.80304  L265.62500 293.12866  L266.60156 292.44839  L267.57813 291.73795  L268.55469 291.01886  L269.53125 290.30383  L270.50781 289.55914  L271.48438 288.82422  L272.46094 288.05304  L273.43750 287.26065  L274.41406 286.46939  L275.39063 285.65918  L276.36719 284.86371  L277.34375 284.03552  L278.32031 283.16833  L279.29688 282.36847  L280.27344 281.45905  L281.25000 280.61615  L282.22656 279.71344  L283.20313 278.70264  L284.17969 277.97516  L285.15625 277.17773  L286.13281 276.11450  L287.10938 275.22614  L288.08594 274.33356  L289.06250 273.38611  L290.03906 272.45407  L291.01563 271.50854  L291.99219 270.59494  L292.96875 269.67496  L293.94531 268.69299  L294.92188 267.84772  L295.89844 266.92386  L296.87500 265.99640  L297.85156 265.08167  L298.82813 264.16803  L299.80469 263.29092  L300.78125 262.41495  L301.75781 261.52017  L302.73438 260.65512  L303.71094 259.78906  L304.68750 258.98117  L305.66406 258.11066  L306.64063 257.29520  L307.61719 256.43253  L308.59375 255.64943  L309.57031 254.94925  L310.54688 254.15237  L311.52344 253.42598  L312.50000 252.56409  L313.47656 251.88400  L314.45313 251.11893  L315.42969 250.39749  L316.40625 249.53894  L317.38281 249.07635  L318.35938 248.30865  L319.33594 247.67181  L320.31250 247.06271  L321.28906 246.39087  L322.26563 245.81958  L323.24219 245.18451  L324.21875 244.57764  L325.19531 243.97455  L326.17188 243.41879  L327.14844 242.89429  L328.12500 242.30861  L329.10156 241.79707  L330.07813 241.25233  L331.05469 240.70349  L332.03125 240.22900  L333.00781 239.71294  L333.98438 239.24893  L334.96094 238.77000  L335.93750 238.30180  L336.91406 237.81841  L337.89063 237.36092  L338.86719 236.89024  L339.84375 236.47989  L340.82031 236.03372  L341.79688 235.59009  L342.77344 235.17732  L343.75000 234.76035  L344.72656 234.43028  L345.70313 234.06204  L346.67969 233.68155  L347.65625 233.21819  L348.63281 232.85919  L349.60938 232.45506  L350.58594 232.10706  L351.56250 231.76935  L352.53906 231.39082  L353.51563 231.04367  L354.49219 230.70062  L355.46875 230.36137  L356.44531 230.00400  L357.42188 229.69858  L358.39844 229.37428  L359.37500 229.03772  L360.35156 228.74182  L361.32813 228.42447  L362.30469 228.09694  L363.28125 227.79904  L364.25781 227.48494  L365.23438 227.20488  L366.21094 226.93686  L367.18750 226.65291  L368.16406 226.33557  L369.14063 226.05182  L370.11719 225.75267  L371.09375 225.49669  L372.07031 225.21646  L373.04688 224.93680  L374.02344 224.66599  L375.00000 224.37465  L375.97656 224.19836  L376.95313 223.89409  L377.92969 223.64909  L378.90625 223.35207  L379.88281 223.10698  L380.85938 222.84601  L381.83594 222.63181  L382.81250 222.38193  L383.78906 222.12535  L384.76563 221.87595  L385.74219 221.64677  L386.71875 221.39647  L387.69531 221.14584  L388.67188 220.90950  L389.64844 220.70683  L390.62500 220.46747  L391.60156 220.25475  L392.57813 220.01736  L393.55469 219.75958  L394.53125 219.54916  L395.50781 219.33987  L396.48438 219.12297  L397.46094 218.93512  L398.43750 218.72276  L399.41406 218.47475  L400.39063 218.24318  L401.36719 218.02771  L402.34375 217.83116  L403.32031 217.61263  L404.29688 217.38794  L405.27344 217.18530  L406.25000 216.97028  L407.22656 216.80766  L408.20313 216.58847  L409.17969 216.39410  L410.15625 216.17220  L411.13281 215.96973  L412.10938 215.76253  L413.08594 215.56653  L414.06250 215.37691  L415.03906 215.17981  L416.01563 214.97923  L416.99219 214.78841  L417.96875 214.56996  L418.94531 214.37819  L419.92188 214.17430  L420.89844 214.01814  L421.87500 213.80464  L422.85156 213.61455  L423.82813 213.41705  L424.80469 213.22353  L425.78125 213.07713  L426.75781 212.83423  L427.73438 212.48756  L428.71094 212.29286  L429.68750 212.16144  L430.66406 212.07976  L431.64063 211.98961  L432.61719 211.80191  L433.59375 211.59062  L434.57031 211.36667  L435.54688 211.19197  L436.52344 211.05081  L437.50000 210.87199  L438.47656 210.69185  L439.45313 210.47548  L440.42969 210.32144  L441.40625 210.16280  L442.38281 209.96909  L443.35938 209.78853  L444.33594 209.57880  L445.31250 209.44246  L446.28906 209.28529  L447.26563 209.08649  L448.24219 208.91895  L449.21875 208.68143  L450.19531 208.56245  L451.17188 208.42702  L452.14844 208.23315  L453.12500 208.03268  L454.10156 207.80777  L455.07813 207.72667  L456.05469 207.64444  L457.03125 207.43974  L458.00781 207.14108  L458.98438 207.13202  L459.96094 206.73799  L460.93750 206.57539  L461.91406 206.47740  L462.89063 206.33327  L463.86719 206.17783  L464.84375 205.95615  L465.82031 205.77603  L466.79688 205.63324  L467.77344 205.46989  L468.75000 205.31783  L469.72656 205.13431  L470.70313 204.96558  L471.67969 204.82185  L472.65625 204.63774  L473.63281 204.47484  L474.60938 204.28967  L475.58594 204.12286  L476.56250 203.98909  L477.53906 203.82146  L478.51563 203.63792  L479.49219 203.47249  L480.46875 203.27293  L481.44531 203.14287  L482.42188 202.96236  L483.39844 202.80984  L484.37500 202.62766  L485.35156 202.45111  L486.32813 202.32248  L487.30469 202.16472  L488.28125 202.01387  L489.25781 201.78531  L490.23438 201.66194  L491.21094 201.45947  L492.18750 201.28964  L493.16406 201.16115  L494.14063 200.98405  L495.11719 200.82997  L496.09375 200.65794  L497.07031 200.47688  L498.04688 200.33423  L499.02344 200.15897  L500.00000 200.00000  L500.97656 400.00000  L501.95313 399.82538  L502.92969 399.68256  L503.90625 399.50156  L504.88281 399.32892  L505.85938 399.17505  L506.83594 398.99796  L507.81250 398.86938  L508.78906 398.69962  L509.76563 398.49698  L510.74219 398.37366  L511.71875 398.14484  L512.69531 397.99561  L513.67188 397.83661  L514.64844 397.70776  L515.62500 397.53137  L516.60156 397.34909  L517.57813 397.19727  L518.55469 397.01630  L519.53125 396.88617  L520.50781 396.68628  L521.48438 396.52127  L522.46094 396.33759  L523.43750 396.17004  L524.41406 396.03625  L525.39063 395.86948  L526.36719 395.68414  L527.34375 395.52087  L528.32031 395.33704  L529.29688 395.19550  L530.27344 395.02493  L531.25000 394.84122  L532.22656 394.68912  L533.20313 394.52240  L534.17969 394.38263  L535.15625 394.20218  L536.13281 393.98102  L537.10938 393.82562  L538.08594 393.68140  L539.06250 393.58356  L540.03906 393.42072  L541.01563 393.02692  L541.99219 393.01825  L542.96875 392.71902  L543.94531 392.51416  L544.92188 392.43253  L545.89844 392.35132  L546.87500 392.12634  L547.85156 391.92615  L548.82813 391.73193  L549.80469 391.59607  L550.78125 391.47736  L551.75781 391.23981  L552.73438 391.07254  L553.71094 390.87387  L554.68750 390.71655  L555.66406 390.58035  L556.64063 390.37036  L557.61719 390.19073  L558.59375 389.99966  L559.57031 389.83746  L560.54688 389.68433  L561.52344 389.46692  L562.50000 389.28693  L563.47656 389.10843  L564.45313 388.96637  L565.42969 388.79251  L566.40625 388.56915  L567.38281 388.35788  L568.35938 388.16953  L569.33594 388.07922  L570.31250 387.99762  L571.28906 387.86621  L572.26563 387.67139  L573.24219 387.32443  L574.21875 387.08221  L575.19531 386.93713  L576.17188 386.74197  L577.14844 386.54449  L578.12500 386.35443  L579.10156 386.14099  L580.07813 385.98486  L581.05469 385.78149  L582.03125 385.58936  L583.00781 385.37024  L583.98438 385.17938  L584.96094 384.97928  L585.93750 384.78214  L586.91406 384.59247  L587.89063 384.39645  L588.86719 384.18945  L589.84375 383.98688  L590.82031 383.76495  L591.79688 383.57117  L592.77344 383.35138  L593.75000 383.18878  L594.72656 382.97391  L595.70313 382.77057  L596.67969 382.54645  L597.65625 382.32764  L598.63281 382.13147  L599.60938 381.91589  L600.58594 381.68457  L601.56250 381.43628  L602.53906 381.22400  L603.51563 381.03607  L604.49219 380.81940  L605.46875 380.60992  L606.44531 380.39978  L607.42188 380.14178  L608.39844 379.90411  L609.37500 379.69162  L610.35156 379.45230  L611.32813 379.24997  L612.30469 379.01282  L613.28125 378.76260  L614.25781 378.51215  L615.23438 378.28293  L616.21094 378.03387  L617.18750 377.77707  L618.16406 377.52722  L619.14063 377.31305  L620.11719 377.05215  L621.09375 376.80661  L622.07031 376.50964  L623.04688 376.26514  L624.02344 375.96078  L625.00000 375.78436  L625.97656 375.49298  L626.95313 375.22235  L627.92969 374.94257  L628.90625 374.66284  L629.88281 374.40631  L630.85938 374.10742  L631.83594 373.82333  L632.81250 373.50610  L633.78906 373.22238  L634.76563 372.95419  L635.74219 372.67395  L636.71875 372.36032  L637.69531 372.06226  L638.67188 371.73486  L639.64844 371.41742  L640.62500 371.12134  L641.60156 370.78491  L642.57813 370.46066  L643.55469 370.15509  L644.53125 369.79745  L645.50781 369.45847  L646.48438 369.11542  L647.46094 368.76816  L648.43750 368.38971  L649.41406 368.05191  L650.39063 367.70389  L651.36719 367.29990  L652.34375 366.94067  L653.32031 366.47766  L654.29688 366.09827  L655.27344 365.72888  L656.25000 365.39868  L657.22656 364.98181  L658.20313 364.56915  L659.17969 364.12531  L660.15625 363.67877  L661.13281 363.26898  L662.10938 362.79794  L663.08594 362.34042  L664.06250 361.85724  L665.03906 361.38910  L666.01563 360.91010  L666.99219 360.44611  L667.96875 359.92981  L668.94531 359.45605  L669.92188 358.90723  L670.89844 358.36194  L671.87500 357.85022  L672.85156 357.26489  L673.82813 356.74011  L674.80469 356.18536  L675.78125 355.58112  L676.75781 354.97464  L677.73438 354.33902  L678.71094 353.76804  L679.68750 353.09628  L680.66406 352.48721  L681.64063 351.85031  L682.61719 351.08240  L683.59375 350.61896  L684.57031 349.76193  L685.54688 349.04010  L686.52344 348.27545  L687.50000 347.59491  L688.47656 346.73291  L689.45313 346.00668  L690.42969 345.20856  L691.40625 344.51361  L692.38281 343.72601  L693.35938 342.86414  L694.33594 342.04852  L695.31250 341.17801  L696.28906 340.37024  L697.26563 339.50424  L698.24219 338.63879  L699.21875 337.74457  L700.19531 336.86835  L701.17188 335.99069  L702.14844 335.07733  L703.12500 334.16257  L704.10156 333.23526  L705.07813 332.31110  L706.05469 331.46567  L707.03125 330.48407  L708.00781 329.56345  L708.98438 328.65045  L709.96094 327.70502  L710.93750 326.77292  L711.91406 325.82538  L712.89063 324.93314  L713.86719 324.04453  L714.84375 322.98141  L715.82031 322.18307  L716.79688 321.45767  L717.77344 320.44574  L718.75000 319.54297  L719.72656 318.70001  L720.70313 317.79150  L721.67969 316.99100  L722.65625 316.12390  L723.63281 315.29529  L724.60938 314.49982  L725.58594 313.68970  L726.56250 312.89838  L727.53906 312.10596  L728.51563 311.33484  L729.49219 310.60001  L730.46875 309.85522  L731.44531 309.14011  L732.42188 308.42102  L733.39844 307.71063  L734.37500 307.03040  L735.35156 306.35605  L736.32813 305.69547  L737.30469 305.07056  L738.28125 304.41080  L739.25781 303.79895  L740.23438 303.18454  L741.21094 302.59219  L742.18750 302.00757  L743.16406 301.41046  L744.14063 300.86514  L745.11719 300.30164  L746.09375 299.74765  L747.07031 299.21094  L748.04688 298.71680  L749.02344 298.18851  L750.00000 297.69110  L750.97656 297.20300  L751.95313 296.70581  L752.92969 296.23413  L753.90625 295.76883  L754.88281 295.30963  L755.85938 294.86133  L756.83594 294.41663  L757.81250 293.98087  L758.78906 293.55118  L759.76563 293.13141  L760.74219 292.71643  L761.71875 292.31119  L762.69531 291.91205  L763.67188 291.52295  L764.64844 291.13525  L765.62500 290.74988  L766.60156 290.37064  L767.57813 290.00168  L768.55469 289.64633  L769.53125 289.28802  L770.50781 288.93921  L771.48438 288.58350  L772.46094 288.23773  L773.43750 287.89853  L774.41406 287.56467  L775.39063 287.23932  L776.36719 286.90958  L777.34375 286.58701  L778.32031 286.26978  L779.29688 285.96234  L780.27344 285.65088  L781.25000 285.34421  L782.22656 285.04208  L783.20313 284.74222  L784.17969 284.44812  L785.15625 284.15686  L786.13281 283.86710  L787.10938 283.58264  L788.08594 283.29953  L789.06250 283.02026  L790.03906 282.74298  L791.01563 282.46906  L791.99219 282.19693  L792.96875 281.92844  L793.94531 281.66315  L794.92188 281.39835  L795.89844 281.13672  L796.87500 280.87796  L797.85156 280.62115  L798.82813 280.36676  L799.80469 280.11441  L800.78125 379.94360  L801.75781 379.69519  L802.73438 379.44882  L803.71094 379.20428  L804.68750 378.96149  L805.66406 378.72107  L806.64063 378.48151  L807.61719 378.24438  L808.59375 378.00861  L809.57031 377.77454  L810.54688 377.54138  L811.52344 377.31021  L812.50000 377.08032  L813.47656 376.85178  L814.45313 376.62543  L815.42969 376.40045  L816.40625 376.17639  L817.38281 375.95349  L818.35938 375.72946  L819.33594 375.50934  L820.31250 375.29117  L821.28906 375.07449  L822.26563 374.85556  L823.24219 374.63779  L824.21875 374.42340  L825.19531 374.21268  L826.17188 374.00146  L827.14844 373.78375  L828.12500 373.56464  L829.10156 373.34750  L830.07813 373.14008  L831.05469 372.93710  L832.03125 372.73715  L833.00781 372.53003  L833.98438 372.31995  L834.96094 372.11023  L835.93750 371.90503  L836.91406 371.70462  L837.89063 371.50037  L838.86719 371.29626  L839.84375 371.09326  L840.82031 370.89001  L841.79688 370.68982  L842.77344 370.48547  L843.75000 370.28516  L844.72656 370.08313  L845.70313 369.88330  L846.67969 369.68475  L847.65625 369.48444  L848.63281 369.28522  L849.60938 369.08456  L850.58594 368.88721  L851.56250 368.68927  L852.53906 368.49323  L853.51563 368.29413  L854.49219 368.09491  L855.46875 367.89752  L856.44531 367.70074  L857.42188 367.50345  L858.39844 367.30536  L859.37500 367.10687  L860.35156 366.90778  L861.32813 366.71771  L862.30469 366.51740  L863.28125 366.31982  L864.25781 366.12231  L865.23438 365.92535  L866.21094 365.72766  L867.18750 365.52734  L868.16406 365.32898  L869.14063 365.13092  L870.11719 364.93335  L871.09375 364.73480  L872.07031 364.53589  L873.04688 364.33472  L874.02344 364.13443  L875.00000 363.93475  L875.97656 363.73376  L876.95313 363.53333  L877.92969 363.33136  L878.90625 363.12598  L879.88281 362.92490  L880.85938 362.71826  L881.83594 362.51501  L882.81250 362.30939  L883.78906 362.10541  L884.76563 361.89728  L885.74219 361.68933  L886.71875 361.48166  L887.69531 361.26917  L888.67188 361.05869  L889.64844 360.84818  L890.62500 360.62885  L891.60156 360.41559  L892.57813 360.19525  L893.55469 359.98206  L894.53125 359.76401  L895.50781 359.54001  L896.48438 359.31781  L897.46094 359.09222  L898.43750 358.86505  L899.41406 358.63867  L900.39063 358.40625  L901.36719 358.17236  L902.34375 357.93674  L903.32031 357.69788  L904.29688 357.45645  L905.27344 357.21143  L906.25000 356.96429  L907.22656 356.71237  L908.20313 356.45920  L909.17969 356.20264  L910.15625 355.93579  L911.13281 355.67310  L912.10938 355.39658  L913.08594 355.12299  L914.06250 354.84534  L915.03906 354.55957  L916.01563 354.26315  L916.99219 353.96405  L917.96875 353.66040  L918.94531 353.34711  L919.92188 353.02588  L920.89844 352.69559  L921.87500 352.35510  L922.85156 352.00455  L923.82813 351.64484  L924.80469 351.27206  L925.78125 350.88660  L926.75781 350.48538  L927.73438 350.06891  L928.71094 349.63550  L929.68750 349.18277  L930.66406 348.70905  L931.64063 348.21069  L932.61719 347.68658  L933.59375 347.13367  L934.57031 346.54739  L935.54688 345.92358  L936.52344 345.25638  L937.50000 344.54285  L938.47656 343.77411  L939.45313 342.94226  L940.42969 342.03748  L941.40625 240.96835  L942.38281 239.87979  L943.35938 238.67628  L944.33594 237.33617  L945.31250 235.83438  L946.28906 234.13849  L947.26563 232.21550  L948.24219 230.02057  L949.21875 227.50702  L950.19531 224.62259  L951.17188 221.32121  L952.14844 217.57428  L953.12500 213.38416  L954.10156 208.81464  L955.07813 203.98933  L956.05469 399.24979  L957.03125 394.47577  L958.00781 389.99451  L958.98438 385.91632  L959.96094 382.27948  L960.93750 379.08264  L961.91406 376.28320  L962.89063 373.83484  L963.86719 371.68811  L964.84375 369.79364  L965.82031 368.11160  L966.79688 266.52844  L967.77344 265.17282  L968.75000 263.94135  L969.72656 262.81479  L970.70313 261.77472  L971.67969 260.80905  L972.65625 259.90280  L973.63281 259.05292  L974.60938 258.24084  L975.58594 257.46933  L976.56250 256.72662  L977.53906 256.00742  L978.51563 255.30481  L979.49219 254.61266  L980.46875 253.92953  L981.44531 253.25134  L982.42188 252.56755  L983.39844 251.87660  L984.37500 251.17070  L985.35156 250.44333  L986.32813 249.67908  L987.30469 248.87933  L988.28125 248.01756  L989.25781 247.08208  L990.23438 246.06360  L991.21094 244.89960  L992.18750 243.56351  L993.16406 241.96365  L994.14063 240.01572  L995.11719 237.54817  L996.09375 234.22552  L997.07031 229.63553  L998.04688 222.88443  L999.02344 212.98061 " /></g><text x="1000.00000" dx="10" y="199.99995">[-0.00000;0.48607]</text><text x="1000.00000" dx="10" y="300.07953">[-3.13660;3.14159]</text></svg>