<svg xmlns="http://www.w3.org/2000/svg" version="1.1"><g stroke-width="0.6"><path fill="none" stroke="#000000" d="M0 155.37775 L1000.00000 155.37775" /><path fill="none" stroke="#000000" d="M0 300.00000 L1000.00000 300.00000" /><path fill="none" stroke="#000000" d="M500.00000 0 L500.00000 400.00000" /><path fill="none" stroke="#000000" d="M0 155.37775  L0.00000 154.66913 L0.97656 154.66812 L1.95313 154.66530 L2.92969 154.66046 L3.90625 154.65373 L4.88281 154.64481 L5.85938 154.63373 L6.83594 154.62041 L7.81250 154.60451 L8.78906 154.58592 L9.76563 154.56444 L10.74219 154.53995 L11.71875 154.51164 L12.69531 154.47935 L13.67188 154.44257 L14.64844 154.40044 L15.62500 154.35239 L16.60156 154.29741 L17.57813 154.23399 L18.55469 154.16064 L19.53125 154.07538 L20.50781 153.97542 L21.48438 153.85712 L22.46094 153.71562 L23.43750 153.54398 L24.41406 153.33226 L25.39063 153.06572 L26.36719 152.72112 L27.34375 152.26021 L28.32031 151.61494 L29.29688 150.65096 L30.27344 149.06293 L31.25000 145.97252 L32.22656 137.40060 L33.20313 0.00001 L34.17969 179.72008 L35.15625 166.90442 L36.13281 163.04514 L37.10938 161.19453 L38.08594 160.11572 L39.06250 159.41524 L40.03906 158.92891 L41.01563 158.57664 L41.99219 158.31412 L42.96875 158.11607 L43.94531 157.96654 L44.92188 157.85529 L45.89844 157.77628 L46.87500 157.72575 L47.85156 157.70213 L48.82813 157.70581 L49.80469 157.73929 L50.78125 157.80783 L51.75781 157.92111 L52.73438 158.09602 L53.71094 158.36340 L54.68750 158.78436 L55.66406 159.49655 L56.64063 160.88492 L57.61719 164.58298 L58.59375 200.00000 L59.57031 142.70992 L60.54688 150.31874 L61.52344 152.40627 L62.50000 153.37357 L63.47656 153.92694 L64.45313 154.28239 L65.42969 154.52821 L66.40625 154.70702 L67.38281 154.84218 L68.35938 154.94728 L69.33594 155.03088 L70.31250 155.09865 L71.28906 155.15439 L72.26563 155.20085 L73.24219 155.23999 L74.21875 155.27327 L75.19531 155.30185 L76.17188 155.32652 L77.14844 155.34796 L78.12500 155.36674 L79.10156 155.38326 L80.07813 155.39780 L81.05469 155.41080 L82.03125 155.42232 L83.00781 155.43242 L83.98438 155.44156 L84.96094 155.45010 L85.93750 155.45773 L86.91406 155.46442 L87.89063 155.47060 L88.86719 155.47630 L89.84375 155.48128 L90.82031 155.48599 L91.79688 155.49017 L92.77344 155.49411 L93.75000 155.49773 L94.72656 155.50101 L95.70313 155.50404 L96.67969 155.50684 L97.65625 155.50943 L98.63281 155.51178 L99.60938 155.51402 L100.58594 155.51608 L101.56250 155.51794 L102.53906 155.51973 L103.51563 155.52139 L104.49219 155.52284 L105.46875 155.52434 L106.44531 155.52570 L107.42188 155.52666 L108.39844 155.52805 L109.37500 155.52908 L110.35156 155.53026 L111.32813 155.53110 L112.30469 155.53197 L113.28125 155.53285 L114.25781 155.53360 L115.23438 155.53430 L116.21094 155.53499 L117.18750 155.53564 L118.16406 155.53625 L119.14063 155.53683 L120.11719 155.53737 L121.09375 155.53789 L122.07031 155.53833 L123.04688 155.53877 L124.02344 155.53922 L125.00000 155.53961 L125.97656 155.53999 L126.95313 155.54033 L127.92969 155.54066 L128.90625 155.54097 L129.88281 155.54129 L130.85938 155.54156 L131.83594 155.54176 L132.81250 155.54208 L133.78906 155.54239 L134.76563 155.54257 L135.74219 155.54277 L136.71875 155.54292 L137.69531 155.54314 L138.67188 155.54349 L139.64844 155.54352 L140.62500 155.54369 L141.60156 155.54385 L142.57813 155.54396 L143.55469 155.54410 L144.53125 155.54424 L145.50781 155.54434 L146.48438 155.54448 L147.46094 155.54459 L148.43750 155.54466 L149.41406 155.54477 L150.39063 155.54486 L151.36719 155.54494 L152.34375 155.54504 L153.32031 155.54512 L154.29688 155.54517 L155.27344 155.54524 L156.25000 155.54536 L157.22656 155.54535 L158.20313 155.54555 L159.17969 155.54546 L160.15625 155.54558 L161.13281 155.54559 L162.10938 155.54562 L163.08594 155.54565 L164.06250 155.54568 L165.03906 155.54576 L166.01563 155.54582 L166.99219 155.54584 L167.96875 155.54584 L168.94531 155.54588 L169.92188 155.54593 L170.89844 155.54594 L171.87500 155.54596 L172.85156 155.54602 L173.82813 155.54604 L174.80469 155.54601 L175.78125 155.54604 L176.75781 155.54607 L177.73438 155.54608 L178.71094 155.54611 L179.68750 155.54610 L180.66406 155.54611 L181.64063 155.54614 L182.61719 155.54617 L183.59375 155.54613 L184.57031 155.54611 L185.54688 155.54616 L186.52344 155.54616 L187.50000 155.54613 L188.47656 155.54617 L189.45313 155.54617 L190.42969 155.54620 L191.40625 155.54617 L192.38281 155.54617 L193.35938 155.54619 L194.33594 155.54616 L195.31250 155.54616 L196.28906 155.54619 L197.26563 155.54619 L198.24219 155.54619 L199.21875 155.54616 L200.19531 155.54617 L201.17188 155.54617 L202.14844 155.54616 L203.12500 155.54619 L204.10156 155.54607 L205.07813 155.54602 L206.05469 155.54625 L207.03125 155.54617 L208.00781 155.54616 L208.98438 155.54610 L209.96094 155.54614 L210.93750 155.54614 L211.91406 155.54611 L212.89063 155.54611 L213.86719 155.54614 L214.84375 155.54611 L215.82031 155.54610 L216.79688 155.54611 L217.77344 155.54607 L218.75000 155.54607 L219.72656 155.54607 L220.70313 155.54605 L221.67969 155.54608 L222.65625 155.54605 L223.63281 155.54604 L224.60938 155.54604 L225.58594 155.54602 L226.56250 155.54602 L227.53906 155.54602 L228.51563 155.54601 L229.49219 155.54599 L230.46875 155.54599 L231.44531 155.54597 L232.42188 155.54591 L233.39844 155.54593 L234.37500 155.54596 L235.35156 155.54593 L236.32813 155.54590 L237.30469 155.54593 L238.28125 155.54596 L239.25781 155.54591 L240.23438 155.54588 L241.21094 155.54588 L242.18750 155.54588 L243.16406 155.54587 L244.14063 155.54585 L245.11719 155.54585 L246.09375 155.54585 L247.07031 155.54582 L248.04688 155.54582 L249.02344 155.54584 L250.00000 155.54581 L250.97656 155.54579 L251.95313 155.54579 L252.92969 155.54578 L253.90625 155.54579 L254.88281 155.54578 L255.85938 155.54573 L256.83594 155.54568 L257.81250 155.54576 L258.78906 155.54573 L259.76563 155.54573 L260.74219 155.54573 L261.71875 155.54572 L262.69531 155.54572 L263.67188 155.54570 L264.64844 155.54564 L265.62500 155.54565 L266.60156 155.54565 L267.57813 155.54564 L268.55469 155.54565 L269.53125 155.54565 L270.50781 155.54562 L271.48438 155.54562 L272.46094 155.54561 L273.43750 155.54561 L274.41406 155.54559 L275.39063 155.54556 L276.36719 155.54558 L277.34375 155.54558 L278.32031 155.54552 L279.29688 155.54561 L280.27344 155.54553 L281.25000 155.54555 L282.22656 155.54556 L283.20313 155.54552 L284.17969 155.54555 L285.15625 155.54552 L286.13281 155.54552 L287.10938 155.54552 L288.08594 155.54547 L289.06250 155.54549 L290.03906 155.54547 L291.01563 155.54549 L291.99219 155.54547 L292.96875 155.54544 L293.94531 155.54547 L294.92188 155.54543 L295.89844 155.54543 L296.87500 155.54541 L297.85156 155.54541 L298.82813 155.54541 L299.80469 155.54539 L300.78125 155.54539 L301.75781 155.54541 L302.73438 155.54538 L303.71094 155.54539 L304.68750 155.54538 L305.66406 155.54535 L306.64063 155.54538 L307.61719 155.54538 L308.59375 155.54539 L309.57031 155.54530 L310.54688 155.54533 L311.52344 155.54521 L312.50000 155.54533 L313.47656 155.54529 L314.45313 155.54530 L315.42969 155.54532 L316.40625 155.54530 L317.38281 155.54529 L318.35938 155.54527 L319.33594 155.54527 L320.31250 155.54526 L321.28906 155.54527 L322.26563 155.54527 L323.24219 155.54524 L324.21875 155.54524 L325.19531 155.54524 L326.17188 155.54524 L327.14844 155.54523 L328.12500 155.54523 L329.10156 155.54521 L330.07813 155.54520 L331.05469 155.54523 L332.03125 155.54521 L333.00781 155.54518 L333.98438 155.54518 L334.96094 155.54520 L335.93750 155.54518 L336.91406 155.54517 L337.89063 155.54514 L338.86719 155.54520 L339.84375 155.54518 L340.82031 155.54518 L341.79688 155.54514 L342.77344 155.54514 L343.75000 155.54510 L344.72656 155.54512 L345.70313 155.54509 L346.67969 155.54517 L347.65625 155.54512 L348.63281 155.54510 L349.60938 155.54514 L350.58594 155.54512 L351.56250 155.54512 L352.53906 155.54510 L353.51563 155.54510 L354.49219 155.54510 L355.46875 155.54509 L356.44531 155.54510 L357.42188 155.54503 L358.39844 155.54507 L359.37500 155.54507 L360.35156 155.54506 L361.32813 155.54506 L362.30469 155.54504 L363.28125 155.54507 L364.25781 155.54506 L365.23438 155.54504 L366.21094 155.54504 L367.18750 155.54503 L368.16406 155.54503 L369.14063 155.54503 L370.11719 155.54503 L371.09375 155.54506 L372.07031 155.54501 L373.04688 155.54501 L374.02344 155.54503 L375.00000 155.54498 L375.97656 155.54510 L376.95313 155.54500 L377.92969 155.54501 L378.90625 155.54495 L379.88281 155.54500 L380.85938 155.54495 L381.83594 155.54495 L382.81250 155.54497 L383.78906 155.54498 L384.76563 155.54498 L385.74219 155.54495 L386.71875 155.54498 L387.69531 155.54495 L388.67188 155.54497 L389.64844 155.54492 L390.62500 155.54495 L391.60156 155.54497 L392.57813 155.54492 L393.55469 155.54495 L394.53125 155.54495 L395.50781 155.54494 L396.48438 155.54494 L397.46094 155.54494 L398.43750 155.54494 L399.41406 155.54492 L400.39063 155.54491 L401.36719 155.54491 L402.34375 155.54492 L403.32031 155.54492 L404.29688 155.54492 L405.27344 155.54489 L406.25000 155.54491 L407.22656 155.54489 L408.20313 155.54497 L409.17969 155.54488 L410.15625 155.54489 L411.13281 155.54491 L412.10938 155.54489 L413.08594 155.54489 L414.06250 155.54488 L415.03906 155.54489 L416.01563 155.54489 L416.99219 155.54488 L417.96875 155.54489 L418.94531 155.54491 L419.92188 155.54485 L420.89844 155.54486 L421.87500 155.54486 L422.85156 155.54486 L423.82813 155.54486 L424.80469 155.54485 L425.78125 155.54485 L426.75781 155.54485 L427.73438 155.54486 L428.71094 155.54486 L429.68750 155.54485 L430.66406 155.54485 L431.64063 155.54485 L432.61719 155.54488 L433.59375 155.54486 L434.57031 155.54483 L435.54688 155.54485 L436.52344 155.54485 L437.50000 155.54482 L438.47656 155.54485 L439.45313 155.54485 L440.42969 155.54485 L441.40625 155.54483 L442.38281 155.54485 L443.35938 155.54483 L444.33594 155.54483 L445.31250 155.54482 L446.28906 155.54483 L447.26563 155.54485 L448.24219 155.54482 L449.21875 155.54483 L450.19531 155.54483 L451.17188 155.54477 L452.14844 155.54478 L453.12500 155.54482 L454.10156 155.54480 L455.07813 155.54480 L456.05469 155.54486 L457.03125 155.54480 L458.00781 155.54482 L458.98438 155.54480 L459.96094 155.54480 L460.93750 155.54480 L461.91406 155.54478 L462.89063 155.54482 L463.86719 155.54480 L464.84375 155.54483 L465.82031 155.54482 L466.79688 155.54482 L467.77344 155.54482 L468.75000 155.54478 L469.72656 155.54480 L470.70313 155.54480 L471.67969 155.54478 L472.65625 155.54480 L473.63281 155.54478 L474.60938 155.54480 L475.58594 155.54478 L476.56250 155.54480 L477.53906 155.54482 L478.51563 155.54478 L479.49219 155.54480 L480.46875 155.54480 L481.44531 155.54478 L482.42188 155.54482 L483.39844 155.54483 L484.37500 155.54478 L485.35156 155.54480 L486.32813 155.54482 L487.30469 155.54478 L488.28125 155.54480 L489.25781 155.54478 L490.23438 155.54478 L491.21094 155.54480 L492.18750 155.54478 L493.16406 155.54475 L494.14063 155.54478 L495.11719 155.54480 L496.09375 155.54482 L497.07031 155.54478 L498.04688 155.54478 L499.02344 155.54480 L500.00000 155.54482 L500.97656 155.54480 L501.95313 155.54478 L502.92969 155.54478 L503.90625 155.54482 L504.88281 155.54480 L505.85938 155.54478 L506.83594 155.54475 L507.81250 155.54478 L508.78906 155.54480 L509.76563 155.54478 L510.74219 155.54478 L511.71875 155.54480 L512.69531 155.54478 L513.67188 155.54482 L514.64844 155.54480 L515.62500 155.54478 L516.60156 155.54483 L517.57813 155.54482 L518.55469 155.54478 L519.53125 155.54480 L520.50781 155.54480 L521.48438 155.54478 L522.46094 155.54482 L523.43750 155.54480 L524.41406 155.54478 L525.39063 155.54480 L526.36719 155.54478 L527.34375 155.54480 L528.32031 155.54478 L529.29688 155.54480 L530.27344 155.54480 L531.25000 155.54478 L532.22656 155.54480 L533.20313 155.54482 L534.17969 155.54482 L535.15625 155.54483 L536.13281 155.54480 L537.10938 155.54480 L538.08594 155.54478 L539.06250 155.54480 L540.03906 155.54480 L541.01563 155.54480 L541.99219 155.54482 L542.96875 155.54480 L543.94531 155.54486 L544.92188 155.54480 L545.89844 155.54480 L546.87500 155.54482 L547.85156 155.54478 L548.82813 155.54477 L549.80469 155.54483 L550.78125 155.54483 L551.75781 155.54482 L552.73438 155.54485 L553.71094 155.54483 L554.68750 155.54482 L555.66406 155.54483 L556.64063 155.54483 L557.61719 155.54485 L558.59375 155.54483 L559.57031 155.54485 L560.54688 155.54485 L561.52344 155.54485 L562.50000 155.54482 L563.47656 155.54485 L564.45313 155.54485 L565.42969 155.54483 L566.40625 155.54486 L567.38281 155.54488 L568.35938 155.54485 L569.33594 155.54485 L570.31250 155.54485 L571.28906 155.54486 L572.26563 155.54486 L573.24219 155.54485 L574.21875 155.54485 L575.19531 155.54485 L576.17188 155.54486 L577.14844 155.54486 L578.12500 155.54486 L579.10156 155.54486 L580.07813 155.54485 L581.05469 155.54491 L582.03125 155.54489 L583.00781 155.54488 L583.98438 155.54489 L584.96094 155.54489 L585.93750 155.54488 L586.91406 155.54489 L587.89063 155.54489 L588.86719 155.54491 L589.84375 155.54489 L590.82031 155.54488 L591.79688 155.54497 L592.77344 155.54489 L593.75000 155.54491 L594.72656 155.54489 L595.70313 155.54492 L596.67969 155.54492 L597.65625 155.54491 L598.63281 155.54491 L599.60938 155.54491 L600.58594 155.54492 L601.56250 155.54494 L602.53906 155.54494 L603.51563 155.54494 L604.49219 155.54494 L605.46875 155.54495 L606.44531 155.54495 L607.42188 155.54492 L608.39844 155.54495 L609.37500 155.54495 L610.35156 155.54492 L611.32813 155.54497 L612.30469 155.54495 L613.28125 155.54498 L614.25781 155.54495 L615.23438 155.54498 L616.21094 155.54498 L617.18750 155.54497 L618.16406 155.54495 L619.14063 155.54495 L620.11719 155.54500 L621.09375 155.54495 L622.07031 155.54501 L623.04688 155.54500 L624.02344 155.54510 L625.00000 155.54498 L625.97656 155.54503 L626.95313 155.54501 L627.92969 155.54501 L628.90625 155.54506 L629.88281 155.54503 L630.85938 155.54503 L631.83594 155.54503 L632.81250 155.54503 L633.78906 155.54504 L634.76563 155.54504 L635.74219 155.54506 L636.71875 155.54507 L637.69531 155.54504 L638.67188 155.54506 L639.64844 155.54506 L640.62500 155.54507 L641.60156 155.54507 L642.57813 155.54503 L643.55469 155.54510 L644.53125 155.54509 L645.50781 155.54510 L646.48438 155.54510 L647.46094 155.54510 L648.43750 155.54512 L649.41406 155.54512 L650.39063 155.54514 L651.36719 155.54510 L652.34375 155.54512 L653.32031 155.54517 L654.29688 155.54509 L655.27344 155.54512 L656.25000 155.54510 L657.22656 155.54514 L658.20313 155.54514 L659.17969 155.54518 L660.15625 155.54518 L661.13281 155.54520 L662.10938 155.54514 L663.08594 155.54517 L664.06250 155.54518 L665.03906 155.54520 L666.01563 155.54518 L666.99219 155.54518 L667.96875 155.54521 L668.94531 155.54523 L669.92188 155.54520 L670.89844 155.54521 L671.87500 155.54523 L672.85156 155.54523 L673.82813 155.54524 L674.80469 155.54524 L675.78125 155.54524 L676.75781 155.54524 L677.73438 155.54527 L678.71094 155.54527 L679.68750 155.54526 L680.66406 155.54527 L681.64063 155.54527 L682.61719 155.54529 L683.59375 155.54530 L684.57031 155.54532 L685.54688 155.54530 L686.52344 155.54529 L687.50000 155.54533 L688.47656 155.54521 L689.45313 155.54533 L690.42969 155.54530 L691.40625 155.54539 L692.38281 155.54538 L693.35938 155.54538 L694.33594 155.54535 L695.31250 155.54538 L696.28906 155.54539 L697.26563 155.54538 L698.24219 155.54541 L699.21875 155.54539 L700.19531 155.54539 L701.17188 155.54541 L702.14844 155.54541 L703.12500 155.54541 L704.10156 155.54543 L705.07813 155.54543 L706.05469 155.54547 L707.03125 155.54544 L708.00781 155.54547 L708.98438 155.54549 L709.96094 155.54547 L710.93750 155.54549 L711.91406 155.54547 L712.89063 155.54552 L713.86719 155.54552 L714.84375 155.54552 L715.82031 155.54555 L716.79688 155.54553 L717.77344 155.54556 L718.75000 155.54555 L719.72656 155.54553 L720.70313 155.54561 L721.67969 155.54552 L722.65625 155.54558 L723.63281 155.54558 L724.60938 155.54556 L725.58594 155.54559 L726.56250 155.54561 L727.53906 155.54561 L728.51563 155.54562 L729.49219 155.54562 L730.46875 155.54565 L731.44531 155.54565 L732.42188 155.54564 L733.39844 155.54565 L734.37500 155.54565 L735.35156 155.54564 L736.32813 155.54570 L737.30469 155.54572 L738.28125 155.54572 L739.25781 155.54573 L740.23438 155.54573 L741.21094 155.54573 L742.18750 155.54576 L743.16406 155.54568 L744.14063 155.54573 L745.11719 155.54576 L746.09375 155.54579 L747.07031 155.54578 L748.04688 155.54579 L749.02344 155.54579 L750.00000 155.54581 L750.97656 155.54584 L751.95313 155.54582 L752.92969 155.54582 L753.90625 155.54585 L754.88281 155.54585 L755.85938 155.54585 L756.83594 155.54587 L757.81250 155.54588 L758.78906 155.54588 L759.76563 155.54588 L760.74219 155.54591 L761.71875 155.54596 L762.69531 155.54593 L763.67188 155.54590 L764.64844 155.54593 L765.62500 155.54596 L766.60156 155.54593 L767.57813 155.54593 L768.55469 155.54597 L769.53125 155.54599 L770.50781 155.54599 L771.48438 155.54601 L772.46094 155.54602 L773.43750 155.54602 L774.41406 155.54602 L775.39063 155.54604 L776.36719 155.54604 L777.34375 155.54605 L778.32031 155.54607 L779.29688 155.54605 L780.27344 155.54607 L781.25000 155.54608 L782.22656 155.54607 L783.20313 155.54611 L784.17969 155.54610 L785.15625 155.54611 L786.13281 155.54614 L787.10938 155.54611 L788.08594 155.54611 L789.06250 155.54614 L790.03906 155.54614 L791.01563 155.54610 L791.99219 155.54616 L792.96875 155.54617 L793.94531 155.54625 L794.92188 155.54602 L795.89844 155.54607 L796.87500 155.54619 L797.85156 155.54616 L798.82813 155.54617 L799.80469 155.54617 L800.78125 155.54616 L801.75781 155.54619 L802.73438 155.54619 L803.71094 155.54619 L804.68750 155.54616 L805.66406 155.54616 L806.64063 155.54619 L807.61719 155.54617 L808.59375 155.54619 L809.57031 155.54622 L810.54688 155.54617 L811.52344 155.54617 L812.50000 155.54613 L813.47656 155.54616 L814.45313 155.54616 L815.42969 155.54611 L816.40625 155.54613 L817.38281 155.54617 L818.35938 155.54614 L819.33594 155.54611 L820.31250 155.54610 L821.28906 155.54611 L822.26563 155.54608 L823.24219 155.54607 L824.21875 155.54604 L825.19531 155.54601 L826.17188 155.54604 L827.14844 155.54602 L828.12500 155.54596 L829.10156 155.54594 L830.07813 155.54593 L831.05469 155.54590 L832.03125 155.54584 L833.00781 155.54584 L833.98438 155.54582 L834.96094 155.54576 L835.93750 155.54568 L836.91406 155.54565 L837.89063 155.54562 L838.86719 155.54559 L839.84375 155.54558 L840.82031 155.54546 L841.79688 155.54555 L842.77344 155.54535 L843.75000 155.54536 L844.72656 155.54524 L845.70313 155.54517 L846.67969 155.54512 L847.65625 155.54504 L848.63281 155.54494 L849.60938 155.54486 L850.58594 155.54477 L851.56250 155.54466 L852.53906 155.54459 L853.51563 155.54448 L854.49219 155.54434 L855.46875 155.54424 L856.44531 155.54410 L857.42188 155.54396 L858.39844 155.54385 L859.37500 155.54369 L860.35156 155.54352 L861.32813 155.54349 L862.30469 155.54314 L863.28125 155.54292 L864.25781 155.54277 L865.23438 155.54257 L866.21094 155.54239 L867.18750 155.54208 L868.16406 155.54176 L869.14063 155.54156 L870.11719 155.54129 L871.09375 155.54097 L872.07031 155.54066 L873.04688 155.54033 L874.02344 155.53999 L875.00000 155.53961 L875.97656 155.53922 L876.95313 155.53877 L877.92969 155.53833 L878.90625 155.53789 L879.88281 155.53737 L880.85938 155.53683 L881.83594 155.53625 L882.81250 155.53564 L883.78906 155.53499 L884.76563 155.53430 L885.74219 155.53360 L886.71875 155.53285 L887.69531 155.53197 L888.67188 155.53110 L889.64844 155.53026 L890.62500 155.52908 L891.60156 155.52805 L892.57813 155.52666 L893.55469 155.52570 L894.53125 155.52434 L895.50781 155.52284 L896.48438 155.52139 L897.46094 155.51973 L898.43750 155.51794 L899.41406 155.51608 L900.39063 155.51402 L901.36719 155.51178 L902.34375 155.50943 L903.32031 155.50684 L904.29688 155.50404 L905.27344 155.50101 L906.25000 155.49773 L907.22656 155.49411 L908.20313 155.49019 L909.17969 155.48599 L910.15625 155.48128 L911.13281 155.47630 L912.10938 155.47060 L913.08594 155.46442 L914.06250 155.45773 L915.03906 155.45010 L916.01563 155.44156 L916.99219 155.43242 L917.96875 155.42232 L918.94531 155.41080 L919.92188 155.39780 L920.89844 155.38326 L921.87500 155.36674 L922.85156 155.34796 L923.82813 155.32652 L924.80469 155.30185 L925.78125 155.27327 L926.75781 155.23999 L927.73438 155.20085 L928.71094 155.15439 L929.68750 155.09865 L930.66406 155.03090 L931.64063 154.94728 L932.61719 154.84218 L933.59375 154.70702 L934.57031 154.52821 L935.54688 154.28241 L936.52344 153.92694 L937.50000 153.37357 L938.47656 152.40628 L939.45313 150.31874 L940.42969 142.70993 L941.40625 199.99997 L942.38281 164.58296 L943.35938 160.88492 L944.33594 159.49654 L945.31250 158.78436 L946.28906 158.36340 L947.26563 158.09601 L948.24219 157.92111 L949.21875 157.80783 L950.19531 157.73929 L951.17188 157.70581 L952.14844 157.70213 L953.12500 157.72575 L954.10156 157.77628 L955.07813 157.85529 L956.05469 157.96654 L957.03125 158.11607 L958.00781 158.31412 L958.98438 158.57664 L959.96094 158.92891 L960.93750 159.41524 L961.91406 160.11572 L962.89063 161.19453 L963.86719 163.04514 L964.84375 166.90442 L965.82031 179.72008 L966.79688 0.00003 L967.77344 137.40060 L968.75000 145.97252 L969.72656 149.06293 L970.70313 150.65096 L971.67969 151.61494 L972.65625 152.26022 L973.63281 152.72112 L974.60938 153.06572 L975.58594 153.33226 L976.56250 153.54398 L977.53906 153.71562 L978.51563 153.85712 L979.49219 153.97542 L980.46875 154.07539 L981.44531 154.16064 L982.42188 154.23398 L983.39844 154.29741 L984.37500 154.35239 L985.35156 154.40044 L986.32813 154.44257 L987.30469 154.47935 L988.28125 154.51164 L989.25781 154.53995 L990.23438 154.56444 L991.21094 154.58592 L992.18750 154.60451 L993.16406 154.62041 L994.14063 154.63373 L995.11719 154.64481 L996.09375 154.65373 L997.07031 154.66046 L998.04688 154.66530 L999.02344 154.66812" /><path fill="none" stroke="#000000" d="M0 300.00000  L0.00000 300.00000  L0.97656 300.00275  L1.95313 300.00549  L2.92969 300.00812  L3.90625 300.01068  L4.88281 300.01318  L5.85938 300.01538  L6.83594 300.01743  L7.81250 300.01932  L8.78906 300.02057  L9.76563 300.02167  L10.74219 300.02213  L11.71875 300.02219  L12.69531 300.02145  L13.67188 300.01990  L14.64844 300.01736  L15.62500 300.01352  L16.60156 300.00824  L17.57813 300.00122  L18.55469 299.99188  L19.53125 299.97968  L20.50781 299.96399  L21.48438 299.94366  L22.46094 299.91742  L23.43750 299.88333  L24.41406 299.83853  L25.39063 299.77884  L26.36719 299.69769  L27.34375 299.58405  L28.32031 299.41833  L29.29688 299.16199  L30.27344 298.72672  L31.25000 297.85895  L32.22656 295.40912  L33.20313 255.73164  L34.17969 307.69925  L35.15625 304.02985  L36.13281 302.95166  L37.10938 302.45715  L38.08594 302.18942  L39.06250 302.03534  L40.03906 301.94803  L41.01563 301.90533  L41.99219 301.89542  L42.96875 301.91214  L43.94531 301.95245  L44.92188 302.01556  L45.89844 302.10226  L46.87500 302.21500  L47.85156 302.35809  L48.82813 302.53827  L49.80469 302.76569  L50.78125 303.05600  L51.75781 303.43381  L52.73438 303.93994  L53.71094 304.64667  L54.68750 305.69467  L55.66406 307.39911  L56.64063 310.63934  L57.61719 319.14255  L58.59375 400.00000  L59.57031 269.36273  L60.54688 286.77316  L61.52344 291.58432  L62.50000 293.83661  L63.47656 295.14142  L64.45313 295.99207  L65.42969 296.59009  L66.40625 297.03314  L67.38281 297.37439  L68.35938 297.64517  L69.33594 297.86517  L70.31250 298.04739  L71.28906 298.20074  L72.26563 298.33157  L73.24219 298.44446  L74.21875 298.54279  L75.19531 298.62927  L76.17188 298.70587  L77.14844 298.77420  L78.12500 298.83551  L79.10156 298.89084  L80.07813 298.94101  L81.05469 298.98669  L82.03125 299.02856  L83.00781 299.06699  L83.98438 299.10217  L84.96094 299.13477  L85.93750 299.16519  L86.91406 299.19339  L87.89063 299.21960  L88.86719 299.24417  L89.84375 299.26718  L90.82031 299.28876  L91.79688 299.30902  L92.77344 299.32813  L93.75000 299.34616  L94.72656 299.36322  L95.70313 299.37936  L96.67969 299.39468  L97.65625 299.40924  L98.63281 299.42303  L99.60938 299.43622  L100.58594 299.44879  L101.56250 299.46075  L102.53906 299.47223  L103.51563 299.48318  L104.49219 299.49365  L105.46875 299.50372  L106.44531 299.51343  L107.42188 299.52261  L108.39844 299.53149  L109.37500 299.53998  L110.35156 299.54837  L111.32813 299.55630  L112.30469 299.56393  L113.28125 299.57138  L114.25781 299.57852  L115.23438 299.58539  L116.21094 299.59210  L117.18750 299.59854  L118.16406 299.60477  L119.14063 299.61084  L120.11719 299.61670  L121.09375 299.62238  L122.07031 299.62793  L123.04688 299.63327  L124.02344 299.63849  L125.00000 299.64355  L125.97656 299.64844  L126.95313 299.65323  L127.92969 299.65790  L128.90625 299.66241  L129.88281 299.66684  L130.85938 299.67114  L131.83594 299.67532  L132.81250 299.67935  L133.78906 299.68335  L134.76563 299.68732  L135.74219 299.69110  L136.71875 299.69479  L137.69531 299.69833  L138.67188 299.70187  L139.64844 299.70544  L140.62500 299.70880  L141.60156 299.71207  L142.57813 299.71533  L143.55469 299.71851  L144.53125 299.72162  L145.50781 299.72464  L146.48438 299.72760  L147.46094 299.73050  L148.43750 299.73334  L149.41406 299.73615  L150.39063 299.73889  L151.36719 299.74158  L152.34375 299.74423  L153.32031 299.74680  L154.29688 299.74933  L155.27344 299.75186  L156.25000 299.75427  L157.22656 299.75662  L158.20313 299.75903  L159.17969 299.76141  L160.15625 299.76367  L161.13281 299.76587  L162.10938 299.76810  L163.08594 299.77026  L164.06250 299.77237  L165.03906 299.77444  L166.01563 299.77655  L166.99219 299.77856  L167.96875 299.78055  L168.94531 299.78250  L169.92188 299.78445  L170.89844 299.78635  L171.87500 299.78821  L172.85156 299.79004  L173.82813 299.79190  L174.80469 299.79370  L175.78125 299.79544  L176.75781 299.79718  L177.73438 299.79889  L178.71094 299.80060  L179.68750 299.80225  L180.66406 299.80389  L181.64063 299.80548  L182.61719 299.80713  L183.59375 299.80872  L184.57031 299.81024  L185.54688 299.81177  L186.52344 299.81329  L187.50000 299.81479  L188.47656 299.81622  L189.45313 299.81772  L190.42969 299.81912  L191.40625 299.82056  L192.38281 299.82196  L193.35938 299.82336  L194.33594 299.82474  L195.31250 299.82605  L196.28906 299.82739  L197.26563 299.82870  L198.24219 299.83005  L199.21875 299.83130  L200.19531 299.83258  L201.17188 299.83386  L202.14844 299.83508  L203.12500 299.83633  L204.10156 299.83759  L205.07813 299.83865  L206.05469 299.83984  L207.03125 299.84113  L208.00781 299.84225  L208.98438 299.84341  L209.96094 299.84454  L210.93750 299.84567  L211.91406 299.84680  L212.89063 299.84787  L213.86719 299.84900  L214.84375 299.85010  L215.82031 299.85114  L216.79688 299.85220  L217.77344 299.85324  L218.75000 299.85431  L219.72656 299.85532  L220.70313 299.85632  L221.67969 299.85736  L222.65625 299.85834  L223.63281 299.85934  L224.60938 299.86032  L225.58594 299.86130  L226.56250 299.86224  L227.53906 299.86322  L228.51563 299.86414  L229.49219 299.86508  L230.46875 299.86603  L231.44531 299.86694  L232.42188 299.86786  L233.39844 299.86871  L234.37500 299.86963  L235.35156 299.87051  L236.32813 299.87140  L237.30469 299.87225  L238.28125 299.87314  L239.25781 299.87402  L240.23438 299.87482  L241.21094 299.87570  L242.18750 299.87653  L243.16406 299.87735  L244.14063 299.87817  L245.11719 299.87897  L246.09375 299.87982  L247.07031 299.88058  L248.04688 299.88141  L249.02344 299.88220  L250.00000 299.88300  L250.97656 299.88376  L251.95313 299.88452  L252.92969 299.88531  L253.90625 299.88605  L254.88281 299.88681  L255.85938 299.88757  L256.83594 299.88834  L257.81250 299.88901  L258.78906 299.88977  L259.76563 299.89050  L260.74219 299.89124  L261.71875 299.89194  L262.69531 299.89267  L263.67188 299.89337  L264.64844 299.89404  L265.62500 299.89478  L266.60156 299.89548  L267.57813 299.89615  L268.55469 299.89682  L269.53125 299.89752  L270.50781 299.89819  L271.48438 299.89886  L272.46094 299.89954  L273.43750 299.90021  L274.41406 299.90085  L275.39063 299.90149  L276.36719 299.90216  L277.34375 299.90277  L278.32031 299.90341  L279.29688 299.90405  L280.27344 299.90472  L281.25000 299.90533  L282.22656 299.90591  L283.20313 299.90656  L284.17969 299.90723  L285.15625 299.90781  L286.13281 299.90842  L287.10938 299.90906  L288.08594 299.90964  L289.06250 299.91022  L290.03906 299.91083  L291.01563 299.91144  L291.99219 299.91202  L292.96875 299.91260  L293.94531 299.91318  L294.92188 299.91376  L295.89844 299.91434  L296.87500 299.91492  L297.85156 299.91547  L298.82813 299.91605  L299.80469 299.91660  L300.78125 299.91718  L301.75781 299.91772  L302.73438 299.91827  L303.71094 299.91882  L304.68750 299.91940  L305.66406 299.91992  L306.64063 299.92050  L307.61719 299.92102  L308.59375 299.92157  L309.57031 299.92215  L310.54688 299.92264  L311.52344 299.92316  L312.50000 299.92368  L313.47656 299.92419  L314.45313 299.92471  L315.42969 299.92523  L316.40625 299.92578  L317.38281 299.92627  L318.35938 299.92682  L319.33594 299.92731  L320.31250 299.92780  L321.28906 299.92831  L322.26563 299.92883  L323.24219 299.92932  L324.21875 299.92981  L325.19531 299.93033  L326.17188 299.93082  L327.14844 299.93130  L328.12500 299.93182  L329.10156 299.93228  L330.07813 299.93277  L331.05469 299.93326  L332.03125 299.93375  L333.00781 299.93423  L333.98438 299.93469  L334.96094 299.93518  L335.93750 299.93567  L336.91406 299.93610  L337.89063 299.93658  L338.86719 299.93707  L339.84375 299.93753  L340.82031 299.93799  L341.79688 299.93848  L342.77344 299.93890  L343.75000 299.93936  L344.72656 299.93985  L345.70313 299.94025  L346.67969 299.94073  L347.65625 299.94119  L348.63281 299.94165  L349.60938 299.94208  L350.58594 299.94254  L351.56250 299.94299  L352.53906 299.94342  L353.51563 299.94388  L354.49219 299.94434  L355.46875 299.94476  L356.44531 299.94522  L357.42188 299.94562  L358.39844 299.94604  L359.37500 299.94647  L360.35156 299.94693  L361.32813 299.94736  L362.30469 299.94778  L363.28125 299.94821  L364.25781 299.94867  L365.23438 299.94907  L366.21094 299.94949  L367.18750 299.94992  L368.16406 299.95032  L369.14063 299.95074  L370.11719 299.95117  L371.09375 299.95160  L372.07031 299.95203  L373.04688 299.95242  L374.02344 299.95282  L375.00000 299.95325  L375.97656 299.95364  L376.95313 299.95410  L377.92969 299.95456  L378.90625 299.95486  L379.88281 299.95532  L380.85938 299.95572  L381.83594 299.95609  L382.81250 299.95651  L383.78906 299.95691  L384.76563 299.95731  L385.74219 299.95770  L386.71875 299.95810  L387.69531 299.95853  L388.67188 299.95892  L389.64844 299.95929  L390.62500 299.95969  L391.60156 299.96008  L392.57813 299.96048  L393.55469 299.96088  L394.53125 299.96127  L395.50781 299.96164  L396.48438 299.96204  L397.46094 299.96243  L398.43750 299.96283  L399.41406 299.96320  L400.39063 299.96359  L401.36719 299.96396  L402.34375 299.96436  L403.32031 299.96472  L404.29688 299.96512  L405.27344 299.96548  L406.25000 299.96588  L407.22656 299.96625  L408.20313 299.96664  L409.17969 299.96704  L410.15625 299.96741  L411.13281 299.96777  L412.10938 299.96817  L413.08594 299.96851  L414.06250 299.96890  L415.03906 299.96927  L416.01563 299.96964  L416.99219 299.97003  L417.96875 299.97040  L418.94531 299.97076  L419.92188 299.97113  L420.89844 299.97150  L421.87500 299.97186  L422.85156 299.97223  L423.82813 299.97260  L424.80469 299.97296  L425.78125 299.97333  L426.75781 299.97369  L427.73438 299.97406  L428.71094 299.97443  L429.68750 299.97479  L430.66406 299.97513  L431.64063 299.97549  L432.61719 299.97589  L433.59375 299.97623  L434.57031 299.97659  L435.54688 299.97696  L436.52344 299.97733  L437.50000 299.97766  L438.47656 299.97803  L439.45313 299.97839  L440.42969 299.97876  L441.40625 299.97910  L442.38281 299.97949  L443.35938 299.97983  L444.33594 299.98019  L445.31250 299.98053  L446.28906 299.98090  L447.26563 299.98126  L448.24219 299.98160  L449.21875 299.98193  L450.19531 299.98233  L451.17188 299.98267  L452.14844 299.98300  L453.12500 299.98337  L454.10156 299.98370  L455.07813 299.98407  L456.05469 299.98444  L457.03125 299.98477  L458.00781 299.98511  L458.98438 299.98547  L459.96094 299.98581  L460.93750 299.98618  L461.91406 299.98651  L462.89063 299.98685  L463.86719 299.98721  L464.84375 299.98758  L465.82031 299.98792  L466.79688 299.98828  L467.77344 299.98862  L468.75000 299.98895  L469.72656 299.98929  L470.70313 299.98965  L471.67969 299.98999  L472.65625 299.99036  L473.63281 299.99069  L474.60938 299.99103  L475.58594 299.99139  L476.56250 299.99173  L477.53906 299.99207  L478.51563 299.99243  L479.49219 299.99277  L480.46875 299.99310  L481.44531 299.99344  L482.42188 299.99377  L483.39844 299.99414  L484.37500 299.99451  L485.35156 299.99484  L486.32813 299.99518  L487.30469 299.99554  L488.28125 299.99588  L489.25781 299.99622  L490.23438 299.99655  L491.21094 299.99692  L492.18750 299.99725  L493.16406 299.99759  L494.14063 299.99792  L495.11719 299.99826  L496.09375 299.99863  L497.07031 299.99896  L498.04688 299.99930  L499.02344 299.99966  L500.00000 300.00000  L500.97656 300.00034  L501.95313 300.00070  L502.92969 300.00104  L503.90625 300.00137  L504.88281 300.00174  L505.85938 300.00208  L506.83594 300.00241  L507.81250 300.00275  L508.78906 300.00308  L509.76563 300.00345  L510.74219 300.00378  L511.71875 300.00412  L512.69531 300.00446  L513.67188 300.00482  L514.64844 300.00516  L515.62500 300.00549  L516.60156 300.00586  L517.57813 300.00623  L518.55469 300.00656  L519.53125 300.00690  L520.50781 300.00723  L521.48438 300.00757  L522.46094 300.00793  L523.43750 300.00827  L524.41406 300.00861  L525.39063 300.00897  L526.36719 300.00931  L527.34375 300.00964  L528.32031 300.01001  L529.29688 300.01035  L530.27344 300.01071  L531.25000 300.01105  L532.22656 300.01138  L533.20313 300.01175  L534.17969 300.01208  L535.15625 300.01242  L536.13281 300.01279  L537.10938 300.01315  L538.08594 300.01349  L539.06250 300.01382  L540.03906 300.01419  L541.01563 300.01453  L541.99219 300.01489  L542.96875 300.01523  L543.94531 300.01556  L544.92188 300.01593  L545.89844 300.01630  L546.87500 300.01663  L547.85156 300.01700  L548.82813 300.01733  L549.80469 300.01767  L550.78125 300.01807  L551.75781 300.01840  L552.73438 300.01874  L553.71094 300.01910  L554.68750 300.01947  L555.66406 300.01981  L556.64063 300.02017  L557.61719 300.02051  L558.59375 300.02090  L559.57031 300.02124  L560.54688 300.02161  L561.52344 300.02197  L562.50000 300.02234  L563.47656 300.02267  L564.45313 300.02304  L565.42969 300.02341  L566.40625 300.02377  L567.38281 300.02411  L568.35938 300.02451  L569.33594 300.02487  L570.31250 300.02521  L571.28906 300.02557  L572.26563 300.02594  L573.24219 300.02631  L574.21875 300.02667  L575.19531 300.02704  L576.17188 300.02740  L577.14844 300.02777  L578.12500 300.02814  L579.10156 300.02850  L580.07813 300.02887  L581.05469 300.02924  L582.03125 300.02960  L583.00781 300.02997  L583.98438 300.03036  L584.96094 300.03073  L585.93750 300.03110  L586.91406 300.03149  L587.89063 300.03183  L588.86719 300.03223  L589.84375 300.03259  L590.82031 300.03296  L591.79688 300.03336  L592.77344 300.03375  L593.75000 300.03412  L594.72656 300.03452  L595.70313 300.03488  L596.67969 300.03528  L597.65625 300.03564  L598.63281 300.03604  L599.60938 300.03641  L600.58594 300.03680  L601.56250 300.03717  L602.53906 300.03757  L603.51563 300.03796  L604.49219 300.03836  L605.46875 300.03873  L606.44531 300.03912  L607.42188 300.03952  L608.39844 300.03992  L609.37500 300.04031  L610.35156 300.04071  L611.32813 300.04108  L612.30469 300.04147  L613.28125 300.04190  L614.25781 300.04230  L615.23438 300.04269  L616.21094 300.04309  L617.18750 300.04349  L618.16406 300.04391  L619.14063 300.04428  L620.11719 300.04468  L621.09375 300.04514  L622.07031 300.04544  L623.04688 300.04590  L624.02344 300.04636  L625.00000 300.04675  L625.97656 300.04718  L626.95313 300.04758  L627.92969 300.04797  L628.90625 300.04840  L629.88281 300.04883  L630.85938 300.04926  L631.83594 300.04968  L632.81250 300.05008  L633.78906 300.05051  L634.76563 300.05093  L635.74219 300.05133  L636.71875 300.05179  L637.69531 300.05222  L638.67188 300.05264  L639.64844 300.05307  L640.62500 300.05353  L641.60156 300.05396  L642.57813 300.05438  L643.55469 300.05478  L644.53125 300.05524  L645.50781 300.05566  L646.48438 300.05612  L647.46094 300.05658  L648.43750 300.05701  L649.41406 300.05746  L650.39063 300.05792  L651.36719 300.05835  L652.34375 300.05881  L653.32031 300.05927  L654.29688 300.05975  L655.27344 300.06015  L656.25000 300.06064  L657.22656 300.06110  L658.20313 300.06152  L659.17969 300.06201  L660.15625 300.06247  L661.13281 300.06293  L662.10938 300.06342  L663.08594 300.06390  L664.06250 300.06433  L665.03906 300.06482  L666.01563 300.06531  L666.99219 300.06577  L667.96875 300.06625  L668.94531 300.06674  L669.92188 300.06723  L670.89844 300.06772  L671.87500 300.06818  L672.85156 300.06870  L673.82813 300.06918  L674.80469 300.06967  L675.78125 300.07019  L676.75781 300.07068  L677.73438 300.07117  L678.71094 300.07169  L679.68750 300.07220  L680.66406 300.07269  L681.64063 300.07318  L682.61719 300.07373  L683.59375 300.07422  L684.57031 300.07477  L685.54688 300.07529  L686.52344 300.07581  L687.50000 300.07632  L688.47656 300.07684  L689.45313 300.07736  L690.42969 300.07785  L691.40625 300.07843  L692.38281 300.07898  L693.35938 300.07950  L694.33594 300.08008  L695.31250 300.08060  L696.28906 300.08118  L697.26563 300.08173  L698.24219 300.08228  L699.21875 300.08282  L700.19531 300.08340  L701.17188 300.08395  L702.14844 300.08453  L703.12500 300.08508  L704.10156 300.08566  L705.07813 300.08624  L706.05469 300.08682  L707.03125 300.08740  L708.00781 300.08798  L708.98438 300.08856  L709.96094 300.08917  L710.93750 300.08978  L711.91406 300.09036  L712.89063 300.09094  L713.86719 300.09158  L714.84375 300.09219  L715.82031 300.09277  L716.79688 300.09344  L717.77344 300.09409  L718.75000 300.09467  L719.72656 300.09528  L720.70313 300.09595  L721.67969 300.09659  L722.65625 300.09723  L723.63281 300.09784  L724.60938 300.09851  L725.58594 300.09915  L726.56250 300.09979  L727.53906 300.10046  L728.51563 300.10114  L729.49219 300.10181  L730.46875 300.10248  L731.44531 300.10318  L732.42188 300.10385  L733.39844 300.10452  L734.37500 300.10522  L735.35156 300.10596  L736.32813 300.10663  L737.30469 300.10733  L738.28125 300.10806  L739.25781 300.10876  L740.23438 300.10950  L741.21094 300.11023  L742.18750 300.11099  L743.16406 300.11166  L744.14063 300.11243  L745.11719 300.11319  L746.09375 300.11395  L747.07031 300.11469  L748.04688 300.11548  L749.02344 300.11624  L750.00000 300.11700  L750.97656 300.11780  L751.95313 300.11859  L752.92969 300.11942  L753.90625 300.12018  L754.88281 300.12103  L755.85938 300.12183  L756.83594 300.12265  L757.81250 300.12347  L758.78906 300.12430  L759.76563 300.12518  L760.74219 300.12598  L761.71875 300.12686  L762.69531 300.12775  L763.67188 300.12860  L764.64844 300.12949  L765.62500 300.13037  L766.60156 300.13129  L767.57813 300.13214  L768.55469 300.13306  L769.53125 300.13397  L770.50781 300.13492  L771.48438 300.13586  L772.46094 300.13678  L773.43750 300.13776  L774.41406 300.13870  L775.39063 300.13968  L776.36719 300.14066  L777.34375 300.14166  L778.32031 300.14264  L779.29688 300.14368  L780.27344 300.14468  L781.25000 300.14569  L782.22656 300.14676  L783.20313 300.14780  L784.17969 300.14886  L785.15625 300.14990  L786.13281 300.15100  L787.10938 300.15213  L788.08594 300.15320  L789.06250 300.15433  L790.03906 300.15546  L791.01563 300.15659  L791.99219 300.15775  L792.96875 300.15887  L793.94531 300.16016  L794.92188 300.16135  L795.89844 300.16241  L796.87500 300.16367  L797.85156 300.16492  L798.82813 300.16614  L799.80469 300.16742  L800.78125 300.16870  L801.75781 300.16995  L802.73438 300.17130  L803.71094 300.17261  L804.68750 300.17395  L805.66406 300.17526  L806.64063 300.17664  L807.61719 300.17804  L808.59375 300.17941  L809.57031 300.18088  L810.54688 300.18228  L811.52344 300.18378  L812.50000 300.18521  L813.47656 300.18671  L814.45313 300.18823  L815.42969 300.18976  L816.40625 300.19128  L817.38281 300.19287  L818.35938 300.19452  L819.33594 300.19611  L820.31250 300.19775  L821.28906 300.19940  L822.26563 300.20111  L823.24219 300.20282  L824.21875 300.20456  L825.19531 300.20630  L826.17188 300.20810  L827.14844 300.20996  L828.12500 300.21179  L829.10156 300.21365  L830.07813 300.21555  L831.05469 300.21750  L832.03125 300.21945  L833.00781 300.22144  L833.98438 300.22345  L834.96094 300.22556  L835.93750 300.22763  L836.91406 300.22974  L837.89063 300.23190  L838.86719 300.23413  L839.84375 300.23633  L840.82031 300.23859  L841.79688 300.24094  L842.77344 300.24338  L843.75000 300.24573  L844.72656 300.24814  L845.70313 300.25067  L846.67969 300.25320  L847.65625 300.25577  L848.63281 300.25842  L849.60938 300.26111  L850.58594 300.26385  L851.56250 300.26666  L852.53906 300.26950  L853.51563 300.27240  L854.49219 300.27536  L855.46875 300.27838  L856.44531 300.28149  L857.42188 300.28467  L858.39844 300.28793  L859.37500 300.29120  L860.35156 300.29456  L861.32813 300.29813  L862.30469 300.30164  L863.28125 300.30521  L864.25781 300.30890  L865.23438 300.31268  L866.21094 300.31665  L867.18750 300.32065  L868.16406 300.32468  L869.14063 300.32886  L870.11719 300.33316  L871.09375 300.33759  L872.07031 300.34210  L873.04688 300.34677  L874.02344 300.35156  L875.00000 300.35645  L875.97656 300.36151  L876.95313 300.36673  L877.92969 300.37207  L878.90625 300.37762  L879.88281 300.38330  L880.85938 300.38916  L881.83594 300.39523  L882.81250 300.40146  L883.78906 300.40790  L884.76563 300.41461  L885.74219 300.42148  L886.71875 300.42862  L887.69531 300.43607  L888.67188 300.44370  L889.64844 300.45163  L890.62500 300.46002  L891.60156 300.46851  L892.57813 300.47739  L893.55469 300.48657  L894.53125 300.49628  L895.50781 300.50635  L896.48438 300.51682  L897.46094 300.52777  L898.43750 300.53925  L899.41406 300.55121  L900.39063 300.56378  L901.36719 300.57697  L902.34375 300.59076  L903.32031 300.60532  L904.29688 300.62064  L905.27344 300.63678  L906.25000 300.65384  L907.22656 300.67188  L908.20313 300.69098  L909.17969 300.71124  L910.15625 300.73282  L911.13281 300.75583  L912.10938 300.78040  L913.08594 300.80661  L914.06250 300.83481  L915.03906 300.86523  L916.01563 300.89783  L916.99219 300.93301  L917.96875 300.97144  L918.94531 301.01331  L919.92188 301.05899  L920.89844 301.10916  L921.87500 301.16449  L922.85156 301.22580  L923.82813 301.29413  L924.80469 301.37073  L925.78125 301.45721  L926.75781 301.55554  L927.73438 301.66843  L928.71094 301.79926  L929.68750 301.95261  L930.66406 302.13483  L931.64063 302.35483  L932.61719 302.62561  L933.59375 302.96686  L934.57031 303.40991  L935.54688 304.00793  L936.52344 304.85858  L937.50000 306.16339  L938.47656 308.41568  L939.45313 313.22684  L940.42969 330.63727  L941.40625 200.00000  L942.38281 280.85745  L943.35938 289.36066  L944.33594 292.60089  L945.31250 294.30533  L946.28906 295.35333  L947.26563 296.06003  L948.24219 296.56619  L949.21875 296.94400  L950.19531 297.23431  L951.17188 297.46173  L952.14844 297.64191  L953.12500 297.78500  L954.10156 297.89774  L955.07813 297.98444  L956.05469 298.04755  L957.03125 298.08786  L958.00781 298.10458  L958.98438 298.09467  L959.96094 298.05197  L960.93750 297.96466  L961.91406 297.81058  L962.89063 297.54285  L963.86719 297.04834  L964.84375 295.97015  L965.82031 292.30072  L966.79688 344.26837  L967.77344 304.59091  L968.75000 302.14105  L969.72656 301.27328  L970.70313 300.83801  L971.67969 300.58167  L972.65625 300.41595  L973.63281 300.30231  L974.60938 300.22116  L975.58594 300.16147  L976.56250 300.11667  L977.53906 300.08258  L978.51563 300.05634  L979.49219 300.03601  L980.46875 300.02032  L981.44531 300.00812  L982.42188 299.99878  L983.39844 299.99176  L984.37500 299.98648  L985.35156 299.98264  L986.32813 299.98010  L987.30469 299.97855  L988.28125 299.97781  L989.25781 299.97787  L990.23438 299.97833  L991.21094 299.97943  L992.18750 299.98068  L993.16406 299.98260  L994.14063 299.98462  L995.11719 299.98682  L996.09375 299.98932  L997.07031 299.99188  L998.04688 299.99451  L999.02344 299.99725 " /></g><text x="1000.00000" dx="10" y="155.37775">[-0.12708;0.44250]</text><text x="1000.00000" dx="10" y="300.00000">[-0.43877;0.43877]</text></svg>