<svg xmlns="http://www.w3.org/2000/svg" version="1.1"><g stroke-width="0.6"><path fill="none" stroke="#000000" d="M0 48.23165 L1000.00000 48.23165" /><path fill="none" stroke="#000000" d="M0 300.00000 L1000.00000 300.00000" /><path fill="none" stroke="#000000" d="M500.00000 0 L500.00000 400.00000" /><path fill="none" stroke="#000000" d="M0 48.23165  L0.00000 47.10247 L0.48828 47.10875 L0.97656 47.06764 L1.46484 47.00782 L1.95313 47.13456 L2.44141 47.01738 L2.92969 47.06854 L3.41797 47.10069 L3.90625 47.09131 L4.39453 47.09809 L4.88281 47.04313 L5.37109 46.97378 L5.85938 47.11518 L6.34766 47.00358 L6.83594 47.04611 L7.32422 47.07256 L7.81250 47.05592 L8.30078 47.06747 L8.78906 46.99050 L9.27734 46.91003 L9.76563 47.07327 L10.25391 46.96383 L10.74219 46.99657 L11.23047 47.01976 L11.71875 46.98982 L12.20703 47.01256 L12.69531 46.89883 L13.18359 46.80483 L13.67188 47.00103 L14.16016 46.89059 L14.64844 46.91012 L15.13672 46.93235 L15.62500 46.87831 L16.11328 46.92425 L16.60156 46.74383 L17.08984 46.63297 L17.57813 46.88146 L18.06641 46.76726 L18.55469 46.76475 L19.04297 46.78921 L19.53125 46.68779 L20.01953 46.78430 L20.50781 46.46611 L20.99609 46.33471 L21.48438 46.67421 L21.97266 46.55629 L22.46094 46.50623 L22.94922 46.54026 L23.43750 46.32824 L23.92578 46.55555 L24.41406 45.88266 L24.90234 45.73146 L25.39063 46.26017 L25.87891 46.16043 L26.36719 45.96354 L26.85547 46.03836 L27.34375 45.45831 L27.83203 46.18965 L28.32031 44.07652 L28.80859 43.95396 L29.29688 45.07186 L29.78516 45.32891 L30.27344 44.18436 L30.76172 44.75668 L31.25000 40.70300 L31.73828 49.43574 L32.22656 13.38398 L32.71484 -0.00001 L33.20313 28.52284 L33.69141 200.00000 L34.17969 64.89576 L34.66797 61.71318 L35.15625 52.29373 L35.64453 56.57510 L36.13281 47.89410 L36.62109 50.77455 L37.10938 50.13552 L37.59766 51.04615 L38.08594 49.85752 L38.57422 49.91101 L39.06250 49.34492 L39.55078 49.73432 L40.03906 48.51159 L40.52734 49.08112 L41.01563 48.68050 L41.50391 49.03931 L41.99219 48.63053 L42.48047 48.66940 L42.96875 48.55735 L43.45703 48.55040 L43.94531 48.19395 L44.43359 48.34804 L44.92188 48.14647 L45.41016 48.34804 L45.89844 48.08104 L46.38672 48.11227 L46.87500 48.11997 L47.36328 47.92805 L47.85156 47.89957 L48.33984 47.73207 L48.82813 47.79702 L49.31641 47.90079 L49.80469 47.62655 L50.29297 47.64967 L50.78125 47.71358 L51.26953 47.26572 L51.75781 47.56261 L52.24609 46.65968 L52.73438 47.52144 L53.22266 47.45636 L53.71094 46.96871 L54.19922 46.95611 L54.68750 47.04555 L55.17578 45.60194 L55.66406 47.20185 L56.15234 40.68184 L56.64063 49.63288 L57.12891 49.03307 L57.61719 46.99972 L58.10547 52.02777 L58.59375 137.06845 L59.08203 16.19341 L59.57031 81.67811 L60.05859 29.35001 L60.54688 63.07254 L61.03516 55.54596 L61.52344 52.85530 L62.01172 51.65742 L62.50000 50.65547 L62.98828 50.17506 L63.47656 50.43934 L63.96484 48.20531 L64.45313 50.76913 L64.94141 50.08899 L65.42969 49.79648 L65.91797 49.54756 L66.40625 49.26687 L66.89453 49.27310 L67.38281 49.24273 L67.87109 48.55249 L68.35938 49.47322 L68.84766 49.22857 L69.33594 49.12973 L69.82422 49.00450 L70.31250 48.85729 L70.80078 48.91329 L71.28906 48.84758 L71.77734 48.52798 L72.26563 49.00642 L72.75391 48.88068 L73.24219 48.83327 L73.73047 48.75024 L74.21875 48.65604 L74.70703 48.71595 L75.19531 48.64825 L75.68359 48.47195 L76.17188 48.76610 L76.66016 48.69007 L77.14844 48.66324 L77.63672 48.60047 L78.12500 48.53428 L78.61328 48.58981 L79.10156 48.52666 L79.58984 48.41992 L80.07813 48.61902 L80.56641 48.56865 L81.05469 48.55201 L81.54297 48.50085 L82.03125 48.45185 L82.51953 48.50166 L83.00781 48.44415 L83.49609 48.37598 L83.98438 48.51942 L84.47266 48.48409 L84.96094 48.47319 L85.44922 48.42943 L85.93750 48.39201 L86.42578 48.43637 L86.91406 48.38419 L87.40234 48.33944 L87.89063 48.44736 L88.37891 48.42166 L88.86719 48.41427 L89.35547 48.37559 L89.84375 48.34645 L90.33203 48.38602 L90.82031 48.33852 L91.30859 48.30893 L91.79688 48.39277 L92.28516 48.37364 L92.77344 48.36851 L93.26172 48.33349 L93.75000 48.31057 L94.23828 48.34598 L94.72656 48.30254 L95.21484 48.28320 L95.70313 48.34999 L96.19141 48.33558 L96.67969 48.33195 L97.16797 48.29965 L97.65625 48.28156 L98.14453 48.31339 L98.63281 48.27345 L99.12109 48.26133 L99.60938 48.31558 L100.09766 48.30468 L100.58594 48.30208 L101.07422 48.27187 L101.56250 48.25765 L102.05078 48.28637 L102.53906 48.24943 L103.02734 48.24255 L103.51563 48.28732 L104.00391 48.27914 L104.49219 48.27724 L104.98047 48.24866 L105.46875 48.23761 L105.95703 48.26362 L106.44531 48.22927 L106.93359 48.22628 L107.42188 48.26373 L107.91016 48.25772 L108.39844 48.25628 L108.88672 48.22899 L109.37500 48.22058 L109.86328 48.24423 L110.35156 48.21211 L110.83984 48.21210 L111.32813 48.24376 L111.81641 48.23954 L112.30469 48.23838 L112.79297 48.21211 L113.28125 48.20597 L113.76953 48.22752 L114.25781 48.19735 L114.74609 48.19963 L115.23438 48.22666 L115.72266 48.22393 L116.21094 48.22294 L116.69922 48.19747 L117.18750 48.19329 L117.67578 48.21298 L118.16406 48.18449 L118.65234 48.18860 L119.14063 48.21186 L119.62891 48.21042 L120.11719 48.20950 L120.60547 48.18466 L121.09375 48.18222 L121.58203 48.20023 L122.07031 48.17320 L122.55859 48.17880 L123.04688 48.19896 L123.53516 48.19866 L124.02344 48.19771 L124.51172 48.17334 L125.00000 48.17246 L125.48828 48.18897 L125.97656 48.16320 L126.46484 48.17003 L126.95313 48.18762 L127.44141 48.18834 L127.92969 48.18730 L128.41797 48.16327 L128.90625 48.16382 L129.39453 48.17896 L129.88281 48.15429 L130.37109 48.16215 L130.85938 48.17759 L131.34766 48.17926 L131.83594 48.17806 L132.32422 48.15424 L132.81250 48.15612 L133.30078 48.17000 L133.78906 48.14627 L134.27734 48.15504 L134.76563 48.16866 L135.25391 48.17123 L135.74219 48.16981 L136.23047 48.14608 L136.71875 48.14923 L137.20703 48.16194 L137.69531 48.13900 L138.18359 48.14860 L138.67188 48.16067 L139.16016 48.16413 L139.64844 48.16242 L140.13672 48.13867 L140.62500 48.14304 L141.11328 48.15466 L141.60156 48.13238 L142.08984 48.14274 L142.57813 48.15349 L143.06641 48.15781 L143.55469 48.15578 L144.04297 48.13186 L144.53125 48.13745 L145.01953 48.14803 L145.50781 48.12629 L145.99609 48.13739 L146.48438 48.14701 L146.97266 48.15221 L147.46094 48.14978 L147.94922 48.12557 L148.43750 48.13239 L148.92578 48.14198 L149.41406 48.12064 L149.90234 48.13248 L150.39063 48.14114 L150.87891 48.14727 L151.36719 48.14435 L151.85547 48.11970 L152.34375 48.12779 L152.83203 48.13643 L153.32031 48.11535 L153.80859 48.12797 L154.29688 48.13580 L154.78516 48.14293 L155.27344 48.13944 L155.76172 48.11415 L156.25000 48.12360 L156.73828 48.13131 L157.22656 48.11034 L157.71484 48.12381 L158.20313 48.13093 L158.69141 48.13914 L159.17969 48.13499 L159.66797 48.10886 L160.15625 48.11979 L160.64453 48.12654 L161.13281 48.10552 L161.62109 48.11995 L162.10938 48.12648 L162.59766 48.13592 L163.08594 48.13097 L163.57422 48.10370 L164.06250 48.11631 L164.55078 48.12209 L165.03906 48.10081 L165.52734 48.11636 L166.01563 48.12239 L166.50391 48.13328 L166.99219 48.12734 L167.48047 48.09858 L167.96875 48.11315 L168.45703 48.11787 L168.94531 48.09609 L169.43359 48.11299 L169.92188 48.11864 L170.41016 48.13127 L170.89844 48.12410 L171.38672 48.09333 L171.87500 48.11026 L172.36328 48.11385 L172.85156 48.09119 L173.33984 48.10983 L173.82813 48.11518 L174.31641 48.13002 L174.80469 48.12126 L175.29297 48.08773 L175.78125 48.10766 L176.26953 48.10990 L176.75781 48.08589 L177.24609 48.10681 L177.73438 48.11201 L178.22266 48.12973 L178.71094 48.11885 L179.19922 48.08144 L179.68750 48.10535 L180.17578 48.10592 L180.66406 48.07978 L181.15234 48.10389 L181.64063 48.10908 L182.12891 48.13088 L182.61719 48.11699 L183.10547 48.07376 L183.59375 48.10335 L184.08203 48.10170 L184.57031 48.07208 L185.05859 48.10098 L185.54688 48.10640 L186.03516 48.13447 L186.52344 48.11594 L187.01172 48.06325 L187.50000 48.10179 L187.98828 48.09675 L188.47656 48.06095 L188.96484 48.09787 L189.45313 48.10399 L189.94141 48.14305 L190.42969 48.11641 L190.91797 48.04599 L191.40625 48.10103 L191.89453 48.08975 L192.38281 48.04085 L192.87109 48.09398 L193.35938 48.10195 L193.84766 48.16581 L194.33594 48.12116 L194.82422 48.00633 L195.31250 48.10262 L195.80078 48.07444 L196.28906 47.98297 L196.77734 48.08595 L197.26563 48.10110 L197.75391 48.27580 L198.24219 48.15768 L198.73047 47.73592 L199.21875 48.13982 L199.70703 47.71207 L200.19531 50.16269 L200.68359 48.14717 L201.17188 48.09109 L201.66016 47.85833 L202.14844 48.05350 L202.63672 48.26090 L203.12500 48.07954 L203.61328 48.12869 L204.10156 48.18721 L204.58984 48.10112 L205.07813 48.09338 L205.56641 48.02411 L206.05469 48.08120 L206.54297 48.15692 L207.03125 48.08443 L207.51953 48.11049 L208.00781 48.13747 L208.49609 48.09591 L208.98438 48.09210 L209.47266 48.05175 L209.96094 48.08577 L210.44922 48.12947 L210.93750 48.08478 L211.42578 48.10356 L211.91406 48.11939 L212.40234 48.09303 L212.89063 48.09059 L213.37891 48.06234 L213.86719 48.08684 L214.35547 48.11617 L214.84375 48.08424 L215.33203 48.09935 L215.82031 48.10959 L216.30859 48.09088 L216.79688 48.08908 L217.28516 48.06749 L217.77344 48.08678 L218.26172 48.10798 L218.75000 48.08342 L219.23828 48.09627 L219.72656 48.10320 L220.21484 48.08908 L220.70313 48.08762 L221.19141 48.07027 L221.67969 48.08625 L222.16797 48.10226 L222.65625 48.08249 L223.14453 48.09378 L223.63281 48.09855 L224.12109 48.08748 L224.60938 48.08623 L225.09766 48.07182 L225.58594 48.08550 L226.07422 48.09792 L226.56250 48.08154 L227.05078 48.09167 L227.53906 48.09493 L228.02734 48.08603 L228.51563 48.08491 L229.00391 48.07266 L229.49219 48.08464 L229.98047 48.09444 L230.46875 48.08060 L230.95703 48.08981 L231.44531 48.09199 L231.93359 48.08471 L232.42188 48.08365 L232.91016 48.07306 L233.39844 48.08374 L233.88672 48.09156 L234.37500 48.07967 L234.86328 48.08814 L235.35156 48.08952 L235.83984 48.08347 L236.32813 48.08246 L236.81641 48.07318 L237.30469 48.08282 L237.79297 48.08910 L238.28125 48.07878 L238.76953 48.08662 L239.25781 48.08738 L239.74609 48.08232 L240.23438 48.08133 L240.72266 48.07313 L241.21094 48.08191 L241.69922 48.08695 L242.18750 48.07792 L242.67578 48.08522 L243.16406 48.08550 L243.65234 48.08123 L244.14063 48.08026 L244.62891 48.07295 L245.11719 48.08101 L245.60547 48.08505 L246.09375 48.07710 L246.58203 48.08392 L247.07031 48.08383 L247.55859 48.08022 L248.04688 48.07924 L248.53516 48.07269 L249.02344 48.08013 L249.51172 48.08335 L250.00000 48.07631 L250.48828 48.08271 L250.97656 48.08232 L251.46484 48.07925 L251.95313 48.07828 L252.44141 48.07237 L252.92969 48.07928 L253.41797 48.08181 L253.90625 48.07555 L254.39453 48.08158 L254.88281 48.08095 L255.37109 48.07834 L255.85938 48.07736 L256.34766 48.07201 L256.83594 48.07845 L257.32422 48.08041 L257.81250 48.07483 L258.30078 48.08051 L258.78906 48.07970 L259.27734 48.07748 L259.76563 48.07648 L260.25391 48.07162 L260.74219 48.07766 L261.23047 48.07912 L261.71875 48.07414 L262.20703 48.07951 L262.69531 48.07853 L263.18359 48.07666 L263.67188 48.07566 L264.16016 48.07123 L264.64844 48.07689 L265.13672 48.07793 L265.62500 48.07348 L266.11328 48.07856 L266.60156 48.07747 L267.08984 48.07588 L267.57813 48.07487 L268.06641 48.07083 L268.55469 48.07615 L269.04297 48.07684 L269.53125 48.07285 L270.01953 48.07767 L270.50781 48.07647 L270.99609 48.07514 L271.48438 48.07412 L271.97266 48.07042 L272.46094 48.07544 L272.94922 48.07582 L273.43750 48.07225 L273.92578 48.07682 L274.41406 48.07554 L274.90234 48.07444 L275.39063 48.07341 L275.87891 48.07002 L276.36719 48.07476 L276.85547 48.07486 L277.34375 48.07169 L277.83203 48.07601 L278.32031 48.07467 L278.80859 48.07376 L279.29688 48.07272 L279.78516 48.06962 L280.27344 48.07410 L280.76172 48.07397 L281.25000 48.07113 L281.73828 48.07524 L282.22656 48.07386 L282.71484 48.07312 L283.20313 48.07207 L283.69141 48.06924 L284.17969 48.07347 L284.66797 48.07314 L285.15625 48.07062 L285.64453 48.07451 L286.13281 48.07309 L286.62109 48.07251 L287.10938 48.07146 L287.59766 48.06885 L288.08594 48.07286 L288.57422 48.07235 L289.06250 48.07012 L289.55078 48.07382 L290.03906 48.07238 L290.52734 48.07193 L291.01563 48.07087 L291.50391 48.06847 L291.99219 48.07228 L292.48047 48.07161 L292.96875 48.06964 L293.45703 48.07316 L293.94531 48.07169 L294.43359 48.07137 L294.92188 48.07030 L295.41016 48.06810 L295.89844 48.07172 L296.38672 48.07092 L296.87500 48.06919 L297.36328 48.07253 L297.85156 48.07106 L298.33984 48.07084 L298.82813 48.06977 L299.31641 48.06776 L299.80469 48.07118 L300.29297 48.07026 L300.78125 48.06875 L301.26953 48.07192 L301.75781 48.07045 L302.24609 48.07033 L302.73438 48.06926 L303.22266 48.06741 L303.71094 48.07066 L304.19922 48.06964 L304.68750 48.06834 L305.17578 48.07135 L305.66406 48.06987 L306.15234 48.06985 L306.64063 48.06877 L307.12891 48.06708 L307.61719 48.07017 L308.10547 48.06906 L308.59375 48.06794 L309.08203 48.07079 L309.57031 48.06932 L310.05859 48.06938 L310.54688 48.06830 L311.03516 48.06675 L311.52344 48.06969 L312.01172 48.06850 L312.50000 48.06756 L312.98828 48.07026 L313.47656 48.06881 L313.96484 48.06894 L314.45313 48.06785 L314.94141 48.06644 L315.42969 48.06923 L315.91797 48.06798 L316.40625 48.06720 L316.89453 48.06976 L317.38281 48.06832 L317.87109 48.06851 L318.35938 48.06742 L318.84766 48.06614 L319.33594 48.06879 L319.82422 48.06748 L320.31250 48.06685 L320.80078 48.06927 L321.28906 48.06785 L321.77734 48.06810 L322.26563 48.06702 L322.75391 48.06585 L323.24219 48.06837 L323.73047 48.06701 L324.21875 48.06652 L324.70703 48.06881 L325.19531 48.06741 L325.68359 48.06771 L326.17188 48.06662 L326.66016 48.06557 L327.14844 48.06796 L327.63672 48.06656 L328.12500 48.06620 L328.61328 48.06836 L329.10156 48.06698 L329.58984 48.06733 L330.07813 48.06625 L330.56641 48.06530 L331.05469 48.06757 L331.54297 48.06613 L332.03125 48.06590 L332.51953 48.06794 L333.00781 48.06658 L333.49609 48.06697 L333.98438 48.06589 L334.47266 48.06504 L334.96094 48.06719 L335.44922 48.06572 L335.93750 48.06561 L336.42578 48.06753 L336.91406 48.06620 L337.40234 48.06663 L337.89063 48.06555 L338.37891 48.06479 L338.86719 48.06683 L339.35547 48.06534 L339.84375 48.06533 L340.33203 48.06713 L340.82031 48.06583 L341.30859 48.06630 L341.79688 48.06522 L342.28516 48.06455 L342.77344 48.06648 L343.26172 48.06498 L343.75000 48.06507 L344.23828 48.06675 L344.72656 48.06548 L345.21484 48.06598 L345.70313 48.06491 L346.19141 48.06432 L346.67969 48.06614 L347.16797 48.06463 L347.65625 48.06481 L348.14453 48.06639 L348.63281 48.06515 L349.12109 48.06568 L349.60938 48.06461 L350.09766 48.06410 L350.58594 48.06582 L351.07422 48.06430 L351.56250 48.06457 L352.05078 48.06604 L352.53906 48.06484 L353.02734 48.06539 L353.51563 48.06433 L354.00391 48.06389 L354.49219 48.06551 L354.98047 48.06399 L355.46875 48.06433 L355.95703 48.06571 L356.44531 48.06454 L356.93359 48.06512 L357.42188 48.06405 L357.91016 48.06368 L358.39844 48.06522 L358.88672 48.06370 L359.37500 48.06411 L359.86328 48.06539 L360.35156 48.06425 L360.83984 48.06485 L361.32813 48.06379 L361.81641 48.06348 L362.30469 48.06493 L362.79297 48.06341 L363.28125 48.06390 L363.76953 48.06508 L364.25781 48.06397 L364.74609 48.06459 L365.23438 48.06354 L365.72266 48.06329 L366.21094 48.06466 L366.69922 48.06315 L367.18750 48.06370 L367.67578 48.06479 L368.16406 48.06371 L368.65234 48.06435 L369.14063 48.06330 L369.62891 48.06311 L370.11719 48.06439 L370.60547 48.06289 L371.09375 48.06351 L371.58203 48.06450 L372.07031 48.06347 L372.55859 48.06411 L373.04688 48.06307 L373.53516 48.06294 L374.02344 48.06413 L374.51172 48.06265 L375.00000 48.06332 L375.48828 48.06423 L375.97656 48.06324 L376.46484 48.06389 L376.95313 48.06286 L377.44141 48.06278 L377.92969 48.06389 L378.41797 48.06242 L378.90625 48.06315 L379.39453 48.06396 L379.88281 48.06301 L380.37109 48.06368 L380.85938 48.06265 L381.34766 48.06262 L381.83594 48.06366 L382.32422 48.06221 L382.81250 48.06298 L383.30078 48.06371 L383.78906 48.06279 L384.27734 48.06347 L384.76563 48.06245 L385.25391 48.06247 L385.74219 48.06343 L386.23047 48.06201 L386.71875 48.06282 L387.20703 48.06347 L387.69531 48.06259 L388.18359 48.06328 L388.67188 48.06226 L389.16016 48.06232 L389.64844 48.06322 L390.13672 48.06181 L390.62500 48.06266 L391.11328 48.06324 L391.60156 48.06240 L392.08984 48.06309 L392.57813 48.06208 L393.06641 48.06218 L393.55469 48.06301 L394.04297 48.06163 L394.53125 48.06252 L395.01953 48.06302 L395.50781 48.06222 L395.99609 48.06291 L396.48438 48.06191 L396.97266 48.06205 L397.46094 48.06282 L397.94922 48.06146 L398.43750 48.06238 L398.92578 48.06281 L399.41406 48.06205 L399.90234 48.06274 L400.39063 48.06175 L400.87891 48.06193 L401.36719 48.06263 L401.85547 48.06130 L402.34375 48.06225 L402.83203 48.06260 L403.32031 48.06188 L403.80859 48.06258 L404.29688 48.06159 L404.78516 48.06181 L405.27344 48.06245 L405.76172 48.06115 L406.25000 48.06212 L406.73828 48.06240 L407.22656 48.06173 L407.71484 48.06242 L408.20313 48.06145 L408.69141 48.06170 L409.17969 48.06228 L409.66797 48.06101 L410.15625 48.06200 L410.64453 48.06222 L411.13281 48.06158 L411.62109 48.06228 L412.10938 48.06131 L412.59766 48.06160 L413.08594 48.06211 L413.57422 48.06087 L414.06250 48.06189 L414.55078 48.06204 L415.03906 48.06145 L415.52734 48.06214 L416.01563 48.06118 L416.50391 48.06149 L416.99219 48.06196 L417.48047 48.06075 L417.96875 48.06179 L418.45703 48.06187 L418.94531 48.06131 L419.43359 48.06201 L419.92188 48.06105 L420.41016 48.06140 L420.89844 48.06181 L421.38672 48.06063 L421.87500 48.06169 L422.36328 48.06171 L422.85156 48.06120 L423.33984 48.06188 L423.82813 48.06094 L424.31641 48.06131 L424.80469 48.06167 L425.29297 48.06053 L425.78125 48.06159 L426.26953 48.06155 L426.75781 48.06108 L427.24609 48.06176 L427.73438 48.06082 L428.22266 48.06123 L428.71094 48.06153 L429.19922 48.06043 L429.68750 48.06150 L430.17578 48.06140 L430.66406 48.06098 L431.15234 48.06165 L431.64063 48.06072 L432.12891 48.06115 L432.61719 48.06141 L433.10547 48.06034 L433.59375 48.06142 L434.08203 48.06126 L434.57031 48.06088 L435.05859 48.06154 L435.54688 48.06063 L436.03516 48.06108 L436.52344 48.06129 L437.01172 48.06026 L437.50000 48.06134 L437.98828 48.06113 L438.47656 48.06079 L438.96484 48.06144 L439.45313 48.06054 L439.94141 48.06101 L440.42969 48.06117 L440.91797 48.06018 L441.40625 48.06127 L441.89453 48.06100 L442.38281 48.06070 L442.87109 48.06135 L443.35938 48.06045 L443.84766 48.06095 L444.33594 48.06107 L444.82422 48.06011 L445.31250 48.06120 L445.80078 48.06088 L446.28906 48.06063 L446.77734 48.06126 L447.26563 48.06037 L447.75391 48.06089 L448.24219 48.06097 L448.73047 48.06005 L449.21875 48.06114 L449.70703 48.06076 L450.19531 48.06055 L450.68359 48.06118 L451.17188 48.06030 L451.66016 48.06084 L452.14844 48.06087 L452.63672 48.06000 L453.12500 48.06108 L453.61328 48.06066 L454.10156 48.06050 L454.58984 48.06110 L455.07813 48.06023 L455.56641 48.06079 L456.05469 48.06079 L456.54297 48.05995 L457.03125 48.06103 L457.51953 48.06056 L458.00781 48.06044 L458.49609 48.06104 L458.98438 48.06017 L459.47266 48.06076 L459.96094 48.06070 L460.44922 48.05991 L460.93750 48.06098 L461.42578 48.06047 L461.91406 48.06039 L462.40234 48.06097 L462.89063 48.06012 L463.37891 48.06072 L463.86719 48.06063 L464.35547 48.05988 L464.84375 48.06094 L465.33203 48.06038 L465.82031 48.06035 L466.30859 48.06091 L466.79688 48.06007 L467.28516 48.06068 L467.77344 48.06057 L468.26172 48.05986 L468.75000 48.06090 L469.23828 48.06030 L469.72656 48.06031 L470.21484 48.06086 L470.70313 48.06002 L471.19141 48.06066 L471.67969 48.06050 L472.16797 48.05984 L472.65625 48.06087 L473.14453 48.06023 L473.63281 48.06028 L474.12109 48.06081 L474.60938 48.05999 L475.09766 48.06063 L475.58594 48.06045 L476.07422 48.05982 L476.56250 48.06084 L477.05078 48.06016 L477.53906 48.06026 L478.02734 48.06076 L478.51563 48.05996 L479.00391 48.06062 L479.49219 48.06040 L479.98047 48.05982 L480.46875 48.06081 L480.95703 48.06009 L481.44531 48.06024 L481.93359 48.06073 L482.42188 48.05993 L482.91016 48.06061 L483.39844 48.06036 L483.88672 48.05982 L484.37500 48.06079 L484.86328 48.06004 L485.35156 48.06023 L485.83984 48.06069 L486.32813 48.05991 L486.81641 48.06060 L487.30469 48.06032 L487.79297 48.05982 L488.28125 48.06078 L488.76953 48.05999 L489.25781 48.06022 L489.74609 48.06067 L490.23438 48.05989 L490.72266 48.06060 L491.21094 48.06029 L491.69922 48.05984 L492.18750 48.06077 L492.67578 48.05995 L493.16406 48.06022 L493.65234 48.06064 L494.14063 48.05988 L494.62891 48.06060 L495.11719 48.06026 L495.60547 48.05986 L496.09375 48.06076 L496.58203 48.05991 L497.07031 48.06023 L497.55859 48.06062 L498.04688 48.05988 L498.53516 48.06061 L499.02344 48.06024 L499.51172 48.05988 L500.00000 48.06076 L500.48828 48.05988 L500.97656 48.06024 L501.46484 48.06061 L501.95313 48.05988 L502.44141 48.06063 L502.92969 48.06023 L503.41797 48.05991 L503.90625 48.06076 L504.39453 48.05985 L504.88281 48.06026 L505.37109 48.06060 L505.85938 48.05988 L506.34766 48.06065 L506.83594 48.06022 L507.32422 48.05995 L507.81250 48.06077 L508.30078 48.05984 L508.78906 48.06029 L509.27734 48.06060 L509.76563 48.05989 L510.25391 48.06067 L510.74219 48.06022 L511.23047 48.05999 L511.71875 48.06078 L512.20703 48.05982 L512.69531 48.06032 L513.18359 48.06060 L513.67188 48.05991 L514.16016 48.06069 L514.64844 48.06023 L515.13672 48.06004 L515.62500 48.06079 L516.11328 48.05981 L516.60156 48.06036 L517.08984 48.06061 L517.57813 48.05993 L518.06641 48.06073 L518.55469 48.06024 L519.04297 48.06009 L519.53125 48.06081 L520.01953 48.05982 L520.50781 48.06040 L520.99609 48.06062 L521.48438 48.05996 L521.97266 48.06076 L522.46094 48.06026 L522.94922 48.06016 L523.43750 48.06084 L523.92578 48.05982 L524.41406 48.06045 L524.90234 48.06064 L525.39063 48.05999 L525.87891 48.06081 L526.36719 48.06028 L526.85547 48.06023 L527.34375 48.06087 L527.83203 48.05984 L528.32031 48.06050 L528.80859 48.06066 L529.29688 48.06002 L529.78516 48.06086 L530.27344 48.06031 L530.76172 48.06030 L531.25000 48.06090 L531.73828 48.05986 L532.22656 48.06056 L532.71484 48.06068 L533.20313 48.06007 L533.69141 48.06091 L534.17969 48.06035 L534.66797 48.06038 L535.15625 48.06094 L535.64453 48.05988 L536.13281 48.06063 L536.62109 48.06071 L537.10938 48.06012 L537.59766 48.06097 L538.08594 48.06039 L538.57422 48.06047 L539.06250 48.06098 L539.55078 48.05991 L540.03906 48.06070 L540.52734 48.06076 L541.01563 48.06017 L541.50391 48.06104 L541.99219 48.06044 L542.48047 48.06056 L542.96875 48.06103 L543.45703 48.05996 L543.94531 48.06079 L544.43359 48.06079 L544.92188 48.06023 L545.41016 48.06110 L545.89844 48.06050 L546.38672 48.06066 L546.87500 48.06108 L547.36328 48.06000 L547.85156 48.06087 L548.33984 48.06084 L548.82813 48.06030 L549.31641 48.06118 L549.80469 48.06055 L550.29297 48.06076 L550.78125 48.06114 L551.26953 48.06006 L551.75781 48.06097 L552.24609 48.06089 L552.73438 48.06037 L553.22266 48.06126 L553.71094 48.06063 L554.19922 48.06088 L554.68750 48.06120 L555.17578 48.06011 L555.66406 48.06107 L556.15234 48.06095 L556.64063 48.06045 L557.12891 48.06135 L557.61719 48.06070 L558.10547 48.06100 L558.59375 48.06127 L559.08203 48.06018 L559.57031 48.06117 L560.05859 48.06101 L560.54688 48.06054 L561.03516 48.06144 L561.52344 48.06079 L562.01172 48.06113 L562.50000 48.06134 L562.98828 48.06026 L563.47656 48.06129 L563.96484 48.06108 L564.45313 48.06063 L564.94141 48.06154 L565.42969 48.06088 L565.91797 48.06126 L566.40625 48.06142 L566.89453 48.06034 L567.38281 48.06141 L567.87109 48.06115 L568.35938 48.06072 L568.84766 48.06165 L569.33594 48.06098 L569.82422 48.06140 L570.31250 48.06150 L570.80078 48.06043 L571.28906 48.06153 L571.77734 48.06123 L572.26563 48.06082 L572.75391 48.06176 L573.24219 48.06108 L573.73047 48.06155 L574.21875 48.06159 L574.70703 48.06053 L575.19531 48.06167 L575.68359 48.06131 L576.17188 48.06094 L576.66016 48.06188 L577.14844 48.06120 L577.63672 48.06171 L578.12500 48.06169 L578.61328 48.06063 L579.10156 48.06181 L579.58984 48.06140 L580.07813 48.06105 L580.56641 48.06201 L581.05469 48.06131 L581.54297 48.06187 L582.03125 48.06179 L582.51953 48.06075 L583.00781 48.06196 L583.49609 48.06149 L583.98438 48.06118 L584.47266 48.06214 L584.96094 48.06145 L585.44922 48.06204 L585.93750 48.06189 L586.42578 48.06087 L586.91406 48.06211 L587.40234 48.06160 L587.89063 48.06131 L588.37891 48.06228 L588.86719 48.06158 L589.35547 48.06222 L589.84375 48.06200 L590.33203 48.06101 L590.82031 48.06228 L591.30859 48.06170 L591.79688 48.06145 L592.28516 48.06242 L592.77344 48.06173 L593.26172 48.06240 L593.75000 48.06212 L594.23828 48.06115 L594.72656 48.06245 L595.21484 48.06181 L595.70313 48.06159 L596.19141 48.06258 L596.67969 48.06188 L597.16797 48.06260 L597.65625 48.06225 L598.14453 48.06130 L598.63281 48.06263 L599.12109 48.06194 L599.60938 48.06175 L600.09766 48.06274 L600.58594 48.06205 L601.07422 48.06281 L601.56250 48.06238 L602.05078 48.06146 L602.53906 48.06282 L603.02734 48.06205 L603.51563 48.06191 L604.00391 48.06291 L604.49219 48.06222 L604.98047 48.06302 L605.46875 48.06252 L605.95703 48.06163 L606.44531 48.06301 L606.93359 48.06219 L607.42188 48.06208 L607.91016 48.06309 L608.39844 48.06240 L608.88672 48.06324 L609.37500 48.06266 L609.86328 48.06181 L610.35156 48.06322 L610.83984 48.06232 L611.32813 48.06226 L611.81641 48.06328 L612.30469 48.06259 L612.79297 48.06347 L613.28125 48.06282 L613.76953 48.06201 L614.25781 48.06343 L614.74609 48.06247 L615.23438 48.06245 L615.72266 48.06347 L616.21094 48.06279 L616.69922 48.06371 L617.18750 48.06298 L617.67578 48.06221 L618.16406 48.06366 L618.65234 48.06262 L619.14063 48.06265 L619.62891 48.06367 L620.11719 48.06301 L620.60547 48.06396 L621.09375 48.06314 L621.58203 48.06242 L622.07031 48.06389 L622.55859 48.06278 L623.04688 48.06286 L623.53516 48.06389 L624.02344 48.06323 L624.51172 48.06423 L625.00000 48.06332 L625.48828 48.06265 L625.97656 48.06414 L626.46484 48.06294 L626.95313 48.06307 L627.44141 48.06412 L627.92969 48.06347 L628.41797 48.06450 L628.90625 48.06350 L629.39453 48.06289 L629.88281 48.06439 L630.37109 48.06311 L630.85938 48.06330 L631.34766 48.06435 L631.83594 48.06371 L632.32422 48.06479 L632.81250 48.06370 L633.30078 48.06315 L633.78906 48.06466 L634.27734 48.06329 L634.76563 48.06354 L635.25391 48.06459 L635.74219 48.06397 L636.23047 48.06508 L636.71875 48.06390 L637.20703 48.06341 L637.69531 48.06493 L638.18359 48.06348 L638.67188 48.06379 L639.16016 48.06485 L639.64844 48.06425 L640.13672 48.06539 L640.62500 48.06411 L641.11328 48.06370 L641.60156 48.06521 L642.08984 48.06368 L642.57813 48.06405 L643.06641 48.06511 L643.55469 48.06454 L644.04297 48.06571 L644.53125 48.06434 L645.01953 48.06399 L645.50781 48.06551 L645.99609 48.06389 L646.48438 48.06433 L646.97266 48.06539 L647.46094 48.06484 L647.94922 48.06604 L648.43750 48.06457 L648.92578 48.06430 L649.41406 48.06582 L649.90234 48.06410 L650.39063 48.06461 L650.87891 48.06568 L651.36719 48.06515 L651.85547 48.06639 L652.34375 48.06481 L652.83203 48.06463 L653.32031 48.06615 L653.80859 48.06432 L654.29688 48.06491 L654.78516 48.06598 L655.27344 48.06548 L655.76172 48.06675 L656.25000 48.06507 L656.73828 48.06498 L657.22656 48.06648 L657.71484 48.06455 L658.20313 48.06522 L658.69141 48.06630 L659.17969 48.06583 L659.66797 48.06713 L660.15625 48.06533 L660.64453 48.06534 L661.13281 48.06683 L661.62109 48.06479 L662.10938 48.06555 L662.59766 48.06663 L663.08594 48.06620 L663.57422 48.06753 L664.06250 48.06561 L664.55078 48.06572 L665.03906 48.06719 L665.52734 48.06504 L666.01563 48.06589 L666.50391 48.06697 L666.99219 48.06658 L667.48047 48.06794 L667.96875 48.06590 L668.45703 48.06613 L668.94531 48.06757 L669.43359 48.06530 L669.92188 48.06625 L670.41016 48.06733 L670.89844 48.06698 L671.38672 48.06836 L671.87500 48.06620 L672.36328 48.06656 L672.85156 48.06796 L673.33984 48.06557 L673.82813 48.06662 L674.31641 48.06771 L674.80469 48.06741 L675.29297 48.06881 L675.78125 48.06652 L676.26953 48.06701 L676.75781 48.06837 L677.24609 48.06585 L677.73438 48.06702 L678.22266 48.06810 L678.71094 48.06785 L679.19922 48.06927 L679.68750 48.06685 L680.17578 48.06748 L680.66406 48.06879 L681.15234 48.06614 L681.64063 48.06742 L682.12891 48.06851 L682.61719 48.06832 L683.10547 48.06976 L683.59375 48.06720 L684.08203 48.06797 L684.57031 48.06923 L685.05859 48.06644 L685.54688 48.06785 L686.03516 48.06894 L686.52344 48.06881 L687.01172 48.07026 L687.50000 48.06756 L687.98828 48.06850 L688.47656 48.06969 L688.96484 48.06675 L689.45313 48.06830 L689.94141 48.06938 L690.42969 48.06933 L690.91797 48.07079 L691.40625 48.06793 L691.89453 48.06906 L692.38281 48.07017 L692.87109 48.06708 L693.35938 48.06877 L693.84766 48.06985 L694.33594 48.06987 L694.82422 48.07135 L695.31250 48.06834 L695.80078 48.06964 L696.28906 48.07066 L696.77734 48.06741 L697.26563 48.06926 L697.75391 48.07033 L698.24219 48.07045 L698.73047 48.07192 L699.21875 48.06875 L699.70703 48.07026 L700.19531 48.07118 L700.68359 48.06776 L701.17188 48.06977 L701.66016 48.07084 L702.14844 48.07106 L702.63672 48.07253 L703.12500 48.06919 L703.61328 48.07092 L704.10156 48.07172 L704.58984 48.06810 L705.07813 48.07030 L705.56641 48.07137 L706.05469 48.07170 L706.54297 48.07316 L707.03125 48.06964 L707.51953 48.07161 L708.00781 48.07228 L708.49609 48.06847 L708.98438 48.07087 L709.47266 48.07193 L709.96094 48.07238 L710.44922 48.07382 L710.93750 48.07011 L711.42578 48.07235 L711.91406 48.07286 L712.40234 48.06885 L712.89063 48.07146 L713.37891 48.07251 L713.86719 48.07309 L714.35547 48.07451 L714.84375 48.07062 L715.33203 48.07314 L715.82031 48.07347 L716.30859 48.06923 L716.79688 48.07208 L717.28516 48.07312 L717.77344 48.07386 L718.26172 48.07524 L718.75000 48.07113 L719.23828 48.07397 L719.72656 48.07410 L720.21484 48.06962 L720.70313 48.07272 L721.19141 48.07376 L721.67969 48.07467 L722.16797 48.07601 L722.65625 48.07169 L723.14453 48.07486 L723.63281 48.07476 L724.12109 48.07002 L724.60938 48.07341 L725.09766 48.07444 L725.58594 48.07555 L726.07422 48.07682 L726.56250 48.07225 L727.05078 48.07582 L727.53906 48.07544 L728.02734 48.07042 L728.51563 48.07412 L729.00391 48.07514 L729.49219 48.07647 L729.98047 48.07767 L730.46875 48.07285 L730.95703 48.07684 L731.44531 48.07615 L731.93359 48.07083 L732.42188 48.07487 L732.91016 48.07588 L733.39844 48.07747 L733.88672 48.07856 L734.37500 48.07348 L734.86328 48.07793 L735.35156 48.07689 L735.83984 48.07123 L736.32813 48.07566 L736.81641 48.07666 L737.30469 48.07853 L737.79297 48.07951 L738.28125 48.07414 L738.76953 48.07912 L739.25781 48.07766 L739.74609 48.07162 L740.23438 48.07648 L740.72266 48.07748 L741.21094 48.07970 L741.69922 48.08051 L742.18750 48.07483 L742.67578 48.08041 L743.16406 48.07845 L743.65234 48.07201 L744.14063 48.07736 L744.62891 48.07834 L745.11719 48.08095 L745.60547 48.08158 L746.09375 48.07555 L746.58203 48.08181 L747.07031 48.07928 L747.55859 48.07236 L748.04688 48.07828 L748.53516 48.07925 L749.02344 48.08232 L749.51172 48.08271 L750.00000 48.07631 L750.48828 48.08335 L750.97656 48.08013 L751.46484 48.07269 L751.95313 48.07924 L752.44141 48.08022 L752.92969 48.08383 L753.41797 48.08392 L753.90625 48.07709 L754.39453 48.08505 L754.88281 48.08101 L755.37109 48.07294 L755.85938 48.08026 L756.34766 48.08123 L756.83594 48.08550 L757.32422 48.08522 L757.81250 48.07792 L758.30078 48.08694 L758.78906 48.08191 L759.27734 48.07313 L759.76563 48.08133 L760.25391 48.08232 L760.74219 48.08738 L761.23047 48.08662 L761.71875 48.07878 L762.20703 48.08910 L762.69531 48.08282 L763.18359 48.07318 L763.67188 48.08246 L764.16016 48.08347 L764.64844 48.08952 L765.13672 48.08814 L765.62500 48.07967 L766.11328 48.09156 L766.60156 48.08374 L767.08984 48.07306 L767.57813 48.08365 L768.06641 48.08471 L768.55469 48.09199 L769.04297 48.08981 L769.53125 48.08060 L770.01953 48.09444 L770.50781 48.08464 L770.99609 48.07265 L771.48438 48.08491 L771.97266 48.08603 L772.46094 48.09493 L772.94922 48.09167 L773.43750 48.08154 L773.92578 48.09792 L774.41406 48.08550 L774.90234 48.07182 L775.39063 48.08623 L775.87891 48.08748 L776.36719 48.09855 L776.85547 48.09379 L777.34375 48.08249 L777.83203 48.10226 L778.32031 48.08625 L778.80859 48.07027 L779.29688 48.08762 L779.78516 48.08908 L780.27344 48.10320 L780.76172 48.09627 L781.25000 48.08342 L781.73828 48.10799 L782.22656 48.08678 L782.71484 48.06749 L783.20313 48.08908 L783.69141 48.09088 L784.17969 48.10959 L784.66797 48.09935 L785.15625 48.08424 L785.64453 48.11617 L786.13281 48.08684 L786.62109 48.06234 L787.10938 48.09059 L787.59766 48.09303 L788.08594 48.11939 L788.57422 48.10356 L789.06250 48.08478 L789.55078 48.12947 L790.03906 48.08577 L790.52734 48.05175 L791.01563 48.09210 L791.50391 48.09591 L791.99219 48.13746 L792.48047 48.11049 L792.96875 48.08443 L793.45703 48.15692 L793.94531 48.08120 L794.43359 48.02411 L794.92188 48.09338 L795.41016 48.10112 L795.89844 48.18721 L796.38672 48.12869 L796.87500 48.07954 L797.36328 48.26090 L797.85156 48.05350 L798.33984 47.85833 L798.82813 48.09109 L799.31641 48.14717 L799.80469 50.16269 L800.29297 47.71207 L800.78125 48.13982 L801.26953 47.73593 L801.75781 48.15768 L802.24609 48.27580 L802.73438 48.10110 L803.22266 48.08595 L803.71094 47.98297 L804.19922 48.07444 L804.68750 48.10262 L805.17578 48.00633 L805.66406 48.12116 L806.15234 48.16581 L806.64063 48.10195 L807.12891 48.09398 L807.61719 48.04085 L808.10547 48.08975 L808.59375 48.10102 L809.08203 48.04599 L809.57031 48.11640 L810.05859 48.14305 L810.54688 48.10399 L811.03516 48.09787 L811.52344 48.06095 L812.01172 48.09675 L812.50000 48.10179 L812.98828 48.06325 L813.47656 48.11594 L813.96484 48.13447 L814.45313 48.10640 L814.94141 48.10098 L815.42969 48.07208 L815.91797 48.10170 L816.40625 48.10335 L816.89453 48.07376 L817.38281 48.11699 L817.87109 48.13088 L818.35938 48.10908 L818.84766 48.10389 L819.33594 48.07978 L819.82422 48.10592 L820.31250 48.10535 L820.80078 48.08144 L821.28906 48.11886 L821.77734 48.12973 L822.26563 48.11201 L822.75391 48.10681 L823.24219 48.08589 L823.73047 48.10990 L824.21875 48.10766 L824.70703 48.08773 L825.19531 48.12126 L825.68359 48.13001 L826.17188 48.11518 L826.66016 48.10983 L827.14844 48.09119 L827.63672 48.11385 L828.12500 48.11026 L828.61328 48.09333 L829.10156 48.12410 L829.58984 48.13127 L830.07813 48.11864 L830.56641 48.11299 L831.05469 48.09609 L831.54297 48.11787 L832.03125 48.11314 L832.51953 48.09858 L833.00781 48.12734 L833.49609 48.13328 L833.98438 48.12239 L834.47266 48.11636 L834.96094 48.10081 L835.44922 48.12209 L835.93750 48.11631 L836.42578 48.10370 L836.91406 48.13097 L837.40234 48.13592 L837.89063 48.12648 L838.37891 48.11995 L838.86719 48.10552 L839.35547 48.12654 L839.84375 48.11979 L840.33203 48.10885 L840.82031 48.13499 L841.30859 48.13914 L841.79688 48.13093 L842.28516 48.12381 L842.77344 48.11034 L843.26172 48.13131 L843.75000 48.12360 L844.23828 48.11415 L844.72656 48.13944 L845.21484 48.14293 L845.70313 48.13580 L846.19141 48.12797 L846.67969 48.11535 L847.16797 48.13643 L847.65625 48.12779 L848.14453 48.11969 L848.63281 48.14435 L849.12109 48.14727 L849.60938 48.14114 L850.09766 48.13248 L850.58594 48.12064 L851.07422 48.14198 L851.56250 48.13239 L852.05078 48.12557 L852.53906 48.14978 L853.02734 48.15221 L853.51563 48.14701 L854.00391 48.13739 L854.49219 48.12629 L854.98047 48.14803 L855.46875 48.13745 L855.95703 48.13186 L856.44531 48.15578 L856.93359 48.15781 L857.42188 48.15349 L857.91016 48.14274 L858.39844 48.13238 L858.88672 48.15466 L859.37500 48.14304 L859.86328 48.13867 L860.35156 48.16242 L860.83984 48.16413 L861.32813 48.16067 L861.81641 48.14860 L862.30469 48.13900 L862.79297 48.16194 L863.28125 48.14923 L863.76953 48.14608 L864.25781 48.16981 L864.74609 48.17123 L865.23438 48.16866 L865.72266 48.15504 L866.21094 48.14627 L866.69922 48.17000 L867.18750 48.15612 L867.67578 48.15424 L868.16406 48.17806 L868.65234 48.17926 L869.14063 48.17759 L869.62891 48.16216 L870.11719 48.15429 L870.60547 48.17896 L871.09375 48.16381 L871.58203 48.16327 L872.07031 48.18730 L872.55859 48.18834 L873.04688 48.18762 L873.53516 48.17003 L874.02344 48.16320 L874.51172 48.18897 L875.00000 48.17246 L875.48828 48.17334 L875.97656 48.19771 L876.46484 48.19866 L876.95313 48.19896 L877.44141 48.17879 L877.92969 48.17319 L878.41797 48.20023 L878.90625 48.18221 L879.39453 48.18466 L879.88281 48.20950 L880.37109 48.21042 L880.85938 48.21186 L881.34766 48.18860 L881.83594 48.18449 L882.32422 48.21298 L882.81250 48.19329 L883.30078 48.19747 L883.78906 48.22294 L884.27734 48.22392 L884.76563 48.22666 L885.25391 48.19963 L885.74219 48.19735 L886.23047 48.22752 L886.71875 48.20597 L887.20703 48.21211 L887.69531 48.23838 L888.18359 48.23953 L888.67188 48.24376 L889.16016 48.21210 L889.64844 48.21211 L890.13672 48.24423 L890.62500 48.22058 L891.11328 48.22899 L891.60156 48.25628 L892.08984 48.25772 L892.57813 48.26373 L893.06641 48.22628 L893.55469 48.22927 L894.04297 48.26362 L894.53125 48.23761 L895.01953 48.24866 L895.50781 48.27724 L895.99609 48.27914 L896.48438 48.28732 L896.97266 48.24255 L897.46094 48.24943 L897.94922 48.28637 L898.43750 48.25765 L898.92578 48.27187 L899.41406 48.30208 L899.90234 48.30468 L900.39063 48.31558 L900.87891 48.26133 L901.36719 48.27345 L901.85547 48.31339 L902.34375 48.28157 L902.83203 48.29965 L903.32031 48.33195 L903.80859 48.33558 L904.29688 48.34999 L904.78516 48.28320 L905.27344 48.30254 L905.76172 48.34598 L906.25000 48.31057 L906.73828 48.33349 L907.22656 48.36851 L907.71484 48.37364 L908.20313 48.39277 L908.69141 48.30892 L909.17969 48.33851 L909.66797 48.38602 L910.15625 48.34645 L910.64453 48.37559 L911.13281 48.41427 L911.62109 48.42166 L912.10938 48.44736 L912.59766 48.33944 L913.08594 48.38419 L913.57422 48.43637 L914.06250 48.39201 L914.55078 48.42943 L915.03906 48.47319 L915.52734 48.48409 L916.01563 48.51942 L916.50391 48.37598 L916.99219 48.44415 L917.48047 48.50166 L917.96875 48.45185 L918.45703 48.50085 L918.94531 48.55201 L919.43359 48.56865 L919.92188 48.61902 L920.41016 48.41992 L920.89844 48.52666 L921.38672 48.58981 L921.87500 48.53428 L922.36328 48.60047 L922.85156 48.66324 L923.33984 48.69007 L923.82813 48.76610 L924.31641 48.47195 L924.80469 48.64825 L925.29297 48.71595 L925.78125 48.65604 L926.26953 48.75024 L926.75781 48.83327 L927.24609 48.88068 L927.73438 49.00642 L928.22266 48.52798 L928.71094 48.84758 L929.19922 48.91329 L929.68750 48.85729 L930.17578 49.00450 L930.66406 49.12972 L931.15234 49.22857 L931.64063 49.47322 L932.12891 48.55249 L932.61719 49.24272 L933.10547 49.27310 L933.59375 49.26686 L934.08203 49.54756 L934.57031 49.79647 L935.05859 50.08898 L935.54688 50.76913 L936.03516 48.20531 L936.52344 50.43933 L937.01172 50.17506 L937.50000 50.65547 L937.98828 51.65742 L938.47656 52.85530 L938.96484 55.54595 L939.45313 63.07253 L939.94141 29.35000 L940.42969 81.67809 L940.91797 16.19342 L941.40625 137.06848 L941.89453 52.02778 L942.38281 46.99973 L942.87109 49.03307 L943.35938 49.63289 L943.84766 40.68184 L944.33594 47.20185 L944.82422 45.60194 L945.31250 47.04555 L945.80078 46.95611 L946.28906 46.96872 L946.77734 47.45636 L947.26563 47.52145 L947.75391 46.65968 L948.24219 47.56261 L948.73047 47.26572 L949.21875 47.71359 L949.70703 47.64967 L950.19531 47.62655 L950.68359 47.90079 L951.17188 47.79702 L951.66016 47.73207 L952.14844 47.89957 L952.63672 47.92805 L953.12500 48.11997 L953.61328 48.11227 L954.10156 48.08104 L954.58984 48.34804 L955.07813 48.14647 L955.56641 48.34804 L956.05469 48.19395 L956.54297 48.55040 L957.03125 48.55736 L957.51953 48.66939 L958.00781 48.63053 L958.49609 49.03930 L958.98438 48.68050 L959.47266 49.08112 L959.96094 48.51159 L960.44922 49.73432 L960.93750 49.34492 L961.42578 49.91101 L961.91406 49.85752 L962.40234 51.04615 L962.89063 50.13552 L963.37891 50.77454 L963.86719 47.89410 L964.35547 56.57510 L964.84375 52.29373 L965.33203 61.71318 L965.82031 64.89575 L966.30859 199.99997 L966.79688 28.52283 L967.28516 0.00003 L967.77344 13.38399 L968.26172 49.43575 L968.75000 40.70300 L969.23828 44.75668 L969.72656 44.18436 L970.21484 45.32892 L970.70313 45.07186 L971.19141 43.95396 L971.67969 44.07652 L972.16797 46.18965 L972.65625 45.45831 L973.14453 46.03836 L973.63281 45.96354 L974.12109 46.16044 L974.60938 46.26017 L975.09766 45.73146 L975.58594 45.88265 L976.07422 46.55555 L976.56250 46.32824 L977.05078 46.54026 L977.53906 46.50623 L978.02734 46.55629 L978.51563 46.67421 L979.00391 46.33471 L979.49219 46.46611 L979.98047 46.78430 L980.46875 46.68779 L980.95703 46.78921 L981.44531 46.76475 L981.93359 46.76726 L982.42188 46.88146 L982.91016 46.63297 L983.39844 46.74383 L983.88672 46.92425 L984.37500 46.87831 L984.86328 46.93235 L985.35156 46.91012 L985.83984 46.89059 L986.32813 47.00103 L986.81641 46.80483 L987.30469 46.89883 L987.79297 47.01256 L988.28125 46.98982 L988.76953 47.01976 L989.25781 46.99657 L989.74609 46.96384 L990.23438 47.07327 L990.72266 46.91003 L991.21094 46.99050 L991.69922 47.06747 L992.18750 47.05592 L992.67578 47.07256 L993.16406 47.04611 L993.65234 47.00358 L994.14063 47.11518 L994.62891 46.97378 L995.11719 47.04313 L995.60547 47.09809 L996.09375 47.09130 L996.58203 47.10069 L997.07031 47.06853 L997.55859 47.01739 L998.04688 47.13456 L998.53516 47.00782 L999.02344 47.06764 L999.51172 47.10875" /><path fill="none" stroke="#000000" d="M0 300.00000  L0.00000 300.00000  L0.48828 299.97195  L0.97656 299.99011  L1.46484 299.91528  L1.95313 299.95441  L2.44141 299.98962  L2.92969 299.92291  L3.41797 299.92474  L3.90625 299.89886  L4.39453 299.86682  L4.88281 299.90280  L5.37109 299.81500  L5.85938 299.86011  L6.34766 299.89270  L6.83594 299.83038  L7.32422 299.81516  L7.81250 299.78955  L8.30078 299.75140  L8.78906 299.80930  L9.27734 299.70108  L9.76563 299.75571  L10.25391 299.78616  L10.74219 299.72501  L11.23047 299.68930  L11.71875 299.66119  L12.20703 299.61398  L12.69531 299.70184  L13.18359 299.56055  L13.67188 299.63110  L14.16016 299.65897  L14.64844 299.59546  L15.13672 299.53101  L15.62500 299.49542  L16.11328 299.43414  L16.60156 299.56790  L17.08984 299.36929  L17.57813 299.46844  L18.06641 299.49112  L18.55469 299.42032  L19.04297 299.30786  L19.53125 299.25330  L20.01953 299.16812  L20.50781 299.38260  L20.99609 299.07150  L21.48438 299.22882  L21.97266 299.23743  L22.46094 299.14987  L22.94922 298.93729  L23.43750 298.82895  L23.92578 298.69482  L24.41406 299.08392  L24.90234 298.49652  L25.39063 298.80206  L25.87891 298.76004  L26.36719 298.62860  L26.85547 298.11374  L27.34375 297.78482  L27.83203 297.49481  L28.32031 298.45349  L28.80859 296.74722  L29.29688 297.67871  L29.78516 297.30243  L30.27344 296.95114  L30.76172 294.08270  L31.25000 290.62802  L31.73828 287.26578  L32.22656 296.83865  L32.71484 236.35455  L33.20313 323.87164  L33.69141 316.72971  L34.17969 312.58466  L34.66797 300.36554  L35.15625 299.02481  L35.64453 301.83435  L36.13281 303.38135  L36.62109 301.38690  L37.10938 302.30008  L37.59766 301.87042  L38.08594 301.75949  L38.57422 301.21625  L39.06250 300.77911  L39.55078 301.12250  L40.03906 300.97345  L40.52734 300.85190  L41.01563 300.82874  L41.50391 300.80338  L41.99219 300.70416  L42.48047 300.56802  L42.96875 300.35312  L43.45703 300.53607  L43.94531 300.29147  L44.43359 300.40521  L44.92188 300.20636  L45.41016 300.32468  L45.89844 300.16406  L46.38672 300.10928  L46.87500 299.94366  L47.36328 300.07056  L47.85156 299.81781  L48.33984 300.02219  L48.82813 299.64795  L49.31641 299.96030  L49.80469 299.63470  L50.29297 299.58347  L50.78125 299.38153  L51.26953 299.45923  L51.75781 299.25378  L52.24609 299.55139  L52.73438 298.70471  L53.22266 299.63571  L53.71094 298.68222  L54.19922 298.50717  L54.68750 297.97607  L55.17578 297.83139  L55.66406 298.35284  L56.15234 299.06439  L56.64063 294.30847  L57.12891 303.92224  L57.61719 293.52368  L58.10547 288.81439  L58.59375 200.00000  L59.08203 293.11835  L59.57031 347.23911  L60.05859 318.71411  L60.54688 305.08258  L61.03516 310.97720  L61.52344 304.79120  L62.01172 303.85141  L62.50000 303.01630  L62.98828 302.65765  L63.47656 303.88422  L63.96484 303.01248  L64.45313 302.27628  L64.94141 302.94095  L65.42969 302.13095  L65.91797 301.94052  L66.40625 301.72491  L66.89453 301.62714  L67.38281 302.08606  L67.87109 301.74158  L68.35938 301.54184  L68.84766 301.76077  L69.33594 301.46060  L69.82422 301.37631  L70.31250 301.26614  L70.80078 301.22794  L71.28906 301.48035  L71.77734 301.27960  L72.26563 301.20001  L72.75391 301.29843  L73.24219 301.14459  L73.73047 301.09628  L74.21875 301.02383  L74.70703 301.00867  L75.19531 301.17151  L75.68359 301.03522  L76.17188 300.99786  L76.66016 301.04858  L77.14844 300.95618  L77.63672 300.92468  L78.12500 300.87067  L78.61328 300.86673  L79.10156 300.98132  L79.58984 300.88092  L80.07813 300.86206  L80.56641 300.88977  L81.05469 300.82886  L81.54297 300.80664  L82.03125 300.76337  L82.51953 300.76566  L83.00781 300.85083  L83.49609 300.77301  L83.98438 300.76337  L84.47266 300.77850  L84.96094 300.73593  L85.44922 300.71936  L85.93750 300.68304  L86.42578 300.68912  L86.91406 300.75485  L87.40234 300.69232  L87.89063 300.68765  L88.37891 300.69543  L88.86719 300.66446  L89.35547 300.65152  L89.84375 300.62012  L90.33203 300.62860  L90.82031 300.68073  L91.30859 300.62918  L91.79688 300.62735  L92.28516 300.63049  L92.77344 300.60736  L93.26172 300.59686  L93.75000 300.56909  L94.23828 300.57919  L94.72656 300.62140  L95.21484 300.57806  L95.70313 300.57788  L96.19141 300.57803  L96.67969 300.56042  L97.16797 300.55164  L97.65625 300.52667  L98.14453 300.53790  L98.63281 300.57260  L99.12109 300.53558  L99.60938 300.53638  L100.09766 300.53448  L100.58594 300.52097  L101.07422 300.51337  L101.56250 300.49063  L102.05078 300.50269  L102.53906 300.53162  L103.02734 300.49957  L103.51563 300.50092  L104.00391 300.49765  L104.49219 300.48724  L104.98047 300.48047  L105.46875 300.45953  L105.95703 300.47223  L106.44531 300.49655  L106.93359 300.46854  L107.42188 300.47021  L107.91016 300.46594  L108.39844 300.45795  L108.88672 300.45175  L109.37500 300.43234  L109.86328 300.44553  L110.35156 300.46616  L110.83984 300.44141  L111.32813 300.44324  L111.81641 300.43826  L112.30469 300.43222  L112.79297 300.42642  L113.28125 300.40829  L113.76953 300.42188  L114.25781 300.43948  L114.74609 300.41748  L115.23438 300.41931  L115.72266 300.41385  L116.21094 300.40939  L116.69922 300.40381  L117.18750 300.38678  L117.67578 300.40070  L118.16406 300.41583  L118.65234 300.39612  L119.14063 300.39795  L119.62891 300.39209  L120.11719 300.38898  L120.60547 300.38351  L121.09375 300.36740  L121.58203 300.38165  L122.07031 300.39465  L122.55859 300.37689  L123.04688 300.37866  L123.53516 300.37250  L124.02344 300.37054  L124.51172 300.36508  L125.00000 300.34979  L125.48828 300.36438  L125.97656 300.37558  L126.46484 300.35950  L126.95313 300.36115  L127.44141 300.35477  L127.92969 300.35379  L128.41797 300.34827  L128.90625 300.33371  L129.39453 300.34863  L129.88281 300.35828  L130.37109 300.34366  L130.85938 300.34515  L131.34766 300.33862  L131.83594 300.33850  L132.32422 300.33282  L132.81250 300.31888  L133.30078 300.33417  L133.78906 300.34247  L134.27734 300.32913  L134.76563 300.33044  L135.25391 300.32379  L135.74219 300.32446  L136.23047 300.31857  L136.71875 300.30518  L137.20703 300.32086  L137.69531 300.32797  L138.18359 300.31573  L138.67188 300.31689  L139.16016 300.31009  L139.64844 300.31149  L140.13672 300.30533  L140.62500 300.29242  L141.11328 300.30853  L141.60156 300.31461  L142.08984 300.30338  L142.57813 300.30432  L143.06641 300.29742  L143.55469 300.29950  L144.04297 300.29297  L144.53125 300.28046  L145.01953 300.29712  L145.50781 300.30225  L145.99609 300.29187  L146.48438 300.29260  L146.97266 300.28558  L147.46094 300.28833  L147.94922 300.28137  L148.43750 300.26920  L148.92578 300.28647  L149.41406 300.29071  L149.90234 300.28116  L150.39063 300.28165  L150.87891 300.27454  L151.36719 300.27789  L151.85547 300.27042  L152.34375 300.25854  L152.83203 300.27652  L153.32031 300.27997  L153.80859 300.27112  L154.29688 300.27136  L154.78516 300.26410  L155.27344 300.26816  L155.76172 300.26001  L156.25000 300.24835  L156.73828 300.26721  L157.22656 300.26993  L157.71484 300.26172  L158.20313 300.26166  L158.69141 300.25424  L159.17969 300.25900  L159.66797 300.25006  L160.15625 300.23859  L160.64453 300.25851  L161.13281 300.26047  L161.62109 300.25287  L162.10938 300.25250  L162.59766 300.24484  L163.08594 300.25037  L163.57422 300.24048  L164.06250 300.22910  L164.55078 300.25031  L165.03906 300.25159  L165.52734 300.24448  L166.01563 300.24374  L166.50391 300.23584  L166.99219 300.24222  L167.48047 300.23111  L167.96875 300.21976  L168.45703 300.24265  L168.94531 300.24313  L169.43359 300.23654  L169.92188 300.23538  L170.41016 300.22711  L170.89844 300.23450  L171.38672 300.22189  L171.87500 300.21039  L172.36328 300.23544  L172.85156 300.23514  L173.33984 300.22900  L173.82813 300.22733  L174.31641 300.21857  L174.80469 300.22717  L175.29297 300.21255  L175.78125 300.20081  L176.26953 300.22870  L176.75781 300.22751  L177.24609 300.22183  L177.73438 300.21945  L178.22266 300.20999  L178.71094 300.22021  L179.19922 300.20282  L179.68750 300.19055  L180.17578 300.22247  L180.66406 300.22021  L181.15234 300.21494  L181.64063 300.21161  L182.12891 300.20111  L182.61719 300.21353  L183.10547 300.19217  L183.59375 300.17892  L184.08203 300.21686  L184.57031 300.21310  L185.05859 300.20828  L185.54688 300.20355  L186.03516 300.19135  L186.52344 300.20712  L187.01172 300.17935  L187.50000 300.16431  L187.98828 300.21207  L188.47656 300.20605  L188.96484 300.20169  L189.45313 300.19458  L189.94141 300.17926  L190.42969 300.20090  L190.91797 300.16125  L191.40625 300.14218  L191.89453 300.20886  L192.38281 300.19870  L192.87109 300.19489  L193.35938 300.18265  L193.84766 300.15988  L194.33594 300.19461  L194.82422 300.12518  L195.31250 300.09311  L195.80078 300.21088  L196.28906 300.18896  L196.77734 300.18597  L197.26563 300.15369  L197.75391 300.09363  L198.24219 300.18607  L198.73047 299.90283  L199.21875 299.60892  L199.70703 300.41742  L200.19531 300.33502  L200.68359 300.21524  L201.17188 300.28018  L201.66016 300.31317  L202.14844 300.18884  L202.63672 300.32312  L203.12500 300.32208  L203.61328 300.16589  L204.10156 300.19244  L204.58984 300.18579  L205.07813 300.20395  L205.56641 300.21729  L206.05469 300.18143  L206.54297 300.23541  L207.03125 300.23737  L207.51953 300.17047  L208.00781 300.18393  L208.49609 300.17889  L208.98438 300.18967  L209.47266 300.19647  L209.96094 300.17609  L210.44922 300.20969  L210.93750 300.20984  L211.42578 300.16870  L211.91406 300.17783  L212.40234 300.17340  L212.89063 300.18121  L213.37891 300.18509  L213.86719 300.17117  L214.35547 300.19547  L214.84375 300.19449  L215.33203 300.16559  L215.82031 300.17249  L216.30859 300.16846  L216.79688 300.17462  L217.28516 300.17688  L217.77344 300.16653  L218.26172 300.18549  L218.75000 300.18381  L219.23828 300.16199  L219.72656 300.16754  L220.21484 300.16379  L220.70313 300.16891  L221.19141 300.17020  L221.67969 300.16211  L222.16797 300.17755  L222.65625 300.17542  L223.14453 300.15826  L223.63281 300.16284  L224.12109 300.15936  L224.60938 300.16376  L225.09766 300.16437  L225.58594 300.15784  L226.07422 300.17084  L226.56250 300.16840  L227.05078 300.15451  L227.53906 300.15842  L228.02734 300.15512  L228.51563 300.15897  L229.00391 300.15909  L229.49219 300.15372  L229.98047 300.16489  L230.46875 300.16229  L230.95703 300.15079  L231.44531 300.15414  L231.93359 300.15106  L232.42188 300.15448  L232.91016 300.15424  L233.39844 300.14975  L233.88672 300.15952  L234.37500 300.15677  L234.86328 300.14709  L235.35156 300.15002  L235.83984 300.14709  L236.32813 300.15021  L236.81641 300.14969  L237.30469 300.14590  L237.79297 300.15454  L238.28125 300.15173  L238.76953 300.14349  L239.25781 300.14609  L239.74609 300.14331  L240.23438 300.14612  L240.72266 300.14542  L241.21094 300.14218  L241.69922 300.14990  L242.18750 300.14703  L242.67578 300.13998  L243.16406 300.14227  L243.65234 300.13962  L244.14063 300.14218  L244.62891 300.14133  L245.11719 300.13855  L245.60547 300.14551  L246.09375 300.14261  L246.58203 300.13654  L247.07031 300.13855  L247.55859 300.13605  L248.04688 300.13843  L248.53516 300.13742  L249.02344 300.13507  L249.51172 300.14136  L250.00000 300.13843  L250.48828 300.13318  L250.97656 300.13495  L251.46484 300.13257  L251.95313 300.13477  L252.44141 300.13367  L252.92969 300.13165  L253.41797 300.13736  L253.90625 300.13446  L254.39453 300.12991  L254.88281 300.13147  L255.37109 300.12921  L255.85938 300.13123  L256.34766 300.13007  L256.83594 300.12836  L257.32422 300.13354  L257.81250 300.13068  L258.30078 300.12671  L258.78906 300.12811  L259.27734 300.12595  L259.76563 300.12781  L260.25391 300.12659  L260.74219 300.12512  L261.23047 300.12991  L261.71875 300.12708  L262.20703 300.12357  L262.69531 300.12482  L263.18359 300.12274  L263.67188 300.12451  L264.16016 300.12323  L264.64844 300.12198  L265.13672 300.12637  L265.62500 300.12357  L266.11328 300.12051  L266.60156 300.12161  L267.08984 300.11963  L267.57813 300.12128  L268.06641 300.11996  L268.55469 300.11890  L269.04297 300.12296  L269.53125 300.12021  L270.01953 300.11752  L270.50781 300.11847  L270.99609 300.11661  L271.48438 300.11813  L271.97266 300.11682  L272.46094 300.11591  L272.94922 300.11966  L273.43750 300.11694  L273.92578 300.11462  L274.41406 300.11545  L274.90234 300.11365  L275.39063 300.11508  L275.87891 300.11374  L276.36719 300.11301  L276.85547 300.11646  L277.34375 300.11377  L277.83203 300.11176  L278.32031 300.11249  L278.80859 300.11078  L279.29688 300.11212  L279.78516 300.11075  L280.27344 300.11014  L280.76172 300.11334  L281.25000 300.11072  L281.73828 300.10895  L282.22656 300.10959  L282.71484 300.10794  L283.20313 300.10919  L283.69141 300.10785  L284.17969 300.10736  L284.66797 300.11032  L285.15625 300.10776  L285.64453 300.10620  L286.13281 300.10675  L286.62109 300.10519  L287.10938 300.10638  L287.59766 300.10498  L288.08594 300.10461  L288.57422 300.10736  L289.06250 300.10486  L289.55078 300.10355  L290.03906 300.10397  L290.52734 300.10248  L291.01563 300.10358  L291.50391 300.10223  L291.99219 300.10196  L292.48047 300.10449  L292.96875 300.10205  L293.45703 300.10089  L293.94531 300.10126  L294.43359 300.09985  L294.92188 300.10089  L295.41016 300.09952  L295.89844 300.09937  L296.38672 300.10168  L296.87500 300.09930  L297.36328 300.09833  L297.85156 300.09863  L298.33984 300.09726  L298.82813 300.09824  L299.31641 300.09686  L299.80469 300.09680  L300.29297 300.09897  L300.78125 300.09662  L301.26953 300.09583  L301.75781 300.09601  L302.24609 300.09473  L302.73438 300.09564  L303.22266 300.09430  L303.71094 300.09427  L304.19922 300.09628  L304.68750 300.09399  L305.17578 300.09332  L305.66406 300.09348  L306.15234 300.09222  L306.64063 300.09308  L307.12891 300.09174  L307.61719 300.09180  L308.10547 300.09369  L308.59375 300.09143  L309.08203 300.09088  L309.57031 300.09097  L310.05859 300.08978  L310.54688 300.09061  L311.03516 300.08926  L311.52344 300.08939  L312.01172 300.09113  L312.50000 300.08893  L312.98828 300.08850  L313.47656 300.08853  L313.96484 300.08740  L314.45313 300.08817  L314.94141 300.08682  L315.42969 300.08701  L315.91797 300.08859  L316.40625 300.08649  L316.89453 300.08615  L317.38281 300.08612  L317.87109 300.08505  L318.35938 300.08575  L318.84766 300.08444  L319.33594 300.08469  L319.82422 300.08612  L320.31250 300.08408  L320.80078 300.08383  L321.28906 300.08374  L321.77734 300.08273  L322.26563 300.08340  L322.75391 300.08209  L323.24219 300.08240  L323.73047 300.08374  L324.21875 300.08173  L324.70703 300.08157  L325.19531 300.08142  L325.68359 300.08047  L326.17188 300.08109  L326.66016 300.07980  L327.14844 300.08014  L327.63672 300.08136  L328.12500 300.07941  L328.61328 300.07935  L329.10156 300.07916  L329.58984 300.07825  L330.07813 300.07880  L330.56641 300.07755  L331.05469 300.07791  L331.54297 300.07904  L332.03125 300.07715  L332.51953 300.07712  L333.00781 300.07690  L333.49609 300.07602  L333.98438 300.07657  L334.47266 300.07532  L334.96094 300.07571  L335.44922 300.07672  L335.93750 300.07489  L336.42578 300.07495  L336.91406 300.07471  L337.40234 300.07385  L337.89063 300.07434  L338.37891 300.07312  L338.86719 300.07355  L339.35547 300.07446  L339.84375 300.07269  L340.33203 300.07281  L340.82031 300.07251  L341.30859 300.07172  L341.79688 300.07217  L342.28516 300.07098  L342.77344 300.07144  L343.26172 300.07227  L343.75000 300.07056  L344.23828 300.07071  L344.72656 300.07037  L345.21484 300.06964  L345.70313 300.07004  L346.19141 300.06885  L346.67969 300.06934  L347.16797 300.07007  L347.65625 300.06842  L348.14453 300.06863  L348.63281 300.06827  L349.12109 300.06757  L349.60938 300.06793  L350.09766 300.06677  L350.58594 300.06726  L351.07422 300.06793  L351.56250 300.06635  L352.05078 300.06659  L352.53906 300.06616  L353.02734 300.06549  L353.51563 300.06586  L354.00391 300.06473  L354.49219 300.06525  L354.98047 300.06580  L355.46875 300.06427  L355.95703 300.06458  L356.44531 300.06412  L356.93359 300.06348  L357.42188 300.06381  L357.91016 300.06268  L358.39844 300.06323  L358.88672 300.06372  L359.37500 300.06223  L359.86328 300.06256  L360.35156 300.06207  L360.83984 300.06149  L361.32813 300.06177  L361.81641 300.06067  L362.30469 300.06122  L362.79297 300.06168  L363.28125 300.06024  L363.76953 300.06058  L364.25781 300.06009  L364.74609 300.05951  L365.23438 300.05978  L365.72266 300.05872  L366.21094 300.05927  L366.69922 300.05963  L367.18750 300.05826  L367.67578 300.05862  L368.16406 300.05811  L368.65234 300.05759  L369.14063 300.05780  L369.62891 300.05676  L370.11719 300.05734  L370.60547 300.05762  L371.09375 300.05630  L371.58203 300.05670  L372.07031 300.05615  L372.55859 300.05566  L373.04688 300.05585  L373.53516 300.05484  L374.02344 300.05542  L374.51172 300.05566  L375.00000 300.05438  L375.48828 300.05478  L375.97656 300.05420  L376.46484 300.05377  L376.95313 300.05392  L377.44141 300.05292  L377.92969 300.05353  L378.41797 300.05368  L378.90625 300.05246  L379.39453 300.05289  L379.88281 300.05231  L380.37109 300.05188  L380.85938 300.05203  L381.34766 300.05103  L381.83594 300.05164  L382.32422 300.05176  L382.81250 300.05057  L383.30078 300.05103  L383.78906 300.05042  L384.27734 300.05002  L384.76563 300.05014  L385.25391 300.04916  L385.74219 300.04977  L386.23047 300.04984  L386.71875 300.04871  L387.20703 300.04916  L387.69531 300.04852  L388.18359 300.04816  L388.67188 300.04828  L389.16016 300.04733  L389.64844 300.04791  L390.13672 300.04794  L390.62500 300.04688  L391.11328 300.04733  L391.60156 300.04669  L392.08984 300.04636  L392.57813 300.04645  L393.06641 300.04550  L393.55469 300.04611  L394.04297 300.04608  L394.53125 300.04504  L395.01953 300.04553  L395.50781 300.04486  L395.99609 300.04456  L396.48438 300.04462  L396.97266 300.04370  L397.46094 300.04431  L397.94922 300.04419  L398.43750 300.04321  L398.92578 300.04370  L399.41406 300.04303  L399.90234 300.04276  L400.39063 300.04279  L400.87891 300.04190  L401.36719 300.04251  L401.85547 300.04236  L402.34375 300.04144  L402.83203 300.04193  L403.32031 300.04123  L403.80859 300.04099  L404.29688 300.04099  L404.78516 300.04013  L405.27344 300.04071  L405.76172 300.04053  L406.25000 300.03967  L406.73828 300.04016  L407.22656 300.03943  L407.71484 300.03922  L408.20313 300.03922  L408.69141 300.03836  L409.17969 300.03897  L409.66797 300.03876  L410.15625 300.03790  L410.64453 300.03839  L411.13281 300.03766  L411.62109 300.03748  L412.10938 300.03745  L412.59766 300.03662  L413.08594 300.03720  L413.57422 300.03696  L414.06250 300.03616  L414.55078 300.03665  L415.03906 300.03589  L415.52734 300.03574  L416.01563 300.03571  L416.50391 300.03488  L416.99219 300.03546  L417.48047 300.03516  L417.96875 300.03442  L418.45703 300.03491  L418.94531 300.03415  L419.43359 300.03400  L419.92188 300.03394  L420.41016 300.03314  L420.89844 300.03375  L421.38672 300.03339  L421.87500 300.03271  L422.36328 300.03317  L422.85156 300.03241  L423.33984 300.03229  L423.82813 300.03223  L424.31641 300.03143  L424.80469 300.03204  L425.29297 300.03165  L425.78125 300.03101  L426.26953 300.03146  L426.75781 300.03070  L427.24609 300.03061  L427.73438 300.03049  L428.22266 300.02975  L428.71094 300.03033  L429.19922 300.02991  L429.68750 300.02930  L430.17578 300.02975  L430.66406 300.02899  L431.15234 300.02893  L431.64063 300.02881  L432.12891 300.02808  L432.61719 300.02863  L433.10547 300.02820  L433.59375 300.02762  L434.08203 300.02808  L434.57031 300.02728  L435.05859 300.02722  L435.54688 300.02710  L436.03516 300.02637  L436.52344 300.02692  L437.01172 300.02646  L437.50000 300.02594  L437.98828 300.02637  L438.47656 300.02557  L438.96484 300.02557  L439.45313 300.02539  L439.94141 300.02472  L440.42969 300.02527  L440.91797 300.02475  L441.40625 300.02429  L441.89453 300.02469  L442.38281 300.02390  L442.87109 300.02390  L443.35938 300.02374  L443.84766 300.02307  L444.33594 300.02359  L444.82422 300.02307  L445.31250 300.02264  L445.80078 300.02301  L446.28906 300.02222  L446.77734 300.02225  L447.26563 300.02206  L447.75391 300.02139  L448.24219 300.02191  L448.73047 300.02136  L449.21875 300.02100  L449.70703 300.02136  L450.19531 300.02054  L450.68359 300.02060  L451.17188 300.02039  L451.66016 300.01974  L452.14844 300.02026  L452.63672 300.01968  L453.12500 300.01935  L453.61328 300.01971  L454.10156 300.01889  L454.58984 300.01898  L455.07813 300.01874  L455.56641 300.01813  L456.05469 300.01862  L456.54297 300.01801  L457.03125 300.01770  L457.51953 300.01807  L458.00781 300.01724  L458.49609 300.01733  L458.98438 300.01709  L459.47266 300.01648  L459.96094 300.01697  L460.44922 300.01636  L460.93750 300.01608  L461.42578 300.01642  L461.91406 300.01559  L462.40234 300.01572  L462.89063 300.01544  L463.37891 300.01486  L463.86719 300.01532  L464.35547 300.01468  L464.84375 300.01447  L465.33203 300.01477  L465.82031 300.01395  L466.30859 300.01410  L466.79688 300.01379  L467.28516 300.01324  L467.77344 300.01370  L468.26172 300.01303  L468.75000 300.01282  L469.23828 300.01312  L469.72656 300.01230  L470.21484 300.01245  L470.70313 300.01218  L471.19141 300.01163  L471.67969 300.01205  L472.16797 300.01138  L472.65625 300.01123  L473.14453 300.01147  L473.63281 300.01068  L474.12109 300.01086  L474.60938 300.01056  L475.09766 300.01001  L475.58594 300.01044  L476.07422 300.00974  L476.56250 300.00961  L477.05078 300.00986  L477.53906 300.00903  L478.02734 300.00925  L478.51563 300.00891  L479.00391 300.00839  L479.49219 300.00882  L479.98047 300.00812  L480.46875 300.00800  L480.95703 300.00821  L481.44531 300.00742  L481.93359 300.00763  L482.42188 300.00729  L482.91016 300.00681  L483.39844 300.00720  L483.88672 300.00647  L484.37500 300.00641  L484.86328 300.00659  L485.35156 300.00580  L485.83984 300.00604  L486.32813 300.00568  L486.81641 300.00519  L487.30469 300.00555  L487.79297 300.00482  L488.28125 300.00482  L488.76953 300.00494  L489.25781 300.00415  L489.74609 300.00443  L490.23438 300.00406  L490.72266 300.00360  L491.21094 300.00397  L491.69922 300.00320  L492.18750 300.00320  L492.67578 300.00333  L493.16406 300.00253  L493.65234 300.00284  L494.14063 300.00244  L494.62891 300.00198  L495.11719 300.00232  L495.60547 300.00156  L496.09375 300.00159  L496.58203 300.00171  L497.07031 300.00092  L497.55859 300.00122  L498.04688 300.00082  L498.53516 300.00040  L499.02344 300.00070  L499.51172 299.99994  L500.00000 300.00000  L500.48828 300.00006  L500.97656 299.99930  L501.46484 299.99963  L501.95313 299.99921  L502.44141 299.99878  L502.92969 299.99908  L503.41797 299.99832  L503.90625 299.99841  L504.39453 299.99844  L504.88281 299.99768  L505.37109 299.99805  L505.85938 299.99759  L506.34766 299.99719  L506.83594 299.99747  L507.32422 299.99667  L507.81250 299.99683  L508.30078 299.99683  L508.78906 299.99606  L509.27734 299.99643  L509.76563 299.99597  L510.25391 299.99557  L510.74219 299.99585  L511.23047 299.99506  L511.71875 299.99521  L512.20703 299.99518  L512.69531 299.99445  L513.18359 299.99481  L513.67188 299.99435  L514.16016 299.99399  L514.64844 299.99423  L515.13672 299.99344  L515.62500 299.99362  L516.11328 299.99356  L516.60156 299.99283  L517.08984 299.99323  L517.57813 299.99274  L518.06641 299.99237  L518.55469 299.99261  L519.04297 299.99179  L519.53125 299.99200  L520.01953 299.99191  L520.50781 299.99121  L520.99609 299.99161  L521.48438 299.99109  L521.97266 299.99078  L522.46094 299.99097  L522.94922 299.99017  L523.43750 299.99042  L523.92578 299.99030  L524.41406 299.98959  L524.90234 299.98999  L525.39063 299.98947  L525.87891 299.98917  L526.36719 299.98935  L526.85547 299.98853  L527.34375 299.98880  L527.83203 299.98865  L528.32031 299.98795  L528.80859 299.98840  L529.29688 299.98785  L529.78516 299.98755  L530.27344 299.98773  L530.76172 299.98691  L531.25000 299.98718  L531.73828 299.98700  L532.22656 299.98633  L532.71484 299.98679  L533.20313 299.98621  L533.69141 299.98593  L534.17969 299.98608  L534.66797 299.98526  L535.15625 299.98557  L535.64453 299.98532  L536.13281 299.98468  L536.62109 299.98517  L537.10938 299.98456  L537.59766 299.98431  L538.08594 299.98444  L538.57422 299.98361  L539.06250 299.98395  L539.55078 299.98367  L540.03906 299.98303  L540.52734 299.98352  L541.01563 299.98291  L541.50391 299.98267  L541.99219 299.98279  L542.48047 299.98196  L542.96875 299.98230  L543.45703 299.98199  L543.94531 299.98138  L544.43359 299.98190  L544.92188 299.98126  L545.41016 299.98105  L545.89844 299.98114  L546.38672 299.98032  L546.87500 299.98068  L547.36328 299.98035  L547.85156 299.97974  L548.33984 299.98026  L548.82813 299.97961  L549.31641 299.97943  L549.80469 299.97946  L550.29297 299.97867  L550.78125 299.97903  L551.26953 299.97864  L551.75781 299.97809  L552.24609 299.97861  L552.73438 299.97797  L553.22266 299.97778  L553.71094 299.97778  L554.19922 299.97699  L554.68750 299.97739  L555.17578 299.97696  L555.66406 299.97644  L556.15234 299.97696  L556.64063 299.97629  L557.12891 299.97610  L557.61719 299.97614  L558.10547 299.97531  L558.59375 299.97574  L559.08203 299.97525  L559.57031 299.97476  L560.05859 299.97531  L560.54688 299.97461  L561.03516 299.97446  L561.52344 299.97443  L562.01172 299.97363  L562.50000 299.97406  L562.98828 299.97354  L563.47656 299.97308  L563.96484 299.97363  L564.45313 299.97293  L564.94141 299.97278  L565.42969 299.97275  L565.91797 299.97195  L566.40625 299.97241  L566.89453 299.97183  L567.38281 299.97141  L567.87109 299.97195  L568.35938 299.97122  L568.84766 299.97110  L569.33594 299.97104  L569.82422 299.97028  L570.31250 299.97070  L570.80078 299.97009  L571.28906 299.96970  L571.77734 299.97028  L572.26563 299.96951  L572.75391 299.96942  L573.24219 299.96933  L573.73047 299.96857  L574.21875 299.96902  L574.70703 299.96838  L575.19531 299.96799  L575.68359 299.96857  L576.17188 299.96780  L576.66016 299.96771  L577.14844 299.96759  L577.63672 299.96683  L578.12500 299.96732  L578.61328 299.96661  L579.10156 299.96628  L579.58984 299.96686  L580.07813 299.96606  L580.56641 299.96600  L581.05469 299.96588  L581.54297 299.96512  L582.03125 299.96558  L582.51953 299.96484  L583.00781 299.96454  L583.49609 299.96515  L583.98438 299.96432  L584.47266 299.96429  L584.96094 299.96411  L585.44922 299.96338  L585.93750 299.96387  L586.42578 299.96307  L586.91406 299.96280  L587.40234 299.96341  L587.89063 299.96259  L588.37891 299.96255  L588.86719 299.96237  L589.35547 299.96161  L589.84375 299.96210  L590.33203 299.96127  L590.82031 299.96106  L591.30859 299.96167  L591.79688 299.96082  L592.28516 299.96082  L592.77344 299.96057  L593.26172 299.95987  L593.75000 299.96036  L594.23828 299.95947  L594.72656 299.95929  L595.21484 299.95990  L595.70313 299.95905  L596.19141 299.95905  L596.67969 299.95880  L597.16797 299.95810  L597.65625 299.95859  L598.14453 299.95764  L598.63281 299.95752  L599.12109 299.95813  L599.60938 299.95721  L600.09766 299.95728  L600.58594 299.95700  L601.07422 299.95630  L601.56250 299.95679  L602.05078 299.95581  L602.53906 299.95572  L603.02734 299.95633  L603.51563 299.95541  L604.00391 299.95547  L604.49219 299.95517  L604.98047 299.95450  L605.46875 299.95499  L605.95703 299.95395  L606.44531 299.95392  L606.93359 299.95453  L607.42188 299.95358  L607.91016 299.95367  L608.39844 299.95334  L608.88672 299.95270  L609.37500 299.95316  L609.86328 299.95209  L610.35156 299.95209  L610.83984 299.95270  L611.32813 299.95175  L611.81641 299.95184  L612.30469 299.95148  L612.79297 299.95084  L613.28125 299.95129  L613.76953 299.95020  L614.25781 299.95026  L614.74609 299.95084  L615.23438 299.94989  L615.72266 299.95001  L616.21094 299.94962  L616.69922 299.94897  L617.18750 299.94946  L617.67578 299.94827  L618.16406 299.94836  L618.65234 299.94897  L619.14063 299.94800  L619.62891 299.94815  L620.11719 299.94772  L620.60547 299.94711  L621.09375 299.94757  L621.58203 299.94632  L622.07031 299.94650  L622.55859 299.94708  L623.04688 299.94608  L623.53516 299.94626  L624.02344 299.94580  L624.51172 299.94522  L625.00000 299.94565  L625.48828 299.94437  L625.97656 299.94461  L626.46484 299.94519  L626.95313 299.94415  L627.44141 299.94437  L627.92969 299.94388  L628.41797 299.94333  L628.90625 299.94373  L629.39453 299.94238  L629.88281 299.94269  L630.37109 299.94327  L630.85938 299.94220  L631.34766 299.94244  L631.83594 299.94193  L632.32422 299.94141  L632.81250 299.94177  L633.30078 299.94037  L633.78906 299.94073  L634.27734 299.94131  L634.76563 299.94025  L635.25391 299.94049  L635.74219 299.93994  L636.23047 299.93945  L636.71875 299.93979  L637.20703 299.93835  L637.69531 299.93878  L638.18359 299.93933  L638.67188 299.93823  L639.16016 299.93854  L639.64844 299.93793  L640.13672 299.93747  L640.62500 299.93777  L641.11328 299.93628  L641.60156 299.93680  L642.08984 299.93732  L642.57813 299.93622  L643.06641 299.93652  L643.55469 299.93591  L644.04297 299.93546  L644.53125 299.93576  L645.01953 299.93420  L645.50781 299.93478  L645.99609 299.93530  L646.48438 299.93414  L646.97266 299.93451  L647.46094 299.93384  L647.94922 299.93344  L648.43750 299.93369  L648.92578 299.93207  L649.41406 299.93274  L649.90234 299.93323  L650.39063 299.93207  L650.87891 299.93246  L651.36719 299.93176  L651.85547 299.93140  L652.34375 299.93158  L652.83203 299.92993  L653.32031 299.93066  L653.80859 299.93115  L654.29688 299.92999  L654.78516 299.93039  L655.27344 299.92963  L655.76172 299.92932  L656.25000 299.92947  L656.73828 299.92773  L657.22656 299.92859  L657.71484 299.92902  L658.20313 299.92783  L658.69141 299.92828  L659.17969 299.92749  L659.66797 299.92719  L660.15625 299.92731  L660.64453 299.92554  L661.13281 299.92645  L661.62109 299.92688  L662.10938 299.92566  L662.59766 299.92615  L663.08594 299.92532  L663.57422 299.92505  L664.06250 299.92511  L664.55078 299.92328  L665.03906 299.92432  L665.52734 299.92468  L666.01563 299.92346  L666.50391 299.92398  L666.99219 299.92310  L667.48047 299.92288  L667.96875 299.92288  L668.45703 299.92099  L668.94531 299.92212  L669.43359 299.92249  L669.92188 299.92120  L670.41016 299.92178  L670.89844 299.92087  L671.38672 299.92068  L671.87500 299.92059  L672.36328 299.91867  L672.85156 299.91989  L673.33984 299.92023  L673.82813 299.91895  L674.31641 299.91956  L674.80469 299.91858  L675.29297 299.91846  L675.78125 299.91830  L676.26953 299.91629  L676.75781 299.91763  L677.24609 299.91791  L677.73438 299.91663  L678.22266 299.91727  L678.71094 299.91626  L679.19922 299.91617  L679.68750 299.91592  L680.17578 299.91388  L680.66406 299.91534  L681.15234 299.91559  L681.64063 299.91425  L682.12891 299.91498  L682.61719 299.91388  L683.10547 299.91388  L683.59375 299.91351  L684.08203 299.91141  L684.57031 299.91302  L685.05859 299.91318  L685.54688 299.91187  L686.03516 299.91260  L686.52344 299.91150  L687.01172 299.91150  L687.50000 299.91107  L687.98828 299.90891  L688.47656 299.91064  L688.96484 299.91077  L689.45313 299.90942  L689.94141 299.91022  L690.42969 299.90906  L690.91797 299.90912  L691.40625 299.90857  L691.89453 299.90634  L692.38281 299.90820  L692.87109 299.90826  L693.35938 299.90692  L693.84766 299.90778  L694.33594 299.90656  L694.82422 299.90668  L695.31250 299.90601  L695.80078 299.90372  L696.28906 299.90576  L696.77734 299.90573  L697.26563 299.90436  L697.75391 299.90527  L698.24219 299.90399  L698.73047 299.90421  L699.21875 299.90338  L699.70703 299.90106  L700.19531 299.90323  L700.68359 299.90314  L701.17188 299.90179  L701.66016 299.90277  L702.14844 299.90140  L702.63672 299.90167  L703.12500 299.90073  L703.61328 299.89832  L704.10156 299.90067  L704.58984 299.90051  L705.07813 299.89914  L705.56641 299.90018  L706.05469 299.89874  L706.54297 299.89911  L707.03125 299.89795  L707.51953 299.89551  L708.00781 299.89807  L708.49609 299.89780  L708.98438 299.89642  L709.47266 299.89752  L709.96094 299.89606  L710.44922 299.89648  L710.93750 299.89514  L711.42578 299.89264  L711.91406 299.89539  L712.40234 299.89502  L712.89063 299.89365  L713.37891 299.89484  L713.86719 299.89328  L714.35547 299.89380  L714.84375 299.89227  L715.33203 299.88971  L715.82031 299.89264  L716.30859 299.89218  L716.79688 299.89081  L717.28516 299.89206  L717.77344 299.89044  L718.26172 299.89105  L718.75000 299.88928  L719.23828 299.88666  L719.72656 299.88986  L720.21484 299.88928  L720.70313 299.88791  L721.19141 299.88925  L721.67969 299.88754  L722.16797 299.88828  L722.65625 299.88623  L723.14453 299.88354  L723.63281 299.88702  L724.12109 299.88629  L724.60938 299.88495  L725.09766 299.88635  L725.58594 299.88458  L726.07422 299.88541  L726.56250 299.88309  L727.05078 299.88037  L727.53906 299.88409  L728.02734 299.88321  L728.51563 299.88190  L729.00391 299.88342  L729.49219 299.88153  L729.98047 299.88251  L730.46875 299.87982  L730.95703 299.87708  L731.44531 299.88110  L731.93359 299.88007  L732.42188 299.87875  L732.91016 299.88037  L733.39844 299.87842  L733.88672 299.87952  L734.37500 299.87646  L734.86328 299.87366  L735.35156 299.87805  L735.83984 299.87677  L736.32813 299.87552  L736.81641 299.87726  L737.30469 299.87521  L737.79297 299.87643  L738.28125 299.87296  L738.76953 299.87012  L739.25781 299.87491  L739.74609 299.87341  L740.23438 299.87219  L740.72266 299.87408  L741.21094 299.87192  L741.69922 299.87332  L742.18750 299.86932  L742.67578 299.86646  L743.16406 299.87167  L743.65234 299.86993  L744.14063 299.86877  L744.62891 299.87079  L745.11719 299.86853  L745.60547 299.87012  L746.09375 299.86554  L746.58203 299.86264  L747.07031 299.86838  L747.55859 299.86633  L748.04688 299.86526  L748.53516 299.86743  L749.02344 299.86505  L749.51172 299.86682  L750.00000 299.86157  L750.48828 299.85867  L750.97656 299.86496  L751.46484 299.86261  L751.95313 299.86160  L752.44141 299.86395  L752.92969 299.86145  L753.41797 299.86346  L753.90625 299.85742  L754.39453 299.85452  L754.88281 299.86145  L755.37109 299.85870  L755.85938 299.85785  L756.34766 299.86041  L756.83594 299.85776  L757.32422 299.86005  L757.81250 299.85300  L758.30078 299.85013  L758.78906 299.85785  L759.27734 299.85461  L759.76563 299.85391  L760.25391 299.85672  L760.74219 299.85394  L761.23047 299.85651  L761.71875 299.84830  L762.20703 299.84549  L762.69531 299.85413  L763.18359 299.85031  L763.67188 299.84982  L764.16016 299.85291  L764.64844 299.84998  L765.13672 299.85291  L765.62500 299.84326  L766.11328 299.84052  L766.60156 299.85028  L767.08984 299.84576  L767.57813 299.84555  L768.06641 299.84897  L768.55469 299.84589  L769.04297 299.84924  L769.53125 299.83774  L770.01953 299.83511  L770.50781 299.84631  L770.99609 299.84091  L771.48438 299.84103  L771.97266 299.84488  L772.46094 299.84161  L772.94922 299.84552  L773.43750 299.83160  L773.92578 299.82919  L774.41406 299.84219  L774.90234 299.83566  L775.39063 299.83624  L775.87891 299.84064  L776.36719 299.83716  L776.85547 299.84177  L777.34375 299.82458  L777.83203 299.82248  L778.32031 299.83792  L778.80859 299.82983  L779.29688 299.83112  L779.78516 299.83621  L780.27344 299.83249  L780.76172 299.83801  L781.25000 299.81622  L781.73828 299.81454  L782.22656 299.83350  L782.71484 299.82312  L783.20313 299.82541  L783.69141 299.83157  L784.17969 299.82755  L784.66797 299.83444  L785.15625 299.80554  L785.64453 299.80457  L786.13281 299.82886  L786.62109 299.81494  L787.10938 299.81882  L787.59766 299.82660  L788.08594 299.82220  L788.57422 299.83130  L789.06250 299.79016  L789.55078 299.79034  L790.03906 299.82394  L790.52734 299.80356  L791.01563 299.81033  L791.50391 299.82111  L791.99219 299.81610  L792.48047 299.82953  L792.96875 299.76263  L793.45703 299.76459  L793.94531 299.81857  L794.43359 299.78271  L794.92188 299.79608  L795.41016 299.81421  L795.89844 299.80759  L796.38672 299.83414  L796.87500 299.67792  L797.36328 299.67691  L797.85156 299.81119  L798.33984 299.68683  L798.82813 299.71985  L799.31641 299.78479  L799.80469 299.66501  L800.29297 299.58261  L800.78125 300.39111  L801.26953 300.09720  L801.75781 299.81396  L802.24609 299.90640  L802.73438 299.84631  L803.22266 299.81403  L803.71094 299.81107  L804.19922 299.78915  L804.68750 299.90692  L805.17578 299.87485  L805.66406 299.80542  L806.15234 299.84012  L806.64063 299.81738  L807.12891 299.80511  L807.61719 299.80133  L808.10547 299.79117  L808.59375 299.85782  L809.08203 299.83878  L809.57031 299.79913  L810.05859 299.82074  L810.54688 299.80542  L811.03516 299.79831  L811.52344 299.79395  L812.01172 299.78796  L812.50000 299.83569  L812.98828 299.82068  L813.47656 299.79291  L813.96484 299.80865  L814.45313 299.79648  L814.94141 299.79175  L815.42969 299.78693  L815.91797 299.78314  L816.40625 299.82108  L816.89453 299.80786  L817.38281 299.78650  L817.87109 299.79889  L818.35938 299.78839  L818.84766 299.78510  L819.33594 299.77982  L819.82422 299.77753  L820.31250 299.80945  L820.80078 299.79718  L821.28906 299.77982  L821.77734 299.79004  L822.26563 299.78058  L822.75391 299.77820  L823.24219 299.77249  L823.73047 299.77130  L824.21875 299.79919  L824.70703 299.78748  L825.19531 299.77283  L825.68359 299.78146  L826.17188 299.77271  L826.66016 299.77100  L827.14844 299.76489  L827.63672 299.76459  L828.12500 299.78961  L828.61328 299.77814  L829.10156 299.76553  L829.58984 299.77289  L830.07813 299.76465  L830.56641 299.76346  L831.05469 299.75687  L831.54297 299.75739  L832.03125 299.78027  L832.51953 299.76889  L833.00781 299.75781  L833.49609 299.76416  L833.98438 299.75626  L834.47266 299.75555  L834.96094 299.74844  L835.44922 299.74969  L835.93750 299.77094  L836.42578 299.75955  L836.91406 299.74966  L837.40234 299.75519  L837.89063 299.74753  L838.37891 299.74716  L838.86719 299.73953  L839.35547 299.74152  L839.84375 299.76141  L840.33203 299.74997  L840.82031 299.74103  L841.30859 299.74579  L841.79688 299.73834  L842.28516 299.73831  L842.77344 299.73010  L843.26172 299.73279  L843.75000 299.75165  L844.23828 299.74002  L844.72656 299.73187  L845.21484 299.73593  L845.70313 299.72867  L846.19141 299.72888  L846.67969 299.72003  L847.16797 299.72348  L847.65625 299.74149  L848.14453 299.72961  L848.63281 299.72211  L849.12109 299.72549  L849.60938 299.71838  L850.09766 299.71887  L850.58594 299.70929  L851.07422 299.71356  L851.56250 299.73083  L852.05078 299.71866  L852.53906 299.71167  L853.02734 299.71442  L853.51563 299.70743  L854.00391 299.70813  L854.49219 299.69778  L854.98047 299.70291  L855.46875 299.71957  L855.95703 299.70703  L856.44531 299.70053  L856.93359 299.70261  L857.42188 299.69571  L857.91016 299.69666  L858.39844 299.68542  L858.88672 299.69147  L859.37500 299.70761  L859.86328 299.69467  L860.35156 299.68854  L860.83984 299.68991  L861.32813 299.68314  L861.81641 299.68427  L862.30469 299.67206  L862.79297 299.67917  L863.28125 299.69485  L863.76953 299.68146  L864.25781 299.67557  L864.74609 299.67624  L865.23438 299.66956  L865.72266 299.67090  L866.21094 299.65753  L866.69922 299.66583  L867.18750 299.68112  L867.67578 299.66718  L868.16406 299.66153  L868.65234 299.66141  L869.14063 299.65488  L869.62891 299.65637  L870.11719 299.64175  L870.60547 299.65140  L871.09375 299.66632  L871.58203 299.65173  L872.07031 299.64624  L872.55859 299.64523  L873.04688 299.63889  L873.53516 299.64050  L874.02344 299.62445  L874.51172 299.63562  L875.00000 299.65021  L875.48828 299.63492  L875.97656 299.62949  L876.46484 299.62750  L876.95313 299.62137  L877.44141 299.62311  L877.92969 299.60535  L878.41797 299.61835  L878.90625 299.63263  L879.39453 299.61652  L879.88281 299.61105  L880.37109 299.60794  L880.85938 299.60208  L881.34766 299.60391  L881.83594 299.58420  L882.32422 299.59930  L882.81250 299.61322  L883.30078 299.59619  L883.78906 299.59064  L884.27734 299.58618  L884.76563 299.58069  L885.25391 299.58255  L885.74219 299.56055  L886.23047 299.57816  L886.71875 299.59174  L887.20703 299.57361  L887.69531 299.56781  L888.18359 299.56177  L888.67188 299.55679  L889.16016 299.55859  L889.64844 299.53387  L890.13672 299.55450  L890.62500 299.56766  L891.11328 299.54825  L891.60156 299.54205  L892.08984 299.53409  L892.57813 299.52982  L893.06641 299.53149  L893.55469 299.50345  L894.04297 299.52780  L894.53125 299.54047  L895.01953 299.51956  L895.50781 299.51279  L895.99609 299.50238  L896.48438 299.49908  L896.97266 299.50046  L897.46094 299.46841  L897.94922 299.49731  L898.43750 299.50940  L898.92578 299.48663  L899.41406 299.47906  L899.90234 299.46552  L900.39063 299.46365  L900.87891 299.46445  L901.36719 299.42740  L901.85547 299.46213  L902.34375 299.47336  L902.83203 299.44839  L903.32031 299.43961  L903.80859 299.42200  L904.29688 299.42215  L904.78516 299.42197  L905.27344 299.37860  L905.76172 299.42084  L906.25000 299.43091  L906.73828 299.40317  L907.22656 299.39267  L907.71484 299.36951  L908.20313 299.37268  L908.69141 299.37085  L909.17969 299.31927  L909.66797 299.37143  L910.15625 299.37991  L910.64453 299.34851  L911.13281 299.33557  L911.62109 299.30457  L912.10938 299.31238  L912.59766 299.30768  L913.08594 299.24518  L913.57422 299.31091  L914.06250 299.31696  L914.55078 299.28067  L915.03906 299.26407  L915.52734 299.22150  L916.01563 299.23666  L916.50391 299.22702  L916.99219 299.14917  L917.48047 299.23434  L917.96875 299.23666  L918.45703 299.19336  L918.94531 299.17114  L919.43359 299.11026  L919.92188 299.13794  L920.41016 299.11911  L920.89844 299.01871  L921.38672 299.13330  L921.87500 299.12933  L922.36328 299.07532  L922.85156 299.04385  L923.33984 298.95145  L923.82813 299.00214  L924.31641 298.96481  L924.80469 298.82852  L925.29297 298.99133  L925.78125 298.97620  L926.26953 298.90372  L926.75781 298.85544  L927.24609 298.70157  L927.73438 298.79999  L928.22266 298.72040  L928.71094 298.51965  L929.19922 298.77209  L929.68750 298.73389  L930.17578 298.62372  L930.66406 298.53943  L931.15234 298.23926  L931.64063 298.45819  L932.12891 298.25842  L932.61719 297.91397  L933.10547 298.37286  L933.59375 298.27509  L934.08203 298.05951  L934.57031 297.86908  L935.05859 297.05908  L935.54688 297.72375  L936.03516 296.98752  L936.52344 296.11581  L937.01172 297.34238  L937.50000 296.98370  L937.98828 296.14862  L938.47656 295.20880  L938.96484 289.02283  L939.45313 294.91742  L939.94141 281.28592  L940.42969 252.76091  L940.91797 306.88168  L941.40625 400.00000  L941.89453 311.18564  L942.38281 306.47632  L942.87109 296.07776  L943.35938 305.69156  L943.84766 300.93564  L944.33594 301.64719  L944.82422 302.16864  L945.31250 302.02396  L945.80078 301.49283  L946.28906 301.31778  L946.77734 300.36432  L947.26563 301.29529  L947.75391 300.44861  L948.24219 300.74622  L948.73047 300.54080  L949.21875 300.61850  L949.70703 300.41656  L950.19531 300.36533  L950.68359 300.03973  L951.17188 300.35208  L951.66016 299.97784  L952.14844 300.18219  L952.63672 299.92944  L953.12500 300.05634  L953.61328 299.89075  L954.10156 299.83594  L954.58984 299.67532  L955.07813 299.79364  L955.56641 299.59479  L956.05469 299.70853  L956.54297 299.46393  L957.03125 299.64691  L957.51953 299.43201  L958.00781 299.29587  L958.49609 299.19666  L958.98438 299.17130  L959.47266 299.14813  L959.96094 299.02658  L960.44922 298.87753  L960.93750 299.22089  L961.42578 298.78378  L961.91406 298.24054  L962.40234 298.12958  L962.89063 297.69995  L963.37891 298.61310  L963.86719 296.61865  L964.35547 298.16568  L964.84375 300.97519  L965.33203 299.63446  L965.82031 287.41534  L966.30859 283.27026  L966.79688 276.12839  L967.28516 363.64548  L967.77344 303.16138  L968.26172 312.73425  L968.75000 309.37201  L969.23828 305.91730  L969.72656 303.04886  L970.21484 302.69760  L970.70313 302.32129  L971.19141 303.25281  L971.67969 301.54654  L972.16797 302.50519  L972.65625 302.21521  L973.14453 301.88629  L973.63281 301.37140  L974.12109 301.23996  L974.60938 301.19797  L975.09766 301.50348  L975.58594 300.91608  L976.07422 301.30518  L976.56250 301.17108  L977.05078 301.06274  L977.53906 300.85016  L978.02734 300.76257  L978.51563 300.77121  L979.00391 300.92853  L979.49219 300.61743  L979.98047 300.83191  L980.46875 300.74670  L980.95703 300.69214  L981.44531 300.57971  L981.93359 300.50891  L982.42188 300.53159  L982.91016 300.63074  L983.39844 300.43213  L983.88672 300.56589  L984.37500 300.50461  L984.86328 300.46902  L985.35156 300.40454  L985.83984 300.34106  L986.32813 300.36890  L986.81641 300.43945  L987.30469 300.29816  L987.79297 300.38605  L988.28125 300.33881  L988.76953 300.31073  L989.25781 300.27502  L989.74609 300.21384  L990.23438 300.24429  L990.72266 300.29895  L991.21094 300.19070  L991.69922 300.24860  L992.18750 300.21048  L992.67578 300.18488  L993.16406 300.16965  L993.65234 300.10733  L994.14063 300.13989  L994.62891 300.18500  L995.11719 300.09720  L995.60547 300.13321  L996.09375 300.10117  L996.58203 300.07529  L997.07031 300.07712  L997.55859 300.01038  L998.04688 300.04562  L998.53516 300.08472  L999.02344 300.00992  L999.51172 300.02808 " /></g><text x="1000.00000" dx="10" y="48.23165">[-43.60829;13.85862]</text><text x="1000.00000" dx="10" y="300.00000">[-42.45869;42.45870]</text></svg>