<svg xmlns="http://www.w3.org/2000/svg" version="1.1"><g stroke-width="0.6"><path fill="none" stroke="#000000" d="M0 98.97112 L1000.00000 98.97112" /><path fill="none" stroke="#000000" d="M0 300.00000 L1000.00000 300.00000" /><path fill="none" stroke="#000000" d="M500.00000 0 L500.00000 400.00000" /><path fill="none" stroke="#000000" d="M0 98.97112  L0.00000 98.96720 L0.48852 98.96106 L0.97704 98.96276 L1.46556 98.96976 L1.95408 98.95663 L2.44260 98.89285 L2.93112 98.76840 L3.41964 98.59647 L3.90816 98.39409 L4.39668 98.17072 L4.88520 97.94155 L5.37372 97.74590 L5.86224 97.64097 L6.35076 97.67347 L6.83928 97.86031 L7.32780 98.19704 L7.81632 98.67519 L8.30484 99.27962 L8.79336 99.96788 L9.28188 100.66235 L9.77040 101.27196 L10.25892 101.72298 L10.74744 101.96786 L11.23596 101.97226 L11.72447 101.70943 L12.21299 101.17842 L12.70151 100.42531 L13.19003 99.53772 L13.67855 98.61451 L14.16707 97.74222 L14.65559 96.99704 L15.14411 96.45433 L15.63263 96.17748 L16.12115 96.18935 L16.60967 96.45769 L17.09819 96.91260 L17.58671 97.47573 L18.07523 98.07069 L18.56375 98.61452 L19.05227 99.01896 L19.54079 99.21689 L20.02931 99.19226 L20.51783 98.98244 L21.00635 98.65381 L21.49487 98.28127 L21.98339 97.95006 L22.47191 97.76168 L22.96043 97.81645 L23.44895 98.17644 L23.93747 98.84187 L24.42599 99.75998 L24.91451 100.84780 L25.40303 101.99920 L25.89155 103.07692 L26.38007 103.91860 L26.86859 104.37164 L27.35711 104.33451 L27.84563 103.77176 L28.33415 102.70216 L28.82267 101.18866 L29.31119 99.34692 L29.79971 97.35325 L30.28823 95.42352 L30.77675 93.76720 L31.26527 92.55016 L31.75379 91.88678 L32.24231 91.84468 L32.73083 92.43478 L33.21935 93.58942 L33.70787 95.15920 L34.19638 96.94521 L34.68491 98.74403 L35.17342 100.37311 L35.66195 101.67431 L36.15046 102.52267 L36.63898 102.85498 L37.12750 102.69611 L37.61602 102.15288 L38.10454 101.37735 L38.59306 100.53225 L39.08158 99.77885 L39.57010 99.27129 L40.05862 99.13136 L40.54714 99.40899 L41.03566 100.06145 L41.52418 100.97030 L42.01270 101.97602 L42.50122 102.89909 L42.98974 103.54618 L43.47826 103.72810 L43.96678 103.30274 L44.45530 102.21902 L44.94382 100.52870 L45.43234 98.36558 L45.92086 95.92180 L46.40938 93.44001 L46.89790 91.20404 L47.38642 89.50233 L47.87494 88.57023 L48.36346 88.54668 L48.85198 89.46671 L49.34050 91.27326 L49.82902 93.82016 L50.31754 96.86744 L50.80606 100.09769 L51.29458 103.16722 L51.78310 105.76733 L52.27162 107.66103 L52.76014 108.69151 L53.24866 108.78904 L53.73717 107.99084 L54.22570 106.45349 L54.71422 104.42928 L55.20274 102.21103 L55.69126 100.08032 L56.17978 98.28213 L56.66830 97.01117 L57.15681 96.38538 L57.64534 96.41147 L58.13385 96.97488 L58.62238 97.87151 L59.11089 98.85872 L59.59941 99.69217 L60.08793 100.14455 L60.57645 100.03092 L61.06497 99.25290 L61.55349 97.83708 L62.04201 95.93556 L62.53053 93.78931 L63.01905 91.68661 L63.50757 89.93773 L63.99609 88.85111 L64.48461 88.68764 L64.97313 89.60060 L65.46165 91.59745 L65.95017 94.54454 L66.43869 98.19685 L66.92721 102.22243 L67.41573 106.21992 L67.90425 109.75509 L68.39277 112.42722 L68.88129 113.93896 L69.36981 114.13327 L69.85833 112.99399 L70.34685 110.63748 L70.83537 107.31177 L71.32389 103.38547 L71.81241 99.30075 L72.30093 95.49795 L72.78945 92.34933 L73.27797 90.12670 L73.76649 88.98891 L74.25500 88.96450 L74.74353 89.93278 L75.23205 91.63362 L75.72057 93.72035 L76.20908 95.83032 L76.69761 97.63699 L77.18613 98.87745 L77.67464 99.37901 L78.16316 99.09694 L78.65169 98.13984 L79.14021 96.75249 L79.62872 95.25962 L80.11725 94.00584 L80.60577 93.31563 L81.09428 93.46130 L81.58280 94.61666 L82.07133 96.80460 L82.55984 99.87378 L83.04836 103.52383 L83.53688 107.35834 L84.02541 110.93213 L84.51392 113.78812 L85.00244 115.50664 L85.49096 115.77626 L85.97948 114.45865 L86.46800 111.61156 L86.95652 107.46789 L87.44505 102.40073 L87.93356 96.89446 L88.42208 91.50731 L88.91060 86.80320 L89.39912 83.26318 L89.88764 81.21555 L90.37616 80.80985 L90.86468 82.02001 L91.35320 84.64960 L91.84172 88.33980 L92.33024 92.60661 L92.81876 96.91827 L93.30728 100.78436 L93.79580 103.81796 L94.28432 105.76392 L94.77284 106.51691 L95.26136 106.14276 L95.74988 104.88223 L96.23840 103.11015 L96.72692 101.25703 L97.21544 99.73142 L97.70396 98.86985 L98.19247 98.90333 L98.68100 99.91882 L99.16952 101.82250 L99.65804 104.33793 L100.14655 107.05527 L100.63508 109.50734 L101.12360 111.23547 L101.61211 111.83743 L102.10064 111.01852 L102.58916 108.65390 L103.07767 104.83565 L103.56619 99.87053 L104.05472 94.22961 L104.54324 88.48344 L105.03175 83.24665 L105.52027 79.12123 L106.00880 76.61887 L106.49731 76.07416 L106.98583 77.58780 L107.47435 81.02365 L107.96288 86.04198 L108.45139 92.13828 L108.93991 98.68405 L109.42844 104.99205 L109.91695 110.41331 L110.40547 114.43536 L110.89399 116.74175 L111.38251 117.22668 L111.87103 115.99030 L112.35955 113.33147 L112.84807 109.72099 L113.33659 105.73235 L113.82511 101.94099 L114.31363 98.83314 L114.80215 96.75269 L115.29067 95.87540 L115.77919 96.18719 L116.26771 97.47102 L116.75623 99.33147 L117.24475 101.26949 L117.73327 102.77900 L118.22179 103.42507 L118.71031 102.89404 L119.19883 101.03583 L119.68735 97.90791 L120.17587 93.79627 L120.66439 89.18331 L121.15291 84.66788 L121.64143 80.87539 L122.12994 78.38572 L122.61847 77.67076 L123.10699 79.02341 L123.59550 82.48934 L124.08402 87.83883 L124.57255 94.59888 L125.06107 102.12396 L125.54958 109.66982 L126.03811 116.46230 L126.52663 121.78020 L127.01514 125.05686 L127.50366 125.96955 L127.99219 124.47761 L128.48070 120.80589 L128.96922 115.40305 L129.45775 108.89616 L129.94626 102.02940 L130.43478 95.56820 L130.92331 90.18302 L131.41182 86.35561 L131.90034 84.33599 L132.38885 84.13779 L132.87738 85.54558 L133.36591 88.13424 L133.85442 91.32501 L134.34294 94.48613 L134.83147 97.04613 L135.31998 98.57730 L135.80850 98.83894 L136.29703 97.80199 L136.78554 95.66680 L137.27406 92.85381 L137.76257 89.94130 L138.25110 87.56011 L138.73962 86.28745 L139.22813 86.57009 L139.71666 88.67016 L140.20518 92.61456 L140.69370 98.15714 L141.18222 104.78699 L141.67075 111.79835 L142.15926 118.39522 L142.64778 123.79079 L143.13629 127.28941 L143.62482 128.36830 L144.11334 126.76337 L144.60185 122.52966 L145.09038 116.04079 L145.57890 107.92885 L146.06741 98.99923 L146.55594 90.14754 L147.04445 82.27100 L147.53297 76.15899 L148.02150 72.37844 L148.51001 71.19663 L148.99854 72.56735 L149.48706 76.16387 L149.97557 81.42770 L150.46410 87.62740 L150.95262 93.94745 L151.44113 99.61031 L151.92966 103.99799 L152.41817 106.72933 L152.90669 107.68440 L153.39522 107.00025 L153.88373 105.05468 L154.37225 102.42251 L154.86078 99.78390 L155.34929 97.79898 L155.83781 96.99395 L156.32632 97.69021 L156.81485 99.96911 L157.30338 103.65076 L157.79189 108.29176 L158.28041 113.23029 L158.76894 117.68835 L159.25745 120.89975 L159.74597 122.21964 L160.23450 121.20160 L160.72301 117.65940 L161.21153 111.71987 L161.70004 103.84099 L162.18857 94.76534 L162.67709 85.41550 L163.16560 76.77242 L163.65413 69.76817 L164.14265 65.18900 L164.63116 63.57488 L165.11969 65.12989 L165.60822 69.68349 L166.09673 76.72360 L166.58525 85.47920 L167.07376 95.01542 L167.56229 104.32949 L168.05081 112.46310 L168.53932 118.63198 L169.02785 122.33784 L169.51637 123.42129 L170.00488 122.05021 L170.49341 118.67340 L170.98192 113.96164 L171.47044 108.72671 L171.95897 103.80290 L172.44748 99.90875 L172.93600 97.53544 L173.42453 96.89307 L173.91304 97.90425 L174.40157 100.21922 L174.89009 103.25169 L175.37860 106.25794 L175.86713 108.46397 L176.35564 109.20484 L176.84416 108.03018 L177.33269 104.76194 L177.82120 99.52351 L178.30972 92.75095 L178.79825 85.16620 L179.28676 77.68831 L179.77528 71.29560 L180.26381 66.88429 L180.75232 65.15877 L181.24084 66.54996 L181.72935 71.14705 L182.21788 78.65277 L182.70641 88.39766 L183.19492 99.42695 L183.68344 110.63187 L184.17197 120.88139 L184.66048 129.13905 L185.14900 134.57713 L185.63751 136.68886 L186.12604 135.36687 L186.61456 130.90959 L187.10307 123.95736 L187.59160 115.39356 L188.08012 106.24059 L188.56863 97.54606 L189.05716 90.24792 L189.54568 85.03773 L190.03419 82.26779 L190.52272 81.93004 L191.01123 83.69135 L191.49976 86.95301 L191.98828 90.92740 L192.47679 94.74830 L192.96532 97.61520 L193.45384 98.93345 L193.94235 98.40396 L194.43088 96.05115 L194.91939 92.21225 L195.40791 87.50511 L195.89644 82.76043 L196.38495 78.90101 L196.87347 76.78594 L197.36200 77.06857 L197.85051 80.10426 L198.33904 85.90295 L198.82756 94.10727 L199.31607 104.00157 L199.80460 114.57917 L200.29311 124.67543 L200.78163 133.13168 L201.27016 138.94159 L201.75867 141.36183 L202.24719 140.00031 L202.73572 134.88521 L203.22423 126.48760 L203.71275 115.66736 L204.20128 103.55015 L204.68979 91.37954 L205.17831 80.37858 L205.66682 71.62143 L206.15535 65.90456 L206.64388 63.63568 L207.13239 64.78263 L207.62091 68.90399 L208.10944 75.23930 L208.59795 82.81926 L209.08647 90.58232 L209.57498 97.50928 L210.06351 102.77310 L210.55203 105.86591 L211.04054 106.65935 L211.52907 105.39145 L212.01759 102.60977 L212.50610 99.09465 L212.99463 95.75551 L213.48315 93.48823 L213.97166 93.01493 L214.46019 94.75635 L214.94870 98.77061 L215.43723 104.74988 L215.92575 112.04908 L216.41426 119.74521 L216.90279 126.74699 L217.39131 131.95639 L217.87982 134.44206 L218.36835 133.57423 L218.85687 129.10400 L219.34538 121.20287 L219.83391 110.47203 L220.32242 97.90137 L220.81094 84.75587 L221.29947 72.40496 L221.78798 62.14461 L222.27650 55.05091 L222.76503 51.86670 L223.25354 52.90894 L223.74207 58.01066 L224.23058 66.53282 L224.71910 77.46035 L225.20763 89.55168 L225.69614 101.49525 L226.18466 112.05367 L226.67319 120.20421 L227.16170 125.27288 L227.65022 127.02692 L228.13875 125.68666 L228.62726 121.85767 L229.11578 116.41996 L229.60429 110.40633 L230.09282 104.86826 L230.58134 100.72193 L231.06985 98.59653 L231.55838 98.73388 L232.04691 100.96857 L232.53542 104.77395 L233.02394 109.34066 L233.51245 113.67848 L234.00098 116.75478 L234.48950 117.66602 L234.97801 115.80031 L235.46654 110.94143 L235.95506 103.30035 L236.44357 93.49664 L236.93210 82.50673 L237.42062 71.56724 L237.90913 62.01867 L238.39766 55.11174 L238.88617 51.82888 L239.37469 52.76192 L239.86322 58.04340 L240.35173 67.31594 L240.84026 79.74432 L241.32878 94.09855 L241.81729 108.91207 L242.30582 122.67786 L242.79434 134.02945 L243.28285 141.88521 L243.77138 145.56424 L244.25989 144.87537 L244.74841 140.14928 L245.23694 132.18323 L245.72545 122.10765 L246.21397 111.22034 L246.70250 100.82607 L247.19101 92.08565 L247.67953 85.86780 L248.16805 82.62466 L248.65657 82.33524 L249.14510 84.53941 L249.63361 88.43953 L250.12213 93.02832 L250.61066 97.22630 L251.09917 100.03688 L251.58769 100.71318 L252.07622 98.89484 L252.56473 94.66908 L253.05325 88.54808 L253.54176 81.39300 L254.03029 74.30994 L254.51881 68.51421 L255.00732 65.15442 L255.49585 65.12197 L255.98438 68.89995 L256.47290 76.48872 L256.96140 87.40112 L257.44992 100.70259 L257.93845 115.09332 L258.42697 129.05017 L258.91550 141.02599 L259.40402 149.66234 L259.89252 153.96094 L260.38104 153.39229 L260.86957 147.95471 L261.35809 138.19141 L261.84662 125.14491 L262.33511 110.22811 L262.82364 95.02949 L263.31216 81.10612 L263.80069 69.80703 L264.28922 62.13217 L264.77771 58.61840 L265.26624 59.26834 L265.75476 63.55842 L266.24329 70.54054 L266.73181 79.00446 L267.22034 87.65198 L267.70883 95.26028 L268.19736 100.83936 L268.68588 103.77794 L269.17441 103.94022 L269.66293 101.67339 L270.15143 97.72672 L270.63995 93.12120 L271.12848 89.00355 L271.61700 86.48738 L272.10553 86.47719 L272.59406 89.50124 L273.08255 95.60508 L273.57108 104.33650 L274.05960 114.80769 L274.54813 125.79992 L275.03665 135.89928 L275.52515 143.67259 L276.01367 147.87639 L276.50220 147.65219 L276.99072 142.65479 L277.47925 133.09676 L277.96777 119.73003 L278.45627 103.78129 L278.94479 86.83134 L279.43332 70.62621 L279.92184 56.84593 L280.41037 46.88864 L280.89886 41.71407 L281.38739 41.74876 L281.87592 46.83856 L282.36444 56.25571 L282.85297 68.78726 L283.34149 82.90861 L283.82999 97.00073 L284.31851 109.55588 L284.80704 119.34538 L285.29556 125.55531 L285.78409 127.88813 L286.27258 126.59929 L286.76111 122.43800 L287.24963 116.50242 L287.73816 110.05721 L288.22668 104.35509 L288.71518 100.46889 L289.20370 99.13142 L289.69223 100.60670 L290.18076 104.63792 L290.66928 110.49556 L291.15781 117.10139 L291.64630 123.18447 L292.13483 127.44954 L292.62335 128.76129 L293.11188 126.33526 L293.60040 119.88976 L294.08890 109.71104 L294.57742 96.62176 L295.06595 81.88463 L295.55447 67.06751 L296.04300 53.86988 L296.53152 43.90578 L297.02002 38.47422 L297.50854 38.37406 L297.99707 43.80545 L298.48560 54.35248 L298.97412 69.02348 L299.46262 86.34620 L299.95114 104.53271 L300.43967 121.70916 L300.92819 136.16237 L301.41672 146.54434 L301.90524 152.00929 L302.39374 152.29364 L302.88226 147.74455 L303.37079 139.27542 L303.85931 128.22954 L304.34784 116.17045 L304.83633 104.65646 L305.32486 95.04505 L305.81339 88.33582 L306.30191 85.04611 L306.79044 85.13730 L307.27896 88.02859 L307.76746 92.71170 L308.25598 97.93188 L308.74451 102.38331 L309.23303 104.89259 L309.72156 104.59193 L310.21005 101.07311 L310.69858 94.48254 L311.18710 85.51646 L311.67563 75.31760 L312.16415 65.31419 L312.65265 57.03816 L313.14117 51.92995 L313.62970 51.12859 L314.11823 55.27864 L314.60675 64.40779 L315.09528 77.90897 L315.58377 94.61246 L316.07230 112.91344 L316.56082 130.94009 L317.04935 146.76852 L317.53787 158.67282 L318.02637 165.35907 L318.51489 166.12628 L319.00342 160.93304 L319.49194 150.39105 L319.98047 135.69904 L320.46899 118.51029 L320.95749 100.72314 L321.44601 84.22337 L321.93454 70.64067 L322.42307 61.16619 L322.91159 56.43740 L323.40009 56.47813 L323.88861 60.70136 L324.37714 68.00235 L324.86566 76.94301 L325.35419 85.98464 L325.84271 93.70983 L326.33121 99.00398 L326.81973 101.19931 L327.30826 100.17705 L327.79678 96.39613 L328.28531 90.81776 L328.77380 84.73781 L329.26233 79.57782 L329.75085 76.67966 L330.23938 77.11451 L330.72791 81.50695 L331.21643 89.90012 L331.70493 101.70972 L332.19345 115.79000 L332.68198 130.58626 L333.17050 144.32762 L333.65903 155.23599 L334.14752 161.75217 L334.63605 162.76178 L335.12457 157.77620 L335.61310 147.01361 L336.10162 131.37074 L336.59015 112.31635 L337.07864 91.73405 L337.56717 71.71741 L338.05569 54.31637 L338.54422 41.26934 L339.03275 33.78350 L339.52124 32.40781 L340.00977 36.99680 L340.49829 46.74298 L340.98682 60.27405 L341.47534 75.82938 L341.96384 91.50728 L342.45236 105.53262 L342.94089 116.48152 L343.42941 123.43488 L343.91794 126.06859 L344.40646 124.68426 L344.89496 120.15974 L345.38348 113.80055 L345.87201 107.11414 L346.36053 101.56692 L346.84906 98.37360 L347.33755 98.33048 L347.82608 101.68958 L348.31461 108.09294 L348.80313 116.60405 L349.29166 125.84856 L349.78018 134.22742 L350.26868 140.14644 L350.75720 142.23228 L351.24573 139.53244 L351.73425 131.68625 L352.22278 119.02541 L352.71127 102.56112 L353.19980 83.86005 L353.68832 64.85148 L354.17685 47.60615 L354.66537 34.09755 L355.15390 25.94982 L355.64240 24.20763 L356.13092 29.18591 L356.61945 40.43514 L357.10797 56.81081 L357.59650 76.60961 L358.08499 97.75755 L358.57352 118.05270 L359.06204 135.44682 L359.55057 148.31125 L360.03909 155.62495 L360.52762 157.06346 L361.01611 153.00327 L361.50464 144.45950 L361.99316 132.94823 L362.48169 120.26466 L362.97021 108.21093 L363.45871 98.33677 L363.94724 91.74516 L364.43576 88.97074 L364.92429 89.92063 L365.41281 93.88647 L365.90131 99.65318 L366.38983 105.70438 L366.87836 110.47771 L367.36688 112.60771 L367.85541 111.12280 L368.34393 105.59668 L368.83243 96.24712 L369.32095 83.94998 L369.80948 70.13846 L370.29800 56.60142 L370.78653 45.23500 L371.27502 37.79665 L371.76355 35.67711 L372.25208 39.69390 L372.74060 49.93812 L373.22913 65.72195 L373.71765 85.65297 L374.20615 107.80762 L374.69467 129.95561 L375.18320 149.80809 L375.67172 165.28522 L376.16025 174.78329 L376.64874 177.38965 L377.13727 172.98973 L377.62579 162.25330 L378.11432 146.53093 L378.60284 127.68871 L379.09137 107.88626 L379.57986 89.30108 L380.06839 73.83591 L380.55692 62.87644 L381.04544 57.14608 L381.53397 56.65893 L382.02246 60.74879 L382.51099 68.17079 L382.99951 77.28841 L383.48804 86.33434 L383.97656 93.69194 L384.46509 98.13084 L384.95358 98.96532 L385.44211 96.14128 L385.93063 90.25518 L386.41916 82.48440 L386.90768 74.41183 L387.39618 67.77036 L387.88470 64.17001 L388.37323 64.86163 L388.86176 70.55292 L389.35028 81.27559 L389.83878 96.32542 L390.32730 114.31263 L390.81583 133.33261 L391.30435 151.21793 L391.79288 165.81189 L392.28140 175.22896 L392.76990 178.09464 L393.25842 173.74883 L393.74695 162.36623 L394.23547 144.95116 L394.72400 123.20601 L395.21249 99.32008 L395.70102 75.71912 L396.18954 54.79155 L396.67807 38.59960 L397.16660 28.61412 L397.65512 25.53520 L398.14362 29.23797 L398.63214 38.83027 L399.12067 52.78908 L399.60919 69.15640 L400.09772 85.79580 L400.58621 100.69083 L401.07474 112.22701 L401.56326 119.39277 L402.05179 121.87440 L402.54031 120.06024 L403.02884 114.97051 L403.51733 108.10534 L404.00586 101.20640 L404.49438 95.96667 L404.98291 93.75700 L405.47144 95.42355 L405.95993 101.16702 L406.44846 110.49429 L406.93698 122.25186 L407.42551 134.76442 L407.91403 146.07639 L408.40256 154.24545 L408.89105 157.62212 L409.37958 155.07719 L409.86810 146.17316 L410.35663 131.27119 L410.84515 111.53901 L411.33365 88.83019 L411.82217 65.45116 L412.31070 43.87245 L412.79922 26.43813 L413.28775 15.09276 L413.77625 11.13526 L414.26477 15.03393 L414.75330 26.35423 L415.24182 43.82465 L415.73035 65.51605 L416.21887 89.08147 L416.70737 112.02857 L417.19589 132.01527 L417.68442 147.14629 L418.17294 156.21359 L418.66147 158.82362 L419.14996 155.39539 L419.63849 147.06076 L420.12701 135.49507 L420.61554 122.68608 L421.10406 110.64584 L421.59259 101.10626 L422.08109 95.26867 L422.56961 93.65629 L423.05814 96.07235 L423.54666 101.64229 L424.03519 108.93512 L424.52368 116.17431 L425.01221 121.52438 L425.50073 123.39500 L425.98926 120.69346 L426.47778 112.99047 L426.96631 100.60328 L427.45480 84.59837 L427.94333 66.69415 L428.43185 49.04871 L428.92038 33.96121 L429.40891 23.55435 L429.89740 19.49725 L430.38593 22.78588 L430.87445 33.58826 L431.36298 51.17424 L431.85150 73.97042 L432.34003 99.74910 L432.82852 125.91029 L433.31705 149.79280 L433.80557 168.97643 L434.29410 181.56294 L434.78262 186.41521 L435.27112 183.30606 L435.75964 172.92999 L436.24817 156.77910 L436.73669 136.92676 L437.22522 115.76524 L437.71375 95.71351 L438.20224 78.90836 L438.69077 66.92020 L439.17929 60.55929 L439.66782 59.81281 L440.15634 63.90207 L440.64484 71.42410 L441.13336 80.55854 L441.62189 89.33714 L442.11041 95.95478 L442.59894 99.05987 L443.08743 97.95727 L443.57596 92.69646 L444.06448 84.05981 L444.55301 73.46780 L445.04153 62.79637 L445.53006 54.10366 L446.01855 49.30683 L446.50708 49.87876 L446.99561 56.62549 L447.48413 69.55656 L447.97266 87.84113 L448.46115 109.85956 L448.94968 133.37285 L449.43820 155.80441 L449.92673 174.57993 L450.41525 187.45421 L450.90378 192.78203 L451.39227 189.72641 L451.88080 178.38957 L452.36932 159.83252 L452.85785 135.95198 L453.34637 109.23257 L453.83487 82.43246 L454.32339 58.26070 L454.81192 39.06951 L455.30045 26.57470 L455.78897 21.64203 L456.27750 24.19391 L456.76599 33.26416 L457.25452 47.17357 L457.74304 63.77520 L458.23157 80.73675 L458.72009 95.84904 L459.20859 107.33427 L459.69711 114.09471 L460.18564 115.84180 L460.67416 113.08978 L461.16269 107.04415 L461.65121 99.41585 L462.13971 92.17052 L462.62823 87.22141 L463.11676 86.11028 L463.60529 89.74909 L464.09381 98.27480 L464.58231 111.02058 L465.07083 126.58228 L465.55936 142.97334 L466.04788 157.87584 L466.53641 168.96997 L467.02490 174.27913 L467.51343 172.45735 L468.00195 162.97932 L468.49048 146.23558 L468.97900 123.53160 L469.46753 96.97363 L469.95602 69.22598 L470.44455 43.17269 L470.93307 21.55512 L471.42160 6.64837 L471.91013 -0.00001 L472.39862 2.24014 L472.88715 12.98752 L473.37567 30.89321 L473.86420 53.82943 L474.35272 79.18317 L474.84125 104.18683 L475.32974 126.24421 L475.81827 143.23709 L476.30679 153.78702 L476.79532 157.42171 L477.28384 154.59731 L477.77234 146.57724 L478.26086 135.21268 L478.74939 122.67190 L479.23792 111.13830 L479.72644 102.49248 L480.21497 98.02370 L480.70346 98.23789 L481.19199 102.80453 L481.68051 110.63165 L482.16904 120.03166 L482.65756 128.95650 L483.14606 135.29657 L483.63458 137.21779 L484.12311 133.47105 L484.61163 123.60445 L485.10016 108.04781 L485.58868 88.08463 L486.07718 65.72840 L486.56570 43.50048 L487.05423 24.11117 L487.54276 10.08791 L488.03128 3.42658 L488.51978 5.33005 L489.00830 16.05015 L489.49683 34.82993 L489.98535 59.95550 L490.47388 88.93935 L490.96237 118.82893 L491.45090 146.58183 L491.93942 169.43227 L492.42795 185.20326 L492.91647 192.54985 L493.40500 191.12077 L493.89349 181.59679 L494.38202 165.57800 L494.87054 145.33478 L495.35907 123.48569 L495.84760 102.66130 L496.33609 85.18066 L496.82462 72.75780 L497.31314 66.27784 L497.80167 65.69944 L498.29019 70.11177 L498.77872 77.91817 L499.26721 87.09401 L499.75574 95.48287 L500.24426 101.17033 L500.73279 102.66875 L501.22131 99.22813 L501.70981 91.11596 L502.19833 79.45795 L502.68686 65.91859 L503.17538 52.49954 L503.66391 41.44307 L504.15244 34.99364 L504.64093 34.93237 L505.12946 42.13237 L505.61798 56.43229 L506.10651 76.80627 L506.59503 101.54801 L507.08353 128.32648 L507.57205 154.29308 L508.06058 176.46185 L508.54910 192.27231 L509.03763 200.00000 L509.52615 198.84079 L510.01465 188.84418 L510.50317 170.93805 L510.99170 147.00412 L511.48022 119.73016 L511.96875 92.14043 L512.45728 67.05186 L512.94580 46.76217 L513.43433 32.97036 L513.92279 26.67764 L514.41132 27.96104 L514.89984 35.83332 L515.38837 48.44095 L515.87689 63.53183 L516.36542 78.86741 L516.85394 92.40310 L517.34247 102.39772 L517.83099 107.67212 L518.31952 107.94150 L518.80804 103.91763 L519.29651 97.04839 L519.78503 89.11709 L520.27356 81.99191 L520.76208 77.52076 L521.25061 77.32736 L521.73914 82.41809 L522.22766 92.83984 L522.71619 107.67168 L523.20471 125.31153 L523.69324 143.76051 L524.18176 160.74712 L524.67023 173.86064 L525.15875 180.91039 L525.64728 180.42233 L526.13580 171.94400 L526.62433 155.99765 L527.11285 133.87082 L527.60138 107.50862 L528.08990 79.47712 L528.57843 52.74426 L529.06696 30.18425 L529.55542 14.05700 L530.04395 5.76688 L530.53247 5.88913 L531.02100 14.20113 L531.50952 29.59228 L531.99805 50.04942 L532.48657 72.95482 L532.97510 95.61542 L533.46362 115.69254 L533.95215 131.35529 L534.44067 141.32361 L534.92914 145.03186 L535.41766 142.85187 L535.90619 136.08728 L536.39471 126.62289 L536.88324 116.46210 L537.37177 107.45378 L537.86029 101.20425 L538.34882 98.92851 L538.83734 101.14130 L539.32587 107.41553 L539.81439 116.47576 L540.30286 126.57275 L540.79138 135.82774 L541.27991 142.37929 L541.76843 144.49701 L542.25696 140.88020 L542.74548 131.05928 L543.23401 115.58397 L543.72253 95.85132 L544.21106 73.78177 L544.69958 51.61940 L545.18811 31.84239 L545.67657 16.93459 L546.16510 8.92759 L546.65363 8.96211 L547.14215 17.15956 L547.63068 32.78399 L548.11920 54.40953 L548.60773 79.95408 L549.09625 106.75961 L549.58478 131.94527 L550.07330 152.94618 L550.56183 167.90657 L551.05029 175.75661 L551.53882 176.15013 L552.02734 169.50726 L552.51587 157.11841 L553.00439 141.03630 L553.49292 123.65190 L553.98145 107.19763 L554.46997 93.48013 L554.95850 83.83774 L555.44702 79.06767 L555.93555 79.21182 L556.42401 83.41428 L556.91254 90.10338 L557.40106 97.43061 L557.88959 103.64616 L558.37811 107.23793 L558.86664 107.00002 L559.35516 102.25442 L559.84369 93.15424 L560.33221 80.76680 L560.82074 66.80492 L561.30927 53.22785 L561.79773 42.00120 L562.28625 35.00711 L562.77478 33.85831 L563.26331 39.52108 L563.75183 51.98608 L564.24036 70.26576 L564.72888 92.68071 L565.21741 117.13706 L565.70593 141.23926 L566.19446 162.40977 L566.68298 178.23648 L567.17145 186.96031 L567.65997 187.78020 L568.14850 180.81384 L568.63702 166.90596 L569.12555 147.54681 L569.61407 124.86914 L570.10260 101.46496 L570.59113 79.92632 L571.07965 62.35601 L571.56818 50.14831 L572.05670 44.02666 L572.54517 44.07162 L573.03369 49.61377 L573.52222 59.18927 L574.01074 70.79797 L574.49927 82.38667 L574.98779 92.23095 L575.47632 99.04416 L575.96484 101.98338 L576.45337 100.78686 L576.94189 95.98386 L577.43036 88.88976 L577.91888 81.26775 L578.40741 74.89035 L578.89594 71.29568 L579.38446 71.73245 L579.87299 77.04300 L580.36151 87.38081 L580.85004 101.98892 L581.33856 119.30392 L581.82709 137.33289 L582.31561 153.99245 L582.80408 167.24532 L583.29260 175.20238 L583.78113 176.40970 L584.26965 170.24390 L584.75818 157.09898 L585.24670 138.22188 L585.73523 115.40097 L586.22375 90.78626 L586.71228 66.82091 L587.20081 46.03393 L587.68933 30.59955 L588.17780 21.90743 L588.66632 20.43470 L589.15485 25.89478 L589.64337 37.38237 L590.13190 53.37374 L590.62042 71.76681 L591.10895 90.19119 L591.59747 106.50492 L592.08600 119.15167 L592.57452 127.21141 L593.06305 130.32414 L593.55151 128.73401 L594.04004 123.40788 L594.52856 115.95520 L595.01709 108.24104 L595.50562 101.93226 L595.99414 98.27410 L596.48267 98.08803 L596.97119 101.73195 L597.45972 108.90878 L597.94824 118.53513 L598.43677 128.92265 L598.92523 138.20622 L599.41376 144.70079 L599.90228 147.01790 L600.39081 144.11060 L600.87933 135.47479 L601.36786 121.43742 L601.85638 103.23206 L602.34491 82.72947 L602.83344 62.04528 L603.32196 43.31058 L603.81049 28.59454 L604.29895 19.72935 L604.78748 17.93957 L605.27600 23.51187 L605.76453 35.78363 L606.25305 53.41133 L606.74158 74.62330 L607.23010 97.30228 L607.71863 119.07470 L608.20715 137.62904 L608.69568 151.18219 L609.18420 158.77147 L609.67267 160.21619 L610.16119 155.93884 L610.64972 146.90880 L611.13824 134.67606 L611.62677 121.23107 L612.11530 108.59128 L612.60382 98.35612 L613.09235 91.52539 L613.58087 88.56441 L614.06940 89.44685 L614.55792 93.54836 L615.04639 99.58957 L615.53491 105.87020 L616.02344 110.71976 L616.51196 112.84309 L617.00049 111.39243 L617.48901 105.94083 L617.97754 96.59418 L618.46606 84.18497 L618.95459 70.26122 L619.44312 56.75151 L619.93164 45.53695 L620.42010 38.22258 L620.90863 36.09878 L621.39716 40.03831 L621.88568 50.22326 L622.37421 65.92570 L622.86273 85.60751 L623.35126 107.28545 L623.83978 128.85449 L624.32831 148.20631 L624.81683 163.31459 L625.30530 172.51086 L625.79382 174.87546 L626.28235 170.43069 L626.77087 159.99190 L627.25940 144.88257 L627.74792 126.78761 L628.23645 107.72305 L628.72498 89.86684 L629.21350 75.15256 L629.70203 64.86559 L630.19055 59.52992 L630.67902 59.05880 L631.16754 62.88663 L631.65607 69.94416 L632.14459 78.66267 L632.63312 87.24165 L633.12164 94.10069 L633.61017 98.19463 L634.09869 99.02838 L634.58722 96.55519 L635.07574 91.20693 L635.56427 84.01206 L636.05273 76.52613 L636.54126 70.46512 L637.02979 67.27809 L637.51831 67.95251 L638.00684 73.03941 L638.49536 82.63599 L638.98389 96.20928 L639.47241 112.47180 L639.96094 129.56128 L640.44946 145.46078 L640.93799 158.34315 L641.42645 166.67389 L641.91498 169.24469 L642.40350 165.36835 L642.89203 155.16766 L643.38055 139.65973 L643.86908 120.50307 L644.35760 99.62766 L644.84613 79.03104 L645.33466 60.72655 L645.82318 46.58943 L646.31171 38.00014 L646.80017 35.51728 L647.28870 38.85821 L647.77722 47.14703 L648.26575 59.13617 L648.75427 73.25094 L649.24280 87.63541 L649.73132 100.42900 L650.21985 110.19527 L650.70837 116.18601 L651.19690 118.28569 L651.68542 116.83076 L652.17389 112.56425 L652.66241 106.69276 L653.15094 100.77930 L653.63947 96.36842 L654.12799 94.58105 L654.61652 95.96956 L655.10504 100.61314 L655.59357 108.18100 L656.08209 117.83561 L656.57062 128.17465 L657.05914 137.45439 L657.54761 144.02325 L658.03613 146.64647 L658.52466 144.55772 L659.01318 137.41541 L659.50171 125.40357 L659.99023 109.42204 L660.47876 91.07943 L660.96729 72.36874 L661.45581 55.25417 L661.94434 41.45834 L662.43286 32.43807 L662.92133 29.28912 L663.40985 32.47467 L663.89838 41.59719 L664.38690 55.47977 L664.87543 72.50600 L665.36395 90.91095 L665.85248 108.86629 L666.34100 124.53350 L666.82953 136.31435 L667.31805 143.22537 L667.80658 145.08678 L668.29504 142.38268 L668.78357 135.99794 L669.27209 127.10384 L669.76062 117.16818 L670.24915 107.82985 L670.73767 100.53482 L671.22620 96.16964 L671.71472 94.97590 L672.20325 96.71654 L672.69177 100.81093 L673.18030 106.29955 L673.66876 111.82789 L674.15729 115.88513 L674.64581 117.22376 L675.13434 115.14197 L675.62286 109.47024 L676.11139 100.44793 L676.59991 88.74107 L677.08844 75.55723 L677.57697 62.58137 L678.06549 51.62162 L678.55396 44.19735 L679.04248 41.36077 L679.53101 43.73539 L680.01953 51.50557 L680.50806 64.24080 L680.99658 80.76299 L681.48511 99.31132 L681.97363 117.94235 L682.46216 134.85234 L682.95068 148.45937 L683.43921 157.42160 L683.92767 160.82449 L684.41620 158.47292 L684.90472 150.98862 L685.39325 139.58257 L685.88177 125.71722 L686.37030 110.94102 L686.85883 96.87572 L687.34735 85.09843 L687.83588 76.81367 L688.32440 72.54430 L688.81293 72.11689 L689.30139 74.90131 L689.78992 80.01109 L690.27844 86.31581 L690.76697 92.44881 L691.25549 97.04240 L691.74402 99.11736 L692.23254 98.31368 L692.72107 94.81096 L693.20959 89.13486 L693.69812 82.11079 L694.18665 74.93063 L694.67511 69.06422 L695.16364 65.90865 L695.65216 66.40826 L696.14069 70.93417 L696.62921 79.39753 L697.11774 91.32426 L697.60626 105.76094 L698.09479 121.21151 L698.58331 135.84901 L699.07184 147.93373 L699.56036 156.12222 L700.04883 159.50548 L700.53735 157.55838 L701.02588 150.24126 L701.51440 138.19965 L702.00293 122.77534 L702.49146 105.70695 L702.97998 88.74519 L703.46851 73.46931 L703.95703 61.28743 L704.44556 53.35968 L704.93408 50.33374 L705.42255 52.11226 L705.91107 57.91768 L706.39960 66.60345 L706.88812 76.90942 L707.37665 87.50546 L707.86517 97.00340 L708.35370 104.17020 L708.84222 108.27308 L709.33075 109.25079 L709.81927 107.56858 L710.30780 103.96341 L710.79626 99.34947 L711.28479 94.85762 L711.77332 91.74430 L712.26184 91.06378 L712.75037 93.33447 L713.23889 98.48005 L713.72742 106.01337 L714.21594 115.17876 L714.70447 124.91402 L715.19299 133.82272 L715.68152 140.39574 L716.16998 143.41078 L716.65851 142.19588 L717.14703 136.60104 L717.63556 126.86671 L718.12408 113.64134 L718.61261 98.10383 L719.10114 81.91408 L719.58966 66.87712 L720.07819 54.55131 L720.56671 46.08696 L721.05524 42.27616 L721.54370 43.54597 L722.03223 49.77492 L722.52075 60.14388 L723.00928 73.27487 L723.49780 87.59832 L723.98633 101.64056 L724.47485 114.07194 L724.96338 123.69637 L725.45190 129.61917 L725.94043 131.53110 L726.42889 129.81133 L726.91742 125.31739 L727.40594 119.07656 L727.89447 112.15699 L728.38300 105.69596 L728.87152 100.82213 L729.36005 98.36285 L729.84857 98.56210 L730.33710 101.08138 L730.82562 105.24293 L731.31415 110.22137 L731.80261 115.03758 L732.29114 118.54050 L732.77966 119.61295 L733.26819 117.53226 L733.75671 112.17644 L734.24524 103.92661 L734.73376 93.46474 L735.22229 81.72749 L735.71082 69.98137 L736.19934 59.74887 L736.68787 52.47484 L737.17633 49.16403 L737.66486 50.27345 L738.15338 55.83285 L738.64191 65.51771 L739.13043 78.54534 L739.61896 93.59395 L740.10748 108.99100 L740.59601 123.10581 L741.08453 134.63411 L741.57306 142.61726 L742.06158 146.38020 L742.55005 145.63280 L743.03857 140.68044 L743.52710 132.45717 L744.01563 122.25745 L744.50415 111.38828 L744.99268 101.02489 L745.48120 92.24744 L745.96973 85.99438 L746.45825 82.81763 L746.94678 82.65784 L747.43530 84.90362 L747.92377 88.68499 L748.41229 93.10056 L748.90082 97.22635 L749.38934 100.09007 L749.87787 100.84842 L750.36639 99.10169 L750.85492 95.04336 L751.34344 89.30396 L751.83197 82.69629 L752.32050 76.13113 L752.80902 70.67467 L753.29749 67.48016 L753.78601 67.48391 L754.27454 71.09271 L754.76306 78.14058 L755.25159 88.08034 L755.74011 100.12504 L756.22864 113.20107 L756.71716 125.90528 L757.20569 136.70789 L757.69421 144.33292 L758.18274 148.00684 L758.67120 147.42072 L759.15973 142.59879 L759.64825 133.92506 L760.13678 122.28453 L760.62531 109.03976 L761.11383 95.72545 L761.60236 83.68794 L762.09088 73.95218 L762.57941 67.29252 L763.06793 64.23672 L763.55646 64.88209 L764.04492 68.73257 L764.53345 74.81300 L765.02197 82.00310 L765.51050 89.28613 L765.99902 95.75733 L766.48755 100.57732 L766.97607 103.11107 L767.46460 103.19353 L767.95313 101.22668 L768.44165 97.97549 L768.93018 94.27715 L769.41864 90.93842 L769.90717 88.79506 L770.39569 88.66665 L770.88422 91.09329 L771.37274 96.07663 L771.86127 103.09515 L772.34979 111.35165 L772.83832 119.95979 L773.32684 127.92477 L773.81537 134.10658 L774.30389 137.40559 L774.79236 137.10460 L775.28088 133.06099 L775.76941 125.60304 L776.25793 115.32950 L776.74646 103.07427 L777.23499 89.99902 L777.72351 77.54155 L778.21204 67.10548 L778.70056 59.71859 L779.18909 55.93962 L779.67755 55.98500 L780.16608 59.79734 L780.65460 66.92599 L781.14313 76.42136 L781.63165 86.99143 L782.12018 97.35870 L782.60870 106.50977 L783.09723 113.68423 L783.58575 118.29099 L784.07428 119.99870 L784.56281 118.94865 L785.05127 115.80218 L785.53979 111.49783 L786.02832 106.93714 L786.51685 102.87755 L787.00537 100.00665 L787.49390 98.92845 L787.98242 99.94358 L788.47095 102.83905 L788.95947 106.95049 L789.44800 111.44737 L789.93652 115.54234 L790.42499 118.47595 L790.91351 119.46384 L791.40204 117.84771 L791.89056 113.38853 L792.37909 106.40160 L792.86761 97.59514 L793.35614 87.81893 L793.84467 77.99185 L794.33319 69.17657 L794.82172 62.53108 L795.31024 59.02369 L795.79871 59.13472 L796.28723 62.82081 L796.77576 69.70477 L797.26428 79.20623 L797.75281 90.47533 L798.24133 102.32460 L798.72986 113.40335 L799.21838 122.55114 L799.70691 129.02324 L800.19543 132.43890 L800.68396 132.64555 L801.17242 129.75359 L801.66095 124.29646 L802.14948 117.23604 L802.63800 109.69249 L803.12653 102.62151 L803.61505 96.71720 L804.10358 92.51308 L804.59210 90.40695 L805.08063 90.48599 L805.56915 92.36058 L806.05768 95.26318 L806.54614 98.35745 L807.03467 100.95502 L807.52319 102.48988 L808.01172 102.43902 L808.50024 100.43420 L808.98877 96.50876 L809.47729 91.18589 L809.96582 85.27660 L810.45435 79.60030 L810.94287 74.90074 L811.43140 71.92825 L811.91986 71.41732 L812.40839 73.84303 L812.89691 79.17574 L813.38544 86.90134 L813.87396 96.26510 L814.36249 106.44604 L814.85101 116.51908 L815.33954 125.39638 L815.82806 131.99086 L816.31659 135.54015 L816.80511 135.78723 L817.29358 132.87476 L817.78210 127.15238 L818.27063 119.15958 L818.75916 109.74432 L819.24768 100.04257 L819.73621 91.20088 L820.22473 84.06470 L820.71326 79.10886 L821.20178 76.57816 L821.69031 76.55801 L822.17883 78.84515 L822.66730 82.82052 L823.15582 87.57533 L823.64435 92.23235 L824.13287 96.15811 L824.62140 98.91762 L825.10992 100.16309 L825.59845 99.70674 L826.08698 97.72757 L826.57550 94.82448 L827.06403 91.78958 L827.55249 89.31837 L828.04102 87.93165 L828.52954 88.07925 L829.01807 90.15270 L829.50659 94.28532 L829.99512 100.15298 L830.48364 107.03774 L830.97217 114.10495 L831.46069 120.59695 L831.94922 125.79742 L832.43774 128.95686 L832.92621 129.42422 L833.41473 126.92632 L833.90326 121.69697 L834.39178 114.31899 L834.88031 105.48535 L835.36884 95.94669 L835.85736 86.61082 L836.34589 78.52074 L836.83441 72.59338 L837.32294 69.33952 L837.81146 68.83677 L838.29993 70.91798 L838.78845 75.28901 L839.27698 81.43947 L839.76550 88.54404 L840.25403 95.60219 L840.74255 101.75665 L841.23108 106.48812 L841.71960 109.54044 L842.20813 110.77248 L842.69666 110.19253 L843.18518 108.13036 L843.67365 105.26479 L844.16217 102.38394 L844.65070 100.09677 L845.13922 98.77035 L845.62775 98.66088 L846.11627 99.96119 L846.60480 102.63834 L847.09332 106.26902 L847.58185 110.12935 L848.07037 113.48613 L848.55890 115.78983 L849.04736 116.62303 L849.53589 115.59666 L850.02441 112.44240 L850.51294 107.24767 L851.00146 100.54147 L851.48999 93.09902 L851.97852 85.67724 L852.46704 78.95106 L852.95557 73.61823 L853.44409 70.39838 L853.93262 69.80605 L854.42108 71.91379 L854.90961 76.37213 L855.39813 82.64251 L855.88666 90.15195 L856.37518 98.22880 L856.86371 106.01406 L857.35223 112.59551 L857.84076 117.30628 L858.32928 119.88831 L858.81781 120.37944 L859.30634 118.92591 L859.79480 115.78077 L860.28333 111.44883 L860.77185 106.69875 L861.26038 102.32133 L861.74890 98.85250 L862.23743 96.53291 L862.72595 95.46906 L863.21448 95.71343 L863.70300 97.13291 L864.19153 99.26785 L864.68005 101.43530 L865.16852 103.02104 L865.65704 103.66047 L866.14557 103.16367 L866.63409 101.37997 L867.12262 98.25497 L867.61115 94.03126 L868.09967 89.30605 L868.58820 84.81797 L869.07672 81.17733 L869.56525 78.81157 L870.05377 78.09245 L870.54224 79.36781 L871.03076 82.77449 L871.51929 88.04262 L872.00781 94.55342 L872.49634 101.60181 L872.98486 108.56870 L873.47339 114.86050 L873.96191 119.80951 L874.45044 122.78439 L874.93896 123.45535 L875.42749 121.91862 L875.91595 118.54446 L876.40448 113.75464 L876.89301 107.99506 L877.38153 101.86618 L877.87006 96.13396 L878.35858 91.49966 L878.84711 88.34475 L879.33563 86.71983 L879.82416 86.53763 L880.31268 87.68345 L880.80115 89.90759 L881.28967 92.69926 L881.77820 95.39344 L882.26672 97.45488 L882.75525 98.64108 L883.24377 98.90199 L883.73230 98.21589 L884.22083 96.61855 L884.70935 94.38148 L885.19788 92.05558 L885.68640 90.25488 L886.17487 89.39556 L886.66339 89.66098 L887.15192 91.15665 L887.64044 93.97496 L888.12897 98.04100 L888.61749 102.94617 L889.10602 108.02702 L889.59454 112.63810 L890.08307 116.32207 L890.57159 118.73437 L891.06012 119.51836 L891.54858 118.38290 L892.03711 115.33105 L892.52563 110.74937 L893.01416 105.22591 L893.50269 99.30679 L893.99121 93.45945 L894.47974 88.20599 L894.96826 84.14883 L895.45679 81.76447 L895.94531 81.17870 L896.43384 82.18761 L896.92230 84.48064 L897.41083 87.77481 L897.89935 91.72196 L898.38788 95.78706 L898.87640 99.34847 L899.36493 101.96625 L899.85345 103.52258 L900.34198 104.09570 L900.83051 103.77076 L901.31903 102.64845 L901.80756 101.00994 L902.29602 99.35679 L902.78455 98.20074 L903.27307 97.81801 L903.76160 98.23622 L904.25012 99.41524 L904.73865 101.33746 L905.22717 103.87550 L905.71570 106.64048 L906.20422 109.06635 L906.69275 110.67755 L907.18127 111.24397 L907.66974 110.68213 L908.15826 108.90166 L908.64679 105.85224 L909.13531 101.72401 L909.62384 97.01457 L910.11237 92.33310 L910.60089 88.15411 L911.08942 84.78841 L911.57794 82.53432 L912.06647 81.72874 L912.55499 82.57056 L913.04346 84.92641 L913.53198 88.37868 L914.02051 92.46914 L914.50903 96.84490 L914.99756 101.16721 L915.48608 104.98131 L915.97461 107.80006 L916.46313 109.34959 L916.95166 109.68448 L917.44019 109.03750 L917.92871 107.61060 L918.41718 105.57043 L918.90570 103.20881 L919.39423 100.98692 L919.88275 99.33731 L920.37128 98.43642 L920.85980 98.21268 L921.34833 98.54844 L921.83685 99.38786 L922.32538 100.61613 L922.81390 101.91153 L923.30243 102.82475 L923.79089 103.03360 L924.27942 102.47871 L924.76794 101.24171 L925.25647 99.36816 L925.74500 96.89368 L926.23352 94.02926 L926.72205 91.22101 L927.21057 88.95608 L927.69910 87.52724 L928.18762 87.02233 L928.67609 87.49946 L929.16461 89.06433 L929.65314 91.71931 L930.14166 95.19022 L930.63019 98.98916 L931.11871 102.66396 L931.60724 105.94094 L932.09576 108.62200 L932.58429 110.43579 L933.07281 111.09820 L933.56134 110.53374 L934.04980 108.96823 L934.53833 106.76080 L935.02686 104.18398 L935.51538 101.41637 L936.00391 98.70826 L936.49243 96.43800 L936.98096 94.93120 L937.46948 94.25276 L937.95801 94.23409 L938.44653 94.69060 L938.93506 95.53997 L939.42352 96.68466 L939.91205 97.85997 L940.40057 98.70283 L940.88910 98.99094 L941.37762 98.76038 L941.86615 98.16563 L942.35468 97.28731 L942.84320 96.14809 L943.33173 94.89471 L943.82025 93.86157 L944.30878 93.38774 L944.79724 93.59811 L945.28577 94.41293 L945.77429 95.74390 L946.26282 97.59042 L946.75134 99.90295 L947.23987 102.41780 L947.72839 104.72001 L948.21692 106.48549 L948.70544 107.60964 L949.19397 108.08527 L949.68250 107.83227 L950.17096 106.73689 L950.65948 104.85476 L951.14801 102.49071 L951.63654 100.02451 L952.12506 97.69226 L952.61359 95.58719 L953.10211 93.83934 L953.59064 92.68953 L954.07916 92.32743 L954.56769 92.70100 L955.05621 93.55748 L955.54468 94.66914 L956.03320 95.95345 L956.52173 97.35103 L957.01025 98.66365 L957.49878 99.60902 L957.98730 100.04425 L958.47583 100.06836 L958.96436 99.87026 L959.45288 99.52903 L959.94141 99.02827 L960.42993 98.44260 L960.91840 98.01112 L961.40692 97.96844 L961.89545 98.34172 L962.38397 98.97587 L962.87250 99.74266 L963.36102 100.64557 L963.84955 101.68590 L964.33807 102.69390 L964.82660 103.38223 L965.31512 103.57369 L965.80365 103.31277 L966.29211 102.72569 L966.78064 101.83405 L967.26917 100.58179 L967.75769 99.03156 L968.24622 97.44398 L968.73474 96.10943 L969.22327 95.14072 L969.71179 94.48944 L970.20032 94.14288 L970.68884 94.21482 L971.17737 94.79805 L971.66583 95.78355 L972.15436 96.90580 L972.64288 97.96680 L973.13141 98.94897 L973.61993 99.88139 L974.10846 100.66349 L974.59698 101.10504 L975.08551 101.13628 L975.57404 100.90070 L976.06256 100.59782 L976.55103 100.28384 L977.03955 99.89142 L977.52808 99.42594 L978.01660 99.05158 L978.50513 98.93570 L978.99365 99.05809 L979.48218 99.24542 L979.97070 99.38523 L980.45923 99.53035 L980.94775 99.75954 L981.43628 99.99869 L981.92474 100.06117 L982.41327 99.86153 L982.90179 99.51344 L983.39032 99.17916 L983.87885 98.87675 L984.36737 98.50580 L984.85590 98.04814 L985.34442 97.65638 L985.83295 97.49866 L986.32147 97.56635 L986.81000 97.70538 L987.29846 97.82615 L987.78699 98.00366 L988.27551 98.33416 L988.76404 98.75314 L989.25256 99.07414 L989.74109 99.20184 L990.22961 99.23122 L990.71814 99.29916 L991.20667 99.39455 L991.69519 99.38745 L992.18372 99.23294 L992.67218 99.06243 L993.16071 99.03034 L993.64923 99.12292 L994.13776 99.18964 L994.62628 99.15242 L995.11481 99.10435 L995.60333 99.16444 L996.09186 99.29362 L996.58038 99.33125 L997.06891 99.20635 L997.55743 99.03488 L998.04590 98.96976 L998.53442 99.00986 L999.02295 99.02824 L999.51147 98.97552" /><path fill="none" stroke="#000000" d="M0 300.00000  L0.00000 300.00000  L0.48852 300.00000  L0.97704 300.00000  L1.46556 300.00000  L1.95408 300.00000  L2.44260 300.00000  L2.93112 300.00000  L3.41964 300.00000  L3.90816 300.00000  L4.39668 300.00000  L4.88520 300.00000  L5.37372 300.00000  L5.86224 300.00000  L6.35076 300.00000  L6.83928 300.00000  L7.32780 300.00000  L7.81632 300.00000  L8.30484 300.00000  L8.79336 300.00000  L9.28188 300.00000  L9.77040 300.00000  L10.25892 300.00000  L10.74744 300.00000  L11.23596 300.00000  L11.72447 300.00000  L12.21299 300.00000  L12.70151 300.00000  L13.19003 300.00000  L13.67855 300.00000  L14.16707 300.00000  L14.65559 300.00000  L15.14411 300.00000  L15.63263 300.00000  L16.12115 300.00000  L16.60967 300.00000  L17.09819 300.00000  L17.58671 300.00000  L18.07523 300.00000  L18.56375 300.00000  L19.05227 300.00000  L19.54079 300.00000  L20.02931 300.00000  L20.51783 300.00000  L21.00635 300.00000  L21.49487 300.00000  L21.98339 300.00000  L22.47191 300.00000  L22.96043 300.00000  L23.44895 300.00000  L23.93747 300.00000  L24.42599 300.00000  L24.91451 300.00000  L25.40303 300.00000  L25.89155 300.00000  L26.38007 300.00000  L26.86859 300.00000  L27.35711 300.00000  L27.84563 300.00000  L28.33415 300.00000  L28.82267 300.00000  L29.31119 300.00000  L29.79971 300.00000  L30.28823 300.00000  L30.77675 300.00000  L31.26527 300.00000  L31.75379 300.00000  L32.24231 300.00000  L32.73083 300.00000  L33.21935 300.00000  L33.70787 300.00000  L34.19638 300.00000  L34.68491 300.00000  L35.17342 300.00000  L35.66195 300.00000  L36.15046 300.00000  L36.63898 300.00000  L37.12750 300.00000  L37.61602 300.00000  L38.10454 300.00000  L38.59306 300.00000  L39.08158 300.00000  L39.57010 300.00000  L40.05862 300.00000  L40.54714 300.00000  L41.03566 300.00000  L41.52418 300.00000  L42.01270 300.00000  L42.50122 300.00000  L42.98974 300.00000  L43.47826 300.00000  L43.96678 300.00000  L44.45530 300.00000  L44.94382 300.00000  L45.43234 300.00000  L45.92086 300.00000  L46.40938 300.00000  L46.89790 300.00000  L47.38642 300.00000  L47.87494 300.00000  L48.36346 300.00000  L48.85198 300.00000  L49.34050 300.00000  L49.82902 300.00000  L50.31754 300.00000  L50.80606 300.00000  L51.29458 300.00000  L51.78310 300.00000  L52.27162 300.00000  L52.76014 300.00000  L53.24866 300.00000  L53.73717 300.00000  L54.22570 300.00000  L54.71422 300.00000  L55.20274 300.00000  L55.69126 300.00000  L56.17978 300.00000  L56.66830 300.00000  L57.15681 300.00000  L57.64534 300.00000  L58.13385 300.00000  L58.62238 300.00000  L59.11089 300.00000  L59.59941 300.00000  L60.08793 300.00000  L60.57645 300.00000  L61.06497 300.00000  L61.55349 300.00000  L62.04201 300.00000  L62.53053 300.00000  L63.01905 300.00000  L63.50757 300.00000  L63.99609 300.00000  L64.48461 300.00000  L64.97313 300.00000  L65.46165 300.00000  L65.95017 300.00000  L66.43869 300.00000  L66.92721 300.00000  L67.41573 300.00000  L67.90425 300.00000  L68.39277 300.00000  L68.88129 300.00000  L69.36981 300.00000  L69.85833 300.00000  L70.34685 300.00000  L70.83537 300.00000  L71.32389 300.00000  L71.81241 300.00000  L72.30093 300.00000  L72.78945 300.00000  L73.27797 300.00000  L73.76649 300.00000  L74.25500 300.00000  L74.74353 300.00000  L75.23205 300.00000  L75.72057 300.00000  L76.20908 300.00000  L76.69761 300.00000  L77.18613 300.00000  L77.67464 300.00000  L78.16316 300.00000  L78.65169 300.00000  L79.14021 300.00000  L79.62872 300.00000  L80.11725 300.00000  L80.60577 300.00000  L81.09428 300.00000  L81.58280 300.00000  L82.07133 300.00000  L82.55984 300.00000  L83.04836 300.00000  L83.53688 300.00000  L84.02541 300.00000  L84.51392 300.00000  L85.00244 300.00000  L85.49096 300.00000  L85.97948 300.00000  L86.46800 300.00000  L86.95652 300.00000  L87.44505 300.00000  L87.93356 300.00000  L88.42208 300.00000  L88.91060 300.00000  L89.39912 300.00000  L89.88764 300.00000  L90.37616 300.00000  L90.86468 300.00000  L91.35320 300.00000  L91.84172 300.00000  L92.33024 300.00000  L92.81876 300.00000  L93.30728 300.00000  L93.79580 300.00000  L94.28432 300.00000  L94.77284 300.00000  L95.26136 300.00000  L95.74988 300.00000  L96.23840 300.00000  L96.72692 300.00000  L97.21544 300.00000  L97.70396 300.00000  L98.19247 300.00000  L98.68100 300.00000  L99.16952 300.00000  L99.65804 300.00000  L100.14655 300.00000  L100.63508 300.00000  L101.12360 300.00000  L101.61211 300.00000  L102.10064 300.00000  L102.58916 300.00000  L103.07767 300.00000  L103.56619 300.00000  L104.05472 300.00000  L104.54324 300.00000  L105.03175 300.00000  L105.52027 300.00000  L106.00880 300.00000  L106.49731 300.00000  L106.98583 300.00000  L107.47435 300.00000  L107.96288 300.00000  L108.45139 300.00000  L108.93991 300.00000  L109.42844 300.00000  L109.91695 300.00000  L110.40547 300.00000  L110.89399 300.00000  L111.38251 300.00000  L111.87103 300.00000  L112.35955 300.00000  L112.84807 300.00000  L113.33659 300.00000  L113.82511 300.00000  L114.31363 300.00000  L114.80215 300.00000  L115.29067 300.00000  L115.77919 300.00000  L116.26771 300.00000  L116.75623 300.00000  L117.24475 300.00000  L117.73327 300.00000  L118.22179 300.00000  L118.71031 300.00000  L119.19883 300.00000  L119.68735 300.00000  L120.17587 300.00000  L120.66439 300.00000  L121.15291 300.00000  L121.64143 300.00000  L122.12994 300.00000  L122.61847 300.00000  L123.10699 300.00000  L123.59550 300.00000  L124.08402 300.00000  L124.57255 300.00000  L125.06107 300.00000  L125.54958 300.00000  L126.03811 300.00000  L126.52663 300.00000  L127.01514 300.00000  L127.50366 300.00000  L127.99219 300.00000  L128.48070 300.00000  L128.96922 300.00000  L129.45775 300.00000  L129.94626 300.00000  L130.43478 300.00000  L130.92331 300.00000  L131.41182 300.00000  L131.90034 300.00000  L132.38885 300.00000  L132.87738 300.00000  L133.36591 300.00000  L133.85442 300.00000  L134.34294 300.00000  L134.83147 300.00000  L135.31998 300.00000  L135.80850 300.00000  L136.29703 300.00000  L136.78554 300.00000  L137.27406 300.00000  L137.76257 300.00000  L138.25110 300.00000  L138.73962 300.00000  L139.22813 300.00000  L139.71666 300.00000  L140.20518 300.00000  L140.69370 300.00000  L141.18222 300.00000  L141.67075 300.00000  L142.15926 300.00000  L142.64778 300.00000  L143.13629 300.00000  L143.62482 300.00000  L144.11334 300.00000  L144.60185 300.00000  L145.09038 300.00000  L145.57890 300.00000  L146.06741 300.00000  L146.55594 300.00000  L147.04445 300.00000  L147.53297 300.00000  L148.02150 300.00000  L148.51001 300.00000  L148.99854 300.00000  L149.48706 300.00000  L149.97557 300.00000  L150.46410 300.00000  L150.95262 300.00000  L151.44113 300.00000  L151.92966 300.00000  L152.41817 300.00000  L152.90669 300.00000  L153.39522 300.00000  L153.88373 300.00000  L154.37225 300.00000  L154.86078 300.00000  L155.34929 300.00000  L155.83781 300.00000  L156.32632 300.00000  L156.81485 300.00000  L157.30338 300.00000  L157.79189 300.00000  L158.28041 300.00000  L158.76894 300.00000  L159.25745 300.00000  L159.74597 300.00000  L160.23450 300.00000  L160.72301 300.00000  L161.21153 300.00000  L161.70004 300.00000  L162.18857 300.00000  L162.67709 300.00000  L163.16560 300.00000  L163.65413 300.00000  L164.14265 300.00000  L164.63116 300.00000  L165.11969 300.00000  L165.60822 300.00000  L166.09673 300.00000  L166.58525 300.00000  L167.07376 300.00000  L167.56229 300.00000  L168.05081 300.00000  L168.53932 300.00000  L169.02785 300.00000  L169.51637 300.00000  L170.00488 300.00000  L170.49341 300.00000  L170.98192 300.00000  L171.47044 300.00000  L171.95897 300.00000  L172.44748 300.00000  L172.93600 300.00000  L173.42453 300.00000  L173.91304 300.00000  L174.40157 300.00000  L174.89009 300.00000  L175.37860 300.00000  L175.86713 300.00000  L176.35564 300.00000  L176.84416 300.00000  L177.33269 300.00000  L177.82120 300.00000  L178.30972 300.00000  L178.79825 300.00000  L179.28676 300.00000  L179.77528 300.00000  L180.26381 300.00000  L180.75232 300.00000  L181.24084 300.00000  L181.72935 300.00000  L182.21788 300.00000  L182.70641 300.00000  L183.19492 300.00000  L183.68344 300.00000  L184.17197 300.00000  L184.66048 300.00000  L185.14900 300.00000  L185.63751 300.00000  L186.12604 300.00000  L186.61456 300.00000  L187.10307 300.00000  L187.59160 300.00000  L188.08012 300.00000  L188.56863 300.00000  L189.05716 300.00000  L189.54568 300.00000  L190.03419 300.00000  L190.52272 300.00000  L191.01123 300.00000  L191.49976 300.00000  L191.98828 300.00000  L192.47679 300.00000  L192.96532 300.00000  L193.45384 300.00000  L193.94235 300.00000  L194.43088 300.00000  L194.91939 300.00000  L195.40791 300.00000  L195.89644 300.00000  L196.38495 300.00000  L196.87347 300.00000  L197.36200 300.00000  L197.85051 300.00000  L198.33904 300.00000  L198.82756 300.00000  L199.31607 300.00000  L199.80460 300.00000  L200.29311 300.00000  L200.78163 300.00000  L201.27016 300.00000  L201.75867 300.00000  L202.24719 300.00000  L202.73572 300.00000  L203.22423 300.00000  L203.71275 300.00000  L204.20128 300.00000  L204.68979 300.00000  L205.17831 300.00000  L205.66682 300.00000  L206.15535 300.00000  L206.64388 300.00000  L207.13239 300.00000  L207.62091 300.00000  L208.10944 300.00000  L208.59795 300.00000  L209.08647 300.00000  L209.57498 300.00000  L210.06351 300.00000  L210.55203 300.00000  L211.04054 300.00000  L211.52907 300.00000  L212.01759 300.00000  L212.50610 300.00000  L212.99463 300.00000  L213.48315 300.00000  L213.97166 300.00000  L214.46019 300.00000  L214.94870 300.00000  L215.43723 300.00000  L215.92575 300.00000  L216.41426 300.00000  L216.90279 300.00000  L217.39131 300.00000  L217.87982 300.00000  L218.36835 300.00000  L218.85687 300.00000  L219.34538 300.00000  L219.83391 300.00000  L220.32242 300.00000  L220.81094 300.00000  L221.29947 300.00000  L221.78798 300.00000  L222.27650 300.00000  L222.76503 300.00000  L223.25354 300.00000  L223.74207 300.00000  L224.23058 300.00000  L224.71910 300.00000  L225.20763 300.00000  L225.69614 300.00000  L226.18466 300.00000  L226.67319 300.00000  L227.16170 300.00000  L227.65022 300.00000  L228.13875 300.00000  L228.62726 300.00000  L229.11578 300.00000  L229.60429 300.00000  L230.09282 300.00000  L230.58134 300.00000  L231.06985 300.00000  L231.55838 300.00000  L232.04691 300.00000  L232.53542 300.00000  L233.02394 300.00000  L233.51245 300.00000  L234.00098 300.00000  L234.48950 300.00000  L234.97801 300.00000  L235.46654 300.00000  L235.95506 300.00000  L236.44357 300.00000  L236.93210 300.00000  L237.42062 300.00000  L237.90913 300.00000  L238.39766 300.00000  L238.88617 300.00000  L239.37469 300.00000  L239.86322 300.00000  L240.35173 300.00000  L240.84026 300.00000  L241.32878 300.00000  L241.81729 300.00000  L242.30582 300.00000  L242.79434 300.00000  L243.28285 300.00000  L243.77138 300.00000  L244.25989 300.00000  L244.74841 300.00000  L245.23694 300.00000  L245.72545 300.00000  L246.21397 300.00000  L246.70250 300.00000  L247.19101 300.00000  L247.67953 300.00000  L248.16805 300.00000  L248.65657 300.00000  L249.14510 300.00000  L249.63361 300.00000  L250.12213 300.00000  L250.61066 300.00000  L251.09917 300.00000  L251.58769 300.00000  L252.07622 300.00000  L252.56473 300.00000  L253.05325 300.00000  L253.54176 300.00000  L254.03029 300.00000  L254.51881 300.00000  L255.00732 300.00000  L255.49585 300.00000  L255.98438 300.00000  L256.47290 300.00000  L256.96140 300.00000  L257.44992 300.00000  L257.93845 300.00000  L258.42697 300.00000  L258.91550 300.00000  L259.40402 300.00000  L259.89252 300.00000  L260.38104 300.00000  L260.86957 300.00000  L261.35809 300.00000  L261.84662 300.00000  L262.33511 300.00000  L262.82364 300.00000  L263.31216 300.00000  L263.80069 300.00000  L264.28922 300.00000  L264.77771 300.00000  L265.26624 300.00000  L265.75476 300.00000  L266.24329 300.00000  L266.73181 300.00000  L267.22034 300.00000  L267.70883 300.00000  L268.19736 300.00000  L268.68588 300.00000  L269.17441 300.00000  L269.66293 300.00000  L270.15143 300.00000  L270.63995 300.00000  L271.12848 300.00000  L271.61700 300.00000  L272.10553 300.00000  L272.59406 300.00000  L273.08255 300.00000  L273.57108 300.00000  L274.05960 300.00000  L274.54813 300.00000  L275.03665 300.00000  L275.52515 300.00000  L276.01367 300.00000  L276.50220 300.00000  L276.99072 300.00000  L277.47925 300.00000  L277.96777 300.00000  L278.45627 300.00000  L278.94479 300.00000  L279.43332 300.00000  L279.92184 300.00000  L280.41037 300.00000  L280.89886 300.00000  L281.38739 300.00000  L281.87592 300.00000  L282.36444 300.00000  L282.85297 300.00000  L283.34149 300.00000  L283.82999 300.00000  L284.31851 300.00000  L284.80704 300.00000  L285.29556 300.00000  L285.78409 300.00000  L286.27258 300.00000  L286.76111 300.00000  L287.24963 300.00000  L287.73816 300.00000  L288.22668 300.00000  L288.71518 300.00000  L289.20370 300.00000  L289.69223 300.00000  L290.18076 300.00000  L290.66928 300.00000  L291.15781 300.00000  L291.64630 300.00000  L292.13483 300.00000  L292.62335 300.00000  L293.11188 300.00000  L293.60040 300.00000  L294.08890 300.00000  L294.57742 300.00000  L295.06595 300.00000  L295.55447 300.00000  L296.04300 300.00000  L296.53152 300.00000  L297.02002 300.00000  L297.50854 300.00000  L297.99707 300.00000  L298.48560 300.00000  L298.97412 300.00000  L299.46262 300.00000  L299.95114 300.00000  L300.43967 300.00000  L300.92819 300.00000  L301.41672 300.00000  L301.90524 300.00000  L302.39374 300.00000  L302.88226 300.00000  L303.37079 300.00000  L303.85931 300.00000  L304.34784 300.00000  L304.83633 300.00000  L305.32486 300.00000  L305.81339 300.00000  L306.30191 300.00000  L306.79044 300.00000  L307.27896 300.00000  L307.76746 300.00000  L308.25598 300.00000  L308.74451 300.00000  L309.23303 300.00000  L309.72156 300.00000  L310.21005 300.00000  L310.69858 300.00000  L311.18710 300.00000  L311.67563 300.00000  L312.16415 300.00000  L312.65265 300.00000  L313.14117 300.00000  L313.62970 300.00000  L314.11823 300.00000  L314.60675 300.00000  L315.09528 300.00000  L315.58377 300.00000  L316.07230 300.00000  L316.56082 300.00000  L317.04935 300.00000  L317.53787 300.00000  L318.02637 300.00000  L318.51489 300.00000  L319.00342 300.00000  L319.49194 300.00000  L319.98047 300.00000  L320.46899 300.00000  L320.95749 300.00000  L321.44601 300.00000  L321.93454 300.00000  L322.42307 300.00000  L322.91159 300.00000  L323.40009 300.00000  L323.88861 300.00000  L324.37714 300.00000  L324.86566 300.00000  L325.35419 300.00000  L325.84271 300.00000  L326.33121 300.00000  L326.81973 300.00000  L327.30826 300.00000  L327.79678 300.00000  L328.28531 300.00000  L328.77380 300.00000  L329.26233 300.00000  L329.75085 300.00000  L330.23938 300.00000  L330.72791 300.00000  L331.21643 300.00000  L331.70493 300.00000  L332.19345 300.00000  L332.68198 300.00000  L333.17050 300.00000  L333.65903 300.00000  L334.14752 300.00000  L334.63605 300.00000  L335.12457 300.00000  L335.61310 300.00000  L336.10162 300.00000  L336.59015 300.00000  L337.07864 300.00000  L337.56717 300.00000  L338.05569 300.00000  L338.54422 300.00000  L339.03275 300.00000  L339.52124 300.00000  L340.00977 300.00000  L340.49829 300.00000  L340.98682 300.00000  L341.47534 300.00000  L341.96384 300.00000  L342.45236 300.00000  L342.94089 300.00000  L343.42941 300.00000  L343.91794 300.00000  L344.40646 300.00000  L344.89496 300.00000  L345.38348 300.00000  L345.87201 300.00000  L346.36053 300.00000  L346.84906 300.00000  L347.33755 300.00000  L347.82608 300.00000  L348.31461 300.00000  L348.80313 300.00000  L349.29166 300.00000  L349.78018 300.00000  L350.26868 300.00000  L350.75720 300.00000  L351.24573 300.00000  L351.73425 300.00000  L352.22278 300.00000  L352.71127 300.00000  L353.19980 300.00000  L353.68832 300.00000  L354.17685 300.00000  L354.66537 300.00000  L355.15390 300.00000  L355.64240 300.00000  L356.13092 300.00000  L356.61945 300.00000  L357.10797 300.00000  L357.59650 300.00000  L358.08499 300.00000  L358.57352 300.00000  L359.06204 300.00000  L359.55057 300.00000  L360.03909 300.00000  L360.52762 300.00000  L361.01611 300.00000  L361.50464 300.00000  L361.99316 300.00000  L362.48169 300.00000  L362.97021 300.00000  L363.45871 300.00000  L363.94724 300.00000  L364.43576 300.00000  L364.92429 300.00000  L365.41281 300.00000  L365.90131 300.00000  L366.38983 300.00000  L366.87836 300.00000  L367.36688 300.00000  L367.85541 300.00000  L368.34393 300.00000  L368.83243 300.00000  L369.32095 300.00000  L369.80948 300.00000  L370.29800 300.00000  L370.78653 300.00000  L371.27502 300.00000  L371.76355 300.00000  L372.25208 300.00000  L372.74060 300.00000  L373.22913 300.00000  L373.71765 300.00000  L374.20615 300.00000  L374.69467 300.00000  L375.18320 300.00000  L375.67172 300.00000  L376.16025 300.00000  L376.64874 300.00000  L377.13727 300.00000  L377.62579 300.00000  L378.11432 300.00000  L378.60284 300.00000  L379.09137 300.00000  L379.57986 300.00000  L380.06839 300.00000  L380.55692 300.00000  L381.04544 300.00000  L381.53397 300.00000  L382.02246 300.00000  L382.51099 300.00000  L382.99951 300.00000  L383.48804 300.00000  L383.97656 300.00000  L384.46509 300.00000  L384.95358 300.00000  L385.44211 300.00000  L385.93063 300.00000  L386.41916 300.00000  L386.90768 300.00000  L387.39618 300.00000  L387.88470 300.00000  L388.37323 300.00000  L388.86176 300.00000  L389.35028 300.00000  L389.83878 300.00000  L390.32730 300.00000  L390.81583 300.00000  L391.30435 300.00000  L391.79288 300.00000  L392.28140 300.00000  L392.76990 300.00000  L393.25842 300.00000  L393.74695 300.00000  L394.23547 300.00000  L394.72400 300.00000  L395.21249 300.00000  L395.70102 300.00000  L396.18954 300.00000  L396.67807 300.00000  L397.16660 300.00000  L397.65512 300.00000  L398.14362 300.00000  L398.63214 300.00000  L399.12067 300.00000  L399.60919 300.00000  L400.09772 300.00000  L400.58621 300.00000  L401.07474 300.00000  L401.56326 300.00000  L402.05179 300.00000  L402.54031 300.00000  L403.02884 300.00000  L403.51733 300.00000  L404.00586 300.00000  L404.49438 300.00000  L404.98291 300.00000  L405.47144 300.00000  L405.95993 300.00000  L406.44846 300.00000  L406.93698 300.00000  L407.42551 300.00000  L407.91403 300.00000  L408.40256 300.00000  L408.89105 300.00000  L409.37958 300.00000  L409.86810 300.00000  L410.35663 300.00000  L410.84515 300.00000  L411.33365 300.00000  L411.82217 300.00000  L412.31070 300.00000  L412.79922 300.00000  L413.28775 300.00000  L413.77625 300.00000  L414.26477 300.00000  L414.75330 300.00000  L415.24182 300.00000  L415.73035 300.00000  L416.21887 300.00000  L416.70737 300.00000  L417.19589 300.00000  L417.68442 300.00000  L418.17294 300.00000  L418.66147 300.00000  L419.14996 300.00000  L419.63849 300.00000  L420.12701 300.00000  L420.61554 300.00000  L421.10406 300.00000  L421.59259 300.00000  L422.08109 300.00000  L422.56961 300.00000  L423.05814 300.00000  L423.54666 300.00000  L424.03519 300.00000  L424.52368 300.00000  L425.01221 300.00000  L425.50073 300.00000  L425.98926 300.00000  L426.47778 300.00000  L426.96631 300.00000  L427.45480 300.00000  L427.94333 300.00000  L428.43185 300.00000  L428.92038 300.00000  L429.40891 300.00000  L429.89740 300.00000  L430.38593 300.00000  L430.87445 300.00000  L431.36298 300.00000  L431.85150 300.00000  L432.34003 300.00000  L432.82852 300.00000  L433.31705 300.00000  L433.80557 300.00000  L434.29410 300.00000  L434.78262 300.00000  L435.27112 300.00000  L435.75964 300.00000  L436.24817 300.00000  L436.73669 300.00000  L437.22522 300.00000  L437.71375 300.00000  L438.20224 300.00000  L438.69077 300.00000  L439.17929 300.00000  L439.66782 300.00000  L440.15634 300.00000  L440.64484 300.00000  L441.13336 300.00000  L441.62189 300.00000  L442.11041 300.00000  L442.59894 300.00000  L443.08743 300.00000  L443.57596 300.00000  L444.06448 300.00000  L444.55301 300.00000  L445.04153 300.00000  L445.53006 300.00000  L446.01855 300.00000  L446.50708 300.00000  L446.99561 300.00000  L447.48413 300.00000  L447.97266 300.00000  L448.46115 300.00000  L448.94968 300.00000  L449.43820 300.00000  L449.92673 300.00000  L450.41525 300.00000  L450.90378 300.00000  L451.39227 300.00000  L451.88080 300.00000  L452.36932 300.00000  L452.85785 300.00000  L453.34637 300.00000  L453.83487 300.00000  L454.32339 300.00000  L454.81192 300.00000  L455.30045 300.00000  L455.78897 300.00000  L456.27750 300.00000  L456.76599 300.00000  L457.25452 300.00000  L457.74304 300.00000  L458.23157 300.00000  L458.72009 300.00000  L459.20859 300.00000  L459.69711 300.00000  L460.18564 300.00000  L460.67416 300.00000  L461.16269 300.00000  L461.65121 300.00000  L462.13971 300.00000  L462.62823 300.00000  L463.11676 300.00000  L463.60529 300.00000  L464.09381 300.00000  L464.58231 300.00000  L465.07083 300.00000  L465.55936 300.00000  L466.04788 300.00000  L466.53641 300.00000  L467.02490 300.00000  L467.51343 300.00000  L468.00195 300.00000  L468.49048 300.00000  L468.97900 300.00000  L469.46753 300.00000  L469.95602 300.00000  L470.44455 300.00000  L470.93307 300.00000  L471.42160 300.00000  L471.91013 300.00000  L472.39862 300.00000  L472.88715 300.00000  L473.37567 300.00000  L473.86420 300.00000  L474.35272 300.00000  L474.84125 300.00000  L475.32974 300.00000  L475.81827 300.00000  L476.30679 300.00000  L476.79532 300.00000  L477.28384 300.00000  L477.77234 300.00000  L478.26086 300.00000  L478.74939 300.00000  L479.23792 300.00000  L479.72644 300.00000  L480.21497 300.00000  L480.70346 300.00000  L481.19199 300.00000  L481.68051 300.00000  L482.16904 300.00000  L482.65756 300.00000  L483.14606 300.00000  L483.63458 300.00000  L484.12311 300.00000  L484.61163 300.00000  L485.10016 300.00000  L485.58868 300.00000  L486.07718 300.00000  L486.56570 300.00000  L487.05423 300.00000  L487.54276 300.00000  L488.03128 300.00000  L488.51978 300.00000  L489.00830 300.00000  L489.49683 300.00000  L489.98535 300.00000  L490.47388 300.00000  L490.96237 300.00000  L491.45090 300.00000  L491.93942 300.00000  L492.42795 300.00000  L492.91647 300.00000  L493.40500 300.00000  L493.89349 300.00000  L494.38202 300.00000  L494.87054 300.00000  L495.35907 300.00000  L495.84760 300.00000  L496.33609 300.00000  L496.82462 300.00000  L497.31314 300.00000  L497.80167 300.00000  L498.29019 300.00000  L498.77872 300.00000  L499.26721 300.00000  L499.75574 300.00000  L500.24426 300.00000  L500.73279 300.00000  L501.22131 300.00000  L501.70981 300.00000  L502.19833 300.00000  L502.68686 300.00000  L503.17538 300.00000  L503.66391 300.00000  L504.15244 300.00000  L504.64093 300.00000  L505.12946 300.00000  L505.61798 300.00000  L506.10651 300.00000  L506.59503 300.00000  L507.08353 300.00000  L507.57205 300.00000  L508.06058 300.00000  L508.54910 300.00000  L509.03763 300.00000  L509.52615 300.00000  L510.01465 300.00000  L510.50317 300.00000  L510.99170 300.00000  L511.48022 300.00000  L511.96875 300.00000  L512.45728 300.00000  L512.94580 300.00000  L513.43433 300.00000  L513.92279 300.00000  L514.41132 300.00000  L514.89984 300.00000  L515.38837 300.00000  L515.87689 300.00000  L516.36542 300.00000  L516.85394 300.00000  L517.34247 300.00000  L517.83099 300.00000  L518.31952 300.00000  L518.80804 300.00000  L519.29651 300.00000  L519.78503 300.00000  L520.27356 300.00000  L520.76208 300.00000  L521.25061 300.00000  L521.73914 300.00000  L522.22766 300.00000  L522.71619 300.00000  L523.20471 300.00000  L523.69324 300.00000  L524.18176 300.00000  L524.67023 300.00000  L525.15875 300.00000  L525.64728 300.00000  L526.13580 300.00000  L526.62433 300.00000  L527.11285 300.00000  L527.60138 300.00000  L528.08990 300.00000  L528.57843 300.00000  L529.06696 300.00000  L529.55542 300.00000  L530.04395 300.00000  L530.53247 300.00000  L531.02100 300.00000  L531.50952 300.00000  L531.99805 300.00000  L532.48657 300.00000  L532.97510 300.00000  L533.46362 300.00000  L533.95215 300.00000  L534.44067 300.00000  L534.92914 300.00000  L535.41766 300.00000  L535.90619 300.00000  L536.39471 300.00000  L536.88324 300.00000  L537.37177 300.00000  L537.86029 300.00000  L538.34882 300.00000  L538.83734 300.00000  L539.32587 300.00000  L539.81439 300.00000  L540.30286 300.00000  L540.79138 300.00000  L541.27991 300.00000  L541.76843 300.00000  L542.25696 300.00000  L542.74548 300.00000  L543.23401 300.00000  L543.72253 300.00000  L544.21106 300.00000  L544.69958 300.00000  L545.18811 300.00000  L545.67657 300.00000  L546.16510 300.00000  L546.65363 300.00000  L547.14215 300.00000  L547.63068 300.00000  L548.11920 300.00000  L548.60773 300.00000  L549.09625 300.00000  L549.58478 300.00000  L550.07330 300.00000  L550.56183 300.00000  L551.05029 300.00000  L551.53882 300.00000  L552.02734 300.00000  L552.51587 300.00000  L553.00439 300.00000  L553.49292 300.00000  L553.98145 300.00000  L554.46997 300.00000  L554.95850 300.00000  L555.44702 300.00000  L555.93555 300.00000  L556.42401 300.00000  L556.91254 300.00000  L557.40106 300.00000  L557.88959 300.00000  L558.37811 300.00000  L558.86664 300.00000  L559.35516 300.00000  L559.84369 300.00000  L560.33221 300.00000  L560.82074 300.00000  L561.30927 300.00000  L561.79773 300.00000  L562.28625 300.00000  L562.77478 300.00000  L563.26331 300.00000  L563.75183 300.00000  L564.24036 300.00000  L564.72888 300.00000  L565.21741 300.00000  L565.70593 300.00000  L566.19446 300.00000  L566.68298 300.00000  L567.17145 300.00000  L567.65997 300.00000  L568.14850 300.00000  L568.63702 300.00000  L569.12555 300.00000  L569.61407 300.00000  L570.10260 300.00000  L570.59113 300.00000  L571.07965 300.00000  L571.56818 300.00000  L572.05670 300.00000  L572.54517 300.00000  L573.03369 300.00000  L573.52222 300.00000  L574.01074 300.00000  L574.49927 300.00000  L574.98779 300.00000  L575.47632 300.00000  L575.96484 300.00000  L576.45337 300.00000  L576.94189 300.00000  L577.43036 300.00000  L577.91888 300.00000  L578.40741 300.00000  L578.89594 300.00000  L579.38446 300.00000  L579.87299 300.00000  L580.36151 300.00000  L580.85004 300.00000  L581.33856 300.00000  L581.82709 300.00000  L582.31561 300.00000  L582.80408 300.00000  L583.29260 300.00000  L583.78113 300.00000  L584.26965 300.00000  L584.75818 300.00000  L585.24670 300.00000  L585.73523 300.00000  L586.22375 300.00000  L586.71228 300.00000  L587.20081 300.00000  L587.68933 300.00000  L588.17780 300.00000  L588.66632 300.00000  L589.15485 300.00000  L589.64337 300.00000  L590.13190 300.00000  L590.62042 300.00000  L591.10895 300.00000  L591.59747 300.00000  L592.08600 300.00000  L592.57452 300.00000  L593.06305 300.00000  L593.55151 300.00000  L594.04004 300.00000  L594.52856 300.00000  L595.01709 300.00000  L595.50562 300.00000  L595.99414 300.00000  L596.48267 300.00000  L596.97119 300.00000  L597.45972 300.00000  L597.94824 300.00000  L598.43677 300.00000  L598.92523 300.00000  L599.41376 300.00000  L599.90228 300.00000  L600.39081 300.00000  L600.87933 300.00000  L601.36786 300.00000  L601.85638 300.00000  L602.34491 300.00000  L602.83344 300.00000  L603.32196 300.00000  L603.81049 300.00000  L604.29895 300.00000  L604.78748 300.00000  L605.27600 300.00000  L605.76453 300.00000  L606.25305 300.00000  L606.74158 300.00000  L607.23010 300.00000  L607.71863 300.00000  L608.20715 300.00000  L608.69568 300.00000  L609.18420 300.00000  L609.67267 300.00000  L610.16119 300.00000  L610.64972 300.00000  L611.13824 300.00000  L611.62677 300.00000  L612.11530 300.00000  L612.60382 300.00000  L613.09235 300.00000  L613.58087 300.00000  L614.06940 300.00000  L614.55792 300.00000  L615.04639 300.00000  L615.53491 300.00000  L616.02344 300.00000  L616.51196 300.00000  L617.00049 300.00000  L617.48901 300.00000  L617.97754 300.00000  L618.46606 300.00000  L618.95459 300.00000  L619.44312 300.00000  L619.93164 300.00000  L620.42010 300.00000  L620.90863 300.00000  L621.39716 300.00000  L621.88568 300.00000  L622.37421 300.00000  L622.86273 300.00000  L623.35126 300.00000  L623.83978 300.00000  L624.32831 300.00000  L624.81683 300.00000  L625.30530 300.00000  L625.79382 300.00000  L626.28235 300.00000  L626.77087 300.00000  L627.25940 300.00000  L627.74792 300.00000  L628.23645 300.00000  L628.72498 300.00000  L629.21350 300.00000  L629.70203 300.00000  L630.19055 300.00000  L630.67902 300.00000  L631.16754 300.00000  L631.65607 300.00000  L632.14459 300.00000  L632.63312 300.00000  L633.12164 300.00000  L633.61017 300.00000  L634.09869 300.00000  L634.58722 300.00000  L635.07574 300.00000  L635.56427 300.00000  L636.05273 300.00000  L636.54126 300.00000  L637.02979 300.00000  L637.51831 300.00000  L638.00684 300.00000  L638.49536 300.00000  L638.98389 300.00000  L639.47241 300.00000  L639.96094 300.00000  L640.44946 300.00000  L640.93799 300.00000  L641.42645 300.00000  L641.91498 300.00000  L642.40350 300.00000  L642.89203 300.00000  L643.38055 300.00000  L643.86908 300.00000  L644.35760 300.00000  L644.84613 300.00000  L645.33466 300.00000  L645.82318 300.00000  L646.31171 300.00000  L646.80017 300.00000  L647.28870 300.00000  L647.77722 300.00000  L648.26575 300.00000  L648.75427 300.00000  L649.24280 300.00000  L649.73132 300.00000  L650.21985 300.00000  L650.70837 300.00000  L651.19690 300.00000  L651.68542 300.00000  L652.17389 300.00000  L652.66241 300.00000  L653.15094 300.00000  L653.63947 300.00000  L654.12799 300.00000  L654.61652 300.00000  L655.10504 300.00000  L655.59357 300.00000  L656.08209 300.00000  L656.57062 300.00000  L657.05914 300.00000  L657.54761 300.00000  L658.03613 300.00000  L658.52466 300.00000  L659.01318 300.00000  L659.50171 300.00000  L659.99023 300.00000  L660.47876 300.00000  L660.96729 300.00000  L661.45581 300.00000  L661.94434 300.00000  L662.43286 300.00000  L662.92133 300.00000  L663.40985 300.00000  L663.89838 300.00000  L664.38690 300.00000  L664.87543 300.00000  L665.36395 300.00000  L665.85248 300.00000  L666.34100 300.00000  L666.82953 300.00000  L667.31805 300.00000  L667.80658 300.00000  L668.29504 300.00000  L668.78357 300.00000  L669.27209 300.00000  L669.76062 300.00000  L670.24915 300.00000  L670.73767 300.00000  L671.22620 300.00000  L671.71472 300.00000  L672.20325 300.00000  L672.69177 300.00000  L673.18030 300.00000  L673.66876 300.00000  L674.15729 300.00000  L674.64581 300.00000  L675.13434 300.00000  L675.62286 300.00000  L676.11139 300.00000  L676.59991 300.00000  L677.08844 300.00000  L677.57697 300.00000  L678.06549 300.00000  L678.55396 300.00000  L679.04248 300.00000  L679.53101 300.00000  L680.01953 300.00000  L680.50806 300.00000  L680.99658 300.00000  L681.48511 300.00000  L681.97363 300.00000  L682.46216 300.00000  L682.95068 300.00000  L683.43921 300.00000  L683.92767 300.00000  L684.41620 300.00000  L684.90472 300.00000  L685.39325 300.00000  L685.88177 300.00000  L686.37030 300.00000  L686.85883 300.00000  L687.34735 300.00000  L687.83588 300.00000  L688.32440 300.00000  L688.81293 300.00000  L689.30139 300.00000  L689.78992 300.00000  L690.27844 300.00000  L690.76697 300.00000  L691.25549 300.00000  L691.74402 300.00000  L692.23254 300.00000  L692.72107 300.00000  L693.20959 300.00000  L693.69812 300.00000  L694.18665 300.00000  L694.67511 300.00000  L695.16364 300.00000  L695.65216 300.00000  L696.14069 300.00000  L696.62921 300.00000  L697.11774 300.00000  L697.60626 300.00000  L698.09479 300.00000  L698.58331 300.00000  L699.07184 300.00000  L699.56036 300.00000  L700.04883 300.00000  L700.53735 300.00000  L701.02588 300.00000  L701.51440 300.00000  L702.00293 300.00000  L702.49146 300.00000  L702.97998 300.00000  L703.46851 300.00000  L703.95703 300.00000  L704.44556 300.00000  L704.93408 300.00000  L705.42255 300.00000  L705.91107 300.00000  L706.39960 300.00000  L706.88812 300.00000  L707.37665 300.00000  L707.86517 300.00000  L708.35370 300.00000  L708.84222 300.00000  L709.33075 300.00000  L709.81927 300.00000  L710.30780 300.00000  L710.79626 300.00000  L711.28479 300.00000  L711.77332 300.00000  L712.26184 300.00000  L712.75037 300.00000  L713.23889 300.00000  L713.72742 300.00000  L714.21594 300.00000  L714.70447 300.00000  L715.19299 300.00000  L715.68152 300.00000  L716.16998 300.00000  L716.65851 300.00000  L717.14703 300.00000  L717.63556 300.00000  L718.12408 300.00000  L718.61261 300.00000  L719.10114 300.00000  L719.58966 300.00000  L720.07819 300.00000  L720.56671 300.00000  L721.05524 300.00000  L721.54370 300.00000  L722.03223 300.00000  L722.52075 300.00000  L723.00928 300.00000  L723.49780 300.00000  L723.98633 300.00000  L724.47485 300.00000  L724.96338 300.00000  L725.45190 300.00000  L725.94043 300.00000  L726.42889 300.00000  L726.91742 300.00000  L727.40594 300.00000  L727.89447 300.00000  L728.38300 300.00000  L728.87152 300.00000  L729.36005 300.00000  L729.84857 300.00000  L730.33710 300.00000  L730.82562 300.00000  L731.31415 300.00000  L731.80261 300.00000  L732.29114 300.00000  L732.77966 300.00000  L733.26819 300.00000  L733.75671 300.00000  L734.24524 300.00000  L734.73376 300.00000  L735.22229 300.00000  L735.71082 300.00000  L736.19934 300.00000  L736.68787 300.00000  L737.17633 300.00000  L737.66486 300.00000  L738.15338 300.00000  L738.64191 300.00000  L739.13043 300.00000  L739.61896 300.00000  L740.10748 300.00000  L740.59601 300.00000  L741.08453 300.00000  L741.57306 300.00000  L742.06158 300.00000  L742.55005 300.00000  L743.03857 300.00000  L743.52710 300.00000  L744.01563 300.00000  L744.50415 300.00000  L744.99268 300.00000  L745.48120 300.00000  L745.96973 300.00000  L746.45825 300.00000  L746.94678 300.00000  L747.43530 300.00000  L747.92377 300.00000  L748.41229 300.00000  L748.90082 300.00000  L749.38934 300.00000  L749.87787 300.00000  L750.36639 300.00000  L750.85492 300.00000  L751.34344 300.00000  L751.83197 300.00000  L752.32050 300.00000  L752.80902 300.00000  L753.29749 300.00000  L753.78601 300.00000  L754.27454 300.00000  L754.76306 300.00000  L755.25159 300.00000  L755.74011 300.00000  L756.22864 300.00000  L756.71716 300.00000  L757.20569 300.00000  L757.69421 300.00000  L758.18274 300.00000  L758.67120 300.00000  L759.15973 300.00000  L759.64825 300.00000  L760.13678 300.00000  L760.62531 300.00000  L761.11383 300.00000  L761.60236 300.00000  L762.09088 300.00000  L762.57941 300.00000  L763.06793 300.00000  L763.55646 300.00000  L764.04492 300.00000  L764.53345 300.00000  L765.02197 300.00000  L765.51050 300.00000  L765.99902 300.00000  L766.48755 300.00000  L766.97607 300.00000  L767.46460 300.00000  L767.95313 300.00000  L768.44165 300.00000  L768.93018 300.00000  L769.41864 300.00000  L769.90717 300.00000  L770.39569 300.00000  L770.88422 300.00000  L771.37274 300.00000  L771.86127 300.00000  L772.34979 300.00000  L772.83832 300.00000  L773.32684 300.00000  L773.81537 300.00000  L774.30389 300.00000  L774.79236 300.00000  L775.28088 300.00000  L775.76941 300.00000  L776.25793 300.00000  L776.74646 300.00000  L777.23499 300.00000  L777.72351 300.00000  L778.21204 300.00000  L778.70056 300.00000  L779.18909 300.00000  L779.67755 300.00000  L780.16608 300.00000  L780.65460 300.00000  L781.14313 300.00000  L781.63165 300.00000  L782.12018 300.00000  L782.60870 300.00000  L783.09723 300.00000  L783.58575 300.00000  L784.07428 300.00000  L784.56281 300.00000  L785.05127 300.00000  L785.53979 300.00000  L786.02832 300.00000  L786.51685 300.00000  L787.00537 300.00000  L787.49390 300.00000  L787.98242 300.00000  L788.47095 300.00000  L788.95947 300.00000  L789.44800 300.00000  L789.93652 300.00000  L790.42499 300.00000  L790.91351 300.00000  L791.40204 300.00000  L791.89056 300.00000  L792.37909 300.00000  L792.86761 300.00000  L793.35614 300.00000  L793.84467 300.00000  L794.33319 300.00000  L794.82172 300.00000  L795.31024 300.00000  L795.79871 300.00000  L796.28723 300.00000  L796.77576 300.00000  L797.26428 300.00000  L797.75281 300.00000  L798.24133 300.00000  L798.72986 300.00000  L799.21838 300.00000  L799.70691 300.00000  L800.19543 300.00000  L800.68396 300.00000  L801.17242 300.00000  L801.66095 300.00000  L802.14948 300.00000  L802.63800 300.00000  L803.12653 300.00000  L803.61505 300.00000  L804.10358 300.00000  L804.59210 300.00000  L805.08063 300.00000  L805.56915 300.00000  L806.05768 300.00000  L806.54614 300.00000  L807.03467 300.00000  L807.52319 300.00000  L808.01172 300.00000  L808.50024 300.00000  L808.98877 300.00000  L809.47729 300.00000  L809.96582 300.00000  L810.45435 300.00000  L810.94287 300.00000  L811.43140 300.00000  L811.91986 300.00000  L812.40839 300.00000  L812.89691 300.00000  L813.38544 300.00000  L813.87396 300.00000  L814.36249 300.00000  L814.85101 300.00000  L815.33954 300.00000  L815.82806 300.00000  L816.31659 300.00000  L816.80511 300.00000  L817.29358 300.00000  L817.78210 300.00000  L818.27063 300.00000  L818.75916 300.00000  L819.24768 300.00000  L819.73621 300.00000  L820.22473 300.00000  L820.71326 300.00000  L821.20178 300.00000  L821.69031 300.00000  L822.17883 300.00000  L822.66730 300.00000  L823.15582 300.00000  L823.64435 300.00000  L824.13287 300.00000  L824.62140 300.00000  L825.10992 300.00000  L825.59845 300.00000  L826.08698 300.00000  L826.57550 300.00000  L827.06403 300.00000  L827.55249 300.00000  L828.04102 300.00000  L828.52954 300.00000  L829.01807 300.00000  L829.50659 300.00000  L829.99512 300.00000  L830.48364 300.00000  L830.97217 300.00000  L831.46069 300.00000  L831.94922 300.00000  L832.43774 300.00000  L832.92621 300.00000  L833.41473 300.00000  L833.90326 300.00000  L834.39178 300.00000  L834.88031 300.00000  L835.36884 300.00000  L835.85736 300.00000  L836.34589 300.00000  L836.83441 300.00000  L837.32294 300.00000  L837.81146 300.00000  L838.29993 300.00000  L838.78845 300.00000  L839.27698 300.00000  L839.76550 300.00000  L840.25403 300.00000  L840.74255 300.00000  L841.23108 300.00000  L841.71960 300.00000  L842.20813 300.00000  L842.69666 300.00000  L843.18518 300.00000  L843.67365 300.00000  L844.16217 300.00000  L844.65070 300.00000  L845.13922 300.00000  L845.62775 300.00000  L846.11627 300.00000  L846.60480 300.00000  L847.09332 300.00000  L847.58185 300.00000  L848.07037 300.00000  L848.55890 300.00000  L849.04736 300.00000  L849.53589 300.00000  L850.02441 300.00000  L850.51294 300.00000  L851.00146 300.00000  L851.48999 300.00000  L851.97852 300.00000  L852.46704 300.00000  L852.95557 300.00000  L853.44409 300.00000  L853.93262 300.00000  L854.42108 300.00000  L854.90961 300.00000  L855.39813 300.00000  L855.88666 300.00000  L856.37518 300.00000  L856.86371 300.00000  L857.35223 300.00000  L857.84076 300.00000  L858.32928 300.00000  L858.81781 300.00000  L859.30634 300.00000  L859.79480 300.00000  L860.28333 300.00000  L860.77185 300.00000  L861.26038 300.00000  L861.74890 300.00000  L862.23743 300.00000  L862.72595 300.00000  L863.21448 300.00000  L863.70300 300.00000  L864.19153 300.00000  L864.68005 300.00000  L865.16852 300.00000  L865.65704 300.00000  L866.14557 300.00000  L866.63409 300.00000  L867.12262 300.00000  L867.61115 300.00000  L868.09967 300.00000  L868.58820 300.00000  L869.07672 300.00000  L869.56525 300.00000  L870.05377 300.00000  L870.54224 300.00000  L871.03076 300.00000  L871.51929 300.00000  L872.00781 300.00000  L872.49634 300.00000  L872.98486 300.00000  L873.47339 300.00000  L873.96191 300.00000  L874.45044 300.00000  L874.93896 300.00000  L875.42749 300.00000  L875.91595 300.00000  L876.40448 300.00000  L876.89301 300.00000  L877.38153 300.00000  L877.87006 300.00000  L878.35858 300.00000  L878.84711 300.00000  L879.33563 300.00000  L879.82416 300.00000  L880.31268 300.00000  L880.80115 300.00000  L881.28967 300.00000  L881.77820 300.00000  L882.26672 300.00000  L882.75525 300.00000  L883.24377 300.00000  L883.73230 300.00000  L884.22083 300.00000  L884.70935 300.00000  L885.19788 300.00000  L885.68640 300.00000  L886.17487 300.00000  L886.66339 300.00000  L887.15192 300.00000  L887.64044 300.00000  L888.12897 300.00000  L888.61749 300.00000  L889.10602 300.00000  L889.59454 300.00000  L890.08307 300.00000  L890.57159 300.00000  L891.06012 300.00000  L891.54858 300.00000  L892.03711 300.00000  L892.52563 300.00000  L893.01416 300.00000  L893.50269 300.00000  L893.99121 300.00000  L894.47974 300.00000  L894.96826 300.00000  L895.45679 300.00000  L895.94531 300.00000  L896.43384 300.00000  L896.92230 300.00000  L897.41083 300.00000  L897.89935 300.00000  L898.38788 300.00000  L898.87640 300.00000  L899.36493 300.00000  L899.85345 300.00000  L900.34198 300.00000  L900.83051 300.00000  L901.31903 300.00000  L901.80756 300.00000  L902.29602 300.00000  L902.78455 300.00000  L903.27307 300.00000  L903.76160 300.00000  L904.25012 300.00000  L904.73865 300.00000  L905.22717 300.00000  L905.71570 300.00000  L906.20422 300.00000  L906.69275 300.00000  L907.18127 300.00000  L907.66974 300.00000  L908.15826 300.00000  L908.64679 300.00000  L909.13531 300.00000  L909.62384 300.00000  L910.11237 300.00000  L910.60089 300.00000  L911.08942 300.00000  L911.57794 300.00000  L912.06647 300.00000  L912.55499 300.00000  L913.04346 300.00000  L913.53198 300.00000  L914.02051 300.00000  L914.50903 300.00000  L914.99756 300.00000  L915.48608 300.00000  L915.97461 300.00000  L916.46313 300.00000  L916.95166 300.00000  L917.44019 300.00000  L917.92871 300.00000  L918.41718 300.00000  L918.90570 300.00000  L919.39423 300.00000  L919.88275 300.00000  L920.37128 300.00000  L920.85980 300.00000  L921.34833 300.00000  L921.83685 300.00000  L922.32538 300.00000  L922.81390 300.00000  L923.30243 300.00000  L923.79089 300.00000  L924.27942 300.00000  L924.76794 300.00000  L925.25647 300.00000  L925.74500 300.00000  L926.23352 300.00000  L926.72205 300.00000  L927.21057 300.00000  L927.69910 300.00000  L928.18762 300.00000  L928.67609 300.00000  L929.16461 300.00000  L929.65314 300.00000  L930.14166 300.00000  L930.63019 300.00000  L931.11871 300.00000  L931.60724 300.00000  L932.09576 300.00000  L932.58429 300.00000  L933.07281 300.00000  L933.56134 300.00000  L934.04980 300.00000  L934.53833 300.00000  L935.02686 300.00000  L935.51538 300.00000  L936.00391 300.00000  L936.49243 300.00000  L936.98096 300.00000  L937.46948 300.00000  L937.95801 300.00000  L938.44653 300.00000  L938.93506 300.00000  L939.42352 300.00000  L939.91205 300.00000  L940.40057 300.00000  L940.88910 300.00000  L941.37762 300.00000  L941.86615 300.00000  L942.35468 300.00000  L942.84320 300.00000  L943.33173 300.00000  L943.82025 300.00000  L944.30878 300.00000  L944.79724 300.00000  L945.28577 300.00000  L945.77429 300.00000  L946.26282 300.00000  L946.75134 300.00000  L947.23987 300.00000  L947.72839 300.00000  L948.21692 300.00000  L948.70544 300.00000  L949.19397 300.00000  L949.68250 300.00000  L950.17096 300.00000  L950.65948 300.00000  L951.14801 300.00000  L951.63654 300.00000  L952.12506 300.00000  L952.61359 300.00000  L953.10211 300.00000  L953.59064 300.00000  L954.07916 300.00000  L954.56769 300.00000  L955.05621 300.00000  L955.54468 300.00000  L956.03320 300.00000  L956.52173 300.00000  L957.01025 300.00000  L957.49878 300.00000  L957.98730 300.00000  L958.47583 300.00000  L958.96436 300.00000  L959.45288 300.00000  L959.94141 300.00000  L960.42993 300.00000  L960.91840 300.00000  L961.40692 300.00000  L961.89545 300.00000  L962.38397 300.00000  L962.87250 300.00000  L963.36102 300.00000  L963.84955 300.00000  L964.33807 300.00000  L964.82660 300.00000  L965.31512 300.00000  L965.80365 300.00000  L966.29211 300.00000  L966.78064 300.00000  L967.26917 300.00000  L967.75769 300.00000  L968.24622 300.00000  L968.73474 300.00000  L969.22327 300.00000  L969.71179 300.00000  L970.20032 300.00000  L970.68884 300.00000  L971.17737 300.00000  L971.66583 300.00000  L972.15436 300.00000  L972.64288 300.00000  L973.13141 300.00000  L973.61993 300.00000  L974.10846 300.00000  L974.59698 300.00000  L975.08551 300.00000  L975.57404 300.00000  L976.06256 300.00000  L976.55103 300.00000  L977.03955 300.00000  L977.52808 300.00000  L978.01660 300.00000  L978.50513 300.00000  L978.99365 300.00000  L979.48218 300.00000  L979.97070 300.00000  L980.45923 300.00000  L980.94775 300.00000  L981.43628 300.00000  L981.92474 300.00000  L982.41327 300.00000  L982.90179 300.00000  L983.39032 300.00000  L983.87885 300.00000  L984.36737 300.00000  L984.85590 300.00000  L985.34442 300.00000  L985.83295 300.00000  L986.32147 300.00000  L986.81000 300.00000  L987.29846 300.00000  L987.78699 300.00000  L988.27551 300.00000  L988.76404 300.00000  L989.25256 300.00000  L989.74109 300.00000  L990.22961 300.00000  L990.71814 300.00000  L991.20667 300.00000  L991.69519 300.00000  L992.18372 300.00000  L992.67218 300.00000  L993.16071 300.00000  L993.64923 300.00000  L994.13776 300.00000  L994.62628 300.00000  L995.11481 300.00000  L995.60333 300.00000  L996.09186 300.00000  L996.58038 300.00000  L997.06891 300.00000  L997.55743 300.00000  L998.04590 300.00000  L998.53442 300.00000  L999.02295 300.00000  L999.51147 300.00000 " /></g><text x="1000.00000" dx="10" y="98.97112">[-982.55438;962.54163]</text><text x="1000.00000" dx="10" y="300.00000">[-0.00000;0.00000]</text></svg>