<svg xmlns="http://www.w3.org/2000/svg" version="1.1"><g stroke-width="0.6"><path fill="none" stroke="#000000" d="M0 200.00000 L1000.00000 200.00000" /><path fill="none" stroke="#000000" d="M0 300.00000 L1000.00000 300.00000" /><path fill="none" stroke="#000000" d="M500.00000 0 L500.00000 400.00000" /><path fill="none" stroke="#550000" d="M0 350.64557 L1000.00000 350.64557" /><path fill="none" stroke="#550000" d="M0 300.00000 L1000.00000 300.00000" /><path fill="none" stroke="#550000" d="M0 249.35443 L1000.00000 249.35443" /><path fill="none" stroke="#000000" d="M0 200.00000  L0.00000 198.69017 L0.48828 198.69656 L0.97656 198.64966 L1.46484 198.57297 L1.95313 198.72499 L2.44141 198.59135 L2.92969 198.64435 L3.41797 198.68178 L3.90625 198.66591 L4.39453 198.66541 L4.88281 198.61130 L5.37109 198.50684 L5.85938 198.68289 L6.34766 198.56363 L6.83594 198.59438 L7.32422 198.61864 L7.81250 198.58926 L8.30078 198.58392 L8.78906 198.52364 L9.27734 198.38358 L9.76563 198.59256 L10.25391 198.48436 L10.74219 198.49178 L11.23047 198.49672 L11.71875 198.44684 L12.20703 198.43872 L12.69531 198.37167 L13.18359 198.18156 L13.67188 198.43872 L14.16016 198.33817 L14.64844 198.31750 L15.13672 198.29182 L15.62500 198.20764 L16.11328 198.19978 L16.60156 198.12193 L17.08984 197.85342 L17.57813 198.18803 L18.06641 198.09044 L18.55469 198.02953 L19.04297 197.94885 L19.53125 197.79880 L20.01953 197.79727 L20.50781 197.69472 L20.99609 197.28435 L21.48438 197.76141 L21.97266 197.65791 L22.46094 197.52426 L22.94922 197.32275 L23.43750 197.01602 L23.92578 197.03604 L24.41406 196.85513 L24.90234 196.12025 L25.39063 196.92651 L25.87891 196.79224 L26.36719 196.47185 L26.85547 195.88579 L27.34375 195.02339 L27.83203 195.09592 L28.32031 194.49922 L28.80859 192.53618 L29.29688 194.59018 L29.78516 194.28004 L30.27344 192.97488 L30.76172 189.08563 L31.25000 181.71527 L31.73828 178.12782 L32.22656 159.21559 L32.71484 77.39658 L33.20313 153.12839 L33.69141 21.63055 L34.17969 171.03506 L34.66797 184.34906 L35.15625 195.00034 L35.64453 189.82379 L36.13281 194.19087 L36.62109 196.21155 L37.10938 195.48106 L37.59766 195.42424 L38.08594 196.44296 L38.57422 197.14677 L39.06250 198.14227 L39.55078 197.40381 L40.03906 198.30014 L40.52734 198.23842 L41.01563 198.48711 L41.50391 198.33447 L41.99219 198.70738 L42.48047 198.90193 L42.96875 199.28650 L43.45703 199.00952 L43.94531 199.49847 L44.43359 199.29245 L44.92188 199.63275 L45.41016 199.42734 L45.89844 199.66893 L46.38672 199.76707 L46.87500 199.83841 L47.36328 199.62764 L47.85156 199.50410 L48.33984 199.41925 L48.82813 199.21362 L49.31641 199.61023 L49.80469 199.05937 L50.29297 199.01740 L50.78125 198.78139 L51.26953 198.54581 L51.75781 198.50388 L52.24609 198.02104 L52.73438 197.63185 L53.22266 198.90515 L53.71094 197.30774 L54.19922 197.04417 L54.68750 196.26793 L55.17578 195.19139 L55.66406 196.93430 L56.15234 191.09669 L56.64063 190.10974 L57.12891 193.21298 L57.61719 188.80743 L58.10547 180.32773 L58.59375 -0.00000 L59.08203 161.00900 L59.57031 110.21326 L60.05859 161.15823 L60.54688 180.70590 L61.03516 179.35971 L61.52344 190.19128 L62.01172 192.29462 L62.50000 194.11479 L62.98828 194.91731 L63.47656 192.86664 L63.96484 194.83627 L64.45313 195.11256 L64.94141 194.51788 L65.42969 195.92122 L65.91797 196.34027 L66.40625 196.80881 L66.89453 196.96056 L67.38281 196.23691 L67.87109 196.99170 L68.35938 196.99023 L68.84766 196.76794 L69.33594 197.28833 L69.82422 197.47630 L70.31250 197.71161 L70.80078 197.75162 L71.28906 197.36391 L71.77734 197.77989 L72.26563 197.75533 L72.75391 197.65050 L73.24219 197.91766 L73.73047 198.02695 L74.21875 198.17734 L74.70703 198.18210 L75.19531 197.93463 L75.68359 198.20381 L76.17188 198.18069 L76.66016 198.12564 L77.14844 198.28632 L77.63672 198.35831 L78.12500 198.46689 L78.61328 198.45737 L79.10156 198.28349 L79.58984 198.47433 L80.07813 198.45554 L80.56641 198.42558 L81.05469 198.53146 L81.54297 198.58253 L82.03125 198.66684 L82.51953 198.65074 L83.00781 198.52092 L83.49609 198.66451 L83.98438 198.64966 L84.47266 198.63382 L84.96094 198.70781 L85.44922 198.74582 L85.93750 198.81451 L86.42578 198.79517 L86.91406 198.69409 L87.40234 198.80673 L87.89063 198.79504 L88.37891 198.78777 L88.86719 198.84155 L89.35547 198.87086 L89.84375 198.92879 L90.33203 198.90778 L90.82031 198.82663 L91.30859 198.91782 L91.79688 198.90858 L92.28516 198.90680 L92.77344 198.94693 L93.26172 198.97015 L93.75000 199.02026 L94.23828 198.99841 L94.72656 198.93170 L95.21484 199.00737 L95.70313 199.00003 L96.19141 199.00192 L96.67969 199.03239 L97.16797 199.05121 L97.65625 199.09543 L98.14453 199.07317 L98.63281 199.01732 L99.12109 199.08134 L99.60938 199.07549 L100.09766 199.07994 L100.58594 199.10330 L101.07422 199.11882 L101.56250 199.15849 L102.05078 199.13603 L102.53906 199.08855 L103.02734 199.14362 L103.51563 199.13896 L104.00391 199.14523 L104.49219 199.16319 L104.98047 199.17622 L105.46875 199.21230 L105.95703 199.18974 L106.44531 199.14886 L106.93359 199.19690 L107.42188 199.19321 L107.91016 199.20079 L108.39844 199.21454 L108.88672 199.22566 L109.37500 199.25882 L109.86328 199.23622 L110.35156 199.20067 L110.83984 199.24306 L111.32813 199.24014 L111.81641 199.24873 L112.30469 199.25911 L112.79297 199.26874 L113.28125 199.29955 L113.76953 199.27689 L114.25781 199.24567 L114.74609 199.28348 L115.23438 199.28123 L115.72266 199.29060 L116.21094 199.29820 L116.69922 199.30669 L117.18750 199.33554 L117.67578 199.31282 L118.16406 199.28517 L118.65234 199.31923 L119.14063 199.31754 L119.62891 199.32751 L120.11719 199.33281 L120.60547 199.34039 L121.09375 199.36765 L121.58203 199.34480 L122.07031 199.32016 L122.55859 199.35107 L123.04688 199.34987 L123.53516 199.36037 L124.02344 199.36368 L124.51172 199.37057 L125.00000 199.39651 L125.48828 199.37346 L125.97656 199.35136 L126.46484 199.37965 L126.95313 199.37889 L127.44141 199.38983 L127.92969 199.39142 L128.41797 199.39780 L128.90625 199.42264 L129.39453 199.39932 L129.88281 199.37938 L130.37109 199.40547 L130.85938 199.40511 L131.34766 199.41643 L131.83594 199.41649 L132.32422 199.42247 L132.81250 199.44644 L133.30078 199.42276 L133.78906 199.40469 L134.27734 199.42891 L134.76563 199.42891 L135.25391 199.44061 L135.74219 199.43927 L136.23047 199.44499 L136.71875 199.46826 L137.20703 199.44412 L137.69531 199.42766 L138.18359 199.45029 L138.67188 199.45064 L139.16016 199.46274 L139.64844 199.46008 L140.13672 199.46564 L140.62500 199.48839 L141.11328 199.46365 L141.60156 199.44859 L142.08984 199.46988 L142.57813 199.47058 L143.06641 199.48308 L143.55469 199.47917 L144.04297 199.48466 L144.53125 199.50703 L145.01953 199.48158 L145.50781 199.46774 L145.99609 199.48790 L146.48438 199.48897 L146.97266 199.50189 L147.46094 199.49675 L147.94922 199.50227 L148.43750 199.52444 L148.92578 199.49809 L149.41406 199.48532 L149.90234 199.50455 L150.39063 199.50597 L150.87891 199.51939 L151.36719 199.51302 L151.85547 199.51866 L152.34375 199.54079 L152.83203 199.51332 L153.32031 199.50151 L153.80859 199.51996 L154.29688 199.52177 L154.78516 199.53578 L155.27344 199.52809 L155.76172 199.53397 L156.25000 199.55623 L156.73828 199.52740 L157.22656 199.51642 L157.71484 199.53430 L158.20313 199.53653 L158.69141 199.55122 L159.17969 199.54214 L159.66797 199.54834 L160.15625 199.57097 L160.64453 199.54045 L161.13281 199.53018 L161.62109 199.54765 L162.10938 199.55037 L162.59766 199.56589 L163.08594 199.55527 L163.57422 199.56192 L164.06250 199.58517 L164.55078 199.55252 L165.03906 199.54288 L165.52734 199.56013 L166.01563 199.56340 L166.50391 199.57997 L166.99219 199.56757 L167.48047 199.57484 L167.96875 199.59904 L168.45703 199.56367 L168.94531 199.55457 L169.43359 199.57182 L169.92188 199.57578 L170.41016 199.59366 L170.89844 199.57916 L171.38672 199.58722 L171.87500 199.61285 L172.36328 199.57394 L172.85156 199.56528 L173.33984 199.58279 L173.82813 199.58760 L174.31641 199.60727 L174.80469 199.59010 L175.29297 199.59926 L175.78125 199.62697 L176.26953 199.58333 L176.75781 199.57495 L177.24609 199.59314 L177.73438 199.59908 L178.22266 199.62115 L178.71094 199.60054 L179.19922 199.61111 L179.68750 199.64203 L180.17578 199.59172 L180.66406 199.58350 L181.15234 199.60291 L181.64063 199.61041 L182.12891 199.63602 L182.61719 199.61060 L183.10547 199.62314 L183.59375 199.65910 L184.08203 199.59889 L184.57031 199.59052 L185.05859 199.61217 L185.54688 199.62209 L186.03516 199.65318 L186.52344 199.62045 L187.01172 199.63577 L187.50000 199.68062 L187.98828 199.60428 L188.47656 199.59508 L188.96484 199.62105 L189.45313 199.63509 L189.94141 199.67599 L190.42969 199.63063 L190.91797 199.64963 L191.40625 199.71303 L191.89453 199.60600 L192.38281 199.59383 L192.87109 199.62975 L193.35938 199.65268 L193.84766 199.71552 L194.33594 199.64267 L194.82422 199.66187 L195.31250 199.78122 L195.80078 199.59517 L196.28906 199.56628 L196.77734 199.63919 L197.26563 199.69612 L197.75391 199.83157 L198.24219 199.66974 L198.73047 199.40132 L199.21875 199.32123 L199.70703 199.06450 L200.19531 197.68759 L200.68359 199.61829 L201.17188 199.49283 L201.66016 199.31029 L202.14844 199.61601 L202.63672 199.44514 L203.12500 199.42041 L203.61328 199.69160 L204.10156 199.66617 L204.58984 199.64738 L205.07813 199.61539 L205.56641 199.55652 L206.05469 199.64340 L206.54297 199.58727 L207.03125 199.55875 L207.51953 199.67575 L208.00781 199.66635 L208.49609 199.65530 L208.98438 199.63683 L209.47266 199.60385 L209.96094 199.65401 L210.44922 199.62157 L210.93750 199.60202 L211.42578 199.67488 L211.91406 199.66856 L212.40234 199.66206 L212.89063 199.64894 L213.37891 199.62688 L213.86719 199.66194 L214.35547 199.63919 L214.84375 199.62535 L215.33203 199.67737 L215.82031 199.67223 L216.30859 199.66829 L216.79688 199.65807 L217.28516 199.64197 L217.77344 199.66878 L218.26172 199.65125 L218.75000 199.64110 L219.23828 199.68102 L219.72656 199.67650 L220.21484 199.67416 L220.70313 199.66573 L221.19141 199.65338 L221.67969 199.67499 L222.16797 199.66069 L222.65625 199.65309 L223.14453 199.68512 L223.63281 199.68100 L224.12109 199.67972 L224.60938 199.67253 L225.09766 199.66275 L225.58594 199.68076 L226.07422 199.66864 L226.56250 199.66289 L227.05078 199.68936 L227.53906 199.68556 L228.02734 199.68500 L228.51563 199.67871 L229.00391 199.67079 L229.49219 199.68617 L229.98047 199.67564 L230.46875 199.67125 L230.95703 199.69363 L231.44531 199.69008 L231.93359 199.69003 L232.42188 199.68445 L232.91016 199.67792 L233.39844 199.69128 L233.88672 199.68196 L234.37500 199.67863 L234.86328 199.69786 L235.35156 199.69452 L235.83984 199.69484 L236.32813 199.68980 L236.81641 199.68437 L237.30469 199.69612 L237.79297 199.68774 L238.28125 199.68526 L238.76953 199.70200 L239.25781 199.69884 L239.74609 199.69943 L240.23438 199.69484 L240.72266 199.69028 L241.21094 199.70074 L241.69922 199.69312 L242.18750 199.69130 L242.67578 199.70602 L243.16406 199.70303 L243.65234 199.70384 L244.14063 199.69962 L244.62891 199.69576 L245.11719 199.70514 L245.60547 199.69815 L246.09375 199.69687 L246.58203 199.70993 L247.07031 199.70709 L247.55859 199.70805 L248.04688 199.70413 L248.53516 199.70087 L249.02344 199.70935 L249.51172 199.70288 L250.00000 199.70204 L250.48828 199.71371 L250.97656 199.71100 L251.46484 199.71210 L251.95313 199.70845 L252.44141 199.70566 L252.92969 199.71336 L253.41797 199.70735 L253.90625 199.70689 L254.39453 199.71736 L254.88281 199.71478 L255.37109 199.71597 L255.85938 199.71255 L256.34766 199.71017 L256.83594 199.71722 L257.32422 199.71159 L257.81250 199.71144 L258.30078 199.72090 L258.78906 199.71844 L259.27734 199.71968 L259.76563 199.71648 L260.25391 199.71446 L260.74219 199.72090 L261.23047 199.71561 L261.71875 199.71573 L262.20703 199.72430 L262.69531 199.72195 L263.18359 199.72325 L263.67188 199.72023 L264.16016 199.71851 L264.64844 199.72444 L265.13672 199.71945 L265.62500 199.71979 L266.11328 199.72760 L266.60156 199.72536 L267.08984 199.72668 L267.57813 199.72382 L268.06641 199.72237 L268.55469 199.72784 L269.04297 199.72311 L269.53125 199.72365 L270.01953 199.73077 L270.50781 199.72862 L270.99609 199.72998 L271.48438 199.72725 L271.97266 199.72604 L272.46094 199.73109 L272.94922 199.72662 L273.43750 199.72731 L273.92578 199.73384 L274.41406 199.73178 L274.90234 199.73315 L275.39063 199.73056 L275.87891 199.72954 L276.36719 199.73424 L276.85547 199.72997 L277.34375 199.73080 L277.83203 199.73679 L278.32031 199.73482 L278.80859 199.73621 L279.29688 199.73372 L279.78516 199.73288 L280.27344 199.73724 L280.76172 199.73317 L281.25000 199.73413 L281.73828 199.73964 L282.22656 199.73775 L282.71484 199.73915 L283.20313 199.73676 L283.69141 199.73608 L284.17969 199.74014 L284.66797 199.73625 L285.15625 199.73732 L285.64453 199.74239 L286.13281 199.74057 L286.62109 199.74197 L287.10938 199.73969 L287.59766 199.73915 L288.08594 199.74292 L288.57422 199.73920 L289.06250 199.74036 L289.55078 199.74503 L290.03906 199.74330 L290.52734 199.74469 L291.01563 199.74249 L291.50391 199.74208 L291.99219 199.74561 L292.48047 199.74203 L292.96875 199.74327 L293.45703 199.74759 L293.94531 199.74593 L294.43359 199.74731 L294.92188 199.74519 L295.41016 199.74489 L295.89844 199.74818 L296.38672 199.74477 L296.87500 199.74606 L297.36328 199.75005 L297.85156 199.74846 L298.33984 199.74983 L298.82813 199.74779 L299.31641 199.74759 L299.80469 199.75067 L300.29297 199.74738 L300.78125 199.74873 L301.26953 199.75243 L301.75781 199.75090 L302.24609 199.75226 L302.73438 199.75029 L303.22266 199.75018 L303.71094 199.75305 L304.19922 199.74989 L304.68750 199.75131 L305.17578 199.75471 L305.66406 199.75325 L306.15234 199.75461 L306.64063 199.75270 L307.12891 199.75267 L307.61719 199.75537 L308.10547 199.75232 L308.59375 199.75377 L309.08203 199.75693 L309.57031 199.75552 L310.05859 199.75685 L310.54688 199.75502 L311.03516 199.75507 L311.52344 199.75758 L312.01172 199.75464 L312.50000 199.75615 L312.98828 199.75905 L313.47656 199.75771 L313.96484 199.75903 L314.45313 199.75725 L314.94141 199.75735 L315.42969 199.75972 L315.91797 199.75688 L316.40625 199.75841 L316.89453 199.76111 L317.38281 199.75983 L317.87109 199.76112 L318.35938 199.75938 L318.84766 199.75957 L319.33594 199.76178 L319.82422 199.75903 L320.31250 199.76060 L320.80078 199.76309 L321.28906 199.76186 L321.77734 199.76314 L322.26563 199.76146 L322.75391 199.76169 L323.24219 199.76376 L323.73047 199.76111 L324.21875 199.76270 L324.70703 199.76500 L325.19531 199.76382 L325.68359 199.76509 L326.17188 199.76346 L326.66016 199.76373 L327.14844 199.76567 L327.63672 199.76312 L328.12500 199.76472 L328.61328 199.76685 L329.10156 199.76572 L329.58984 199.76697 L330.07813 199.76537 L330.56641 199.76570 L331.05469 199.76750 L331.54297 199.76505 L332.03125 199.76666 L332.51953 199.76862 L333.00781 199.76755 L333.49609 199.76877 L333.98438 199.76721 L334.47266 199.76759 L334.96094 199.76927 L335.44922 199.76689 L335.93750 199.76852 L336.42578 199.77032 L336.91406 199.76930 L337.40234 199.77051 L337.89063 199.76900 L338.37891 199.76941 L338.86719 199.77098 L339.35547 199.76868 L339.84375 199.77032 L340.33203 199.77197 L340.82031 199.77100 L341.30859 199.77219 L341.79688 199.77071 L342.28516 199.77115 L342.77344 199.77263 L343.26172 199.77040 L343.75000 199.77205 L344.23828 199.77356 L344.72656 199.77263 L345.21484 199.77379 L345.70313 199.77237 L346.19141 199.77283 L346.67969 199.77422 L347.16797 199.77205 L347.65625 199.77371 L348.14453 199.77509 L348.63281 199.77420 L349.12109 199.77534 L349.60938 199.77394 L350.09766 199.77444 L350.58594 199.77574 L351.07422 199.77364 L351.56250 199.77531 L352.05078 199.77657 L352.53906 199.77571 L353.02734 199.77684 L353.51563 199.77548 L354.00391 199.77600 L354.49219 199.77721 L354.98047 199.77518 L355.46875 199.77684 L355.95703 199.77798 L356.44531 199.77718 L356.93359 199.77829 L357.42188 199.77695 L357.91016 199.77750 L358.39844 199.77861 L358.88672 199.77666 L359.37500 199.77832 L359.86328 199.77934 L360.35156 199.77858 L360.83984 199.77968 L361.32813 199.77835 L361.81641 199.77893 L362.30469 199.77997 L362.79297 199.77806 L363.28125 199.77972 L363.76953 199.78065 L364.25781 199.77992 L364.74609 199.78101 L365.23438 199.77972 L365.72266 199.78032 L366.21094 199.78127 L366.69922 199.77943 L367.18750 199.78110 L367.67578 199.78191 L368.16406 199.78122 L368.65234 199.78229 L369.14063 199.78102 L369.62891 199.78165 L370.11719 199.78252 L370.60547 199.78075 L371.09375 199.78239 L371.58203 199.78313 L372.07031 199.78247 L372.55859 199.78352 L373.04688 199.78227 L373.53516 199.78291 L374.02344 199.78372 L374.51172 199.78200 L375.00000 199.78365 L375.48828 199.78429 L375.97656 199.78368 L376.46484 199.78470 L376.95313 199.78348 L377.44141 199.78413 L377.92969 199.78488 L378.41797 199.78320 L378.90625 199.78485 L379.39453 199.78540 L379.88281 199.78482 L380.37109 199.78583 L380.85938 199.78464 L381.34766 199.78531 L381.83594 199.78598 L382.32422 199.78436 L382.81250 199.78600 L383.30078 199.78647 L383.78906 199.78592 L384.27734 199.78691 L384.76563 199.78575 L385.25391 199.78642 L385.74219 199.78705 L386.23047 199.78548 L386.71875 199.78711 L387.20703 199.78749 L387.69531 199.78699 L388.18359 199.78796 L388.67188 199.78680 L389.16016 199.78749 L389.64844 199.78806 L390.13672 199.78654 L390.62500 199.78816 L391.11328 199.78848 L391.60156 199.78799 L392.08984 199.78896 L392.57813 199.78783 L393.06641 199.78853 L393.55469 199.78903 L394.04297 199.78757 L394.53125 199.78917 L395.01953 199.78941 L395.50781 199.78897 L395.99609 199.78990 L396.48438 199.78879 L396.97266 199.78951 L397.46094 199.78996 L397.94922 199.78854 L398.43750 199.79013 L398.92578 199.79030 L399.41406 199.78990 L399.90234 199.79082 L400.39063 199.78972 L400.87891 199.79045 L401.36719 199.79085 L401.85547 199.78947 L402.34375 199.79106 L402.83203 199.79115 L403.32031 199.79079 L403.80859 199.79169 L404.29688 199.79060 L404.78516 199.79134 L405.27344 199.79169 L405.76172 199.79037 L406.25000 199.79193 L406.73828 199.79198 L407.22656 199.79163 L407.71484 199.79251 L408.20313 199.79146 L408.69141 199.79219 L409.17969 199.79250 L409.66797 199.79123 L410.15625 199.79277 L410.64453 199.79274 L411.13281 199.79243 L411.62109 199.79330 L412.10938 199.79225 L412.59766 199.79300 L413.08594 199.79326 L413.57422 199.79202 L414.06250 199.79356 L414.55078 199.79347 L415.03906 199.79320 L415.52734 199.79405 L416.01563 199.79301 L416.50391 199.79378 L416.99219 199.79399 L417.48047 199.79280 L417.96875 199.79431 L418.45703 199.79417 L418.94531 199.79393 L419.43359 199.79477 L419.92188 199.79373 L420.41016 199.79451 L420.89844 199.79468 L421.38672 199.79353 L421.87500 199.79503 L422.36328 199.79483 L422.85156 199.79462 L423.33984 199.79544 L423.82813 199.79442 L424.31641 199.79520 L424.80469 199.79533 L425.29297 199.79422 L425.78125 199.79570 L426.26953 199.79546 L426.75781 199.79527 L427.24609 199.79608 L427.73438 199.79506 L428.22266 199.79585 L428.71094 199.79594 L429.19922 199.79489 L429.68750 199.79634 L430.17578 199.79604 L430.66406 199.79590 L431.15234 199.79668 L431.64063 199.79568 L432.12891 199.79646 L432.61719 199.79652 L433.10547 199.79550 L433.59375 199.79694 L434.08203 199.79659 L434.57031 199.79648 L435.05859 199.79724 L435.54688 199.79625 L436.03516 199.79704 L436.52344 199.79706 L437.01172 199.79608 L437.50000 199.79750 L437.98828 199.79710 L438.47656 199.79701 L438.96484 199.79776 L439.45313 199.79680 L439.94141 199.79758 L440.42969 199.79756 L440.91797 199.79662 L441.40625 199.79802 L441.89453 199.79758 L442.38281 199.79752 L442.87109 199.79825 L443.35938 199.79729 L443.84766 199.79808 L444.33594 199.79803 L444.82422 199.79713 L445.31250 199.79851 L445.80078 199.79802 L446.28906 199.79800 L446.77734 199.79871 L447.26563 199.79774 L447.75391 199.79855 L448.24219 199.79848 L448.73047 199.79761 L449.21875 199.79897 L449.70703 199.79843 L450.19531 199.79843 L450.68359 199.79913 L451.17188 199.79819 L451.66016 199.79900 L452.14844 199.79889 L452.63672 199.79805 L453.12500 199.79939 L453.61328 199.79880 L454.10156 199.79884 L454.58984 199.79951 L455.07813 199.79858 L455.56641 199.79939 L456.05469 199.79926 L456.54297 199.79846 L457.03125 199.79977 L457.51953 199.79913 L458.00781 199.79921 L458.49609 199.79988 L458.98438 199.79895 L459.47266 199.79976 L459.96094 199.79958 L460.44922 199.79883 L460.93750 199.80013 L461.42578 199.79945 L461.91406 199.79956 L462.40234 199.80020 L462.89063 199.79927 L463.37891 199.80009 L463.86719 199.79990 L464.35547 199.79916 L464.84375 199.80043 L465.33203 199.79973 L465.82031 199.79987 L466.30859 199.80048 L466.79688 199.79956 L467.28516 199.80038 L467.77344 199.80017 L468.26172 199.79947 L468.75000 199.80072 L469.23828 199.79997 L469.72656 199.80014 L470.21484 199.80074 L470.70313 199.79984 L471.19141 199.80066 L471.67969 199.80040 L472.16797 199.79974 L472.65625 199.80096 L473.14453 199.80019 L473.63281 199.80038 L474.12109 199.80095 L474.60938 199.80005 L475.09766 199.80089 L475.58594 199.80060 L476.07422 199.79999 L476.56250 199.80118 L477.05078 199.80035 L477.53906 199.80058 L478.02734 199.80115 L478.51563 199.80025 L479.00391 199.80109 L479.49219 199.80078 L479.98047 199.80020 L480.46875 199.80136 L480.95703 199.80051 L481.44531 199.80077 L481.93359 199.80130 L482.42188 199.80042 L482.91016 199.80125 L483.39844 199.80092 L483.88672 199.80037 L484.37500 199.80151 L484.86328 199.80061 L485.35156 199.80090 L485.83984 199.80142 L486.32813 199.80055 L486.81641 199.80139 L487.30469 199.80103 L487.79297 199.80051 L488.28125 199.80162 L488.76953 199.80070 L489.25781 199.80101 L489.74609 199.80151 L490.23438 199.80064 L490.72266 199.80150 L491.21094 199.80110 L491.69922 199.80063 L492.18750 199.80170 L492.67578 199.80075 L493.16406 199.80110 L493.65234 199.80157 L494.14063 199.80070 L494.62891 199.80156 L495.11719 199.80115 L495.60547 199.80070 L496.09375 199.80176 L496.58203 199.80077 L497.07031 199.80115 L497.55859 199.80161 L498.04688 199.80074 L498.53516 199.80161 L499.02344 199.80116 L499.51172 199.80075 L500.00000 199.80177 L500.48828 199.80075 L500.97656 199.80116 L501.46484 199.80161 L501.95313 199.80074 L502.44141 199.80161 L502.92969 199.80115 L503.41797 199.80077 L503.90625 199.80176 L504.39453 199.80070 L504.88281 199.80115 L505.37109 199.80156 L505.85938 199.80070 L506.34766 199.80157 L506.83594 199.80110 L507.32422 199.80075 L507.81250 199.80170 L508.30078 199.80063 L508.78906 199.80110 L509.27734 199.80150 L509.76563 199.80064 L510.25391 199.80151 L510.74219 199.80101 L511.23047 199.80069 L511.71875 199.80162 L512.20703 199.80051 L512.69531 199.80103 L513.18359 199.80139 L513.67188 199.80055 L514.16016 199.80142 L514.64844 199.80090 L515.13672 199.80061 L515.62500 199.80151 L516.11328 199.80037 L516.60156 199.80092 L517.08984 199.80125 L517.57813 199.80042 L518.06641 199.80130 L518.55469 199.80077 L519.04297 199.80051 L519.53125 199.80136 L520.01953 199.80020 L520.50781 199.80078 L520.99609 199.80109 L521.48438 199.80025 L521.97266 199.80115 L522.46094 199.80058 L522.94922 199.80035 L523.43750 199.80118 L523.92578 199.79999 L524.41406 199.80060 L524.90234 199.80089 L525.39063 199.80005 L525.87891 199.80095 L526.36719 199.80038 L526.85547 199.80019 L527.34375 199.80096 L527.83203 199.79974 L528.32031 199.80040 L528.80859 199.80066 L529.29688 199.79984 L529.78516 199.80074 L530.27344 199.80014 L530.76172 199.79997 L531.25000 199.80072 L531.73828 199.79947 L532.22656 199.80016 L532.71484 199.80038 L533.20313 199.79956 L533.69141 199.80048 L534.17969 199.79987 L534.66797 199.79973 L535.15625 199.80043 L535.64453 199.79916 L536.13281 199.79990 L536.62109 199.80009 L537.10938 199.79927 L537.59766 199.80019 L538.08594 199.79956 L538.57422 199.79945 L539.06250 199.80013 L539.55078 199.79883 L540.03906 199.79958 L540.52734 199.79976 L541.01563 199.79895 L541.50391 199.79988 L541.99219 199.79921 L542.48047 199.79913 L542.96875 199.79977 L543.45703 199.79846 L543.94531 199.79926 L544.43359 199.79939 L544.92188 199.79858 L545.41016 199.79951 L545.89844 199.79884 L546.38672 199.79880 L546.87500 199.79939 L547.36328 199.79805 L547.85156 199.79887 L548.33984 199.79900 L548.82813 199.79819 L549.31641 199.79913 L549.80469 199.79843 L550.29297 199.79843 L550.78125 199.79897 L551.26953 199.79761 L551.75781 199.79848 L552.24609 199.79855 L552.73438 199.79776 L553.22266 199.79871 L553.71094 199.79800 L554.19922 199.79802 L554.68750 199.79852 L555.17578 199.79713 L555.66406 199.79803 L556.15234 199.79808 L556.64063 199.79729 L557.12891 199.79825 L557.61719 199.79752 L558.10547 199.79758 L558.59375 199.79803 L559.08203 199.79662 L559.57031 199.79756 L560.05859 199.79758 L560.54688 199.79680 L561.03516 199.79776 L561.52344 199.79701 L562.01172 199.79710 L562.50000 199.79750 L562.98828 199.79608 L563.47656 199.79706 L563.96484 199.79704 L564.45313 199.79625 L564.94141 199.79724 L565.42969 199.79648 L565.91797 199.79659 L566.40625 199.79694 L566.89453 199.79550 L567.38281 199.79652 L567.87109 199.79646 L568.35938 199.79568 L568.84766 199.79668 L569.33594 199.79590 L569.82422 199.79604 L570.31250 199.79634 L570.80078 199.79488 L571.28906 199.79594 L571.77734 199.79585 L572.26563 199.79506 L572.75391 199.79607 L573.24219 199.79527 L573.73047 199.79546 L574.21875 199.79570 L574.70703 199.79422 L575.19531 199.79533 L575.68359 199.79520 L576.17188 199.79442 L576.66016 199.79544 L577.14844 199.79462 L577.63672 199.79483 L578.12500 199.79503 L578.61328 199.79353 L579.10156 199.79468 L579.58984 199.79451 L580.07813 199.79373 L580.56641 199.79477 L581.05469 199.79393 L581.54297 199.79417 L582.03125 199.79431 L582.51953 199.79280 L583.00781 199.79399 L583.49609 199.79378 L583.98438 199.79301 L584.47266 199.79405 L584.96094 199.79320 L585.44922 199.79347 L585.93750 199.79356 L586.42578 199.79202 L586.91406 199.79326 L587.40234 199.79300 L587.89063 199.79225 L588.37891 199.79330 L588.86719 199.79243 L589.35547 199.79274 L589.84375 199.79277 L590.33203 199.79123 L590.82031 199.79250 L591.30859 199.79219 L591.79688 199.79144 L592.28516 199.79251 L592.77344 199.79163 L593.26172 199.79198 L593.75000 199.79193 L594.23828 199.79037 L594.72656 199.79169 L595.21484 199.79134 L595.70313 199.79060 L596.19141 199.79169 L596.67969 199.79079 L597.16797 199.79115 L597.65625 199.79106 L598.14453 199.78947 L598.63281 199.79085 L599.12109 199.79045 L599.60938 199.78972 L600.09766 199.79082 L600.58594 199.78990 L601.07422 199.79030 L601.56250 199.79013 L602.05078 199.78854 L602.53906 199.78996 L603.02734 199.78951 L603.51563 199.78879 L604.00391 199.78990 L604.49219 199.78897 L604.98047 199.78941 L605.46875 199.78917 L605.95703 199.78757 L606.44531 199.78903 L606.93359 199.78853 L607.42188 199.78783 L607.91016 199.78896 L608.39844 199.78799 L608.88672 199.78848 L609.37500 199.78816 L609.86328 199.78654 L610.35156 199.78806 L610.83984 199.78749 L611.32813 199.78680 L611.81641 199.78796 L612.30469 199.78699 L612.79297 199.78749 L613.28125 199.78711 L613.76953 199.78548 L614.25781 199.78705 L614.74609 199.78642 L615.23438 199.78575 L615.72266 199.78691 L616.21094 199.78592 L616.69922 199.78647 L617.18750 199.78600 L617.67578 199.78436 L618.16406 199.78598 L618.65234 199.78531 L619.14063 199.78464 L619.62891 199.78583 L620.11719 199.78482 L620.60547 199.78540 L621.09375 199.78485 L621.58203 199.78320 L622.07031 199.78488 L622.55859 199.78413 L623.04688 199.78348 L623.53516 199.78470 L624.02344 199.78368 L624.51172 199.78429 L625.00000 199.78365 L625.48828 199.78200 L625.97656 199.78372 L626.46484 199.78291 L626.95313 199.78227 L627.44141 199.78352 L627.92969 199.78247 L628.41797 199.78313 L628.90625 199.78239 L629.39453 199.78075 L629.88281 199.78252 L630.37109 199.78165 L630.85938 199.78102 L631.34766 199.78229 L631.83594 199.78122 L632.32422 199.78192 L632.81250 199.78110 L633.30078 199.77943 L633.78906 199.78127 L634.27734 199.78032 L634.76563 199.77972 L635.25391 199.78101 L635.74219 199.77992 L636.23047 199.78065 L636.71875 199.77972 L637.20703 199.77806 L637.69531 199.77997 L638.18359 199.77893 L638.67188 199.77835 L639.16016 199.77968 L639.64844 199.77858 L640.13672 199.77934 L640.62500 199.77832 L641.11328 199.77666 L641.60156 199.77861 L642.08984 199.77750 L642.57813 199.77695 L643.06641 199.77829 L643.55469 199.77718 L644.04297 199.77798 L644.53125 199.77684 L645.01953 199.77518 L645.50781 199.77721 L645.99609 199.77600 L646.48438 199.77548 L646.97266 199.77684 L647.46094 199.77571 L647.94922 199.77657 L648.43750 199.77531 L648.92578 199.77364 L649.41406 199.77574 L649.90234 199.77444 L650.39063 199.77394 L650.87891 199.77534 L651.36719 199.77420 L651.85547 199.77509 L652.34375 199.77371 L652.83203 199.77205 L653.32031 199.77422 L653.80859 199.77283 L654.29688 199.77237 L654.78516 199.77379 L655.27344 199.77263 L655.76172 199.77356 L656.25000 199.77205 L656.73828 199.77040 L657.22656 199.77263 L657.71484 199.77115 L658.20313 199.77071 L658.69141 199.77219 L659.17969 199.77100 L659.66797 199.77197 L660.15625 199.77032 L660.64453 199.76868 L661.13281 199.77098 L661.62109 199.76941 L662.10938 199.76900 L662.59766 199.77051 L663.08594 199.76930 L663.57422 199.77032 L664.06250 199.76852 L664.55078 199.76689 L665.03906 199.76927 L665.52734 199.76759 L666.01563 199.76721 L666.50391 199.76877 L666.99219 199.76755 L667.48047 199.76862 L667.96875 199.76666 L668.45703 199.76505 L668.94531 199.76750 L669.43359 199.76570 L669.92188 199.76537 L670.41016 199.76697 L670.89844 199.76572 L671.38672 199.76685 L671.87500 199.76472 L672.36328 199.76312 L672.85156 199.76567 L673.33984 199.76373 L673.82813 199.76346 L674.31641 199.76509 L674.80469 199.76382 L675.29297 199.76500 L675.78125 199.76270 L676.26953 199.76111 L676.75781 199.76376 L677.24609 199.76169 L677.73438 199.76146 L678.22266 199.76314 L678.71094 199.76186 L679.19922 199.76309 L679.68750 199.76060 L680.17578 199.75903 L680.66406 199.76178 L681.15234 199.75957 L681.64063 199.75938 L682.12891 199.76112 L682.61719 199.75983 L683.10547 199.76111 L683.59375 199.75842 L684.08203 199.75688 L684.57031 199.75972 L685.05859 199.75735 L685.54688 199.75725 L686.03516 199.75903 L686.52344 199.75771 L687.01172 199.75905 L687.50000 199.75615 L687.98828 199.75464 L688.47656 199.75758 L688.96484 199.75507 L689.45313 199.75502 L689.94141 199.75685 L690.42969 199.75552 L690.91797 199.75693 L691.40625 199.75377 L691.89453 199.75232 L692.38281 199.75536 L692.87109 199.75267 L693.35938 199.75270 L693.84766 199.75459 L694.33594 199.75325 L694.82422 199.75471 L695.31250 199.75131 L695.80078 199.74989 L696.28906 199.75307 L696.77734 199.75018 L697.26563 199.75029 L697.75391 199.75226 L698.24219 199.75090 L698.73047 199.75243 L699.21875 199.74873 L699.70703 199.74738 L700.19531 199.75067 L700.68359 199.74760 L701.17188 199.74779 L701.66016 199.74983 L702.14844 199.74846 L702.63672 199.75005 L703.12500 199.74606 L703.61328 199.74477 L704.10156 199.74818 L704.58984 199.74489 L705.07813 199.74519 L705.56641 199.74730 L706.05469 199.74593 L706.54297 199.74759 L707.03125 199.74327 L707.51953 199.74203 L708.00781 199.74561 L708.49609 199.74208 L708.98438 199.74249 L709.47266 199.74469 L709.96094 199.74330 L710.44922 199.74503 L710.93750 199.74036 L711.42578 199.73920 L711.91406 199.74292 L712.40234 199.73915 L712.89063 199.73969 L713.37891 199.74197 L713.86719 199.74057 L714.35547 199.74239 L714.84375 199.73732 L715.33203 199.73625 L715.82031 199.74014 L716.30859 199.73608 L716.79688 199.73676 L717.28516 199.73914 L717.77344 199.73775 L718.26172 199.73964 L718.75000 199.73413 L719.23828 199.73317 L719.72656 199.73724 L720.21484 199.73288 L720.70313 199.73372 L721.19141 199.73621 L721.67969 199.73482 L722.16797 199.73679 L722.65625 199.73080 L723.14453 199.72997 L723.63281 199.73424 L724.12109 199.72954 L724.60938 199.73056 L725.09766 199.73315 L725.58594 199.73178 L726.07422 199.73384 L726.56250 199.72731 L727.05078 199.72662 L727.53906 199.73109 L728.02734 199.72604 L728.51563 199.72725 L729.00391 199.72998 L729.49219 199.72862 L729.98047 199.73077 L730.46875 199.72365 L730.95703 199.72311 L731.44531 199.72784 L731.93359 199.72237 L732.42188 199.72382 L732.91016 199.72668 L733.39844 199.72536 L733.88672 199.72760 L734.37500 199.71979 L734.86328 199.71945 L735.35156 199.72444 L735.83984 199.71851 L736.32813 199.72023 L736.81641 199.72327 L737.30469 199.72195 L737.79297 199.72430 L738.28125 199.71573 L738.76953 199.71561 L739.25781 199.72090 L739.74609 199.71446 L740.23438 199.71648 L740.72266 199.71970 L741.21094 199.71844 L741.69922 199.72090 L742.18750 199.71144 L742.67578 199.71159 L743.16406 199.71722 L743.65234 199.71017 L744.14063 199.71255 L744.62891 199.71597 L745.11719 199.71478 L745.60547 199.71736 L746.09375 199.70689 L746.58203 199.70735 L747.07031 199.71336 L747.55859 199.70566 L748.04688 199.70845 L748.53516 199.71210 L749.02344 199.71100 L749.51172 199.71371 L750.00000 199.70204 L750.48828 199.70288 L750.97656 199.70935 L751.46484 199.70087 L751.95313 199.70413 L752.44141 199.70805 L752.92969 199.70709 L753.41797 199.70993 L753.90625 199.69687 L754.39453 199.69815 L754.88281 199.70514 L755.37109 199.69576 L755.85938 199.69962 L756.34766 199.70384 L756.83594 199.70303 L757.32422 199.70602 L757.81250 199.69130 L758.30078 199.69312 L758.78906 199.70074 L759.27734 199.69028 L759.76563 199.69484 L760.25391 199.69943 L760.74219 199.69884 L761.23047 199.70200 L761.71875 199.68526 L762.20703 199.68774 L762.69531 199.69612 L763.18359 199.68437 L763.67188 199.68980 L764.16016 199.69484 L764.64844 199.69452 L765.13672 199.69786 L765.62500 199.67863 L766.11328 199.68196 L766.60156 199.69128 L767.08984 199.67792 L767.57813 199.68445 L768.06641 199.69003 L768.55469 199.69008 L769.04297 199.69365 L769.53125 199.67125 L770.01953 199.67564 L770.50781 199.68617 L770.99609 199.67079 L771.48438 199.67871 L771.97266 199.68500 L772.46094 199.68556 L772.94922 199.68936 L773.43750 199.66289 L773.92578 199.66864 L774.41406 199.68076 L774.90234 199.66275 L775.39063 199.67253 L775.87891 199.67970 L776.36719 199.68100 L776.85547 199.68512 L777.34375 199.65309 L777.83203 199.66069 L778.32031 199.67499 L778.80859 199.65338 L779.29688 199.66573 L779.78516 199.67416 L780.27344 199.67650 L780.76172 199.68102 L781.25000 199.64110 L781.73828 199.65125 L782.22656 199.66878 L782.71484 199.64197 L783.20313 199.65807 L783.69141 199.66829 L784.17969 199.67223 L784.66797 199.67737 L785.15625 199.62535 L785.64453 199.63919 L786.13281 199.66194 L786.62109 199.62688 L787.10938 199.64894 L787.59766 199.66206 L788.08594 199.66856 L788.57422 199.67488 L789.06250 199.60202 L789.55078 199.62157 L790.03906 199.65401 L790.52734 199.60385 L791.01563 199.63683 L791.50391 199.65530 L791.99219 199.66635 L792.48047 199.67575 L792.96875 199.55875 L793.45703 199.58727 L793.94531 199.64340 L794.43359 199.55652 L794.92188 199.61539 L795.41016 199.64738 L795.89844 199.66617 L796.38672 199.69160 L796.87500 199.42041 L797.36328 199.44514 L797.85156 199.61601 L798.33984 199.31029 L798.82813 199.49283 L799.31641 199.61829 L799.80469 197.68759 L800.29297 199.06450 L800.78125 199.32123 L801.26953 199.40132 L801.75781 199.66974 L802.24609 199.83157 L802.73438 199.69612 L803.22266 199.63919 L803.71094 199.56628 L804.19922 199.59517 L804.68750 199.78122 L805.17578 199.66187 L805.66406 199.64267 L806.15234 199.71552 L806.64063 199.65268 L807.12891 199.62975 L807.61719 199.59383 L808.10547 199.60600 L808.59375 199.71303 L809.08203 199.64963 L809.57031 199.63063 L810.05859 199.67599 L810.54688 199.63509 L811.03516 199.62105 L811.52344 199.59508 L812.01172 199.60428 L812.50000 199.68062 L812.98828 199.63577 L813.47656 199.62045 L813.96484 199.65320 L814.45313 199.62209 L814.94141 199.61217 L815.42969 199.59052 L815.91797 199.59889 L816.40625 199.65910 L816.89453 199.62314 L817.38281 199.61060 L817.87109 199.63602 L818.35938 199.61041 L818.84766 199.60291 L819.33594 199.58348 L819.82422 199.59171 L820.31250 199.64203 L820.80078 199.61111 L821.28906 199.60054 L821.77734 199.62115 L822.26563 199.59908 L822.75391 199.59314 L823.24219 199.57495 L823.73047 199.58333 L824.21875 199.62698 L824.70703 199.59926 L825.19531 199.59010 L825.68359 199.60727 L826.17188 199.58760 L826.66016 199.58281 L827.14844 199.56528 L827.63672 199.57394 L828.12500 199.61285 L828.61328 199.58722 L829.10156 199.57916 L829.58984 199.59366 L830.07813 199.57578 L830.56641 199.57182 L831.05469 199.55457 L831.54297 199.56367 L832.03125 199.59904 L832.51953 199.57484 L833.00781 199.56757 L833.49609 199.57997 L833.98438 199.56340 L834.47266 199.56013 L834.96094 199.54288 L835.44922 199.55252 L835.93750 199.58517 L836.42578 199.56192 L836.91406 199.55527 L837.40234 199.56589 L837.89063 199.55037 L838.37891 199.54765 L838.86719 199.53018 L839.35547 199.54045 L839.84375 199.57097 L840.33203 199.54834 L840.82031 199.54214 L841.30859 199.55121 L841.79688 199.53653 L842.28516 199.53430 L842.77344 199.51642 L843.26172 199.52740 L843.75000 199.55623 L844.23828 199.53397 L844.72656 199.52809 L845.21484 199.53578 L845.70313 199.52177 L846.19141 199.51997 L846.67969 199.50151 L847.16797 199.51332 L847.65625 199.54079 L848.14453 199.51866 L848.63281 199.51302 L849.12109 199.51939 L849.60938 199.50597 L850.09766 199.50455 L850.58594 199.48532 L851.07422 199.49809 L851.56250 199.52444 L852.05078 199.50227 L852.53906 199.49675 L853.02734 199.50189 L853.51563 199.48897 L854.00391 199.48790 L854.49219 199.46774 L854.98047 199.48158 L855.46875 199.50703 L855.95703 199.48466 L856.44531 199.47917 L856.93359 199.48308 L857.42188 199.47058 L857.91016 199.46988 L858.39844 199.44859 L858.88672 199.46365 L859.37500 199.48839 L859.86328 199.46564 L860.35156 199.46008 L860.83984 199.46274 L861.32813 199.45064 L861.81641 199.45029 L862.30469 199.42766 L862.79297 199.44412 L863.28125 199.46826 L863.76953 199.44499 L864.25781 199.43927 L864.74609 199.44061 L865.23438 199.42891 L865.72266 199.42891 L866.21094 199.40469 L866.69922 199.42276 L867.18750 199.44644 L867.67578 199.42247 L868.16406 199.41649 L868.65234 199.41643 L869.14063 199.40511 L869.62891 199.40547 L870.11719 199.37939 L870.60547 199.39932 L871.09375 199.42264 L871.58203 199.39780 L872.07031 199.39142 L872.55859 199.38983 L873.04688 199.37889 L873.53516 199.37965 L874.02344 199.35136 L874.51172 199.37346 L875.00000 199.39651 L875.48828 199.37057 L875.97656 199.36368 L876.46484 199.36037 L876.95313 199.34987 L877.44141 199.35107 L877.92969 199.32016 L878.41797 199.34480 L878.90625 199.36766 L879.39453 199.34039 L879.88281 199.33281 L880.37109 199.32751 L880.85938 199.31754 L881.34766 199.31923 L881.83594 199.28517 L882.32422 199.31282 L882.81250 199.33554 L883.30078 199.30669 L883.78906 199.29820 L884.27734 199.29060 L884.76563 199.28123 L885.25391 199.28348 L885.74219 199.24567 L886.23047 199.27689 L886.71875 199.29955 L887.20703 199.26874 L887.69531 199.25911 L888.18359 199.24873 L888.67188 199.24014 L889.16016 199.24306 L889.64844 199.20067 L890.13672 199.23622 L890.62500 199.25882 L891.11328 199.22566 L891.60156 199.21454 L892.08984 199.20079 L892.57813 199.19321 L893.06641 199.19690 L893.55469 199.14886 L894.04297 199.18974 L894.53125 199.21230 L895.01953 199.17622 L895.50781 199.16319 L895.99609 199.14523 L896.48438 199.13896 L896.97266 199.14362 L897.46094 199.08855 L897.94922 199.13603 L898.43750 199.15849 L898.92578 199.11882 L899.41406 199.10330 L899.90234 199.07994 L900.39063 199.07549 L900.87891 199.08134 L901.36719 199.01732 L901.85547 199.07317 L902.34375 199.09543 L902.83203 199.05121 L903.32031 199.03239 L903.80859 199.00194 L904.29688 199.00003 L904.78516 199.00737 L905.27344 198.93170 L905.76172 198.99841 L906.25000 199.02026 L906.73828 198.97015 L907.22656 198.94693 L907.71484 198.90680 L908.20313 198.90858 L908.69141 198.91783 L909.17969 198.82663 L909.66797 198.90778 L910.15625 198.92879 L910.64453 198.87086 L911.13281 198.84155 L911.62109 198.78777 L912.10938 198.79504 L912.59766 198.80673 L913.08594 198.69409 L913.57422 198.79517 L914.06250 198.81451 L914.55078 198.74582 L915.03906 198.70781 L915.52734 198.63382 L916.01563 198.64966 L916.50391 198.66451 L916.99219 198.52092 L917.48047 198.65074 L917.96875 198.66684 L918.45703 198.58253 L918.94531 198.53146 L919.43359 198.42558 L919.92188 198.45554 L920.41016 198.47433 L920.89844 198.28349 L921.38672 198.45737 L921.87500 198.46689 L922.36328 198.35831 L922.85156 198.28632 L923.33984 198.12564 L923.82813 198.18069 L924.31641 198.20381 L924.80469 197.93463 L925.29297 198.18210 L925.78125 198.17734 L926.26953 198.02695 L926.75781 197.91766 L927.24609 197.65050 L927.73438 197.75533 L928.22266 197.77989 L928.71094 197.36391 L929.19922 197.75162 L929.68750 197.71161 L930.17578 197.47630 L930.66406 197.28833 L931.15234 196.76794 L931.64063 196.99023 L932.12891 196.99170 L932.61719 196.23691 L933.10547 196.96056 L933.59375 196.80881 L934.08203 196.34027 L934.57031 195.92123 L935.05859 194.51790 L935.54688 195.11256 L936.03516 194.83626 L936.52344 192.86664 L937.01172 194.91730 L937.50000 194.11479 L937.98828 192.29462 L938.47656 190.19128 L938.96484 179.35971 L939.45313 180.70590 L939.94141 161.15823 L940.42969 110.21325 L940.91797 161.00902 L941.40625 -0.00000 L941.89453 180.32773 L942.38281 188.80743 L942.87109 193.21298 L943.35938 190.10974 L943.84766 191.09669 L944.33594 196.93430 L944.82422 195.19139 L945.31250 196.26793 L945.80078 197.04417 L946.28906 197.30774 L946.77734 198.90515 L947.26563 197.63185 L947.75391 198.02103 L948.24219 198.50389 L948.73047 198.54581 L949.21875 198.78137 L949.70703 199.01740 L950.19531 199.05937 L950.68359 199.61021 L951.17188 199.21362 L951.66016 199.41925 L952.14844 199.50410 L952.63672 199.62764 L953.12500 199.83841 L953.61328 199.76707 L954.10156 199.66893 L954.58984 199.42734 L955.07813 199.63275 L955.56641 199.29243 L956.05469 199.49847 L956.54297 199.00952 L957.03125 199.28650 L957.51953 198.90193 L958.00781 198.70738 L958.49609 198.33449 L958.98438 198.48711 L959.47266 198.23842 L959.96094 198.30014 L960.44922 197.40381 L960.93750 198.14227 L961.42578 197.14677 L961.91406 196.44296 L962.40234 195.42424 L962.89063 195.48106 L963.37891 196.21155 L963.86719 194.19087 L964.35547 189.82379 L964.84375 195.00034 L965.33203 184.34906 L965.82031 171.03506 L966.30859 21.63057 L966.79688 153.12839 L967.28516 77.39659 L967.77344 159.21559 L968.26172 178.12782 L968.75000 181.71527 L969.23828 189.08563 L969.72656 192.97488 L970.21484 194.28004 L970.70313 194.59018 L971.19141 192.53616 L971.67969 194.49922 L972.16797 195.09592 L972.65625 195.02338 L973.14453 195.88579 L973.63281 196.47185 L974.12109 196.79225 L974.60938 196.92651 L975.09766 196.12025 L975.58594 196.85513 L976.07422 197.03604 L976.56250 197.01602 L977.05078 197.32275 L977.53906 197.52426 L978.02734 197.65791 L978.51563 197.76141 L979.00391 197.28433 L979.49219 197.69472 L979.98047 197.79727 L980.46875 197.79880 L980.95703 197.94887 L981.44531 198.02953 L981.93359 198.09045 L982.42188 198.18803 L982.91016 197.85342 L983.39844 198.12193 L983.88672 198.19978 L984.37500 198.20764 L984.86328 198.29182 L985.35156 198.31750 L985.83984 198.33818 L986.32813 198.43874 L986.81641 198.18156 L987.30469 198.37167 L987.79297 198.43872 L988.28125 198.44684 L988.76953 198.49672 L989.25781 198.49178 L989.74609 198.48438 L990.23438 198.59256 L990.72266 198.38358 L991.21094 198.52364 L991.69922 198.58392 L992.18750 198.58926 L992.67578 198.61864 L993.16406 198.59438 L993.65234 198.56363 L994.14063 198.68289 L994.62891 198.50684 L995.11719 198.61130 L995.60547 198.66541 L996.09375 198.66589 L996.58203 198.68178 L997.07031 198.64435 L997.55859 198.59135 L998.04688 198.72499 L998.53516 198.57297 L999.02344 198.64966 L999.51172 198.69656" /><path fill="none" stroke="#000000" d="M0 300.00000  L0.00000 300.00000  L0.48828 298.80994  L0.97656 299.59451  L1.46484 296.71359  L1.95313 298.02194  L2.44141 299.59305  L2.92969 296.85181  L3.41797 296.83871  L3.90625 295.79810  L4.39453 294.45709  L4.88281 296.12250  L5.37109 293.10034  L5.85938 294.09683  L6.34766 295.85983  L6.83594 293.28171  L7.32422 292.53781  L7.81250 291.66254  L8.30078 290.14514  L8.78906 292.80151  L9.27734 289.60001  L9.76563 290.25998  L10.25391 292.12463  L10.74219 289.75171  L11.23047 288.32352  L11.71875 287.64417  L12.20703 285.88940  L12.69531 289.70670  L13.18359 286.22964  L13.67188 286.55603  L14.16016 288.41040  L14.64844 286.30359  L15.13672 284.20093  L15.62500 283.76379  L16.11328 281.65378  L16.60156 286.92957  L17.08984 282.98221  L17.57813 283.01154  L18.06641 284.70447  L18.55469 282.95889  L19.04297 280.11386  L19.53125 279.99341  L20.01953 277.29834  L20.50781 284.62210  L20.99609 279.81067  L21.48438 279.63312  L21.97266 280.90973  L22.46094 279.70953  L22.94922 275.87292  L23.43750 276.21072  L23.92578 272.42230  L24.41406 283.14410  L24.90234 276.57690  L25.39063 276.41006  L25.87891 276.64859  L26.36719 276.48926  L26.85547 270.84991  L27.34375 272.01721  L27.83203 265.60706  L28.32031 283.78763  L28.80859 272.80228  L29.29688 273.35532  L29.78516 269.64774  L30.27344 272.95251  L30.76172 261.55093  L31.25000 265.40909  L31.73828 247.29410  L32.22656 295.70346  L32.71484 264.63293  L33.20313 334.21765  L33.69141 396.08502  L34.17969 374.20355  L34.66797 400.00000  L35.15625 209.70009  L35.64453 391.16345  L36.13281 348.47070  L36.62109 379.41986  L37.10938 367.10870  L37.59766 376.26089  L38.08594 368.66400  L38.57422 374.87604  L39.06250 375.42719  L39.55078 374.37869  L40.03906 356.84293  L40.52734 369.78534  L41.01563 361.97308  L41.50391 369.90750  L41.99219 362.44852  L42.48047 366.14523  L42.96875 368.63788  L43.45703 362.97992  L43.94531 347.83032  L44.43359 356.83572  L44.92188 341.86209  L45.41016 358.31909  L45.89844 332.72141  L46.38672 330.11932  L46.87500 279.34467  L47.36328 310.66415  L47.85156 278.03482  L48.33984 302.11227  L48.82813 271.79382  L49.31641 294.34140  L49.80469 276.51343  L50.29297 273.77460  L50.78125 265.98141  L51.26953 277.71539  L51.75781 266.93799  L52.24609 287.13315  L52.73438 260.81027  L53.22266 280.43207  L53.71094 267.90558  L54.19922 266.25769  L54.68750 261.52792  L55.17578 271.51080  L55.66406 262.25937  L56.15234 294.16037  L56.64063 244.03148  L57.12891 355.07574  L57.61719 253.48222  L58.10547 242.07571  L58.59375 231.90198  L59.08203 290.09070  L59.57031 365.05212  L60.05859 331.32977  L60.54688 386.18625  L61.03516 364.30396  L61.52344 369.29858  L62.01172 368.11597  L62.50000 366.70462  L62.98828 365.46182  L63.47656 362.48474  L63.96484 350.45477  L64.45313 371.48395  L64.94141 363.66791  L65.42969 365.51581  L65.91797 364.51733  L66.40625 363.08441  L66.89453 363.82446  L67.38281 360.86456  L67.87109 354.64465  L68.35938 366.73288  L68.84766 362.44305  L69.33594 363.35898  L69.82422 362.35455  L70.31250 361.05042  L70.80078 362.23193  L71.28906 359.49487  L71.77734 355.65771  L72.26563 363.92706  L72.75391 361.16254  L73.24219 361.66443  L73.73047 360.63464  L74.21875 359.46338  L74.70703 360.77493  L75.19531 358.26001  L75.68359 355.66949  L76.17188 361.85703  L76.66016 359.92023  L77.14844 360.20419  L77.63672 359.14603  L78.12500 358.09436  L78.61328 359.43750  L79.10156 357.11691  L79.58984 355.27670  L80.07813 360.16357  L80.56641 358.73572  L81.05469 358.89417  L81.54297 357.80713  L82.03125 356.86157  L82.51953 358.19879  L83.00781 356.04401  L83.49609 354.69830  L83.98438 358.69925  L84.47266 357.61029  L84.96094 357.69250  L85.44922 356.57687  L85.93750 355.72565  L86.42578 357.04239  L86.91406 355.02753  L87.40234 354.03009  L87.89063 357.39011  L88.37891 356.54071  L88.86719 356.57468  L89.35547 355.43073  L89.84375 354.66400  L90.33203 355.95557  L90.82031 354.05811  L91.30859 353.31937  L91.79688 356.19403  L92.28516 355.52185  L92.77344 355.52466  L93.26172 354.35211  L93.75000 353.66251  L94.23828 354.92719  L94.72656 353.12979  L95.21484 352.58917  L95.70313 355.08560  L96.19141 354.54962  L96.67969 354.53186  L97.16797 353.32916  L97.65625 352.71075  L98.14453 353.94958  L98.63281 352.23694  L99.12109 351.85394  L99.60938 354.04718  L100.09766 353.61859  L100.58594 353.58722  L101.07422 352.35358  L101.56250 351.80145  L102.05078 353.01636  L102.53906 351.37524  L103.02734 351.12155  L103.51563 353.06604  L104.00391 352.72516  L104.49219 352.68457  L104.98047 351.41803  L105.46875 350.92865  L105.95703 352.12173  L106.44531 350.54117  L106.93359 350.39563  L107.42188 352.13324  L107.91016 351.86578  L108.39844 351.81860  L108.88672 350.51721  L109.37500 350.08710  L109.86328 351.26175  L110.35156 349.73132  L110.83984 349.67926  L111.32813 351.24170  L111.81641 351.03809  L112.30469 350.98560  L112.79297 349.64590  L113.28125 349.27399  L113.76953 350.43176  L114.25781 348.94391  L114.74609 348.97333  L115.23438 350.38574  L115.72266 350.23828  L116.21094 350.18127  L116.69922 348.80093  L117.18750 348.48511  L117.67578 349.62933  L118.16406 348.17566  L118.65234 348.27856  L119.14063 349.56113  L119.62891 349.46481  L120.11719 349.40344  L120.60547 347.97797  L121.09375 347.71780  L121.58203 348.85135  L122.07031 347.42453  L122.55859 347.59491  L123.04688 348.76398  L123.53516 348.71539  L124.02344 348.64929  L124.51172 347.17410  L125.00000 346.96927  L125.48828 348.09521  L125.97656 346.68896  L126.46484 346.92206  L126.95313 347.99142  L127.44141 347.98810  L127.92969 347.91678  L128.41797 346.38635  L128.90625 346.23782  L129.39453 347.35895  L129.88281 345.96692  L130.37109 346.26019  L130.85938 347.24030  L131.34766 347.28192  L131.83594 347.20410  L132.32422 345.61218  L132.81250 345.52087  L133.30078 346.64069  L133.78906 345.25629  L134.27734 345.60834  L134.76563 346.50879  L135.25391 346.59543  L135.74219 346.50970  L136.23047 344.84839  L136.71875 344.81659  L137.20703 345.93869  L137.69531 344.55536  L138.18359 344.96609  L138.67188 345.79474  L139.16016 345.92828  L139.64844 345.83209  L140.13672 344.09271  L140.62500 344.12323  L141.11328 345.25146  L141.60156 343.86230  L142.08984 344.33261  L142.57813 345.09665  L143.06641 345.27863  L143.55469 345.17090  L144.04297 343.34100  L144.53125 343.43884  L145.01953 344.57733  L145.50781 343.17535  L145.99609 343.70770  L146.48438 344.41241  L146.97266 344.64673  L147.46094 344.52429  L147.94922 342.59079  L148.43750 342.76074  L148.92578 343.91516  L149.41406 342.49188  L149.90234 343.09058  L150.39063 343.74075  L150.87891 344.03275  L151.36719 343.89197  L151.85547 341.83759  L152.34375 342.08640  L152.83203 343.26395  L153.32031 341.80966  L153.80859 342.48083  L154.29688 343.08023  L154.78516 343.43768  L155.27344 343.27362  L155.76172 341.07629  L156.25000 341.41382  L156.73828 342.62192  L157.22656 341.12561  L157.71484 341.87717  L158.20313 342.42920  L158.69141 342.86102  L159.17969 342.66895  L159.66797 340.30072  L160.15625 340.73953  L160.64453 341.98795  L161.13281 340.43527  L161.62109 341.27869  L162.10938 341.78613  L162.59766 342.30560  L163.08594 342.07809  L163.57422 339.50140  L164.06250 340.05786  L164.55078 341.36053  L165.03906 339.73367  L165.52734 340.68494  L166.01563 341.14929  L166.50391 341.77509  L166.99219 341.50204  L167.48047 338.66541  L167.96875 339.36310  L168.45703 340.73761  L168.94531 339.01263  L169.43359 340.09357  L169.92188 340.51703  L170.41016 341.27490  L170.89844 340.94208  L171.38672 337.77380  L171.87500 338.64319  L172.36328 340.11829  L172.85156 338.25891  L173.33984 339.50470  L173.82813 339.88458  L174.31641 340.81534  L174.80469 340.40186  L175.29297 336.79230  L175.78125 337.88361  L176.26953 339.49640  L176.75781 337.45502  L177.24609 338.91284  L177.73438 339.24896  L178.22266 340.41336  L178.71094 339.88635  L179.19922 335.66565  L179.68750 337.05035  L180.17578 338.86841  L180.66406 336.56583  L181.15234 338.31445  L181.64063 338.60062  L182.12891 340.10492  L182.61719 339.40741  L183.10547 334.28290  L183.59375 336.07898  L184.08203 338.22336  L184.57031 335.52277  L185.05859 337.69882  L185.54688 337.92313  L186.03516 339.97156  L186.52344 338.99084  L187.01172 332.39404  L187.50000 334.81024  L187.98828 337.53833  L188.47656 334.17163  L188.96484 337.04227  L189.45313 337.17334  L189.94141 340.23944  L190.42969 338.70569  L190.91797 329.30295  L191.40625 332.71130  L191.89453 336.74930  L192.38281 332.06534  L192.87109 336.26797  L193.35938 336.20074  L193.84766 341.88269  L194.33594 338.81738  L194.82422 322.15976  L195.31250 326.35376  L195.80078 335.57877  L196.28906 327.18512  L196.77734 334.92755  L197.26563 333.82477  L197.75391 360.60712  L198.24219 342.17194  L198.73047 290.90851  L199.21875 254.43497  L199.70703 328.07440  L200.19531 393.20020  L200.68359 342.27460  L201.17188 340.09320  L201.66016 328.75912  L202.14844 332.32428  L202.63672 352.61835  L203.12500 340.67172  L203.61328 337.82379  L204.10156 345.64664  L204.58984 336.33609  L205.07813 336.77661  L205.56641 332.14450  L206.05469 334.15771  L206.54297 343.82281  L207.03125 337.83295  L207.51953 336.19156  L208.00781 339.88965  L208.49609 335.34982  L208.98438 335.75049  L209.47266 332.75757  L209.96094 334.16870  L210.44922 340.37476  L210.93750 336.38290  L211.42578 335.34210  L211.91406 337.62726  L212.40234 334.65729  L212.89063 335.01221  L213.37891 332.77295  L213.86719 333.87994  L214.35547 338.38141  L214.84375 335.36456  L215.33203 334.66248  L215.82031 336.24429  L216.30859 334.05072  L216.79688 334.36884  L217.28516 332.56433  L217.77344 333.48956  L218.26172 336.97821  L218.75000 334.53644  L219.23828 334.04922  L219.72656 335.21210  L220.21484 333.48157  L220.70313 333.77087  L221.19141 332.25024  L221.67969 333.05450  L222.16797 335.87216  L222.65625 333.81036  L223.14453 333.46991  L223.63281 334.35590  L224.12109 332.93311  L224.60938 333.19861  L225.09766 331.87894  L225.58594 332.59589  L226.07422 334.93683  L226.56250 333.14554  L227.05078 332.91144  L227.53906 333.60123  L228.02734 332.39816  L228.51563 332.64252  L229.00391 331.47247  L229.49219 332.12463  L229.98047 334.10986  L230.46875 332.52084  L230.95703 332.36664  L231.44531 332.91071  L231.93359 331.87299  L232.42188 332.09814  L232.91016 331.04431  L233.39844 331.64642  L233.88672 333.35474  L234.37500 331.92480  L234.86328 331.83148  L235.35156 332.26443  L235.83984 331.35406  L236.32813 331.56354  L236.81641 330.60187  L237.30469 331.16422  L237.79297 332.65131  L238.28125 331.34930  L238.76953 331.30444  L239.25781 331.64880  L239.74609 330.84186  L240.23438 331.03516  L240.72266 330.15088  L241.21094 330.67911  L241.69922 331.98611  L242.18750 330.78915  L242.67578 330.78369  L243.16406 331.05698  L243.65234 330.33365  L244.14063 330.51340  L244.62891 329.69235  L245.11719 330.19348  L245.60547 331.35007  L246.09375 330.24200  L246.58203 330.26837  L247.07031 330.48285  L247.55859 329.83002  L248.04688 329.99655  L248.53516 329.23004  L249.02344 329.70740  L249.51172 330.73676  L250.00000 329.70459  L250.48828 329.75757  L250.97656 329.92255  L251.46484 329.32953  L251.95313 329.48398  L252.44141 328.76495  L252.92969 329.22153  L253.41797 330.14227  L253.90625 329.17596  L254.39453 329.25070  L254.88281 329.37430  L255.37109 328.83234  L255.85938 328.97540  L256.34766 328.29700  L256.83594 328.73627  L257.32422 329.56265  L257.81250 328.65417  L258.30078 328.74768  L258.78906 328.83545  L259.27734 328.33810  L259.76563 328.47040  L260.25391 327.82843  L260.74219 328.25168  L261.23047 328.99603  L261.71875 328.13910  L262.20703 328.24750  L262.69531 328.30359  L263.18359 327.84656  L263.67188 327.96887  L264.16016 327.35925  L264.64844 327.76840  L265.13672 328.43896  L265.62500 327.62851  L266.11328 327.75064  L266.60156 327.78098  L267.08984 327.35730  L267.57813 327.47009  L268.06641 326.88959  L268.55469 327.28589  L269.04297 327.89188  L269.53125 327.12292  L270.01953 327.25632  L270.50781 327.26248  L270.99609 326.87012  L271.48438 326.97446  L271.97266 326.41937  L272.46094 326.80487  L272.94922 327.35303  L273.43750 326.62170  L273.92578 326.76483  L274.41406 326.74991  L274.90234 326.38568  L275.39063 326.48114  L275.87891 325.95013  L276.36719 326.32489  L276.85547 326.82104  L277.34375 326.12479  L277.83203 326.27512  L278.32031 326.24219  L278.80859 325.90277  L279.29688 325.99023  L279.78516 325.48148  L280.27344 325.84589  L280.76172 326.29401  L281.25000 325.63025  L281.73828 325.78793  L282.22656 325.73810  L282.71484 325.42172  L283.20313 325.50171  L283.69141 325.01352  L284.17969 325.36853  L284.66797 325.77341  L285.15625 325.13983  L285.64453 325.30249  L286.13281 325.23804  L286.62109 324.94208  L287.10938 325.01544  L287.59766 324.54474  L288.08594 324.89188  L288.57422 325.25766  L289.06250 324.65131  L289.55078 324.81967  L290.03906 324.74213  L290.52734 324.46497  L291.01563 324.53033  L291.50391 324.07681  L291.99219 324.41681  L292.48047 324.74646  L292.96875 324.16632  L293.45703 324.33804  L293.94531 324.24802  L294.43359 323.98895  L294.92188 324.04767  L295.41016 323.61017  L295.89844 323.94263  L296.38672 324.23926  L296.87500 323.68286  L297.36328 323.85880  L297.85156 323.75763  L298.33984 323.51453  L298.82813 323.56757  L299.31641 323.14511  L299.80469 323.46964  L300.29297 323.73520  L300.78125 323.20215  L301.26953 323.38068  L301.75781 323.26944  L302.24609 323.04144  L302.73438 323.08868  L303.22266 322.68030  L303.71094 322.99774  L304.19922 323.23459  L304.68750 322.72342  L305.17578 322.90421  L305.66406 322.78357  L306.15234 322.56973  L306.64063 322.61111  L307.12891 322.21600  L307.61719 322.52701  L308.10547 322.73810  L308.59375 322.24719  L309.08203 322.42859  L309.57031 322.30045  L310.05859 322.09937  L310.54688 322.13483  L311.03516 321.75272  L311.52344 322.05688  L312.01172 322.24292  L312.50000 321.77164  L312.98828 321.95569  L313.47656 321.81940  L313.96484 321.63049  L314.45313 321.65979  L314.94141 321.28918  L315.42969 321.58838  L315.91797 321.75165  L316.40625 321.29858  L316.89453 321.48328  L317.38281 321.33945  L317.87109 321.16260  L318.35938 321.18692  L318.84766 320.82745  L319.33594 321.12057  L319.82422 321.26208  L320.31250 320.82712  L320.80078 321.01190  L321.28906 320.86069  L321.77734 320.69571  L322.26563 320.71530  L322.75391 320.36630  L323.24219 320.65390  L323.73047 320.77548  L324.21875 320.35696  L324.70703 320.54236  L325.19531 320.38580  L325.68359 320.23010  L326.17188 320.24463  L326.66016 319.90601  L327.14844 320.18793  L327.63672 320.29022  L328.12500 319.88849  L328.61328 320.07355  L329.10156 319.91107  L329.58984 319.76529  L330.07813 319.77530  L330.56641 319.44598  L331.05469 319.72302  L331.54297 319.80750  L332.03125 319.42169  L332.51953 319.60583  L333.00781 319.43832  L333.49609 319.30176  L333.98438 319.30786  L334.47266 318.98785  L334.96094 319.25858  L335.44922 319.32571  L335.93750 318.95551  L336.42578 319.13928  L336.91406 318.96664  L337.40234 318.83893  L337.89063 318.84000  L338.37891 318.52908  L338.86719 318.79514  L339.35547 318.84683  L339.84375 318.49097  L340.33203 318.67337  L340.82031 318.49594  L341.30859 318.37720  L341.79688 318.37424  L342.28516 318.07172  L342.77344 318.33237  L343.26172 318.36954  L343.75000 318.02747  L344.23828 318.20871  L344.72656 318.02777  L345.21484 317.91638  L345.70313 317.90912  L346.19141 317.61429  L346.67969 317.87070  L347.16797 317.89352  L347.65625 317.56491  L348.14453 317.74487  L348.63281 317.55975  L349.12109 317.45593  L349.60938 317.44513  L350.09766 317.15814  L350.58594 317.40967  L351.07422 317.41895  L351.56250 317.10355  L352.05078 317.28195  L352.53906 317.09256  L353.02734 316.99652  L353.51563 316.98270  L354.00391 316.70300  L354.49219 316.94916  L354.98047 316.94519  L355.46875 316.64285  L355.95703 316.82019  L356.44531 316.62750  L356.93359 316.53821  L357.42188 316.51996  L357.91016 316.24765  L358.39844 316.48962  L358.88672 316.47421  L359.37500 316.18393  L359.86328 316.35840  L360.35156 316.16257  L360.83984 316.08054  L361.32813 316.05853  L361.81641 315.79303  L362.30469 316.03058  L362.79297 316.00293  L363.28125 315.72513  L363.76953 315.89783  L364.25781 315.69904  L364.74609 315.62323  L365.23438 315.59766  L365.72266 315.33884  L366.21094 315.57220  L366.69922 315.53360  L367.18750 315.26785  L367.67578 315.43750  L368.16406 315.23596  L368.65234 315.16656  L369.14063 315.13843  L369.62891 314.88538  L370.11719 315.11423  L370.60547 315.06525  L371.09375 314.81046  L371.58203 314.97858  L372.07031 314.77466  L372.55859 314.71085  L373.04688 314.67963  L373.53516 314.43298  L374.02344 314.65662  L374.51172 314.59802  L375.00000 314.35480  L375.48828 314.51971  L375.97656 314.31323  L376.46484 314.25543  L376.95313 314.22119  L377.44141 313.98010  L377.92969 314.19998  L378.41797 314.13245  L378.90625 313.89966  L379.39453 314.06161  L379.88281 313.85294  L380.37109 313.80130  L380.85938 313.76297  L381.34766 313.52841  L381.83594 313.74371  L382.32422 313.66675  L382.81250 313.44479  L383.30078 313.60406  L383.78906 313.39261  L384.27734 313.34726  L384.76563 313.30664  L385.25391 313.07709  L385.74219 313.28802  L386.23047 313.20291  L386.71875 312.99109  L387.20703 313.14706  L387.69531 312.93393  L388.18359 312.89410  L388.67188 312.84967  L389.16016 312.62610  L389.64844 312.83234  L390.13672 312.73819  L390.62500 312.53757  L391.11328 312.69031  L391.60156 312.47498  L392.08984 312.44107  L392.57813 312.39392  L393.06641 312.17590  L393.55469 312.37750  L394.04297 312.27576  L394.53125 312.08466  L395.01953 312.23471  L395.50781 312.01764  L395.99609 311.98865  L396.48438 311.93890  L396.97266 311.72531  L397.46094 311.92322  L397.94922 311.81451  L398.43750 311.63266  L398.92578 311.77917  L399.41406 311.56079  L399.90234 311.53644  L400.39063 311.48453  L400.87891 311.27570  L401.36719 311.46930  L401.85547 311.35358  L402.34375 311.18121  L402.83203 311.32419  L403.32031 311.10452  L403.80859 311.08566  L404.29688 311.03009  L404.78516 310.82635  L405.27344 311.01556  L405.76172 310.89288  L406.25000 310.73010  L406.73828 310.86911  L407.22656 310.64813  L407.71484 310.63379  L408.20313 310.57648  L408.69141 310.37659  L409.17969 310.56238  L409.66797 310.43347  L410.15625 310.27936  L410.64453 310.41510  L411.13281 310.19296  L411.62109 310.18372  L412.10938 310.12299  L412.59766 309.92871  L413.08594 310.10916  L413.57422 309.97379  L414.06250 309.82941  L414.55078 309.96100  L415.03906 309.73782  L415.52734 309.73352  L416.01563 309.67044  L416.50391 309.48016  L416.99219 309.65668  L417.48047 309.51575  L417.96875 309.38019  L418.45703 309.50677  L418.94531 309.28323  L419.43359 309.28342  L419.92188 309.21774  L420.41016 309.03152  L420.89844 309.20435  L421.38672 309.05750  L421.87500 308.93066  L422.36328 309.05347  L422.85156 308.82864  L423.33984 308.83435  L423.82813 308.76599  L424.31641 308.58380  L424.80469 308.75208  L425.29297 308.59973  L425.78125 308.48145  L426.26953 308.60117  L426.75781 308.37518  L427.24609 308.38531  L427.73438 308.31384  L428.22266 308.13641  L428.71094 308.30042  L429.19922 308.14264  L429.68750 308.03375  L430.17578 308.14728  L430.66406 307.92249  L431.15234 307.93585  L431.64063 307.86304  L432.12891 307.68930  L432.61719 307.84857  L433.10547 307.68640  L433.59375 307.58508  L434.08203 307.69568  L434.57031 307.46930  L435.05859 307.48798  L435.54688 307.41217  L436.03516 307.24191  L436.52344 307.39758  L437.01172 307.23114  L437.50000 307.13715  L437.98828 307.24319  L438.47656 307.01700  L438.96484 307.03922  L439.45313 306.96155  L439.94141 306.79477  L440.42969 306.94662  L440.91797 306.77582  L441.40625 306.68927  L441.89453 306.79099  L442.38281 306.56433  L442.87109 306.59149  L443.35938 306.51114  L443.84766 306.34851  L444.33594 306.49536  L444.82422 306.32007  L445.31250 306.24258  L445.80078 306.33875  L446.28906 306.11218  L446.77734 306.14380  L447.26563 306.06030  L447.75391 305.90170  L448.24219 306.04492  L448.73047 305.86581  L449.21875 305.79556  L449.70703 305.88675  L450.19531 305.66028  L450.68359 305.69647  L451.17188 305.61057  L451.66016 305.45520  L452.14844 305.59442  L452.63672 305.41113  L453.12500 305.34888  L453.61328 305.43530  L454.10156 305.20898  L454.58984 305.24921  L455.07813 305.16135  L455.56641 305.00928  L456.05469 305.14407  L456.54297 304.95850  L457.03125 304.90228  L457.51953 304.98352  L458.00781 304.75781  L458.49609 304.80194  L458.98438 304.71228  L459.47266 304.56281  L459.96094 304.69379  L460.44922 304.50317  L460.93750 304.45612  L461.42578 304.53226  L461.91406 304.30701  L462.40234 304.35501  L462.89063 304.26202  L463.37891 304.11646  L463.86719 304.24371  L464.35547 304.04999  L464.84375 304.01025  L465.33203 304.08151  L465.82031 303.85568  L466.30859 303.90866  L466.79688 303.81335  L467.28516 303.67139  L467.77344 303.79355  L468.26172 303.59729  L468.75000 303.56396  L469.23828 303.62976  L469.72656 303.40494  L470.21484 303.46246  L470.70313 303.36432  L471.19141 303.22488  L471.67969 303.34418  L472.16797 303.14508  L472.65625 303.11804  L473.14453 303.17810  L473.63281 302.95444  L474.12109 303.01602  L474.60938 302.91583  L475.09766 302.77939  L475.58594 302.89349  L476.07422 302.69104  L476.56250 302.67239  L477.05078 302.72766  L477.53906 302.50449  L478.02734 302.56973  L478.51563 302.46683  L479.00391 302.33374  L479.49219 302.44403  L479.98047 302.23969  L480.46875 302.22659  L480.95703 302.27625  L481.44531 302.05414  L481.93359 302.12390  L482.42188 302.01807  L482.91016 301.88815  L483.39844 301.99408  L483.88672 301.78723  L484.37500 301.78128  L484.86328 301.82523  L485.35156 301.60410  L485.83984 301.67767  L486.32813 301.56934  L486.81641 301.44193  L487.30469 301.54498  L487.79297 301.33554  L488.28125 301.33591  L488.76953 301.37363  L489.25781 301.15378  L489.74609 301.23184  L490.23438 301.12030  L490.72266 300.99652  L491.21094 301.09515  L491.69922 300.88373  L492.18750 300.89063  L492.67578 300.92221  L493.16406 300.70395  L493.65234 300.78619  L494.14063 300.67194  L494.62891 300.55078  L495.11719 300.64548  L495.60547 300.43219  L496.09375 300.44489  L496.58203 300.47073  L497.07031 300.25415  L497.55859 300.34048  L498.04688 300.22464  L498.53516 300.10522  L499.02344 300.19550  L499.51172 299.98059  L500.00000 300.00000  L500.48828 300.01941  L500.97656 299.80447  L501.46484 299.89478  L501.95313 299.77539  L502.44141 299.65970  L502.92969 299.74567  L503.41797 299.52927  L503.90625 299.55481  L504.39453 299.56763  L504.88281 299.35461  L505.37109 299.44913  L505.85938 299.32806  L506.34766 299.21365  L506.83594 299.29608  L507.32422 299.07782  L507.81250 299.10931  L508.30078 299.11633  L508.78906 298.90479  L509.27734 299.00354  L509.76563 298.87967  L510.25391 298.76819  L510.74219 298.84631  L511.23047 298.62643  L511.71875 298.66397  L512.20703 298.66446  L512.69531 298.45505  L513.18359 298.55807  L513.67188 298.43066  L514.16016 298.32227  L514.64844 298.39581  L515.13672 298.17474  L515.62500 298.21869  L516.11328 298.21277  L516.60156 298.00589  L517.08984 298.11212  L517.57813 297.98187  L518.06641 297.87622  L518.55469 297.94595  L519.04297 297.72363  L519.53125 297.77341  L520.01953 297.76025  L520.50781 297.55594  L520.99609 297.66626  L521.48438 297.53314  L521.97266 297.43033  L522.46094 297.49548  L522.94922 297.27231  L523.43750 297.32758  L523.92578 297.30893  L524.41406 297.10648  L524.90234 297.22064  L525.39063 297.08411  L525.87891 296.98395  L526.36719 297.04553  L526.85547 296.82187  L527.34375 296.88214  L527.83203 296.85519  L528.32031 296.65594  L528.80859 296.77533  L529.29688 296.63577  L529.78516 296.53741  L530.27344 296.59503  L530.76172 296.37006  L531.25000 296.43591  L531.73828 296.40302  L532.22656 296.20648  L532.71484 296.32916  L533.20313 296.18661  L533.69141 296.09055  L534.17969 296.14481  L534.66797 295.91876  L535.15625 295.98981  L535.64453 295.95007  L536.13281 295.75620  L536.62109 295.88364  L537.10938 295.73798  L537.59766 295.64505  L538.08594 295.69302  L538.57422 295.46774  L539.06250 295.54388  L539.55078 295.49689  L540.03906 295.30621  L540.52734 295.43732  L541.01563 295.28772  L541.50391 295.19812  L541.99219 295.24213  L542.48047 295.01648  L542.96875 295.09775  L543.45703 295.04160  L543.94531 294.85596  L544.43359 294.99094  L544.92188 294.83862  L545.41016 294.75061  L545.89844 294.79099  L546.38672 294.56470  L546.87500 294.65109  L547.36328 294.58890  L547.85156 294.40564  L548.33984 294.54495  L548.82813 294.38940  L549.31641 294.30377  L549.80469 294.33981  L550.29297 294.11328  L550.78125 294.20450  L551.26953 294.13412  L551.75781 293.95499  L552.24609 294.09833  L552.73438 293.93967  L553.22266 293.85602  L553.71094 293.88782  L554.19922 293.66119  L554.68750 293.75739  L555.17578 293.67993  L555.66406 293.50458  L556.15234 293.65152  L556.64063 293.48883  L557.12891 293.40836  L557.61719 293.43564  L558.10547 293.20929  L558.59375 293.30939  L559.08203 293.22409  L559.57031 293.05338  L560.05859 293.20563  L560.54688 293.03839  L561.03516 292.96103  L561.52344 292.98309  L562.01172 292.75693  L562.50000 292.86285  L562.98828 292.76895  L563.47656 292.60242  L563.96484 292.75800  L564.45313 292.58795  L564.94141 292.51199  L565.42969 292.53104  L565.91797 292.30414  L566.40625 292.41565  L566.89453 292.31360  L567.38281 292.15140  L567.87109 292.31079  L568.35938 292.13699  L568.84766 292.06406  L569.33594 292.07755  L569.82422 291.85278  L570.31250 291.96625  L570.80078 291.85739  L571.28906 291.69955  L571.77734 291.86337  L572.26563 291.68619  L572.75391 291.61465  L573.24219 291.62476  L573.73047 291.39874  L574.21875 291.51843  L574.70703 291.40018  L575.19531 291.24783  L575.68359 291.41592  L576.17188 291.23404  L576.66016 291.16571  L577.14844 291.17136  L577.63672 290.94650  L578.12500 291.06934  L578.61328 290.94244  L579.10156 290.79565  L579.58984 290.96823  L580.07813 290.78223  L580.56641 290.71637  L581.05469 290.71674  L581.54297 290.49335  L582.03125 290.61981  L582.51953 290.48431  L583.00781 290.34326  L583.49609 290.51990  L583.98438 290.32950  L584.47266 290.26666  L584.96094 290.26218  L585.44922 290.03900  L585.93750 290.17059  L586.42578 290.02612  L586.91406 289.89093  L587.40234 290.07135  L587.89063 289.87701  L588.37891 289.81644  L588.86719 289.80701  L589.35547 289.58496  L589.84375 289.72061  L590.33203 289.56653  L590.82031 289.43765  L591.30859 289.62366  L591.79688 289.42352  L592.28516 289.36542  L592.77344 289.35175  L593.26172 289.13098  L593.75000 289.26993  L594.23828 289.10712  L594.72656 288.98453  L595.21484 289.17361  L595.70313 288.96973  L596.19141 288.91510  L596.67969 288.89548  L597.16797 288.67563  L597.65625 288.81863  L598.14453 288.64651  L598.63281 288.53064  L599.12109 288.72437  L599.60938 288.51547  L600.09766 288.46353  L600.58594 288.43915  L601.07422 288.22076  L601.56250 288.36731  L602.05078 288.18549  L602.53906 288.07675  L603.02734 288.27463  L603.51563 288.06104  L604.00391 288.01129  L604.49219 287.98242  L604.98047 287.76526  L605.46875 287.91537  L605.95703 287.72424  L606.44531 287.62256  L606.93359 287.82434  L607.42188 287.60602  L607.91016 287.55878  L608.39844 287.52496  L608.88672 287.30957  L609.37500 287.46240  L609.86328 287.26172  L610.35156 287.16772  L610.83984 287.37375  L611.32813 287.15036  L611.81641 287.10580  L612.30469 287.06607  L612.79297 286.85297  L613.28125 287.00894  L613.76953 286.79712  L614.25781 286.71191  L614.74609 286.92307  L615.23438 286.69339  L615.72266 286.65259  L616.21094 286.60739  L616.69922 286.39597  L617.18750 286.55521  L617.67578 286.33319  L618.16406 286.25629  L618.65234 286.47177  L619.14063 286.23697  L619.62891 286.19882  L620.11719 286.14713  L620.60547 285.93839  L621.09375 286.10034  L621.58203 285.86743  L622.07031 285.80005  L622.55859 286.01996  L623.04688 285.77881  L623.53516 285.74420  L624.02344 285.68674  L624.51172 285.48029  L625.00000 285.64520  L625.48828 285.40179  L625.97656 285.34332  L626.46484 285.56711  L626.95313 285.32047  L627.44141 285.28943  L627.92969 285.22537  L628.41797 285.02133  L628.90625 285.18961  L629.39453 284.93475  L629.88281 284.88580  L630.37109 285.11472  L630.85938 284.86157  L631.34766 284.83337  L631.83594 284.76404  L632.32422 284.56256  L632.81250 284.73212  L633.30078 284.46640  L633.78906 284.42780  L634.27734 284.66125  L634.76563 284.40234  L635.25391 284.37686  L635.74219 284.30109  L636.23047 284.10223  L636.71875 284.27475  L637.20703 283.99710  L637.69531 283.96954  L638.18359 284.20724  L638.67188 283.94141  L639.16016 283.91968  L639.64844 283.83740  L640.13672 283.64160  L640.62500 283.81604  L641.11328 283.52582  L641.60156 283.51050  L642.08984 283.75241  L642.57813 283.48007  L643.06641 283.46198  L643.55469 283.37244  L644.04297 283.17987  L644.53125 283.35693  L645.01953 283.05484  L645.50781 283.05084  L645.99609 283.29709  L646.48438 283.01733  L646.97266 283.00360  L647.46094 282.90741  L647.94922 282.71802  L648.43750 282.89642  L648.92578 282.58096  L649.41406 282.59033  L649.90234 282.84186  L650.39063 282.55487  L650.87891 282.54401  L651.36719 282.44022  L651.85547 282.25507  L652.34375 282.43500  L652.83203 282.10638  L653.32031 282.12897  L653.80859 282.38507  L654.29688 282.09076  L654.78516 282.08417  L655.27344 281.97223  L655.76172 281.79132  L656.25000 281.97253  L656.73828 281.63040  L657.22656 281.66748  L657.71484 281.92795  L658.20313 281.62558  L658.69141 281.62335  L659.17969 281.50406  L659.66797 281.32660  L660.15625 281.50891  L660.64453 281.15326  L661.13281 281.20496  L661.62109 281.47070  L662.10938 281.16000  L662.59766 281.16089  L663.08594 281.03333  L663.57422 280.86072  L664.06250 281.04446  L664.55078 280.67432  L665.03906 280.74142  L665.52734 281.01208  L666.01563 280.69208  L666.50391 280.69836  L666.99219 280.56171  L667.48047 280.39420  L667.96875 280.57837  L668.45703 280.19250  L668.94531 280.27701  L669.43359 280.55402  L669.92188 280.22467  L670.41016 280.23486  L670.89844 280.08899  L671.38672 279.92645  L671.87500 280.11151  L672.36328 279.70978  L672.85156 279.81207  L673.33984 280.09412  L673.82813 279.75531  L674.31641 279.77002  L674.80469 279.61426  L675.29297 279.45770  L675.78125 279.64310  L676.26953 279.22458  L676.75781 279.34613  L677.24609 279.63373  L677.73438 279.28470  L678.22266 279.30444  L678.71094 279.13931  L679.19922 278.98804  L679.68750 279.17285  L680.17578 278.73798  L680.66406 278.87939  L681.15234 279.17236  L681.64063 278.81308  L682.12891 278.83743  L682.61719 278.66052  L683.10547 278.51660  L683.59375 278.70120  L684.08203 278.24832  L684.57031 278.41190  L685.05859 278.71063  L685.54688 278.34033  L686.03516 278.36960  L686.52344 278.18063  L687.01172 278.04431  L687.50000 278.22836  L687.98828 277.75708  L688.47656 277.94312  L688.96484 278.24731  L689.45313 277.86530  L689.94141 277.90045  L690.42969 277.69989  L690.91797 277.57092  L691.40625 277.75299  L691.89453 277.26193  L692.38281 277.47290  L692.87109 277.78406  L693.35938 277.38889  L693.84766 277.43024  L694.33594 277.21643  L694.82422 277.09579  L695.31250 277.27658  L695.80078 276.76535  L696.28906 277.00220  L696.77734 277.31967  L697.26563 276.91135  L697.75391 276.95859  L698.24219 276.73059  L698.73047 276.61926  L699.21875 276.79779  L699.70703 276.26465  L700.19531 276.53046  L700.68359 276.85513  L701.17188 276.43246  L701.66016 276.48547  L702.14844 276.24240  L702.63672 276.14124  L703.12500 276.31714  L703.61328 275.76077  L704.10156 276.05731  L704.58984 276.38977  L705.07813 275.95233  L705.56641 276.01123  L706.05469 275.75195  L706.54297 275.66190  L707.03125 275.83368  L707.51953 275.25357  L708.00781 275.58322  L708.49609 275.92310  L708.98438 275.46964  L709.47266 275.53503  L709.96094 275.25787  L710.44922 275.18030  L710.93750 275.34869  L711.42578 274.74228  L711.91406 275.10815  L712.40234 275.45526  L712.89063 274.98456  L713.37891 275.05780  L713.86719 274.76193  L714.35547 274.69754  L714.84375 274.86023  L715.33203 274.22681  L715.82031 274.63141  L716.30859 274.98770  L716.79688 274.49783  L717.28516 274.57813  L717.77344 274.26172  L718.26172 274.21201  L718.75000 274.36969  L719.23828 273.70609  L719.72656 274.15396  L720.21484 274.51837  L720.70313 274.00958  L721.19141 274.09796  L721.67969 273.75778  L722.16797 273.72498  L722.65625 273.87506  L723.14453 273.17908  L723.63281 273.67514  L724.12109 274.04987  L724.60938 273.51880  L725.09766 273.61435  L725.58594 273.25006  L726.07422 273.23520  L726.56250 273.37830  L727.05078 272.64697  L727.53906 273.19513  L728.02734 273.58060  L728.51563 273.02551  L729.00391 273.12988  L729.49219 272.73749  L729.98047 272.74371  L730.46875 272.87714  L730.95703 272.10812  L731.44531 272.71405  L731.93359 273.11057  L732.42188 272.52988  L732.91016 272.64285  L733.39844 272.21899  L733.88672 272.24939  L734.37500 272.37146  L734.86328 271.56104  L735.35156 272.23157  L735.83984 272.64075  L736.32813 272.03110  L736.81641 272.15338  L737.30469 271.69635  L737.79297 271.75244  L738.28125 271.86093  L738.76953 271.00397  L739.25781 271.74835  L739.74609 272.17169  L740.23438 271.52960  L740.72266 271.66171  L741.21094 271.16455  L741.69922 271.25226  L742.18750 271.34579  L742.67578 270.43726  L743.16406 271.26373  L743.65234 271.70300  L744.14063 271.02454  L744.62891 271.16766  L745.11719 270.62570  L745.60547 270.74930  L746.09375 270.82419  L746.58203 269.85785  L747.07031 270.77847  L747.55859 271.23572  L748.04688 270.51611  L748.53516 270.67050  L749.02344 270.07748  L749.51172 270.24249  L750.00000 270.29541  L750.48828 269.26331  L750.97656 270.29254  L751.46484 270.77017  L751.95313 270.00348  L752.44141 270.17020  L752.92969 269.51712  L753.41797 269.73160  L753.90625 269.75824  L754.39453 268.64999  L754.88281 269.80652  L755.37109 270.30780  L755.85938 269.48663  L756.34766 269.66650  L756.83594 268.94302  L757.32422 269.21634  L757.81250 269.21082  L758.30078 268.01392  L758.78906 269.32086  L759.27734 269.84912  L759.76563 268.96481  L760.25391 269.15814  L760.74219 268.35114  L761.23047 268.69550  L761.71875 268.65070  L762.20703 267.34869  L762.69531 268.83582  L763.18359 269.39804  L763.67188 268.43646  L764.16016 268.64587  L764.64844 267.73557  L765.13672 268.16843  L765.62500 268.07520  L766.11328 266.64532  L766.60156 268.35355  L767.08984 268.95569  L767.57813 267.90182  L768.06641 268.12704  L768.55469 267.08923  L769.04297 267.63345  L769.53125 267.47903  L770.01953 265.89017  L770.50781 267.87531  L770.99609 268.52759  L771.48438 267.35745  L771.97266 267.60175  L772.46094 266.39874  L772.94922 267.08859  L773.43750 266.85446  L773.92578 265.06314  L774.41406 267.40405  L774.90234 268.12103  L775.39063 266.80136  L775.87891 267.06702  L776.36719 265.64410  L776.85547 266.52997  L777.34375 266.18958  L777.83203 264.12793  L778.32031 266.94550  L778.80859 267.74966  L779.29688 266.22913  L779.78516 266.51843  L780.27344 264.78796  L780.76172 265.95062  L781.25000 265.46359  L781.73828 263.02164  L782.22656 266.51022  L782.71484 267.43530  L783.20313 265.63092  L783.69141 265.94922  L784.17969 263.75580  L784.66797 265.33762  L785.15625 264.63525  L785.64453 261.61859  L786.13281 266.12006  L786.62109 267.22711  L787.10938 264.98773  L787.59766 265.34268  L788.08594 262.37274  L788.57422 264.65796  L789.06250 263.61710  L789.55078 259.62521  L790.03906 265.83133  L790.52734 267.24243  L791.01563 264.24951  L791.50391 264.65015  L791.99219 260.11041  L792.48047 263.80841  L792.96875 262.16708  L793.45703 256.17719  L793.94531 265.84238  L794.43359 267.85559  L794.92188 263.22336  L795.41016 263.66385  L795.89844 254.35336  L796.38672 262.17615  L796.87500 259.32828  L797.36328 247.38159  L797.85156 267.67572  L798.33984 271.24088  L798.82813 259.90677  L799.31641 257.72549  L799.80469 206.79976  L800.29297 271.92563  L800.78125 345.56506  L801.26953 309.09149  L801.75781 257.82809  L802.24609 239.39319  L802.73438 266.17523  L803.22266 265.07239  L803.71094 272.81485  L804.19922 264.42126  L804.68750 273.64624  L805.17578 277.84027  L805.66406 261.18262  L806.15234 258.11725  L806.64063 263.79922  L807.12891 263.73199  L807.61719 267.93466  L808.10547 263.25073  L808.59375 267.28931  L809.08203 270.69702  L809.57031 261.29449  L810.05859 259.76111  L810.54688 262.82675  L811.03516 262.95770  L811.52344 265.82837  L812.01172 262.46164  L812.50000 265.18979  L812.98828 267.60590  L813.47656 261.00922  L813.96484 260.02841  L814.45313 262.07697  L814.94141 262.30099  L815.42969 264.47754  L815.91797 261.77655  L816.40625 263.92041  L816.89453 265.71710  L817.38281 260.59262  L817.87109 259.89517  L818.35938 261.39941  L818.84766 261.68552  L819.33594 263.43417  L819.82422 261.13162  L820.31250 262.94965  L820.80078 264.33435  L821.28906 260.11362  L821.77734 259.58658  L822.26563 260.75104  L822.75391 261.08707  L823.24219 262.54504  L823.73047 260.50366  L824.21875 262.11642  L824.70703 263.20773  L825.19531 259.59818  L825.68359 259.18488  L826.17188 260.11539  L826.66016 260.49533  L827.14844 261.74112  L827.63672 259.88171  L828.12500 261.35684  L828.61328 262.22623  L829.10156 259.05792  L829.58984 258.72510  L830.07813 259.48297  L830.56641 259.90659  L831.05469 260.98730  L831.54297 259.26245  L832.03125 260.63699  L832.51953 261.33456  L833.00781 258.49796  L833.49609 258.22495  L833.98438 258.85068  L834.47266 259.31506  L834.96094 260.26633  L835.44922 258.63940  L835.93750 259.94214  L836.42578 260.49857  L836.91406 257.92184  L837.40234 257.69443  L837.89063 258.21387  L838.37891 258.72144  L838.86719 259.56473  L839.35547 258.01205  L839.84375 259.26053  L840.33203 259.69934  L840.82031 257.33109  L841.30859 257.13934  L841.79688 257.57071  L842.28516 258.12292  L842.77344 258.87421  L843.26172 257.37805  L843.75000 258.58612  L844.23828 258.92374  L844.72656 256.72638  L845.21484 256.56229  L845.70313 256.91974  L846.19141 257.51956  L846.67969 258.19034  L847.16797 256.73608  L847.65625 257.91357  L848.14453 258.16248  L848.63281 256.10800  L849.12109 255.96732  L849.60938 256.25925  L850.09766 256.90945  L850.58594 257.50806  L851.07422 256.08478  L851.56250 257.23926  L852.05078 257.40921  L852.53906 255.47572  L853.02734 255.35330  L853.51563 255.58759  L854.00391 256.29227  L854.49219 256.82462  L854.98047 255.42270  L855.46875 256.56122  L855.95703 256.65906  L856.44531 254.82915  L856.93359 254.72137  L857.42188 254.90332  L857.91016 255.66731  L858.39844 256.13770  L858.88672 254.74855  L859.37500 255.87674  L859.86328 255.90735  L860.35156 254.16789  L860.83984 254.07172  L861.32813 254.20525  L861.81641 255.03401  L862.30469 255.44467  L862.79297 254.06131  L863.28125 255.18344  L863.76953 255.15163  L864.25781 253.49025  L864.74609 253.40456  L865.23438 253.49118  L865.72266 254.39169  L866.21094 254.74371  L866.69922 253.35928  L867.18750 254.47913  L867.67578 254.38783  L868.16406 252.79590  L868.65234 252.71802  L869.14063 252.75970  L869.62891 253.73975  L870.11719 254.03308  L870.60547 252.64111  L871.09375 253.76230  L871.58203 253.61357  L872.07031 252.08319  L872.55859 252.01199  L873.04688 252.00865  L873.53516 253.07788  L874.02344 253.31104  L874.51172 251.90483  L875.00000 253.03072  L875.48828 252.82588  L875.97656 251.35071  L876.46484 251.28450  L876.95313 251.23605  L877.44141 252.40512  L877.92969 252.57559  L878.41797 251.14864  L878.90625 252.28241  L879.39453 252.02206  L879.88281 250.59657  L880.37109 250.53520  L880.85938 250.43886  L881.34766 251.72141  L881.83594 251.82433  L882.32422 250.37068  L882.81250 251.51489  L883.30078 251.19910  L883.78906 249.81873  L884.27734 249.76175  L884.76563 249.61423  L885.25391 251.02670  L885.74219 251.05609  L886.23047 249.56821  L886.71875 250.72598  L887.20703 250.35410  L887.69531 249.01440  L888.18359 248.96193  L888.67188 248.75830  L889.16016 250.32072  L889.64844 250.26868  L890.13672 248.73822  L890.62500 249.91290  L891.11328 249.48279  L891.60156 248.18137  L892.08984 248.13422  L892.57813 247.86670  L893.06641 249.60429  L893.55469 249.45885  L894.04297 247.87828  L894.53125 249.07138  L895.01953 248.58197  L895.50781 247.31543  L895.99609 247.27487  L896.48438 246.93394  L896.97266 248.87846  L897.46094 248.62474  L897.94922 246.98364  L898.43750 248.19855  L898.92578 247.64641  L899.41406 246.41280  L899.90234 246.38135  L900.39063 245.95280  L900.87891 248.14603  L901.36719 247.76306  L901.85547 246.05040  L902.34375 247.28922  L902.83203 246.67084  L903.32031 245.46809  L903.80859 245.45055  L904.29688 244.91435  L904.78516 247.41077  L905.27344 246.87016  L905.76172 245.07283  L906.25000 246.33748  L906.73828 245.64789  L907.22656 244.47520  L907.71484 244.47800  L908.20313 243.80600  L908.69141 246.68085  L909.17969 245.94189  L909.66797 244.04443  L910.15625 245.33606  L910.64453 244.56926  L911.13281 243.42532  L911.62109 243.45934  L912.10938 242.60989  L912.59766 245.96988  L913.08594 244.97247  L913.57422 242.95758  L914.06250 244.27435  L914.55078 243.42313  L915.03906 242.30750  L915.52734 242.38969  L916.01563 241.30074  L916.50391 245.30173  L916.99219 243.95601  L917.48047 241.80121  L917.96875 243.13844  L918.45703 242.19287  L918.94531 241.10587  L919.43359 241.26428  L919.92188 239.83640  L920.41016 244.72330  L920.89844 242.88309  L921.38672 240.56250  L921.87500 241.90564  L922.36328 240.85396  L922.85156 239.79579  L923.33984 240.07977  L923.82813 238.14297  L924.31641 244.33052  L924.80469 241.73996  L925.29297 239.22504  L925.78125 240.53661  L926.26953 239.36533  L926.75781 238.33559  L927.24609 238.83752  L927.73438 236.07292  L928.22266 244.34229  L928.71094 240.50511  L929.19922 237.76808  L929.68750 238.94958  L930.17578 237.64545  L930.66406 236.64101  L931.15234 237.55696  L931.64063 233.26712  L932.12891 245.35535  L932.61719 239.13545  L933.10547 236.17552  L933.59375 236.91559  L934.08203 235.48267  L934.57031 234.48419  L935.05859 236.33211  L935.54688 228.51604  L936.03516 249.54518  L936.52344 237.51527  L937.01172 234.53818  L937.50000 233.29536  L937.98828 231.88405  L938.47656 230.70139  L938.96484 235.69604  L939.45313 213.81375  L939.94141 268.67020  L940.42969 234.94785  L940.91797 309.90930  L941.40625 368.09802  L941.89453 357.92429  L942.38281 346.51776  L942.87109 244.92426  L943.35938 355.96851  L943.84766 305.83963  L944.33594 337.74063  L944.82422 328.48920  L945.31250 338.47208  L945.80078 333.74231  L946.28906 332.09442  L946.77734 319.56790  L947.26563 339.18976  L947.75391 312.86676  L948.24219 333.06204  L948.73047 322.28458  L949.21875 334.01868  L949.70703 326.22543  L950.19531 323.48660  L950.68359 305.65894  L951.17188 328.20630  L951.66016 297.88782  L952.14844 321.96524  L952.63672 289.33578  L953.12500 320.65530  L953.61328 269.88071  L954.10156 267.27844  L954.58984 241.68105  L955.07813 258.13773  L955.56641 243.16440  L956.05469 252.16962  L956.54297 237.02011  L957.03125 231.36209  L957.51953 233.85480  L958.00781 237.55145  L958.49609 230.09267  L958.98438 238.02692  L959.47266 230.21468  L959.96094 243.15704  L960.44922 225.62131  L960.93750 224.57280  L961.42578 225.12399  L961.91406 231.33598  L962.40234 223.73914  L962.89063 232.89127  L963.37891 220.58020  L963.86719 251.52931  L964.35547 208.83658  L964.84375 390.29987  L965.33203 200.00000  L965.82031 225.79645  L966.30859 203.91496  L966.79688 265.78232  L967.28516 335.36707  L967.77344 304.29654  L968.26172 352.70590  L968.75000 334.59088  L969.23828 338.44910  L969.72656 327.04749  L970.21484 330.35229  L970.70313 326.64465  L971.19141 327.19772  L971.67969 316.21234  L972.16797 334.39294  L972.65625 327.98282  L973.14453 329.15009  L973.63281 323.51071  L974.12109 323.35147  L974.60938 323.58994  L975.09766 323.42310  L975.58594 316.85590  L976.07422 327.57770  L976.56250 323.78925  L977.05078 324.12708  L977.53906 320.29047  L978.02734 319.09030  L978.51563 320.36688  L979.00391 320.18933  L979.49219 315.37787  L979.98047 322.70166  L980.46875 320.00659  L980.95703 319.88611  L981.44531 317.04108  L981.93359 315.29550  L982.42188 316.98840  L982.91016 317.01776  L983.39844 313.07043  L983.88672 318.34622  L984.37500 316.23621  L984.86328 315.79907  L985.35156 313.69638  L985.83984 311.58954  L986.32813 313.44397  L986.81641 313.77032  L987.30469 310.29327  L987.79297 314.11057  L988.28125 312.35583  L988.76953 311.67648  L989.25781 310.24829  L989.74609 307.87537  L990.23438 309.73999  L990.72266 310.39999  L991.21094 307.19849  L991.69922 309.85486  L992.18750 308.33746  L992.67578 307.46222  L993.16406 306.71829  L993.65234 304.14023  L994.14063 305.90317  L994.62891 306.89963  L995.11719 303.87750  L995.60547 305.54294  L996.09375 304.20200  L996.58203 303.16132  L997.07031 303.14807  L997.55859 300.40692  L998.04688 301.97803  L998.53516 303.28650  L999.02344 300.40546  L999.51172 301.19012 " /></g><text x="1000.00000" dx="10" y="200.00000">[-0.00000;49.54101]</text><text x="1000.00000" dx="10" y="300.00000">[-3.10155;3.10155]</text></svg>