<svg xmlns="http://www.w3.org/2000/svg" version="1.1"><g stroke-width="0.6"><path fill="none" stroke="#000000" d="M0 100.78419 L1000.00000 100.78419" /><path fill="none" stroke="#000000" d="M0 300.00000 L1000.00000 300.00000" /><path fill="none" stroke="#000000" d="M500.00000 0 L500.00000 400.00000" /><path fill="none" stroke="#000000" d="M0 100.78419  L0.00000 100.76979 L0.78186 100.74722 L1.56372 100.75348 L2.34558 100.77923 L3.12744 100.73092 L3.90930 100.49642 L4.69116 100.03885 L5.47303 99.40665 L6.25489 98.66251 L7.03675 97.84118 L7.81861 96.99856 L8.60047 96.27914 L9.38233 95.89334 L10.16419 96.01283 L10.94605 96.69981 L11.72791 97.93796 L12.50977 99.69610 L13.29163 101.91854 L14.07349 104.44925 L14.85536 107.00275 L15.63722 109.24424 L16.41908 110.90263 L17.20094 111.80305 L17.98280 111.81920 L18.76466 110.85280 L19.54652 108.90031 L20.32838 106.13117 L21.11024 102.86756 L21.89210 99.47298 L22.67396 96.26562 L23.45583 93.52565 L24.23769 91.53013 L25.01955 90.51218 L25.80141 90.55582 L26.58327 91.54249 L27.36513 93.21516 L28.14699 95.28576 L28.92885 97.47339 L29.71071 99.47301 L30.49257 100.96011 L31.27443 101.68790 L32.05629 101.59734 L32.83815 100.82585 L33.62001 99.61749 L34.40188 98.24768 L35.18374 97.02983 L35.96560 96.33720 L36.74746 96.53857 L37.52932 97.86222 L38.31118 100.30895 L39.09304 103.68479 L39.87490 107.68465 L40.65676 111.91827 L41.43863 115.88099 L42.22049 118.97578 L43.00235 120.64161 L43.78421 120.50505 L44.56607 118.43585 L45.34793 114.50304 L46.12979 108.93798 L46.91165 102.16603 L47.69351 94.83541 L48.47537 87.73989 L49.25723 81.64974 L50.03909 77.17477 L50.82095 74.73553 L51.60281 74.58074 L52.38467 76.75053 L53.16653 80.99603 L53.94840 86.76804 L54.73026 93.33508 L55.51212 99.94921 L56.29398 105.93924 L57.07584 110.72367 L57.85770 113.84306 L58.63956 115.06492 L59.42142 114.48077 L60.20329 112.48334 L60.98515 109.63177 L61.76701 106.52439 L62.54887 103.75421 L63.33073 101.88792 L64.11259 101.37341 L64.89445 102.39423 L65.67631 104.79328 L66.45817 108.13508 L67.24003 111.83305 L68.02189 115.22712 L68.80376 117.60642 L69.58562 118.27534 L70.36748 116.71133 L71.14934 112.72652 L71.93120 106.51134 L72.71306 98.55767 L73.49492 89.57204 L74.27678 80.44669 L75.05864 72.22517 L75.84050 65.96806 L76.62236 62.54081 L77.40422 62.45420 L78.18608 65.83710 L78.96794 72.47969 L79.74980 81.84447 L80.53166 93.04911 L81.31352 104.92657 L82.09539 116.21302 L82.87725 125.77345 L83.65911 132.73643 L84.44097 136.52547 L85.22283 136.88409 L86.00469 133.94917 L86.78655 128.29642 L87.56841 120.85354 L88.35027 112.69715 L89.13213 104.86268 L89.91399 98.25083 L90.69585 93.57760 L91.47771 91.27663 L92.25957 91.37254 L93.04144 93.44419 L93.82330 96.74102 L94.60516 100.37091 L95.38702 103.43548 L96.16888 105.09882 L96.95074 104.68104 L97.73260 101.82030 L98.51447 96.61442 L99.29633 89.62265 L100.07819 81.73101 L100.86005 73.99954 L101.64191 67.56902 L102.42377 63.57360 L103.20563 62.97249 L103.98749 66.32941 L104.76935 73.67171 L105.55121 84.50796 L106.33307 97.93729 L107.11494 112.73907 L107.89680 127.43758 L108.67866 140.43617 L109.46052 150.26146 L110.24238 155.82002 L111.02424 156.53447 L111.80610 152.34541 L112.58796 143.68068 L113.36982 131.45226 L114.15168 117.01550 L114.93354 101.99625 L115.71540 88.01357 L116.49726 76.43634 L117.27912 68.26386 L118.06098 64.08028 L118.84285 63.99051 L119.62471 67.55080 L120.40657 73.80470 L121.18843 81.47747 L121.97029 89.23569 L122.75215 95.87872 L123.53401 100.43978 L124.31587 102.28400 L125.09773 101.24685 L125.87959 97.72764 L126.66145 92.62644 L127.44331 87.13727 L128.22517 82.52718 L129.00703 79.98933 L129.78889 80.52495 L130.57076 84.77315 L131.35262 92.81808 L132.13448 104.10324 L132.91634 117.52422 L133.69820 131.62347 L134.48006 144.76408 L135.26192 155.26538 L136.04378 161.58424 L136.82564 162.57564 L137.60751 157.73087 L138.38937 147.26231 L139.17123 132.02629 L139.95309 113.39466 L140.73495 93.14847 L141.51682 73.34025 L142.29868 56.04354 L143.08054 43.02710 L143.86240 35.49812 L144.64426 34.00639 L145.42612 38.45607 L146.20798 48.12491 L146.98984 61.69351 L147.77170 77.38230 L148.55356 93.23603 L149.33542 107.45139 L150.11728 118.60575 L150.89914 125.76089 L151.68100 128.52962 L152.46286 127.15389 L153.24472 122.51898 L154.02658 116.00319 L154.80844 109.18936 L155.59030 103.57980 L156.37216 100.41184 L157.15402 100.53494 L157.93588 104.26884 L158.71774 111.26857 L159.49960 120.51764 L160.28146 130.50912 L161.06332 139.52522 L161.84518 145.87943 L162.62704 148.09283 L163.40892 145.08174 L164.19078 136.38719 L164.97264 122.34770 L165.75450 104.09128 L166.53636 83.35000 L167.31822 62.22168 L168.10008 42.96634 L168.88194 27.79743 L169.66380 18.59644 L170.44566 16.59355 L171.22752 22.15911 L172.00938 34.79250 L172.79124 53.24460 L173.57310 75.66031 L174.35497 99.72869 L175.13683 122.92280 L175.91869 142.85645 L176.70055 157.64525 L177.48241 166.12570 L178.26427 167.90874 L179.04613 163.36264 L179.82799 153.58632 L180.60985 140.31079 L181.39171 125.64482 L182.17357 111.70423 L182.95543 100.27685 L183.73729 92.62718 L184.51915 89.40144 L185.30101 90.54790 L186.08287 95.26846 L186.86473 102.10918 L187.64661 109.23515 L188.42847 114.78555 L189.21033 117.16113 L189.99219 115.20852 L190.77405 108.37602 L191.55591 96.87488 L192.33777 81.75662 L193.11963 64.79506 L193.90149 48.19212 L194.68335 34.24738 L195.46521 25.09302 L196.24707 22.46414 L197.02893 27.43776 L197.81079 40.18176 L198.59265 59.85149 L199.37451 84.70776 L200.15637 112.22502 L200.93823 139.99928 L201.72009 165.37057 L202.50195 184.91609 L203.28381 195.96619 L204.06567 197.89198 L204.84753 191.67012 L205.62939 178.47359 L206.41125 159.22452 L207.19312 135.56177 L207.97498 110.58662 L208.75684 87.96617 L209.53870 70.20164 L210.32056 58.04082 L211.10242 51.50349 L211.88428 50.87497 L212.66614 56.21162 L213.44801 66.11098 L214.22987 77.65707 L215.01173 87.93726 L215.79359 95.42036 L216.57545 99.68736 L217.35732 100.23877 L218.13918 96.28477 L218.92104 87.93726 L219.70290 77.13864 L220.48476 66.88174 L221.26662 59.51499 L222.04848 56.10933 L222.83034 57.36427 L223.61220 64.42853 L224.39406 78.20495 L225.17592 97.92410 L225.95778 120.92645 L226.73964 144.07559 L227.52150 165.10851 L228.30336 182.42140 L229.08522 194.00864 L229.86708 197.44531 L230.64894 191.30632 L231.43080 176.32639 L232.21266 154.82257 L232.99452 129.14536 L233.77638 101.11119 L234.55824 72.88361 L235.34010 47.67735 L236.12196 28.86812 L236.90382 18.31450 L237.68570 15.86272 L238.46756 20.49078 L239.24942 31.43075 L240.03128 47.79679 L240.81314 67.45531 L241.59500 87.03604 L242.37686 103.47234 L243.15872 115.35945 L243.94058 122.62632 L244.72244 125.25475 L245.50430 122.96571 L246.28616 116.30798 L247.06802 107.49888 L247.84988 99.58507 L248.63174 94.72647 L249.41360 93.58293 L250.19547 96.27906 L250.97733 103.31418 L251.75919 114.97491 L252.54105 130.01904 L253.32291 145.55475 L254.10477 158.52289 L254.88663 167.07762 L255.66849 170.35764 L256.45035 167.36618 L257.23221 156.85579 L258.01407 138.62337 L258.79593 114.53376 L259.57779 87.81184 L260.35965 61.38485 L261.14151 37.24284 L261.92337 17.29313 L262.70523 4.08720 L263.48709 0.00028 L264.26895 5.66099 L265.05081 19.58954 L265.83267 39.48272 L266.61453 63.46889 L267.39639 89.84290 L268.17825 116.00603 L268.96011 138.50084 L269.74197 154.52879 L270.52383 163.24347 L271.30569 165.32486 L272.08755 161.58289 L272.86942 152.52666 L273.65128 139.34943 L274.43314 124.69428 L275.21503 111.77727 L275.99689 102.67550 L276.77875 97.75821 L277.56061 96.72855 L278.34247 99.63116 L279.12433 106.36806 L279.90619 115.47559 L280.68805 124.07236 L281.46991 129.37465 L282.25177 130.06885 L283.03363 126.03265 L283.81549 117.12944 L284.59735 102.98261 L285.37921 84.14954 L286.16107 63.03094 L286.94293 43.07061 L287.72479 27.04111 L288.50665 16.39189 L289.28851 12.13922 L290.07037 15.67234 L290.85223 28.04857 L291.63409 48.55957 L292.41595 74.51124 L293.19781 102.63824 L293.97968 130.46007 L294.76154 156.07613 L295.54340 177.11797 L296.32526 190.74748 L297.10712 195.09398 L297.88898 190.43404 L298.67084 178.63368 L299.45270 161.61923 L300.23456 140.82854 L301.01642 118.10864 L301.79828 96.43349 L302.58014 79.02451 L303.36200 67.67903 L304.14386 62.27800 L304.92572 61.92818 L305.70758 66.07926 L306.48944 74.14211 L307.27130 84.34604 L308.05316 93.73392 L308.83502 99.68467 L309.61688 101.25177 L310.39874 98.81521 L311.18060 92.78085 L311.96246 83.24831 L312.74432 71.08289 L313.52618 58.74267 L314.30804 49.42862 L315.08990 45.36190 L315.87177 47.16768 L316.65363 54.84170 L317.43549 68.66572 L318.21735 88.62966 L318.99921 113.12842 L319.78107 138.85693 L320.56293 162.31062 L321.34479 181.18535 L322.12665 194.16881 L322.90851 199.84003 L323.69037 196.57315 L324.47223 183.84840 L325.25409 163.28984 L326.03598 137.96819 L326.81784 110.74935 L327.59970 83.65807 L328.38156 58.73049 L329.16342 38.73570 L329.94528 26.34550 L330.72714 22.55164 L331.50900 26.28743 L332.29086 35.69507 L333.07272 49.36120 L333.85458 66.03179 L334.63644 83.53217 L335.41830 98.78342 L336.20016 109.30372 L336.98203 114.48727 L337.76389 115.16839 L338.54575 112.21828 L339.32761 106.11138 L340.10947 97.91206 L340.89133 90.04584 L341.67319 85.43204 L342.45505 85.78491 L343.23691 91.06046 L344.01877 100.51634 L344.80063 113.73895 L345.58249 130.17926 L346.36435 147.94952 L347.14621 163.78975 L347.92807 174.59969 L348.70993 178.82498 L349.49179 176.18895 L350.27365 166.49387 L351.05551 149.39771 L351.83737 125.58677 L352.61923 97.67929 L353.40109 69.41579 L354.18295 43.93171 L354.96481 23.08975 L355.74667 8.35157 L356.52853 1.56471 L357.31039 4.23754 L358.09225 16.08579 L358.87411 34.79394 L359.65598 57.41327 L360.43784 81.70394 L361.21970 105.91976 L362.00156 127.75343 L362.78342 144.33218 L363.56528 153.65660 L364.34714 155.78549 L365.12900 152.28830 L365.91086 144.72850 L366.69272 134.13071 L367.47458 121.89637 L368.25644 110.54126 L369.03830 102.83573 L369.82016 100.15306 L370.60202 101.99552 L371.38388 107.15335 L372.16574 114.83550 L372.94760 124.29852 L373.72946 133.71059 L374.51132 140.14909 L375.29321 141.12189 L376.07507 135.90007 L376.85693 125.16026 L377.63879 109.67129 L378.42065 89.94595 L379.20251 67.29506 L379.98438 44.63492 L380.76624 25.61747 L381.54810 12.88804 L382.32996 7.45035 L383.11182 9.61683 L383.89368 19.90978 L384.67554 38.47350 L385.45740 63.76405 L386.23926 92.44185 L387.02112 120.87334 L387.80298 146.53693 L388.58484 167.82349 L389.36670 182.94930 L390.14856 189.87518 L390.93042 187.63591 L391.71228 177.39740 L392.49414 161.77919 L393.27600 143.22316 L394.05786 123.37545 L394.83972 103.95559 L395.62158 87.49196 L396.40344 76.50208 L397.18530 71.91641 L397.96716 72.70285 L398.74902 77.13259 L399.53088 84.00978 L400.31274 92.37711 L401.09460 100.42278 L401.87646 105.48116 L402.65833 105.51586 L403.44019 100.37936 L404.22205 91.35703 L405.00391 79.74416 L405.78577 66.39379 L406.56763 52.68686 L407.34949 41.28959 L408.13135 35.27565 L408.91321 36.42044 L409.69507 44.64535 L410.47693 59.07915 L411.25879 79.09068 L412.04065 103.83418 L412.82251 131.05905 L413.60437 157.09204 L414.38623 178.38744 L415.16809 192.93262 L415.94995 200.00000 L416.73181 198.96765 L417.51367 189.11499 L418.29553 170.81169 L419.07739 146.43533 L419.85925 119.57210 L420.64111 93.29623 L421.42297 69.50503 L422.20483 49.78897 L422.98669 36.21332 L423.76855 30.58293 L424.55042 32.97662 L425.33228 41.49195 L426.11417 53.62569 L426.89603 67.59630 L427.67789 82.10861 L428.45975 95.27944 L429.24161 104.61464 L430.02347 108.43133 L430.80533 107.02910 L431.58719 102.13169 L432.36905 95.36375 L433.15091 87.71532 L433.93277 80.45892 L434.71463 75.89279 L435.49649 76.49055 L436.27835 83.26256 L437.06021 95.29790 L437.84207 110.94129 L438.62393 128.94347 L439.40579 148.10989 L440.18765 166.18462 L440.96951 179.86661 L441.75137 186.34695 L442.53323 184.65614 L443.31509 175.31660 L444.09695 159.03571 L444.87881 136.36101 L445.66068 108.73222 L446.44254 79.28318 L447.22440 51.96262 L448.00626 29.77867 L448.78812 14.14825 L449.56998 5.82915 L450.35184 5.80213 L451.13370 14.66248 L451.91556 31.29031 L452.69742 52.72459 L453.47928 75.64841 L454.26114 97.78082 L455.04300 117.66711 L455.82486 133.58470 L456.60672 143.45984 L457.38858 146.19843 L458.17044 142.74881 L458.95230 135.43378 L459.73416 126.33241 L460.51602 116.67753 L461.29788 107.74328 L462.07974 101.59971 L462.86160 100.31333 L463.64346 104.39046 L464.42532 112.42045 L465.20718 122.35785 L465.98904 132.76613 L466.77090 142.53363 L467.55276 149.78741 L468.33463 151.89644 L469.11649 146.95316 L469.89835 135.02766 L470.68021 117.70209 L471.46207 96.63458 L472.24393 73.09138 L473.02579 48.89892 L473.80765 27.18171 L474.58951 11.46442 L475.37140 3.94654 L476.15326 4.92800 L476.93512 13.85427 L477.71698 30.33471 L478.49884 53.67803 L479.28070 81.69474 L480.06256 110.67703 L480.84442 136.95027 L481.62628 158.28430 L482.40814 173.65479 L483.19000 182.07698 L483.97186 182.41704 L484.75372 174.59924 L485.53558 160.54286 L486.31744 143.38304 L487.09930 125.76997 L487.88116 109.22232 L488.66302 95.01399 L489.44489 84.96951 L490.22675 80.73944 L491.00861 82.34129 L491.79047 87.90732 L492.57233 95.06319 L493.35419 102.24488 L494.13605 108.45395 L494.91791 112.17010 L495.69977 111.31241 L496.48163 104.64348 L497.26349 92.92118 L498.04535 78.32033 L498.82721 62.88960 L499.60907 47.99770 L500.39093 35.23367 L501.17279 27.13652 L501.95465 26.33416 L502.73651 33.89807 L503.51837 48.88280 L504.30023 69.50416 L505.08209 94.29526 L505.86395 121.76488 L506.64581 149.29424 L507.42767 173.16898 L508.20953 190.13481 L508.99139 198.76393 L509.77325 199.12770 L510.55511 191.50949 L511.33698 176.07826 L512.11884 153.95709 L512.90070 128.03914 L513.68256 102.11884 L514.46442 79.14304 L515.24628 60.56338 L516.02814 47.26651 L516.81000 40.45066 L517.59186 41.00783 L518.37372 48.18108 L519.15558 59.42257 L519.93744 71.86081 L520.71930 83.67317 L521.50116 93.85597 L522.28302 101.11074 L523.06488 103.74231 L523.84674 100.97321 L524.62860 93.99243 L525.41046 85.27718 L526.19232 76.96766 L526.97418 70.26214 L527.75604 66.30586 L528.53790 66.95125 L529.31976 73.96814 L530.10162 87.49998 L530.88348 105.72285 L531.66534 126.14583 L532.44720 146.87415 L533.22906 166.34506 L534.01093 182.26155 L534.79279 191.61398 L535.57465 192.17831 L536.35651 183.78386 L537.13837 167.85840 L537.92023 145.99899 L538.70209 119.50644 L539.48395 90.33605 L540.26581 61.82994 L541.04767 37.80945 L541.82953 20.83699 L542.61139 11.62572 L543.39325 10.06642 L544.17511 16.22699 L544.95697 29.86687 L545.73883 49.22089 L546.52069 70.95971 L547.30255 91.72528 L548.08441 109.52819 L548.86627 123.49841 L549.64813 132.71240 L550.43005 136.00175 L551.21191 133.16180 L551.99377 125.89429 L552.77563 117.03771 L553.55750 108.87923 L554.33936 102.52444 L555.12122 98.80171 L555.90308 99.07729 L556.68494 104.55070 L557.46680 114.81538 L558.24866 127.62498 L559.03052 140.28850 L559.81238 151.00133 L560.59424 158.61058 L561.37610 161.53488 L562.15796 157.72777 L562.93982 146.08086 L563.72168 127.56956 L564.50354 104.66541 L565.28540 79.78002 L566.06726 54.69521 L566.84912 31.44564 L567.63098 13.02850 L568.41284 2.52272 L569.19470 1.42394 L569.97656 9.16530 L570.75842 24.27903 L571.54028 45.53911 L572.32214 71.60863 L573.10400 99.92989 L573.88586 126.75397 L574.66772 148.69772 L575.44958 164.11574 L576.23145 172.78264 L577.01331 174.61899 L577.79517 169.38055 L578.57703 157.74483 L579.35889 142.14684 L580.14075 125.92993 L580.92261 111.61686 L581.70447 100.28069 L582.48633 92.49147 L583.26819 89.20678 L584.05005 91.16423 L584.83191 97.54568 L585.61377 105.83788 L586.39563 113.29826 L587.17749 118.32175 L587.95935 120.20135 L588.74121 118.00146 L589.52307 110.44015 L590.30493 97.18542 L591.08679 79.88457 L591.86865 61.46581 L592.65051 44.49343 L593.43237 30.54442 L594.21423 21.08044 L594.99609 18.19481 L595.77795 23.81157 L596.55981 38.13534 L597.34167 59.30763 L598.12354 84.70859 L598.90540 112.22590 L599.68726 140.00011 L600.46912 165.37126 L601.25098 184.91650 L602.03284 195.96638 L602.81470 197.89188 L603.59656 191.66983 L604.37842 178.47308 L605.16028 159.22389 L605.94214 135.56104 L606.72400 110.58593 L607.50586 87.96561 L608.28772 70.20125 L609.06958 58.04068 L609.85144 51.50356 L610.63330 50.87523 L611.41516 56.21203 L612.19702 66.11149 L612.97888 77.65754 L613.76074 87.93762 L614.54260 95.42056 L615.32446 99.68737 L616.10632 100.23858 L616.88818 96.28436 L617.67004 87.93671 L618.45190 77.13804 L619.23376 66.88116 L620.01563 59.51453 L620.79749 56.10904 L621.57935 57.36421 L622.36121 64.42873 L623.14307 78.20545 L623.92493 97.92482 L624.70679 120.92732 L625.48865 144.07651 L626.27051 165.10938 L627.05237 182.42210 L627.83423 194.00917 L628.61609 197.44553 L629.39795 191.30621 L630.17981 176.32596 L630.96167 154.82188 L631.74353 129.14455 L632.52539 101.11028 L633.30725 72.88273 L634.08911 47.67656 L634.87097 28.86756 L635.65283 18.31417 L636.43469 15.86271 L637.21655 20.49095 L637.99841 31.43117 L638.78027 47.79731 L639.56213 67.45594 L640.34399 87.03661 L641.12585 103.47278 L641.90771 115.35972 L642.68958 122.62640 L643.47144 125.25462 L644.25330 122.96541 L645.03516 116.30758 L645.81702 107.49845 L646.59888 99.58471 L647.38074 94.72626 L648.16260 93.58292 L648.94446 96.27926 L649.72632 103.31458 L650.50818 114.97552 L651.29010 130.01976 L652.07196 145.55547 L652.85382 158.52356 L653.63568 167.07814 L654.41754 170.35791 L655.19940 167.36617 L655.98126 156.85550 L656.76312 138.62279 L657.54498 114.53295 L658.32684 87.81091 L659.10870 61.38388 L659.89056 37.24194 L660.67242 17.29237 L661.45428 4.08667 L662.23615 0.00000 L663.01801 5.66101 L663.79987 19.58985 L664.58173 39.48324 L665.36359 63.46956 L666.14545 89.84363 L666.92731 116.00677 L667.70917 138.50145 L668.49103 154.52925 L669.27289 163.24370 L670.05475 165.32489 L670.83661 161.58276 L671.61847 152.52641 L672.40033 139.34909 L673.18219 124.69397 L673.96405 111.77706 L674.74591 102.67545 L675.52777 97.75831 L676.30963 96.72878 L677.09149 99.63152 L677.87335 106.36847 L678.65521 115.47601 L679.43707 124.07270 L680.21893 129.37486 L681.00079 130.06886 L681.78265 126.03244 L682.56451 117.12901 L683.34637 102.98196 L684.12823 84.14877 L684.91010 63.03008 L685.69196 43.06977 L686.47382 27.04034 L687.25568 16.39137 L688.03754 12.13893 L688.81940 15.67234 L689.60126 28.04886 L690.38312 48.56015 L691.16498 74.51199 L691.94684 102.63910 L692.72870 130.46092 L693.51056 156.07695 L694.29242 177.11867 L695.07428 190.74796 L695.85614 195.09424 L696.63800 190.43405 L697.41986 178.63347 L698.20172 161.61887 L698.98358 140.82811 L699.76544 118.10816 L700.54730 96.43305 L701.32916 79.02417 L702.11102 67.67883 L702.89288 62.27791 L703.67474 61.92820 L704.45660 66.07938 L705.23846 74.14223 L706.02032 84.34615 L706.80219 93.73398 L707.58405 99.68460 L708.36591 101.25158 L709.14777 98.81490 L709.92963 92.78046 L710.71149 83.24784 L711.49335 71.08244 L712.27521 58.74230 L713.05707 49.42840 L713.83893 45.36185 L714.62079 47.16782 L715.40265 54.84205 L716.18451 68.66625 L716.96637 88.63039 L717.74823 113.12923 L718.53009 138.85777 L719.31195 162.31137 L720.09381 181.18600 L720.87567 194.16924 L721.65753 199.84024 L722.43939 196.57306 L723.22125 183.84805 L724.00311 163.28937 L724.78497 137.96754 L725.56683 110.74866 L726.34869 83.65736 L727.13055 58.72985 L727.91241 38.73518 L728.69427 26.34514 L729.47614 22.55147 L730.25800 26.28740 L731.03986 35.69515 L731.82172 49.36134 L732.60358 66.03201 L733.38544 83.53236 L734.16730 98.78359 L734.94916 109.30381 L735.73102 114.48730 L736.51288 115.16838 L737.29474 112.21824 L738.07660 106.11131 L738.85846 97.91200 L739.64032 90.04585 L740.42218 85.43217 L741.20404 85.78518 L741.98590 91.06084 L742.76776 100.51681 L743.54962 113.73948 L744.33148 130.17984 L745.11334 147.95006 L745.89520 163.79019 L746.67706 174.59996 L747.45892 178.82506 L748.24078 176.18880 L749.02264 166.49350 L749.80450 149.39714 L750.58643 125.58607 L751.36829 97.67851 L752.15015 69.41504 L752.93201 43.93101 L753.71387 23.08920 L754.49573 8.35109 L755.27759 1.56446 L756.05945 4.23749 L756.84131 16.08591 L757.62317 34.79426 L758.40503 57.41367 L759.18689 81.70441 L759.96875 105.92023 L760.75061 127.75388 L761.53247 144.33258 L762.31433 153.65688 L763.09619 155.78571 L763.87805 152.28845 L764.65991 144.72861 L765.44177 134.13072 L766.22363 121.89639 L767.00549 110.54129 L767.78735 102.83582 L768.56921 100.15320 L769.35107 101.99569 L770.13293 107.15351 L770.91479 114.83566 L771.69666 124.29866 L772.47852 133.71060 L773.26038 140.14900 L774.04224 141.12166 L774.82410 135.89969 L775.60596 125.15978 L776.38782 109.67070 L777.16968 89.94530 L777.95154 67.29440 L778.73340 44.63432 L779.51526 25.61705 L780.29712 12.88779 L781.07898 7.45035 L781.86084 9.61693 L782.64270 19.91004 L783.42456 38.47393 L784.20642 63.76463 L784.98828 92.44248 L785.77014 120.87399 L786.55200 146.53749 L787.33386 167.82396 L788.11572 182.94965 L788.89758 189.87537 L789.67944 187.63602 L790.46130 177.39735 L791.24316 161.77907 L792.02502 143.22302 L792.80688 123.37523 L793.58875 103.95538 L794.37061 87.49176 L795.15247 76.50192 L795.93433 71.91628 L796.71619 72.70276 L797.49805 77.13247 L798.27991 84.00965 L799.06177 92.37696 L799.84363 100.42259 L800.62549 105.56946 L801.40735 105.88775 L802.18921 101.25960 L802.97107 92.91381 L803.75293 82.07529 L804.53479 69.55605 L805.31665 56.67733 L806.09851 45.96001 L806.88037 40.26987 L807.66223 41.21613 L808.44409 48.66590 L809.22595 61.77374 L810.00781 79.94940 L810.78967 102.41171 L811.57153 127.07285 L812.35339 150.54898 L813.13525 169.62975 L813.91711 182.57056 L814.69897 188.81261 L815.48083 187.85197 L816.26270 179.05653 L817.04456 162.78979 L817.82642 141.25127 L818.60828 117.69864 L819.39014 94.83903 L820.17200 74.25139 L820.95386 57.24903 L821.73572 45.62578 L822.51758 40.96088 L823.29944 43.25729 L824.08130 50.73891 L824.86316 61.16592 L825.64502 73.04880 L826.42688 85.37432 L827.20874 96.56255 L827.99060 104.43935 L828.77246 107.56223 L829.55432 106.28253 L830.33618 102.17936 L831.11804 96.62738 L831.89990 90.33743 L832.68176 84.26775 L833.46362 80.34537 L834.24548 80.68008 L835.02734 86.06120 L835.80920 95.58549 L836.59106 107.80042 L837.37292 121.76954 L838.15479 136.69432 L838.93665 150.82623 L839.71851 161.46069 L840.50037 166.34613 L841.28223 164.87952 L842.06409 157.70451 L842.84595 145.44963 L843.62781 128.42107 L844.40967 107.62462 L845.19153 85.53999 L845.97339 65.31921 L846.75525 49.20057 L847.53711 37.99521 L848.31897 32.04700 L849.10083 32.09660 L849.88269 38.70845 L850.66455 51.02052 L851.44647 66.62823 L852.22833 82.95106 L853.01019 98.45777 L853.79205 112.36355 L854.57391 123.52325 L855.35577 130.31616 L856.13763 131.87325 L856.91949 129.04373 L857.70135 123.75120 L858.48322 117.51105 L859.26508 110.95596 L860.04694 104.76812 L860.82880 100.45474 L861.61066 99.64055 L862.39252 102.65575 L863.17438 108.25449 L863.95624 114.83369 L864.73810 121.54842 L865.51996 127.94931 L866.30182 132.87343 L867.08368 134.38132 L867.86554 131.08141 L868.64740 123.22302 L869.42926 112.18839 L870.21112 99.13461 L870.99298 84.61391 L871.77484 69.55537 L872.55670 56.03822 L873.33856 46.52825 L874.12042 42.36442 L874.90228 43.34363 L875.68414 48.79185 L876.46600 58.53858 L877.24786 72.43928 L878.02972 89.19456 L878.81158 106.26853 L879.59344 121.25214 L880.37531 133.04851 L881.15717 141.50003 L881.93903 146.19141 L882.72089 146.23680 L883.50275 141.41510 L884.28461 133.06218 L885.06647 123.37990 L885.84833 113.93883 L886.63019 105.22231 L887.41205 97.60653 L888.19391 92.20535 L888.97577 90.24263 L889.75763 91.71860 L890.53949 95.19346 L891.32135 99.04855 L892.10321 102.61464 L892.88507 105.79137 L893.66693 107.89108 L894.44879 107.50697 L895.23065 103.75592 L896.01251 97.28963 L896.79437 89.71567 L897.57623 82.19020 L898.35809 75.01785 L899.13995 68.64600 L899.92181 64.48193 L900.70367 64.19984 L901.48553 68.31573 L902.26740 75.86621 L903.04926 85.56843 L903.83112 96.86559 L904.61298 109.49413 L905.39484 122.31516 L906.17670 133.21175 L906.95856 140.40031 L907.74042 143.54056 L908.52228 143.27309 L909.30414 139.93123 L910.08600 133.24637 L910.86786 123.42118 L911.64972 111.98707 L912.43158 101.10913 L913.21344 92.11488 L913.99530 85.08996 L914.77716 79.92725 L915.55902 77.24810 L916.34088 77.84761 L917.12274 81.42006 L917.90460 86.38005 L918.68646 91.13464 L919.46832 95.19537 L920.25018 98.75711 L921.03204 101.48341 L921.81390 102.30743 L922.59576 100.60876 L923.37762 97.16987 L924.15948 93.56194 L924.94135 90.72745 L925.72321 88.59680 L926.50507 87.12432 L927.28693 87.16649 L928.06879 89.86147 L928.85065 95.27739 L929.63251 102.15585 L930.41437 109.11839 L931.19623 115.73382 L931.97809 122.07934 L932.75995 127.53827 L933.54181 130.64034 L934.32367 130.29988 L935.10553 126.84591 L935.88739 121.48380 L936.66925 114.94434 L937.45111 107.14782 L938.23297 98.26237 L939.01483 89.57436 L939.79669 82.83195 L940.57855 78.83238 L941.36041 77.08811 L942.14227 76.94848 L942.92413 78.58617 L943.70599 82.49176 L944.48785 88.22633 L945.26971 94.24491 L946.05157 99.14651 L946.83344 102.74358 L947.61530 105.58460 L948.39716 107.67791 L949.17902 108.23497 L949.96088 106.80178 L950.74280 104.18851 L951.52466 101.85110 L952.30652 100.49226 L953.08838 99.71662 L953.87024 99.11938 L954.65210 99.22377 L955.43396 100.91726 L956.21582 104.14621 L956.99768 107.68777 L957.77954 110.36299 L958.56140 112.08733 L959.34326 113.39365 L960.12512 114.17532 L960.90698 113.46284 L961.68884 110.59793 L962.47070 106.20773 L963.25256 101.62643 L964.03442 97.52575 L964.81628 93.58435 L965.59814 89.57481 L966.38000 86.28222 L967.16187 84.90887 L967.94373 85.72771 L968.72559 87.81076 L969.50745 90.20109 L970.28931 92.93109 L971.07117 96.52655 L971.85303 100.74577 L972.63489 104.36860 L973.41675 106.39661 L974.19861 107.06420 L974.98047 107.30271 L975.76233 107.41360 L976.54419 106.77592 L977.32605 104.96111 L978.10791 102.66769 L978.88977 101.12758 L979.67163 100.74798 L980.45349 100.81724 L981.23535 100.64637 L982.01721 100.55379 L982.79907 101.33623 L983.58093 102.98041 L984.36279 104.43193 L985.14465 104.78558 L985.92651 104.29671 L986.70837 103.85404 L987.49023 103.66929 L988.27209 103.00430 L989.05396 101.30717 L989.83582 99.16537 L990.61768 97.72658 L991.39954 97.34902 L992.18140 97.30884 L992.96326 96.93803 L993.74512 96.60017 L994.52698 97.15047 L995.30884 98.63530 L996.09070 100.05089 L996.87256 100.52590 L997.65442 100.32885 L998.43628 100.34136 L999.21814 100.75093" /><path fill="none" stroke="#000000" d="M0 300.00000  L0.00000 300.00000  L0.78186 300.00000  L1.56372 300.00000  L2.34558 300.00000  L3.12744 300.00000  L3.90930 300.00000  L4.69116 300.00000  L5.47303 300.00000  L6.25489 300.00000  L7.03675 300.00000  L7.81861 300.00000  L8.60047 300.00000  L9.38233 300.00000  L10.16419 300.00000  L10.94605 300.00000  L11.72791 300.00000  L12.50977 300.00000  L13.29163 300.00000  L14.07349 300.00000  L14.85536 300.00000  L15.63722 300.00000  L16.41908 300.00000  L17.20094 300.00000  L17.98280 300.00000  L18.76466 300.00000  L19.54652 300.00000  L20.32838 300.00000  L21.11024 300.00000  L21.89210 300.00000  L22.67396 300.00000  L23.45583 300.00000  L24.23769 300.00000  L25.01955 300.00000  L25.80141 300.00000  L26.58327 300.00000  L27.36513 300.00000  L28.14699 300.00000  L28.92885 300.00000  L29.71071 300.00000  L30.49257 300.00000  L31.27443 300.00000  L32.05629 300.00000  L32.83815 300.00000  L33.62001 300.00000  L34.40188 300.00000  L35.18374 300.00000  L35.96560 300.00000  L36.74746 300.00000  L37.52932 300.00000  L38.31118 300.00000  L39.09304 300.00000  L39.87490 300.00000  L40.65676 300.00000  L41.43863 300.00000  L42.22049 300.00000  L43.00235 300.00000  L43.78421 300.00000  L44.56607 300.00000  L45.34793 300.00000  L46.12979 300.00000  L46.91165 300.00000  L47.69351 300.00000  L48.47537 300.00000  L49.25723 300.00000  L50.03909 300.00000  L50.82095 300.00000  L51.60281 300.00000  L52.38467 300.00000  L53.16653 300.00000  L53.94840 300.00000  L54.73026 300.00000  L55.51212 300.00000  L56.29398 300.00000  L57.07584 300.00000  L57.85770 300.00000  L58.63956 300.00000  L59.42142 300.00000  L60.20329 300.00000  L60.98515 300.00000  L61.76701 300.00000  L62.54887 300.00000  L63.33073 300.00000  L64.11259 300.00000  L64.89445 300.00000  L65.67631 300.00000  L66.45817 300.00000  L67.24003 300.00000  L68.02189 300.00000  L68.80376 300.00000  L69.58562 300.00000  L70.36748 300.00000  L71.14934 300.00000  L71.93120 300.00000  L72.71306 300.00000  L73.49492 300.00000  L74.27678 300.00000  L75.05864 300.00000  L75.84050 300.00000  L76.62236 300.00000  L77.40422 300.00000  L78.18608 300.00000  L78.96794 300.00000  L79.74980 300.00000  L80.53166 300.00000  L81.31352 300.00000  L82.09539 300.00000  L82.87725 300.00000  L83.65911 300.00000  L84.44097 300.00000  L85.22283 300.00000  L86.00469 300.00000  L86.78655 300.00000  L87.56841 300.00000  L88.35027 300.00000  L89.13213 300.00000  L89.91399 300.00000  L90.69585 300.00000  L91.47771 300.00000  L92.25957 300.00000  L93.04144 300.00000  L93.82330 300.00000  L94.60516 300.00000  L95.38702 300.00000  L96.16888 300.00000  L96.95074 300.00000  L97.73260 300.00000  L98.51447 300.00000  L99.29633 300.00000  L100.07819 300.00000  L100.86005 300.00000  L101.64191 300.00000  L102.42377 300.00000  L103.20563 300.00000  L103.98749 300.00000  L104.76935 300.00000  L105.55121 300.00000  L106.33307 300.00000  L107.11494 300.00000  L107.89680 300.00000  L108.67866 300.00000  L109.46052 300.00000  L110.24238 300.00000  L111.02424 300.00000  L111.80610 300.00000  L112.58796 300.00000  L113.36982 300.00000  L114.15168 300.00000  L114.93354 300.00000  L115.71540 300.00000  L116.49726 300.00000  L117.27912 300.00000  L118.06098 300.00000  L118.84285 300.00000  L119.62471 300.00000  L120.40657 300.00000  L121.18843 300.00000  L121.97029 300.00000  L122.75215 300.00000  L123.53401 300.00000  L124.31587 300.00000  L125.09773 300.00000  L125.87959 300.00000  L126.66145 300.00000  L127.44331 300.00000  L128.22517 300.00000  L129.00703 300.00000  L129.78889 300.00000  L130.57076 300.00000  L131.35262 300.00000  L132.13448 300.00000  L132.91634 300.00000  L133.69820 300.00000  L134.48006 300.00000  L135.26192 300.00000  L136.04378 300.00000  L136.82564 300.00000  L137.60751 300.00000  L138.38937 300.00000  L139.17123 300.00000  L139.95309 300.00000  L140.73495 300.00000  L141.51682 300.00000  L142.29868 300.00000  L143.08054 300.00000  L143.86240 300.00000  L144.64426 300.00000  L145.42612 300.00000  L146.20798 300.00000  L146.98984 300.00000  L147.77170 300.00000  L148.55356 300.00000  L149.33542 300.00000  L150.11728 300.00000  L150.89914 300.00000  L151.68100 300.00000  L152.46286 300.00000  L153.24472 300.00000  L154.02658 300.00000  L154.80844 300.00000  L155.59030 300.00000  L156.37216 300.00000  L157.15402 300.00000  L157.93588 300.00000  L158.71774 300.00000  L159.49960 300.00000  L160.28146 300.00000  L161.06332 300.00000  L161.84518 300.00000  L162.62704 300.00000  L163.40892 300.00000  L164.19078 300.00000  L164.97264 300.00000  L165.75450 300.00000  L166.53636 300.00000  L167.31822 300.00000  L168.10008 300.00000  L168.88194 300.00000  L169.66380 300.00000  L170.44566 300.00000  L171.22752 300.00000  L172.00938 300.00000  L172.79124 300.00000  L173.57310 300.00000  L174.35497 300.00000  L175.13683 300.00000  L175.91869 300.00000  L176.70055 300.00000  L177.48241 300.00000  L178.26427 300.00000  L179.04613 300.00000  L179.82799 300.00000  L180.60985 300.00000  L181.39171 300.00000  L182.17357 300.00000  L182.95543 300.00000  L183.73729 300.00000  L184.51915 300.00000  L185.30101 300.00000  L186.08287 300.00000  L186.86473 300.00000  L187.64661 300.00000  L188.42847 300.00000  L189.21033 300.00000  L189.99219 300.00000  L190.77405 300.00000  L191.55591 300.00000  L192.33777 300.00000  L193.11963 300.00000  L193.90149 300.00000  L194.68335 300.00000  L195.46521 300.00000  L196.24707 300.00000  L197.02893 300.00000  L197.81079 300.00000  L198.59265 300.00000  L199.37451 300.00000  L200.15637 300.00000  L200.93823 300.00000  L201.72009 300.00000  L202.50195 300.00000  L203.28381 300.00000  L204.06567 300.00000  L204.84753 300.00000  L205.62939 300.00000  L206.41125 300.00000  L207.19312 300.00000  L207.97498 300.00000  L208.75684 300.00000  L209.53870 300.00000  L210.32056 300.00000  L211.10242 300.00000  L211.88428 300.00000  L212.66614 300.00000  L213.44801 300.00000  L214.22987 300.00000  L215.01173 300.00000  L215.79359 300.00000  L216.57545 300.00000  L217.35732 300.00000  L218.13918 300.00000  L218.92104 300.00000  L219.70290 300.00000  L220.48476 300.00000  L221.26662 300.00000  L222.04848 300.00000  L222.83034 300.00000  L223.61220 300.00000  L224.39406 300.00000  L225.17592 300.00000  L225.95778 300.00000  L226.73964 300.00000  L227.52150 300.00000  L228.30336 300.00000  L229.08522 300.00000  L229.86708 300.00000  L230.64894 300.00000  L231.43080 300.00000  L232.21266 300.00000  L232.99452 300.00000  L233.77638 300.00000  L234.55824 300.00000  L235.34010 300.00000  L236.12196 300.00000  L236.90382 300.00000  L237.68570 300.00000  L238.46756 300.00000  L239.24942 300.00000  L240.03128 300.00000  L240.81314 300.00000  L241.59500 300.00000  L242.37686 300.00000  L243.15872 300.00000  L243.94058 300.00000  L244.72244 300.00000  L245.50430 300.00000  L246.28616 300.00000  L247.06802 300.00000  L247.84988 300.00000  L248.63174 300.00000  L249.41360 300.00000  L250.19547 300.00000  L250.97733 300.00000  L251.75919 300.00000  L252.54105 300.00000  L253.32291 300.00000  L254.10477 300.00000  L254.88663 300.00000  L255.66849 300.00000  L256.45035 300.00000  L257.23221 300.00000  L258.01407 300.00000  L258.79593 300.00000  L259.57779 300.00000  L260.35965 300.00000  L261.14151 300.00000  L261.92337 300.00000  L262.70523 300.00000  L263.48709 300.00000  L264.26895 300.00000  L265.05081 300.00000  L265.83267 300.00000  L266.61453 300.00000  L267.39639 300.00000  L268.17825 300.00000  L268.96011 300.00000  L269.74197 300.00000  L270.52383 300.00000  L271.30569 300.00000  L272.08755 300.00000  L272.86942 300.00000  L273.65128 300.00000  L274.43314 300.00000  L275.21503 300.00000  L275.99689 300.00000  L276.77875 300.00000  L277.56061 300.00000  L278.34247 300.00000  L279.12433 300.00000  L279.90619 300.00000  L280.68805 300.00000  L281.46991 300.00000  L282.25177 300.00000  L283.03363 300.00000  L283.81549 300.00000  L284.59735 300.00000  L285.37921 300.00000  L286.16107 300.00000  L286.94293 300.00000  L287.72479 300.00000  L288.50665 300.00000  L289.28851 300.00000  L290.07037 300.00000  L290.85223 300.00000  L291.63409 300.00000  L292.41595 300.00000  L293.19781 300.00000  L293.97968 300.00000  L294.76154 300.00000  L295.54340 300.00000  L296.32526 300.00000  L297.10712 300.00000  L297.88898 300.00000  L298.67084 300.00000  L299.45270 300.00000  L300.23456 300.00000  L301.01642 300.00000  L301.79828 300.00000  L302.58014 300.00000  L303.36200 300.00000  L304.14386 300.00000  L304.92572 300.00000  L305.70758 300.00000  L306.48944 300.00000  L307.27130 300.00000  L308.05316 300.00000  L308.83502 300.00000  L309.61688 300.00000  L310.39874 300.00000  L311.18060 300.00000  L311.96246 300.00000  L312.74432 300.00000  L313.52618 300.00000  L314.30804 300.00000  L315.08990 300.00000  L315.87177 300.00000  L316.65363 300.00000  L317.43549 300.00000  L318.21735 300.00000  L318.99921 300.00000  L319.78107 300.00000  L320.56293 300.00000  L321.34479 300.00000  L322.12665 300.00000  L322.90851 300.00000  L323.69037 300.00000  L324.47223 300.00000  L325.25409 300.00000  L326.03598 300.00000  L326.81784 300.00000  L327.59970 300.00000  L328.38156 300.00000  L329.16342 300.00000  L329.94528 300.00000  L330.72714 300.00000  L331.50900 300.00000  L332.29086 300.00000  L333.07272 300.00000  L333.85458 300.00000  L334.63644 300.00000  L335.41830 300.00000  L336.20016 300.00000  L336.98203 300.00000  L337.76389 300.00000  L338.54575 300.00000  L339.32761 300.00000  L340.10947 300.00000  L340.89133 300.00000  L341.67319 300.00000  L342.45505 300.00000  L343.23691 300.00000  L344.01877 300.00000  L344.80063 300.00000  L345.58249 300.00000  L346.36435 300.00000  L347.14621 300.00000  L347.92807 300.00000  L348.70993 300.00000  L349.49179 300.00000  L350.27365 300.00000  L351.05551 300.00000  L351.83737 300.00000  L352.61923 300.00000  L353.40109 300.00000  L354.18295 300.00000  L354.96481 300.00000  L355.74667 300.00000  L356.52853 300.00000  L357.31039 300.00000  L358.09225 300.00000  L358.87411 300.00000  L359.65598 300.00000  L360.43784 300.00000  L361.21970 300.00000  L362.00156 300.00000  L362.78342 300.00000  L363.56528 300.00000  L364.34714 300.00000  L365.12900 300.00000  L365.91086 300.00000  L366.69272 300.00000  L367.47458 300.00000  L368.25644 300.00000  L369.03830 300.00000  L369.82016 300.00000  L370.60202 300.00000  L371.38388 300.00000  L372.16574 300.00000  L372.94760 300.00000  L373.72946 300.00000  L374.51132 300.00000  L375.29321 300.00000  L376.07507 300.00000  L376.85693 300.00000  L377.63879 300.00000  L378.42065 300.00000  L379.20251 300.00000  L379.98438 300.00000  L380.76624 300.00000  L381.54810 300.00000  L382.32996 300.00000  L383.11182 300.00000  L383.89368 300.00000  L384.67554 300.00000  L385.45740 300.00000  L386.23926 300.00000  L387.02112 300.00000  L387.80298 300.00000  L388.58484 300.00000  L389.36670 300.00000  L390.14856 300.00000  L390.93042 300.00000  L391.71228 300.00000  L392.49414 300.00000  L393.27600 300.00000  L394.05786 300.00000  L394.83972 300.00000  L395.62158 300.00000  L396.40344 300.00000  L397.18530 300.00000  L397.96716 300.00000  L398.74902 300.00000  L399.53088 300.00000  L400.31274 300.00000  L401.09460 300.00000  L401.87646 300.00000  L402.65833 300.00000  L403.44019 300.00000  L404.22205 300.00000  L405.00391 300.00000  L405.78577 300.00000  L406.56763 300.00000  L407.34949 300.00000  L408.13135 300.00000  L408.91321 300.00000  L409.69507 300.00000  L410.47693 300.00000  L411.25879 300.00000  L412.04065 300.00000  L412.82251 300.00000  L413.60437 300.00000  L414.38623 300.00000  L415.16809 300.00000  L415.94995 300.00000  L416.73181 300.00000  L417.51367 300.00000  L418.29553 300.00000  L419.07739 300.00000  L419.85925 300.00000  L420.64111 300.00000  L421.42297 300.00000  L422.20483 300.00000  L422.98669 300.00000  L423.76855 300.00000  L424.55042 300.00000  L425.33228 300.00000  L426.11417 300.00000  L426.89603 300.00000  L427.67789 300.00000  L428.45975 300.00000  L429.24161 300.00000  L430.02347 300.00000  L430.80533 300.00000  L431.58719 300.00000  L432.36905 300.00000  L433.15091 300.00000  L433.93277 300.00000  L434.71463 300.00000  L435.49649 300.00000  L436.27835 300.00000  L437.06021 300.00000  L437.84207 300.00000  L438.62393 300.00000  L439.40579 300.00000  L440.18765 300.00000  L440.96951 300.00000  L441.75137 300.00000  L442.53323 300.00000  L443.31509 300.00000  L444.09695 300.00000  L444.87881 300.00000  L445.66068 300.00000  L446.44254 300.00000  L447.22440 300.00000  L448.00626 300.00000  L448.78812 300.00000  L449.56998 300.00000  L450.35184 300.00000  L451.13370 300.00000  L451.91556 300.00000  L452.69742 300.00000  L453.47928 300.00000  L454.26114 300.00000  L455.04300 300.00000  L455.82486 300.00000  L456.60672 300.00000  L457.38858 300.00000  L458.17044 300.00000  L458.95230 300.00000  L459.73416 300.00000  L460.51602 300.00000  L461.29788 300.00000  L462.07974 300.00000  L462.86160 300.00000  L463.64346 300.00000  L464.42532 300.00000  L465.20718 300.00000  L465.98904 300.00000  L466.77090 300.00000  L467.55276 300.00000  L468.33463 300.00000  L469.11649 300.00000  L469.89835 300.00000  L470.68021 300.00000  L471.46207 300.00000  L472.24393 300.00000  L473.02579 300.00000  L473.80765 300.00000  L474.58951 300.00000  L475.37140 300.00000  L476.15326 300.00000  L476.93512 300.00000  L477.71698 300.00000  L478.49884 300.00000  L479.28070 300.00000  L480.06256 300.00000  L480.84442 300.00000  L481.62628 300.00000  L482.40814 300.00000  L483.19000 300.00000  L483.97186 300.00000  L484.75372 300.00000  L485.53558 300.00000  L486.31744 300.00000  L487.09930 300.00000  L487.88116 300.00000  L488.66302 300.00000  L489.44489 300.00000  L490.22675 300.00000  L491.00861 300.00000  L491.79047 300.00000  L492.57233 300.00000  L493.35419 300.00000  L494.13605 300.00000  L494.91791 300.00000  L495.69977 300.00000  L496.48163 300.00000  L497.26349 300.00000  L498.04535 300.00000  L498.82721 300.00000  L499.60907 300.00000  L500.39093 300.00000  L501.17279 300.00000  L501.95465 300.00000  L502.73651 300.00000  L503.51837 300.00000  L504.30023 300.00000  L505.08209 300.00000  L505.86395 300.00000  L506.64581 300.00000  L507.42767 300.00000  L508.20953 300.00000  L508.99139 300.00000  L509.77325 300.00000  L510.55511 300.00000  L511.33698 300.00000  L512.11884 300.00000  L512.90070 300.00000  L513.68256 300.00000  L514.46442 300.00000  L515.24628 300.00000  L516.02814 300.00000  L516.81000 300.00000  L517.59186 300.00000  L518.37372 300.00000  L519.15558 300.00000  L519.93744 300.00000  L520.71930 300.00000  L521.50116 300.00000  L522.28302 300.00000  L523.06488 300.00000  L523.84674 300.00000  L524.62860 300.00000  L525.41046 300.00000  L526.19232 300.00000  L526.97418 300.00000  L527.75604 300.00000  L528.53790 300.00000  L529.31976 300.00000  L530.10162 300.00000  L530.88348 300.00000  L531.66534 300.00000  L532.44720 300.00000  L533.22906 300.00000  L534.01093 300.00000  L534.79279 300.00000  L535.57465 300.00000  L536.35651 300.00000  L537.13837 300.00000  L537.92023 300.00000  L538.70209 300.00000  L539.48395 300.00000  L540.26581 300.00000  L541.04767 300.00000  L541.82953 300.00000  L542.61139 300.00000  L543.39325 300.00000  L544.17511 300.00000  L544.95697 300.00000  L545.73883 300.00000  L546.52069 300.00000  L547.30255 300.00000  L548.08441 300.00000  L548.86627 300.00000  L549.64813 300.00000  L550.43005 300.00000  L551.21191 300.00000  L551.99377 300.00000  L552.77563 300.00000  L553.55750 300.00000  L554.33936 300.00000  L555.12122 300.00000  L555.90308 300.00000  L556.68494 300.00000  L557.46680 300.00000  L558.24866 300.00000  L559.03052 300.00000  L559.81238 300.00000  L560.59424 300.00000  L561.37610 300.00000  L562.15796 300.00000  L562.93982 300.00000  L563.72168 300.00000  L564.50354 300.00000  L565.28540 300.00000  L566.06726 300.00000  L566.84912 300.00000  L567.63098 300.00000  L568.41284 300.00000  L569.19470 300.00000  L569.97656 300.00000  L570.75842 300.00000  L571.54028 300.00000  L572.32214 300.00000  L573.10400 300.00000  L573.88586 300.00000  L574.66772 300.00000  L575.44958 300.00000  L576.23145 300.00000  L577.01331 300.00000  L577.79517 300.00000  L578.57703 300.00000  L579.35889 300.00000  L580.14075 300.00000  L580.92261 300.00000  L581.70447 300.00000  L582.48633 300.00000  L583.26819 300.00000  L584.05005 300.00000  L584.83191 300.00000  L585.61377 300.00000  L586.39563 300.00000  L587.17749 300.00000  L587.95935 300.00000  L588.74121 300.00000  L589.52307 300.00000  L590.30493 300.00000  L591.08679 300.00000  L591.86865 300.00000  L592.65051 300.00000  L593.43237 300.00000  L594.21423 300.00000  L594.99609 300.00000  L595.77795 300.00000  L596.55981 300.00000  L597.34167 300.00000  L598.12354 300.00000  L598.90540 300.00000  L599.68726 300.00000  L600.46912 300.00000  L601.25098 300.00000  L602.03284 300.00000  L602.81470 300.00000  L603.59656 300.00000  L604.37842 300.00000  L605.16028 300.00000  L605.94214 300.00000  L606.72400 300.00000  L607.50586 300.00000  L608.28772 300.00000  L609.06958 300.00000  L609.85144 300.00000  L610.63330 300.00000  L611.41516 300.00000  L612.19702 300.00000  L612.97888 300.00000  L613.76074 300.00000  L614.54260 300.00000  L615.32446 300.00000  L616.10632 300.00000  L616.88818 300.00000  L617.67004 300.00000  L618.45190 300.00000  L619.23376 300.00000  L620.01563 300.00000  L620.79749 300.00000  L621.57935 300.00000  L622.36121 300.00000  L623.14307 300.00000  L623.92493 300.00000  L624.70679 300.00000  L625.48865 300.00000  L626.27051 300.00000  L627.05237 300.00000  L627.83423 300.00000  L628.61609 300.00000  L629.39795 300.00000  L630.17981 300.00000  L630.96167 300.00000  L631.74353 300.00000  L632.52539 300.00000  L633.30725 300.00000  L634.08911 300.00000  L634.87097 300.00000  L635.65283 300.00000  L636.43469 300.00000  L637.21655 300.00000  L637.99841 300.00000  L638.78027 300.00000  L639.56213 300.00000  L640.34399 300.00000  L641.12585 300.00000  L641.90771 300.00000  L642.68958 300.00000  L643.47144 300.00000  L644.25330 300.00000  L645.03516 300.00000  L645.81702 300.00000  L646.59888 300.00000  L647.38074 300.00000  L648.16260 300.00000  L648.94446 300.00000  L649.72632 300.00000  L650.50818 300.00000  L651.29010 300.00000  L652.07196 300.00000  L652.85382 300.00000  L653.63568 300.00000  L654.41754 300.00000  L655.19940 300.00000  L655.98126 300.00000  L656.76312 300.00000  L657.54498 300.00000  L658.32684 300.00000  L659.10870 300.00000  L659.89056 300.00000  L660.67242 300.00000  L661.45428 300.00000  L662.23615 300.00000  L663.01801 300.00000  L663.79987 300.00000  L664.58173 300.00000  L665.36359 300.00000  L666.14545 300.00000  L666.92731 300.00000  L667.70917 300.00000  L668.49103 300.00000  L669.27289 300.00000  L670.05475 300.00000  L670.83661 300.00000  L671.61847 300.00000  L672.40033 300.00000  L673.18219 300.00000  L673.96405 300.00000  L674.74591 300.00000  L675.52777 300.00000  L676.30963 300.00000  L677.09149 300.00000  L677.87335 300.00000  L678.65521 300.00000  L679.43707 300.00000  L680.21893 300.00000  L681.00079 300.00000  L681.78265 300.00000  L682.56451 300.00000  L683.34637 300.00000  L684.12823 300.00000  L684.91010 300.00000  L685.69196 300.00000  L686.47382 300.00000  L687.25568 300.00000  L688.03754 300.00000  L688.81940 300.00000  L689.60126 300.00000  L690.38312 300.00000  L691.16498 300.00000  L691.94684 300.00000  L692.72870 300.00000  L693.51056 300.00000  L694.29242 300.00000  L695.07428 300.00000  L695.85614 300.00000  L696.63800 300.00000  L697.41986 300.00000  L698.20172 300.00000  L698.98358 300.00000  L699.76544 300.00000  L700.54730 300.00000  L701.32916 300.00000  L702.11102 300.00000  L702.89288 300.00000  L703.67474 300.00000  L704.45660 300.00000  L705.23846 300.00000  L706.02032 300.00000  L706.80219 300.00000  L707.58405 300.00000  L708.36591 300.00000  L709.14777 300.00000  L709.92963 300.00000  L710.71149 300.00000  L711.49335 300.00000  L712.27521 300.00000  L713.05707 300.00000  L713.83893 300.00000  L714.62079 300.00000  L715.40265 300.00000  L716.18451 300.00000  L716.96637 300.00000  L717.74823 300.00000  L718.53009 300.00000  L719.31195 300.00000  L720.09381 300.00000  L720.87567 300.00000  L721.65753 300.00000  L722.43939 300.00000  L723.22125 300.00000  L724.00311 300.00000  L724.78497 300.00000  L725.56683 300.00000  L726.34869 300.00000  L727.13055 300.00000  L727.91241 300.00000  L728.69427 300.00000  L729.47614 300.00000  L730.25800 300.00000  L731.03986 300.00000  L731.82172 300.00000  L732.60358 300.00000  L733.38544 300.00000  L734.16730 300.00000  L734.94916 300.00000  L735.73102 300.00000  L736.51288 300.00000  L737.29474 300.00000  L738.07660 300.00000  L738.85846 300.00000  L739.64032 300.00000  L740.42218 300.00000  L741.20404 300.00000  L741.98590 300.00000  L742.76776 300.00000  L743.54962 300.00000  L744.33148 300.00000  L745.11334 300.00000  L745.89520 300.00000  L746.67706 300.00000  L747.45892 300.00000  L748.24078 300.00000  L749.02264 300.00000  L749.80450 300.00000  L750.58643 300.00000  L751.36829 300.00000  L752.15015 300.00000  L752.93201 300.00000  L753.71387 300.00000  L754.49573 300.00000  L755.27759 300.00000  L756.05945 300.00000  L756.84131 300.00000  L757.62317 300.00000  L758.40503 300.00000  L759.18689 300.00000  L759.96875 300.00000  L760.75061 300.00000  L761.53247 300.00000  L762.31433 300.00000  L763.09619 300.00000  L763.87805 300.00000  L764.65991 300.00000  L765.44177 300.00000  L766.22363 300.00000  L767.00549 300.00000  L767.78735 300.00000  L768.56921 300.00000  L769.35107 300.00000  L770.13293 300.00000  L770.91479 300.00000  L771.69666 300.00000  L772.47852 300.00000  L773.26038 300.00000  L774.04224 300.00000  L774.82410 300.00000  L775.60596 300.00000  L776.38782 300.00000  L777.16968 300.00000  L777.95154 300.00000  L778.73340 300.00000  L779.51526 300.00000  L780.29712 300.00000  L781.07898 300.00000  L781.86084 300.00000  L782.64270 300.00000  L783.42456 300.00000  L784.20642 300.00000  L784.98828 300.00000  L785.77014 300.00000  L786.55200 300.00000  L787.33386 300.00000  L788.11572 300.00000  L788.89758 300.00000  L789.67944 300.00000  L790.46130 300.00000  L791.24316 300.00000  L792.02502 300.00000  L792.80688 300.00000  L793.58875 300.00000  L794.37061 300.00000  L795.15247 300.00000  L795.93433 300.00000  L796.71619 300.00000  L797.49805 300.00000  L798.27991 300.00000  L799.06177 300.00000  L799.84363 300.00000  L800.62549 300.00000  L801.40735 300.00000  L802.18921 300.00000  L802.97107 300.00000  L803.75293 300.00000  L804.53479 300.00000  L805.31665 300.00000  L806.09851 300.00000  L806.88037 300.00000  L807.66223 300.00000  L808.44409 300.00000  L809.22595 300.00000  L810.00781 300.00000  L810.78967 300.00000  L811.57153 300.00000  L812.35339 300.00000  L813.13525 300.00000  L813.91711 300.00000  L814.69897 300.00000  L815.48083 300.00000  L816.26270 300.00000  L817.04456 300.00000  L817.82642 300.00000  L818.60828 300.00000  L819.39014 300.00000  L820.17200 300.00000  L820.95386 300.00000  L821.73572 300.00000  L822.51758 300.00000  L823.29944 300.00000  L824.08130 300.00000  L824.86316 300.00000  L825.64502 300.00000  L826.42688 300.00000  L827.20874 300.00000  L827.99060 300.00000  L828.77246 300.00000  L829.55432 300.00000  L830.33618 300.00000  L831.11804 300.00000  L831.89990 300.00000  L832.68176 300.00000  L833.46362 300.00000  L834.24548 300.00000  L835.02734 300.00000  L835.80920 300.00000  L836.59106 300.00000  L837.37292 300.00000  L838.15479 300.00000  L838.93665 300.00000  L839.71851 300.00000  L840.50037 300.00000  L841.28223 300.00000  L842.06409 300.00000  L842.84595 300.00000  L843.62781 300.00000  L844.40967 300.00000  L845.19153 300.00000  L845.97339 300.00000  L846.75525 300.00000  L847.53711 300.00000  L848.31897 300.00000  L849.10083 300.00000  L849.88269 300.00000  L850.66455 300.00000  L851.44647 300.00000  L852.22833 300.00000  L853.01019 300.00000  L853.79205 300.00000  L854.57391 300.00000  L855.35577 300.00000  L856.13763 300.00000  L856.91949 300.00000  L857.70135 300.00000  L858.48322 300.00000  L859.26508 300.00000  L860.04694 300.00000  L860.82880 300.00000  L861.61066 300.00000  L862.39252 300.00000  L863.17438 300.00000  L863.95624 300.00000  L864.73810 300.00000  L865.51996 300.00000  L866.30182 300.00000  L867.08368 300.00000  L867.86554 300.00000  L868.64740 300.00000  L869.42926 300.00000  L870.21112 300.00000  L870.99298 300.00000  L871.77484 300.00000  L872.55670 300.00000  L873.33856 300.00000  L874.12042 300.00000  L874.90228 300.00000  L875.68414 300.00000  L876.46600 300.00000  L877.24786 300.00000  L878.02972 300.00000  L878.81158 300.00000  L879.59344 300.00000  L880.37531 300.00000  L881.15717 300.00000  L881.93903 300.00000  L882.72089 300.00000  L883.50275 300.00000  L884.28461 300.00000  L885.06647 300.00000  L885.84833 300.00000  L886.63019 300.00000  L887.41205 300.00000  L888.19391 300.00000  L888.97577 300.00000  L889.75763 300.00000  L890.53949 300.00000  L891.32135 300.00000  L892.10321 300.00000  L892.88507 300.00000  L893.66693 300.00000  L894.44879 300.00000  L895.23065 300.00000  L896.01251 300.00000  L896.79437 300.00000  L897.57623 300.00000  L898.35809 300.00000  L899.13995 300.00000  L899.92181 300.00000  L900.70367 300.00000  L901.48553 300.00000  L902.26740 300.00000  L903.04926 300.00000  L903.83112 300.00000  L904.61298 300.00000  L905.39484 300.00000  L906.17670 300.00000  L906.95856 300.00000  L907.74042 300.00000  L908.52228 300.00000  L909.30414 300.00000  L910.08600 300.00000  L910.86786 300.00000  L911.64972 300.00000  L912.43158 300.00000  L913.21344 300.00000  L913.99530 300.00000  L914.77716 300.00000  L915.55902 300.00000  L916.34088 300.00000  L917.12274 300.00000  L917.90460 300.00000  L918.68646 300.00000  L919.46832 300.00000  L920.25018 300.00000  L921.03204 300.00000  L921.81390 300.00000  L922.59576 300.00000  L923.37762 300.00000  L924.15948 300.00000  L924.94135 300.00000  L925.72321 300.00000  L926.50507 300.00000  L927.28693 300.00000  L928.06879 300.00000  L928.85065 300.00000  L929.63251 300.00000  L930.41437 300.00000  L931.19623 300.00000  L931.97809 300.00000  L932.75995 300.00000  L933.54181 300.00000  L934.32367 300.00000  L935.10553 300.00000  L935.88739 300.00000  L936.66925 300.00000  L937.45111 300.00000  L938.23297 300.00000  L939.01483 300.00000  L939.79669 300.00000  L940.57855 300.00000  L941.36041 300.00000  L942.14227 300.00000  L942.92413 300.00000  L943.70599 300.00000  L944.48785 300.00000  L945.26971 300.00000  L946.05157 300.00000  L946.83344 300.00000  L947.61530 300.00000  L948.39716 300.00000  L949.17902 300.00000  L949.96088 300.00000  L950.74280 300.00000  L951.52466 300.00000  L952.30652 300.00000  L953.08838 300.00000  L953.87024 300.00000  L954.65210 300.00000  L955.43396 300.00000  L956.21582 300.00000  L956.99768 300.00000  L957.77954 300.00000  L958.56140 300.00000  L959.34326 300.00000  L960.12512 300.00000  L960.90698 300.00000  L961.68884 300.00000  L962.47070 300.00000  L963.25256 300.00000  L964.03442 300.00000  L964.81628 300.00000  L965.59814 300.00000  L966.38000 300.00000  L967.16187 300.00000  L967.94373 300.00000  L968.72559 300.00000  L969.50745 300.00000  L970.28931 300.00000  L971.07117 300.00000  L971.85303 300.00000  L972.63489 300.00000  L973.41675 300.00000  L974.19861 300.00000  L974.98047 300.00000  L975.76233 300.00000  L976.54419 300.00000  L977.32605 300.00000  L978.10791 300.00000  L978.88977 300.00000  L979.67163 300.00000  L980.45349 300.00000  L981.23535 300.00000  L982.01721 300.00000  L982.79907 300.00000  L983.58093 300.00000  L984.36279 300.00000  L985.14465 300.00000  L985.92651 300.00000  L986.70837 300.00000  L987.49023 300.00000  L988.27209 300.00000  L989.05396 300.00000  L989.83582 300.00000  L990.61768 300.00000  L991.39954 300.00000  L992.18140 300.00000  L992.96326 300.00000  L993.74512 300.00000  L994.52698 300.00000  L995.30884 300.00000  L996.09070 300.00000  L996.87256 300.00000  L997.65442 300.00000  L998.43628 300.00000  L999.21814 300.00000 " /></g><text x="1000.00000" dx="10" y="100.78419">[-262.42535;266.57373]</text><text x="1000.00000" dx="10" y="300.00000">[-0.00000;0.00000]</text></svg>