<svg xmlns="http://www.w3.org/2000/svg" version="1.1"><g stroke-width="0.6"><path fill="none" stroke="#000000" d="M0 16.89171 L1000.00000 16.89171" /><path fill="none" stroke="#000000" d="M0 300.00000 L1000.00000 300.00000" /><path fill="none" stroke="#000000" d="M500.00000 0 L500.00000 400.00000" /><path fill="none" stroke="#000000" d="M0 16.89171  L0.00000 18.56779 L3.90625 18.60146 L7.81250 18.70753 L11.71875 18.90362 L15.62500 19.22882 L19.53125 19.77035 L23.43750 20.75459 L27.34375 22.99296 L31.25000 33.34080 L35.15625 0.00005 L39.06250 12.51110 L42.96875 15.31031 L46.87500 17.12896 L50.78125 19.36683 L54.68750 24.68136 L58.59375 200.00000 L62.50000 3.14704 L66.40625 9.22455 L70.31250 11.21641 L74.21875 12.22043 L78.12500 12.83026 L82.03125 13.24166 L85.93750 13.53840 L89.84375 13.76270 L93.75000 13.93813 L97.65625 14.07894 L101.56250 14.19436 L105.46875 14.29057 L109.37500 14.37186 L113.28125 14.44142 L117.18750 14.50145 L121.09375 14.55378 L125.00000 14.59976 L128.90625 14.64031 L132.81250 14.67640 L136.71875 14.70869 L140.62500 14.73764 L144.53125 14.76373 L148.43750 14.78743 L152.34375 14.80898 L156.25000 14.82867 L160.15625 14.84662 L164.06250 14.86299 L167.96875 14.87816 L171.87500 14.89219 L175.78125 14.90509 L179.68750 14.91708 L183.59375 14.92820 L187.50000 14.93851 L191.40625 14.94819 L195.31250 14.95718 L199.21875 14.96558 L203.12500 14.97348 L207.03125 14.98084 L210.93750 14.98778 L214.84375 14.99430 L218.75000 15.00040 L222.65625 15.00621 L226.56250 15.01169 L230.46875 15.01682 L234.37500 15.02171 L238.28125 15.02634 L242.18750 15.03067 L246.09375 15.03477 L250.00000 15.03870 L253.90625 15.04251 L257.81250 15.04599 L261.71875 15.04942 L265.62500 15.05251 L269.53125 15.05559 L273.43750 15.05850 L277.34375 15.06130 L281.25000 15.06398 L285.15625 15.06643 L289.06250 15.06882 L292.96875 15.07112 L296.87500 15.07330 L300.78125 15.07541 L304.68750 15.07740 L308.59375 15.07930 L312.50000 15.08113 L316.40625 15.08290 L320.31250 15.08458 L324.21875 15.08616 L328.12500 15.08771 L332.03125 15.08918 L335.93750 15.09058 L339.84375 15.09201 L343.75000 15.09318 L347.65625 15.09437 L351.56250 15.09565 L355.46875 15.09680 L359.37500 15.09787 L363.28125 15.09890 L367.18750 15.09985 L371.09375 15.10083 L375.00000 15.10174 L378.90625 15.10259 L382.81250 15.10342 L386.71875 15.10419 L390.62500 15.10496 L394.53125 15.10567 L398.43750 15.10634 L402.34375 15.10701 L406.25000 15.10759 L410.15625 15.10817 L414.06250 15.10878 L417.96875 15.10929 L421.87500 15.10978 L425.78125 15.11025 L429.68750 15.11069 L433.59375 15.11110 L437.50000 15.11150 L441.40625 15.11187 L445.31250 15.11219 L449.21875 15.11250 L453.12500 15.11276 L457.03125 15.11308 L460.93750 15.11329 L464.84375 15.11356 L468.75000 15.11369 L472.65625 15.11386 L476.56250 15.11400 L480.46875 15.11412 L484.37500 15.11423 L488.28125 15.11430 L492.18750 15.11436 L496.09375 15.11441 L500.00000 15.11442 L503.90625 15.11441 L507.81250 15.11436 L511.71875 15.11430 L515.62500 15.11423 L519.53125 15.11412 L523.43750 15.11401 L527.34375 15.11386 L531.25000 15.11369 L535.15625 15.11354 L539.06250 15.11328 L542.96875 15.11308 L546.87500 15.11276 L550.78125 15.11249 L554.68750 15.11219 L558.59375 15.11187 L562.50000 15.11150 L566.40625 15.11110 L570.31250 15.11069 L574.21875 15.11025 L578.12500 15.10978 L582.03125 15.10929 L585.93750 15.10878 L589.84375 15.10817 L593.75000 15.10759 L597.65625 15.10701 L601.56250 15.10634 L605.46875 15.10567 L609.37500 15.10496 L613.28125 15.10419 L617.18750 15.10342 L621.09375 15.10259 L625.00000 15.10174 L628.90625 15.10083 L632.81250 15.09985 L636.71875 15.09890 L640.62500 15.09787 L644.53125 15.09680 L648.43750 15.09565 L652.34375 15.09437 L656.25000 15.09317 L660.15625 15.09200 L664.06250 15.09058 L667.96875 15.08918 L671.87500 15.08771 L675.78125 15.08616 L679.68750 15.08458 L683.59375 15.08289 L687.50000 15.08113 L691.40625 15.07931 L695.31250 15.07740 L699.21875 15.07541 L703.12500 15.07330 L707.03125 15.07112 L710.93750 15.06882 L714.84375 15.06643 L718.75000 15.06397 L722.65625 15.06130 L726.56250 15.05850 L730.46875 15.05559 L734.37500 15.05251 L738.28125 15.04942 L742.18750 15.04598 L746.09375 15.04251 L750.00000 15.03870 L753.90625 15.03478 L757.81250 15.03066 L761.71875 15.02634 L765.62500 15.02171 L769.53125 15.01682 L773.43750 15.01169 L777.34375 15.00621 L781.25000 15.00040 L785.15625 14.99430 L789.06250 14.98778 L792.96875 14.98084 L796.87500 14.97348 L800.78125 14.96558 L804.68750 14.95718 L808.59375 14.94818 L812.50000 14.93851 L816.40625 14.92819 L820.31250 14.91708 L824.21875 14.90509 L828.12500 14.89219 L832.03125 14.87816 L835.93750 14.86299 L839.84375 14.84662 L843.75000 14.82867 L847.65625 14.80897 L851.56250 14.78743 L855.46875 14.76373 L859.37500 14.73764 L863.28125 14.70869 L867.18750 14.67640 L871.09375 14.64031 L875.00000 14.59976 L878.90625 14.55378 L882.81250 14.50145 L886.71875 14.44142 L890.62500 14.37185 L894.53125 14.29056 L898.43750 14.19436 L902.34375 14.07893 L906.25000 13.93812 L910.15625 13.76268 L914.06250 13.53839 L917.96875 13.24165 L921.87500 12.83026 L925.78125 12.22043 L929.68750 11.21641 L933.59375 9.22454 L937.50000 3.14704 L941.40625 199.99995 L945.31250 24.68136 L949.21875 19.36683 L953.12500 17.12896 L957.03125 15.31030 L960.93750 12.51108 L964.84375 -0.00001 L968.75000 33.34082 L972.65625 22.99299 L976.56250 20.75459 L980.46875 19.77036 L984.37500 19.22882 L988.28125 18.90362 L992.18750 18.70753 L996.09375 18.60146" /><path fill="none" stroke="#000000" d="M0 300.00000  L0.00000 300.00000  L3.90625 298.84332  L7.81250 297.58325  L11.71875 296.08368  L15.62500 294.11896  L19.53125 291.23187  L23.43750 286.26407  L27.34375 275.05527  L31.25000 222.26625  L35.15625 395.48181  L39.06250 332.53683  L42.96875 320.76730  L46.87500 316.05615  L50.78125 314.03436  L54.68750 314.65805  L58.59375 400.00000  L62.50000 301.56366  L66.40625 303.76807  L70.31250 304.11292  L74.21875 304.08527  L78.12500 303.94894  L82.03125 303.78040  L85.93750 303.60684  L89.84375 303.43860  L93.75000 303.27966  L97.65625 303.13116  L101.56250 302.99304  L105.46875 302.86481  L109.37500 302.74567  L113.28125 302.63486  L117.18750 302.53165  L121.09375 302.43527  L125.00000 302.34518  L128.90625 302.26068  L132.81250 302.18130  L136.71875 302.10666  L140.62500 302.03616  L144.53125 301.96964  L148.43750 301.90652  L152.34375 301.84674  L156.25000 301.78998  L160.15625 301.73599  L164.06250 301.68448  L167.96875 301.63531  L171.87500 301.58835  L175.78125 301.54340  L179.68750 301.50031  L183.59375 301.45898  L187.50000 301.41931  L191.40625 301.38110  L195.31250 301.34439  L199.21875 301.30896  L203.12500 301.27481  L207.03125 301.24182  L210.93750 301.20996  L214.84375 301.17914  L218.75000 301.14926  L222.65625 301.12033  L226.56250 301.09229  L230.46875 301.06503  L234.37500 301.03857  L238.28125 301.01291  L242.18750 300.98788  L246.09375 300.96353  L250.00000 300.93982  L253.90625 300.91669  L257.81250 300.89417  L261.71875 300.87219  L265.62500 300.85068  L269.53125 300.82968  L273.43750 300.80917  L277.34375 300.78906  L281.25000 300.76944  L285.15625 300.75021  L289.06250 300.73132  L292.96875 300.71283  L296.87500 300.69470  L300.78125 300.67691  L304.68750 300.65942  L308.59375 300.64227  L312.50000 300.62540  L316.40625 300.60880  L320.31250 300.59250  L324.21875 300.57645  L328.12500 300.56064  L332.03125 300.54507  L335.93750 300.52969  L339.84375 300.51465  L343.75000 300.49969  L347.65625 300.48499  L351.56250 300.47043  L355.46875 300.45612  L359.37500 300.44196  L363.28125 300.42798  L367.18750 300.41412  L371.09375 300.40042  L375.00000 300.38690  L378.90625 300.37350  L382.81250 300.36023  L386.71875 300.34711  L390.62500 300.33411  L394.53125 300.32123  L398.43750 300.30841  L402.34375 300.29578  L406.25000 300.28317  L410.15625 300.27069  L414.06250 300.25830  L417.96875 300.24600  L421.87500 300.23376  L425.78125 300.22162  L429.68750 300.20956  L433.59375 300.19757  L437.50000 300.18561  L441.40625 300.17374  L445.31250 300.16193  L449.21875 300.15012  L453.12500 300.13840  L457.03125 300.12671  L460.93750 300.11508  L464.84375 300.10349  L468.75000 300.09189  L472.65625 300.08035  L476.56250 300.06882  L480.46875 300.05731  L484.37500 300.04584  L488.28125 300.03436  L492.18750 300.02289  L496.09375 300.01144  L500.00000 300.00000  L503.90625 299.98859  L507.81250 299.97711  L511.71875 299.96564  L515.62500 299.95416  L519.53125 299.94269  L523.43750 299.93118  L527.34375 299.91968  L531.25000 299.90814  L535.15625 299.89655  L539.06250 299.88492  L542.96875 299.87332  L546.87500 299.86163  L550.78125 299.84988  L554.68750 299.83810  L558.59375 299.82629  L562.50000 299.81439  L566.40625 299.80246  L570.31250 299.79047  L574.21875 299.77838  L578.12500 299.76624  L582.03125 299.75403  L585.93750 299.74173  L589.84375 299.72931  L593.75000 299.71686  L597.65625 299.70422  L601.56250 299.69159  L605.46875 299.67880  L609.37500 299.66589  L613.28125 299.65289  L617.18750 299.63977  L621.09375 299.62650  L625.00000 299.61310  L628.90625 299.59961  L632.81250 299.58591  L636.71875 299.57205  L640.62500 299.55807  L644.53125 299.54391  L648.43750 299.52960  L652.34375 299.51505  L656.25000 299.50031  L660.15625 299.48538  L664.06250 299.47031  L667.96875 299.45496  L671.87500 299.43939  L675.78125 299.42358  L679.68750 299.40753  L683.59375 299.39120  L687.50000 299.37463  L691.40625 299.35776  L695.31250 299.34058  L699.21875 299.32312  L703.12500 299.30530  L707.03125 299.28717  L710.93750 299.26868  L714.84375 299.24982  L718.75000 299.23056  L722.65625 299.21094  L726.56250 299.19086  L730.46875 299.17032  L734.37500 299.14932  L738.28125 299.12781  L742.18750 299.10583  L746.09375 299.08331  L750.00000 299.06018  L753.90625 299.03650  L757.81250 299.01215  L761.71875 298.98712  L765.62500 298.96143  L769.53125 298.93500  L773.43750 298.90775  L777.34375 298.87970  L781.25000 298.85077  L785.15625 298.82089  L789.06250 298.79007  L792.96875 298.75818  L796.87500 298.72522  L800.78125 298.69104  L804.68750 298.65564  L808.59375 298.61890  L812.50000 298.58072  L816.40625 298.54102  L820.31250 298.49969  L824.21875 298.45663  L828.12500 298.41168  L832.03125 298.36472  L835.93750 298.31555  L839.84375 298.26404  L843.75000 298.21005  L847.65625 298.15326  L851.56250 298.09348  L855.46875 298.03040  L859.37500 297.96384  L863.28125 297.89337  L867.18750 297.81873  L871.09375 297.73932  L875.00000 297.65485  L878.90625 297.56473  L882.81250 297.46838  L886.71875 297.36517  L890.62500 297.25436  L894.53125 297.13522  L898.43750 297.00699  L902.34375 296.86887  L906.25000 296.72034  L910.15625 296.56140  L914.06250 296.39319  L917.96875 296.21960  L921.87500 296.05109  L925.78125 295.91473  L929.68750 295.88708  L933.59375 296.23196  L937.50000 298.43637  L941.40625 200.00000  L945.31250 285.34195  L949.21875 285.96564  L953.12500 283.94388  L957.03125 279.23273  L960.93750 267.46320  L964.84375 204.51822  L968.75000 377.73376  L972.65625 324.94473  L976.56250 313.73596  L980.46875 308.76816  L984.37500 305.88107  L988.28125 303.91632  L992.18750 302.41675  L996.09375 301.15668 " /></g><text x="1000.00000" dx="10" y="16.89171">[-0.36284;0.03347]</text><text x="1000.00000" dx="10" y="300.00000">[-0.36510;0.36510]</text></svg>