<svg xmlns="http://www.w3.org/2000/svg" version="1.1"><g stroke-width="0.6"><path fill="none" stroke="#000000" d="M0 103.84882 L1000.00000 103.84882" /><path fill="none" stroke="#000000" d="M0 299.99997 L1000.00000 299.99997" /><path fill="none" stroke="#000000" d="M500.00000 0 L500.00000 400.00000" /><path fill="none" stroke="#000000" d="M0 103.84882  L0.00000 103.84919 L0.48828 103.84270 L0.97656 103.84919 L1.46484 103.84276 L1.95313 103.84919 L2.44141 103.84285 L2.92969 103.84919 L3.41797 103.84299 L3.90625 103.84919 L4.39453 103.84319 L4.88281 103.84919 L5.37109 103.84344 L5.85938 103.84918 L6.34766 103.84376 L6.83594 103.84918 L7.32422 103.84415 L7.81250 103.84917 L8.30078 103.84463 L8.78906 103.84916 L9.27734 103.84519 L9.76563 103.84914 L10.25391 103.84587 L10.74219 103.84911 L11.23047 103.84669 L11.71875 103.84908 L12.20703 103.84766 L12.69531 103.84902 L13.18359 103.84883 L13.67188 103.84895 L14.16016 103.85023 L14.64844 103.84886 L15.13672 103.85194 L15.62500 103.84872 L16.11328 103.85400 L16.60156 103.84855 L17.08984 103.85654 L17.57813 103.84830 L18.06641 103.85966 L18.55469 103.84798 L19.04297 103.86356 L19.53125 103.84755 L20.01953 103.86850 L20.50781 103.84695 L20.99609 103.87482 L21.48438 103.84611 L21.97266 103.88306 L22.46094 103.84495 L22.94922 103.89398 L23.43750 103.84330 L23.92578 103.90885 L24.41406 103.84090 L24.90234 103.92967 L25.39063 103.83729 L25.87891 103.95988 L26.36719 103.83168 L26.85547 104.00575 L27.34375 103.82254 L27.83203 104.07972 L28.32031 103.80659 L28.80859 104.20922 L29.29688 103.77597 L29.78516 104.46487 L30.27344 103.70782 L30.76172 105.07639 L31.25000 103.51234 L31.73828 107.17567 L32.22656 102.53652 L32.71484 126.83040 L33.20313 0.00002 L33.69141 174.79424 L34.17969 101.16975 L34.66797 109.11255 L35.15625 103.22250 L35.64453 105.65074 L36.13281 103.56234 L36.62109 104.75896 L37.10938 103.67994 L37.59766 104.39909 L38.08594 103.73523 L38.57422 104.21729 L39.06250 103.76617 L39.55078 104.11182 L40.03906 103.78562 L40.52734 104.04451 L41.01563 103.79897 L41.50391 103.99829 L41.99219 103.80885 L42.48047 103.96461 L42.96875 103.81666 L43.45703 103.93872 L43.94531 103.82326 L44.43359 103.91776 L44.92188 103.82923 L45.41016 103.89983 L45.89844 103.83505 L46.38672 103.88361 L46.87500 103.84115 L47.36328 103.86798 L47.85156 103.84797 L48.33984 103.85187 L48.82813 103.85613 L49.31641 103.83401 L49.80469 103.86655 L50.29297 103.81276 L50.78125 103.88059 L51.26953 103.78551 L51.75781 103.90072 L52.24609 103.74781 L52.73438 103.93147 L53.22266 103.69118 L53.71094 103.98219 L54.19922 103.59741 L54.68750 104.07477 L55.17578 103.42109 L55.66406 104.27045 L56.15234 103.01995 L56.64063 104.79785 L57.12891 101.73785 L57.61719 107.15442 L58.10547 91.92332 L58.59375 199.99998 L59.08203 11.27231 L59.57031 113.39558 L60.05859 99.79551 L60.54688 105.71920 L61.03516 102.59221 L61.52344 104.64053 L62.01172 103.25034 L62.50000 104.29087 L62.98828 103.50303 L63.47656 104.13368 L63.96484 103.62582 L64.45313 104.04919 L64.94141 103.69448 L65.42969 103.99830 L65.91797 103.73661 L66.40625 103.96515 L66.89453 103.76425 L67.38281 103.94227 L67.87109 103.78329 L68.35938 103.92577 L68.84766 103.79694 L69.33594 103.91346 L69.82422 103.80702 L70.31250 103.90399 L70.80078 103.81466 L71.28906 103.89655 L71.77734 103.82056 L72.26563 103.89059 L72.75391 103.82521 L73.24219 103.88573 L73.73047 103.82892 L74.21875 103.88171 L74.70703 103.83192 L75.19531 103.87833 L75.68359 103.83438 L76.17188 103.87548 L76.66016 103.83640 L77.14844 103.87305 L77.63672 103.83810 L78.12500 103.87095 L78.61328 103.83952 L79.10156 103.86912 L79.58984 103.84071 L80.07813 103.86752 L80.56641 103.84173 L81.05469 103.86612 L81.54297 103.84260 L82.03125 103.86487 L82.51953 103.84335 L83.00781 103.86375 L83.49609 103.84399 L83.98438 103.86277 L84.47266 103.84455 L84.96094 103.86188 L85.44922 103.84504 L85.93750 103.86107 L86.42578 103.84545 L86.91406 103.86034 L87.40234 103.84583 L87.89063 103.85968 L88.37891 103.84615 L88.86719 103.85908 L89.35547 103.84643 L89.84375 103.85853 L90.33203 103.84668 L90.82031 103.85802 L91.30859 103.84690 L91.79688 103.85754 L92.28516 103.84709 L92.77344 103.85712 L93.26172 103.84727 L93.75000 103.85672 L94.23828 103.84741 L94.72656 103.85635 L95.21484 103.84755 L95.70313 103.85600 L96.19141 103.84766 L96.67969 103.85569 L97.16797 103.84777 L97.65625 103.85538 L98.14453 103.84786 L98.63281 103.85512 L99.12109 103.84795 L99.60938 103.85486 L100.09766 103.84801 L100.58594 103.85461 L101.07422 103.84808 L101.56250 103.85439 L102.05078 103.84813 L102.53906 103.85416 L103.02734 103.84818 L103.51563 103.85397 L104.00391 103.84822 L104.49219 103.85378 L104.98047 103.84826 L105.46875 103.85359 L105.95703 103.84829 L106.44531 103.85342 L106.93359 103.84832 L107.42188 103.85326 L107.91016 103.84834 L108.39844 103.85311 L108.88672 103.84836 L109.37500 103.85297 L109.86328 103.84837 L110.35156 103.85283 L110.83984 103.84838 L111.32813 103.85270 L111.81641 103.84840 L112.30469 103.85258 L112.79297 103.84840 L113.28125 103.85246 L113.76953 103.84841 L114.25781 103.85234 L114.74609 103.84841 L115.23438 103.85223 L115.72266 103.84841 L116.21094 103.85213 L116.69922 103.84841 L117.18750 103.85204 L117.67578 103.84841 L118.16406 103.85194 L118.65234 103.84840 L119.14063 103.85185 L119.62891 103.84840 L120.11719 103.85177 L120.60547 103.84839 L121.09375 103.85169 L121.58203 103.84838 L122.07031 103.85162 L122.55859 103.84837 L123.04688 103.85153 L123.53516 103.84837 L124.02344 103.85146 L124.51172 103.84835 L125.00000 103.85139 L125.48828 103.84834 L125.97656 103.85133 L126.46484 103.84833 L126.95313 103.85126 L127.44141 103.84831 L127.92969 103.85120 L128.41797 103.84830 L128.90625 103.85114 L129.39453 103.84829 L129.88281 103.85108 L130.37109 103.84827 L130.85938 103.85103 L131.34766 103.84825 L131.83594 103.85098 L132.32422 103.84824 L132.81250 103.85092 L133.30078 103.84822 L133.78906 103.85088 L134.27734 103.84820 L134.76563 103.85083 L135.25391 103.84818 L135.74219 103.85078 L136.23047 103.84816 L136.71875 103.85074 L137.20703 103.84814 L137.69531 103.85069 L138.18359 103.84812 L138.67188 103.85065 L139.16016 103.84809 L139.64844 103.85062 L140.13672 103.84807 L140.62500 103.85058 L141.11328 103.84805 L141.60156 103.85053 L142.08984 103.84802 L142.57813 103.85050 L143.06641 103.84800 L143.55469 103.85046 L144.04297 103.84797 L144.53125 103.85043 L145.01953 103.84795 L145.50781 103.85040 L145.99609 103.84792 L146.48438 103.85036 L146.97266 103.84789 L147.46094 103.85033 L147.94922 103.84787 L148.43750 103.85030 L148.92578 103.84783 L149.41406 103.85027 L149.90234 103.84780 L150.39063 103.85025 L150.87891 103.84777 L151.36719 103.85022 L151.85547 103.84774 L152.34375 103.85020 L152.83203 103.84771 L153.32031 103.85017 L153.80859 103.84767 L154.29688 103.85014 L154.78516 103.84763 L155.27344 103.85012 L155.76172 103.84760 L156.25000 103.85010 L156.73828 103.84756 L157.22656 103.85007 L157.71484 103.84752 L158.20313 103.85005 L158.69141 103.84748 L159.17969 103.85003 L159.66797 103.84744 L160.15625 103.85001 L160.64453 103.84740 L161.13281 103.84998 L161.62109 103.84735 L162.10938 103.84997 L162.59766 103.84731 L163.08594 103.84995 L163.57422 103.84725 L164.06250 103.84993 L164.55078 103.84720 L165.03906 103.84991 L165.52734 103.84715 L166.01563 103.84989 L166.50391 103.84709 L166.99219 103.84988 L167.48047 103.84703 L167.96875 103.84986 L168.45703 103.84697 L168.94531 103.84984 L169.43359 103.84690 L169.92188 103.84982 L170.41016 103.84683 L170.89844 103.84982 L171.38672 103.84675 L171.87500 103.84980 L172.36328 103.84667 L172.85156 103.84979 L173.33984 103.84657 L173.82813 103.84978 L174.31641 103.84649 L174.80469 103.84976 L175.29297 103.84638 L175.78125 103.84975 L176.26953 103.84628 L176.75781 103.84974 L177.24609 103.84616 L177.73438 103.84973 L178.22266 103.84604 L178.71094 103.84972 L179.19922 103.84590 L179.68750 103.84971 L180.17578 103.84575 L180.66406 103.84970 L181.15234 103.84559 L181.64063 103.84969 L182.12891 103.84540 L182.61719 103.84969 L183.10547 103.84520 L183.59375 103.84968 L184.08203 103.84497 L184.57031 103.84968 L185.05859 103.84471 L185.54688 103.84968 L186.03516 103.84442 L186.52344 103.84968 L187.01172 103.84409 L187.50000 103.84968 L187.98828 103.84370 L188.47656 103.84968 L188.96484 103.84324 L189.45313 103.84969 L189.94141 103.84270 L190.42969 103.84969 L190.91797 103.84203 L191.40625 103.84972 L191.89453 103.84122 L192.38281 103.84974 L192.87109 103.84017 L193.35938 103.84977 L193.84766 103.83880 L194.33594 103.84982 L194.82422 103.83691 L195.31250 103.84989 L195.80078 103.83414 L196.28906 103.85001 L196.77734 103.82971 L197.26563 103.85021 L197.75391 103.82143 L198.24219 103.85065 L198.73047 103.80040 L199.21875 103.85223 L199.70703 103.63917 L200.19531 103.83793 L200.68359 103.93859 L201.17188 103.84745 L201.66016 103.88573 L202.14844 103.84831 L202.63672 103.87203 L203.12500 103.84863 L203.61328 103.86573 L204.10156 103.84879 L204.58984 103.86211 L205.07813 103.84888 L205.56641 103.85977 L206.05469 103.84895 L206.54297 103.85812 L207.03125 103.84899 L207.51953 103.85689 L208.00781 103.84902 L208.49609 103.85595 L208.98438 103.84904 L209.47266 103.85520 L209.96094 103.84906 L210.44922 103.85459 L210.93750 103.84908 L211.42578 103.85409 L211.91406 103.84908 L212.40234 103.85366 L212.89063 103.84909 L213.37891 103.85329 L213.86719 103.84909 L214.35547 103.85298 L214.84375 103.84910 L215.33203 103.85271 L215.82031 103.84910 L216.30859 103.85246 L216.79688 103.84910 L217.28516 103.85224 L217.77344 103.84911 L218.26172 103.85205 L218.75000 103.84911 L219.23828 103.85188 L219.72656 103.84911 L220.21484 103.85172 L220.70313 103.84910 L221.19141 103.85158 L221.67969 103.84910 L222.16797 103.85145 L222.65625 103.84910 L223.14453 103.85133 L223.63281 103.84910 L224.12109 103.85122 L224.60938 103.84910 L225.09766 103.85111 L225.58594 103.84909 L226.07422 103.85102 L226.56250 103.84909 L227.05078 103.85094 L227.53906 103.84908 L228.02734 103.85085 L228.51563 103.84908 L229.00391 103.85078 L229.49219 103.84908 L229.98047 103.85070 L230.46875 103.84908 L230.95703 103.85064 L231.44531 103.84908 L231.93359 103.85057 L232.42188 103.84907 L232.91016 103.85052 L233.39844 103.84907 L233.88672 103.85046 L234.37500 103.84907 L234.86328 103.85040 L235.35156 103.84907 L235.83984 103.85035 L236.32813 103.84906 L236.81641 103.85031 L237.30469 103.84905 L237.79297 103.85027 L238.28125 103.84905 L238.76953 103.85022 L239.25781 103.84904 L239.74609 103.85017 L240.23438 103.84904 L240.72266 103.85014 L241.21094 103.84904 L241.69922 103.85010 L242.18750 103.84904 L242.67578 103.85006 L243.16406 103.84904 L243.65234 103.85003 L244.14063 103.84904 L244.62891 103.84999 L245.11719 103.84903 L245.60547 103.84997 L246.09375 103.84903 L246.58203 103.84994 L247.07031 103.84902 L247.55859 103.84991 L248.04688 103.84902 L248.53516 103.84988 L249.02344 103.84901 L249.51172 103.84985 L250.00000 103.84901 L250.48828 103.84982 L250.97656 103.84901 L251.46484 103.84980 L251.95313 103.84901 L252.44141 103.84978 L252.92969 103.84901 L253.41797 103.84975 L253.90625 103.84901 L254.39453 103.84972 L254.88281 103.84900 L255.37109 103.84971 L255.85938 103.84900 L256.34766 103.84969 L256.83594 103.84900 L257.32422 103.84966 L257.81250 103.84899 L258.30078 103.84965 L258.78906 103.84899 L259.27734 103.84962 L259.76563 103.84898 L260.25391 103.84961 L260.74219 103.84898 L261.23047 103.84959 L261.71875 103.84898 L262.20703 103.84957 L262.69531 103.84898 L263.18359 103.84956 L263.67188 103.84898 L264.16016 103.84953 L264.64844 103.84898 L265.13672 103.84953 L265.62500 103.84897 L266.11328 103.84951 L266.60156 103.84897 L267.08984 103.84949 L267.57813 103.84896 L268.06641 103.84948 L268.55469 103.84896 L269.04297 103.84946 L269.53125 103.84896 L270.01953 103.84945 L270.50781 103.84895 L270.99609 103.84943 L271.48438 103.84895 L271.97266 103.84943 L272.46094 103.84895 L272.94922 103.84941 L273.43750 103.84895 L273.92578 103.84940 L274.41406 103.84895 L274.90234 103.84938 L275.39063 103.84895 L275.87891 103.84937 L276.36719 103.84894 L276.85547 103.84937 L277.34375 103.84895 L277.83203 103.84935 L278.32031 103.84894 L278.80859 103.84934 L279.29688 103.84894 L279.78516 103.84933 L280.27344 103.84894 L280.76172 103.84931 L281.25000 103.84893 L281.73828 103.84931 L282.22656 103.84893 L282.71484 103.84930 L283.20313 103.84892 L283.69141 103.84929 L284.17969 103.84892 L284.66797 103.84928 L285.15625 103.84892 L285.64453 103.84927 L286.13281 103.84892 L286.62109 103.84926 L287.10938 103.84892 L287.59766 103.84925 L288.08594 103.84892 L288.57422 103.84924 L289.06250 103.84892 L289.55078 103.84924 L290.03906 103.84891 L290.52734 103.84923 L291.01563 103.84891 L291.50391 103.84921 L291.99219 103.84891 L292.48047 103.84921 L292.96875 103.84892 L293.45703 103.84920 L293.94531 103.84891 L294.43359 103.84919 L294.92188 103.84890 L295.41016 103.84918 L295.89844 103.84890 L296.38672 103.84917 L296.87500 103.84890 L297.36328 103.84917 L297.85156 103.84890 L298.33984 103.84916 L298.82813 103.84889 L299.31641 103.84916 L299.80469 103.84889 L300.29297 103.84915 L300.78125 103.84889 L301.26953 103.84914 L301.75781 103.84889 L302.24609 103.84914 L302.73438 103.84888 L303.22266 103.84913 L303.71094 103.84888 L304.19922 103.84912 L304.68750 103.84888 L305.17578 103.84912 L305.66406 103.84888 L306.15234 103.84911 L306.64063 103.84888 L307.12891 103.84911 L307.61719 103.84888 L308.10547 103.84910 L308.59375 103.84888 L309.08203 103.84908 L309.57031 103.84888 L310.05859 103.84908 L310.54688 103.84888 L311.03516 103.84908 L311.52344 103.84887 L312.01172 103.84908 L312.50000 103.84887 L312.98828 103.84907 L313.47656 103.84887 L313.96484 103.84907 L314.45313 103.84887 L314.94141 103.84906 L315.42969 103.84887 L315.91797 103.84905 L316.40625 103.84886 L316.89453 103.84905 L317.38281 103.84886 L317.87109 103.84904 L318.35938 103.84886 L318.84766 103.84904 L319.33594 103.84886 L319.82422 103.84904 L320.31250 103.84886 L320.80078 103.84903 L321.28906 103.84885 L321.77734 103.84902 L322.26563 103.84885 L322.75391 103.84902 L323.24219 103.84885 L323.73047 103.84901 L324.21875 103.84885 L324.70703 103.84901 L325.19531 103.84885 L325.68359 103.84901 L326.17188 103.84885 L326.66016 103.84900 L327.14844 103.84885 L327.63672 103.84900 L328.12500 103.84885 L328.61328 103.84899 L329.10156 103.84885 L329.58984 103.84899 L330.07813 103.84885 L330.56641 103.84898 L331.05469 103.84885 L331.54297 103.84898 L332.03125 103.84884 L332.51953 103.84898 L333.00781 103.84885 L333.49609 103.84898 L333.98438 103.84884 L334.47266 103.84897 L334.96094 103.84884 L335.44922 103.84896 L335.93750 103.84884 L336.42578 103.84896 L336.91406 103.84884 L337.40234 103.84896 L337.89063 103.84884 L338.37891 103.84895 L338.86719 103.84883 L339.35547 103.84895 L339.84375 103.84883 L340.33203 103.84895 L340.82031 103.84883 L341.30859 103.84895 L341.79688 103.84883 L342.28516 103.84894 L342.77344 103.84883 L343.26172 103.84894 L343.75000 103.84883 L344.23828 103.84893 L344.72656 103.84883 L345.21484 103.84893 L345.70313 103.84883 L346.19141 103.84893 L346.67969 103.84882 L347.16797 103.84892 L347.65625 103.84882 L348.14453 103.84892 L348.63281 103.84882 L349.12109 103.84892 L349.60938 103.84882 L350.09766 103.84892 L350.58594 103.84882 L351.07422 103.84891 L351.56250 103.84882 L352.05078 103.84891 L352.53906 103.84882 L353.02734 103.84891 L353.51563 103.84882 L354.00391 103.84890 L354.49219 103.84882 L354.98047 103.84890 L355.46875 103.84882 L355.95703 103.84890 L356.44531 103.84882 L356.93359 103.84889 L357.42188 103.84882 L357.91016 103.84889 L358.39844 103.84882 L358.88672 103.84889 L359.37500 103.84882 L359.86328 103.84888 L360.35156 103.84882 L360.83984 103.84888 L361.32813 103.84882 L361.81641 103.84888 L362.30469 103.84881 L362.79297 103.84888 L363.28125 103.84881 L363.76953 103.84888 L364.25781 103.84881 L364.74609 103.84887 L365.23438 103.84881 L365.72266 103.84887 L366.21094 103.84881 L366.69922 103.84887 L367.18750 103.84881 L367.67578 103.84887 L368.16406 103.84881 L368.65234 103.84887 L369.14063 103.84880 L369.62891 103.84886 L370.11719 103.84881 L370.60547 103.84886 L371.09375 103.84881 L371.58203 103.84886 L372.07031 103.84880 L372.55859 103.84885 L373.04688 103.84880 L373.53516 103.84885 L374.02344 103.84881 L374.51172 103.84885 L375.00000 103.84880 L375.48828 103.84885 L375.97656 103.84880 L376.46484 103.84885 L376.95313 103.84880 L377.44141 103.84885 L377.92969 103.84880 L378.41797 103.84884 L378.90625 103.84880 L379.39453 103.84884 L379.88281 103.84879 L380.37109 103.84884 L380.85938 103.84880 L381.34766 103.84884 L381.83594 103.84880 L382.32422 103.84883 L382.81250 103.84879 L383.30078 103.84883 L383.78906 103.84879 L384.27734 103.84883 L384.76563 103.84879 L385.25391 103.84883 L385.74219 103.84879 L386.23047 103.84883 L386.71875 103.84879 L387.20703 103.84882 L387.69531 103.84879 L388.18359 103.84882 L388.67188 103.84880 L389.16016 103.84882 L389.64844 103.84879 L390.13672 103.84882 L390.62500 103.84879 L391.11328 103.84882 L391.60156 103.84879 L392.08984 103.84882 L392.57813 103.84879 L393.06641 103.84882 L393.55469 103.84879 L394.04297 103.84882 L394.53125 103.84879 L395.01953 103.84882 L395.50781 103.84879 L395.99609 103.84882 L396.48438 103.84879 L396.97266 103.84881 L397.46094 103.84879 L397.94922 103.84881 L398.43750 103.84879 L398.92578 103.84881 L399.41406 103.84879 L399.90234 103.84881 L400.39063 103.84879 L400.87891 103.84880 L401.36719 103.84879 L401.85547 103.84881 L402.34375 103.84879 L402.83203 103.84880 L403.32031 103.84879 L403.80859 103.84880 L404.29688 103.84879 L404.78516 103.84880 L405.27344 103.84879 L405.76172 103.84879 L406.25000 103.84879 L406.73828 103.84879 L407.22656 103.84878 L407.71484 103.84879 L408.20313 103.84878 L408.69141 103.84879 L409.17969 103.84879 L409.66797 103.84879 L410.15625 103.84878 L410.64453 103.84879 L411.13281 103.84878 L411.62109 103.84879 L412.10938 103.84878 L412.59766 103.84879 L413.08594 103.84878 L413.57422 103.84879 L414.06250 103.84878 L414.55078 103.84879 L415.03906 103.84878 L415.52734 103.84879 L416.01563 103.84878 L416.50391 103.84879 L416.99219 103.84878 L417.48047 103.84878 L417.96875 103.84878 L418.45703 103.84878 L418.94531 103.84878 L419.43359 103.84878 L419.92188 103.84878 L420.41016 103.84878 L420.89844 103.84878 L421.38672 103.84878 L421.87500 103.84878 L422.36328 103.84878 L422.85156 103.84878 L423.33984 103.84877 L423.82813 103.84878 L424.31641 103.84878 L424.80469 103.84877 L425.29297 103.84878 L425.78125 103.84877 L426.26953 103.84878 L426.75781 103.84877 L427.24609 103.84877 L427.73438 103.84877 L428.22266 103.84877 L428.71094 103.84877 L429.19922 103.84877 L429.68750 103.84878 L430.17578 103.84877 L430.66406 103.84878 L431.15234 103.84877 L431.64063 103.84877 L432.12891 103.84877 L432.61719 103.84877 L433.10547 103.84877 L433.59375 103.84877 L434.08203 103.84876 L434.57031 103.84877 L435.05859 103.84876 L435.54688 103.84877 L436.03516 103.84876 L436.52344 103.84877 L437.01172 103.84876 L437.50000 103.84877 L437.98828 103.84876 L438.47656 103.84877 L438.96484 103.84876 L439.45313 103.84877 L439.94141 103.84876 L440.42969 103.84877 L440.91797 103.84875 L441.40625 103.84878 L441.89453 103.84875 L442.38281 103.84877 L442.87109 103.84875 L443.35938 103.84877 L443.84766 103.84875 L444.33594 103.84877 L444.82422 103.84875 L445.31250 103.84877 L445.80078 103.84875 L446.28906 103.84877 L446.77734 103.84875 L447.26563 103.84876 L447.75391 103.84875 L448.24219 103.84877 L448.73047 103.84875 L449.21875 103.84876 L449.70703 103.84875 L450.19531 103.84877 L450.68359 103.84875 L451.17188 103.84877 L451.66016 103.84875 L452.14844 103.84876 L452.63672 103.84875 L453.12500 103.84877 L453.61328 103.84875 L454.10156 103.84876 L454.58984 103.84875 L455.07813 103.84876 L455.56641 103.84875 L456.05469 103.84876 L456.54297 103.84875 L457.03125 103.84876 L457.51953 103.84875 L458.00781 103.84876 L458.49609 103.84875 L458.98438 103.84877 L459.47266 103.84875 L459.96094 103.84877 L460.44922 103.84874 L460.93750 103.84877 L461.42578 103.84875 L461.91406 103.84876 L462.40234 103.84875 L462.89063 103.84876 L463.37891 103.84875 L463.86719 103.84876 L464.35547 103.84875 L464.84375 103.84876 L465.33203 103.84875 L465.82031 103.84876 L466.30859 103.84875 L466.79688 103.84877 L467.28516 103.84875 L467.77344 103.84876 L468.26172 103.84875 L468.75000 103.84876 L469.23828 103.84875 L469.72656 103.84876 L470.21484 103.84875 L470.70313 103.84876 L471.19141 103.84874 L471.67969 103.84876 L472.16797 103.84875 L472.65625 103.84876 L473.14453 103.84874 L473.63281 103.84876 L474.12109 103.84874 L474.60938 103.84876 L475.09766 103.84874 L475.58594 103.84876 L476.07422 103.84874 L476.56250 103.84876 L477.05078 103.84874 L477.53906 103.84876 L478.02734 103.84874 L478.51563 103.84876 L479.00391 103.84874 L479.49219 103.84876 L479.98047 103.84874 L480.46875 103.84876 L480.95703 103.84874 L481.44531 103.84876 L481.93359 103.84874 L482.42188 103.84876 L482.91016 103.84874 L483.39844 103.84876 L483.88672 103.84874 L484.37500 103.84875 L484.86328 103.84874 L485.35156 103.84876 L485.83984 103.84874 L486.32813 103.84876 L486.81641 103.84874 L487.30469 103.84876 L487.79297 103.84874 L488.28125 103.84876 L488.76953 103.84874 L489.25781 103.84875 L489.74609 103.84874 L490.23438 103.84876 L490.72266 103.84874 L491.21094 103.84876 L491.69922 103.84874 L492.18750 103.84876 L492.67578 103.84874 L493.16406 103.84876 L493.65234 103.84874 L494.14063 103.84876 L494.62891 103.84874 L495.11719 103.84876 L495.60547 103.84874 L496.09375 103.84876 L496.58203 103.84874 L497.07031 103.84876 L497.55859 103.84874 L498.04688 103.84876 L498.53516 103.84874 L499.02344 103.84876 L499.51172 103.84874 L500.00000 103.84876 L500.48828 103.84874 L500.97656 103.84876 L501.46484 103.84874 L501.95313 103.84876 L502.44141 103.84874 L502.92969 103.84876 L503.41797 103.84874 L503.90625 103.84876 L504.39453 103.84874 L504.88281 103.84876 L505.37109 103.84873 L505.85938 103.84876 L506.34766 103.84874 L506.83594 103.84876 L507.32422 103.84874 L507.81250 103.84876 L508.30078 103.84874 L508.78906 103.84876 L509.27734 103.84874 L509.76563 103.84876 L510.25391 103.84874 L510.74219 103.84875 L511.23047 103.84874 L511.71875 103.84876 L512.20703 103.84874 L512.69531 103.84876 L513.18359 103.84874 L513.67188 103.84876 L514.16016 103.84874 L514.64844 103.84876 L515.13672 103.84874 L515.62500 103.84875 L516.11328 103.84874 L516.60156 103.84876 L517.08984 103.84874 L517.57813 103.84876 L518.06641 103.84874 L518.55469 103.84876 L519.04297 103.84874 L519.53125 103.84876 L520.01953 103.84874 L520.50781 103.84876 L520.99609 103.84874 L521.48438 103.84876 L521.97266 103.84874 L522.46094 103.84876 L522.94922 103.84874 L523.43750 103.84876 L523.92578 103.84874 L524.41406 103.84876 L524.90234 103.84874 L525.39063 103.84876 L525.87891 103.84874 L526.36719 103.84876 L526.85547 103.84874 L527.34375 103.84876 L527.83203 103.84875 L528.32031 103.84876 L528.80859 103.84875 L529.29688 103.84876 L529.78516 103.84875 L530.27344 103.84876 L530.76172 103.84875 L531.25000 103.84876 L531.73828 103.84875 L532.22656 103.84876 L532.71484 103.84875 L533.20313 103.84877 L533.69141 103.84874 L534.17969 103.84876 L534.66797 103.84875 L535.15625 103.84876 L535.64453 103.84875 L536.13281 103.84876 L536.62109 103.84875 L537.10938 103.84876 L537.59766 103.84875 L538.08594 103.84876 L538.57422 103.84875 L539.06250 103.84877 L539.55078 103.84874 L540.03906 103.84877 L540.52734 103.84875 L541.01563 103.84877 L541.50391 103.84875 L541.99219 103.84876 L542.48047 103.84875 L542.96875 103.84876 L543.45703 103.84875 L543.94531 103.84876 L544.43359 103.84875 L544.92188 103.84876 L545.41016 103.84875 L545.89844 103.84876 L546.38672 103.84875 L546.87500 103.84877 L547.36328 103.84875 L547.85156 103.84876 L548.33984 103.84875 L548.82813 103.84877 L549.31641 103.84875 L549.80469 103.84877 L550.29297 103.84875 L550.78125 103.84876 L551.26953 103.84875 L551.75781 103.84877 L552.24609 103.84875 L552.73438 103.84876 L553.22266 103.84875 L553.71094 103.84877 L554.19922 103.84875 L554.68750 103.84877 L555.17578 103.84875 L555.66406 103.84877 L556.15234 103.84875 L556.64063 103.84877 L557.12891 103.84875 L557.61719 103.84877 L558.10547 103.84875 L558.59375 103.84878 L559.08203 103.84875 L559.57031 103.84877 L560.05859 103.84876 L560.54688 103.84877 L561.03516 103.84875 L561.52344 103.84877 L562.01172 103.84876 L562.50000 103.84877 L562.98828 103.84876 L563.47656 103.84877 L563.96484 103.84876 L564.45313 103.84877 L564.94141 103.84876 L565.42969 103.84877 L565.91797 103.84876 L566.40625 103.84877 L566.89453 103.84876 L567.38281 103.84877 L567.87109 103.84877 L568.35938 103.84877 L568.84766 103.84877 L569.33594 103.84878 L569.82422 103.84877 L570.31250 103.84878 L570.80078 103.84877 L571.28906 103.84877 L571.77734 103.84877 L572.26563 103.84877 L572.75391 103.84877 L573.24219 103.84877 L573.73047 103.84878 L574.21875 103.84877 L574.70703 103.84878 L575.19531 103.84877 L575.68359 103.84878 L576.17188 103.84878 L576.66016 103.84877 L577.14844 103.84878 L577.63672 103.84878 L578.12500 103.84878 L578.61328 103.84878 L579.10156 103.84878 L579.58984 103.84878 L580.07813 103.84878 L580.56641 103.84878 L581.05469 103.84878 L581.54297 103.84878 L582.03125 103.84878 L582.51953 103.84878 L583.00781 103.84878 L583.49609 103.84879 L583.98438 103.84878 L584.47266 103.84879 L584.96094 103.84878 L585.44922 103.84879 L585.93750 103.84878 L586.42578 103.84879 L586.91406 103.84878 L587.40234 103.84879 L587.89063 103.84878 L588.37891 103.84879 L588.86719 103.84878 L589.35547 103.84879 L589.84375 103.84878 L590.33203 103.84879 L590.82031 103.84879 L591.30859 103.84879 L591.79688 103.84878 L592.28516 103.84879 L592.77344 103.84878 L593.26172 103.84879 L593.75000 103.84879 L594.23828 103.84879 L594.72656 103.84879 L595.21484 103.84880 L595.70313 103.84879 L596.19141 103.84880 L596.67969 103.84879 L597.16797 103.84880 L597.65625 103.84879 L598.14453 103.84881 L598.63281 103.84879 L599.12109 103.84880 L599.60938 103.84879 L600.09766 103.84881 L600.58594 103.84879 L601.07422 103.84881 L601.56250 103.84879 L602.05078 103.84881 L602.53906 103.84879 L603.02734 103.84881 L603.51563 103.84879 L604.00391 103.84882 L604.49219 103.84879 L604.98047 103.84882 L605.46875 103.84879 L605.95703 103.84882 L606.44531 103.84879 L606.93359 103.84882 L607.42188 103.84879 L607.91016 103.84882 L608.39844 103.84879 L608.88672 103.84882 L609.37500 103.84879 L609.86328 103.84882 L610.35156 103.84879 L610.83984 103.84882 L611.32813 103.84880 L611.81641 103.84882 L612.30469 103.84879 L612.79297 103.84882 L613.28125 103.84879 L613.76953 103.84883 L614.25781 103.84879 L614.74609 103.84883 L615.23438 103.84879 L615.72266 103.84883 L616.21094 103.84879 L616.69922 103.84883 L617.18750 103.84879 L617.67578 103.84883 L618.16406 103.84880 L618.65234 103.84884 L619.14063 103.84880 L619.62891 103.84884 L620.11719 103.84879 L620.60547 103.84884 L621.09375 103.84880 L621.58203 103.84885 L622.07031 103.84880 L622.55859 103.84885 L623.04688 103.84880 L623.53516 103.84885 L624.02344 103.84880 L624.51172 103.84885 L625.00000 103.84880 L625.48828 103.84885 L625.97656 103.84881 L626.46484 103.84885 L626.95313 103.84880 L627.44141 103.84885 L627.92969 103.84880 L628.41797 103.84886 L628.90625 103.84881 L629.39453 103.84886 L629.88281 103.84881 L630.37109 103.84886 L630.85938 103.84880 L631.34766 103.84887 L631.83594 103.84881 L632.32422 103.84887 L632.81250 103.84881 L633.30078 103.84888 L633.78906 103.84881 L634.27734 103.84887 L634.76563 103.84881 L635.25391 103.84887 L635.74219 103.84881 L636.23047 103.84888 L636.71875 103.84881 L637.20703 103.84888 L637.69531 103.84881 L638.18359 103.84888 L638.67188 103.84882 L639.16016 103.84888 L639.64844 103.84882 L640.13672 103.84888 L640.62500 103.84882 L641.11328 103.84889 L641.60156 103.84882 L642.08984 103.84889 L642.57813 103.84882 L643.06641 103.84890 L643.55469 103.84882 L644.04297 103.84890 L644.53125 103.84882 L645.01953 103.84890 L645.50781 103.84882 L645.99609 103.84890 L646.48438 103.84882 L646.97266 103.84891 L647.46094 103.84882 L647.94922 103.84891 L648.43750 103.84882 L648.92578 103.84891 L649.41406 103.84882 L649.90234 103.84892 L650.39063 103.84882 L650.87891 103.84892 L651.36719 103.84882 L651.85547 103.84892 L652.34375 103.84882 L652.83203 103.84892 L653.32031 103.84882 L653.80859 103.84893 L654.29688 103.84882 L654.78516 103.84893 L655.27344 103.84883 L655.76172 103.84893 L656.25000 103.84883 L656.73828 103.84894 L657.22656 103.84883 L657.71484 103.84894 L658.20313 103.84884 L658.69141 103.84894 L659.17969 103.84883 L659.66797 103.84895 L660.15625 103.84883 L660.64453 103.84895 L661.13281 103.84883 L661.62109 103.84895 L662.10938 103.84884 L662.59766 103.84896 L663.08594 103.84884 L663.57422 103.84896 L664.06250 103.84884 L664.55078 103.84896 L665.03906 103.84884 L665.52734 103.84897 L666.01563 103.84884 L666.50391 103.84897 L666.99219 103.84885 L667.48047 103.84898 L667.96875 103.84884 L668.45703 103.84898 L668.94531 103.84885 L669.43359 103.84898 L669.92188 103.84885 L670.41016 103.84899 L670.89844 103.84885 L671.38672 103.84899 L671.87500 103.84885 L672.36328 103.84900 L672.85156 103.84885 L673.33984 103.84900 L673.82813 103.84885 L674.31641 103.84901 L674.80469 103.84885 L675.29297 103.84901 L675.78125 103.84885 L676.26953 103.84901 L676.75781 103.84885 L677.24609 103.84902 L677.73438 103.84885 L678.22266 103.84902 L678.71094 103.84885 L679.19922 103.84903 L679.68750 103.84886 L680.17578 103.84904 L680.66406 103.84886 L681.15234 103.84904 L681.64063 103.84886 L682.12891 103.84904 L682.61719 103.84886 L683.10547 103.84905 L683.59375 103.84886 L684.08203 103.84905 L684.57031 103.84887 L685.05859 103.84906 L685.54688 103.84887 L686.03516 103.84907 L686.52344 103.84887 L687.01172 103.84907 L687.50000 103.84887 L687.98828 103.84908 L688.47656 103.84887 L688.96484 103.84909 L689.45313 103.84887 L689.94141 103.84908 L690.42969 103.84888 L690.91797 103.84910 L691.40625 103.84888 L691.89453 103.84910 L692.38281 103.84888 L692.87109 103.84911 L693.35938 103.84888 L693.84766 103.84911 L694.33594 103.84888 L694.82422 103.84912 L695.31250 103.84888 L695.80078 103.84912 L696.28906 103.84888 L696.77734 103.84913 L697.26563 103.84888 L697.75391 103.84914 L698.24219 103.84889 L698.73047 103.84914 L699.21875 103.84889 L699.70703 103.84915 L700.19531 103.84889 L700.68359 103.84916 L701.17188 103.84889 L701.66016 103.84916 L702.14844 103.84890 L702.63672 103.84917 L703.12500 103.84890 L703.61328 103.84917 L704.10156 103.84890 L704.58984 103.84918 L705.07813 103.84890 L705.56641 103.84919 L706.05469 103.84891 L706.54297 103.84920 L707.03125 103.84892 L707.51953 103.84921 L708.00781 103.84891 L708.49609 103.84921 L708.98438 103.84891 L709.47266 103.84923 L709.96094 103.84891 L710.44922 103.84924 L710.93750 103.84892 L711.42578 103.84924 L711.91406 103.84892 L712.40234 103.84925 L712.89063 103.84892 L713.37891 103.84926 L713.86719 103.84892 L714.35547 103.84927 L714.84375 103.84892 L715.33203 103.84928 L715.82031 103.84892 L716.30859 103.84929 L716.79688 103.84892 L717.28516 103.84930 L717.77344 103.84893 L718.26172 103.84931 L718.75000 103.84893 L719.23828 103.84931 L719.72656 103.84894 L720.21484 103.84933 L720.70313 103.84894 L721.19141 103.84934 L721.67969 103.84894 L722.16797 103.84935 L722.65625 103.84895 L723.14453 103.84937 L723.63281 103.84894 L724.12109 103.84937 L724.60938 103.84895 L725.09766 103.84938 L725.58594 103.84895 L726.07422 103.84940 L726.56250 103.84895 L727.05078 103.84941 L727.53906 103.84895 L728.02734 103.84943 L728.51563 103.84895 L729.00391 103.84943 L729.49219 103.84895 L729.98047 103.84945 L730.46875 103.84896 L730.95703 103.84946 L731.44531 103.84896 L731.93359 103.84948 L732.42188 103.84896 L732.91016 103.84949 L733.39844 103.84897 L733.88672 103.84951 L734.37500 103.84897 L734.86328 103.84953 L735.35156 103.84898 L735.83984 103.84953 L736.32813 103.84898 L736.81641 103.84956 L737.30469 103.84898 L737.79297 103.84957 L738.28125 103.84898 L738.76953 103.84959 L739.25781 103.84898 L739.74609 103.84961 L740.23438 103.84898 L740.72266 103.84962 L741.21094 103.84899 L741.69922 103.84965 L742.18750 103.84899 L742.67578 103.84966 L743.16406 103.84900 L743.65234 103.84969 L744.14063 103.84900 L744.62891 103.84971 L745.11719 103.84900 L745.60547 103.84972 L746.09375 103.84901 L746.58203 103.84975 L747.07031 103.84901 L747.55859 103.84978 L748.04688 103.84901 L748.53516 103.84980 L749.02344 103.84901 L749.51172 103.84982 L750.00000 103.84901 L750.48828 103.84985 L750.97656 103.84901 L751.46484 103.84988 L751.95313 103.84902 L752.44141 103.84991 L752.92969 103.84902 L753.41797 103.84994 L753.90625 103.84903 L754.39453 103.84997 L754.88281 103.84903 L755.37109 103.84999 L755.85938 103.84904 L756.34766 103.85003 L756.83594 103.84904 L757.32422 103.85006 L757.81250 103.84904 L758.30078 103.85010 L758.78906 103.84904 L759.27734 103.85014 L759.76563 103.84904 L760.25391 103.85017 L760.74219 103.84904 L761.23047 103.85022 L761.71875 103.84905 L762.20703 103.85026 L762.69531 103.84905 L763.18359 103.85031 L763.67188 103.84906 L764.16016 103.85035 L764.64844 103.84907 L765.13672 103.85040 L765.62500 103.84907 L766.11328 103.85046 L766.60156 103.84907 L767.08984 103.85052 L767.57813 103.84907 L768.06641 103.85057 L768.55469 103.84908 L769.04297 103.85064 L769.53125 103.84908 L770.01953 103.85070 L770.50781 103.84908 L770.99609 103.85078 L771.48438 103.84908 L771.97266 103.85085 L772.46094 103.84908 L772.94922 103.85094 L773.43750 103.84909 L773.92578 103.85102 L774.41406 103.84909 L774.90234 103.85111 L775.39063 103.84910 L775.87891 103.85122 L776.36719 103.84910 L776.85547 103.85133 L777.34375 103.84910 L777.83203 103.85145 L778.32031 103.84910 L778.80859 103.85158 L779.29688 103.84911 L779.78516 103.85172 L780.27344 103.84911 L780.76172 103.85188 L781.25000 103.84911 L781.73828 103.85205 L782.22656 103.84911 L782.71484 103.85224 L783.20313 103.84910 L783.69141 103.85246 L784.17969 103.84910 L784.66797 103.85271 L785.15625 103.84910 L785.64453 103.85298 L786.13281 103.84909 L786.62109 103.85329 L787.10938 103.84909 L787.59766 103.85366 L788.08594 103.84908 L788.57422 103.85409 L789.06250 103.84908 L789.55078 103.85459 L790.03906 103.84906 L790.52734 103.85520 L791.01563 103.84904 L791.50391 103.85595 L791.99219 103.84902 L792.48047 103.85689 L792.96875 103.84899 L793.45703 103.85812 L793.94531 103.84895 L794.43359 103.85977 L794.92188 103.84888 L795.41016 103.86211 L795.89844 103.84879 L796.38672 103.86573 L796.87500 103.84863 L797.36328 103.87203 L797.85156 103.84831 L798.33984 103.88573 L798.82813 103.84745 L799.31641 103.93858 L799.80469 103.83793 L800.29297 103.63917 L800.78125 103.85223 L801.26953 103.80040 L801.75781 103.85065 L802.24609 103.82143 L802.73438 103.85021 L803.22266 103.82971 L803.71094 103.85001 L804.19922 103.83414 L804.68750 103.84989 L805.17578 103.83691 L805.66406 103.84982 L806.15234 103.83880 L806.64063 103.84977 L807.12891 103.84017 L807.61719 103.84974 L808.10547 103.84122 L808.59375 103.84971 L809.08203 103.84203 L809.57031 103.84969 L810.05859 103.84269 L810.54688 103.84969 L811.03516 103.84324 L811.52344 103.84968 L812.01172 103.84370 L812.50000 103.84968 L812.98828 103.84409 L813.47656 103.84968 L813.96484 103.84442 L814.45313 103.84968 L814.94141 103.84471 L815.42969 103.84968 L815.91797 103.84497 L816.40625 103.84968 L816.89453 103.84520 L817.38281 103.84969 L817.87109 103.84540 L818.35938 103.84969 L818.84766 103.84559 L819.33594 103.84970 L819.82422 103.84575 L820.31250 103.84971 L820.80078 103.84590 L821.28906 103.84972 L821.77734 103.84604 L822.26563 103.84973 L822.75391 103.84616 L823.24219 103.84974 L823.73047 103.84628 L824.21875 103.84975 L824.70703 103.84638 L825.19531 103.84976 L825.68359 103.84648 L826.17188 103.84978 L826.66016 103.84657 L827.14844 103.84979 L827.63672 103.84666 L828.12500 103.84980 L828.61328 103.84675 L829.10156 103.84982 L829.58984 103.84682 L830.07813 103.84983 L830.56641 103.84690 L831.05469 103.84984 L831.54297 103.84697 L832.03125 103.84986 L832.51953 103.84703 L833.00781 103.84988 L833.49609 103.84709 L833.98438 103.84989 L834.47266 103.84715 L834.96094 103.84991 L835.44922 103.84720 L835.93750 103.84993 L836.42578 103.84725 L836.91406 103.84995 L837.40234 103.84731 L837.89063 103.84997 L838.37891 103.84735 L838.86719 103.84998 L839.35547 103.84740 L839.84375 103.85001 L840.33203 103.84744 L840.82031 103.85003 L841.30859 103.84748 L841.79688 103.85006 L842.28516 103.84752 L842.77344 103.85007 L843.26172 103.84756 L843.75000 103.85010 L844.23828 103.84760 L844.72656 103.85012 L845.21484 103.84763 L845.70313 103.85014 L846.19141 103.84767 L846.67969 103.85017 L847.16797 103.84771 L847.65625 103.85019 L848.14453 103.84775 L848.63281 103.85022 L849.12109 103.84777 L849.60938 103.85025 L850.09766 103.84780 L850.58594 103.85027 L851.07422 103.84783 L851.56250 103.85030 L852.05078 103.84787 L852.53906 103.85033 L853.02734 103.84789 L853.51563 103.85036 L854.00391 103.84792 L854.49219 103.85040 L854.98047 103.84795 L855.46875 103.85043 L855.95703 103.84797 L856.44531 103.85046 L856.93359 103.84799 L857.42188 103.85050 L857.91016 103.84802 L858.39844 103.85053 L858.88672 103.84805 L859.37500 103.85058 L859.86328 103.84807 L860.35156 103.85062 L860.83984 103.84809 L861.32813 103.85065 L861.81641 103.84811 L862.30469 103.85069 L862.79297 103.84814 L863.28125 103.85074 L863.76953 103.84816 L864.25781 103.85078 L864.74609 103.84818 L865.23438 103.85083 L865.72266 103.84820 L866.21094 103.85088 L866.69922 103.84822 L867.18750 103.85092 L867.67578 103.84824 L868.16406 103.85098 L868.65234 103.84825 L869.14063 103.85103 L869.62891 103.84827 L870.11719 103.85108 L870.60547 103.84829 L871.09375 103.85114 L871.58203 103.84830 L872.07031 103.85120 L872.55859 103.84831 L873.04688 103.85126 L873.53516 103.84833 L874.02344 103.85133 L874.51172 103.84834 L875.00000 103.85139 L875.48828 103.84835 L875.97656 103.85146 L876.46484 103.84837 L876.95313 103.85153 L877.44141 103.84837 L877.92969 103.85162 L878.41797 103.84838 L878.90625 103.85169 L879.39453 103.84839 L879.88281 103.85177 L880.37109 103.84840 L880.85938 103.85185 L881.34766 103.84840 L881.83594 103.85194 L882.32422 103.84841 L882.81250 103.85204 L883.30078 103.84841 L883.78906 103.85213 L884.27734 103.84841 L884.76563 103.85223 L885.25391 103.84841 L885.74219 103.85234 L886.23047 103.84841 L886.71875 103.85246 L887.20703 103.84840 L887.69531 103.85258 L888.18359 103.84840 L888.67188 103.85270 L889.16016 103.84838 L889.64844 103.85283 L890.13672 103.84837 L890.62500 103.85297 L891.11328 103.84836 L891.60156 103.85311 L892.08984 103.84834 L892.57813 103.85326 L893.06641 103.84832 L893.55469 103.85342 L894.04297 103.84829 L894.53125 103.85359 L895.01953 103.84826 L895.50781 103.85378 L895.99609 103.84822 L896.48438 103.85397 L896.97266 103.84818 L897.46094 103.85416 L897.94922 103.84813 L898.43750 103.85439 L898.92578 103.84808 L899.41406 103.85461 L899.90234 103.84801 L900.39063 103.85485 L900.87891 103.84794 L901.36719 103.85512 L901.85547 103.84786 L902.34375 103.85538 L902.83203 103.84777 L903.32031 103.85569 L903.80859 103.84766 L904.29688 103.85601 L904.78516 103.84755 L905.27344 103.85635 L905.76172 103.84741 L906.25000 103.85672 L906.73828 103.84727 L907.22656 103.85712 L907.71484 103.84709 L908.20313 103.85754 L908.69141 103.84690 L909.17969 103.85802 L909.66797 103.84668 L910.15625 103.85852 L910.64453 103.84643 L911.13281 103.85908 L911.62109 103.84615 L912.10938 103.85968 L912.59766 103.84583 L913.08594 103.86034 L913.57422 103.84545 L914.06250 103.86107 L914.55078 103.84504 L915.03906 103.86188 L915.52734 103.84455 L916.01563 103.86277 L916.50391 103.84399 L916.99219 103.86375 L917.48047 103.84335 L917.96875 103.86487 L918.45703 103.84260 L918.94531 103.86612 L919.43359 103.84173 L919.92188 103.86752 L920.41016 103.84071 L920.89844 103.86912 L921.38672 103.83952 L921.87500 103.87095 L922.36328 103.83810 L922.85156 103.87305 L923.33984 103.83640 L923.82813 103.87548 L924.31641 103.83438 L924.80469 103.87833 L925.29297 103.83192 L925.78125 103.88171 L926.26953 103.82892 L926.75781 103.88573 L927.24609 103.82521 L927.73438 103.89059 L928.22266 103.82056 L928.71094 103.89655 L929.19922 103.81466 L929.68750 103.90399 L930.17578 103.80702 L930.66406 103.91346 L931.15234 103.79694 L931.64063 103.92577 L932.12891 103.78329 L932.61719 103.94227 L933.10547 103.76425 L933.59375 103.96514 L934.08203 103.73661 L934.57031 103.99830 L935.05859 103.69447 L935.54688 104.04919 L936.03516 103.62582 L936.52344 104.13368 L937.01172 103.50303 L937.50000 104.29087 L937.98828 103.25034 L938.47656 104.64053 L938.96484 102.59221 L939.45313 105.71920 L939.94141 99.79550 L940.42969 113.39558 L940.91797 11.27229 L941.40625 200.00000 L941.89453 91.92332 L942.38281 107.15442 L942.87109 101.73784 L943.35938 104.79785 L943.84766 103.01995 L944.33594 104.27045 L944.82422 103.42108 L945.31250 104.07477 L945.80078 103.59741 L946.28906 103.98219 L946.77734 103.69118 L947.26563 103.93147 L947.75391 103.74781 L948.24219 103.90072 L948.73047 103.78551 L949.21875 103.88060 L949.70703 103.81276 L950.19531 103.86655 L950.68359 103.83401 L951.17188 103.85614 L951.66016 103.85187 L952.14844 103.84797 L952.63672 103.86797 L953.12500 103.84115 L953.61328 103.88361 L954.10156 103.83505 L954.58984 103.89983 L955.07813 103.82923 L955.56641 103.91775 L956.05469 103.82326 L956.54297 103.93872 L957.03125 103.81666 L957.51953 103.96461 L958.00781 103.80885 L958.49609 103.99828 L958.98438 103.79898 L959.47266 104.04450 L959.96094 103.78562 L960.44922 104.11182 L960.93750 103.76617 L961.42578 104.21729 L961.91406 103.73523 L962.40234 104.39909 L962.89063 103.67994 L963.37891 104.75895 L963.86719 103.56234 L964.35547 105.65074 L964.84375 103.22250 L965.33203 109.11255 L965.82031 101.16975 L966.30859 174.79427 L966.79688 -0.00001 L967.28516 126.83041 L967.77344 102.53651 L968.26172 107.17567 L968.75000 103.51234 L969.23828 105.07639 L969.72656 103.70782 L970.21484 104.46487 L970.70313 103.77597 L971.19141 104.20922 L971.67969 103.80659 L972.16797 104.07972 L972.65625 103.82255 L973.14453 104.00575 L973.63281 103.83168 L974.12109 103.95989 L974.60938 103.83729 L975.09766 103.92967 L975.58594 103.84090 L976.07422 103.90885 L976.56250 103.84330 L977.05078 103.89398 L977.53906 103.84495 L978.02734 103.88306 L978.51563 103.84611 L979.00391 103.87482 L979.49219 103.84695 L979.98047 103.86850 L980.46875 103.84755 L980.95703 103.86356 L981.44531 103.84798 L981.93359 103.85966 L982.42188 103.84830 L982.91016 103.85654 L983.39844 103.84855 L983.88672 103.85400 L984.37500 103.84872 L984.86328 103.85194 L985.35156 103.84886 L985.83984 103.85023 L986.32813 103.84895 L986.81641 103.84883 L987.30469 103.84902 L987.79297 103.84766 L988.28125 103.84908 L988.76953 103.84669 L989.25781 103.84911 L989.74609 103.84588 L990.23438 103.84914 L990.72266 103.84519 L991.21094 103.84916 L991.69922 103.84463 L992.18750 103.84917 L992.67578 103.84415 L993.16406 103.84918 L993.65234 103.84376 L994.14063 103.84918 L994.62891 103.84344 L995.11719 103.84919 L995.60547 103.84319 L996.09375 103.84919 L996.58203 103.84299 L997.07031 103.84919 L997.55859 103.84285 L998.04688 103.84919 L998.53516 103.84276 L999.02344 103.84919 L999.51172 103.84270" /><path fill="none" stroke="#000000" d="M0 299.99997  L0.00000 299.99997  L0.48828 299.99899  L0.97656 300.00018  L1.46484 299.99701  L1.95313 300.00043  L2.44141 299.99503  L2.92969 300.00064  L3.41797 299.99298  L3.90625 300.00085  L4.39453 299.99088  L4.88281 300.00110  L5.37109 299.98871  L5.85938 300.00137  L6.34766 299.98642  L6.83594 300.00165  L7.32422 299.98401  L7.81250 300.00195  L8.30078 299.98145  L8.78906 300.00226  L9.27734 299.97870  L9.76563 300.00262  L10.25391 299.97574  L10.74219 300.00305  L11.23047 299.97250  L11.71875 300.00348  L12.20703 299.96896  L12.69531 300.00400  L13.18359 299.96503  L13.67188 300.00458  L14.16016 299.96063  L14.64844 300.00528  L15.13672 299.95566  L15.62500 300.00604  L16.11328 299.95001  L16.60156 300.00699  L17.08984 299.94351  L17.57813 300.00809  L18.06641 299.93597  L18.55469 300.00940  L19.04297 299.92706  L19.53125 300.01099  L20.01953 299.91644  L20.50781 300.01291  L20.99609 299.90359  L21.48438 300.01532  L21.97266 299.88776  L22.46094 300.01840  L22.94922 299.86783  L23.43750 300.02237  L23.92578 299.84219  L24.41406 300.02765  L24.90234 299.80823  L25.39063 300.03485  L25.87891 299.76160  L26.36719 300.04507  L26.85547 299.69464  L27.34375 300.06039  L27.83203 299.59271  L28.32031 300.08484  L28.80859 299.42438  L29.29688 300.12793  L29.78516 299.11154  L30.27344 300.21567  L30.76172 298.40851  L31.25000 300.44583  L31.73828 296.14896  L32.22656 301.49261  L32.71484 276.47577  L33.20313 400.00000  L33.69141 236.66457  L34.17969 302.13846  L34.66797 295.98358  L35.15625 300.40076  L35.64453 298.86011  L36.13281 300.13885  L36.62109 299.54562  L37.10938 300.05566  L37.59766 299.80176  L38.08594 300.01932  L38.57422 299.92172  L39.06250 300.00012  L39.55078 299.98654  L40.03906 299.98840  L40.52734 300.02548  L41.01563 299.98035  L41.50391 300.05103  L41.99219 299.97412  L42.48047 300.06927  L42.96875 299.96875  L43.45703 300.08353  L43.94531 299.96368  L44.43359 300.09570  L44.92188 299.95850  L45.41016 300.10709  L45.89844 299.95282  L46.38672 300.11865  L46.87500 299.94626  L47.36328 300.13132  L47.85156 299.93839  L48.33984 300.14597  L48.82813 299.92859  L49.31641 300.16385  L49.80469 299.91595  L50.29297 300.18665  L50.78125 299.89899  L51.26953 300.21707  L51.75781 299.87524  L52.24609 300.25977  L52.73438 299.84024  L53.22266 300.32324  L53.71094 299.78491  L54.19922 300.42554  L54.68750 299.68881  L55.17578 300.61011  L55.66406 299.49606  L56.15234 301.00836  L56.64063 299.00479  L57.12891 302.20370  L57.61719 296.93558  L58.10547 310.69907  L58.59375 220.80389  L59.08203 371.20081  L59.57031 292.99142  L60.05859 302.65463  L60.54688 298.77426  L61.03516 300.69278  L61.52344 299.53677  L62.01172 300.27283  L62.50000 299.76938  L62.98828 300.12686  L63.47656 299.86780  L63.96484 300.06308  L64.45313 299.91766  L64.94141 300.03137  L65.42969 299.94589  L65.91797 300.01422  L66.40625 299.96320  L66.89453 300.00446  L67.38281 299.97443  L67.87109 299.99878  L68.35938 299.98206  L68.84766 299.99539  L69.33594 299.98737  L69.82422 299.99341  L70.31250 299.99121  L70.80078 299.99231  L71.28906 299.99402  L71.77734 299.99176  L72.26563 299.99615  L72.75391 299.99152  L73.24219 299.99777  L73.73047 299.99155  L74.21875 299.99902  L74.70703 299.99173  L75.19531 299.99997  L75.68359 299.99197  L76.17188 300.00073  L76.66016 299.99228  L77.14844 300.00134  L77.63672 299.99261  L78.12500 300.00180  L78.61328 299.99298  L79.10156 300.00220  L79.58984 299.99335  L80.07813 300.00250  L80.56641 299.99371  L81.05469 300.00272  L81.54297 299.99408  L82.03125 300.00293  L82.51953 299.99442  L83.00781 300.00305  L83.49609 299.99475  L83.98438 300.00317  L84.47266 299.99506  L84.96094 300.00330  L85.44922 299.99536  L85.93750 300.00336  L86.42578 299.99567  L86.91406 300.00342  L87.40234 299.99594  L87.89063 300.00345  L88.37891 299.99619  L88.86719 300.00348  L89.35547 299.99643  L89.84375 300.00348  L90.33203 299.99667  L90.82031 300.00354  L91.30859 299.99689  L91.79688 300.00351  L92.28516 299.99710  L92.77344 300.00354  L93.26172 299.99731  L93.75000 300.00351  L94.23828 299.99750  L94.72656 300.00351  L95.21484 299.99768  L95.70313 300.00351  L96.19141 299.99783  L96.67969 300.00348  L97.16797 299.99799  L97.65625 300.00348  L98.14453 299.99817  L98.63281 300.00345  L99.12109 299.99829  L99.60938 300.00342  L100.09766 299.99844  L100.58594 300.00342  L101.07422 299.99857  L101.56250 300.00339  L102.05078 299.99869  L102.53906 300.00336  L103.02734 299.99881  L103.51563 300.00333  L104.00391 299.99893  L104.49219 300.00330  L104.98047 299.99902  L105.46875 300.00330  L105.95703 299.99915  L106.44531 300.00327  L106.93359 299.99921  L107.42188 300.00323  L107.91016 299.99930  L108.39844 300.00323  L108.88672 299.99939  L109.37500 300.00320  L109.86328 299.99948  L110.35156 300.00317  L110.83984 299.99957  L111.32813 300.00317  L111.81641 299.99963  L112.30469 300.00314  L112.79297 299.99969  L113.28125 300.00311  L113.76953 299.99979  L114.25781 300.00308  L114.74609 299.99985  L115.23438 300.00308  L115.72266 299.99991  L116.21094 300.00305  L116.69922 299.99994  L117.18750 300.00305  L117.67578 300.00000  L118.16406 300.00302  L118.65234 300.00006  L119.14063 300.00299  L119.62891 300.00012  L120.11719 300.00299  L120.60547 300.00018  L121.09375 300.00296  L121.58203 300.00021  L122.07031 300.00293  L122.55859 300.00027  L123.04688 300.00293  L123.53516 300.00031  L124.02344 300.00293  L124.51172 300.00034  L125.00000 300.00290  L125.48828 300.00040  L125.97656 300.00290  L126.46484 300.00043  L126.95313 300.00287  L127.44141 300.00046  L127.92969 300.00287  L128.41797 300.00049  L128.90625 300.00287  L129.39453 300.00055  L129.88281 300.00284  L130.37109 300.00055  L130.85938 300.00284  L131.34766 300.00061  L131.83594 300.00281  L132.32422 300.00061  L132.81250 300.00281  L133.30078 300.00064  L133.78906 300.00281  L134.27734 300.00067  L134.76563 300.00281  L135.25391 300.00070  L135.74219 300.00281  L136.23047 300.00073  L136.71875 300.00281  L137.20703 300.00076  L137.69531 300.00278  L138.18359 300.00079  L138.67188 300.00278  L139.16016 300.00079  L139.64844 300.00278  L140.13672 300.00082  L140.62500 300.00278  L141.11328 300.00085  L141.60156 300.00278  L142.08984 300.00089  L142.57813 300.00278  L143.06641 300.00092  L143.55469 300.00278  L144.04297 300.00092  L144.53125 300.00278  L145.01953 300.00095  L145.50781 300.00278  L145.99609 300.00098  L146.48438 300.00278  L146.97266 300.00098  L147.46094 300.00278  L147.94922 300.00101  L148.43750 300.00278  L148.92578 300.00101  L149.41406 300.00281  L149.90234 300.00104  L150.39063 300.00281  L150.87891 300.00104  L151.36719 300.00281  L151.85547 300.00107  L152.34375 300.00281  L152.83203 300.00110  L153.32031 300.00281  L153.80859 300.00110  L154.29688 300.00284  L154.78516 300.00113  L155.27344 300.00284  L155.76172 300.00116  L156.25000 300.00287  L156.73828 300.00116  L157.22656 300.00287  L157.71484 300.00119  L158.20313 300.00290  L158.69141 300.00122  L159.17969 300.00290  L159.66797 300.00122  L160.15625 300.00293  L160.64453 300.00125  L161.13281 300.00296  L161.62109 300.00128  L162.10938 300.00299  L162.59766 300.00128  L163.08594 300.00302  L163.57422 300.00128  L164.06250 300.00305  L164.55078 300.00134  L165.03906 300.00305  L165.52734 300.00134  L166.01563 300.00311  L166.50391 300.00137  L166.99219 300.00314  L167.48047 300.00140  L167.96875 300.00317  L168.45703 300.00140  L168.94531 300.00323  L169.43359 300.00143  L169.92188 300.00327  L170.41016 300.00146  L170.89844 300.00333  L171.38672 300.00150  L171.87500 300.00339  L172.36328 300.00153  L172.85156 300.00345  L173.33984 300.00156  L173.82813 300.00351  L174.31641 300.00159  L174.80469 300.00360  L175.29297 300.00162  L175.78125 300.00366  L176.26953 300.00165  L176.75781 300.00375  L177.24609 300.00171  L177.73438 300.00385  L178.22266 300.00174  L178.71094 300.00397  L179.19922 300.00177  L179.68750 300.00409  L180.17578 300.00183  L180.66406 300.00421  L181.15234 300.00189  L181.64063 300.00436  L182.12891 300.00195  L182.61719 300.00452  L183.10547 300.00201  L183.59375 300.00470  L184.08203 300.00211  L184.57031 300.00494  L185.05859 300.00220  L185.54688 300.00516  L186.03516 300.00229  L186.52344 300.00543  L187.01172 300.00241  L187.50000 300.00577  L187.98828 300.00256  L188.47656 300.00616  L188.96484 300.00272  L189.45313 300.00659  L189.94141 300.00290  L190.42969 300.00714  L190.91797 300.00311  L191.40625 300.00781  L191.89453 300.00342  L192.38281 300.00867  L192.87109 300.00378  L193.35938 300.00974  L193.84766 300.00424  L194.33594 300.01123  L194.82422 300.00488  L195.31250 300.01331  L195.80078 300.00586  L196.28906 300.01651  L196.77734 300.00739  L197.26563 300.02200  L197.75391 300.01028  L198.24219 300.03363  L198.73047 300.01761  L199.21875 300.07425  L199.70703 300.07376  L200.19531 299.70844  L200.68359 299.96948  L201.17188 299.95230  L201.66016 299.98788  L202.14844 299.97449  L202.63672 299.99265  L203.12500 299.98279  L203.61328 299.99484  L204.10156 299.98712  L204.58984 299.99609  L205.07813 299.98981  L205.56641 299.99692  L206.05469 299.99158  L206.54297 299.99750  L207.03125 299.99292  L207.51953 299.99792  L208.00781 299.99390  L208.49609 299.99823  L208.98438 299.99466  L209.47266 299.99850  L209.96094 299.99527  L210.44922 299.99872  L210.93750 299.99579  L211.42578 299.99887  L211.91406 299.99622  L212.40234 299.99902  L212.89063 299.99655  L213.37891 299.99915  L213.86719 299.99686  L214.35547 299.99924  L214.84375 299.99713  L215.33203 299.99933  L215.82031 299.99738  L216.30859 299.99942  L216.79688 299.99756  L217.28516 299.99951  L217.77344 299.99774  L218.26172 299.99957  L218.75000 299.99792  L219.23828 299.99960  L219.72656 299.99805  L220.21484 299.99966  L220.70313 299.99817  L221.19141 299.99973  L221.67969 299.99829  L222.16797 299.99976  L222.65625 299.99841  L223.14453 299.99979  L223.63281 299.99850  L224.12109 299.99982  L224.60938 299.99860  L225.09766 299.99988  L225.58594 299.99866  L226.07422 299.99988  L226.56250 299.99875  L227.05078 299.99991  L227.53906 299.99884  L228.02734 299.99994  L228.51563 299.99890  L229.00391 299.99997  L229.49219 299.99896  L229.98047 300.00000  L230.46875 299.99899  L230.95703 300.00000  L231.44531 299.99905  L231.93359 300.00003  L232.42188 299.99911  L232.91016 300.00006  L233.39844 299.99915  L233.88672 300.00006  L234.37500 299.99921  L234.86328 300.00006  L235.35156 299.99924  L235.83984 300.00009  L236.32813 299.99927  L236.81641 300.00012  L237.30469 299.99930  L237.79297 300.00012  L238.28125 299.99933  L238.76953 300.00012  L239.25781 299.99939  L239.74609 300.00012  L240.23438 299.99939  L240.72266 300.00015  L241.21094 299.99942  L241.69922 300.00015  L242.18750 299.99945  L242.67578 300.00018  L243.16406 299.99948  L243.65234 300.00018  L244.14063 299.99951  L244.62891 300.00018  L245.11719 299.99951  L245.60547 300.00018  L246.09375 299.99957  L246.58203 300.00018  L247.07031 299.99957  L247.55859 300.00021  L248.04688 299.99960  L248.53516 300.00021  L249.02344 299.99963  L249.51172 300.00021  L250.00000 299.99963  L250.48828 300.00021  L250.97656 299.99963  L251.46484 300.00024  L251.95313 299.99966  L252.44141 300.00024  L252.92969 299.99969  L253.41797 300.00024  L253.90625 299.99969  L254.39453 300.00024  L254.88281 299.99969  L255.37109 300.00024  L255.85938 299.99973  L256.34766 300.00024  L256.83594 299.99976  L257.32422 300.00024  L257.81250 299.99976  L258.30078 300.00024  L258.78906 299.99976  L259.27734 300.00027  L259.76563 299.99976  L260.25391 300.00027  L260.74219 299.99979  L261.23047 300.00027  L261.71875 299.99979  L262.20703 300.00027  L262.69531 299.99982  L263.18359 300.00027  L263.67188 299.99982  L264.16016 300.00027  L264.64844 299.99982  L265.13672 300.00027  L265.62500 299.99985  L266.11328 300.00027  L266.60156 299.99985  L267.08984 300.00027  L267.57813 299.99985  L268.06641 300.00031  L268.55469 299.99988  L269.04297 300.00027  L269.53125 299.99988  L270.01953 300.00031  L270.50781 299.99988  L270.99609 300.00031  L271.48438 299.99988  L271.97266 300.00031  L272.46094 299.99988  L272.94922 300.00031  L273.43750 299.99988  L273.92578 300.00031  L274.41406 299.99991  L274.90234 300.00031  L275.39063 299.99991  L275.87891 300.00031  L276.36719 299.99991  L276.85547 300.00031  L277.34375 299.99991  L277.83203 300.00031  L278.32031 299.99994  L278.80859 300.00031  L279.29688 299.99994  L279.78516 300.00031  L280.27344 299.99994  L280.76172 300.00031  L281.25000 299.99994  L281.73828 300.00031  L282.22656 299.99994  L282.71484 300.00031  L283.20313 299.99994  L283.69141 300.00031  L284.17969 299.99994  L284.66797 300.00031  L285.15625 299.99994  L285.64453 300.00031  L286.13281 299.99997  L286.62109 300.00031  L287.10938 299.99997  L287.59766 300.00031  L288.08594 299.99997  L288.57422 300.00031  L289.06250 299.99997  L289.55078 300.00031  L290.03906 299.99997  L290.52734 300.00031  L291.01563 299.99997  L291.50391 300.00031  L291.99219 300.00000  L292.48047 300.00031  L292.96875 300.00000  L293.45703 300.00031  L293.94531 300.00000  L294.43359 300.00031  L294.92188 300.00000  L295.41016 300.00031  L295.89844 300.00000  L296.38672 300.00031  L296.87500 300.00000  L297.36328 300.00031  L297.85156 300.00000  L298.33984 300.00031  L298.82813 300.00000  L299.31641 300.00031  L299.80469 300.00000  L300.29297 300.00031  L300.78125 300.00000  L301.26953 300.00031  L301.75781 300.00000  L302.24609 300.00031  L302.73438 300.00000  L303.22266 300.00031  L303.71094 300.00000  L304.19922 300.00031  L304.68750 300.00000  L305.17578 300.00031  L305.66406 300.00000  L306.15234 300.00031  L306.64063 300.00000  L307.12891 300.00031  L307.61719 300.00000  L308.10547 300.00031  L308.59375 300.00003  L309.08203 300.00031  L309.57031 300.00003  L310.05859 300.00031  L310.54688 300.00003  L311.03516 300.00031  L311.52344 300.00003  L312.01172 300.00031  L312.50000 300.00003  L312.98828 300.00031  L313.47656 300.00003  L313.96484 300.00031  L314.45313 300.00003  L314.94141 300.00027  L315.42969 300.00003  L315.91797 300.00027  L316.40625 300.00003  L316.89453 300.00027  L317.38281 300.00003  L317.87109 300.00027  L318.35938 300.00003  L318.84766 300.00027  L319.33594 300.00003  L319.82422 300.00027  L320.31250 300.00003  L320.80078 300.00027  L321.28906 300.00003  L321.77734 300.00027  L322.26563 300.00003  L322.75391 300.00027  L323.24219 300.00006  L323.73047 300.00027  L324.21875 300.00003  L324.70703 300.00027  L325.19531 300.00003  L325.68359 300.00027  L326.17188 300.00003  L326.66016 300.00027  L327.14844 300.00006  L327.63672 300.00024  L328.12500 300.00006  L328.61328 300.00027  L329.10156 300.00006  L329.58984 300.00027  L330.07813 300.00006  L330.56641 300.00024  L331.05469 300.00006  L331.54297 300.00027  L332.03125 300.00006  L332.51953 300.00024  L333.00781 300.00006  L333.49609 300.00024  L333.98438 300.00006  L334.47266 300.00024  L334.96094 300.00006  L335.44922 300.00024  L335.93750 300.00006  L336.42578 300.00024  L336.91406 300.00006  L337.40234 300.00024  L337.89063 300.00006  L338.37891 300.00024  L338.86719 300.00006  L339.35547 300.00024  L339.84375 300.00006  L340.33203 300.00024  L340.82031 300.00006  L341.30859 300.00024  L341.79688 300.00006  L342.28516 300.00024  L342.77344 300.00006  L343.26172 300.00024  L343.75000 300.00006  L344.23828 300.00024  L344.72656 300.00006  L345.21484 300.00024  L345.70313 300.00006  L346.19141 300.00024  L346.67969 300.00006  L347.16797 300.00024  L347.65625 300.00006  L348.14453 300.00024  L348.63281 300.00006  L349.12109 300.00024  L349.60938 300.00006  L350.09766 300.00024  L350.58594 300.00006  L351.07422 300.00024  L351.56250 300.00006  L352.05078 300.00024  L352.53906 300.00006  L353.02734 300.00024  L353.51563 300.00006  L354.00391 300.00024  L354.49219 300.00006  L354.98047 300.00024  L355.46875 300.00006  L355.95703 300.00024  L356.44531 300.00006  L356.93359 300.00021  L357.42188 300.00006  L357.91016 300.00021  L358.39844 300.00006  L358.88672 300.00021  L359.37500 300.00006  L359.86328 300.00021  L360.35156 300.00006  L360.83984 300.00021  L361.32813 300.00006  L361.81641 300.00021  L362.30469 300.00006  L362.79297 300.00021  L363.28125 300.00006  L363.76953 300.00021  L364.25781 300.00006  L364.74609 300.00021  L365.23438 300.00006  L365.72266 300.00021  L366.21094 300.00006  L366.69922 300.00021  L367.18750 300.00006  L367.67578 300.00021  L368.16406 300.00006  L368.65234 300.00021  L369.14063 300.00006  L369.62891 300.00021  L370.11719 300.00006  L370.60547 300.00021  L371.09375 300.00006  L371.58203 300.00018  L372.07031 300.00006  L372.55859 300.00018  L373.04688 300.00006  L373.53516 300.00018  L374.02344 300.00006  L374.51172 300.00018  L375.00000 300.00006  L375.48828 300.00018  L375.97656 300.00006  L376.46484 300.00018  L376.95313 300.00006  L377.44141 300.00018  L377.92969 300.00006  L378.41797 300.00018  L378.90625 300.00006  L379.39453 300.00018  L379.88281 300.00006  L380.37109 300.00018  L380.85938 300.00006  L381.34766 300.00018  L381.83594 300.00006  L382.32422 300.00018  L382.81250 300.00006  L383.30078 300.00018  L383.78906 300.00006  L384.27734 300.00018  L384.76563 300.00006  L385.25391 300.00018  L385.74219 300.00006  L386.23047 300.00018  L386.71875 300.00006  L387.20703 300.00018  L387.69531 300.00006  L388.18359 300.00018  L388.67188 300.00006  L389.16016 300.00018  L389.64844 300.00006  L390.13672 300.00018  L390.62500 300.00006  L391.11328 300.00018  L391.60156 300.00006  L392.08984 300.00018  L392.57813 300.00006  L393.06641 300.00015  L393.55469 300.00006  L394.04297 300.00015  L394.53125 300.00006  L395.01953 300.00015  L395.50781 300.00003  L395.99609 300.00015  L396.48438 300.00006  L396.97266 300.00015  L397.46094 300.00006  L397.94922 300.00015  L398.43750 300.00006  L398.92578 300.00015  L399.41406 300.00003  L399.90234 300.00015  L400.39063 300.00003  L400.87891 300.00015  L401.36719 300.00003  L401.85547 300.00015  L402.34375 300.00003  L402.83203 300.00015  L403.32031 300.00003  L403.80859 300.00015  L404.29688 300.00003  L404.78516 300.00015  L405.27344 300.00003  L405.76172 300.00015  L406.25000 300.00003  L406.73828 300.00012  L407.22656 300.00003  L407.71484 300.00012  L408.20313 300.00003  L408.69141 300.00015  L409.17969 300.00003  L409.66797 300.00012  L410.15625 300.00003  L410.64453 300.00012  L411.13281 300.00003  L411.62109 300.00012  L412.10938 300.00003  L412.59766 300.00012  L413.08594 300.00003  L413.57422 300.00012  L414.06250 300.00003  L414.55078 300.00012  L415.03906 300.00003  L415.52734 300.00012  L416.01563 300.00003  L416.50391 300.00012  L416.99219 300.00003  L417.48047 300.00012  L417.96875 300.00003  L418.45703 300.00012  L418.94531 300.00003  L419.43359 300.00012  L419.92188 300.00003  L420.41016 300.00012  L420.89844 300.00003  L421.38672 300.00012  L421.87500 300.00003  L422.36328 300.00012  L422.85156 300.00003  L423.33984 300.00012  L423.82813 300.00003  L424.31641 300.00012  L424.80469 300.00003  L425.29297 300.00012  L425.78125 300.00003  L426.26953 300.00012  L426.75781 300.00003  L427.24609 300.00012  L427.73438 300.00003  L428.22266 300.00012  L428.71094 300.00003  L429.19922 300.00009  L429.68750 300.00003  L430.17578 300.00009  L430.66406 300.00003  L431.15234 300.00009  L431.64063 300.00003  L432.12891 300.00009  L432.61719 300.00003  L433.10547 300.00009  L433.59375 300.00003  L434.08203 300.00009  L434.57031 300.00003  L435.05859 300.00009  L435.54688 300.00003  L436.03516 300.00009  L436.52344 300.00003  L437.01172 300.00009  L437.50000 300.00000  L437.98828 300.00009  L438.47656 300.00003  L438.96484 300.00009  L439.45313 300.00003  L439.94141 300.00009  L440.42969 300.00000  L440.91797 300.00006  L441.40625 300.00000  L441.89453 300.00006  L442.38281 300.00000  L442.87109 300.00009  L443.35938 300.00000  L443.84766 300.00006  L444.33594 300.00000  L444.82422 300.00006  L445.31250 300.00000  L445.80078 300.00006  L446.28906 300.00000  L446.77734 300.00006  L447.26563 300.00000  L447.75391 300.00006  L448.24219 300.00000  L448.73047 300.00006  L449.21875 300.00000  L449.70703 300.00006  L450.19531 300.00000  L450.68359 300.00006  L451.17188 300.00000  L451.66016 300.00006  L452.14844 300.00000  L452.63672 300.00006  L453.12500 300.00000  L453.61328 300.00006  L454.10156 300.00000  L454.58984 300.00006  L455.07813 300.00000  L455.56641 300.00006  L456.05469 300.00000  L456.54297 300.00006  L457.03125 300.00000  L457.51953 300.00006  L458.00781 300.00000  L458.49609 300.00006  L458.98438 300.00000  L459.47266 300.00006  L459.96094 300.00000  L460.44922 300.00006  L460.93750 300.00000  L461.42578 300.00006  L461.91406 300.00000  L462.40234 300.00003  L462.89063 300.00000  L463.37891 300.00003  L463.86719 300.00000  L464.35547 300.00006  L464.84375 300.00000  L465.33203 300.00003  L465.82031 300.00000  L466.30859 300.00003  L466.79688 300.00000  L467.28516 300.00003  L467.77344 300.00000  L468.26172 300.00003  L468.75000 300.00000  L469.23828 300.00003  L469.72656 300.00000  L470.21484 300.00003  L470.70313 300.00000  L471.19141 300.00003  L471.67969 300.00000  L472.16797 300.00003  L472.65625 300.00000  L473.14453 300.00003  L473.63281 300.00000  L474.12109 300.00003  L474.60938 300.00000  L475.09766 300.00003  L475.58594 300.00000  L476.07422 300.00000  L476.56250 300.00000  L477.05078 300.00003  L477.53906 300.00000  L478.02734 300.00003  L478.51563 300.00000  L479.00391 300.00000  L479.49219 300.00000  L479.98047 300.00000  L480.46875 300.00000  L480.95703 300.00000  L481.44531 300.00000  L481.93359 300.00000  L482.42188 300.00000  L482.91016 300.00000  L483.39844 300.00000  L483.88672 300.00000  L484.37500 300.00000  L484.86328 300.00000  L485.35156 300.00000  L485.83984 300.00000  L486.32813 300.00000  L486.81641 300.00000  L487.30469 300.00000  L487.79297 300.00000  L488.28125 300.00000  L488.76953 300.00000  L489.25781 300.00000  L489.74609 300.00000  L490.23438 300.00000  L490.72266 300.00000  L491.21094 300.00000  L491.69922 300.00000  L492.18750 300.00000  L492.67578 300.00000  L493.16406 300.00000  L493.65234 300.00000  L494.14063 300.00000  L494.62891 300.00000  L495.11719 300.00000  L495.60547 300.00000  L496.09375 300.00000  L496.58203 300.00000  L497.07031 299.99997  L497.55859 300.00000  L498.04688 300.00000  L498.53516 299.99997  L499.02344 300.00000  L499.51172 299.99997  L500.00000 299.99997  L500.48828 299.99997  L500.97656 299.99997  L501.46484 299.99997  L501.95313 299.99997  L502.44141 299.99997  L502.92969 299.99997  L503.41797 299.99997  L503.90625 299.99997  L504.39453 299.99997  L504.88281 299.99997  L505.37109 299.99997  L505.85938 299.99997  L506.34766 299.99997  L506.83594 299.99997  L507.32422 299.99997  L507.81250 299.99997  L508.30078 299.99997  L508.78906 299.99997  L509.27734 299.99997  L509.76563 299.99997  L510.25391 299.99997  L510.74219 299.99997  L511.23047 299.99994  L511.71875 299.99997  L512.20703 299.99994  L512.69531 299.99997  L513.18359 299.99994  L513.67188 299.99997  L514.16016 299.99994  L514.64844 299.99997  L515.13672 299.99994  L515.62500 299.99997  L516.11328 299.99994  L516.60156 299.99997  L517.08984 299.99994  L517.57813 299.99997  L518.06641 299.99994  L518.55469 299.99997  L519.04297 299.99994  L519.53125 299.99997  L520.01953 299.99994  L520.50781 299.99997  L520.99609 299.99994  L521.48438 299.99997  L521.97266 299.99994  L522.46094 299.99997  L522.94922 299.99994  L523.43750 299.99997  L523.92578 299.99994  L524.41406 299.99997  L524.90234 299.99994  L525.39063 299.99997  L525.87891 299.99994  L526.36719 299.99997  L526.85547 299.99994  L527.34375 299.99997  L527.83203 299.99994  L528.32031 299.99997  L528.80859 299.99994  L529.29688 299.99997  L529.78516 299.99994  L530.27344 299.99997  L530.76172 299.99994  L531.25000 299.99994  L531.73828 299.99994  L532.22656 299.99997  L532.71484 299.99991  L533.20313 299.99994  L533.69141 299.99991  L534.17969 299.99994  L534.66797 299.99991  L535.15625 299.99994  L535.64453 299.99991  L536.13281 299.99994  L536.62109 299.99991  L537.10938 299.99994  L537.59766 299.99991  L538.08594 299.99994  L538.57422 299.99991  L539.06250 299.99994  L539.55078 299.99991  L540.03906 299.99994  L540.52734 299.99991  L541.01563 299.99994  L541.50391 299.99991  L541.99219 299.99994  L542.48047 299.99991  L542.96875 299.99994  L543.45703 299.99991  L543.94531 299.99994  L544.43359 299.99991  L544.92188 299.99994  L545.41016 299.99988  L545.89844 299.99994  L546.38672 299.99991  L546.87500 299.99994  L547.36328 299.99991  L547.85156 299.99994  L548.33984 299.99988  L548.82813 299.99994  L549.31641 299.99988  L549.80469 299.99994  L550.29297 299.99988  L550.78125 299.99994  L551.26953 299.99988  L551.75781 299.99994  L552.24609 299.99988  L552.73438 299.99994  L553.22266 299.99988  L553.71094 299.99994  L554.19922 299.99988  L554.68750 299.99994  L555.17578 299.99988  L555.66406 299.99994  L556.15234 299.99988  L556.64063 299.99994  L557.12891 299.99988  L557.61719 299.99994  L558.10547 299.99988  L558.59375 299.99994  L559.08203 299.99988  L559.57031 299.99994  L560.05859 299.99988  L560.54688 299.99994  L561.03516 299.99988  L561.52344 299.99994  L562.01172 299.99988  L562.50000 299.99994  L562.98828 299.99988  L563.47656 299.99994  L563.96484 299.99988  L564.45313 299.99994  L564.94141 299.99988  L565.42969 299.99994  L565.91797 299.99988  L566.40625 299.99994  L566.89453 299.99988  L567.38281 299.99994  L567.87109 299.99985  L568.35938 299.99994  L568.84766 299.99985  L569.33594 299.99994  L569.82422 299.99985  L570.31250 299.99994  L570.80078 299.99985  L571.28906 299.99994  L571.77734 299.99985  L572.26563 299.99994  L572.75391 299.99985  L573.24219 299.99994  L573.73047 299.99985  L574.21875 299.99994  L574.70703 299.99985  L575.19531 299.99994  L575.68359 299.99985  L576.17188 299.99994  L576.66016 299.99985  L577.14844 299.99994  L577.63672 299.99985  L578.12500 299.99994  L578.61328 299.99985  L579.10156 299.99994  L579.58984 299.99985  L580.07813 299.99994  L580.56641 299.99982  L581.05469 299.99994  L581.54297 299.99985  L582.03125 299.99994  L582.51953 299.99982  L583.00781 299.99994  L583.49609 299.99982  L583.98438 299.99994  L584.47266 299.99982  L584.96094 299.99994  L585.44922 299.99982  L585.93750 299.99994  L586.42578 299.99982  L586.91406 299.99994  L587.40234 299.99982  L587.89063 299.99994  L588.37891 299.99982  L588.86719 299.99994  L589.35547 299.99982  L589.84375 299.99994  L590.33203 299.99982  L590.82031 299.99994  L591.30859 299.99982  L591.79688 299.99994  L592.28516 299.99982  L592.77344 299.99991  L593.26172 299.99982  L593.75000 299.99994  L594.23828 299.99982  L594.72656 299.99991  L595.21484 299.99982  L595.70313 299.99991  L596.19141 299.99982  L596.67969 299.99994  L597.16797 299.99982  L597.65625 299.99991  L598.14453 299.99982  L598.63281 299.99991  L599.12109 299.99982  L599.60938 299.99991  L600.09766 299.99982  L600.58594 299.99991  L601.07422 299.99982  L601.56250 299.99991  L602.05078 299.99982  L602.53906 299.99991  L603.02734 299.99982  L603.51563 299.99991  L604.00391 299.99979  L604.49219 299.99991  L604.98047 299.99979  L605.46875 299.99991  L605.95703 299.99979  L606.44531 299.99991  L606.93359 299.99979  L607.42188 299.99991  L607.91016 299.99979  L608.39844 299.99991  L608.88672 299.99979  L609.37500 299.99991  L609.86328 299.99979  L610.35156 299.99991  L610.83984 299.99979  L611.32813 299.99991  L611.81641 299.99979  L612.30469 299.99991  L612.79297 299.99979  L613.28125 299.99991  L613.76953 299.99979  L614.25781 299.99991  L614.74609 299.99979  L615.23438 299.99991  L615.72266 299.99979  L616.21094 299.99991  L616.69922 299.99979  L617.18750 299.99991  L617.67578 299.99976  L618.16406 299.99991  L618.65234 299.99976  L619.14063 299.99991  L619.62891 299.99976  L620.11719 299.99991  L620.60547 299.99976  L621.09375 299.99991  L621.58203 299.99976  L622.07031 299.99991  L622.55859 299.99976  L623.04688 299.99991  L623.53516 299.99976  L624.02344 299.99991  L624.51172 299.99976  L625.00000 299.99991  L625.48828 299.99976  L625.97656 299.99991  L626.46484 299.99976  L626.95313 299.99991  L627.44141 299.99976  L627.92969 299.99991  L628.41797 299.99976  L628.90625 299.99991  L629.39453 299.99976  L629.88281 299.99991  L630.37109 299.99976  L630.85938 299.99991  L631.34766 299.99976  L631.83594 299.99991  L632.32422 299.99976  L632.81250 299.99991  L633.30078 299.99976  L633.78906 299.99991  L634.27734 299.99976  L634.76563 299.99991  L635.25391 299.99976  L635.74219 299.99991  L636.23047 299.99976  L636.71875 299.99991  L637.20703 299.99976  L637.69531 299.99991  L638.18359 299.99976  L638.67188 299.99991  L639.16016 299.99973  L639.64844 299.99991  L640.13672 299.99973  L640.62500 299.99991  L641.11328 299.99973  L641.60156 299.99991  L642.08984 299.99973  L642.57813 299.99991  L643.06641 299.99973  L643.55469 299.99991  L644.04297 299.99973  L644.53125 299.99991  L645.01953 299.99973  L645.50781 299.99991  L645.99609 299.99973  L646.48438 299.99991  L646.97266 299.99973  L647.46094 299.99991  L647.94922 299.99973  L648.43750 299.99991  L648.92578 299.99973  L649.41406 299.99991  L649.90234 299.99973  L650.39063 299.99991  L650.87891 299.99973  L651.36719 299.99991  L651.85547 299.99973  L652.34375 299.99991  L652.83203 299.99973  L653.32031 299.99991  L653.80859 299.99973  L654.29688 299.99991  L654.78516 299.99969  L655.27344 299.99991  L655.76172 299.99969  L656.25000 299.99991  L656.73828 299.99969  L657.22656 299.99991  L657.71484 299.99969  L658.20313 299.99991  L658.69141 299.99969  L659.17969 299.99991  L659.66797 299.99969  L660.15625 299.99991  L660.64453 299.99969  L661.13281 299.99991  L661.62109 299.99969  L662.10938 299.99991  L662.59766 299.99969  L663.08594 299.99991  L663.57422 299.99969  L664.06250 299.99991  L664.55078 299.99969  L665.03906 299.99991  L665.52734 299.99969  L666.01563 299.99991  L666.50391 299.99969  L666.99219 299.99991  L667.48047 299.99969  L667.96875 299.99991  L668.45703 299.99969  L668.94531 299.99991  L669.43359 299.99969  L669.92188 299.99991  L670.41016 299.99969  L670.89844 299.99991  L671.38672 299.99969  L671.87500 299.99991  L672.36328 299.99969  L672.85156 299.99991  L673.33984 299.99969  L673.82813 299.99991  L674.31641 299.99969  L674.80469 299.99994  L675.29297 299.99969  L675.78125 299.99991  L676.26953 299.99969  L676.75781 299.99991  L677.24609 299.99969  L677.73438 299.99994  L678.22266 299.99966  L678.71094 299.99994  L679.19922 299.99969  L679.68750 299.99991  L680.17578 299.99969  L680.66406 299.99991  L681.15234 299.99969  L681.64063 299.99994  L682.12891 299.99969  L682.61719 299.99994  L683.10547 299.99966  L683.59375 299.99994  L684.08203 299.99966  L684.57031 299.99994  L685.05859 299.99966  L685.54688 299.99994  L686.03516 299.99966  L686.52344 299.99994  L687.01172 299.99966  L687.50000 299.99994  L687.98828 299.99966  L688.47656 299.99994  L688.96484 299.99966  L689.45313 299.99994  L689.94141 299.99966  L690.42969 299.99994  L690.91797 299.99966  L691.40625 299.99994  L691.89453 299.99966  L692.38281 299.99994  L692.87109 299.99966  L693.35938 299.99994  L693.84766 299.99966  L694.33594 299.99994  L694.82422 299.99966  L695.31250 299.99994  L695.80078 299.99966  L696.28906 299.99994  L696.77734 299.99966  L697.26563 299.99994  L697.75391 299.99966  L698.24219 299.99994  L698.73047 299.99966  L699.21875 299.99994  L699.70703 299.99966  L700.19531 299.99994  L700.68359 299.99966  L701.17188 299.99994  L701.66016 299.99966  L702.14844 299.99997  L702.63672 299.99966  L703.12500 299.99997  L703.61328 299.99966  L704.10156 299.99997  L704.58984 299.99966  L705.07813 299.99997  L705.56641 299.99963  L706.05469 299.99997  L706.54297 299.99966  L707.03125 299.99997  L707.51953 299.99966  L708.00781 299.99997  L708.49609 299.99966  L708.98438 300.00000  L709.47266 299.99966  L709.96094 300.00000  L710.44922 299.99966  L710.93750 300.00000  L711.42578 299.99966  L711.91406 300.00000  L712.40234 299.99966  L712.89063 300.00000  L713.37891 299.99966  L713.86719 300.00000  L714.35547 299.99966  L714.84375 300.00000  L715.33203 299.99966  L715.82031 300.00000  L716.30859 299.99966  L716.79688 300.00000  L717.28516 299.99966  L717.77344 300.00000  L718.26172 299.99966  L718.75000 300.00003  L719.23828 299.99966  L719.72656 300.00003  L720.21484 299.99966  L720.70313 300.00003  L721.19141 299.99966  L721.67969 300.00003  L722.16797 299.99966  L722.65625 300.00003  L723.14453 299.99966  L723.63281 300.00006  L724.12109 299.99966  L724.60938 300.00006  L725.09766 299.99966  L725.58594 300.00006  L726.07422 299.99966  L726.56250 300.00006  L727.05078 299.99966  L727.53906 300.00006  L728.02734 299.99966  L728.51563 300.00006  L729.00391 299.99966  L729.49219 300.00009  L729.98047 299.99966  L730.46875 300.00009  L730.95703 299.99966  L731.44531 300.00009  L731.93359 299.99966  L732.42188 300.00012  L732.91016 299.99966  L733.39844 300.00012  L733.88672 299.99969  L734.37500 300.00012  L734.86328 299.99969  L735.35156 300.00012  L735.83984 299.99969  L736.32813 300.00015  L736.81641 299.99969  L737.30469 300.00015  L737.79297 299.99969  L738.28125 300.00015  L738.76953 299.99969  L739.25781 300.00018  L739.74609 299.99969  L740.23438 300.00018  L740.72266 299.99969  L741.21094 300.00018  L741.69922 299.99969  L742.18750 300.00021  L742.67578 299.99969  L743.16406 300.00021  L743.65234 299.99969  L744.14063 300.00024  L744.62891 299.99969  L745.11719 300.00024  L745.60547 299.99969  L746.09375 300.00024  L746.58203 299.99973  L747.07031 300.00027  L747.55859 299.99973  L748.04688 300.00031  L748.53516 299.99973  L749.02344 300.00031  L749.51172 299.99973  L750.00000 300.00031  L750.48828 299.99976  L750.97656 300.00034  L751.46484 299.99976  L751.95313 300.00037  L752.44141 299.99976  L752.92969 300.00037  L753.41797 299.99976  L753.90625 300.00040  L754.39453 299.99976  L754.88281 300.00043  L755.37109 299.99976  L755.85938 300.00046  L756.34766 299.99979  L756.83594 300.00049  L757.32422 299.99979  L757.81250 300.00049  L758.30078 299.99979  L758.78906 300.00052  L759.27734 299.99982  L759.76563 300.00055  L760.25391 299.99982  L760.74219 300.00058  L761.23047 299.99982  L761.71875 300.00061  L762.20703 299.99985  L762.69531 300.00064  L763.18359 299.99985  L763.67188 300.00067  L764.16016 299.99988  L764.64844 300.00073  L765.13672 299.99988  L765.62500 300.00076  L766.11328 299.99991  L766.60156 300.00079  L767.08984 299.99991  L767.57813 300.00085  L768.06641 299.99994  L768.55469 300.00089  L769.04297 299.99994  L769.53125 300.00095  L770.01953 299.99997  L770.50781 300.00101  L770.99609 300.00000  L771.48438 300.00107  L771.97266 300.00000  L772.46094 300.00113  L772.94922 300.00003  L773.43750 300.00122  L773.92578 300.00006  L774.41406 300.00128  L774.90234 300.00009  L775.39063 300.00137  L775.87891 300.00012  L776.36719 300.00146  L776.85547 300.00015  L777.34375 300.00156  L777.83203 300.00018  L778.32031 300.00165  L778.80859 300.00024  L779.29688 300.00177  L779.78516 300.00031  L780.27344 300.00189  L780.76172 300.00034  L781.25000 300.00204  L781.73828 300.00040  L782.22656 300.00220  L782.71484 300.00046  L783.20313 300.00238  L783.69141 300.00055  L784.17969 300.00259  L784.66797 300.00061  L785.15625 300.00284  L785.64453 300.00070  L786.13281 300.00308  L786.62109 300.00082  L787.10938 300.00342  L787.59766 300.00095  L788.08594 300.00375  L788.57422 300.00110  L789.06250 300.00418  L789.55078 300.00125  L790.03906 300.00470  L790.52734 300.00146  L791.01563 300.00531  L791.50391 300.00171  L791.99219 300.00607  L792.48047 300.00204  L792.96875 300.00705  L793.45703 300.00247  L793.94531 300.00836  L794.43359 300.00305  L794.92188 300.01016  L795.41016 300.00388  L795.89844 300.01285  L796.38672 300.00513  L796.87500 300.01718  L797.36328 300.00732  L797.85156 300.02548  L798.33984 300.01208  L798.82813 300.04767  L799.31641 300.03046  L799.80469 300.29153  L800.29297 299.92621  L800.78125 299.92572  L801.26953 299.98236  L801.75781 299.96634  L802.24609 299.98969  L802.73438 299.97797  L803.22266 299.99255  L803.71094 299.98343  L804.19922 299.99411  L804.68750 299.98663  L805.17578 299.99506  L805.66406 299.98874  L806.15234 299.99573  L806.64063 299.99020  L807.12891 299.99619  L807.61719 299.99130  L808.10547 299.99655  L808.59375 299.99213  L809.08203 299.99686  L809.57031 299.99280  L810.05859 299.99707  L810.54688 299.99335  L811.03516 299.99725  L811.52344 299.99380  L812.01172 299.99741  L812.50000 299.99420  L812.98828 299.99756  L813.47656 299.99451  L813.96484 299.99765  L814.45313 299.99481  L814.94141 299.99774  L815.42969 299.99503  L815.91797 299.99786  L816.40625 299.99524  L816.89453 299.99792  L817.38281 299.99542  L817.87109 299.99799  L818.35938 299.99561  L818.84766 299.99805  L819.33594 299.99573  L819.82422 299.99811  L820.31250 299.99588  L820.80078 299.99817  L821.28906 299.99597  L821.77734 299.99823  L822.26563 299.99609  L822.75391 299.99826  L823.24219 299.99622  L823.73047 299.99829  L824.21875 299.99628  L824.70703 299.99835  L825.19531 299.99637  L825.68359 299.99838  L826.17188 299.99643  L826.66016 299.99841  L827.14844 299.99652  L827.63672 299.99841  L828.12500 299.99658  L828.61328 299.99847  L829.10156 299.99664  L829.58984 299.99847  L830.07813 299.99667  L830.56641 299.99854  L831.05469 299.99673  L831.54297 299.99854  L832.03125 299.99677  L832.51953 299.99857  L833.00781 299.99683  L833.49609 299.99860  L833.98438 299.99686  L834.47266 299.99860  L834.96094 299.99689  L835.44922 299.99863  L835.93750 299.99692  L836.42578 299.99866  L836.91406 299.99695  L837.40234 299.99866  L837.89063 299.99698  L838.37891 299.99869  L838.86719 299.99701  L839.35547 299.99872  L839.84375 299.99701  L840.33203 299.99872  L840.82031 299.99704  L841.30859 299.99875  L841.79688 299.99707  L842.28516 299.99878  L842.77344 299.99707  L843.26172 299.99878  L843.75000 299.99710  L844.23828 299.99881  L844.72656 299.99713  L845.21484 299.99884  L845.70313 299.99713  L846.19141 299.99884  L846.67969 299.99713  L847.16797 299.99887  L847.65625 299.99713  L848.14453 299.99890  L848.63281 299.99716  L849.12109 299.99890  L849.60938 299.99716  L850.09766 299.99890  L850.58594 299.99716  L851.07422 299.99893  L851.56250 299.99716  L852.05078 299.99896  L852.53906 299.99719  L853.02734 299.99896  L853.51563 299.99719  L854.00391 299.99899  L854.49219 299.99719  L854.98047 299.99902  L855.46875 299.99719  L855.95703 299.99902  L856.44531 299.99719  L856.93359 299.99905  L857.42188 299.99719  L857.91016 299.99908  L858.39844 299.99719  L858.88672 299.99908  L859.37500 299.99719  L859.86328 299.99911  L860.35156 299.99719  L860.83984 299.99915  L861.32813 299.99719  L861.81641 299.99918  L862.30469 299.99719  L862.79297 299.99921  L863.28125 299.99716  L863.76953 299.99921  L864.25781 299.99716  L864.74609 299.99927  L865.23438 299.99716  L865.72266 299.99927  L866.21094 299.99713  L866.69922 299.99930  L867.18750 299.99713  L867.67578 299.99933  L868.16406 299.99713  L868.65234 299.99936  L869.14063 299.99713  L869.62891 299.99939  L870.11719 299.99710  L870.60547 299.99942  L871.09375 299.99710  L871.58203 299.99945  L872.07031 299.99710  L872.55859 299.99951  L873.04688 299.99707  L873.53516 299.99954  L874.02344 299.99707  L874.51172 299.99957  L875.00000 299.99707  L875.48828 299.99960  L875.97656 299.99704  L876.46484 299.99963  L876.95313 299.99701  L877.44141 299.99969  L877.92969 299.99701  L878.41797 299.99976  L878.90625 299.99701  L879.39453 299.99979  L879.88281 299.99698  L880.37109 299.99985  L880.85938 299.99695  L881.34766 299.99988  L881.83594 299.99695  L882.32422 299.99994  L882.81250 299.99692  L883.30078 300.00000  L883.78906 299.99689  L884.27734 300.00006  L884.76563 299.99689  L885.25391 300.00012  L885.74219 299.99689  L886.23047 300.00018  L886.71875 299.99686  L887.20703 300.00024  L887.69531 299.99683  L888.18359 300.00034  L888.67188 299.99680  L889.16016 300.00040  L889.64844 299.99677  L890.13672 300.00049  L890.62500 299.99677  L891.11328 300.00055  L891.60156 299.99673  L892.08984 300.00064  L892.57813 299.99670  L893.06641 300.00073  L893.55469 299.99670  L894.04297 300.00082  L894.53125 299.99667  L895.01953 300.00092  L895.50781 299.99664  L895.99609 300.00104  L896.48438 299.99661  L896.97266 300.00116  L897.46094 299.99658  L897.94922 300.00125  L898.43750 299.99658  L898.92578 300.00140  L899.41406 299.99655  L899.90234 300.00153  L900.39063 299.99652  L900.87891 300.00165  L901.36719 299.99652  L901.85547 300.00180  L902.34375 299.99649  L902.83203 300.00195  L903.32031 299.99646  L903.80859 300.00211  L904.29688 299.99646  L904.78516 300.00229  L905.27344 299.99646  L905.76172 300.00247  L906.25000 299.99643  L906.73828 300.00266  L907.22656 299.99643  L907.71484 300.00287  L908.20313 299.99643  L908.69141 300.00305  L909.17969 299.99643  L909.66797 300.00330  L910.15625 299.99646  L910.64453 300.00351  L911.13281 299.99646  L911.62109 300.00378  L912.10938 299.99652  L912.59766 300.00403  L913.08594 299.99655  L913.57422 300.00430  L914.06250 299.99661  L914.55078 300.00458  L915.03906 299.99667  L915.52734 300.00491  L916.01563 299.99677  L916.50391 300.00522  L916.99219 299.99689  L917.48047 300.00555  L917.96875 299.99704  L918.45703 300.00589  L918.94531 299.99722  L919.43359 300.00626  L919.92188 299.99747  L920.41016 300.00659  L920.89844 299.99777  L921.38672 300.00696  L921.87500 299.99814  L922.36328 300.00732  L922.85156 299.99863  L923.33984 300.00769  L923.82813 299.99921  L924.31641 300.00800  L924.80469 300.00000  L925.29297 300.00824  L925.78125 300.00095  L926.26953 300.00842  L926.75781 300.00220  L927.24609 300.00842  L927.73438 300.00378  L928.22266 300.00821  L928.71094 300.00592  L929.19922 300.00763  L929.68750 300.00876  L930.17578 300.00653  L930.66406 300.01257  L931.15234 300.00458  L931.64063 300.01791  L932.12891 300.00119  L932.61719 300.02551  L933.10547 299.99548  L933.59375 300.03674  L934.08203 299.98572  L934.57031 300.05408  L935.05859 299.96860  L935.54688 300.08231  L936.03516 299.93686  L936.52344 300.13214  L937.01172 299.87311  L937.50000 300.23059  L937.98828 299.72714  L938.47656 300.46320  L938.96484 299.30719  L939.45313 301.22571  L939.94141 297.34534  L940.42969 307.00854  L940.91797 228.79921  L941.40625 379.19604  L941.89453 289.30090  L942.38281 303.06436  L942.87109 297.79626  L943.35938 300.99515  L943.84766 298.99161  L944.33594 300.50391  L944.82422 299.38983  L945.31250 300.31116  L945.80078 299.57443  L946.28906 300.21503  L946.77734 299.67670  L947.26563 300.15973  L947.75391 299.74020  L948.24219 300.12473  L948.73047 299.78287  L949.21875 300.10098  L949.70703 299.81329  L950.19531 300.08401  L950.68359 299.83612  L951.17188 300.07138  L951.66016 299.85400  L952.14844 300.06158  L952.63672 299.86865  L953.12500 300.05371  L953.61328 299.88129  L954.10156 300.04715  L954.58984 299.89288  L955.07813 300.04144  L955.56641 299.90427  L956.05469 300.03625  L956.54297 299.91644  L957.03125 300.03119  L957.51953 299.93066  L958.00781 300.02582  L958.49609 299.94894  L958.98438 300.01959  L959.47266 299.97449  L959.96094 300.01154  L960.44922 300.01340  L960.93750 299.99985  L961.42578 300.07822  L961.91406 299.98065  L962.40234 300.19821  L962.89063 299.94431  L963.37891 300.45435  L963.86719 299.86108  L964.35547 301.13983  L964.84375 299.59918  L965.33203 304.01636  L965.82031 297.86151  L966.30859 363.33536  L966.79688 200.00000  L967.28516 323.52417  L967.77344 298.50735  L968.26172 303.85101  L968.75000 299.55414  L969.23828 301.59143  L969.72656 299.78430  L970.21484 300.88843  L970.70313 299.87204  L971.19141 300.57559  L971.67969 299.91510  L972.16797 300.40726  L972.65625 299.93958  L973.14453 300.30530  L973.63281 299.95490  L974.12109 300.23837  L974.60938 299.96512  L975.09766 300.19174  L975.58594 299.97232  L976.07422 300.15778  L976.56250 299.97760  L977.05078 300.13211  L977.53906 299.98157  L978.02734 300.11218  L978.51563 299.98462  L979.00391 300.09637  L979.49219 299.98706  L979.98047 300.08350  L980.46875 299.98898  L980.95703 300.07288  L981.44531 299.99057  L981.93359 300.06400  L982.42188 299.99188  L982.91016 300.05646  L983.39844 299.99298  L983.88672 300.04993  L984.37500 299.99390  L984.86328 300.04431  L985.35156 299.99469  L985.83984 300.03934  L986.32813 299.99536  L986.81641 300.03494  L987.30469 299.99594  L987.79297 300.03101  L988.28125 299.99646  L988.76953 300.02747  L989.25781 299.99692  L989.74609 300.02423  L990.23438 299.99731  L990.72266 300.02124  L991.21094 299.99768  L991.69922 300.01849  L992.18750 299.99802  L992.67578 300.01596  L993.16406 299.99832  L993.65234 300.01355  L994.14063 299.99860  L994.62891 300.01126  L995.11719 299.99884  L995.60547 300.00906  L996.09375 299.99908  L996.58203 300.00696  L997.07031 299.99933  L997.55859 300.00494  L998.04688 299.99954  L998.53516 300.00293  L999.02344 299.99976  L999.51172 300.00098 " /></g><text x="1000.00000" dx="10" y="103.84882">[-89.34321;96.49582]</text><text x="1000.00000" dx="10" y="299.99997">[-71.78119;71.78116]</text></svg>