<svg xmlns="http://www.w3.org/2000/svg" version="1.1"><g stroke-width="0.6"><path fill="none" stroke="#000000" d="M0 199.99995 L1000.00000 199.99995" /><path fill="none" stroke="#000000" d="M0 314.35034 L1000.00000 314.35034" /><path fill="none" stroke="#000000" d="M500.00000 0 L500.00000 400.00000" /><path fill="none" stroke="#550000" d="M0 371.52551 L1000.00000 371.52551" /><path fill="none" stroke="#550000" d="M0 314.35034 L1000.00000 314.35034" /><path fill="none" stroke="#550000" d="M0 257.17517 L1000.00000 257.17517" /><path fill="none" stroke="#000000" d="M0 199.99995  L0.00000 198.70949 L3.90625 197.89632 L7.81250 196.29745 L11.71875 194.23235 L15.62500 191.46524 L19.53125 187.36554 L23.43750 180.28847 L27.34375 164.30292 L31.25000 89.00195 L35.15625 63.92649 L39.06250 153.72014 L42.96875 170.51433 L46.87500 177.22200 L50.78125 179.99980 L54.68750 178.35840 L58.59375 0.00001 L62.50000 189.18750 L66.40625 192.03624 L70.31250 192.71053 L74.21875 193.17928 L78.12500 193.58434 L82.03125 193.94536 L85.93750 194.26883 L89.84375 194.55949 L93.75000 194.82141 L97.65625 195.05829 L101.56250 195.27335 L105.46875 195.46931 L109.37500 195.64854 L113.28125 195.81303 L117.18750 195.96451 L121.09375 196.10445 L125.00000 196.23405 L128.90625 196.35445 L132.81250 196.46663 L136.71875 196.57124 L140.62500 196.66919 L144.53125 196.76093 L148.43750 196.84723 L152.34375 196.92836 L156.25000 197.00482 L160.15625 197.07692 L164.06250 197.14516 L167.96875 197.20979 L171.87500 197.27104 L175.78125 197.32915 L179.68750 197.38440 L183.59375 197.43690 L187.50000 197.48694 L191.40625 197.53465 L195.31250 197.58011 L199.21875 197.62355 L203.12500 197.66507 L207.03125 197.70476 L210.93750 197.74275 L214.84375 197.77913 L218.75000 197.81400 L222.65625 197.84744 L226.56250 197.87955 L230.46875 197.91034 L234.37500 197.93994 L238.28125 197.96837 L242.18750 197.99570 L246.09375 198.02199 L250.00000 198.04729 L253.90625 198.07170 L257.81250 198.09511 L261.71875 198.11771 L265.62500 198.13943 L269.53125 198.16045 L273.43750 198.18066 L277.34375 198.20021 L281.25000 198.21902 L285.15625 198.23712 L289.06250 198.25465 L292.96875 198.27155 L296.87500 198.28783 L300.78125 198.30359 L304.68750 198.31876 L308.59375 198.33342 L312.50000 198.34756 L316.40625 198.36124 L320.31250 198.37442 L324.21875 198.38713 L328.12500 198.39943 L332.03125 198.41125 L335.93750 198.42271 L339.84375 198.43375 L343.75000 198.44432 L347.65625 198.45454 L351.56250 198.46451 L355.46875 198.47403 L359.37500 198.48320 L363.28125 198.49200 L367.18750 198.50049 L371.09375 198.50868 L375.00000 198.51653 L378.90625 198.52406 L382.81250 198.53131 L386.71875 198.53825 L390.62500 198.54492 L394.53125 198.55130 L398.43750 198.55739 L402.34375 198.56322 L406.25000 198.56877 L410.15625 198.57407 L414.06250 198.57916 L417.96875 198.58394 L421.87500 198.58849 L425.78125 198.59279 L429.68750 198.59683 L433.59375 198.60065 L437.50000 198.60425 L441.40625 198.60762 L445.31250 198.61073 L449.21875 198.61363 L453.12500 198.61629 L457.03125 198.61879 L460.93750 198.62099 L464.84375 198.62305 L468.75000 198.62482 L472.65625 198.62639 L476.56250 198.62776 L480.46875 198.62892 L484.37500 198.62987 L488.28125 198.63060 L492.18750 198.63113 L496.09375 198.63145 L500.00000 198.63156 L503.90625 198.63145 L507.81250 198.63113 L511.71875 198.63060 L515.62500 198.62987 L519.53125 198.62892 L523.43750 198.62776 L527.34375 198.62639 L531.25000 198.62482 L535.15625 198.62305 L539.06250 198.62099 L542.96875 198.61879 L546.87500 198.61629 L550.78125 198.61363 L554.68750 198.61073 L558.59375 198.60762 L562.50000 198.60425 L566.40625 198.60066 L570.31250 198.59683 L574.21875 198.59279 L578.12500 198.58849 L582.03125 198.58394 L585.93750 198.57916 L589.84375 198.57407 L593.75000 198.56877 L597.65625 198.56322 L601.56250 198.55739 L605.46875 198.55130 L609.37500 198.54492 L613.28125 198.53825 L617.18750 198.53131 L621.09375 198.52406 L625.00000 198.51653 L628.90625 198.50868 L632.81250 198.50049 L636.71875 198.49200 L640.62500 198.48320 L644.53125 198.47403 L648.43750 198.46451 L652.34375 198.45454 L656.25000 198.44432 L660.15625 198.43375 L664.06250 198.42271 L667.96875 198.41125 L671.87500 198.39943 L675.78125 198.38713 L679.68750 198.37444 L683.59375 198.36124 L687.50000 198.34756 L691.40625 198.33342 L695.31250 198.31876 L699.21875 198.30359 L703.12500 198.28783 L707.03125 198.27153 L710.93750 198.25465 L714.84375 198.23712 L718.75000 198.21901 L722.65625 198.20023 L726.56250 198.18066 L730.46875 198.16045 L734.37500 198.13943 L738.28125 198.11771 L742.18750 198.09511 L746.09375 198.07170 L750.00000 198.04729 L753.90625 198.02199 L757.81250 197.99570 L761.71875 197.96837 L765.62500 197.93994 L769.53125 197.91034 L773.43750 197.87955 L777.34375 197.84744 L781.25000 197.81401 L785.15625 197.77913 L789.06250 197.74275 L792.96875 197.70476 L796.87500 197.66507 L800.78125 197.62355 L804.68750 197.58011 L808.59375 197.53464 L812.50000 197.48694 L816.40625 197.43690 L820.31250 197.38440 L824.21875 197.32915 L828.12500 197.27103 L832.03125 197.20979 L835.93750 197.14516 L839.84375 197.07693 L843.75000 197.00484 L847.65625 196.92834 L851.56250 196.84723 L855.46875 196.76093 L859.37500 196.66919 L863.28125 196.57124 L867.18750 196.46661 L871.09375 196.35445 L875.00000 196.23405 L878.90625 196.10445 L882.81250 195.96451 L886.71875 195.81305 L890.62500 195.64854 L894.53125 195.46931 L898.43750 195.27335 L902.34375 195.05829 L906.25000 194.82141 L910.15625 194.55949 L914.06250 194.26883 L917.96875 193.94536 L921.87500 193.58434 L925.78125 193.17928 L929.68750 192.71053 L933.59375 192.03624 L937.50000 189.18750 L941.40625 0.00001 L945.31250 178.35840 L949.21875 179.99979 L953.12500 177.22200 L957.03125 170.51433 L960.93750 153.72014 L964.84375 63.92652 L968.75000 89.00193 L972.65625 164.30292 L976.56250 180.28848 L980.46875 187.36554 L984.37500 191.46524 L988.28125 194.23235 L992.18750 196.29745 L996.09375 197.89633" /><path fill="none" stroke="#000000" d="M0 314.35034  L0.00000 200.00002  L3.90625 232.56541  L7.81250 243.08153  L11.71875 247.27788  L15.62500 249.44302  L19.53125 250.75679  L23.43750 251.66211  L27.34375 252.37134  L31.25000 253.01306  L35.15625 368.04132  L39.06250 368.87048  L42.96875 370.02203  L46.87500 371.81741  L50.78125 374.99896  L54.68750 381.74649  L58.59375 400.00000  L62.50000 321.87094  L66.40625 341.13428  L70.31250 348.12811  L74.21875 351.30865  L78.12500 352.99402  L82.03125 353.95633  L85.93750 354.51572  L89.84375 354.82794  L93.75000 354.97742  L97.65625 355.01343  L101.56250 354.96732  L105.46875 354.85968  L109.37500 354.70435  L113.28125 354.51190  L117.18750 354.28906  L121.09375 354.04153  L125.00000 353.77411  L128.90625 353.48883  L132.81250 353.18896  L136.71875 352.87744  L140.62500 352.55402  L144.53125 352.22162  L148.43750 351.88062  L152.34375 351.53284  L156.25000 351.17899  L160.15625 350.81915  L164.06250 350.45261  L167.96875 350.08218  L171.87500 349.70831  L175.78125 349.32977  L179.68750 348.94791  L183.59375 348.56317  L187.50000 348.17480  L191.40625 347.78436  L195.31250 347.39142  L199.21875 346.99585  L203.12500 346.59851  L207.03125 346.19882  L210.93750 345.79736  L214.84375 345.39459  L218.75000 344.98929  L222.65625 344.58362  L226.56250 344.17630  L230.46875 343.76697  L234.37500 343.35706  L238.28125 342.94641  L242.18750 342.53363  L246.09375 342.11981  L250.00000 341.70563  L253.90625 341.29095  L257.81250 340.87454  L261.71875 340.45886  L265.62500 340.03952  L269.53125 339.62146  L273.43750 339.20245  L277.34375 338.78247  L281.25000 338.36328  L285.15625 337.94196  L289.06250 337.51959  L292.96875 337.09790  L296.87500 336.67517  L300.78125 336.25214  L304.68750 335.82867  L308.59375 335.40442  L312.50000 334.97992  L316.40625 334.55499  L320.31250 334.13000  L324.21875 333.70422  L328.12500 333.27850  L332.03125 332.85254  L335.93750 332.42487  L339.84375 332.00037  L343.75000 331.57141  L347.65625 331.14371  L351.56250 330.71594  L355.46875 330.28827  L359.37500 329.86017  L363.28125 329.43237  L367.18750 329.00293  L371.09375 328.57382  L375.00000 328.14557  L378.90625 327.71600  L382.81250 327.28641  L386.71875 326.85672  L390.62500 326.42694  L394.53125 325.99692  L398.43750 325.56650  L402.34375 325.13718  L406.25000 324.70538  L410.15625 324.27533  L414.06250 323.84439  L417.96875 323.41406  L421.87500 322.98273  L425.78125 322.55185  L429.68750 322.12103  L433.59375 321.68958  L437.50000 321.25809  L441.40625 320.82721  L445.31250 320.39594  L449.21875 319.96375  L453.12500 319.53217  L457.03125 319.10013  L460.93750 318.66974  L464.84375 318.23798  L468.75000 317.80536  L472.65625 317.37399  L476.56250 316.94214  L480.46875 316.51001  L484.37500 316.07816  L488.28125 315.64630  L492.18750 315.21411  L496.09375 314.78201  L500.00000 314.35034  L503.90625 313.91867  L507.81250 313.48660  L511.71875 313.05435  L515.62500 312.62253  L519.53125 312.19073  L523.43750 311.75854  L527.34375 311.32675  L531.25000 310.89548  L535.15625 310.46289  L539.06250 310.03094  L542.96875 309.60065  L546.87500 309.16852  L550.78125 308.73694  L554.68750 308.30478  L558.59375 307.87350  L562.50000 307.44257  L566.40625 307.01123  L570.31250 306.57968  L574.21875 306.14886  L578.12500 305.71796  L582.03125 305.28665  L585.93750 304.85632  L589.84375 304.42542  L593.75000 303.99533  L597.65625 303.56354  L601.56250 303.13422  L605.46875 302.70377  L609.37500 302.27374  L613.28125 301.84399  L617.18750 301.41428  L621.09375 300.98462  L625.00000 300.55511  L628.90625 300.12686  L632.81250 299.69775  L636.71875 299.26831  L640.62500 298.84052  L644.53125 298.41241  L648.43750 297.98477  L652.34375 297.55710  L656.25000 297.12927  L660.15625 296.70041  L664.06250 296.27582  L667.96875 295.84818  L671.87500 295.42218  L675.78125 294.99646  L679.68750 294.57074  L683.59375 294.14575  L687.50000 293.72076  L691.40625 293.29642  L695.31250 292.87201  L699.21875 292.44855  L703.12500 292.02551  L707.03125 291.60278  L710.93750 291.18106  L714.84375 290.75870  L718.75000 290.33743  L722.65625 289.91827  L726.56250 289.49823  L730.46875 289.07919  L734.37500 288.66119  L738.28125 288.24179  L742.18750 287.82614  L746.09375 287.40973  L750.00000 286.99506  L753.90625 286.58084  L757.81250 286.16708  L761.71875 285.75424  L765.62500 285.34363  L769.53125 284.93372  L773.43750 284.52441  L777.34375 284.11707  L781.25000 283.71143  L785.15625 283.30609  L789.06250 282.90332  L792.96875 282.50189  L796.87500 282.10217  L800.78125 281.70486  L804.68750 281.30930  L808.59375 280.91635  L812.50000 280.52588  L816.40625 280.13763  L820.31250 279.75281  L824.21875 279.37097  L828.12500 278.99237  L832.03125 278.61853  L835.93750 278.24808  L839.84375 277.88153  L843.75000 277.52173  L847.65625 277.16791  L851.56250 276.82007  L855.46875 276.47913  L859.37500 276.14670  L863.28125 275.82327  L867.18750 275.51172  L871.09375 275.21185  L875.00000 274.92657  L878.90625 274.65915  L882.81250 274.41162  L886.71875 274.18878  L890.62500 273.99634  L894.53125 273.84106  L898.43750 273.73340  L902.34375 273.68732  L906.25000 273.72327  L910.15625 273.87283  L914.06250 274.18497  L917.96875 274.74438  L921.87500 275.70667  L925.78125 277.39203  L929.68750 280.57257  L933.59375 287.56647  L937.50000 306.82974  L941.40625 228.70070  L945.31250 246.95419  L949.21875 253.70172  L953.12500 256.88330  L957.03125 258.67868  L960.93750 259.83023  L964.84375 260.65939  L968.75000 375.68762  L972.65625 376.32938  L976.56250 377.03857  L980.46875 377.94391  L984.37500 379.25769  L988.28125 381.42282  L992.18750 385.61917  L996.09375 396.13538 " /></g><text x="1000.00000" dx="10" y="199.99995">[-0.00000;0.51474]</text><text x="1000.00000" dx="10" y="314.35034">[-2.35309;3.14159]</text></svg>