<svg xmlns="http://www.w3.org/2000/svg" version="1.1"><g stroke-width="0.6"><path fill="none" stroke="#000000" d="M0 102.12991 L1000.00000 102.12991" /><path fill="none" stroke="#000000" d="M0 300.00000 L1000.00000 300.00000" /><path fill="none" stroke="#000000" d="M500.00000 0 L500.00000 400.00000" /><path fill="none" stroke="#000000" d="M0 102.12991  L0.00000 93.21540 L0.97656 101.59010 L1.95313 122.55486 L2.92969 103.79907 L3.90625 47.31425 L4.88281 9.14867 L5.85938 24.32395 L6.83594 60.38182 L7.81250 63.51491 L8.78906 33.37000 L9.76563 23.09292 L10.74219 64.60812 L11.71875 122.55488 L12.69531 140.78107 L13.67188 117.43678 L14.64844 105.19715 L15.62500 136.58655 L16.60156 177.81859 L17.57813 175.06851 L18.55469 129.24947 L19.53125 95.86504 L20.50781 109.96060 L21.48438 139.63741 L22.46094 132.08983 L23.43750 88.26722 L24.41406 62.74890 L25.39063 88.84839 L26.36719 132.39087 L27.34375 138.08656 L28.32031 104.55473 L29.29688 84.53680 L30.27344 110.26875 L31.25000 147.41866 L32.22656 141.48999 L33.20313 92.74193 L34.17969 56.17791 L35.15625 66.60326 L36.13281 92.20093 L37.10938 80.57660 L38.08594 33.37001 L39.06250 6.03120 L40.03906 32.78904 L41.01563 80.27570 L41.99219 93.75176 L42.96875 72.00906 L43.94531 67.50624 L44.92188 111.72278 L45.89844 169.14001 L46.87500 183.74716 L47.85156 154.11319 L48.82813 133.55598 L49.80469 155.38843 L50.78125 186.66670 L51.75781 174.36896 L52.73438 120.08625 L53.71094 79.81056 L54.68750 88.84825 L55.66406 115.32905 L56.64063 106.26739 L57.61719 62.27550 L58.59375 37.50753 L59.57031 64.84105 L60.54688 109.72777 L61.52344 116.62621 L62.50000 84.06330 L63.47656 64.85658 L64.45313 91.46704 L65.42969 129.89198 L66.40625 126.00426 L67.38281 80.39915 L68.35938 48.31039 L69.33594 64.60831 L70.31250 97.33743 L71.28906 93.75182 L72.26563 54.94737 L73.24219 35.68706 L74.21875 69.44358 L75.19531 122.11068 L76.17188 138.31938 L77.14844 116.42234 L78.12500 108.69226 L79.10156 146.70982 L80.07813 195.34537 L81.05469 199.23274 L82.03125 157.77716 L83.00781 125.23829 L83.98438 135.87773 L84.96094 157.60843 L85.93750 138.08659 L86.91406 79.33711 L87.89063 37.50744 L88.86719 47.77930 L89.84375 77.90856 L90.82031 74.34698 L91.79688 37.03408 L92.77344 19.42886 L93.75000 53.77614 L94.72656 105.02821 L95.70313 117.32563 L96.67969 89.07780 L97.65625 73.17423 L98.63281 102.29929 L99.60938 142.76523 L100.58594 140.78099 L101.56250 97.22620 L102.53906 67.50616 L103.51563 86.50553 L104.49219 122.11086 L105.46875 121.25756 L106.44531 84.60284 L107.42188 66.41302 L108.39844 99.68083 L109.37500 149.91750 L110.35156 161.54195 L111.32813 132.91373 L112.30469 116.55978 L113.28125 144.55614 L114.25781 182.47203 L115.23438 175.77750 L116.21094 124.76485 L117.18750 84.53673 L118.16406 90.05846 L119.14063 109.72766 L120.11719 91.40869 L121.09375 37.03394 L122.07031 2.36709 L123.04688 21.95697 L124.02344 62.74899 L125.00000 70.29637 L125.97656 43.65012 L126.95313 35.48337 L127.92969 77.43554 L128.90625 134.08659 L129.88281 149.45963 L130.85938 122.09011 L131.83594 105.19711 L132.81250 131.93330 L133.78906 169.14012 L134.76563 163.53674 L135.74219 116.42192 L136.71875 83.47465 L137.69531 99.68076 L138.67188 132.85608 L139.64844 129.72250 L140.62500 90.63396 L141.60156 69.53054 L142.57813 99.12842 L143.55469 144.78116 L144.53125 150.91376 L145.50781 116.08633 L146.48438 93.21543 L147.46094 114.92235 L148.43750 147.41859 L149.41406 136.83640 L150.39063 84.06319 L151.36719 44.64622 L152.34375 53.77604 L153.32031 79.81066 L154.29688 70.29639 L155.27344 26.58827 L156.25000 3.66413 L157.22656 35.15636 L158.20313 87.05742 L159.17969 104.03185 L160.15625 84.39909 L161.13281 80.33340 L162.10938 123.25461 L163.08594 177.81883 L164.06250 188.40062 L165.03906 154.11292 L166.01563 128.90239 L166.99219 146.71002 L167.96875 175.13525 L168.94531 161.54163 L169.92188 107.69559 L170.89844 69.53045 L171.87500 82.06671 L172.85156 112.96203 L173.82813 108.63449 L174.80469 69.05711 L175.78125 47.78779 L176.75781 77.23139 L177.73438 122.55492 L178.71094 128.15784 L179.68750 92.74186 L180.66406 69.51009 L181.64063 91.46707 L182.61719 125.23833 L183.59375 117.32552 L184.57031 68.86739 L185.54688 35.48321 L186.52344 52.21794 L187.50000 87.05731 L188.47656 86.97020 L189.45313 52.58005 L190.42969 38.05416 L191.40625 76.22533 L192.38281 132.39125 L193.35938 150.70978 L194.33594 129.24927 L195.31250 120.22394 L196.28906 155.38875 L197.26563 199.99910 L198.24219 199.23256 L199.21875 153.12334 L200.19531 116.55973 L201.17188 124.34640 L202.14844 144.78090 L203.12500 125.69572 L204.10156 69.05696 L205.07813 30.72585 L206.05469 45.41221 L207.03125 80.27602 L208.00781 81.12851 L208.98438 47.31366 L209.96094 31.81916 L210.93750 66.60374 L211.91406 116.55997 L212.89063 126.00404 L213.86719 93.73136 L214.84375 73.17422 L215.82031 97.64567 L216.79688 134.08694 L217.77344 129.24934 L218.75000 84.39963 L219.72656 55.11596 L220.70313 76.22496 L221.67969 115.32925 L222.65625 118.89075 L223.63281 86.97002 L224.60938 73.19466 L225.58594 109.96106 L226.56250 162.30792 L227.53906 174.36885 L228.51563 144.44527 L229.49219 125.23829 L230.46875 149.20966 L231.44531 182.47235 L232.42188 171.12373 L233.39844 116.08559 L234.37500 73.00503 L235.35156 77.23180 L236.32813 97.33724 L237.30469 81.12815 L238.28125 30.25245 L239.25781 -0.00001 L240.23438 24.32405 L241.21094 69.53102 L242.18750 80.57671 L243.16406 56.04003 L244.14063 48.31057 L245.11719 88.96777 L246.09375 142.76534 L247.07031 154.11282 L248.04688 122.09016 L249.02344 100.54365 L250.00000 123.25468 L250.97656 157.60809 L251.95313 150.70943 L252.92969 104.03199 L253.90625 73.19445 L254.88281 92.89872 L255.85938 130.48901 L256.83594 132.08992 L257.81250 97.41546 L258.78906 79.81060 L259.76563 111.51926 L260.74219 157.60818 L261.71875 162.44510 L262.69531 124.76499 L263.67188 97.86888 L264.64844 114.92224 L265.62500 142.76535 L266.60156 128.15775 L267.57813 72.53107 L268.55469 31.81913 L269.53125 41.38629 L270.50781 69.53057 L271.48438 63.51443 L272.46094 24.22120 L273.43750 6.03132 L274.41406 41.93797 L275.39063 97.33792 L276.36719 116.42236 L277.34375 97.22576 L278.32031 91.86501 L279.29688 131.93390 L280.27344 182.47226 L281.25000 188.40019 L282.22656 149.45932 L283.20313 120.22366 L284.17969 135.17836 L285.15625 162.30772 L286.13281 149.15121 L287.10938 97.41591 L288.08594 62.74880 L289.06250 79.69965 L290.03906 115.32935 L291.01563 115.41605 L291.99219 79.33687 L292.96875 60.17812 L293.94531 90.05905 L294.92188 134.08661 L295.89844 136.83609 L296.87500 97.39536 L297.85156 69.51011 L298.82813 86.81349 L299.80469 116.56014 L300.78125 105.79381 L301.75781 56.03967 L302.73438 23.09286 L303.71094 41.93825 L304.68750 80.27583 L305.66406 84.60264 L306.64063 54.94711 L307.61719 44.83585 L308.59375 86.50550 L309.57031 144.78171 L310.54688 163.53706 L311.52344 140.78035 L312.50000 128.90256 L313.47656 160.04181 L314.45313 199.99907 L315.42969 194.57927 L316.40625 144.44460 L317.38281 105.02809 L318.35938 111.51921 L319.33594 132.39067 L320.31250 115.41560 L321.28906 62.27532 L322.26563 28.35872 L323.24219 47.77941 L324.21875 87.05758 L325.19531 91.40865 L326.17188 59.70409 L327.14844 44.64636 L328.12500 78.13539 L329.10156 125.23845 L330.07813 130.65750 L331.05469 93.73137 L332.03125 68.52070 L333.00781 88.96725 L333.98438 122.55562 L334.96094 116.42180 L335.93750 72.00804 L336.91406 44.83568 L337.89063 69.44426 L338.86719 112.96233 L339.84375 121.25726 L340.82031 93.75163 L341.79688 83.47494 L342.77344 122.35149 L343.75000 175.13515 L344.72656 185.90045 L345.70313 153.12392 L346.67969 129.89189 L347.65625 149.20961 L348.63281 177.81888 L349.60938 162.44525 L350.58594 104.55405 L351.56250 60.17810 L352.53906 64.84156 L353.51563 87.05717 L354.49219 74.34651 L355.46875 27.88531 L356.44531 2.36717 L357.42188 31.10585 L358.39844 79.81129 L359.37500 92.96716 L360.35156 68.86723 L361.32813 59.84225 L362.30469 97.64648 L363.28125 147.41884 L364.25781 154.11287 L365.23438 117.43664 L366.21094 91.86492 L367.18750 111.72312 L368.16406 144.78162 L369.14063 138.31924 L370.11719 93.75104 L371.09375 66.41299 L372.07031 90.53270 L373.04688 132.85606 L374.02344 138.87111 L375.00000 107.69592 L375.97656 92.20123 L376.95313 124.34679 L377.92969 169.14011 L378.90625 171.12361 L379.88281 129.41853 L380.85938 97.86885 L381.83594 110.26853 L382.81250 134.08669 L383.78906 116.62599 L384.76563 59.70377 L385.74219 19.42874 L386.71875 31.10609 L387.69531 62.74899 L388.67188 61.14740 L389.64844 26.58830 L390.62500 12.81284 L391.60156 52.21795 L392.57813 109.72817 L393.55469 129.24940 L394.53125 108.75769 L395.50781 100.54389 L396.48438 136.58762 L397.46094 182.47229 L398.43750 183.74660 L399.41406 140.77962 L400.39063 108.69201 L401.36719 122.35115 L402.34375 149.91797 L403.32031 138.87039 L404.29688 90.63429 L405.27344 60.38184 L406.25000 82.06773 L407.22656 122.11024 L408.20313 125.69624 L409.17969 91.72694 L410.15625 73.00500 L411.13281 101.58962 L412.10938 142.76501 L413.08594 141.48950 L414.06250 97.39435 L415.03906 64.85633 L416.01563 78.13459 L416.99219 105.02824 L417.96875 92.96595 L418.94531 43.65033 L419.92188 12.81260 L420.89844 35.15680 L421.87500 77.90952 L422.85156 86.97049 L423.82813 61.72881 L424.80469 55.11616 L425.78125 98.89704 L426.75781 157.60840 L427.73438 175.06851 L428.71094 149.45886 L429.68750 133.55605 L430.66406 160.04176 L431.64063 195.34560 L432.61719 185.90013 L433.59375 132.91171 L434.57031 92.20054 L435.54688 99.12852 L436.52344 122.11109 L437.50000 108.63462 L438.47656 59.90821 L439.45313 30.72607 L440.42969 54.56200 L441.40625 97.33712 L442.38281 103.79920 L443.35938 72.53124 L444.33594 56.17796 L445.31250 86.81308 L446.28906 129.89203 L447.26563 130.65752 L448.24219 89.07669 L449.21875 59.84209 L450.19531 77.43569 L451.17188 109.72825 L452.14844 104.03136 L453.12500 61.72902 L454.10156 38.05403 L455.07813 67.07738 L456.05469 115.33026 L457.03125 128.03963 L458.00781 104.03194 L458.98438 95.86541 L459.96094 135.17976 L460.93750 186.66678 L461.91406 194.57907 L462.89063 157.77638 L463.86719 129.89180 L464.84375 144.55614 L465.82031 169.14012 L466.79688 150.91287 L467.77344 91.72598 L468.75000 47.78760 L469.72656 54.56128 L470.70313 80.27634 L471.67969 71.98013 L472.65625 30.25249 L473.63281 9.14895 L474.60938 41.38714 L475.58594 92.20111 L476.56250 105.79433 L477.53906 80.39886 L478.51563 68.52090 L479.49219 102.29885 L480.46875 147.41885 L481.44531 149.45930 L482.42188 108.75672 L483.39844 80.33334 L484.37500 98.89599 L485.35156 132.39130 L486.32813 128.03848 L487.30469 86.97050 L488.28125 64.04593 L489.25781 92.89981 L490.23438 139.63828 L491.21094 149.15152 L492.18750 120.08633 L493.16406 105.02855 L494.14063 135.87935 L495.11719 177.81862 L496.09375 175.77724 L497.07031 129.41730 L498.04688 93.21510 L499.02344 101.58997 L500.00000 122.55493 L500.97656 103.79805 L501.95313 47.31448 L502.92969 9.14853 L503.90625 24.32451 L504.88281 60.38255 L505.85938 63.51516 L506.83594 33.36993 L507.81250 23.09295 L508.78906 64.60946 L509.76563 122.55486 L510.74219 140.78090 L511.71875 117.43633 L512.69531 105.19743 L513.67188 136.58630 L514.64844 177.81868 L515.62500 175.06789 L516.60156 129.24780 L517.57813 95.86481 L518.55469 109.96079 L519.53125 139.63782 L520.50781 132.08882 L521.48438 88.26720 L522.46094 62.74893 L523.43750 88.84930 L524.41406 132.39166 L525.39063 138.08656 L526.36719 104.55406 L527.34375 84.53683 L528.32031 110.27026 L529.29688 147.41855 L530.27344 141.48965 L531.25000 92.74084 L532.22656 56.17751 L533.20313 66.60291 L534.17969 92.20100 L535.15625 80.57558 L536.13281 33.37010 L537.10938 6.03115 L538.08594 32.78988 L539.06250 80.27654 L540.03906 93.75223 L541.01563 72.00912 L541.99219 67.50641 L542.96875 111.72437 L543.94531 169.14012 L544.92188 183.74704 L545.89844 154.11247 L546.87500 133.55608 L547.85156 155.38821 L548.82813 186.66693 L549.80469 174.36845 L550.78125 120.08495 L551.75781 79.81012 L552.73438 88.84834 L553.71094 115.32954 L554.68750 106.26630 L555.66406 62.27559 L556.64063 37.50767 L557.61719 64.84219 L558.59375 109.72897 L559.57031 116.62635 L560.54688 84.06281 L561.52344 64.85667 L562.50000 91.46864 L563.47656 129.89200 L564.45313 126.00386 L565.42969 80.39803 L566.40625 48.31048 L567.38281 64.60835 L568.35938 97.33792 L569.33594 93.75122 L570.31250 54.94757 L571.28906 35.68718 L572.26563 69.44473 L573.24219 122.11182 L574.21875 138.31996 L575.19531 116.42242 L576.17188 108.69267 L577.14844 146.71135 L578.12500 195.34540 L579.10156 199.23260 L580.07813 157.77626 L581.05469 125.23810 L582.03125 135.87718 L583.00781 157.60860 L583.98438 138.08580 L584.96094 79.33546 L585.93750 37.50731 L586.91406 47.77961 L587.89063 77.90894 L588.86719 74.34608 L589.84375 37.03395 L590.82031 19.42921 L591.79688 53.77759 L592.77344 105.02959 L593.75000 117.32600 L594.72656 89.07735 L595.70313 73.17428 L596.67969 102.29883 L597.65625 142.76527 L598.63281 140.78065 L599.60938 97.22538 L600.58594 67.50593 L601.56250 86.50544 L602.53906 122.11121 L603.51563 121.25698 L604.49219 84.60348 L605.46875 66.41297 L606.44531 99.68139 L607.42188 149.91849 L608.39844 161.54192 L609.37500 132.91298 L610.35156 116.55992 L611.32813 144.55804 L612.30469 182.47221 L613.28125 175.77702 L614.25781 124.76350 L615.23438 84.53625 L616.21094 90.05795 L617.18750 109.72785 L618.16406 91.40778 L619.14063 37.03223 L620.11719 2.36696 L621.09375 21.95748 L622.07031 62.74971 L623.04688 70.29548 L624.02344 43.65007 L625.00000 35.48342 L625.97656 77.43677 L626.95313 134.08661 L627.92969 149.45990 L628.90625 122.08945 L629.88281 105.19708 L630.85938 131.93268 L631.83594 169.13998 L632.81250 163.53622 L633.78906 116.42044 L634.76563 83.47436 L635.74219 99.68064 L636.71875 132.85632 L637.69531 129.72180 L638.67188 90.63433 L639.64844 69.53069 L640.62500 99.12968 L641.60156 144.78224 L642.57813 150.91370 L643.55469 116.08560 L644.53125 93.21512 L645.50781 114.92400 L646.48438 147.41870 L647.46094 136.83600 L648.43750 84.06211 L649.41406 44.64574 L650.39063 53.77561 L651.36719 79.81064 L652.34375 70.29543 L653.32031 26.58661 L654.29688 3.66423 L655.27344 35.15717 L656.25000 87.05855 L657.22656 104.03231 L658.20313 84.39938 L659.17969 80.33372 L660.15625 123.25609 L661.13281 177.81883 L662.10938 188.40082 L663.08594 154.11230 L664.06250 128.90240 L665.03906 146.70956 L666.01563 175.13528 L666.99219 161.54120 L667.96875 107.69459 L668.94531 69.53049 L669.92188 82.06723 L670.89844 112.96252 L671.87500 108.63325 L672.85156 69.05657 L673.82813 47.78765 L674.80469 77.23228 L675.78125 122.55561 L676.75781 128.15746 L677.73438 92.74106 L678.71094 69.50992 L679.68750 91.46851 L680.66406 125.23808 L681.64063 117.32474 L682.61719 68.86586 L683.59375 35.48277 L684.57031 52.21774 L685.54688 87.05722 L686.52344 86.96926 L687.50000 52.58055 L688.47656 38.05455 L689.45313 76.22657 L690.42969 132.39246 L691.40625 150.71028 L692.38281 129.24953 L693.35938 120.22419 L694.33594 155.39001 L695.31250 199.99889 L696.28906 199.23242 L697.26563 153.12265 L698.24219 116.55947 L699.21875 124.34563 L700.19531 144.78107 L701.17188 125.69505 L702.14844 69.05545 L703.12500 30.72592 L704.10156 45.41272 L705.07813 80.27621 L706.05469 81.12740 L707.03125 47.31394 L708.00781 31.81922 L708.98438 66.60434 L709.96094 116.56075 L710.93750 126.00423 L711.91406 93.73083 L712.89063 73.17445 L713.86719 97.64732 L714.84375 134.08679 L715.82031 129.24928 L716.79688 84.39848 L717.77344 55.11638 L718.75000 76.22528 L719.72656 115.32934 L720.70313 118.88981 L721.67969 86.97070 L722.65625 73.19511 L723.63281 109.96218 L724.60938 162.30945 L725.58594 174.36967 L726.56250 144.44511 L727.53906 125.23855 L728.51563 149.21120 L729.49219 182.47174 L730.46875 171.12344 L731.44531 116.08488 L732.42188 73.00470 L733.39844 77.23088 L734.37500 97.33717 L735.35156 81.12737 L736.32813 30.25082 L737.30469 0.00003 L738.28125 24.32470 L739.25781 69.53138 L740.23438 80.57579 L741.21094 56.04063 L742.18750 48.31054 L743.16406 88.96828 L744.14063 142.76636 L745.11719 154.11330 L746.09375 122.08979 L747.07031 100.54396 L748.04688 123.25617 L749.02344 157.60861 L750.00000 150.70938 L750.97656 104.03075 L751.95313 73.19475 L752.92969 92.89944 L753.90625 130.48935 L754.88281 132.08884 L755.85938 97.41572 L756.83594 79.81026 L757.81250 111.52040 L758.78906 157.61014 L759.76563 162.44591 L760.74219 124.76467 L761.71875 97.86893 L762.69531 114.92354 L763.67188 142.76450 L764.64844 128.15701 L765.62500 72.53002 L766.60156 31.81856 L767.57813 41.38530 L768.55469 69.53056 L769.53125 63.51404 L770.50781 24.21959 L771.48438 6.03138 L772.46094 41.93876 L773.43750 97.33869 L774.41406 116.42184 L775.39063 97.22694 L776.36719 91.86516 L777.34375 131.93452 L778.32031 182.47345 L779.29688 188.40060 L780.27344 149.45886 L781.25000 120.22383 L782.22656 135.17787 L783.20313 162.30806 L784.17969 149.15082 L785.15625 97.41424 L786.13281 62.74868 L787.10938 79.69987 L788.08594 115.32977 L789.06250 115.41499 L790.03906 79.33691 L791.01563 60.17769 L791.99219 90.05920 L792.96875 134.08745 L793.94531 136.83630 L794.92188 97.39481 L795.89844 69.51008 L796.87500 86.81516 L797.85156 116.55921 L798.82813 105.79166 L799.80469 56.03852 L800.78125 23.09232 L801.75781 41.93960 L802.73438 80.27615 L803.71094 84.60398 L804.68750 54.94564 L805.66406 44.83614 L806.64063 86.50877 L807.61719 144.78278 L808.59375 163.53775 L809.57031 140.77927 L810.54688 128.90266 L811.52344 160.04140 L812.50000 200.00000 L813.47656 194.57874 L814.45313 144.44577 L815.42969 105.02755 L816.40625 111.51854 L817.38281 132.39209 L818.35938 115.41505 L819.33594 62.27558 L820.31250 28.35853 L821.28906 47.77954 L822.26563 87.05675 L823.24219 91.40775 L824.21875 59.70444 L825.19531 44.64630 L826.17188 78.13593 L827.14844 125.23817 L828.12500 130.65652 L829.10156 93.73077 L830.07813 68.52080 L831.05469 88.96896 L832.03125 122.55549 L833.00781 116.42063 L833.98438 72.00787 L834.96094 44.83595 L835.93750 69.44621 L836.91406 112.96284 L837.89063 121.25870 L838.86719 93.75038 L839.84375 83.47540 L840.82031 122.35468 L841.79688 175.13666 L842.77344 185.90115 L843.75000 153.12143 L844.72656 129.89203 L845.70313 149.20912 L846.67969 177.81940 L847.65625 162.44429 L848.63281 104.55481 L849.60938 60.17710 L850.58594 64.84069 L851.56250 87.05847 L852.53906 74.34602 L853.51563 27.88565 L854.49219 2.36709 L855.46875 31.10644 L856.44531 79.81039 L857.42188 92.96619 L858.39844 68.86777 L859.37500 59.84237 L860.35156 97.64719 L861.32813 147.41850 L862.30469 154.11182 L863.28125 117.43599 L864.25781 91.86510 L865.23438 111.72486 L866.21094 144.78171 L867.18750 138.31757 L868.16406 93.75042 L869.14063 66.41306 L870.11719 90.53432 L871.09375 132.85641 L872.07031 138.87157 L873.04688 107.69391 L874.02344 92.20076 L875.00000 124.34468 L875.97656 169.14136 L876.95313 171.12401 L877.92969 129.41559 L878.90625 97.86884 L879.88281 110.26786 L880.85938 134.08707 L881.83594 116.62497 L882.81250 59.70458 L883.78906 19.42829 L884.76563 31.10528 L885.74219 62.75040 L886.71875 61.14709 L887.69531 26.58904 L888.67188 12.81333 L889.64844 52.21895 L890.62500 109.72775 L891.60156 129.24887 L892.57813 108.75835 L893.55469 100.54409 L894.53125 136.58836 L895.50781 182.47194 L896.48438 183.74554 L897.46094 140.78001 L898.43750 108.69207 L899.41406 122.35275 L900.39063 149.91766 L901.36719 138.86942 L902.34375 90.63274 L903.32031 60.38173 L904.29688 82.06918 L905.27344 122.11108 L906.25000 125.69610 L907.22656 91.72546 L908.20313 73.00510 L909.17969 101.58900 L910.15625 142.76584 L911.13281 141.48965 L912.10938 97.39260 L913.08594 64.85663 L914.06250 78.13457 L915.03906 105.02868 L916.01563 92.96572 L916.99219 43.65036 L917.96875 12.81218 L918.94531 35.15608 L919.92188 77.91042 L920.89844 86.96989 L921.87500 61.72982 L922.85156 55.11684 L923.82813 98.89706 L924.80469 157.60858 L925.78125 175.06793 L926.75781 149.45972 L927.73438 133.55623 L928.71094 160.04335 L929.68750 195.34502 L930.66406 185.89873 L931.64063 132.91206 L932.61719 92.20042 L933.59375 99.12994 L934.57031 122.11040 L935.54688 108.63245 L936.52344 59.90671 L937.50000 30.72588 L938.47656 54.56342 L939.45313 97.33795 L940.42969 103.79916 L941.40625 72.52972 L942.38281 56.17801 L943.35938 86.81259 L944.33594 129.89301 L945.31250 130.65782 L946.28906 89.07529 L947.26563 59.84203 L948.24219 77.43517 L949.21875 109.72937 L950.19531 104.03181 L951.17188 61.73001 L952.14844 38.05413 L953.12500 67.07686 L954.10156 115.33098 L955.07813 128.03915 L956.05469 104.03300 L957.03125 95.86604 L958.00781 135.17982 L958.98438 186.66695 L959.96094 194.57840 L960.93750 157.77687 L961.91406 129.89159 L962.89063 144.55710 L963.86719 169.13947 L964.84375 150.91144 L965.82031 91.72569 L966.79688 47.78691 L967.77344 54.56231 L968.75000 80.27547 L969.72656 71.98047 L970.70313 30.25095 L971.67969 9.14889 L972.65625 41.38869 L973.63281 92.20210 L974.60938 105.79473 L975.58594 80.39725 L976.56250 68.52087 L977.53906 102.29854 L978.51563 147.42000 L979.49219 149.45976 L980.46875 108.75505 L981.44531 80.33324 L982.42188 98.89544 L983.39844 132.39243 L984.37500 128.03889 L985.35156 86.97106 L986.32813 64.04590 L987.30469 92.89935 L988.28125 139.63925 L989.25781 149.15053 L990.23438 120.08619 L991.21094 105.02778 L992.18750 135.87854 L993.16406 177.81813 L994.14063 175.77620 L995.11719 129.41748 L996.09375 93.21461 L997.07031 101.59068 L998.04688 122.55419 L999.02344 103.79659" /><path fill="none" stroke="#000000" d="M0 300.00000  L0.00000 300.00000  L0.97656 300.00000  L1.95313 300.00000  L2.92969 300.00000  L3.90625 300.00000  L4.88281 300.00000  L5.85938 300.00000  L6.83594 300.00000  L7.81250 300.00000  L8.78906 300.00000  L9.76563 300.00000  L10.74219 300.00000  L11.71875 300.00000  L12.69531 300.00000  L13.67188 300.00000  L14.64844 300.00000  L15.62500 300.00000  L16.60156 300.00000  L17.57813 300.00000  L18.55469 300.00000  L19.53125 300.00000  L20.50781 300.00000  L21.48438 300.00000  L22.46094 300.00000  L23.43750 300.00000  L24.41406 300.00000  L25.39063 300.00000  L26.36719 300.00000  L27.34375 300.00000  L28.32031 300.00000  L29.29688 300.00000  L30.27344 300.00000  L31.25000 300.00000  L32.22656 300.00000  L33.20313 300.00000  L34.17969 300.00000  L35.15625 300.00000  L36.13281 300.00000  L37.10938 300.00000  L38.08594 300.00000  L39.06250 300.00000  L40.03906 300.00000  L41.01563 300.00000  L41.99219 300.00000  L42.96875 300.00000  L43.94531 300.00000  L44.92188 300.00000  L45.89844 300.00000  L46.87500 300.00000  L47.85156 300.00000  L48.82813 300.00000  L49.80469 300.00000  L50.78125 300.00000  L51.75781 300.00000  L52.73438 300.00000  L53.71094 300.00000  L54.68750 300.00000  L55.66406 300.00000  L56.64063 300.00000  L57.61719 300.00000  L58.59375 300.00000  L59.57031 300.00000  L60.54688 300.00000  L61.52344 300.00000  L62.50000 300.00000  L63.47656 300.00000  L64.45313 300.00000  L65.42969 300.00000  L66.40625 300.00000  L67.38281 300.00000  L68.35938 300.00000  L69.33594 300.00000  L70.31250 300.00000  L71.28906 300.00000  L72.26563 300.00000  L73.24219 300.00000  L74.21875 300.00000  L75.19531 300.00000  L76.17188 300.00000  L77.14844 300.00000  L78.12500 300.00000  L79.10156 300.00000  L80.07813 300.00000  L81.05469 300.00000  L82.03125 300.00000  L83.00781 300.00000  L83.98438 300.00000  L84.96094 300.00000  L85.93750 300.00000  L86.91406 300.00000  L87.89063 300.00000  L88.86719 300.00000  L89.84375 300.00000  L90.82031 300.00000  L91.79688 300.00000  L92.77344 300.00000  L93.75000 300.00000  L94.72656 300.00000  L95.70313 300.00000  L96.67969 300.00000  L97.65625 300.00000  L98.63281 300.00000  L99.60938 300.00000  L100.58594 300.00000  L101.56250 300.00000  L102.53906 300.00000  L103.51563 300.00000  L104.49219 300.00000  L105.46875 300.00000  L106.44531 300.00000  L107.42188 300.00000  L108.39844 300.00000  L109.37500 300.00000  L110.35156 300.00000  L111.32813 300.00000  L112.30469 300.00000  L113.28125 300.00000  L114.25781 300.00000  L115.23438 300.00000  L116.21094 300.00000  L117.18750 300.00000  L118.16406 300.00000  L119.14063 300.00000  L120.11719 300.00000  L121.09375 300.00000  L122.07031 300.00000  L123.04688 300.00000  L124.02344 300.00000  L125.00000 300.00000  L125.97656 300.00000  L126.95313 300.00000  L127.92969 300.00000  L128.90625 300.00000  L129.88281 300.00000  L130.85938 300.00000  L131.83594 300.00000  L132.81250 300.00000  L133.78906 300.00000  L134.76563 300.00000  L135.74219 300.00000  L136.71875 300.00000  L137.69531 300.00000  L138.67188 300.00000  L139.64844 300.00000  L140.62500 300.00000  L141.60156 300.00000  L142.57813 300.00000  L143.55469 300.00000  L144.53125 300.00000  L145.50781 300.00000  L146.48438 300.00000  L147.46094 300.00000  L148.43750 300.00000  L149.41406 300.00000  L150.39063 300.00000  L151.36719 300.00000  L152.34375 300.00000  L153.32031 300.00000  L154.29688 300.00000  L155.27344 300.00000  L156.25000 300.00000  L157.22656 300.00000  L158.20313 300.00000  L159.17969 300.00000  L160.15625 300.00000  L161.13281 300.00000  L162.10938 300.00000  L163.08594 300.00000  L164.06250 300.00000  L165.03906 300.00000  L166.01563 300.00000  L166.99219 300.00000  L167.96875 300.00000  L168.94531 300.00000  L169.92188 300.00000  L170.89844 300.00000  L171.87500 300.00000  L172.85156 300.00000  L173.82813 300.00000  L174.80469 300.00000  L175.78125 300.00000  L176.75781 300.00000  L177.73438 300.00000  L178.71094 300.00000  L179.68750 300.00000  L180.66406 300.00000  L181.64063 300.00000  L182.61719 300.00000  L183.59375 300.00000  L184.57031 300.00000  L185.54688 300.00000  L186.52344 300.00000  L187.50000 300.00000  L188.47656 300.00000  L189.45313 300.00000  L190.42969 300.00000  L191.40625 300.00000  L192.38281 300.00000  L193.35938 300.00000  L194.33594 300.00000  L195.31250 300.00000  L196.28906 300.00000  L197.26563 300.00000  L198.24219 300.00000  L199.21875 300.00000  L200.19531 300.00000  L201.17188 300.00000  L202.14844 300.00000  L203.12500 300.00000  L204.10156 300.00000  L205.07813 300.00000  L206.05469 300.00000  L207.03125 300.00000  L208.00781 300.00000  L208.98438 300.00000  L209.96094 300.00000  L210.93750 300.00000  L211.91406 300.00000  L212.89063 300.00000  L213.86719 300.00000  L214.84375 300.00000  L215.82031 300.00000  L216.79688 300.00000  L217.77344 300.00000  L218.75000 300.00000  L219.72656 300.00000  L220.70313 300.00000  L221.67969 300.00000  L222.65625 300.00000  L223.63281 300.00000  L224.60938 300.00000  L225.58594 300.00000  L226.56250 300.00000  L227.53906 300.00000  L228.51563 300.00000  L229.49219 300.00000  L230.46875 300.00000  L231.44531 300.00000  L232.42188 300.00000  L233.39844 300.00000  L234.37500 300.00000  L235.35156 300.00000  L236.32813 300.00000  L237.30469 300.00000  L238.28125 300.00000  L239.25781 300.00000  L240.23438 300.00000  L241.21094 300.00000  L242.18750 300.00000  L243.16406 300.00000  L244.14063 300.00000  L245.11719 300.00000  L246.09375 300.00000  L247.07031 300.00000  L248.04688 300.00000  L249.02344 300.00000  L250.00000 300.00000  L250.97656 300.00000  L251.95313 300.00000  L252.92969 300.00000  L253.90625 300.00000  L254.88281 300.00000  L255.85938 300.00000  L256.83594 300.00000  L257.81250 300.00000  L258.78906 300.00000  L259.76563 300.00000  L260.74219 300.00000  L261.71875 300.00000  L262.69531 300.00000  L263.67188 300.00000  L264.64844 300.00000  L265.62500 300.00000  L266.60156 300.00000  L267.57813 300.00000  L268.55469 300.00000  L269.53125 300.00000  L270.50781 300.00000  L271.48438 300.00000  L272.46094 300.00000  L273.43750 300.00000  L274.41406 300.00000  L275.39063 300.00000  L276.36719 300.00000  L277.34375 300.00000  L278.32031 300.00000  L279.29688 300.00000  L280.27344 300.00000  L281.25000 300.00000  L282.22656 300.00000  L283.20313 300.00000  L284.17969 300.00000  L285.15625 300.00000  L286.13281 300.00000  L287.10938 300.00000  L288.08594 300.00000  L289.06250 300.00000  L290.03906 300.00000  L291.01563 300.00000  L291.99219 300.00000  L292.96875 300.00000  L293.94531 300.00000  L294.92188 300.00000  L295.89844 300.00000  L296.87500 300.00000  L297.85156 300.00000  L298.82813 300.00000  L299.80469 300.00000  L300.78125 300.00000  L301.75781 300.00000  L302.73438 300.00000  L303.71094 300.00000  L304.68750 300.00000  L305.66406 300.00000  L306.64063 300.00000  L307.61719 300.00000  L308.59375 300.00000  L309.57031 300.00000  L310.54688 300.00000  L311.52344 300.00000  L312.50000 300.00000  L313.47656 300.00000  L314.45313 300.00000  L315.42969 300.00000  L316.40625 300.00000  L317.38281 300.00000  L318.35938 300.00000  L319.33594 300.00000  L320.31250 300.00000  L321.28906 300.00000  L322.26563 300.00000  L323.24219 300.00000  L324.21875 300.00000  L325.19531 300.00000  L326.17188 300.00000  L327.14844 300.00000  L328.12500 300.00000  L329.10156 300.00000  L330.07813 300.00000  L331.05469 300.00000  L332.03125 300.00000  L333.00781 300.00000  L333.98438 300.00000  L334.96094 300.00000  L335.93750 300.00000  L336.91406 300.00000  L337.89063 300.00000  L338.86719 300.00000  L339.84375 300.00000  L340.82031 300.00000  L341.79688 300.00000  L342.77344 300.00000  L343.75000 300.00000  L344.72656 300.00000  L345.70313 300.00000  L346.67969 300.00000  L347.65625 300.00000  L348.63281 300.00000  L349.60938 300.00000  L350.58594 300.00000  L351.56250 300.00000  L352.53906 300.00000  L353.51563 300.00000  L354.49219 300.00000  L355.46875 300.00000  L356.44531 300.00000  L357.42188 300.00000  L358.39844 300.00000  L359.37500 300.00000  L360.35156 300.00000  L361.32813 300.00000  L362.30469 300.00000  L363.28125 300.00000  L364.25781 300.00000  L365.23438 300.00000  L366.21094 300.00000  L367.18750 300.00000  L368.16406 300.00000  L369.14063 300.00000  L370.11719 300.00000  L371.09375 300.00000  L372.07031 300.00000  L373.04688 300.00000  L374.02344 300.00000  L375.00000 300.00000  L375.97656 300.00000  L376.95313 300.00000  L377.92969 300.00000  L378.90625 300.00000  L379.88281 300.00000  L380.85938 300.00000  L381.83594 300.00000  L382.81250 300.00000  L383.78906 300.00000  L384.76563 300.00000  L385.74219 300.00000  L386.71875 300.00000  L387.69531 300.00000  L388.67188 300.00000  L389.64844 300.00000  L390.62500 300.00000  L391.60156 300.00000  L392.57813 300.00000  L393.55469 300.00000  L394.53125 300.00000  L395.50781 300.00000  L396.48438 300.00000  L397.46094 300.00000  L398.43750 300.00000  L399.41406 300.00000  L400.39063 300.00000  L401.36719 300.00000  L402.34375 300.00000  L403.32031 300.00000  L404.29688 300.00000  L405.27344 300.00000  L406.25000 300.00000  L407.22656 300.00000  L408.20313 300.00000  L409.17969 300.00000  L410.15625 300.00000  L411.13281 300.00000  L412.10938 300.00000  L413.08594 300.00000  L414.06250 300.00000  L415.03906 300.00000  L416.01563 300.00000  L416.99219 300.00000  L417.96875 300.00000  L418.94531 300.00000  L419.92188 300.00000  L420.89844 300.00000  L421.87500 300.00000  L422.85156 300.00000  L423.82813 300.00000  L424.80469 300.00000  L425.78125 300.00000  L426.75781 300.00000  L427.73438 300.00000  L428.71094 300.00000  L429.68750 300.00000  L430.66406 300.00000  L431.64063 300.00000  L432.61719 300.00000  L433.59375 300.00000  L434.57031 300.00000  L435.54688 300.00000  L436.52344 300.00000  L437.50000 300.00000  L438.47656 300.00000  L439.45313 300.00000  L440.42969 300.00000  L441.40625 300.00000  L442.38281 300.00000  L443.35938 300.00000  L444.33594 300.00000  L445.31250 300.00000  L446.28906 300.00000  L447.26563 300.00000  L448.24219 300.00000  L449.21875 300.00000  L450.19531 300.00000  L451.17188 300.00000  L452.14844 300.00000  L453.12500 300.00000  L454.10156 300.00000  L455.07813 300.00000  L456.05469 300.00000  L457.03125 300.00000  L458.00781 300.00000  L458.98438 300.00000  L459.96094 300.00000  L460.93750 300.00000  L461.91406 300.00000  L462.89063 300.00000  L463.86719 300.00000  L464.84375 300.00000  L465.82031 300.00000  L466.79688 300.00000  L467.77344 300.00000  L468.75000 300.00000  L469.72656 300.00000  L470.70313 300.00000  L471.67969 300.00000  L472.65625 300.00000  L473.63281 300.00000  L474.60938 300.00000  L475.58594 300.00000  L476.56250 300.00000  L477.53906 300.00000  L478.51563 300.00000  L479.49219 300.00000  L480.46875 300.00000  L481.44531 300.00000  L482.42188 300.00000  L483.39844 300.00000  L484.37500 300.00000  L485.35156 300.00000  L486.32813 300.00000  L487.30469 300.00000  L488.28125 300.00000  L489.25781 300.00000  L490.23438 300.00000  L491.21094 300.00000  L492.18750 300.00000  L493.16406 300.00000  L494.14063 300.00000  L495.11719 300.00000  L496.09375 300.00000  L497.07031 300.00000  L498.04688 300.00000  L499.02344 300.00000  L500.00000 300.00000  L500.97656 300.00000  L501.95313 300.00000  L502.92969 300.00000  L503.90625 300.00000  L504.88281 300.00000  L505.85938 300.00000  L506.83594 300.00000  L507.81250 300.00000  L508.78906 300.00000  L509.76563 300.00000  L510.74219 300.00000  L511.71875 300.00000  L512.69531 300.00000  L513.67188 300.00000  L514.64844 300.00000  L515.62500 300.00000  L516.60156 300.00000  L517.57813 300.00000  L518.55469 300.00000  L519.53125 300.00000  L520.50781 300.00000  L521.48438 300.00000  L522.46094 300.00000  L523.43750 300.00000  L524.41406 300.00000  L525.39063 300.00000  L526.36719 300.00000  L527.34375 300.00000  L528.32031 300.00000  L529.29688 300.00000  L530.27344 300.00000  L531.25000 300.00000  L532.22656 300.00000  L533.20313 300.00000  L534.17969 300.00000  L535.15625 300.00000  L536.13281 300.00000  L537.10938 300.00000  L538.08594 300.00000  L539.06250 300.00000  L540.03906 300.00000  L541.01563 300.00000  L541.99219 300.00000  L542.96875 300.00000  L543.94531 300.00000  L544.92188 300.00000  L545.89844 300.00000  L546.87500 300.00000  L547.85156 300.00000  L548.82813 300.00000  L549.80469 300.00000  L550.78125 300.00000  L551.75781 300.00000  L552.73438 300.00000  L553.71094 300.00000  L554.68750 300.00000  L555.66406 300.00000  L556.64063 300.00000  L557.61719 300.00000  L558.59375 300.00000  L559.57031 300.00000  L560.54688 300.00000  L561.52344 300.00000  L562.50000 300.00000  L563.47656 300.00000  L564.45313 300.00000  L565.42969 300.00000  L566.40625 300.00000  L567.38281 300.00000  L568.35938 300.00000  L569.33594 300.00000  L570.31250 300.00000  L571.28906 300.00000  L572.26563 300.00000  L573.24219 300.00000  L574.21875 300.00000  L575.19531 300.00000  L576.17188 300.00000  L577.14844 300.00000  L578.12500 300.00000  L579.10156 300.00000  L580.07813 300.00000  L581.05469 300.00000  L582.03125 300.00000  L583.00781 300.00000  L583.98438 300.00000  L584.96094 300.00000  L585.93750 300.00000  L586.91406 300.00000  L587.89063 300.00000  L588.86719 300.00000  L589.84375 300.00000  L590.82031 300.00000  L591.79688 300.00000  L592.77344 300.00000  L593.75000 300.00000  L594.72656 300.00000  L595.70313 300.00000  L596.67969 300.00000  L597.65625 300.00000  L598.63281 300.00000  L599.60938 300.00000  L600.58594 300.00000  L601.56250 300.00000  L602.53906 300.00000  L603.51563 300.00000  L604.49219 300.00000  L605.46875 300.00000  L606.44531 300.00000  L607.42188 300.00000  L608.39844 300.00000  L609.37500 300.00000  L610.35156 300.00000  L611.32813 300.00000  L612.30469 300.00000  L613.28125 300.00000  L614.25781 300.00000  L615.23438 300.00000  L616.21094 300.00000  L617.18750 300.00000  L618.16406 300.00000  L619.14063 300.00000  L620.11719 300.00000  L621.09375 300.00000  L622.07031 300.00000  L623.04688 300.00000  L624.02344 300.00000  L625.00000 300.00000  L625.97656 300.00000  L626.95313 300.00000  L627.92969 300.00000  L628.90625 300.00000  L629.88281 300.00000  L630.85938 300.00000  L631.83594 300.00000  L632.81250 300.00000  L633.78906 300.00000  L634.76563 300.00000  L635.74219 300.00000  L636.71875 300.00000  L637.69531 300.00000  L638.67188 300.00000  L639.64844 300.00000  L640.62500 300.00000  L641.60156 300.00000  L642.57813 300.00000  L643.55469 300.00000  L644.53125 300.00000  L645.50781 300.00000  L646.48438 300.00000  L647.46094 300.00000  L648.43750 300.00000  L649.41406 300.00000  L650.39063 300.00000  L651.36719 300.00000  L652.34375 300.00000  L653.32031 300.00000  L654.29688 300.00000  L655.27344 300.00000  L656.25000 300.00000  L657.22656 300.00000  L658.20313 300.00000  L659.17969 300.00000  L660.15625 300.00000  L661.13281 300.00000  L662.10938 300.00000  L663.08594 300.00000  L664.06250 300.00000  L665.03906 300.00000  L666.01563 300.00000  L666.99219 300.00000  L667.96875 300.00000  L668.94531 300.00000  L669.92188 300.00000  L670.89844 300.00000  L671.87500 300.00000  L672.85156 300.00000  L673.82813 300.00000  L674.80469 300.00000  L675.78125 300.00000  L676.75781 300.00000  L677.73438 300.00000  L678.71094 300.00000  L679.68750 300.00000  L680.66406 300.00000  L681.64063 300.00000  L682.61719 300.00000  L683.59375 300.00000  L684.57031 300.00000  L685.54688 300.00000  L686.52344 300.00000  L687.50000 300.00000  L688.47656 300.00000  L689.45313 300.00000  L690.42969 300.00000  L691.40625 300.00000  L692.38281 300.00000  L693.35938 300.00000  L694.33594 300.00000  L695.31250 300.00000  L696.28906 300.00000  L697.26563 300.00000  L698.24219 300.00000  L699.21875 300.00000  L700.19531 300.00000  L701.17188 300.00000  L702.14844 300.00000  L703.12500 300.00000  L704.10156 300.00000  L705.07813 300.00000  L706.05469 300.00000  L707.03125 300.00000  L708.00781 300.00000  L708.98438 300.00000  L709.96094 300.00000  L710.93750 300.00000  L711.91406 300.00000  L712.89063 300.00000  L713.86719 300.00000  L714.84375 300.00000  L715.82031 300.00000  L716.79688 300.00000  L717.77344 300.00000  L718.75000 300.00000  L719.72656 300.00000  L720.70313 300.00000  L721.67969 300.00000  L722.65625 300.00000  L723.63281 300.00000  L724.60938 300.00000  L725.58594 300.00000  L726.56250 300.00000  L727.53906 300.00000  L728.51563 300.00000  L729.49219 300.00000  L730.46875 300.00000  L731.44531 300.00000  L732.42188 300.00000  L733.39844 300.00000  L734.37500 300.00000  L735.35156 300.00000  L736.32813 300.00000  L737.30469 300.00000  L738.28125 300.00000  L739.25781 300.00000  L740.23438 300.00000  L741.21094 300.00000  L742.18750 300.00000  L743.16406 300.00000  L744.14063 300.00000  L745.11719 300.00000  L746.09375 300.00000  L747.07031 300.00000  L748.04688 300.00000  L749.02344 300.00000  L750.00000 300.00000  L750.97656 300.00000  L751.95313 300.00000  L752.92969 300.00000  L753.90625 300.00000  L754.88281 300.00000  L755.85938 300.00000  L756.83594 300.00000  L757.81250 300.00000  L758.78906 300.00000  L759.76563 300.00000  L760.74219 300.00000  L761.71875 300.00000  L762.69531 300.00000  L763.67188 300.00000  L764.64844 300.00000  L765.62500 300.00000  L766.60156 300.00000  L767.57813 300.00000  L768.55469 300.00000  L769.53125 300.00000  L770.50781 300.00000  L771.48438 300.00000  L772.46094 300.00000  L773.43750 300.00000  L774.41406 300.00000  L775.39063 300.00000  L776.36719 300.00000  L777.34375 300.00000  L778.32031 300.00000  L779.29688 300.00000  L780.27344 300.00000  L781.25000 300.00000  L782.22656 300.00000  L783.20313 300.00000  L784.17969 300.00000  L785.15625 300.00000  L786.13281 300.00000  L787.10938 300.00000  L788.08594 300.00000  L789.06250 300.00000  L790.03906 300.00000  L791.01563 300.00000  L791.99219 300.00000  L792.96875 300.00000  L793.94531 300.00000  L794.92188 300.00000  L795.89844 300.00000  L796.87500 300.00000  L797.85156 300.00000  L798.82813 300.00000  L799.80469 300.00000  L800.78125 300.00000  L801.75781 300.00000  L802.73438 300.00000  L803.71094 300.00000  L804.68750 300.00000  L805.66406 300.00000  L806.64063 300.00000  L807.61719 300.00000  L808.59375 300.00000  L809.57031 300.00000  L810.54688 300.00000  L811.52344 300.00000  L812.50000 300.00000  L813.47656 300.00000  L814.45313 300.00000  L815.42969 300.00000  L816.40625 300.00000  L817.38281 300.00000  L818.35938 300.00000  L819.33594 300.00000  L820.31250 300.00000  L821.28906 300.00000  L822.26563 300.00000  L823.24219 300.00000  L824.21875 300.00000  L825.19531 300.00000  L826.17188 300.00000  L827.14844 300.00000  L828.12500 300.00000  L829.10156 300.00000  L830.07813 300.00000  L831.05469 300.00000  L832.03125 300.00000  L833.00781 300.00000  L833.98438 300.00000  L834.96094 300.00000  L835.93750 300.00000  L836.91406 300.00000  L837.89063 300.00000  L838.86719 300.00000  L839.84375 300.00000  L840.82031 300.00000  L841.79688 300.00000  L842.77344 300.00000  L843.75000 300.00000  L844.72656 300.00000  L845.70313 300.00000  L846.67969 300.00000  L847.65625 300.00000  L848.63281 300.00000  L849.60938 300.00000  L850.58594 300.00000  L851.56250 300.00000  L852.53906 300.00000  L853.51563 300.00000  L854.49219 300.00000  L855.46875 300.00000  L856.44531 300.00000  L857.42188 300.00000  L858.39844 300.00000  L859.37500 300.00000  L860.35156 300.00000  L861.32813 300.00000  L862.30469 300.00000  L863.28125 300.00000  L864.25781 300.00000  L865.23438 300.00000  L866.21094 300.00000  L867.18750 300.00000  L868.16406 300.00000  L869.14063 300.00000  L870.11719 300.00000  L871.09375 300.00000  L872.07031 300.00000  L873.04688 300.00000  L874.02344 300.00000  L875.00000 300.00000  L875.97656 300.00000  L876.95313 300.00000  L877.92969 300.00000  L878.90625 300.00000  L879.88281 300.00000  L880.85938 300.00000  L881.83594 300.00000  L882.81250 300.00000  L883.78906 300.00000  L884.76563 300.00000  L885.74219 300.00000  L886.71875 300.00000  L887.69531 300.00000  L888.67188 300.00000  L889.64844 300.00000  L890.62500 300.00000  L891.60156 300.00000  L892.57813 300.00000  L893.55469 300.00000  L894.53125 300.00000  L895.50781 300.00000  L896.48438 300.00000  L897.46094 300.00000  L898.43750 300.00000  L899.41406 300.00000  L900.39063 300.00000  L901.36719 300.00000  L902.34375 300.00000  L903.32031 300.00000  L904.29688 300.00000  L905.27344 300.00000  L906.25000 300.00000  L907.22656 300.00000  L908.20313 300.00000  L909.17969 300.00000  L910.15625 300.00000  L911.13281 300.00000  L912.10938 300.00000  L913.08594 300.00000  L914.06250 300.00000  L915.03906 300.00000  L916.01563 300.00000  L916.99219 300.00000  L917.96875 300.00000  L918.94531 300.00000  L919.92188 300.00000  L920.89844 300.00000  L921.87500 300.00000  L922.85156 300.00000  L923.82813 300.00000  L924.80469 300.00000  L925.78125 300.00000  L926.75781 300.00000  L927.73438 300.00000  L928.71094 300.00000  L929.68750 300.00000  L930.66406 300.00000  L931.64063 300.00000  L932.61719 300.00000  L933.59375 300.00000  L934.57031 300.00000  L935.54688 300.00000  L936.52344 300.00000  L937.50000 300.00000  L938.47656 300.00000  L939.45313 300.00000  L940.42969 300.00000  L941.40625 300.00000  L942.38281 300.00000  L943.35938 300.00000  L944.33594 300.00000  L945.31250 300.00000  L946.28906 300.00000  L947.26563 300.00000  L948.24219 300.00000  L949.21875 300.00000  L950.19531 300.00000  L951.17188 300.00000  L952.14844 300.00000  L953.12500 300.00000  L954.10156 300.00000  L955.07813 300.00000  L956.05469 300.00000  L957.03125 300.00000  L958.00781 300.00000  L958.98438 300.00000  L959.96094 300.00000  L960.93750 300.00000  L961.91406 300.00000  L962.89063 300.00000  L963.86719 300.00000  L964.84375 300.00000  L965.82031 300.00000  L966.79688 300.00000  L967.77344 300.00000  L968.75000 300.00000  L969.72656 300.00000  L970.70313 300.00000  L971.67969 300.00000  L972.65625 300.00000  L973.63281 300.00000  L974.60938 300.00000  L975.58594 300.00000  L976.56250 300.00000  L977.53906 300.00000  L978.51563 300.00000  L979.49219 300.00000  L980.46875 300.00000  L981.44531 300.00000  L982.42188 300.00000  L983.39844 300.00000  L984.37500 300.00000  L985.35156 300.00000  L986.32813 300.00000  L987.30469 300.00000  L988.28125 300.00000  L989.25781 300.00000  L990.23438 300.00000  L991.21094 300.00000  L992.18750 300.00000  L993.16406 300.00000  L994.14063 300.00000  L995.11719 300.00000  L996.09375 300.00000  L997.07031 300.00000  L998.04688 300.00000  L999.02344 300.00000 " /></g><text x="1000.00000" dx="10" y="102.12991">[-2.79202;2.91355]</text><text x="1000.00000" dx="10" y="300.00000">[-0.00000;0.00000]</text></svg>