<svg xmlns="http://www.w3.org/2000/svg" version="1.1"><g stroke-width="0.6"><path fill="none" stroke="#000000" d="M0 199.99995 L1000.00000 199.99995" /><path fill="none" stroke="#000000" d="M0 300.05011 L1000.00000 300.05011" /><path fill="none" stroke="#000000" d="M500.00000 0 L500.00000 400.00000" /><path fill="none" stroke="#550000" d="M0 350.07520 L1000.00000 350.07520" /><path fill="none" stroke="#550000" d="M0 300.05011 L1000.00000 300.05011" /><path fill="none" stroke="#550000" d="M0 250.02505 L1000.00000 250.02505" /><path fill="none" stroke="#000000" d="M0 199.99995  L0.00000 199.16476 L0.97656 199.16356 L1.95313 199.16019 L2.92969 199.15442 L3.90625 199.14639 L4.88281 199.13577 L5.85938 199.12259 L6.83594 199.10678 L7.81250 199.08792 L8.78906 199.06593 L9.76563 199.04056 L10.74219 199.01169 L11.71875 198.97835 L12.69531 198.94037 L13.67188 198.89713 L14.64844 198.84764 L15.62500 198.79120 L16.60156 198.72655 L17.57813 198.65189 L18.55469 198.56537 L19.53125 198.46451 L20.50781 198.34583 L21.48438 198.20477 L22.46094 198.03519 L23.43750 197.82825 L24.41406 197.57130 L25.39063 197.24550 L26.36719 196.82100 L27.34375 196.24869 L28.32031 195.44096 L29.29688 194.22472 L30.27344 192.20622 L31.25000 188.25259 L32.22656 177.23044 L33.20313 -0.00000 L34.17969 168.08400 L35.15625 184.56874 L36.13281 189.49294 L37.10938 191.82001 L38.08594 193.14491 L39.06250 193.97452 L40.03906 194.51982 L41.01563 194.88272 L41.99219 195.11893 L42.96875 195.25935 L43.94531 195.32230 L44.92188 195.31773 L45.89844 195.24968 L46.87500 195.11765 L47.85156 194.91649 L48.82813 194.63579 L49.80469 194.25801 L50.78125 193.75504 L51.75781 193.08136 L52.73438 192.16080 L53.71094 190.85771 L54.68750 188.90688 L55.66406 185.71382 L56.64063 179.61876 L57.61719 163.58522 L58.59375 10.94728 L59.57031 142.39711 L60.54688 175.25230 L61.52344 184.32175 L62.50000 188.56133 L63.47656 191.01312 L64.45313 192.60834 L65.42969 193.72748 L66.40625 194.55475 L67.38281 195.19054 L68.35938 195.69383 L69.33594 196.10182 L70.31250 196.43901 L71.28906 196.72211 L72.26563 196.96309 L73.24219 197.17058 L74.21875 197.35095 L75.19531 197.50926 L76.17188 197.64919 L77.14844 197.77374 L78.12500 197.88530 L79.10156 197.98584 L80.07813 198.07678 L81.05469 198.15947 L82.03125 198.23515 L83.00781 198.30446 L83.98438 198.36784 L84.96094 198.42648 L85.93750 198.48109 L86.91406 198.53168 L87.89063 198.57863 L88.86719 198.62254 L89.84375 198.66367 L90.82031 198.70212 L91.79688 198.73824 L92.77344 198.77223 L93.75000 198.80426 L94.72656 198.83452 L95.70313 198.86314 L96.67969 198.89027 L97.65625 198.91602 L98.63281 198.94043 L99.60938 198.96365 L100.58594 198.98581 L101.56250 199.00690 L102.53906 199.02704 L103.51563 199.04631 L104.49219 199.06471 L105.46875 199.08234 L106.44531 199.09933 L107.42188 199.11548 L108.39844 199.13098 L109.37500 199.14575 L110.35156 199.16040 L111.32813 199.17424 L112.30469 199.18753 L113.28125 199.20044 L114.25781 199.21288 L115.23438 199.22481 L116.21094 199.23639 L117.18750 199.24756 L118.16406 199.25835 L119.14063 199.26884 L120.11719 199.27895 L121.09375 199.28876 L122.07031 199.29832 L123.04688 199.30751 L124.02344 199.31645 L125.00000 199.32516 L125.97656 199.33356 L126.95313 199.34177 L127.92969 199.34975 L128.90625 199.35747 L129.88281 199.36499 L130.85938 199.37236 L131.83594 199.37947 L132.81250 199.38631 L133.78906 199.39311 L134.76563 199.39981 L135.74219 199.40625 L136.71875 199.41255 L137.69531 199.41853 L138.67188 199.42442 L139.64844 199.43054 L140.62500 199.43614 L141.60156 199.44165 L142.57813 199.44716 L143.55469 199.45247 L144.53125 199.45767 L145.50781 199.46274 L146.48438 199.46771 L147.46094 199.47255 L148.43750 199.47731 L149.41406 199.48198 L150.39063 199.48654 L151.36719 199.49098 L152.34375 199.49538 L153.32031 199.49962 L154.29688 199.50385 L155.27344 199.50801 L156.25000 199.51196 L157.22656 199.51588 L158.20313 199.51979 L159.17969 199.52376 L160.15625 199.52742 L161.13281 199.53104 L162.10938 199.53467 L163.08594 199.53821 L164.06250 199.54166 L165.03906 199.54503 L166.01563 199.54840 L166.99219 199.55168 L167.96875 199.55492 L168.94531 199.55809 L169.92188 199.56120 L170.89844 199.56427 L171.87500 199.56729 L172.85156 199.57021 L173.82813 199.57317 L174.80469 199.57607 L175.78125 199.57884 L176.75781 199.58162 L177.73438 199.58434 L178.71094 199.58702 L179.68750 199.58969 L180.66406 199.59227 L181.64063 199.59482 L182.61719 199.59735 L183.59375 199.59991 L184.57031 199.60233 L185.54688 199.60466 L186.52344 199.60707 L187.50000 199.60944 L188.47656 199.61166 L189.45313 199.61398 L190.42969 199.61617 L191.40625 199.61842 L192.38281 199.62059 L193.35938 199.62271 L194.33594 199.62485 L195.31250 199.62691 L196.28906 199.62895 L197.26563 199.63097 L198.24219 199.63300 L199.21875 199.63496 L200.19531 199.63686 L201.17188 199.63881 L202.14844 199.64069 L203.12500 199.64255 L204.10156 199.64452 L205.07813 199.64616 L206.05469 199.64778 L207.03125 199.64978 L208.00781 199.65147 L208.98438 199.65321 L209.96094 199.65486 L210.93750 199.65656 L211.91406 199.65823 L212.89063 199.65984 L213.86719 199.66144 L214.84375 199.66307 L215.82031 199.66464 L216.79688 199.66617 L217.77344 199.66772 L218.75000 199.66925 L219.72656 199.67075 L220.70313 199.67221 L221.67969 199.67368 L222.65625 199.67513 L223.63281 199.67656 L224.60938 199.67796 L225.58594 199.67935 L226.56250 199.68073 L227.53906 199.68208 L228.51563 199.68344 L229.49219 199.68477 L230.46875 199.68608 L231.44531 199.68739 L232.42188 199.68869 L233.39844 199.68993 L234.37500 199.69116 L235.35156 199.69241 L236.32813 199.69365 L237.30469 199.69484 L238.28125 199.69601 L239.25781 199.69727 L240.23438 199.69839 L241.21094 199.69958 L242.18750 199.70071 L243.16406 199.70184 L244.14063 199.70297 L245.11719 199.70406 L246.09375 199.70518 L247.07031 199.70625 L248.04688 199.70734 L249.02344 199.70839 L250.00000 199.70946 L250.97656 199.71051 L251.95313 199.71153 L252.92969 199.71255 L253.90625 199.71353 L254.88281 199.71454 L255.85938 199.71555 L256.83594 199.71657 L257.81250 199.71739 L258.78906 199.71841 L259.76563 199.71936 L260.74219 199.72032 L261.71875 199.72122 L262.69531 199.72214 L263.67188 199.72305 L264.64844 199.72397 L265.62500 199.72485 L266.60156 199.72572 L267.57813 199.72659 L268.55469 199.72745 L269.53125 199.72830 L270.50781 199.72916 L271.48438 199.73000 L272.46094 199.73082 L273.43750 199.73164 L274.41406 199.73245 L275.39063 199.73328 L276.36719 199.73405 L277.34375 199.73482 L278.32031 199.73564 L279.29688 199.73631 L280.27344 199.73720 L281.25000 199.73792 L282.22656 199.73860 L283.20313 199.73941 L284.17969 199.74014 L285.15625 199.74088 L286.13281 199.74159 L287.10938 199.74232 L288.08594 199.74304 L289.06250 199.74371 L290.03906 199.74440 L291.01563 199.74509 L291.99219 199.74579 L292.96875 199.74648 L293.94531 199.74710 L294.92188 199.74782 L295.89844 199.74844 L296.87500 199.74910 L297.85156 199.74974 L298.82813 199.75037 L299.80469 199.75101 L300.78125 199.75163 L301.75781 199.75221 L302.73438 199.75285 L303.71094 199.75346 L304.68750 199.75407 L305.66406 199.75464 L306.64063 199.75525 L307.61719 199.75581 L308.59375 199.75638 L309.57031 199.75710 L310.54688 199.75757 L311.52344 199.75821 L312.50000 199.75867 L313.47656 199.75926 L314.45313 199.75977 L315.42969 199.76030 L316.40625 199.76085 L317.38281 199.76138 L318.35938 199.76193 L319.33594 199.76245 L320.31250 199.76297 L321.28906 199.76346 L322.26563 199.76396 L323.24219 199.76450 L324.21875 199.76497 L325.19531 199.76547 L326.17188 199.76596 L327.14844 199.76643 L328.12500 199.76692 L329.10156 199.76740 L330.07813 199.76787 L331.05469 199.76833 L332.03125 199.76880 L333.00781 199.76929 L333.98438 199.76971 L334.96094 199.77016 L335.93750 199.77061 L336.91406 199.77106 L337.89063 199.77151 L338.86719 199.77190 L339.84375 199.77234 L340.82031 199.77275 L341.79688 199.77322 L342.77344 199.77362 L343.75000 199.77405 L344.72656 199.77446 L345.70313 199.77484 L346.67969 199.77518 L347.65625 199.77563 L348.63281 199.77605 L349.60938 199.77640 L350.58594 199.77678 L351.56250 199.77716 L352.53906 199.77756 L353.51563 199.77794 L354.49219 199.77829 L355.46875 199.77867 L356.44531 199.77904 L357.42188 199.77945 L358.39844 199.77975 L359.37500 199.78011 L360.35156 199.78047 L361.32813 199.78081 L362.30469 199.78116 L363.28125 199.78146 L364.25781 199.78183 L365.23438 199.78215 L366.21094 199.78247 L367.18750 199.78284 L368.16406 199.78316 L369.14063 199.78345 L370.11719 199.78377 L371.09375 199.78406 L372.07031 199.78442 L373.04688 199.78470 L374.02344 199.78500 L375.00000 199.78534 L375.97656 199.78549 L376.95313 199.78592 L377.92969 199.78624 L378.90625 199.78651 L379.88281 199.78677 L380.85938 199.78711 L381.83594 199.78735 L382.81250 199.78763 L383.78906 199.78787 L384.76563 199.78815 L385.74219 199.78845 L386.71875 199.78867 L387.69531 199.78899 L388.67188 199.78922 L389.64844 199.78951 L390.62500 199.78973 L391.60156 199.78996 L392.57813 199.79025 L393.55469 199.79047 L394.53125 199.79071 L395.50781 199.79095 L396.48438 199.79120 L397.46094 199.79143 L398.43750 199.79166 L399.41406 199.79190 L400.39063 199.79213 L401.36719 199.79234 L402.34375 199.79257 L403.32031 199.79277 L404.29688 199.79298 L405.27344 199.79324 L406.25000 199.79341 L407.22656 199.79364 L408.20313 199.79378 L409.17969 199.79407 L410.15625 199.79425 L411.13281 199.79443 L412.10938 199.79465 L413.08594 199.79483 L414.06250 199.79503 L415.03906 199.79520 L416.01563 199.79539 L416.99219 199.79559 L417.96875 199.79575 L418.94531 199.79591 L419.92188 199.79616 L420.89844 199.79630 L421.87500 199.79646 L422.85156 199.79663 L423.82813 199.79680 L424.80469 199.79698 L425.78125 199.79713 L426.75781 199.79729 L427.73438 199.79744 L428.71094 199.79759 L429.68750 199.79776 L430.66406 199.79790 L431.64063 199.79803 L432.61719 199.79817 L433.59375 199.79832 L434.57031 199.79849 L435.54688 199.79861 L436.52344 199.79874 L437.50000 199.79892 L438.47656 199.79900 L439.45313 199.79915 L440.42969 199.79927 L441.40625 199.79941 L442.38281 199.79951 L443.35938 199.79965 L444.33594 199.79977 L445.31250 199.79990 L446.28906 199.79999 L447.26563 199.80008 L448.24219 199.80023 L449.21875 199.80032 L450.19531 199.80042 L451.17188 199.80060 L452.14844 199.80067 L453.12500 199.80074 L454.10156 199.80084 L455.07813 199.80095 L456.05469 199.80096 L457.03125 199.80113 L458.00781 199.80121 L458.98438 199.80132 L459.96094 199.80138 L460.93750 199.80147 L461.91406 199.80156 L462.89063 199.80161 L463.86719 199.80170 L464.84375 199.80174 L465.82031 199.80182 L466.79688 199.80190 L467.77344 199.80197 L468.75000 199.80206 L469.72656 199.80211 L470.70313 199.80217 L471.67969 199.80223 L472.65625 199.80228 L473.63281 199.80235 L474.60938 199.80240 L475.58594 199.80244 L476.56250 199.80249 L477.53906 199.80252 L478.51563 199.80260 L479.49219 199.80263 L480.46875 199.80267 L481.44531 199.80272 L482.42188 199.80272 L483.39844 199.80275 L484.37500 199.80283 L485.35156 199.80284 L486.32813 199.80286 L487.30469 199.80292 L488.28125 199.80292 L489.25781 199.80295 L490.23438 199.80298 L491.21094 199.80298 L492.18750 199.80301 L493.16406 199.80305 L494.14063 199.80304 L495.11719 199.80304 L496.09375 199.80304 L497.07031 199.80307 L498.04688 199.80307 L499.02344 199.80307 L500.00000 199.80304 L500.97656 199.80307 L501.95313 199.80307 L502.92969 199.80307 L503.90625 199.80304 L504.88281 199.80304 L505.85938 199.80304 L506.83594 199.80305 L507.81250 199.80301 L508.78906 199.80298 L509.76563 199.80298 L510.74219 199.80295 L511.71875 199.80292 L512.69531 199.80292 L513.67188 199.80286 L514.64844 199.80284 L515.62500 199.80283 L516.60156 199.80275 L517.57813 199.80272 L518.55469 199.80272 L519.53125 199.80267 L520.50781 199.80263 L521.48438 199.80260 L522.46094 199.80252 L523.43750 199.80249 L524.41406 199.80244 L525.39063 199.80240 L526.36719 199.80235 L527.34375 199.80228 L528.32031 199.80223 L529.29688 199.80215 L530.27344 199.80211 L531.25000 199.80206 L532.22656 199.80197 L533.20313 199.80190 L534.17969 199.80183 L535.15625 199.80174 L536.13281 199.80170 L537.10938 199.80161 L538.08594 199.80156 L539.06250 199.80147 L540.03906 199.80138 L541.01563 199.80130 L541.99219 199.80121 L542.96875 199.80113 L543.94531 199.80096 L544.92188 199.80095 L545.89844 199.80084 L546.87500 199.80074 L547.85156 199.80067 L548.82813 199.80060 L549.80469 199.80042 L550.78125 199.80032 L551.75781 199.80023 L552.73438 199.80008 L553.71094 199.79999 L554.68750 199.79990 L555.66406 199.79977 L556.64063 199.79965 L557.61719 199.79951 L558.59375 199.79939 L559.57031 199.79927 L560.54688 199.79915 L561.52344 199.79900 L562.50000 199.79892 L563.47656 199.79874 L564.45313 199.79861 L565.42969 199.79849 L566.40625 199.79832 L567.38281 199.79817 L568.35938 199.79803 L569.33594 199.79790 L570.31250 199.79776 L571.28906 199.79759 L572.26563 199.79744 L573.24219 199.79729 L574.21875 199.79713 L575.19531 199.79698 L576.17188 199.79680 L577.14844 199.79663 L578.12500 199.79646 L579.10156 199.79630 L580.07813 199.79616 L581.05469 199.79591 L582.03125 199.79575 L583.00781 199.79559 L583.98438 199.79538 L584.96094 199.79520 L585.93750 199.79503 L586.91406 199.79483 L587.89063 199.79465 L588.86719 199.79443 L589.84375 199.79425 L590.82031 199.79407 L591.79688 199.79378 L592.77344 199.79364 L593.75000 199.79341 L594.72656 199.79324 L595.70313 199.79298 L596.67969 199.79277 L597.65625 199.79257 L598.63281 199.79234 L599.60938 199.79213 L600.58594 199.79190 L601.56250 199.79166 L602.53906 199.79143 L603.51563 199.79120 L604.49219 199.79095 L605.46875 199.79071 L606.44531 199.79045 L607.42188 199.79025 L608.39844 199.78996 L609.37500 199.78973 L610.35156 199.78951 L611.32813 199.78922 L612.30469 199.78899 L613.28125 199.78867 L614.25781 199.78845 L615.23438 199.78815 L616.21094 199.78787 L617.18750 199.78763 L618.16406 199.78735 L619.14063 199.78711 L620.11719 199.78677 L621.09375 199.78651 L622.07031 199.78624 L623.04688 199.78592 L624.02344 199.78549 L625.00000 199.78534 L625.97656 199.78500 L626.95313 199.78470 L627.92969 199.78442 L628.90625 199.78406 L629.88281 199.78377 L630.85938 199.78345 L631.83594 199.78316 L632.81250 199.78284 L633.78906 199.78247 L634.76563 199.78215 L635.74219 199.78183 L636.71875 199.78146 L637.69531 199.78116 L638.67188 199.78081 L639.64844 199.78047 L640.62500 199.78011 L641.60156 199.77975 L642.57813 199.77945 L643.55469 199.77904 L644.53125 199.77867 L645.50781 199.77829 L646.48438 199.77794 L647.46094 199.77756 L648.43750 199.77716 L649.41406 199.77678 L650.39063 199.77640 L651.36719 199.77605 L652.34375 199.77563 L653.32031 199.77518 L654.29688 199.77484 L655.27344 199.77446 L656.25000 199.77405 L657.22656 199.77362 L658.20313 199.77322 L659.17969 199.77275 L660.15625 199.77234 L661.13281 199.77190 L662.10938 199.77151 L663.08594 199.77106 L664.06250 199.77061 L665.03906 199.77016 L666.01563 199.76971 L666.99219 199.76929 L667.96875 199.76880 L668.94531 199.76833 L669.92188 199.76787 L670.89844 199.76740 L671.87500 199.76692 L672.85156 199.76643 L673.82813 199.76596 L674.80469 199.76547 L675.78125 199.76497 L676.75781 199.76450 L677.73438 199.76396 L678.71094 199.76346 L679.68750 199.76297 L680.66406 199.76245 L681.64063 199.76193 L682.61719 199.76138 L683.59375 199.76085 L684.57031 199.76030 L685.54688 199.75977 L686.52344 199.75926 L687.50000 199.75867 L688.47656 199.75821 L689.45313 199.75758 L690.42969 199.75710 L691.40625 199.75638 L692.38281 199.75581 L693.35938 199.75525 L694.33594 199.75464 L695.31250 199.75407 L696.28906 199.75346 L697.26563 199.75285 L698.24219 199.75221 L699.21875 199.75163 L700.19531 199.75101 L701.17188 199.75037 L702.14844 199.74974 L703.12500 199.74910 L704.10156 199.74844 L705.07813 199.74782 L706.05469 199.74710 L707.03125 199.74646 L708.00781 199.74579 L708.98438 199.74509 L709.96094 199.74440 L710.93750 199.74371 L711.91406 199.74304 L712.89063 199.74232 L713.86719 199.74159 L714.84375 199.74088 L715.82031 199.74014 L716.79688 199.73941 L717.77344 199.73860 L718.75000 199.73792 L719.72656 199.73720 L720.70313 199.73631 L721.67969 199.73564 L722.65625 199.73482 L723.63281 199.73405 L724.60938 199.73328 L725.58594 199.73245 L726.56250 199.73164 L727.53906 199.73082 L728.51563 199.73000 L729.49219 199.72916 L730.46875 199.72830 L731.44531 199.72745 L732.42188 199.72659 L733.39844 199.72572 L734.37500 199.72485 L735.35156 199.72397 L736.32813 199.72305 L737.30469 199.72214 L738.28125 199.72122 L739.25781 199.72032 L740.23438 199.71938 L741.21094 199.71841 L742.18750 199.71739 L743.16406 199.71657 L744.14063 199.71555 L745.11719 199.71454 L746.09375 199.71353 L747.07031 199.71255 L748.04688 199.71153 L749.02344 199.71051 L750.00000 199.70946 L750.97656 199.70839 L751.95313 199.70734 L752.92969 199.70625 L753.90625 199.70518 L754.88281 199.70406 L755.85938 199.70297 L756.83594 199.70184 L757.81250 199.70071 L758.78906 199.69958 L759.76563 199.69839 L760.74219 199.69727 L761.71875 199.69601 L762.69531 199.69484 L763.67188 199.69365 L764.64844 199.69241 L765.62500 199.69116 L766.60156 199.68993 L767.57813 199.68869 L768.55469 199.68739 L769.53125 199.68608 L770.50781 199.68477 L771.48438 199.68344 L772.46094 199.68208 L773.43750 199.68073 L774.41406 199.67935 L775.39063 199.67796 L776.36719 199.67656 L777.34375 199.67513 L778.32031 199.67368 L779.29688 199.67221 L780.27344 199.67075 L781.25000 199.66925 L782.22656 199.66772 L783.20313 199.66617 L784.17969 199.66464 L785.15625 199.66307 L786.13281 199.66144 L787.10938 199.65984 L788.08594 199.65823 L789.06250 199.65656 L790.03906 199.65486 L791.01563 199.65321 L791.99219 199.65147 L792.96875 199.64978 L793.94531 199.64778 L794.92188 199.64616 L795.89844 199.64452 L796.87500 199.64255 L797.85156 199.64069 L798.82813 199.63881 L799.80469 199.63686 L800.78125 199.63496 L801.75781 199.63300 L802.73438 199.63097 L803.71094 199.62895 L804.68750 199.62691 L805.66406 199.62485 L806.64063 199.62271 L807.61719 199.62059 L808.59375 199.61842 L809.57031 199.61617 L810.54688 199.61398 L811.52344 199.61166 L812.50000 199.60944 L813.47656 199.60707 L814.45313 199.60466 L815.42969 199.60234 L816.40625 199.59991 L817.38281 199.59735 L818.35938 199.59482 L819.33594 199.59227 L820.31250 199.58969 L821.28906 199.58702 L822.26563 199.58434 L823.24219 199.58162 L824.21875 199.57884 L825.19531 199.57607 L826.17188 199.57317 L827.14844 199.57021 L828.12500 199.56729 L829.10156 199.56427 L830.07813 199.56120 L831.05469 199.55809 L832.03125 199.55492 L833.00781 199.55168 L833.98438 199.54840 L834.96094 199.54503 L835.93750 199.54166 L836.91406 199.53821 L837.89063 199.53467 L838.86719 199.53104 L839.84375 199.52742 L840.82031 199.52376 L841.79688 199.51981 L842.77344 199.51588 L843.75000 199.51196 L844.72656 199.50801 L845.70313 199.50385 L846.67969 199.49962 L847.65625 199.49538 L848.63281 199.49098 L849.60938 199.48654 L850.58594 199.48198 L851.56250 199.47731 L852.53906 199.47255 L853.51563 199.46771 L854.49219 199.46274 L855.46875 199.45767 L856.44531 199.45247 L857.42188 199.44716 L858.39844 199.44165 L859.37500 199.43614 L860.35156 199.43054 L861.32813 199.42442 L862.30469 199.41853 L863.28125 199.41255 L864.25781 199.40625 L865.23438 199.39981 L866.21094 199.39311 L867.18750 199.38631 L868.16406 199.37947 L869.14063 199.37236 L870.11719 199.36499 L871.09375 199.35748 L872.07031 199.34975 L873.04688 199.34177 L874.02344 199.33356 L875.00000 199.32516 L875.97656 199.31645 L876.95313 199.30751 L877.92969 199.29832 L878.90625 199.28876 L879.88281 199.27895 L880.85938 199.26884 L881.83594 199.25835 L882.81250 199.24756 L883.78906 199.23639 L884.76563 199.22481 L885.74219 199.21288 L886.71875 199.20044 L887.69531 199.18752 L888.67188 199.17424 L889.64844 199.16040 L890.62500 199.14575 L891.60156 199.13098 L892.57813 199.11548 L893.55469 199.09933 L894.53125 199.08234 L895.50781 199.06471 L896.48438 199.04631 L897.46094 199.02704 L898.43750 199.00690 L899.41406 198.98581 L900.39063 198.96365 L901.36719 198.94043 L902.34375 198.91600 L903.32031 198.89027 L904.29688 198.86314 L905.27344 198.83452 L906.25000 198.80426 L907.22656 198.77223 L908.20313 198.73824 L909.17969 198.70212 L910.15625 198.66367 L911.13281 198.62254 L912.10938 198.57863 L913.08594 198.53168 L914.06250 198.48109 L915.03906 198.42648 L916.01563 198.36784 L916.99219 198.30446 L917.96875 198.23515 L918.94531 198.15947 L919.92188 198.07678 L920.89844 197.98584 L921.87500 197.88530 L922.85156 197.77374 L923.82813 197.64919 L924.80469 197.50926 L925.78125 197.35095 L926.75781 197.17058 L927.73438 196.96309 L928.71094 196.72211 L929.68750 196.43901 L930.66406 196.10182 L931.64063 195.69383 L932.61719 195.19054 L933.59375 194.55475 L934.57031 193.72748 L935.54688 192.60834 L936.52344 191.01312 L937.50000 188.56133 L938.47656 184.32175 L939.45313 175.25230 L940.42969 142.39709 L941.40625 10.94729 L942.38281 163.58522 L943.35938 179.61876 L944.33594 185.71382 L945.31250 188.90688 L946.28906 190.85771 L947.26563 192.16080 L948.24219 193.08136 L949.21875 193.75502 L950.19531 194.25803 L951.17188 194.63579 L952.14844 194.91649 L953.12500 195.11765 L954.10156 195.24968 L955.07813 195.31773 L956.05469 195.32230 L957.03125 195.25935 L958.00781 195.11891 L958.98438 194.88272 L959.96094 194.51982 L960.93750 193.97452 L961.91406 193.14491 L962.89063 191.82001 L963.86719 189.49294 L964.84375 184.56874 L965.82031 168.08400 L966.79688 -0.00000 L967.77344 177.23044 L968.75000 188.25259 L969.72656 192.20622 L970.70313 194.22472 L971.67969 195.44096 L972.65625 196.24870 L973.63281 196.82100 L974.60938 197.24550 L975.58594 197.57130 L976.56250 197.82825 L977.53906 198.03519 L978.51563 198.20477 L979.49219 198.34583 L980.46875 198.46451 L981.44531 198.56537 L982.42188 198.65187 L983.39844 198.72655 L984.37500 198.79120 L985.35156 198.84764 L986.32813 198.89713 L987.30469 198.94037 L988.28125 198.97835 L989.25781 199.01169 L990.23438 199.04056 L991.21094 199.06593 L992.18750 199.08792 L993.16406 199.10678 L994.14063 199.12259 L995.11719 199.13577 L996.09375 199.14639 L997.07031 199.15442 L998.04688 199.16019 L999.02344 199.16356" /><path fill="none" stroke="#000000" d="M0 300.05011  L0.00000 300.05011  L0.97656 300.24011  L1.95313 300.42914  L2.92969 300.60632  L3.90625 300.77499  L4.88281 300.93298  L5.85938 301.06516  L6.83594 301.17789  L7.81250 301.27570  L8.78906 301.32471  L9.76563 301.35754  L10.74219 301.34467  L11.71875 301.30627  L12.69531 301.22180  L13.67188 301.09357  L14.64844 300.92126  L15.62500 300.69702  L16.60156 300.42444  L17.57813 300.10291  L18.55469 299.72241  L19.53125 299.28467  L20.50781 298.79080  L21.48438 298.23441  L22.46094 297.61682  L23.43750 296.93835  L24.41406 296.19562  L25.39063 295.39005  L26.36719 294.52277  L27.34375 293.59326  L28.32031 292.60419  L29.29688 291.55844  L30.27344 290.45779  L31.25000 289.30750  L32.22656 288.11240  L33.20313 286.87732  L34.17969 385.65964  L35.15625 384.36542  L36.13281 383.05145  L37.10938 381.72623  L38.08594 380.39661  L39.06250 379.06989  L40.03906 377.75409  L41.01563 376.45441  L41.99219 375.17545  L42.96875 373.92471  L43.94531 372.70618  L44.92188 371.52142  L45.89844 370.37488  L46.87500 369.26788  L47.85156 368.20123  L48.82813 367.17587  L49.80469 366.19217  L50.78125 365.24921  L51.75781 364.34680  L52.73438 363.48364  L53.71094 362.65848  L54.68750 361.87003  L55.66406 361.11697  L56.64063 360.39752  L57.61719 359.71014  L58.59375 359.05328  L59.57031 258.37518  L60.54688 257.77454  L61.52344 257.19974  L62.50000 256.64944  L63.47656 256.12192  L64.45313 255.61610  L65.42969 255.13068  L66.40625 254.66507  L67.38281 254.21704  L68.35938 253.78610  L69.33594 253.37115  L70.31250 252.97130  L71.28906 252.58563  L72.26563 252.21313  L73.24219 251.85358  L74.21875 251.50600  L75.19531 251.16919  L76.17188 250.84297  L77.14844 250.52736  L78.12500 250.22029  L79.10156 249.92233  L80.07813 249.63361  L81.05469 249.35091  L82.03125 249.07678  L83.00781 248.81430  L83.98438 248.55684  L84.96094 248.29787  L85.93750 248.04691  L86.91406 247.80768  L87.89063 247.57071  L88.86719 247.33615  L89.84375 247.11285  L90.82031 246.88922  L91.79688 246.67395  L92.77344 246.46004  L93.75000 246.24976  L94.72656 246.04483  L95.70313 245.84288  L96.67969 245.64468  L97.65625 245.44902  L98.63281 245.25876  L99.60938 245.06915  L100.58594 244.88278  L101.56250 244.70117  L102.53906 244.51955  L103.51563 244.34100  L104.49219 244.16837  L105.46875 243.99284  L106.44531 243.81938  L107.42188 243.66296  L108.39844 243.48665  L109.37500 243.32530  L110.35156 243.15347  L111.32813 242.99680  L112.30469 242.83893  L113.28125 242.67767  L114.25781 242.52347  L115.23438 242.37082  L116.21094 242.21689  L117.18750 242.06476  L118.16406 241.91483  L119.14063 241.76529  L120.11719 241.61758  L121.09375 241.47078  L122.07031 241.32600  L123.04688 241.18268  L124.02344 241.03874  L125.00000 240.89632  L125.97656 240.75562  L126.95313 240.61699  L127.92969 240.47771  L128.90625 240.33989  L129.88281 240.20187  L130.85938 240.06604  L131.83594 239.93451  L132.81250 239.79797  L133.78906 239.65878  L134.76563 239.52638  L135.74219 239.39575  L136.71875 239.26703  L137.69531 239.13669  L138.67188 238.99634  L139.64844 238.87048  L140.62500 238.74321  L141.60156 238.61418  L142.57813 238.48807  L143.55469 238.36050  L144.53125 238.23331  L145.50781 238.10840  L146.48438 237.98134  L147.46094 237.85762  L148.43750 237.73431  L149.41406 237.60910  L150.39063 237.48640  L151.36719 237.36453  L152.34375 237.23914  L153.32031 237.11838  L154.29688 236.99722  L155.27344 236.87463  L156.25000 236.75127  L157.22656 236.63779  L158.20313 236.50504  L159.17969 236.39331  L160.15625 236.26953  L161.13281 236.15439  L162.10938 236.03687  L163.08594 235.91824  L164.06250 235.80193  L165.03906 235.68256  L166.01563 235.56168  L166.99219 235.44589  L167.96875 235.33209  L168.94531 235.21326  L169.92188 235.09622  L170.89844 234.98042  L171.87500 234.86546  L172.85156 234.74863  L173.82813 234.63097  L174.80469 234.52013  L175.78125 234.40605  L176.75781 234.29047  L177.73438 234.17525  L178.71094 234.06058  L179.68750 233.94812  L180.66406 233.83543  L181.64063 233.72014  L182.61719 233.60361  L183.59375 233.49268  L184.57031 233.38399  L185.54688 233.27101  L186.52344 233.15706  L187.50000 233.04733  L188.47656 232.93454  L189.45313 232.82034  L190.42969 232.70790  L191.40625 232.59720  L192.38281 232.48695  L193.35938 232.37531  L194.33594 232.26575  L195.31250 232.15601  L196.28906 232.04199  L197.26563 231.93335  L198.24219 231.82089  L199.21875 231.71399  L200.19531 231.60280  L201.17188 231.49063  L202.14844 231.38287  L203.12500 231.26912  L204.10156 231.16684  L205.07813 231.07271  L206.05469 230.94447  L207.03125 230.82985  L208.00781 230.72556  L208.98438 230.62189  L209.96094 230.50908  L210.93750 230.39975  L211.91406 230.29292  L212.89063 230.18610  L213.86719 230.07237  L214.84375 229.96498  L215.82031 229.85779  L216.79688 229.74950  L217.77344 229.64439  L218.75000 229.53482  L219.72656 229.42752  L220.70313 229.32109  L221.67969 229.20953  L222.65625 229.10350  L223.63281 228.99698  L224.60938 228.88921  L225.58594 228.78250  L226.56250 228.67444  L227.53906 228.56760  L228.51563 228.46155  L229.49219 228.35570  L230.46875 228.24796  L231.44531 228.14034  L232.42188 228.03897  L233.39844 227.93329  L234.37500 227.82260  L235.35156 227.71777  L236.32813 227.61398  L237.30469 227.50485  L238.28125 227.39478  L239.25781 227.28941  L240.23438 227.18863  L241.21094 227.07939  L242.18750 226.97427  L243.16406 226.86984  L244.14063 226.76485  L245.11719 226.65884  L246.09375 226.54941  L247.07031 226.44884  L248.04688 226.34076  L249.02344 226.23369  L250.00000 226.12962  L250.97656 226.02438  L251.95313 225.91907  L252.92969 225.81506  L253.90625 225.70746  L254.88281 225.60484  L255.85938 225.50215  L256.83594 225.39740  L257.81250 225.29480  L258.78906 225.18619  L259.76563 225.07855  L260.74219 224.97229  L261.71875 224.87085  L262.69531 224.76419  L263.67188 224.65941  L264.64844 224.56320  L265.62500 224.45441  L266.60156 224.34814  L267.57813 224.24799  L268.55469 224.14037  L269.53125 224.03499  L270.50781 223.93098  L271.48438 223.82764  L272.46094 223.72354  L273.43750 223.61856  L274.41406 223.51523  L275.39063 223.41214  L276.36719 223.30803  L277.34375 223.20529  L278.32031 223.10629  L279.29688 222.99530  L280.27344 222.88864  L281.25000 222.78665  L282.22656 222.68716  L283.20313 222.58186  L284.17969 222.47156  L285.15625 222.37192  L286.13281 222.26859  L287.10938 222.16144  L288.08594 222.06570  L289.06250 221.95987  L290.03906 221.85864  L291.01563 221.75075  L291.99219 221.64734  L292.96875 221.54688  L293.94531 221.43938  L294.92188 221.33836  L295.89844 221.23703  L296.87500 221.13342  L297.85156 221.02855  L298.82813 220.92664  L299.80469 220.82471  L300.78125 220.72003  L301.75781 220.61795  L302.73438 220.51602  L303.71094 220.40875  L304.68750 220.30418  L305.66406 220.21136  L306.64063 220.09671  L307.61719 219.99712  L308.59375 219.89085  L309.57031 219.78383  L310.54688 219.68684  L311.52344 219.59969  L312.50000 219.48471  L313.47656 219.38583  L314.45313 219.28580  L315.42969 219.17625  L316.40625 219.07455  L317.38281 218.97150  L318.35938 218.86742  L319.33594 218.76753  L320.31250 218.66542  L321.28906 218.56415  L322.26563 218.45860  L323.24219 218.35550  L324.21875 218.25645  L325.19531 218.15182  L326.17188 218.05002  L327.14844 217.94728  L328.12500 217.84198  L329.10156 217.74263  L330.07813 217.64282  L331.05469 217.53351  L332.03125 217.43147  L333.00781 217.33052  L333.98438 217.23126  L334.96094 217.12808  L335.93750 217.02542  L336.91406 216.92656  L337.89063 216.82607  L338.86719 216.71361  L339.84375 216.61301  L340.82031 216.51218  L341.79688 216.41270  L342.77344 216.31299  L343.75000 216.21156  L344.72656 216.10425  L345.70313 216.01657  L346.67969 215.90398  L347.65625 215.80215  L348.63281 215.69603  L349.60938 215.59447  L350.58594 215.49399  L351.56250 215.39340  L352.53906 215.28827  L353.51563 215.18755  L354.49219 215.08369  L355.46875 214.98529  L356.44531 214.87622  L357.42188 214.78418  L358.39844 214.67972  L359.37500 214.57907  L360.35156 214.47752  L361.32813 214.37508  L362.30469 214.27335  L363.28125 214.16751  L364.25781 214.06638  L365.23438 213.96736  L366.21094 213.86562  L367.18750 213.76109  L368.16406 213.66345  L369.14063 213.56131  L370.11719 213.45943  L371.09375 213.35657  L372.07031 213.25108  L373.04688 213.15552  L374.02344 213.05112  L375.00000 212.94969  L375.97656 212.84409  L376.95313 212.74144  L377.92969 212.62570  L378.90625 212.55095  L379.88281 212.43529  L380.85938 212.33569  L381.83594 212.24352  L382.81250 212.13770  L383.78906 212.03807  L384.76563 211.93222  L385.74219 211.83180  L386.71875 211.73187  L387.69531 211.62444  L388.67188 211.52574  L389.64844 211.42789  L390.62500 211.32574  L391.60156 211.22359  L392.57813 211.12392  L393.55469 211.02304  L394.53125 210.91678  L395.50781 210.81870  L396.48438 210.71532  L397.46094 210.61490  L398.43750 210.51309  L399.41406 210.41167  L400.39063 210.30937  L401.36719 210.21104  L402.34375 210.10620  L403.32031 210.00623  L404.29688 209.90378  L405.27344 209.80716  L406.25000 209.70529  L407.22656 209.60863  L408.20313 209.49429  L409.17969 209.39801  L410.15625 209.29753  L411.13281 209.19328  L412.10938 209.09026  L413.08594 208.99480  L414.06250 208.89384  L415.03906 208.79323  L416.01563 208.69080  L416.99219 208.58752  L417.96875 208.48772  L418.94531 208.38396  L419.92188 208.28061  L420.89844 208.18604  L421.87500 208.08473  L422.85156 207.98212  L423.82813 207.87909  L424.80469 207.77888  L425.78125 207.67943  L426.75781 207.58070  L427.73438 207.47728  L428.71094 207.37350  L429.68750 207.27362  L430.66406 207.17575  L431.64063 207.07471  L432.61719 206.96945  L433.59375 206.86882  L434.57031 206.76784  L435.54688 206.66473  L436.52344 206.56487  L437.50000 206.46524  L438.47656 206.36772  L439.45313 206.26112  L440.42969 206.15826  L441.40625 206.06308  L442.38281 205.95515  L443.35938 205.85703  L444.33594 205.75395  L445.31250 205.65712  L446.28906 205.55484  L447.26563 205.45299  L448.24219 205.35039  L449.21875 205.25349  L450.19531 205.14276  L451.17188 205.04822  L452.14844 204.95444  L453.12500 204.84967  L454.10156 204.74858  L455.07813 204.64746  L456.05469 204.54205  L457.03125 204.44498  L458.00781 204.34290  L458.98438 204.24149  L459.96094 204.14137  L460.93750 204.03645  L461.91406 203.93741  L462.89063 203.84334  L463.86719 203.73535  L464.84375 203.63293  L465.82031 203.53479  L466.79688 203.43304  L467.77344 203.33017  L468.75000 203.23204  L469.72656 203.13351  L470.70313 203.03125  L471.67969 202.92905  L472.65625 202.82631  L473.63281 202.72797  L474.60938 202.62756  L475.58594 202.52548  L476.56250 202.42517  L477.53906 202.32219  L478.51563 202.22351  L479.49219 202.12177  L480.46875 202.01859  L481.44531 201.92465  L482.42188 201.82111  L483.39844 201.71362  L484.37500 201.61459  L485.35156 201.51505  L486.32813 201.41350  L487.30469 201.31055  L488.28125 201.21097  L489.25781 201.10835  L490.23438 201.01009  L491.21094 200.90762  L492.18750 200.80371  L493.16406 200.70877  L494.14063 200.60735  L495.11719 200.50905  L496.09375 200.40210  L497.07031 200.30469  L498.04688 200.20377  L499.02344 200.10030  L500.00000 200.00000  L500.97656 400.00000  L501.95313 399.89642  L502.92969 399.79541  L503.90625 399.69797  L504.88281 399.59109  L505.85938 399.49277  L506.83594 399.39154  L507.81250 399.29654  L508.78906 399.19269  L509.76563 399.09027  L510.74219 398.99188  L511.71875 398.88934  L512.69531 398.78967  L513.67188 398.68701  L514.64844 398.58521  L515.62500 398.48566  L516.60156 398.38666  L517.57813 398.27917  L518.55469 398.17554  L519.53125 398.08154  L520.50781 397.97845  L521.48438 397.87683  L522.46094 397.77811  L523.43750 397.67511  L524.41406 397.57483  L525.39063 397.47266  L526.36719 397.37231  L527.34375 397.27399  L528.32031 397.17126  L529.29688 397.06873  L530.27344 396.96671  L531.25000 396.86829  L532.22656 396.77020  L533.20313 396.66553  L534.17969 396.56494  L535.15625 396.46710  L536.13281 396.36487  L537.10938 396.25687  L538.08594 396.16278  L539.06250 396.06378  L540.03906 395.95886  L541.01563 395.85876  L541.99219 395.75735  L542.96875 395.65527  L543.94531 395.55820  L544.92188 395.45273  L545.89844 395.35172  L546.87500 395.25061  L547.85156 395.14581  L548.82813 395.05237  L549.80469 394.95740  L550.78125 394.84683  L551.75781 394.74997  L552.73438 394.64719  L553.71094 394.54529  L554.68750 394.44318  L555.66406 394.34631  L556.64063 394.24326  L557.61719 394.14508  L558.59375 394.03726  L559.57031 393.94156  L560.54688 393.83899  L561.52344 393.73294  L562.50000 393.63504  L563.47656 393.53546  L564.45313 393.43594  L565.42969 393.33240  L566.40625 393.23175  L567.38281 393.13089  L568.35938 393.02551  L569.33594 392.92450  L570.31250 392.82660  L571.28906 392.72675  L572.26563 392.62302  L573.24219 392.51953  L574.21875 392.42075  L575.19531 392.32135  L576.17188 392.22131  L577.14844 392.11810  L578.12500 392.01550  L579.10156 391.91425  L580.07813 391.81982  L581.05469 391.71634  L582.03125 391.61252  L583.00781 391.51276  L583.98438 391.40933  L584.96094 391.30701  L585.93750 391.20642  L586.91406 391.10541  L587.89063 391.00992  L588.86719 390.90704  L589.84375 390.80231  L590.82031 390.70227  L591.79688 390.60654  L592.77344 390.49167  L593.75000 390.39496  L594.72656 390.29321  L595.70313 390.19678  L596.67969 390.09393  L597.65625 389.99380  L598.63281 389.88922  L599.60938 389.79102  L600.58594 389.68860  L601.56250 389.58716  L602.53906 389.48541  L603.51563 389.38501  L604.49219 389.28162  L605.46875 389.18347  L606.44531 389.07721  L607.42188 388.97647  L608.39844 388.87671  L609.37500 388.77454  L610.35156 388.67239  L611.32813 388.57468  L612.30469 388.47592  L613.28125 388.36853  L614.25781 388.26840  L615.23438 388.16809  L616.21094 388.06219  L617.18750 387.96255  L618.16406 387.85681  L619.14063 387.76447  L620.11719 387.66501  L621.09375 387.54926  L622.07031 387.47455  L623.04688 387.35864  L624.02344 387.25620  L625.00000 387.15057  L625.97656 387.04919  L626.95313 386.94482  L627.92969 386.84924  L628.90625 386.74402  L629.88281 386.64093  L630.85938 386.53891  L631.83594 386.43683  L632.81250 386.33917  L633.78906 386.23471  L634.76563 386.13293  L635.74219 386.03394  L636.71875 385.93274  L637.69531 385.82703  L638.67188 385.72528  L639.64844 385.62274  L640.62500 385.52118  L641.60156 385.42056  L642.57813 385.31628  L643.55469 385.22400  L644.53125 385.11496  L645.50781 385.01660  L646.48438 384.91260  L647.46094 384.81204  L648.43750 384.70685  L649.41406 384.60629  L650.39063 384.50586  L651.36719 384.40424  L652.34375 384.29785  L653.32031 384.19629  L654.29688 384.08450  L655.27344 383.99600  L656.25000 383.88873  L657.22656 383.78735  L658.20313 383.68823  L659.17969 383.58810  L660.15625 383.48700  L661.13281 383.38660  L662.10938 383.27408  L663.08594 383.17371  L664.06250 383.07486  L665.03906 382.97217  L666.01563 382.86902  L666.99219 382.76965  L667.96875 382.66879  L668.94531 382.56671  L669.92188 382.45752  L670.89844 382.35767  L671.87500 382.25830  L672.85156 382.15292  L673.82813 382.05054  L674.80469 381.94849  L675.78125 381.84387  L676.75781 381.74481  L677.73438 381.64169  L678.71094 381.53607  L679.68750 381.43488  L680.66406 381.33267  L681.64063 381.23297  L682.61719 381.12860  L683.59375 381.02570  L684.57031 380.92419  L685.54688 380.81500  L686.52344 380.71445  L687.50000 380.61551  L688.47656 380.50061  L689.45313 380.41321  L690.42969 380.31622  L691.40625 380.21066  L692.38281 380.10284  L693.35938 380.00348  L694.33594 379.88892  L695.31250 379.79611  L696.28906 379.69159  L697.26563 379.58420  L698.24219 379.48224  L699.21875 379.38025  L700.19531 379.27557  L701.17188 379.17371  L702.14844 379.07172  L703.12500 378.96683  L704.10156 378.86325  L705.07813 378.76218  L706.05469 378.66086  L707.03125 378.55338  L708.00781 378.45291  L708.98438 378.34955  L709.96094 378.24161  L710.93750 378.14038  L711.91406 378.03448  L712.89063 377.93900  L713.86719 377.83167  L714.84375 377.72815  L715.82031 377.62842  L716.79688 377.51865  L717.77344 377.41312  L718.75000 377.31372  L719.72656 377.21164  L720.70313 377.10480  L721.67969 376.99402  L722.65625 376.89484  L723.63281 376.79230  L724.60938 376.68811  L725.58594 376.58505  L726.56250 376.48169  L727.53906 376.37671  L728.51563 376.27258  L729.49219 376.16925  L730.46875 376.06525  L731.44531 375.95996  L732.42188 375.85236  L733.39844 375.75214  L734.37500 375.64587  L735.35156 375.53702  L736.32813 375.44110  L737.30469 375.33606  L738.28125 375.22946  L739.25781 375.12793  L740.23438 375.02173  L741.21094 374.91409  L742.18750 374.80545  L743.16406 374.70288  L744.14063 374.59811  L745.11719 374.49548  L746.09375 374.39301  L747.07031 374.28516  L748.04688 374.18115  L749.02344 374.07593  L750.00000 373.97064  L750.97656 373.86664  L751.95313 373.75958  L752.92969 373.65143  L753.90625 373.55103  L754.88281 373.44144  L755.85938 373.33539  L756.83594 373.23047  L757.81250 373.12598  L758.78906 373.02087  L759.76563 372.91168  L760.74219 372.81091  L761.71875 372.70544  L762.69531 372.59546  L763.67188 372.48633  L764.64844 372.38251  L765.62500 372.27765  L766.60156 372.16693  L767.57813 372.06158  L768.55469 371.96002  L769.53125 371.85236  L770.50781 371.74457  L771.48438 371.63867  L772.46094 371.53262  L773.43750 371.42584  L774.41406 371.31781  L775.39063 371.21109  L776.36719 371.10324  L777.34375 370.99658  L778.32031 370.89066  L779.29688 370.77893  L780.27344 370.67276  L781.25000 370.56552  L782.22656 370.45605  L783.20313 370.35162  L784.17969 370.24219  L785.15625 370.13525  L786.13281 370.02789  L787.10938 369.91412  L788.08594 369.80737  L789.06250 369.70050  L790.03906 369.59119  L791.01563 369.47839  L791.99219 369.37476  L792.96875 369.27039  L793.94531 369.15579  L794.92188 369.02753  L795.89844 368.93344  L796.87500 368.83112  L797.85156 368.71735  L798.82813 368.60980  L799.80469 368.49750  L800.78125 368.38623  L801.75781 368.27939  L802.73438 368.16696  L803.71094 368.05823  L804.68750 367.94427  L805.66406 367.83453  L806.64063 367.72495  L807.61719 367.61322  L808.59375 367.50369  L809.57031 367.39249  L810.54688 367.27994  L811.52344 367.16568  L812.50000 367.05292  L813.47656 366.94324  L814.45313 366.82935  L815.42969 366.71628  L816.40625 366.60754  L817.38281 366.49661  L818.35938 366.38013  L819.33594 366.26483  L820.31250 366.15216  L821.28906 366.03967  L822.26563 365.92505  L823.24219 365.80981  L824.21875 365.69431  L825.19531 365.58014  L826.17188 365.46936  L827.14844 365.35165  L828.12500 365.23480  L829.10156 365.11984  L830.07813 365.00415  L831.05469 364.88705  L832.03125 364.76807  L833.00781 364.65436  L833.98438 364.53851  L834.96094 364.41772  L835.93750 364.29834  L836.91406 364.18204  L837.89063 364.06335  L838.86719 363.94586  L839.84375 363.83072  L840.82031 363.70697  L841.79688 363.59595  L842.77344 363.46259  L843.75000 363.34900  L844.72656 363.22565  L845.70313 363.10309  L846.67969 362.98187  L847.65625 362.86090  L848.63281 362.73578  L849.60938 362.61386  L850.58594 362.49118  L851.56250 362.36594  L852.53906 362.24261  L853.51563 362.11899  L854.49219 361.99188  L855.46875 361.86688  L856.44531 361.73972  L857.42188 361.61224  L858.39844 361.48608  L859.37500 361.35706  L860.35156 361.22980  L861.32813 361.10403  L862.30469 360.96356  L863.28125 360.83319  L864.25781 360.70447  L865.23438 360.57391  L866.21094 360.44147  L867.18750 360.30231  L868.16406 360.16577  L869.14063 360.03424  L870.11719 359.89838  L871.09375 359.76035  L872.07031 359.62262  L873.04688 359.48340  L874.02344 359.34470  L875.00000 359.20392  L875.97656 359.06152  L876.95313 358.91757  L877.92969 358.77429  L878.90625 358.62946  L879.88281 358.48267  L880.85938 358.33496  L881.83594 358.18542  L882.81250 358.03546  L883.78906 357.88339  L884.76563 357.72949  L885.74219 357.57681  L886.71875 357.42261  L887.69531 357.26135  L888.67188 357.10361  L889.64844 356.94678  L890.62500 356.77496  L891.60156 356.61365  L892.57813 356.43732  L893.55469 356.28088  L894.53125 356.10742  L895.50781 355.93185  L896.48438 355.75928  L897.46094 355.58075  L898.43750 355.39911  L899.41406 355.21747  L900.39063 355.03119  L901.36719 354.84152  L902.34375 354.65121  L903.32031 354.45554  L904.29688 354.25757  L905.27344 354.05548  L906.25000 353.85052  L907.22656 353.64029  L908.20313 353.42657  L909.17969 353.21100  L910.15625 352.98724  L911.13281 352.76410  L912.10938 352.52954  L913.08594 352.29257  L914.06250 352.05334  L915.03906 351.80237  L916.01563 351.54346  L916.99219 351.28595  L917.96875 351.02350  L918.94531 350.74936  L919.92188 350.46671  L920.89844 350.17792  L921.87500 349.87994  L922.85156 349.57294  L923.82813 349.25732  L924.80469 348.93109  L925.78125 348.59427  L926.75781 348.24670  L927.73438 347.88712  L928.71094 347.51465  L929.68750 347.12897  L930.66406 346.72913  L931.64063 346.31415  L932.61719 345.88324  L933.59375 345.43518  L934.57031 344.96960  L935.54688 344.48419  L936.52344 343.97833  L937.50000 343.45081  L938.47656 342.90051  L939.45313 342.32571  L940.42969 341.72510  L941.40625 241.04698  L942.38281 240.39012  L943.35938 239.70274  L944.33594 238.98329  L945.31250 238.23022  L946.28906 237.44179  L947.26563 236.61664  L948.24219 235.75349  L949.21875 234.85106  L950.19531 233.90810  L951.17188 232.92436  L952.14844 231.89906  L953.12500 230.83238  L954.10156 229.72537  L955.07813 228.57881  L956.05469 227.39407  L957.03125 226.17555  L958.00781 224.92482  L958.98438 223.64587  L959.96094 222.34618  L960.93750 221.03040  L961.91406 219.70366  L962.89063 218.37404  L963.86719 217.04883  L964.84375 215.73486  L965.82031 214.44063  L966.79688 313.22293  L967.77344 311.98785  L968.75000 310.79279  L969.72656 309.64246  L970.70313 308.54187  L971.67969 307.49609  L972.65625 306.50696  L973.63281 305.57751  L974.60938 304.71021  L975.58594 303.90466  L976.56250 303.16193  L977.53906 302.48346  L978.51563 301.86588  L979.49219 301.30948  L980.46875 300.81558  L981.44531 300.37787  L982.42188 299.99756  L983.39844 299.67578  L984.37500 299.40323  L985.35156 299.17902  L986.32813 299.00681  L987.30469 298.87848  L988.28125 298.79398  L989.25781 298.75558  L990.23438 298.74271  L991.21094 298.77557  L992.18750 298.82455  L993.16406 298.92239  L994.14063 299.03513  L995.11719 299.16724  L996.09375 299.32513  L997.07031 299.49402  L998.04688 299.67108  L999.02344 299.86023 " /></g><text x="1000.00000" dx="10" y="199.99995">[-0.00000;0.48325]</text><text x="1000.00000" dx="10" y="300.05011">[-3.13844;3.14159]</text></svg>