<svg xmlns="http://www.w3.org/2000/svg" version="1.1"><g stroke-width="0.6"><path fill="none" stroke="#000000" d="M0 99.87817 L1000.00000 99.87817" /><path fill="none" stroke="#000000" d="M0 300.00000 L1000.00000 300.00000" /><path fill="none" stroke="#000000" d="M500.00000 0 L500.00000 400.00000" /><path fill="none" stroke="#000000" d="M0 99.87817  L0.00000 92.31551 L3.90625 80.91824 L7.81250 67.57001 L11.71875 54.37157 L15.62500 43.58759 L19.53125 37.31966 L23.43750 37.19443 L27.34375 44.10968 L31.25000 58.07466 L35.15625 78.16756 L39.06250 102.61790 L42.96875 129.00439 L46.87500 154.54350 L50.78125 176.43126 L54.68750 192.19371 L58.59375 200.00000 L62.50000 198.89665 L66.40625 188.93190 L70.31250 171.15353 L74.21875 147.48053 L78.12500 120.46483 L82.03125 92.97498 L85.93750 67.84276 L89.84375 47.51919 L93.75000 33.78489 L97.65625 27.55156 L101.56250 28.78014 L105.46875 36.52460 L109.37500 49.09386 L113.28125 64.30823 L117.18750 79.81491 L121.09375 93.41889 L125.00000 103.38363 L128.90625 108.66135 L132.81250 109.02139 L136.71875 105.06026 L140.62500 98.09313 L144.53125 89.94169 L148.43750 82.65022 L152.34375 78.16759 L156.25000 78.04231 L160.15625 83.17233 L164.06250 93.64484 L167.96875 108.69068 L171.87500 126.75991 L175.78125 145.71028 L179.68750 163.08304 L183.59375 176.43130 L187.50000 183.65417 L191.40625 183.29414 L195.31250 174.75462 L199.21875 158.40877 L203.12500 135.58330 L207.03125 108.41787 L210.93750 79.61694 L214.84375 52.12704 L218.75000 28.78011 L222.65625 11.94901 L226.56250 3.26180 L230.46875 3.40950 L234.37500 12.07432 L238.28125 27.98510 L242.18750 49.09396 L246.09375 72.84779 L250.00000 96.52075 L253.90625 117.56094 L257.81250 133.90672 L261.71875 144.23152 L265.62500 148.08400 L269.53125 145.90816 L273.43750 138.94098 L277.34375 129.00438 L281.25000 118.22032 L285.15625 108.69063 L289.06250 102.18435 L292.96875 99.87817 L296.87500 102.18436 L300.78125 108.69064 L304.68750 118.22032 L308.59375 129.00450 L312.50000 138.94106 L316.40625 145.90813 L320.31250 148.08400 L324.21875 144.23148 L328.12500 133.90674 L332.03125 117.56085 L335.93750 96.52067 L339.84375 72.84774 L343.75000 49.09388 L347.65625 27.98496 L351.56250 12.07423 L355.46875 3.40950 L359.37500 3.26182 L363.28125 11.94904 L367.18750 28.78025 L371.09375 52.12719 L375.00000 79.61703 L378.90625 108.41798 L382.81250 135.58336 L386.71875 158.40889 L390.62500 174.75462 L394.53125 183.29416 L398.43750 183.65419 L402.34375 176.43129 L406.25000 163.08293 L410.15625 145.71014 L414.06250 126.75987 L417.96875 108.69063 L421.87500 93.64478 L425.78125 83.17231 L429.68750 78.04230 L433.59375 78.16759 L437.50000 82.65021 L441.40625 89.94167 L445.31250 98.09324 L449.21875 105.06031 L453.12500 109.02141 L457.03125 108.66134 L460.93750 103.38361 L464.84375 93.41879 L468.75000 79.81480 L472.65625 64.30815 L476.56250 49.09383 L480.46875 36.52465 L484.37500 28.78009 L488.28125 27.55153 L492.18750 33.78496 L496.09375 47.51923 L500.00000 67.84280 L503.90625 92.97521 L507.81250 120.46497 L511.71875 147.48065 L515.62500 171.15356 L519.53125 188.93190 L523.43750 198.89670 L527.34375 199.99997 L531.25000 192.19366 L535.15625 176.43120 L539.06250 154.54350 L542.96875 129.00420 L546.87500 102.61770 L550.78125 78.16747 L554.68750 58.07457 L558.59375 44.10968 L562.50000 37.19444 L566.40625 37.31968 L570.31250 43.58765 L574.21875 54.37160 L578.12500 67.57003 L582.03125 80.91836 L585.93750 92.31559 L589.84375 100.12183 L593.75000 103.38364 L597.65625 101.95844 L601.56250 96.52061 L605.46875 88.45008 L609.37500 79.61696 L613.28125 72.09476 L617.18750 67.84273 L621.09375 68.39948 L625.00000 74.63283 L628.90625 86.58188 L632.81250 103.41304 L636.71875 123.49815 L640.62500 144.60687 L644.53125 164.18634 L648.43750 179.69299 L652.34375 188.93202 L656.25000 190.35719 L660.15625 183.29405 L664.06250 168.05157 L667.96875 145.90810 L671.87500 118.97318 L675.78125 89.94168 L679.68750 61.77002 L683.59375 37.31960 L687.50000 19.01201 L691.40625 8.53952 L695.31250 6.67135 L699.21875 13.17774 L703.12500 26.88187 L707.03125 45.83219 L710.93750 67.57011 L714.84375 89.45781 L718.75000 109.02148 L722.65625 124.26392 L726.56250 133.90677 L730.46875 137.52840 L734.37500 135.58330 L738.28125 129.29797 L742.18750 120.46468 L746.09375 111.15739 L750.00000 103.41291 L753.90625 98.92252 L757.81250 98.77486 L761.71875 103.28769 L765.62500 111.95242 L769.53125 123.49830 L773.43750 136.06755 L777.34375 147.48073 L781.25000 155.55121 L785.15625 158.40877 L789.06250 154.78694 L792.96875 144.23152 L796.87500 127.20367 L800.78125 105.06025 L804.68750 79.91077 L808.59375 54.37122 L812.50000 31.24664 L816.40625 13.17748 L820.31250 2.30611 L824.21875 0.00000 L828.12500 6.67136 L832.03125 21.71729 L835.93750 43.58767 L839.84375 69.97410 L843.75000 98.09322 L847.65625 125.02827 L851.56250 148.08418 L855.46875 165.11176 L859.37500 174.75468 L863.28125 176.59116 L867.18750 171.15346 L871.09375 159.82121 L875.00000 144.60687 L878.90625 127.86327 L882.81250 111.95246 L886.71875 98.92240 L890.62500 90.23528 L894.53125 86.58182 L898.43750 87.81048 L902.34375 92.97511 L906.25000 100.49734 L910.15625 108.41788 L914.06250 114.70314 L917.96875 117.56091 L921.87500 115.72422 L925.78125 108.66125 L929.68750 96.68053 L933.59375 80.91801 L937.50000 63.20467 L941.40625 45.83189 L945.31250 31.24684 L949.21875 21.71715 L953.12500 19.01202 L957.03125 24.14215 L960.93750 37.19451 L964.84375 57.28758 L968.75000 82.65064 L972.65625 110.82233 L976.56250 138.94125 L980.46875 164.09070 L984.37500 183.65431 L988.28125 195.63489 L992.18750 198.89665 L996.09375 193.29704" /><path fill="none" stroke="#000000" d="M0 300.00000  L0.00000 300.00000  L3.90625 300.00000  L7.81250 300.00000  L11.71875 300.00000  L15.62500 300.00000  L19.53125 300.00000  L23.43750 300.00000  L27.34375 300.00000  L31.25000 300.00000  L35.15625 300.00000  L39.06250 300.00000  L42.96875 300.00000  L46.87500 300.00000  L50.78125 300.00000  L54.68750 300.00000  L58.59375 300.00000  L62.50000 300.00000  L66.40625 300.00000  L70.31250 300.00000  L74.21875 300.00000  L78.12500 300.00000  L82.03125 300.00000  L85.93750 300.00000  L89.84375 300.00000  L93.75000 300.00000  L97.65625 300.00000  L101.56250 300.00000  L105.46875 300.00000  L109.37500 300.00000  L113.28125 300.00000  L117.18750 300.00000  L121.09375 300.00000  L125.00000 300.00000  L128.90625 300.00000  L132.81250 300.00000  L136.71875 300.00000  L140.62500 300.00000  L144.53125 300.00000  L148.43750 300.00000  L152.34375 300.00000  L156.25000 300.00000  L160.15625 300.00000  L164.06250 300.00000  L167.96875 300.00000  L171.87500 300.00000  L175.78125 300.00000  L179.68750 300.00000  L183.59375 300.00000  L187.50000 300.00000  L191.40625 300.00000  L195.31250 300.00000  L199.21875 300.00000  L203.12500 300.00000  L207.03125 300.00000  L210.93750 300.00000  L214.84375 300.00000  L218.75000 300.00000  L222.65625 300.00000  L226.56250 300.00000  L230.46875 300.00000  L234.37500 300.00000  L238.28125 300.00000  L242.18750 300.00000  L246.09375 300.00000  L250.00000 300.00000  L253.90625 300.00000  L257.81250 300.00000  L261.71875 300.00000  L265.62500 300.00000  L269.53125 300.00000  L273.43750 300.00000  L277.34375 300.00000  L281.25000 300.00000  L285.15625 300.00000  L289.06250 300.00000  L292.96875 300.00000  L296.87500 300.00000  L300.78125 300.00000  L304.68750 300.00000  L308.59375 300.00000  L312.50000 300.00000  L316.40625 300.00000  L320.31250 300.00000  L324.21875 300.00000  L328.12500 300.00000  L332.03125 300.00000  L335.93750 300.00000  L339.84375 300.00000  L343.75000 300.00000  L347.65625 300.00000  L351.56250 300.00000  L355.46875 300.00000  L359.37500 300.00000  L363.28125 300.00000  L367.18750 300.00000  L371.09375 300.00000  L375.00000 300.00000  L378.90625 300.00000  L382.81250 300.00000  L386.71875 300.00000  L390.62500 300.00000  L394.53125 300.00000  L398.43750 300.00000  L402.34375 300.00000  L406.25000 300.00000  L410.15625 300.00000  L414.06250 300.00000  L417.96875 300.00000  L421.87500 300.00000  L425.78125 300.00000  L429.68750 300.00000  L433.59375 300.00000  L437.50000 300.00000  L441.40625 300.00000  L445.31250 300.00000  L449.21875 300.00000  L453.12500 300.00000  L457.03125 300.00000  L460.93750 300.00000  L464.84375 300.00000  L468.75000 300.00000  L472.65625 300.00000  L476.56250 300.00000  L480.46875 300.00000  L484.37500 300.00000  L488.28125 300.00000  L492.18750 300.00000  L496.09375 300.00000  L500.00000 300.00000  L503.90625 300.00000  L507.81250 300.00000  L511.71875 300.00000  L515.62500 300.00000  L519.53125 300.00000  L523.43750 300.00000  L527.34375 300.00000  L531.25000 300.00000  L535.15625 300.00000  L539.06250 300.00000  L542.96875 300.00000  L546.87500 300.00000  L550.78125 300.00000  L554.68750 300.00000  L558.59375 300.00000  L562.50000 300.00000  L566.40625 300.00000  L570.31250 300.00000  L574.21875 300.00000  L578.12500 300.00000  L582.03125 300.00000  L585.93750 300.00000  L589.84375 300.00000  L593.75000 300.00000  L597.65625 300.00000  L601.56250 300.00000  L605.46875 300.00000  L609.37500 300.00000  L613.28125 300.00000  L617.18750 300.00000  L621.09375 300.00000  L625.00000 300.00000  L628.90625 300.00000  L632.81250 300.00000  L636.71875 300.00000  L640.62500 300.00000  L644.53125 300.00000  L648.43750 300.00000  L652.34375 300.00000  L656.25000 300.00000  L660.15625 300.00000  L664.06250 300.00000  L667.96875 300.00000  L671.87500 300.00000  L675.78125 300.00000  L679.68750 300.00000  L683.59375 300.00000  L687.50000 300.00000  L691.40625 300.00000  L695.31250 300.00000  L699.21875 300.00000  L703.12500 300.00000  L707.03125 300.00000  L710.93750 300.00000  L714.84375 300.00000  L718.75000 300.00000  L722.65625 300.00000  L726.56250 300.00000  L730.46875 300.00000  L734.37500 300.00000  L738.28125 300.00000  L742.18750 300.00000  L746.09375 300.00000  L750.00000 300.00000  L753.90625 300.00000  L757.81250 300.00000  L761.71875 300.00000  L765.62500 300.00000  L769.53125 300.00000  L773.43750 300.00000  L777.34375 300.00000  L781.25000 300.00000  L785.15625 300.00000  L789.06250 300.00000  L792.96875 300.00000  L796.87500 300.00000  L800.78125 300.00000  L804.68750 300.00000  L808.59375 300.00000  L812.50000 300.00000  L816.40625 300.00000  L820.31250 300.00000  L824.21875 300.00000  L828.12500 300.00000  L832.03125 300.00000  L835.93750 300.00000  L839.84375 300.00000  L843.75000 300.00000  L847.65625 300.00000  L851.56250 300.00000  L855.46875 300.00000  L859.37500 300.00000  L863.28125 300.00000  L867.18750 300.00000  L871.09375 300.00000  L875.00000 300.00000  L878.90625 300.00000  L882.81250 300.00000  L886.71875 300.00000  L890.62500 300.00000  L894.53125 300.00000  L898.43750 300.00000  L902.34375 300.00000  L906.25000 300.00000  L910.15625 300.00000  L914.06250 300.00000  L917.96875 300.00000  L921.87500 300.00000  L925.78125 300.00000  L929.68750 300.00000  L933.59375 300.00000  L937.50000 300.00000  L941.40625 300.00000  L945.31250 300.00000  L949.21875 300.00000  L953.12500 300.00000  L957.03125 300.00000  L960.93750 300.00000  L964.84375 300.00000  L968.75000 300.00000  L972.65625 300.00000  L976.56250 300.00000  L980.46875 300.00000  L984.37500 300.00000  L988.28125 300.00000  L992.18750 300.00000  L996.09375 300.00000 " /></g><text x="1000.00000" dx="10" y="99.87817">[-1.98297;1.97815]</text><text x="1000.00000" dx="10" y="300.00000">[-0.00000;0.00000]</text></svg>