<svg xmlns="http://www.w3.org/2000/svg" version="1.1"><g stroke-width="0.6"><path fill="none" stroke="#000000" d="M0 100.00000 L1000.00000 100.00000" /><path fill="none" stroke="#000000" d="M0 300.00000 L1000.00000 300.00000" /><path fill="none" stroke="#000000" d="M500.00000 0 L500.00000 400.00000" /><path fill="none" stroke="#000000" d="M0 100.00000  L0.00000 0.00000 L0.97656 0.19733 L1.95313 0.78853 L2.92969 1.77128 L3.90625 3.14168 L4.88281 4.89435 L5.85938 7.02235 L6.83594 9.51729 L7.81250 12.36934 L8.78906 15.56721 L9.76563 19.09830 L10.74219 22.94868 L11.71875 27.10314 L12.69531 31.54529 L13.67188 36.25760 L14.64844 41.22147 L15.62500 46.41732 L16.60156 51.82464 L17.57813 57.42207 L18.55469 63.18755 L19.53125 69.09830 L20.50781 75.13102 L21.48438 81.26188 L22.46094 87.46667 L23.43750 93.72095 L24.41406 100.00001 L25.39063 106.27906 L26.36719 112.53333 L27.34375 118.73813 L28.32031 124.86900 L29.29688 130.90170 L30.27344 136.81247 L31.25000 142.57794 L32.22656 148.17538 L33.20313 153.58269 L34.17969 158.77852 L35.15625 163.74240 L36.13281 168.45471 L37.10938 172.89687 L38.08594 177.05133 L39.06250 180.90170 L40.03906 184.43280 L41.01563 187.63068 L41.99219 190.48271 L42.96875 192.97766 L43.94531 195.10567 L44.92188 196.85832 L45.89844 198.22873 L46.87500 199.21147 L47.85156 199.80267 L48.82813 200.00000 L49.80469 199.80267 L50.78125 199.21147 L51.75781 198.22873 L52.73438 196.85831 L53.71094 195.10565 L54.68750 192.97765 L55.66406 190.48271 L56.64063 187.63066 L57.61719 184.43279 L58.59375 180.90169 L59.57031 177.05132 L60.54688 172.89685 L61.52344 168.45470 L62.50000 163.74239 L63.47656 158.77850 L64.45313 153.58266 L65.42969 148.17534 L66.40625 142.57790 L67.38281 136.81242 L68.35938 130.90170 L69.33594 124.86900 L70.31250 118.73814 L71.28906 112.53333 L72.26563 106.27905 L73.24219 100.00000 L74.21875 93.72095 L75.19531 87.46667 L76.17188 81.26186 L77.14844 75.13100 L78.12500 69.09829 L79.10156 63.18753 L80.07813 57.42205 L81.05469 51.82462 L82.03125 46.41730 L83.00781 41.22145 L83.98438 36.25758 L84.96094 31.54526 L85.93750 27.10312 L86.91406 22.94865 L87.89063 19.09828 L88.86719 15.56721 L89.84375 12.36934 L90.82031 9.51729 L91.79688 7.02235 L92.77344 4.89435 L93.75000 3.14168 L94.72656 1.77127 L95.70313 0.78853 L96.67969 0.19733 L97.65625 0.00000 L98.63281 0.19733 L99.60938 0.78853 L100.58594 1.77128 L101.56250 3.14169 L102.53906 4.89436 L103.51563 7.02236 L104.49219 9.51731 L105.46875 12.36935 L106.44531 15.56723 L107.42188 19.09830 L108.39844 22.94868 L109.37500 27.10314 L110.35156 31.54529 L111.32813 36.25761 L112.30469 41.22148 L113.28125 46.41733 L114.25781 51.82465 L115.23438 57.42208 L116.21094 63.18756 L117.18750 69.09832 L118.16406 75.13103 L119.14063 81.26189 L120.11719 87.46671 L121.09375 93.72098 L122.07031 100.00003 L123.04688 106.27909 L124.02344 112.53336 L125.00000 118.73817 L125.97656 124.86903 L126.95313 130.90175 L127.92969 136.81250 L128.90625 142.57797 L129.88281 148.17542 L130.85938 153.58273 L131.83594 158.77856 L132.81250 163.74245 L133.78906 168.45476 L134.76563 172.89691 L135.74219 177.05138 L136.71875 180.90169 L137.69531 184.43279 L138.67188 187.63066 L139.64844 190.48270 L140.62500 192.97765 L141.60156 195.10565 L142.57813 196.85832 L143.55469 198.22873 L144.53125 199.21147 L145.50781 199.80267 L146.48438 200.00000 L147.46094 199.80267 L148.43750 199.21147 L149.41406 198.22873 L150.39063 196.85831 L151.36719 195.10565 L152.34375 192.97765 L153.32031 190.48270 L154.29688 187.63066 L155.27344 184.43279 L156.25000 180.90169 L157.22656 177.05130 L158.20313 172.89684 L159.17969 168.45468 L160.15625 163.74237 L161.13281 158.77849 L162.10938 153.58264 L163.08594 148.17532 L164.06250 142.57788 L165.03906 136.81241 L166.01563 130.90166 L166.99219 124.86893 L167.96875 118.73808 L168.94531 112.53326 L169.92188 106.27899 L170.89844 99.99993 L171.87500 93.72088 L172.85156 87.46661 L173.82813 81.26180 L174.80469 75.13094 L175.78125 69.09823 L176.75781 63.18756 L177.73438 57.42208 L178.71094 51.82464 L179.68750 46.41732 L180.66406 41.22147 L181.64063 36.25760 L182.61719 31.54529 L183.59375 27.10313 L184.57031 22.94867 L185.54688 19.09829 L186.52344 15.56720 L187.50000 12.36932 L188.47656 9.51729 L189.45313 7.02235 L190.42969 4.89434 L191.40625 3.14168 L192.38281 1.77127 L193.35938 0.78853 L194.33594 0.19733 L195.31250 0.00000 L196.28906 0.19733 L197.26563 0.78853 L198.24219 1.77128 L199.21875 3.14170 L200.19531 4.89436 L201.17188 7.02237 L202.14844 9.51732 L203.12500 12.36936 L204.10156 15.56724 L205.07813 19.09834 L206.05469 22.94872 L207.03125 27.10318 L208.00781 31.54534 L208.98438 36.25766 L209.96094 41.22153 L210.93750 46.41739 L211.91406 51.82470 L212.89063 57.42214 L213.86719 63.18762 L214.84375 69.09829 L215.82031 75.13100 L216.79688 81.26186 L217.77344 87.46667 L218.75000 93.72095 L219.72656 100.00000 L220.70313 106.27906 L221.67969 112.53333 L222.65625 118.73814 L223.63281 124.86900 L224.60938 130.90172 L225.58594 136.81247 L226.56250 142.57794 L227.53906 148.17538 L228.51563 153.58270 L229.49219 158.77855 L230.46875 163.74242 L231.44531 168.45474 L232.42188 172.89688 L233.39844 177.05135 L234.37500 180.90172 L235.35156 184.43282 L236.32813 187.63069 L237.30469 190.48273 L238.28125 192.97766 L239.25781 195.10567 L240.23438 196.85832 L241.21094 198.22873 L242.18750 199.21147 L243.16406 199.80267 L244.14063 200.00000 L245.11719 199.80267 L246.09375 199.21146 L247.07031 198.22871 L248.04688 196.85829 L249.02344 195.10562 L250.00000 192.97762 L250.97656 190.48267 L251.95313 187.63063 L252.92969 184.43274 L253.90625 180.90164 L254.88281 177.05127 L255.85938 172.89679 L256.83594 168.45464 L257.81250 163.74232 L258.78906 158.77844 L259.76563 153.58260 L260.74219 148.17526 L261.71875 142.57782 L262.69531 136.81235 L263.67188 130.90158 L264.64844 124.86887 L265.62500 118.73801 L266.60156 112.53320 L267.57813 106.27892 L268.55469 99.99987 L269.53125 93.72082 L270.50781 87.46654 L271.48438 81.26173 L272.46094 75.13087 L273.43750 69.09834 L274.41406 63.18758 L275.39063 57.42211 L276.36719 51.82467 L277.34375 46.41735 L278.32031 41.22150 L279.29688 36.25763 L280.27344 31.54531 L281.25000 27.10316 L282.22656 22.94869 L283.20313 19.09831 L284.17969 15.56722 L285.15625 12.36934 L286.13281 9.51730 L287.10938 7.02236 L288.08594 4.89435 L289.06250 3.14168 L290.03906 1.77128 L291.01563 0.78853 L291.99219 0.19733 L292.96875 0.00000 L293.94531 0.19733 L294.92188 0.78853 L295.89844 1.77128 L296.87500 3.14169 L297.85156 4.89435 L298.82813 7.02236 L299.80469 9.51731 L300.78125 12.36935 L301.75781 15.56723 L302.73438 19.09832 L303.71094 22.94869 L304.68750 27.10316 L305.66406 31.54532 L306.64063 36.25763 L307.61719 41.22151 L308.59375 46.41736 L309.57031 51.82467 L310.54688 57.42212 L311.52344 63.18759 L312.50000 69.09835 L313.47656 75.13107 L314.45313 81.26192 L315.42969 87.46674 L316.40625 93.72102 L317.38281 100.00007 L318.35938 106.27912 L319.33594 112.53339 L320.31250 118.73820 L321.28906 124.86906 L322.26563 130.90178 L323.24219 136.81253 L324.21875 142.57800 L325.19531 148.17545 L326.17188 153.58276 L327.14844 158.77859 L328.12500 163.74248 L329.10156 168.45479 L330.07813 172.89693 L331.05469 177.05139 L332.03125 180.90176 L333.00781 184.43285 L333.98438 187.63072 L334.96094 190.48276 L335.93750 192.97769 L336.91406 195.10568 L337.89063 196.85835 L338.86719 198.22874 L339.84375 199.21149 L340.82031 199.80267 L341.79688 200.00000 L342.77344 199.80267 L343.75000 199.21146 L344.72656 198.22870 L345.70313 196.85828 L346.67969 195.10561 L347.65625 192.97760 L348.63281 190.48264 L349.60938 187.63060 L350.58594 184.43271 L351.56250 180.90161 L352.53906 177.05135 L353.51563 172.89688 L354.49219 168.45473 L355.46875 163.74242 L356.44531 158.77855 L357.42188 153.58269 L358.39844 148.17538 L359.37500 142.57794 L360.35156 136.81247 L361.32813 130.90170 L362.30469 124.86900 L363.28125 118.73814 L364.25781 112.53333 L365.23438 106.27905 L366.21094 99.99999 L367.18750 93.72094 L368.16406 87.46667 L369.14063 81.26186 L370.11719 75.13100 L371.09375 69.09828 L372.07031 63.18752 L373.04688 57.42205 L374.02344 51.82461 L375.00000 46.41730 L375.97656 41.22145 L376.95313 36.25758 L377.92969 31.54526 L378.90625 27.10311 L379.88281 22.94865 L380.85938 19.09828 L381.83594 15.56718 L382.81250 12.36931 L383.78906 9.51727 L384.76563 7.02233 L385.74219 4.89433 L386.71875 3.14167 L387.69531 1.77127 L388.67188 0.78852 L389.64844 0.19732 L390.62500 0.00000 L391.60156 0.19733 L392.57813 0.78854 L393.55469 1.77129 L394.53125 3.14170 L395.50781 4.89438 L396.48438 7.02238 L397.46094 9.51733 L398.43750 12.36938 L399.41406 15.56726 L400.39063 19.09836 L401.36719 22.94874 L402.34375 27.10320 L403.32031 31.54536 L404.29688 36.25768 L405.27344 41.22157 L406.25000 46.41742 L407.22656 51.82473 L408.20313 57.42218 L409.17969 63.18766 L410.15625 69.09842 L411.13281 75.13113 L412.10938 81.26199 L413.08594 87.46680 L414.06250 93.72108 L415.03906 100.00014 L416.01563 106.27919 L416.99219 112.53346 L417.96875 118.73827 L418.94531 124.86913 L419.92188 130.90184 L420.89844 136.81259 L421.87500 142.57806 L422.85156 148.17551 L423.82813 153.58281 L424.80469 158.77866 L425.78125 163.74252 L426.75781 168.45483 L427.73438 172.89697 L428.71094 177.05144 L429.68750 180.90169 L430.66406 184.43279 L431.64063 187.63066 L432.61719 190.48270 L433.59375 192.97765 L434.57031 195.10565 L435.54688 196.85832 L436.52344 198.22873 L437.50000 199.21147 L438.47656 199.80267 L439.45313 200.00000 L440.42969 199.80267 L441.40625 199.21147 L442.38281 198.22873 L443.35938 196.85831 L444.33594 195.10565 L445.31250 192.97765 L446.28906 190.48270 L447.26563 187.63065 L448.24219 184.43277 L449.21875 180.90169 L450.19531 177.05130 L451.17188 172.89684 L452.14844 168.45468 L453.12500 163.74237 L454.10156 158.77849 L455.07813 153.58264 L456.05469 148.17532 L457.03125 142.57788 L458.00781 136.81241 L458.98438 130.90164 L459.96094 124.86893 L460.93750 118.73807 L461.91406 112.53326 L462.89063 106.27898 L463.86719 99.99993 L464.84375 93.72087 L465.82031 87.46660 L466.79688 81.26180 L467.77344 75.13094 L468.75000 69.09822 L469.72656 63.18747 L470.70313 57.42199 L471.67969 51.82455 L472.65625 46.41724 L473.63281 41.22140 L474.60938 36.25752 L475.58594 31.54522 L476.56250 27.10307 L477.53906 22.94860 L478.51563 19.09823 L479.49219 15.56715 L480.46875 12.36928 L481.44531 9.51725 L482.42188 7.02231 L483.39844 4.89431 L484.37500 3.14165 L485.35156 1.77125 L486.32813 0.78852 L487.30469 0.19732 L488.28125 0.00000 L489.25781 0.19733 L490.23438 0.78855 L491.21094 1.77130 L492.18750 3.14172 L493.16406 4.89439 L494.14063 7.02240 L495.11719 9.51736 L496.09375 12.36941 L497.07031 15.56729 L498.04688 19.09839 L499.02344 22.94878 L500.00000 27.10325 L500.97656 31.54541 L501.95313 36.25773 L502.92969 41.22161 L503.90625 46.41747 L504.88281 51.82479 L505.85938 57.42224 L506.83594 63.18771 L507.81250 69.09848 L508.78906 75.13120 L509.76563 81.26205 L510.74219 87.46687 L511.71875 93.72115 L512.69531 100.00020 L513.67188 106.27925 L514.64844 112.53352 L515.62500 118.73833 L516.60156 124.86919 L517.57813 130.90190 L518.55469 136.81265 L519.53125 142.57813 L520.50781 148.17555 L521.48438 153.58287 L522.46094 158.77870 L523.43750 163.74257 L524.41406 168.45488 L525.39063 172.89702 L526.36719 177.05147 L527.34375 180.90184 L528.32031 184.43292 L529.29688 187.63078 L530.27344 190.48280 L531.25000 192.97774 L532.22656 195.10573 L533.20313 196.85838 L534.17969 198.22878 L535.15625 199.21150 L536.13281 199.80269 L537.10938 200.00000 L538.08594 199.80266 L539.06250 199.21144 L540.03906 198.22867 L541.01563 196.85825 L541.99219 195.10556 L542.96875 192.97755 L543.94531 190.48259 L544.92188 187.63054 L545.89844 184.43263 L546.87500 180.90175 L547.85156 177.05138 L548.82813 172.89693 L549.80469 168.45477 L550.78125 163.74246 L551.75781 158.77859 L552.73438 153.58275 L553.71094 148.17543 L554.68750 142.57799 L555.66406 136.81252 L556.64063 130.90176 L557.61719 124.86905 L558.59375 118.73819 L559.57031 112.53339 L560.54688 106.27911 L561.52344 100.00005 L562.50000 93.72100 L563.47656 87.46673 L564.45313 81.26192 L565.42969 75.13106 L566.40625 69.09834 L567.38281 63.18758 L568.35938 57.42210 L569.33594 51.82466 L570.31250 46.41735 L571.28906 41.22150 L572.26563 36.25762 L573.24219 31.54531 L574.21875 27.10315 L575.19531 22.94869 L576.17188 19.09831 L577.14844 15.56721 L578.12500 12.36934 L579.10156 9.51730 L580.07813 7.02235 L581.05469 4.89435 L582.03125 3.14168 L583.00781 1.77128 L583.98438 0.78853 L584.96094 0.19733 L585.93750 0.00000 L586.91406 0.19733 L587.89063 0.78853 L588.86719 1.77128 L589.84375 3.14169 L590.82031 4.89436 L591.79688 7.02236 L592.77344 9.51731 L593.75000 12.36935 L594.72656 15.56723 L595.70313 19.09832 L596.67969 22.94870 L597.65625 27.10317 L598.63281 31.54532 L599.60938 36.25764 L600.58594 41.22151 L601.56250 46.41736 L602.53906 51.82468 L603.51563 57.42212 L604.49219 63.18760 L605.46875 69.09836 L606.44531 75.13107 L607.42188 81.26193 L608.39844 87.46674 L609.37500 93.72102 L610.35156 100.00008 L611.32813 106.27913 L612.30469 112.53340 L613.28125 118.73821 L614.25781 124.86907 L615.23438 130.90178 L616.21094 136.81253 L617.18750 142.57802 L618.16406 148.17545 L619.14063 153.58276 L620.11719 158.77861 L621.09375 163.74248 L622.07031 168.45479 L623.04688 172.89693 L624.02344 177.05139 L625.00000 180.90176 L625.97656 184.43285 L626.95313 187.63072 L627.92969 190.48276 L628.90625 192.97769 L629.88281 195.10568 L630.85938 196.85835 L631.83594 198.22874 L632.81250 199.21149 L633.78906 199.80267 L634.76563 200.00000 L635.74219 199.80267 L636.71875 199.21146 L637.69531 198.22870 L638.67188 196.85828 L639.64844 195.10561 L640.62500 192.97758 L641.60156 190.48264 L642.57813 187.63060 L643.55469 184.43271 L644.53125 180.90161 L645.50781 177.05122 L646.48438 172.89674 L647.46094 168.45459 L648.43750 163.74226 L649.41406 158.77838 L650.39063 153.58253 L651.36719 148.17522 L652.34375 142.57776 L653.32031 136.81229 L654.29688 130.90152 L655.27344 124.86880 L656.25000 118.73794 L657.22656 112.53313 L658.20313 106.27885 L659.17969 99.99980 L660.15625 93.72074 L661.13281 87.46647 L662.10938 81.26167 L663.08594 75.13081 L664.06250 69.09810 L665.03906 63.18734 L666.01563 57.42187 L666.99219 51.82444 L667.96875 46.41713 L668.94531 41.22129 L669.92188 36.25742 L670.89844 31.54512 L671.87500 27.10298 L672.85156 22.94853 L673.82813 19.09816 L674.80469 15.56708 L675.78125 12.36922 L676.75781 9.51719 L677.73438 7.02226 L678.71094 4.89427 L679.68750 3.14162 L680.66406 1.77123 L681.64063 0.78850 L682.61719 0.19731 L683.59375 0.00000 L684.57031 0.19735 L685.54688 0.78856 L686.52344 1.77132 L687.50000 3.14175 L688.47656 4.89444 L689.45313 7.02245 L690.42969 9.51741 L691.40625 12.36947 L692.38281 15.56736 L693.35938 19.09847 L694.33594 22.94886 L695.31250 27.10334 L696.28906 31.54551 L697.26563 36.25783 L698.24219 41.22172 L699.21875 46.41758 L700.19531 51.82491 L701.17188 57.42235 L702.14844 63.18784 L703.12500 69.09860 L704.10156 75.13095 L705.07813 81.26181 L706.05469 87.46662 L707.03125 93.72089 L708.00781 99.99995 L708.98438 106.27900 L709.96094 112.53328 L710.93750 118.73809 L711.91406 124.86895 L712.89063 130.90166 L713.86719 136.81242 L714.84375 142.57790 L715.82031 148.17534 L716.79688 153.58266 L717.77344 158.77850 L718.75000 163.74239 L719.72656 168.45470 L720.70313 172.89685 L721.67969 177.05132 L722.65625 180.90169 L723.63281 184.43279 L724.60938 187.63066 L725.58594 190.48270 L726.56250 192.97765 L727.53906 195.10565 L728.51563 196.85832 L729.49219 198.22873 L730.46875 199.21147 L731.44531 199.80267 L732.42188 200.00000 L733.39844 199.80267 L734.37500 199.21147 L735.35156 198.22873 L736.32813 196.85831 L737.30469 195.10564 L738.28125 192.97763 L739.25781 190.48270 L740.23438 187.63065 L741.21094 184.43277 L742.18750 180.90167 L743.16406 177.05130 L744.14063 172.89684 L745.11719 168.45468 L746.09375 163.74237 L747.07031 158.77849 L748.04688 153.58263 L749.02344 148.17532 L750.00000 142.57788 L750.97656 136.81239 L751.95313 130.90164 L752.92969 124.86893 L753.90625 118.73807 L754.88281 112.53326 L755.85938 106.27898 L756.83594 99.99992 L757.81250 93.72087 L758.78906 87.46660 L759.76563 81.26179 L760.74219 75.13093 L761.71875 69.09821 L762.69531 63.18746 L763.67188 57.42199 L764.64844 51.82455 L765.62500 46.41724 L766.60156 41.22139 L767.57813 36.25752 L768.55469 31.54521 L769.53125 27.10306 L770.50781 22.94860 L771.48438 19.09823 L772.46094 15.56715 L773.43750 12.36928 L774.41406 9.51724 L775.39063 7.02230 L776.36719 4.89431 L777.34375 3.14165 L778.32031 1.77125 L779.29688 0.78852 L780.27344 0.19732 L781.25000 0.00000 L782.22656 0.19734 L783.20313 0.78855 L784.17969 1.77130 L785.15625 3.14172 L786.13281 4.89439 L787.10938 7.02241 L788.08594 9.51736 L789.06250 12.36941 L790.03906 15.56730 L791.01563 19.09839 L791.99219 22.94878 L792.96875 27.10325 L793.94531 31.54542 L794.92188 36.25774 L795.89844 41.22162 L796.87500 46.41747 L797.85156 51.82479 L798.82813 57.42224 L799.80469 63.18772 L800.78125 69.09848 L801.75781 75.13120 L802.73438 81.26206 L803.71094 87.46687 L804.68750 93.72115 L805.66406 100.00021 L806.64063 106.27926 L807.61719 112.53353 L808.59375 118.73834 L809.57031 124.86919 L810.54688 130.90190 L811.52344 136.81265 L812.50000 142.57813 L813.47656 148.17557 L814.45313 153.58287 L815.42969 158.77870 L816.40625 163.74258 L817.38281 168.45488 L818.35938 172.89702 L819.33594 177.05148 L820.31250 180.90184 L821.28906 184.43292 L822.26563 187.63078 L823.24219 190.48282 L824.21875 192.97774 L825.19531 195.10573 L826.17188 196.85838 L827.14844 198.22878 L828.12500 199.21150 L829.10156 199.80269 L830.07813 200.00000 L831.05469 199.80266 L832.03125 199.21144 L833.00781 198.22867 L833.98438 196.85825 L834.96094 195.10556 L835.93750 192.97754 L836.91406 190.48257 L837.89063 187.63052 L838.86719 184.43263 L839.84375 180.90152 L840.82031 177.05113 L841.79688 172.89665 L842.77344 168.45450 L843.75000 163.74217 L844.72656 158.77827 L845.70313 153.58241 L846.67969 148.17509 L847.65625 142.57765 L848.63281 136.81216 L849.60938 130.90140 L850.58594 124.86868 L851.56250 118.73782 L852.53906 112.53300 L853.51563 106.27872 L854.49219 99.99967 L855.46875 93.72061 L856.44531 87.46634 L857.42188 81.26154 L858.39844 75.13068 L859.37500 69.09834 L860.35156 63.18758 L861.32813 57.42210 L862.30469 51.82466 L863.28125 46.41734 L864.25781 41.22149 L865.23438 36.25762 L866.21094 31.54531 L867.18750 27.10315 L868.16406 22.94868 L869.14063 19.09830 L870.11719 15.56721 L871.09375 12.36934 L872.07031 9.51729 L873.04688 7.02235 L874.02344 4.89435 L875.00000 3.14168 L875.97656 1.77127 L876.95313 0.78853 L877.92969 0.19733 L878.90625 0.00000 L879.88281 0.19733 L880.85938 0.78853 L881.83594 1.77128 L882.81250 3.14169 L883.78906 4.89436 L884.76563 7.02236 L885.74219 9.51731 L886.71875 12.36935 L887.69531 15.56723 L888.67188 19.09832 L889.64844 22.94870 L890.62500 27.10317 L891.60156 31.54532 L892.57813 36.25764 L893.55469 41.22152 L894.53125 46.41737 L895.50781 51.82468 L896.48438 57.42213 L897.46094 63.18760 L898.43750 69.09837 L899.41406 75.13107 L900.39063 81.26194 L901.36719 87.46675 L902.34375 93.72102 L903.32031 100.00008 L904.29688 106.27913 L905.27344 112.53341 L906.25000 118.73821 L907.22656 124.86907 L908.20313 130.90178 L909.17969 136.81255 L910.15625 142.57802 L911.13281 148.17546 L912.10938 153.58276 L913.08594 158.77861 L914.06250 163.74248 L915.03906 168.45479 L916.01563 172.89694 L916.99219 177.05139 L917.96875 180.90176 L918.94531 184.43286 L919.92188 187.63072 L920.89844 190.48276 L921.87500 192.97769 L922.85156 195.10568 L923.82813 196.85835 L924.80469 198.22876 L925.78125 199.21149 L926.75781 199.80267 L927.73438 200.00000 L928.71094 199.80266 L929.68750 199.21146 L930.66406 198.22870 L931.64063 196.85828 L932.61719 195.10561 L933.59375 192.97758 L934.57031 190.48264 L935.54688 187.63058 L936.52344 184.43271 L937.50000 180.90160 L938.47656 177.05122 L939.45313 172.89674 L940.42969 168.45457 L941.40625 163.74226 L942.38281 158.77838 L943.35938 153.58252 L944.33594 148.17520 L945.31250 142.57776 L946.28906 136.81227 L947.26563 130.90152 L948.24219 124.86880 L949.21875 118.73794 L950.19531 112.53313 L951.17188 106.27885 L952.14844 99.99979 L953.12500 93.72074 L954.10156 87.46647 L955.07813 81.26166 L956.05469 75.13080 L957.03125 69.09809 L958.00781 63.18734 L958.98438 57.42187 L959.96094 51.82443 L960.93750 46.41713 L961.91406 41.22128 L962.89063 36.25742 L963.86719 31.54511 L964.84375 27.10297 L965.82031 22.94852 L966.79688 19.09816 L967.77344 15.56708 L968.75000 12.36921 L969.72656 9.51719 L970.70313 7.02226 L971.67969 4.89427 L972.65625 3.14162 L973.63281 1.77122 L974.60938 0.78850 L975.58594 0.19731 L976.56250 0.00000 L977.53906 0.19735 L978.51563 0.78856 L979.49219 1.77132 L980.46875 3.14175 L981.44531 4.89444 L982.42188 7.02246 L983.39844 9.51742 L984.37500 12.36947 L985.35156 15.56736 L986.32813 19.09847 L987.30469 22.94887 L988.28125 27.10334 L989.25781 31.54551 L990.23438 36.25784 L991.21094 41.22173 L992.18750 46.41758 L993.16406 51.82491 L994.14063 57.42236 L995.11719 63.18748 L996.09375 69.09861 L997.07031 75.13096 L998.04688 81.26219 L999.02344 87.46662" /><path fill="none" stroke="#000000" d="M0 300.00000  L0.00000 300.00000  L0.97656 300.00000  L1.95313 300.00000  L2.92969 300.00000  L3.90625 300.00000  L4.88281 300.00000  L5.85938 300.00000  L6.83594 300.00000  L7.81250 300.00000  L8.78906 300.00000  L9.76563 300.00000  L10.74219 300.00000  L11.71875 300.00000  L12.69531 300.00000  L13.67188 300.00000  L14.64844 300.00000  L15.62500 300.00000  L16.60156 300.00000  L17.57813 300.00000  L18.55469 300.00000  L19.53125 300.00000  L20.50781 300.00000  L21.48438 300.00000  L22.46094 300.00000  L23.43750 300.00000  L24.41406 300.00000  L25.39063 300.00000  L26.36719 300.00000  L27.34375 300.00000  L28.32031 300.00000  L29.29688 300.00000  L30.27344 300.00000  L31.25000 300.00000  L32.22656 300.00000  L33.20313 300.00000  L34.17969 300.00000  L35.15625 300.00000  L36.13281 300.00000  L37.10938 300.00000  L38.08594 300.00000  L39.06250 300.00000  L40.03906 300.00000  L41.01563 300.00000  L41.99219 300.00000  L42.96875 300.00000  L43.94531 300.00000  L44.92188 300.00000  L45.89844 300.00000  L46.87500 300.00000  L47.85156 300.00000  L48.82813 300.00000  L49.80469 300.00000  L50.78125 300.00000  L51.75781 300.00000  L52.73438 300.00000  L53.71094 300.00000  L54.68750 300.00000  L55.66406 300.00000  L56.64063 300.00000  L57.61719 300.00000  L58.59375 300.00000  L59.57031 300.00000  L60.54688 300.00000  L61.52344 300.00000  L62.50000 300.00000  L63.47656 300.00000  L64.45313 300.00000  L65.42969 300.00000  L66.40625 300.00000  L67.38281 300.00000  L68.35938 300.00000  L69.33594 300.00000  L70.31250 300.00000  L71.28906 300.00000  L72.26563 300.00000  L73.24219 300.00000  L74.21875 300.00000  L75.19531 300.00000  L76.17188 300.00000  L77.14844 300.00000  L78.12500 300.00000  L79.10156 300.00000  L80.07813 300.00000  L81.05469 300.00000  L82.03125 300.00000  L83.00781 300.00000  L83.98438 300.00000  L84.96094 300.00000  L85.93750 300.00000  L86.91406 300.00000  L87.89063 300.00000  L88.86719 300.00000  L89.84375 300.00000  L90.82031 300.00000  L91.79688 300.00000  L92.77344 300.00000  L93.75000 300.00000  L94.72656 300.00000  L95.70313 300.00000  L96.67969 300.00000  L97.65625 300.00000  L98.63281 300.00000  L99.60938 300.00000  L100.58594 300.00000  L101.56250 300.00000  L102.53906 300.00000  L103.51563 300.00000  L104.49219 300.00000  L105.46875 300.00000  L106.44531 300.00000  L107.42188 300.00000  L108.39844 300.00000  L109.37500 300.00000  L110.35156 300.00000  L111.32813 300.00000  L112.30469 300.00000  L113.28125 300.00000  L114.25781 300.00000  L115.23438 300.00000  L116.21094 300.00000  L117.18750 300.00000  L118.16406 300.00000  L119.14063 300.00000  L120.11719 300.00000  L121.09375 300.00000  L122.07031 300.00000  L123.04688 300.00000  L124.02344 300.00000  L125.00000 300.00000  L125.97656 300.00000  L126.95313 300.00000  L127.92969 300.00000  L128.90625 300.00000  L129.88281 300.00000  L130.85938 300.00000  L131.83594 300.00000  L132.81250 300.00000  L133.78906 300.00000  L134.76563 300.00000  L135.74219 300.00000  L136.71875 300.00000  L137.69531 300.00000  L138.67188 300.00000  L139.64844 300.00000  L140.62500 300.00000  L141.60156 300.00000  L142.57813 300.00000  L143.55469 300.00000  L144.53125 300.00000  L145.50781 300.00000  L146.48438 300.00000  L147.46094 300.00000  L148.43750 300.00000  L149.41406 300.00000  L150.39063 300.00000  L151.36719 300.00000  L152.34375 300.00000  L153.32031 300.00000  L154.29688 300.00000  L155.27344 300.00000  L156.25000 300.00000  L157.22656 300.00000  L158.20313 300.00000  L159.17969 300.00000  L160.15625 300.00000  L161.13281 300.00000  L162.10938 300.00000  L163.08594 300.00000  L164.06250 300.00000  L165.03906 300.00000  L166.01563 300.00000  L166.99219 300.00000  L167.96875 300.00000  L168.94531 300.00000  L169.92188 300.00000  L170.89844 300.00000  L171.87500 300.00000  L172.85156 300.00000  L173.82813 300.00000  L174.80469 300.00000  L175.78125 300.00000  L176.75781 300.00000  L177.73438 300.00000  L178.71094 300.00000  L179.68750 300.00000  L180.66406 300.00000  L181.64063 300.00000  L182.61719 300.00000  L183.59375 300.00000  L184.57031 300.00000  L185.54688 300.00000  L186.52344 300.00000  L187.50000 300.00000  L188.47656 300.00000  L189.45313 300.00000  L190.42969 300.00000  L191.40625 300.00000  L192.38281 300.00000  L193.35938 300.00000  L194.33594 300.00000  L195.31250 300.00000  L196.28906 300.00000  L197.26563 300.00000  L198.24219 300.00000  L199.21875 300.00000  L200.19531 300.00000  L201.17188 300.00000  L202.14844 300.00000  L203.12500 300.00000  L204.10156 300.00000  L205.07813 300.00000  L206.05469 300.00000  L207.03125 300.00000  L208.00781 300.00000  L208.98438 300.00000  L209.96094 300.00000  L210.93750 300.00000  L211.91406 300.00000  L212.89063 300.00000  L213.86719 300.00000  L214.84375 300.00000  L215.82031 300.00000  L216.79688 300.00000  L217.77344 300.00000  L218.75000 300.00000  L219.72656 300.00000  L220.70313 300.00000  L221.67969 300.00000  L222.65625 300.00000  L223.63281 300.00000  L224.60938 300.00000  L225.58594 300.00000  L226.56250 300.00000  L227.53906 300.00000  L228.51563 300.00000  L229.49219 300.00000  L230.46875 300.00000  L231.44531 300.00000  L232.42188 300.00000  L233.39844 300.00000  L234.37500 300.00000  L235.35156 300.00000  L236.32813 300.00000  L237.30469 300.00000  L238.28125 300.00000  L239.25781 300.00000  L240.23438 300.00000  L241.21094 300.00000  L242.18750 300.00000  L243.16406 300.00000  L244.14063 300.00000  L245.11719 300.00000  L246.09375 300.00000  L247.07031 300.00000  L248.04688 300.00000  L249.02344 300.00000  L250.00000 300.00000  L250.97656 300.00000  L251.95313 300.00000  L252.92969 300.00000  L253.90625 300.00000  L254.88281 300.00000  L255.85938 300.00000  L256.83594 300.00000  L257.81250 300.00000  L258.78906 300.00000  L259.76563 300.00000  L260.74219 300.00000  L261.71875 300.00000  L262.69531 300.00000  L263.67188 300.00000  L264.64844 300.00000  L265.62500 300.00000  L266.60156 300.00000  L267.57813 300.00000  L268.55469 300.00000  L269.53125 300.00000  L270.50781 300.00000  L271.48438 300.00000  L272.46094 300.00000  L273.43750 300.00000  L274.41406 300.00000  L275.39063 300.00000  L276.36719 300.00000  L277.34375 300.00000  L278.32031 300.00000  L279.29688 300.00000  L280.27344 300.00000  L281.25000 300.00000  L282.22656 300.00000  L283.20313 300.00000  L284.17969 300.00000  L285.15625 300.00000  L286.13281 300.00000  L287.10938 300.00000  L288.08594 300.00000  L289.06250 300.00000  L290.03906 300.00000  L291.01563 300.00000  L291.99219 300.00000  L292.96875 300.00000  L293.94531 300.00000  L294.92188 300.00000  L295.89844 300.00000  L296.87500 300.00000  L297.85156 300.00000  L298.82813 300.00000  L299.80469 300.00000  L300.78125 300.00000  L301.75781 300.00000  L302.73438 300.00000  L303.71094 300.00000  L304.68750 300.00000  L305.66406 300.00000  L306.64063 300.00000  L307.61719 300.00000  L308.59375 300.00000  L309.57031 300.00000  L310.54688 300.00000  L311.52344 300.00000  L312.50000 300.00000  L313.47656 300.00000  L314.45313 300.00000  L315.42969 300.00000  L316.40625 300.00000  L317.38281 300.00000  L318.35938 300.00000  L319.33594 300.00000  L320.31250 300.00000  L321.28906 300.00000  L322.26563 300.00000  L323.24219 300.00000  L324.21875 300.00000  L325.19531 300.00000  L326.17188 300.00000  L327.14844 300.00000  L328.12500 300.00000  L329.10156 300.00000  L330.07813 300.00000  L331.05469 300.00000  L332.03125 300.00000  L333.00781 300.00000  L333.98438 300.00000  L334.96094 300.00000  L335.93750 300.00000  L336.91406 300.00000  L337.89063 300.00000  L338.86719 300.00000  L339.84375 300.00000  L340.82031 300.00000  L341.79688 300.00000  L342.77344 300.00000  L343.75000 300.00000  L344.72656 300.00000  L345.70313 300.00000  L346.67969 300.00000  L347.65625 300.00000  L348.63281 300.00000  L349.60938 300.00000  L350.58594 300.00000  L351.56250 300.00000  L352.53906 300.00000  L353.51563 300.00000  L354.49219 300.00000  L355.46875 300.00000  L356.44531 300.00000  L357.42188 300.00000  L358.39844 300.00000  L359.37500 300.00000  L360.35156 300.00000  L361.32813 300.00000  L362.30469 300.00000  L363.28125 300.00000  L364.25781 300.00000  L365.23438 300.00000  L366.21094 300.00000  L367.18750 300.00000  L368.16406 300.00000  L369.14063 300.00000  L370.11719 300.00000  L371.09375 300.00000  L372.07031 300.00000  L373.04688 300.00000  L374.02344 300.00000  L375.00000 300.00000  L375.97656 300.00000  L376.95313 300.00000  L377.92969 300.00000  L378.90625 300.00000  L379.88281 300.00000  L380.85938 300.00000  L381.83594 300.00000  L382.81250 300.00000  L383.78906 300.00000  L384.76563 300.00000  L385.74219 300.00000  L386.71875 300.00000  L387.69531 300.00000  L388.67188 300.00000  L389.64844 300.00000  L390.62500 300.00000  L391.60156 300.00000  L392.57813 300.00000  L393.55469 300.00000  L394.53125 300.00000  L395.50781 300.00000  L396.48438 300.00000  L397.46094 300.00000  L398.43750 300.00000  L399.41406 300.00000  L400.39063 300.00000  L401.36719 300.00000  L402.34375 300.00000  L403.32031 300.00000  L404.29688 300.00000  L405.27344 300.00000  L406.25000 300.00000  L407.22656 300.00000  L408.20313 300.00000  L409.17969 300.00000  L410.15625 300.00000  L411.13281 300.00000  L412.10938 300.00000  L413.08594 300.00000  L414.06250 300.00000  L415.03906 300.00000  L416.01563 300.00000  L416.99219 300.00000  L417.96875 300.00000  L418.94531 300.00000  L419.92188 300.00000  L420.89844 300.00000  L421.87500 300.00000  L422.85156 300.00000  L423.82813 300.00000  L424.80469 300.00000  L425.78125 300.00000  L426.75781 300.00000  L427.73438 300.00000  L428.71094 300.00000  L429.68750 300.00000  L430.66406 300.00000  L431.64063 300.00000  L432.61719 300.00000  L433.59375 300.00000  L434.57031 300.00000  L435.54688 300.00000  L436.52344 300.00000  L437.50000 300.00000  L438.47656 300.00000  L439.45313 300.00000  L440.42969 300.00000  L441.40625 300.00000  L442.38281 300.00000  L443.35938 300.00000  L444.33594 300.00000  L445.31250 300.00000  L446.28906 300.00000  L447.26563 300.00000  L448.24219 300.00000  L449.21875 300.00000  L450.19531 300.00000  L451.17188 300.00000  L452.14844 300.00000  L453.12500 300.00000  L454.10156 300.00000  L455.07813 300.00000  L456.05469 300.00000  L457.03125 300.00000  L458.00781 300.00000  L458.98438 300.00000  L459.96094 300.00000  L460.93750 300.00000  L461.91406 300.00000  L462.89063 300.00000  L463.86719 300.00000  L464.84375 300.00000  L465.82031 300.00000  L466.79688 300.00000  L467.77344 300.00000  L468.75000 300.00000  L469.72656 300.00000  L470.70313 300.00000  L471.67969 300.00000  L472.65625 300.00000  L473.63281 300.00000  L474.60938 300.00000  L475.58594 300.00000  L476.56250 300.00000  L477.53906 300.00000  L478.51563 300.00000  L479.49219 300.00000  L480.46875 300.00000  L481.44531 300.00000  L482.42188 300.00000  L483.39844 300.00000  L484.37500 300.00000  L485.35156 300.00000  L486.32813 300.00000  L487.30469 300.00000  L488.28125 300.00000  L489.25781 300.00000  L490.23438 300.00000  L491.21094 300.00000  L492.18750 300.00000  L493.16406 300.00000  L494.14063 300.00000  L495.11719 300.00000  L496.09375 300.00000  L497.07031 300.00000  L498.04688 300.00000  L499.02344 300.00000  L500.00000 300.00000  L500.97656 300.00000  L501.95313 300.00000  L502.92969 300.00000  L503.90625 300.00000  L504.88281 300.00000  L505.85938 300.00000  L506.83594 300.00000  L507.81250 300.00000  L508.78906 300.00000  L509.76563 300.00000  L510.74219 300.00000  L511.71875 300.00000  L512.69531 300.00000  L513.67188 300.00000  L514.64844 300.00000  L515.62500 300.00000  L516.60156 300.00000  L517.57813 300.00000  L518.55469 300.00000  L519.53125 300.00000  L520.50781 300.00000  L521.48438 300.00000  L522.46094 300.00000  L523.43750 300.00000  L524.41406 300.00000  L525.39063 300.00000  L526.36719 300.00000  L527.34375 300.00000  L528.32031 300.00000  L529.29688 300.00000  L530.27344 300.00000  L531.25000 300.00000  L532.22656 300.00000  L533.20313 300.00000  L534.17969 300.00000  L535.15625 300.00000  L536.13281 300.00000  L537.10938 300.00000  L538.08594 300.00000  L539.06250 300.00000  L540.03906 300.00000  L541.01563 300.00000  L541.99219 300.00000  L542.96875 300.00000  L543.94531 300.00000  L544.92188 300.00000  L545.89844 300.00000  L546.87500 300.00000  L547.85156 300.00000  L548.82813 300.00000  L549.80469 300.00000  L550.78125 300.00000  L551.75781 300.00000  L552.73438 300.00000  L553.71094 300.00000  L554.68750 300.00000  L555.66406 300.00000  L556.64063 300.00000  L557.61719 300.00000  L558.59375 300.00000  L559.57031 300.00000  L560.54688 300.00000  L561.52344 300.00000  L562.50000 300.00000  L563.47656 300.00000  L564.45313 300.00000  L565.42969 300.00000  L566.40625 300.00000  L567.38281 300.00000  L568.35938 300.00000  L569.33594 300.00000  L570.31250 300.00000  L571.28906 300.00000  L572.26563 300.00000  L573.24219 300.00000  L574.21875 300.00000  L575.19531 300.00000  L576.17188 300.00000  L577.14844 300.00000  L578.12500 300.00000  L579.10156 300.00000  L580.07813 300.00000  L581.05469 300.00000  L582.03125 300.00000  L583.00781 300.00000  L583.98438 300.00000  L584.96094 300.00000  L585.93750 300.00000  L586.91406 300.00000  L587.89063 300.00000  L588.86719 300.00000  L589.84375 300.00000  L590.82031 300.00000  L591.79688 300.00000  L592.77344 300.00000  L593.75000 300.00000  L594.72656 300.00000  L595.70313 300.00000  L596.67969 300.00000  L597.65625 300.00000  L598.63281 300.00000  L599.60938 300.00000  L600.58594 300.00000  L601.56250 300.00000  L602.53906 300.00000  L603.51563 300.00000  L604.49219 300.00000  L605.46875 300.00000  L606.44531 300.00000  L607.42188 300.00000  L608.39844 300.00000  L609.37500 300.00000  L610.35156 300.00000  L611.32813 300.00000  L612.30469 300.00000  L613.28125 300.00000  L614.25781 300.00000  L615.23438 300.00000  L616.21094 300.00000  L617.18750 300.00000  L618.16406 300.00000  L619.14063 300.00000  L620.11719 300.00000  L621.09375 300.00000  L622.07031 300.00000  L623.04688 300.00000  L624.02344 300.00000  L625.00000 300.00000  L625.97656 300.00000  L626.95313 300.00000  L627.92969 300.00000  L628.90625 300.00000  L629.88281 300.00000  L630.85938 300.00000  L631.83594 300.00000  L632.81250 300.00000  L633.78906 300.00000  L634.76563 300.00000  L635.74219 300.00000  L636.71875 300.00000  L637.69531 300.00000  L638.67188 300.00000  L639.64844 300.00000  L640.62500 300.00000  L641.60156 300.00000  L642.57813 300.00000  L643.55469 300.00000  L644.53125 300.00000  L645.50781 300.00000  L646.48438 300.00000  L647.46094 300.00000  L648.43750 300.00000  L649.41406 300.00000  L650.39063 300.00000  L651.36719 300.00000  L652.34375 300.00000  L653.32031 300.00000  L654.29688 300.00000  L655.27344 300.00000  L656.25000 300.00000  L657.22656 300.00000  L658.20313 300.00000  L659.17969 300.00000  L660.15625 300.00000  L661.13281 300.00000  L662.10938 300.00000  L663.08594 300.00000  L664.06250 300.00000  L665.03906 300.00000  L666.01563 300.00000  L666.99219 300.00000  L667.96875 300.00000  L668.94531 300.00000  L669.92188 300.00000  L670.89844 300.00000  L671.87500 300.00000  L672.85156 300.00000  L673.82813 300.00000  L674.80469 300.00000  L675.78125 300.00000  L676.75781 300.00000  L677.73438 300.00000  L678.71094 300.00000  L679.68750 300.00000  L680.66406 300.00000  L681.64063 300.00000  L682.61719 300.00000  L683.59375 300.00000  L684.57031 300.00000  L685.54688 300.00000  L686.52344 300.00000  L687.50000 300.00000  L688.47656 300.00000  L689.45313 300.00000  L690.42969 300.00000  L691.40625 300.00000  L692.38281 300.00000  L693.35938 300.00000  L694.33594 300.00000  L695.31250 300.00000  L696.28906 300.00000  L697.26563 300.00000  L698.24219 300.00000  L699.21875 300.00000  L700.19531 300.00000  L701.17188 300.00000  L702.14844 300.00000  L703.12500 300.00000  L704.10156 300.00000  L705.07813 300.00000  L706.05469 300.00000  L707.03125 300.00000  L708.00781 300.00000  L708.98438 300.00000  L709.96094 300.00000  L710.93750 300.00000  L711.91406 300.00000  L712.89063 300.00000  L713.86719 300.00000  L714.84375 300.00000  L715.82031 300.00000  L716.79688 300.00000  L717.77344 300.00000  L718.75000 300.00000  L719.72656 300.00000  L720.70313 300.00000  L721.67969 300.00000  L722.65625 300.00000  L723.63281 300.00000  L724.60938 300.00000  L725.58594 300.00000  L726.56250 300.00000  L727.53906 300.00000  L728.51563 300.00000  L729.49219 300.00000  L730.46875 300.00000  L731.44531 300.00000  L732.42188 300.00000  L733.39844 300.00000  L734.37500 300.00000  L735.35156 300.00000  L736.32813 300.00000  L737.30469 300.00000  L738.28125 300.00000  L739.25781 300.00000  L740.23438 300.00000  L741.21094 300.00000  L742.18750 300.00000  L743.16406 300.00000  L744.14063 300.00000  L745.11719 300.00000  L746.09375 300.00000  L747.07031 300.00000  L748.04688 300.00000  L749.02344 300.00000  L750.00000 300.00000  L750.97656 300.00000  L751.95313 300.00000  L752.92969 300.00000  L753.90625 300.00000  L754.88281 300.00000  L755.85938 300.00000  L756.83594 300.00000  L757.81250 300.00000  L758.78906 300.00000  L759.76563 300.00000  L760.74219 300.00000  L761.71875 300.00000  L762.69531 300.00000  L763.67188 300.00000  L764.64844 300.00000  L765.62500 300.00000  L766.60156 300.00000  L767.57813 300.00000  L768.55469 300.00000  L769.53125 300.00000  L770.50781 300.00000  L771.48438 300.00000  L772.46094 300.00000  L773.43750 300.00000  L774.41406 300.00000  L775.39063 300.00000  L776.36719 300.00000  L777.34375 300.00000  L778.32031 300.00000  L779.29688 300.00000  L780.27344 300.00000  L781.25000 300.00000  L782.22656 300.00000  L783.20313 300.00000  L784.17969 300.00000  L785.15625 300.00000  L786.13281 300.00000  L787.10938 300.00000  L788.08594 300.00000  L789.06250 300.00000  L790.03906 300.00000  L791.01563 300.00000  L791.99219 300.00000  L792.96875 300.00000  L793.94531 300.00000  L794.92188 300.00000  L795.89844 300.00000  L796.87500 300.00000  L797.85156 300.00000  L798.82813 300.00000  L799.80469 300.00000  L800.78125 300.00000  L801.75781 300.00000  L802.73438 300.00000  L803.71094 300.00000  L804.68750 300.00000  L805.66406 300.00000  L806.64063 300.00000  L807.61719 300.00000  L808.59375 300.00000  L809.57031 300.00000  L810.54688 300.00000  L811.52344 300.00000  L812.50000 300.00000  L813.47656 300.00000  L814.45313 300.00000  L815.42969 300.00000  L816.40625 300.00000  L817.38281 300.00000  L818.35938 300.00000  L819.33594 300.00000  L820.31250 300.00000  L821.28906 300.00000  L822.26563 300.00000  L823.24219 300.00000  L824.21875 300.00000  L825.19531 300.00000  L826.17188 300.00000  L827.14844 300.00000  L828.12500 300.00000  L829.10156 300.00000  L830.07813 300.00000  L831.05469 300.00000  L832.03125 300.00000  L833.00781 300.00000  L833.98438 300.00000  L834.96094 300.00000  L835.93750 300.00000  L836.91406 300.00000  L837.89063 300.00000  L838.86719 300.00000  L839.84375 300.00000  L840.82031 300.00000  L841.79688 300.00000  L842.77344 300.00000  L843.75000 300.00000  L844.72656 300.00000  L845.70313 300.00000  L846.67969 300.00000  L847.65625 300.00000  L848.63281 300.00000  L849.60938 300.00000  L850.58594 300.00000  L851.56250 300.00000  L852.53906 300.00000  L853.51563 300.00000  L854.49219 300.00000  L855.46875 300.00000  L856.44531 300.00000  L857.42188 300.00000  L858.39844 300.00000  L859.37500 300.00000  L860.35156 300.00000  L861.32813 300.00000  L862.30469 300.00000  L863.28125 300.00000  L864.25781 300.00000  L865.23438 300.00000  L866.21094 300.00000  L867.18750 300.00000  L868.16406 300.00000  L869.14063 300.00000  L870.11719 300.00000  L871.09375 300.00000  L872.07031 300.00000  L873.04688 300.00000  L874.02344 300.00000  L875.00000 300.00000  L875.97656 300.00000  L876.95313 300.00000  L877.92969 300.00000  L878.90625 300.00000  L879.88281 300.00000  L880.85938 300.00000  L881.83594 300.00000  L882.81250 300.00000  L883.78906 300.00000  L884.76563 300.00000  L885.74219 300.00000  L886.71875 300.00000  L887.69531 300.00000  L888.67188 300.00000  L889.64844 300.00000  L890.62500 300.00000  L891.60156 300.00000  L892.57813 300.00000  L893.55469 300.00000  L894.53125 300.00000  L895.50781 300.00000  L896.48438 300.00000  L897.46094 300.00000  L898.43750 300.00000  L899.41406 300.00000  L900.39063 300.00000  L901.36719 300.00000  L902.34375 300.00000  L903.32031 300.00000  L904.29688 300.00000  L905.27344 300.00000  L906.25000 300.00000  L907.22656 300.00000  L908.20313 300.00000  L909.17969 300.00000  L910.15625 300.00000  L911.13281 300.00000  L912.10938 300.00000  L913.08594 300.00000  L914.06250 300.00000  L915.03906 300.00000  L916.01563 300.00000  L916.99219 300.00000  L917.96875 300.00000  L918.94531 300.00000  L919.92188 300.00000  L920.89844 300.00000  L921.87500 300.00000  L922.85156 300.00000  L923.82813 300.00000  L924.80469 300.00000  L925.78125 300.00000  L926.75781 300.00000  L927.73438 300.00000  L928.71094 300.00000  L929.68750 300.00000  L930.66406 300.00000  L931.64063 300.00000  L932.61719 300.00000  L933.59375 300.00000  L934.57031 300.00000  L935.54688 300.00000  L936.52344 300.00000  L937.50000 300.00000  L938.47656 300.00000  L939.45313 300.00000  L940.42969 300.00000  L941.40625 300.00000  L942.38281 300.00000  L943.35938 300.00000  L944.33594 300.00000  L945.31250 300.00000  L946.28906 300.00000  L947.26563 300.00000  L948.24219 300.00000  L949.21875 300.00000  L950.19531 300.00000  L951.17188 300.00000  L952.14844 300.00000  L953.12500 300.00000  L954.10156 300.00000  L955.07813 300.00000  L956.05469 300.00000  L957.03125 300.00000  L958.00781 300.00000  L958.98438 300.00000  L959.96094 300.00000  L960.93750 300.00000  L961.91406 300.00000  L962.89063 300.00000  L963.86719 300.00000  L964.84375 300.00000  L965.82031 300.00000  L966.79688 300.00000  L967.77344 300.00000  L968.75000 300.00000  L969.72656 300.00000  L970.70313 300.00000  L971.67969 300.00000  L972.65625 300.00000  L973.63281 300.00000  L974.60938 300.00000  L975.58594 300.00000  L976.56250 300.00000  L977.53906 300.00000  L978.51563 300.00000  L979.49219 300.00000  L980.46875 300.00000  L981.44531 300.00000  L982.42188 300.00000  L983.39844 300.00000  L984.37500 300.00000  L985.35156 300.00000  L986.32813 300.00000  L987.30469 300.00000  L988.28125 300.00000  L989.25781 300.00000  L990.23438 300.00000  L991.21094 300.00000  L992.18750 300.00000  L993.16406 300.00000  L994.14063 300.00000  L995.11719 300.00000  L996.09375 300.00000  L997.07031 300.00000  L998.04688 300.00000  L999.02344 300.00000 " /></g><text x="1000.00000" dx="10" y="100.00000">[-1.00000;1.00000]</text><text x="1000.00000" dx="10" y="300.00000">[-0.00000;0.00000]</text></svg>