<svg xmlns="http://www.w3.org/2000/svg" version="1.1"><g stroke-width="0.6"><path fill="none" stroke="#000000" d="M0 100.02238 L1000.00000 100.02238" /><path fill="none" stroke="#000000" d="M0 300.00000 L1000.00000 300.00000" /><path fill="none" stroke="#000000" d="M500.00000 0 L500.00000 400.00000" /><path fill="none" stroke="#000000" d="M0 100.02238  L0.00000 0.00000 L0.97656 0.17903 L1.95313 0.71547 L2.92969 1.60740 L3.90625 2.85164 L4.88281 4.44372 L5.85938 6.37794 L6.83594 8.64739 L7.81250 11.24394 L8.78906 14.15829 L9.76563 17.38001 L10.74219 20.89757 L11.71875 24.69838 L12.69531 28.76883 L13.67188 33.09435 L14.64844 37.65945 L15.62500 42.44780 L16.60156 47.44224 L17.57813 52.62492 L18.55469 57.97726 L19.53125 63.48011 L20.50781 69.11377 L21.48438 74.85808 L22.46094 80.69247 L23.43750 86.59605 L24.41406 92.54771 L25.39063 98.52612 L26.36719 104.50987 L27.34375 110.47757 L28.32031 116.40784 L29.29688 122.27946 L30.27344 128.07140 L31.25000 133.76294 L32.22656 139.33368 L33.20313 144.76370 L34.17969 150.03357 L35.15625 155.12442 L36.13281 160.01799 L37.10938 164.69682 L38.08594 169.14410 L39.06250 173.34398 L40.03906 177.28136 L41.01563 180.94220 L41.99219 184.31334 L42.96875 187.38275 L43.94531 190.13943 L44.92188 192.57352 L45.89844 194.67630 L46.87500 196.44025 L47.85156 197.85904 L48.82813 198.92760 L49.80469 199.64211 L50.78125 200.00000 L51.75781 200.00000 L52.73438 199.64211 L53.71094 198.92760 L54.68750 197.85902 L55.66406 196.44023 L56.64063 194.67630 L57.61719 192.57352 L58.59375 190.13943 L59.57031 187.38274 L60.54688 184.31334 L61.52344 180.94218 L62.50000 177.28136 L63.47656 173.34396 L64.45313 169.14410 L65.42969 164.69681 L66.40625 160.01801 L67.38281 155.12439 L68.35938 150.03357 L69.33594 144.76370 L70.31250 139.33365 L71.28906 133.76291 L72.26563 128.07140 L73.24219 122.27946 L74.21875 116.40781 L75.19531 110.47755 L76.17188 104.50986 L77.14844 98.52607 L78.12500 92.54768 L79.10156 86.59605 L80.07813 80.69247 L81.05469 74.85805 L82.03125 69.11375 L83.00781 63.48010 L83.98438 57.97722 L84.96094 52.62489 L85.93750 47.44223 L86.91406 42.44780 L87.89063 37.65942 L88.86719 33.09433 L89.84375 28.76883 L90.82031 24.69835 L91.79688 20.89756 L92.77344 17.38001 L93.75000 14.15829 L94.72656 11.24392 L95.70313 8.64738 L96.67969 6.37794 L97.65625 4.44370 L98.63281 2.85163 L99.60938 1.60740 L100.58594 0.71547 L101.56250 0.17903 L102.53906 0.00000 L103.51563 0.17903 L104.49219 0.71547 L105.46875 1.60741 L106.44531 2.85164 L107.42188 4.44372 L108.39844 6.37795 L109.37500 8.64740 L110.35156 11.24394 L111.32813 14.15831 L112.30469 17.38003 L113.28125 20.89758 L114.25781 24.69838 L115.23438 28.76885 L116.21094 33.09436 L117.18750 37.65945 L118.16406 42.44783 L119.14063 47.44226 L120.11719 52.62492 L121.09375 57.97725 L122.07031 63.48013 L123.04688 69.11378 L124.02344 74.85808 L125.00000 80.69250 L125.97656 86.59608 L126.95313 92.54771 L127.92969 98.52611 L128.90625 104.50990 L129.88281 110.47758 L130.85938 116.40784 L131.83594 122.27950 L132.81250 128.07138 L133.78906 133.76294 L134.76563 139.33372 L135.74219 144.76370 L136.71875 150.03358 L137.69531 155.12445 L138.67188 160.01799 L139.64844 164.69684 L140.62500 169.14417 L141.60156 173.34398 L142.57813 177.28139 L143.55469 180.94217 L144.53125 184.31334 L145.50781 187.38277 L146.48438 190.13942 L147.46094 192.57353 L148.43750 194.67632 L149.41406 196.44025 L150.39063 197.85904 L151.36719 198.92760 L152.34375 199.64211 L153.32031 200.00000 L154.29688 200.00000 L155.27344 199.64211 L156.25000 198.92758 L157.22656 197.85902 L158.20313 196.44025 L159.17969 194.67628 L160.15625 192.57353 L161.13281 190.13942 L162.10938 187.38272 L163.08594 184.31334 L164.06250 180.94217 L165.03906 177.28133 L166.01563 173.34396 L166.99219 169.14409 L167.96875 164.69676 L168.94531 160.01799 L169.92188 155.12437 L170.89844 150.03358 L171.87500 144.76369 L172.85156 139.33363 L173.82813 133.76294 L174.80469 128.07137 L175.78125 122.27940 L176.75781 116.40784 L177.73438 110.47754 L178.71094 104.50980 L179.68750 98.52610 L180.66406 92.54766 L181.64063 86.59598 L182.61719 80.69245 L183.59375 74.85803 L184.57031 69.11369 L185.54688 63.48009 L186.52344 57.97720 L187.50000 52.62492 L188.47656 47.44221 L189.45313 42.44774 L190.42969 37.65945 L191.40625 33.09432 L192.38281 28.76878 L193.35938 24.69838 L194.33594 20.89755 L195.31250 17.37997 L196.28906 14.15828 L197.26563 11.24392 L198.24219 8.64739 L199.21875 6.37793 L200.19531 4.44370 L201.17188 2.85164 L202.14844 1.60740 L203.12500 0.71546 L204.10156 0.17903 L205.07813 0.00000 L206.05469 0.17903 L207.03125 0.71547 L208.00781 1.60741 L208.98438 2.85165 L209.96094 4.44372 L210.93750 6.37796 L211.91406 8.64742 L212.89063 11.24395 L213.86719 14.15832 L214.84375 17.38001 L215.82031 20.89759 L216.79688 24.69842 L217.77344 28.76883 L218.75000 33.09437 L219.72656 37.65950 L220.70313 42.44780 L221.67969 47.44228 L222.65625 52.62498 L223.63281 57.97726 L224.60938 63.48015 L225.58594 69.11375 L226.56250 74.85810 L227.53906 80.69252 L228.51563 86.59605 L229.49219 92.54773 L230.46875 98.52617 L231.44531 104.50987 L232.42188 110.47761 L233.39844 116.40791 L234.37500 122.27946 L235.35156 128.07144 L236.32813 133.76300 L237.30469 139.33369 L238.28125 144.76375 L239.25781 150.03365 L240.23438 155.12444 L241.21094 160.01805 L242.18750 164.69681 L243.16406 169.14413 L244.14063 173.34402 L245.11719 177.28137 L246.09375 180.94221 L247.07031 184.31337 L248.04688 187.38275 L249.02344 190.13945 L250.00000 192.57355 L250.97656 194.67630 L251.95313 196.44026 L252.92969 197.85902 L253.90625 198.92760 L254.88281 199.64211 L255.85938 200.00000 L256.83594 200.00000 L257.81250 199.64209 L258.78906 198.92760 L259.76563 197.85902 L260.74219 196.44022 L261.71875 194.67630 L262.69531 192.57353 L263.67188 190.13939 L264.64844 187.38274 L265.62500 184.31335 L266.60156 180.94214 L267.57813 177.28134 L268.55469 173.34399 L269.53125 169.14404 L270.50781 164.69678 L271.48438 160.01801 L272.46094 155.12431 L273.43750 150.03352 L274.41406 144.76372 L275.39063 139.33357 L276.36719 133.76288 L277.34375 128.07140 L278.32031 122.27934 L279.29688 116.40778 L280.27344 110.47757 L281.25000 104.50974 L282.22656 98.52604 L283.20313 92.54769 L284.17969 86.59592 L285.15625 80.69239 L286.13281 74.85806 L287.10938 69.11381 L288.08594 63.48002 L289.06250 57.97723 L290.03906 52.62494 L291.01563 47.44216 L291.99219 42.44777 L292.96875 37.65947 L293.94531 33.09427 L294.92188 28.76880 L295.89844 24.69839 L296.87500 20.89751 L297.85156 17.37998 L298.82813 14.15830 L299.80469 11.24389 L300.78125 8.64737 L301.75781 6.37794 L302.73438 4.44368 L303.71094 2.85162 L304.68750 1.60740 L305.66406 0.71545 L306.64063 0.17902 L307.61719 0.00000 L308.59375 0.17903 L309.57031 0.71548 L310.54688 1.60740 L311.52344 2.85167 L312.50000 4.44374 L313.47656 6.37794 L314.45313 8.64745 L315.42969 11.24398 L316.40625 14.15830 L317.38281 17.37999 L318.35938 20.89763 L319.33594 24.69840 L320.31250 28.76881 L321.28906 33.09442 L322.26563 37.65948 L323.24219 42.44777 L324.21875 47.44233 L325.19531 52.62495 L326.17188 57.97724 L327.14844 63.48021 L328.12500 69.11382 L329.10156 74.85807 L330.07813 80.69259 L331.05469 86.59612 L332.03125 92.54770 L333.00781 98.52624 L333.98438 104.50994 L334.96094 110.47758 L335.93750 116.40797 L336.91406 122.27953 L337.89063 128.07141 L338.86719 133.76306 L339.84375 139.33376 L340.82031 144.76373 L341.79688 150.03354 L342.77344 155.12448 L343.75000 160.01802 L344.72656 164.69679 L345.70313 169.14418 L346.67969 173.34399 L347.65625 177.28136 L348.63281 180.94225 L349.60938 184.31337 L350.58594 187.38274 L351.56250 190.13948 L352.53906 192.57355 L353.51563 194.67630 L354.49219 196.44028 L355.46875 197.85904 L356.44531 198.92760 L357.42188 199.64212 L358.39844 200.00000 L359.37500 200.00000 L360.35156 199.64209 L361.32813 198.92758 L362.30469 197.85902 L363.28125 196.44020 L364.25781 194.67627 L365.23438 192.57352 L366.21094 190.13936 L367.18750 187.38271 L368.16406 184.31332 L369.14063 180.94209 L370.11719 177.28130 L371.09375 173.34395 L372.07031 169.14413 L373.04688 164.69673 L374.02344 160.01796 L375.00000 155.12442 L375.97656 150.03348 L376.95313 144.76366 L377.92969 139.33369 L378.90625 133.76282 L379.88281 128.07133 L380.85938 122.27946 L381.83594 116.40771 L382.81250 110.47750 L383.78906 104.50986 L384.76563 98.52597 L385.74219 92.54762 L386.71875 86.59604 L387.69531 80.69232 L388.67188 74.85799 L389.64844 69.11375 L390.62500 63.47996 L391.60156 57.97717 L392.57813 52.62489 L393.55469 47.44211 L394.53125 42.44771 L395.50781 37.65942 L396.48438 33.09437 L397.46094 28.76875 L398.43750 24.69835 L399.41406 20.89758 L400.39063 17.37995 L401.36719 14.15826 L402.34375 11.24395 L403.32031 8.64734 L404.29688 6.37792 L405.27344 4.44372 L406.25000 2.85161 L407.22656 1.60739 L408.20313 0.71547 L409.17969 0.17902 L410.15625 0.00000 L411.13281 0.17903 L412.10938 0.71548 L413.08594 1.60741 L414.06250 2.85164 L415.03906 4.44376 L416.01563 6.37797 L416.99219 8.64740 L417.96875 11.24401 L418.94531 14.15834 L419.92188 17.38003 L420.89844 20.89767 L421.87500 24.69844 L422.85156 28.76886 L423.82813 33.09447 L424.80469 37.65953 L425.78125 42.44783 L426.75781 47.44223 L427.73438 52.62501 L428.71094 57.97730 L429.68750 63.48009 L430.66406 69.11388 L431.64063 74.85813 L432.61719 80.69246 L433.59375 86.59618 L434.57031 92.54777 L435.54688 98.52611 L436.52344 104.51000 L437.50000 110.47764 L438.47656 116.40785 L439.45313 122.27959 L440.42969 128.07147 L441.40625 133.76295 L442.38281 139.33382 L443.35938 144.76378 L444.33594 150.03360 L445.31250 155.12454 L446.28906 160.01807 L447.26563 164.69684 L448.24219 169.14423 L449.21875 173.34404 L450.19531 177.28139 L451.17188 180.94217 L452.14844 184.31340 L453.12500 187.38277 L454.10156 190.13942 L455.07813 192.57356 L456.05469 194.67632 L457.03125 196.44025 L458.00781 197.85905 L458.98438 198.92760 L459.96094 199.64211 L460.93750 200.00000 L461.91406 200.00000 L462.89063 199.64211 L463.86719 198.92757 L464.84375 197.85902 L465.82031 196.44023 L466.79688 194.67625 L467.77344 192.57349 L468.75000 190.13942 L469.72656 187.38268 L470.70313 184.31329 L471.67969 180.94217 L472.65625 177.28127 L473.63281 173.34390 L474.60938 169.14407 L475.58594 164.69669 L476.56250 160.01791 L477.53906 155.12437 L478.51563 150.03342 L479.49219 144.76361 L480.46875 139.33363 L481.44531 133.76294 L482.42188 128.07127 L483.39844 122.27940 L484.37500 116.40784 L485.35156 110.47744 L486.32813 104.50980 L487.30469 98.52610 L488.28125 92.54756 L489.25781 86.59597 L490.23438 80.69245 L491.21094 74.85793 L492.18750 69.11369 L493.16406 63.48008 L494.14063 57.97711 L495.11719 52.62483 L496.09375 47.44221 L497.07031 42.44766 L498.04688 37.65937 L499.02344 33.09432 L500.00000 28.76871 L500.97656 24.69831 L501.95313 20.89755 L502.92969 17.37991 L503.90625 14.15823 L504.88281 11.24391 L505.85938 8.64739 L506.83594 6.37790 L507.81250 4.44370 L508.78906 2.85164 L509.76563 1.60738 L510.74219 0.71546 L511.71875 0.17903 L512.69531 0.00000 L513.67188 0.17903 L514.64844 0.71547 L515.62500 1.60743 L516.60156 2.85165 L517.57813 4.44372 L518.55469 6.37799 L519.53125 8.64743 L520.50781 11.24395 L521.48438 14.15837 L522.46094 17.37996 L523.43750 20.89759 L524.41406 24.69848 L525.39063 28.76877 L526.36719 33.09438 L527.34375 37.65958 L528.32031 42.44772 L529.29688 47.44228 L530.27344 52.62506 L531.25000 57.97718 L532.22656 63.48015 L533.20313 69.11395 L534.17969 74.85801 L535.15625 80.69253 L536.13281 86.59624 L537.10938 92.54764 L538.08594 98.52618 L539.06250 104.51007 L540.03906 110.47752 L541.01563 116.40791 L541.99219 122.27966 L542.96875 128.07135 L543.94531 133.76302 L544.92188 139.33388 L545.89844 144.76367 L546.87500 150.03366 L547.85156 155.12459 L548.82813 160.01797 L549.80469 164.69688 L550.78125 169.14427 L551.75781 173.34396 L552.73438 177.28143 L553.71094 180.94232 L554.68750 184.31332 L555.66406 187.38280 L556.64063 190.13954 L557.61719 192.57352 L558.59375 194.67635 L559.57031 196.44031 L560.54688 197.85904 L561.52344 198.92761 L562.50000 199.64212 L563.47656 200.00000 L564.45313 199.99998 L565.42969 199.64207 L566.40625 198.92760 L567.38281 197.85901 L568.35938 196.44017 L569.33594 194.67630 L570.31250 192.57346 L571.28906 190.13931 L572.26563 187.38274 L573.24219 184.31325 L574.21875 180.94225 L575.19531 177.28134 L576.17188 173.34386 L577.14844 169.14418 L578.12500 164.69678 L579.10156 160.01785 L580.07813 155.12448 L581.05469 150.03352 L582.03125 144.76355 L583.00781 139.33374 L583.98438 133.76288 L584.96094 128.07121 L585.93750 122.27952 L586.91406 116.40778 L587.89063 110.47737 L588.86719 104.50993 L589.84375 98.52603 L590.82031 92.54749 L591.79688 86.59610 L592.77344 80.69238 L593.75000 74.85787 L594.72656 69.11381 L595.70313 63.48002 L596.67969 57.97705 L597.65625 52.62494 L598.63281 47.44216 L599.60938 42.44761 L600.58594 37.65947 L601.56250 33.09426 L602.53906 28.76867 L603.51563 24.69839 L604.49219 20.89750 L605.46875 17.37988 L606.44531 14.15829 L607.42188 11.24388 L608.39844 8.64729 L609.37500 6.37794 L610.35156 4.44367 L611.32813 2.85158 L612.30469 1.60740 L613.28125 0.71545 L614.25781 0.17901 L615.23438 0.00000 L616.21094 0.17903 L617.18750 0.71550 L618.16406 1.60740 L619.14063 2.85167 L620.11719 4.44379 L621.09375 6.37795 L622.07031 8.64745 L623.04688 11.24407 L624.02344 14.15831 L625.00000 17.38010 L625.97656 20.89775 L626.95313 24.69841 L627.92969 28.76894 L628.90625 33.09456 L629.88281 37.65948 L630.85938 42.44793 L631.83594 47.44217 L632.81250 52.62495 L633.78906 57.97742 L634.76563 63.48004 L635.74219 69.11382 L636.71875 74.85826 L637.69531 80.69241 L638.67188 86.59612 L639.64844 92.54790 L640.62500 98.52605 L641.60156 104.50994 L642.57813 110.47777 L643.55469 116.40779 L644.53125 122.27953 L645.50781 128.07159 L646.48438 133.76289 L647.46094 139.33376 L648.43750 144.76390 L649.41406 150.03354 L650.39063 155.12448 L651.36719 160.01817 L652.34375 164.69679 L653.32031 169.14418 L654.29688 173.34413 L655.27344 177.28136 L656.25000 180.94225 L657.22656 184.31346 L658.20313 187.38274 L659.17969 190.13948 L660.15625 192.57361 L661.13281 194.67630 L662.10938 196.44028 L663.08594 197.85909 L664.06250 198.92760 L665.03906 199.64212 L666.01563 200.00000 L666.99219 200.00000 L667.96875 199.64209 L668.94531 198.92755 L669.92188 197.85902 L670.89844 196.44020 L671.87500 194.67621 L672.85156 192.57350 L673.82813 190.13936 L674.80469 187.38261 L675.78125 184.31332 L676.75781 180.94209 L677.73438 177.28117 L678.71094 173.34395 L679.68750 169.14400 L680.66406 164.69658 L681.64063 160.01796 L682.61719 155.12427 L683.59375 150.03363 L684.57031 144.76366 L685.54688 139.33351 L686.52344 133.76299 L687.50000 128.07133 L688.47656 122.27927 L689.45313 116.40790 L690.42969 110.47749 L691.40625 104.50967 L692.38281 98.52615 L693.35938 92.54762 L694.33594 86.59584 L695.31250 80.69250 L696.28906 74.85799 L697.26563 69.11356 L698.24219 63.48014 L699.21875 57.97717 L700.19531 52.62471 L701.17188 47.44226 L702.14844 42.44771 L703.12500 37.65927 L704.10156 33.09436 L705.07813 28.76875 L706.05469 24.69822 L707.03125 20.89758 L708.00781 17.37995 L708.98438 14.15816 L709.96094 11.24394 L710.93750 8.64734 L711.91406 6.37785 L712.89063 4.44372 L713.86719 2.85161 L714.84375 1.60735 L715.82031 0.71547 L716.79688 0.17902 L717.77344 0.00000 L718.75000 0.17903 L719.72656 0.71549 L720.70313 1.60745 L721.67969 2.85164 L722.65625 4.44376 L723.63281 6.37804 L724.60938 8.64740 L725.58594 11.24401 L726.56250 14.15844 L727.53906 17.38003 L728.51563 20.89767 L729.49219 24.69857 L730.46875 28.76886 L731.44531 33.09447 L732.42188 37.65969 L733.39844 42.44783 L734.37500 47.44239 L735.35156 52.62518 L736.32813 57.97730 L737.30469 63.48028 L738.28125 69.11407 L739.25781 74.85814 L740.23438 80.69266 L741.21094 86.59599 L742.18750 92.54777 L743.16406 98.52631 L744.14063 104.50982 L745.11719 110.47765 L746.09375 116.40804 L747.07031 122.27941 L748.04688 128.07149 L749.02344 133.76314 L750.00000 139.33365 L750.97656 144.76379 L751.95313 150.03377 L752.92969 155.12439 L753.90625 160.01808 L754.88281 164.69699 L755.85938 169.14410 L756.83594 173.34406 L757.81250 177.28152 L758.78906 180.94218 L759.76563 184.31340 L760.74219 187.38287 L761.71875 190.13943 L762.69531 192.57356 L763.67188 194.67638 L764.64844 196.44025 L765.62500 197.85905 L766.60156 198.92763 L767.57813 199.64211 L768.55469 200.00000 L769.53125 199.99998 L770.50781 199.64211 L771.48438 198.92757 L772.46094 197.85898 L773.43750 196.44023 L774.41406 194.67625 L775.39063 192.57341 L776.36719 190.13942 L777.34375 187.38268 L778.32031 184.31317 L779.29688 180.94217 L780.27344 177.28125 L781.25000 173.34378 L782.22656 169.14407 L783.20313 164.69669 L784.17969 160.01775 L785.15625 155.12436 L786.13281 150.03342 L787.10938 144.76343 L788.08594 139.33362 L789.06250 133.76276 L790.03906 128.07109 L791.01563 122.27939 L791.99219 116.40765 L792.96875 110.47762 L793.94531 104.50980 L794.92188 98.52590 L795.89844 92.54774 L796.87500 86.59597 L797.85156 80.69225 L798.82813 74.85811 L799.80469 69.11368 L800.78125 63.47990 L801.75781 57.97728 L802.73438 52.62482 L803.71094 47.44205 L804.68750 42.44781 L805.66406 37.65936 L806.64063 33.09417 L807.61719 28.76884 L808.59375 24.69831 L809.57031 20.89743 L810.54688 17.38002 L811.52344 14.15823 L812.50000 11.24382 L813.47656 8.64739 L814.45313 6.37790 L815.42969 4.44364 L816.40625 2.85164 L817.38281 1.60738 L818.35938 0.71543 L819.33594 0.17903 L820.31250 0.00000 L821.28906 0.17904 L822.26563 0.71547 L823.24219 1.60743 L824.21875 2.85170 L825.19531 4.44372 L826.17188 6.37799 L827.14844 8.64750 L828.12500 11.24395 L829.10156 14.15837 L830.07813 17.38017 L831.05469 20.89759 L832.03125 24.69849 L833.00781 28.76904 L833.98438 33.09438 L834.96094 37.65958 L835.93750 42.44804 L836.91406 47.44229 L837.89063 52.62507 L838.86719 57.97753 L839.84375 63.48016 L840.82031 69.11395 L841.79688 74.85838 L842.77344 80.69253 L843.75000 86.59624 L844.72656 92.54803 L845.70313 98.52618 L846.67969 104.51007 L847.65625 110.47790 L848.63281 116.40792 L849.60938 122.27966 L850.58594 128.07135 L851.56250 133.76302 L852.53906 139.33388 L853.51563 144.76367 L854.49219 150.03366 L855.46875 155.12460 L856.44531 160.01797 L857.42188 164.69690 L858.39844 169.14429 L859.37500 173.34396 L860.35156 177.28143 L861.32813 180.94234 L862.30469 184.31334 L863.28125 187.38281 L864.25781 190.13954 L865.23438 192.57352 L866.21094 194.67635 L867.18750 196.44031 L868.16406 197.85904 L869.14063 198.92761 L870.11719 199.64212 L871.09375 200.00000 L872.07031 199.99998 L873.04688 199.64207 L874.02344 198.92760 L875.00000 197.85899 L875.97656 196.44017 L876.95313 194.67628 L877.92969 192.57346 L878.90625 190.13930 L879.88281 187.38274 L880.85938 184.31325 L881.83594 180.94202 L882.81250 177.28134 L883.78906 173.34386 L884.76563 169.14389 L885.74219 164.69678 L886.71875 160.01785 L887.69531 155.12416 L888.67188 150.03352 L889.64844 144.76353 L890.62500 139.33339 L891.60156 133.76286 L892.57813 128.07121 L893.55469 122.27914 L894.53125 116.40777 L895.50781 110.47736 L896.48438 104.50954 L897.46094 98.52602 L898.43750 92.54749 L899.41406 86.59572 L900.39063 80.69238 L901.36719 74.85786 L902.34375 69.11380 L903.32031 63.48001 L904.29688 57.97705 L905.27344 52.62494 L906.25000 47.44216 L907.22656 42.44761 L908.20313 37.65947 L909.17969 33.09426 L910.15625 28.76866 L911.13281 24.69839 L912.10938 20.89750 L913.08594 17.37988 L914.06250 14.15829 L915.03906 11.24388 L916.01563 8.64728 L916.99219 6.37794 L917.96875 4.44367 L918.94531 2.85157 L919.92188 1.60740 L920.89844 0.71545 L921.87500 0.17901 L922.85156 0.00000 L923.82813 0.17903 L924.80469 0.71550 L925.78125 1.60740 L926.75781 2.85167 L927.73438 4.44380 L928.71094 6.37795 L929.68750 8.64745 L930.66406 11.24407 L931.64063 14.15831 L932.61719 17.38010 L933.59375 20.89775 L934.57031 24.69841 L935.54688 28.76895 L936.52344 33.09457 L937.50000 37.65949 L938.47656 42.44794 L939.45313 47.44250 L940.42969 52.62496 L941.40625 57.97742 L942.38281 63.48040 L943.35938 69.11383 L944.33594 74.85826 L945.31250 80.69278 L946.28906 86.59612 L947.26563 92.54790 L948.24219 98.52644 L949.21875 104.50995 L950.19531 110.47778 L951.17188 116.40817 L952.14844 122.27954 L953.12500 128.07161 L954.10156 133.76326 L955.07813 139.33377 L956.05469 144.76390 L957.03125 150.03387 L958.00781 155.12450 L958.98438 160.01819 L959.96094 164.69679 L960.93750 169.14420 L961.91406 173.34413 L962.89063 177.28136 L963.86719 180.94225 L964.84375 184.31348 L965.82031 187.38275 L966.79688 190.13948 L967.77344 192.57361 L968.75000 194.67630 L969.72656 196.44028 L970.70313 197.85909 L971.67969 198.92760 L972.65625 199.64212 L973.63281 200.00000 L974.60938 200.00000 L975.58594 199.64209 L976.56250 198.92755 L977.53906 197.85902 L978.51563 196.44020 L979.49219 194.67621 L980.46875 192.57350 L981.44531 190.13936 L982.42188 187.38260 L983.39844 184.31331 L984.37500 180.94209 L985.35156 177.28117 L986.32813 173.34393 L987.30469 169.14398 L988.28125 164.69658 L989.25781 160.01794 L990.23438 155.12425 L991.21094 150.03329 L992.18750 144.76366 L993.16406 139.33351 L994.14063 133.76263 L995.11719 128.07133 L996.09375 122.27926 L997.07031 116.40752 L998.04688 110.47749 L999.02344 104.50967" /><path fill="none" stroke="#000000" d="M0 300.00000  L0.00000 300.00000  L0.97656 300.00000  L1.95313 300.00000  L2.92969 300.00000  L3.90625 300.00000  L4.88281 300.00000  L5.85938 300.00000  L6.83594 300.00000  L7.81250 300.00000  L8.78906 300.00000  L9.76563 300.00000  L10.74219 300.00000  L11.71875 300.00000  L12.69531 300.00000  L13.67188 300.00000  L14.64844 300.00000  L15.62500 300.00000  L16.60156 300.00000  L17.57813 300.00000  L18.55469 300.00000  L19.53125 300.00000  L20.50781 300.00000  L21.48438 300.00000  L22.46094 300.00000  L23.43750 300.00000  L24.41406 300.00000  L25.39063 300.00000  L26.36719 300.00000  L27.34375 300.00000  L28.32031 300.00000  L29.29688 300.00000  L30.27344 300.00000  L31.25000 300.00000  L32.22656 300.00000  L33.20313 300.00000  L34.17969 300.00000  L35.15625 300.00000  L36.13281 300.00000  L37.10938 300.00000  L38.08594 300.00000  L39.06250 300.00000  L40.03906 300.00000  L41.01563 300.00000  L41.99219 300.00000  L42.96875 300.00000  L43.94531 300.00000  L44.92188 300.00000  L45.89844 300.00000  L46.87500 300.00000  L47.85156 300.00000  L48.82813 300.00000  L49.80469 300.00000  L50.78125 300.00000  L51.75781 300.00000  L52.73438 300.00000  L53.71094 300.00000  L54.68750 300.00000  L55.66406 300.00000  L56.64063 300.00000  L57.61719 300.00000  L58.59375 300.00000  L59.57031 300.00000  L60.54688 300.00000  L61.52344 300.00000  L62.50000 300.00000  L63.47656 300.00000  L64.45313 300.00000  L65.42969 300.00000  L66.40625 300.00000  L67.38281 300.00000  L68.35938 300.00000  L69.33594 300.00000  L70.31250 300.00000  L71.28906 300.00000  L72.26563 300.00000  L73.24219 300.00000  L74.21875 300.00000  L75.19531 300.00000  L76.17188 300.00000  L77.14844 300.00000  L78.12500 300.00000  L79.10156 300.00000  L80.07813 300.00000  L81.05469 300.00000  L82.03125 300.00000  L83.00781 300.00000  L83.98438 300.00000  L84.96094 300.00000  L85.93750 300.00000  L86.91406 300.00000  L87.89063 300.00000  L88.86719 300.00000  L89.84375 300.00000  L90.82031 300.00000  L91.79688 300.00000  L92.77344 300.00000  L93.75000 300.00000  L94.72656 300.00000  L95.70313 300.00000  L96.67969 300.00000  L97.65625 300.00000  L98.63281 300.00000  L99.60938 300.00000  L100.58594 300.00000  L101.56250 300.00000  L102.53906 300.00000  L103.51563 300.00000  L104.49219 300.00000  L105.46875 300.00000  L106.44531 300.00000  L107.42188 300.00000  L108.39844 300.00000  L109.37500 300.00000  L110.35156 300.00000  L111.32813 300.00000  L112.30469 300.00000  L113.28125 300.00000  L114.25781 300.00000  L115.23438 300.00000  L116.21094 300.00000  L117.18750 300.00000  L118.16406 300.00000  L119.14063 300.00000  L120.11719 300.00000  L121.09375 300.00000  L122.07031 300.00000  L123.04688 300.00000  L124.02344 300.00000  L125.00000 300.00000  L125.97656 300.00000  L126.95313 300.00000  L127.92969 300.00000  L128.90625 300.00000  L129.88281 300.00000  L130.85938 300.00000  L131.83594 300.00000  L132.81250 300.00000  L133.78906 300.00000  L134.76563 300.00000  L135.74219 300.00000  L136.71875 300.00000  L137.69531 300.00000  L138.67188 300.00000  L139.64844 300.00000  L140.62500 300.00000  L141.60156 300.00000  L142.57813 300.00000  L143.55469 300.00000  L144.53125 300.00000  L145.50781 300.00000  L146.48438 300.00000  L147.46094 300.00000  L148.43750 300.00000  L149.41406 300.00000  L150.39063 300.00000  L151.36719 300.00000  L152.34375 300.00000  L153.32031 300.00000  L154.29688 300.00000  L155.27344 300.00000  L156.25000 300.00000  L157.22656 300.00000  L158.20313 300.00000  L159.17969 300.00000  L160.15625 300.00000  L161.13281 300.00000  L162.10938 300.00000  L163.08594 300.00000  L164.06250 300.00000  L165.03906 300.00000  L166.01563 300.00000  L166.99219 300.00000  L167.96875 300.00000  L168.94531 300.00000  L169.92188 300.00000  L170.89844 300.00000  L171.87500 300.00000  L172.85156 300.00000  L173.82813 300.00000  L174.80469 300.00000  L175.78125 300.00000  L176.75781 300.00000  L177.73438 300.00000  L178.71094 300.00000  L179.68750 300.00000  L180.66406 300.00000  L181.64063 300.00000  L182.61719 300.00000  L183.59375 300.00000  L184.57031 300.00000  L185.54688 300.00000  L186.52344 300.00000  L187.50000 300.00000  L188.47656 300.00000  L189.45313 300.00000  L190.42969 300.00000  L191.40625 300.00000  L192.38281 300.00000  L193.35938 300.00000  L194.33594 300.00000  L195.31250 300.00000  L196.28906 300.00000  L197.26563 300.00000  L198.24219 300.00000  L199.21875 300.00000  L200.19531 300.00000  L201.17188 300.00000  L202.14844 300.00000  L203.12500 300.00000  L204.10156 300.00000  L205.07813 300.00000  L206.05469 300.00000  L207.03125 300.00000  L208.00781 300.00000  L208.98438 300.00000  L209.96094 300.00000  L210.93750 300.00000  L211.91406 300.00000  L212.89063 300.00000  L213.86719 300.00000  L214.84375 300.00000  L215.82031 300.00000  L216.79688 300.00000  L217.77344 300.00000  L218.75000 300.00000  L219.72656 300.00000  L220.70313 300.00000  L221.67969 300.00000  L222.65625 300.00000  L223.63281 300.00000  L224.60938 300.00000  L225.58594 300.00000  L226.56250 300.00000  L227.53906 300.00000  L228.51563 300.00000  L229.49219 300.00000  L230.46875 300.00000  L231.44531 300.00000  L232.42188 300.00000  L233.39844 300.00000  L234.37500 300.00000  L235.35156 300.00000  L236.32813 300.00000  L237.30469 300.00000  L238.28125 300.00000  L239.25781 300.00000  L240.23438 300.00000  L241.21094 300.00000  L242.18750 300.00000  L243.16406 300.00000  L244.14063 300.00000  L245.11719 300.00000  L246.09375 300.00000  L247.07031 300.00000  L248.04688 300.00000  L249.02344 300.00000  L250.00000 300.00000  L250.97656 300.00000  L251.95313 300.00000  L252.92969 300.00000  L253.90625 300.00000  L254.88281 300.00000  L255.85938 300.00000  L256.83594 300.00000  L257.81250 300.00000  L258.78906 300.00000  L259.76563 300.00000  L260.74219 300.00000  L261.71875 300.00000  L262.69531 300.00000  L263.67188 300.00000  L264.64844 300.00000  L265.62500 300.00000  L266.60156 300.00000  L267.57813 300.00000  L268.55469 300.00000  L269.53125 300.00000  L270.50781 300.00000  L271.48438 300.00000  L272.46094 300.00000  L273.43750 300.00000  L274.41406 300.00000  L275.39063 300.00000  L276.36719 300.00000  L277.34375 300.00000  L278.32031 300.00000  L279.29688 300.00000  L280.27344 300.00000  L281.25000 300.00000  L282.22656 300.00000  L283.20313 300.00000  L284.17969 300.00000  L285.15625 300.00000  L286.13281 300.00000  L287.10938 300.00000  L288.08594 300.00000  L289.06250 300.00000  L290.03906 300.00000  L291.01563 300.00000  L291.99219 300.00000  L292.96875 300.00000  L293.94531 300.00000  L294.92188 300.00000  L295.89844 300.00000  L296.87500 300.00000  L297.85156 300.00000  L298.82813 300.00000  L299.80469 300.00000  L300.78125 300.00000  L301.75781 300.00000  L302.73438 300.00000  L303.71094 300.00000  L304.68750 300.00000  L305.66406 300.00000  L306.64063 300.00000  L307.61719 300.00000  L308.59375 300.00000  L309.57031 300.00000  L310.54688 300.00000  L311.52344 300.00000  L312.50000 300.00000  L313.47656 300.00000  L314.45313 300.00000  L315.42969 300.00000  L316.40625 300.00000  L317.38281 300.00000  L318.35938 300.00000  L319.33594 300.00000  L320.31250 300.00000  L321.28906 300.00000  L322.26563 300.00000  L323.24219 300.00000  L324.21875 300.00000  L325.19531 300.00000  L326.17188 300.00000  L327.14844 300.00000  L328.12500 300.00000  L329.10156 300.00000  L330.07813 300.00000  L331.05469 300.00000  L332.03125 300.00000  L333.00781 300.00000  L333.98438 300.00000  L334.96094 300.00000  L335.93750 300.00000  L336.91406 300.00000  L337.89063 300.00000  L338.86719 300.00000  L339.84375 300.00000  L340.82031 300.00000  L341.79688 300.00000  L342.77344 300.00000  L343.75000 300.00000  L344.72656 300.00000  L345.70313 300.00000  L346.67969 300.00000  L347.65625 300.00000  L348.63281 300.00000  L349.60938 300.00000  L350.58594 300.00000  L351.56250 300.00000  L352.53906 300.00000  L353.51563 300.00000  L354.49219 300.00000  L355.46875 300.00000  L356.44531 300.00000  L357.42188 300.00000  L358.39844 300.00000  L359.37500 300.00000  L360.35156 300.00000  L361.32813 300.00000  L362.30469 300.00000  L363.28125 300.00000  L364.25781 300.00000  L365.23438 300.00000  L366.21094 300.00000  L367.18750 300.00000  L368.16406 300.00000  L369.14063 300.00000  L370.11719 300.00000  L371.09375 300.00000  L372.07031 300.00000  L373.04688 300.00000  L374.02344 300.00000  L375.00000 300.00000  L375.97656 300.00000  L376.95313 300.00000  L377.92969 300.00000  L378.90625 300.00000  L379.88281 300.00000  L380.85938 300.00000  L381.83594 300.00000  L382.81250 300.00000  L383.78906 300.00000  L384.76563 300.00000  L385.74219 300.00000  L386.71875 300.00000  L387.69531 300.00000  L388.67188 300.00000  L389.64844 300.00000  L390.62500 300.00000  L391.60156 300.00000  L392.57813 300.00000  L393.55469 300.00000  L394.53125 300.00000  L395.50781 300.00000  L396.48438 300.00000  L397.46094 300.00000  L398.43750 300.00000  L399.41406 300.00000  L400.39063 300.00000  L401.36719 300.00000  L402.34375 300.00000  L403.32031 300.00000  L404.29688 300.00000  L405.27344 300.00000  L406.25000 300.00000  L407.22656 300.00000  L408.20313 300.00000  L409.17969 300.00000  L410.15625 300.00000  L411.13281 300.00000  L412.10938 300.00000  L413.08594 300.00000  L414.06250 300.00000  L415.03906 300.00000  L416.01563 300.00000  L416.99219 300.00000  L417.96875 300.00000  L418.94531 300.00000  L419.92188 300.00000  L420.89844 300.00000  L421.87500 300.00000  L422.85156 300.00000  L423.82813 300.00000  L424.80469 300.00000  L425.78125 300.00000  L426.75781 300.00000  L427.73438 300.00000  L428.71094 300.00000  L429.68750 300.00000  L430.66406 300.00000  L431.64063 300.00000  L432.61719 300.00000  L433.59375 300.00000  L434.57031 300.00000  L435.54688 300.00000  L436.52344 300.00000  L437.50000 300.00000  L438.47656 300.00000  L439.45313 300.00000  L440.42969 300.00000  L441.40625 300.00000  L442.38281 300.00000  L443.35938 300.00000  L444.33594 300.00000  L445.31250 300.00000  L446.28906 300.00000  L447.26563 300.00000  L448.24219 300.00000  L449.21875 300.00000  L450.19531 300.00000  L451.17188 300.00000  L452.14844 300.00000  L453.12500 300.00000  L454.10156 300.00000  L455.07813 300.00000  L456.05469 300.00000  L457.03125 300.00000  L458.00781 300.00000  L458.98438 300.00000  L459.96094 300.00000  L460.93750 300.00000  L461.91406 300.00000  L462.89063 300.00000  L463.86719 300.00000  L464.84375 300.00000  L465.82031 300.00000  L466.79688 300.00000  L467.77344 300.00000  L468.75000 300.00000  L469.72656 300.00000  L470.70313 300.00000  L471.67969 300.00000  L472.65625 300.00000  L473.63281 300.00000  L474.60938 300.00000  L475.58594 300.00000  L476.56250 300.00000  L477.53906 300.00000  L478.51563 300.00000  L479.49219 300.00000  L480.46875 300.00000  L481.44531 300.00000  L482.42188 300.00000  L483.39844 300.00000  L484.37500 300.00000  L485.35156 300.00000  L486.32813 300.00000  L487.30469 300.00000  L488.28125 300.00000  L489.25781 300.00000  L490.23438 300.00000  L491.21094 300.00000  L492.18750 300.00000  L493.16406 300.00000  L494.14063 300.00000  L495.11719 300.00000  L496.09375 300.00000  L497.07031 300.00000  L498.04688 300.00000  L499.02344 300.00000  L500.00000 300.00000  L500.97656 300.00000  L501.95313 300.00000  L502.92969 300.00000  L503.90625 300.00000  L504.88281 300.00000  L505.85938 300.00000  L506.83594 300.00000  L507.81250 300.00000  L508.78906 300.00000  L509.76563 300.00000  L510.74219 300.00000  L511.71875 300.00000  L512.69531 300.00000  L513.67188 300.00000  L514.64844 300.00000  L515.62500 300.00000  L516.60156 300.00000  L517.57813 300.00000  L518.55469 300.00000  L519.53125 300.00000  L520.50781 300.00000  L521.48438 300.00000  L522.46094 300.00000  L523.43750 300.00000  L524.41406 300.00000  L525.39063 300.00000  L526.36719 300.00000  L527.34375 300.00000  L528.32031 300.00000  L529.29688 300.00000  L530.27344 300.00000  L531.25000 300.00000  L532.22656 300.00000  L533.20313 300.00000  L534.17969 300.00000  L535.15625 300.00000  L536.13281 300.00000  L537.10938 300.00000  L538.08594 300.00000  L539.06250 300.00000  L540.03906 300.00000  L541.01563 300.00000  L541.99219 300.00000  L542.96875 300.00000  L543.94531 300.00000  L544.92188 300.00000  L545.89844 300.00000  L546.87500 300.00000  L547.85156 300.00000  L548.82813 300.00000  L549.80469 300.00000  L550.78125 300.00000  L551.75781 300.00000  L552.73438 300.00000  L553.71094 300.00000  L554.68750 300.00000  L555.66406 300.00000  L556.64063 300.00000  L557.61719 300.00000  L558.59375 300.00000  L559.57031 300.00000  L560.54688 300.00000  L561.52344 300.00000  L562.50000 300.00000  L563.47656 300.00000  L564.45313 300.00000  L565.42969 300.00000  L566.40625 300.00000  L567.38281 300.00000  L568.35938 300.00000  L569.33594 300.00000  L570.31250 300.00000  L571.28906 300.00000  L572.26563 300.00000  L573.24219 300.00000  L574.21875 300.00000  L575.19531 300.00000  L576.17188 300.00000  L577.14844 300.00000  L578.12500 300.00000  L579.10156 300.00000  L580.07813 300.00000  L581.05469 300.00000  L582.03125 300.00000  L583.00781 300.00000  L583.98438 300.00000  L584.96094 300.00000  L585.93750 300.00000  L586.91406 300.00000  L587.89063 300.00000  L588.86719 300.00000  L589.84375 300.00000  L590.82031 300.00000  L591.79688 300.00000  L592.77344 300.00000  L593.75000 300.00000  L594.72656 300.00000  L595.70313 300.00000  L596.67969 300.00000  L597.65625 300.00000  L598.63281 300.00000  L599.60938 300.00000  L600.58594 300.00000  L601.56250 300.00000  L602.53906 300.00000  L603.51563 300.00000  L604.49219 300.00000  L605.46875 300.00000  L606.44531 300.00000  L607.42188 300.00000  L608.39844 300.00000  L609.37500 300.00000  L610.35156 300.00000  L611.32813 300.00000  L612.30469 300.00000  L613.28125 300.00000  L614.25781 300.00000  L615.23438 300.00000  L616.21094 300.00000  L617.18750 300.00000  L618.16406 300.00000  L619.14063 300.00000  L620.11719 300.00000  L621.09375 300.00000  L622.07031 300.00000  L623.04688 300.00000  L624.02344 300.00000  L625.00000 300.00000  L625.97656 300.00000  L626.95313 300.00000  L627.92969 300.00000  L628.90625 300.00000  L629.88281 300.00000  L630.85938 300.00000  L631.83594 300.00000  L632.81250 300.00000  L633.78906 300.00000  L634.76563 300.00000  L635.74219 300.00000  L636.71875 300.00000  L637.69531 300.00000  L638.67188 300.00000  L639.64844 300.00000  L640.62500 300.00000  L641.60156 300.00000  L642.57813 300.00000  L643.55469 300.00000  L644.53125 300.00000  L645.50781 300.00000  L646.48438 300.00000  L647.46094 300.00000  L648.43750 300.00000  L649.41406 300.00000  L650.39063 300.00000  L651.36719 300.00000  L652.34375 300.00000  L653.32031 300.00000  L654.29688 300.00000  L655.27344 300.00000  L656.25000 300.00000  L657.22656 300.00000  L658.20313 300.00000  L659.17969 300.00000  L660.15625 300.00000  L661.13281 300.00000  L662.10938 300.00000  L663.08594 300.00000  L664.06250 300.00000  L665.03906 300.00000  L666.01563 300.00000  L666.99219 300.00000  L667.96875 300.00000  L668.94531 300.00000  L669.92188 300.00000  L670.89844 300.00000  L671.87500 300.00000  L672.85156 300.00000  L673.82813 300.00000  L674.80469 300.00000  L675.78125 300.00000  L676.75781 300.00000  L677.73438 300.00000  L678.71094 300.00000  L679.68750 300.00000  L680.66406 300.00000  L681.64063 300.00000  L682.61719 300.00000  L683.59375 300.00000  L684.57031 300.00000  L685.54688 300.00000  L686.52344 300.00000  L687.50000 300.00000  L688.47656 300.00000  L689.45313 300.00000  L690.42969 300.00000  L691.40625 300.00000  L692.38281 300.00000  L693.35938 300.00000  L694.33594 300.00000  L695.31250 300.00000  L696.28906 300.00000  L697.26563 300.00000  L698.24219 300.00000  L699.21875 300.00000  L700.19531 300.00000  L701.17188 300.00000  L702.14844 300.00000  L703.12500 300.00000  L704.10156 300.00000  L705.07813 300.00000  L706.05469 300.00000  L707.03125 300.00000  L708.00781 300.00000  L708.98438 300.00000  L709.96094 300.00000  L710.93750 300.00000  L711.91406 300.00000  L712.89063 300.00000  L713.86719 300.00000  L714.84375 300.00000  L715.82031 300.00000  L716.79688 300.00000  L717.77344 300.00000  L718.75000 300.00000  L719.72656 300.00000  L720.70313 300.00000  L721.67969 300.00000  L722.65625 300.00000  L723.63281 300.00000  L724.60938 300.00000  L725.58594 300.00000  L726.56250 300.00000  L727.53906 300.00000  L728.51563 300.00000  L729.49219 300.00000  L730.46875 300.00000  L731.44531 300.00000  L732.42188 300.00000  L733.39844 300.00000  L734.37500 300.00000  L735.35156 300.00000  L736.32813 300.00000  L737.30469 300.00000  L738.28125 300.00000  L739.25781 300.00000  L740.23438 300.00000  L741.21094 300.00000  L742.18750 300.00000  L743.16406 300.00000  L744.14063 300.00000  L745.11719 300.00000  L746.09375 300.00000  L747.07031 300.00000  L748.04688 300.00000  L749.02344 300.00000  L750.00000 300.00000  L750.97656 300.00000  L751.95313 300.00000  L752.92969 300.00000  L753.90625 300.00000  L754.88281 300.00000  L755.85938 300.00000  L756.83594 300.00000  L757.81250 300.00000  L758.78906 300.00000  L759.76563 300.00000  L760.74219 300.00000  L761.71875 300.00000  L762.69531 300.00000  L763.67188 300.00000  L764.64844 300.00000  L765.62500 300.00000  L766.60156 300.00000  L767.57813 300.00000  L768.55469 300.00000  L769.53125 300.00000  L770.50781 300.00000  L771.48438 300.00000  L772.46094 300.00000  L773.43750 300.00000  L774.41406 300.00000  L775.39063 300.00000  L776.36719 300.00000  L777.34375 300.00000  L778.32031 300.00000  L779.29688 300.00000  L780.27344 300.00000  L781.25000 300.00000  L782.22656 300.00000  L783.20313 300.00000  L784.17969 300.00000  L785.15625 300.00000  L786.13281 300.00000  L787.10938 300.00000  L788.08594 300.00000  L789.06250 300.00000  L790.03906 300.00000  L791.01563 300.00000  L791.99219 300.00000  L792.96875 300.00000  L793.94531 300.00000  L794.92188 300.00000  L795.89844 300.00000  L796.87500 300.00000  L797.85156 300.00000  L798.82813 300.00000  L799.80469 300.00000  L800.78125 300.00000  L801.75781 300.00000  L802.73438 300.00000  L803.71094 300.00000  L804.68750 300.00000  L805.66406 300.00000  L806.64063 300.00000  L807.61719 300.00000  L808.59375 300.00000  L809.57031 300.00000  L810.54688 300.00000  L811.52344 300.00000  L812.50000 300.00000  L813.47656 300.00000  L814.45313 300.00000  L815.42969 300.00000  L816.40625 300.00000  L817.38281 300.00000  L818.35938 300.00000  L819.33594 300.00000  L820.31250 300.00000  L821.28906 300.00000  L822.26563 300.00000  L823.24219 300.00000  L824.21875 300.00000  L825.19531 300.00000  L826.17188 300.00000  L827.14844 300.00000  L828.12500 300.00000  L829.10156 300.00000  L830.07813 300.00000  L831.05469 300.00000  L832.03125 300.00000  L833.00781 300.00000  L833.98438 300.00000  L834.96094 300.00000  L835.93750 300.00000  L836.91406 300.00000  L837.89063 300.00000  L838.86719 300.00000  L839.84375 300.00000  L840.82031 300.00000  L841.79688 300.00000  L842.77344 300.00000  L843.75000 300.00000  L844.72656 300.00000  L845.70313 300.00000  L846.67969 300.00000  L847.65625 300.00000  L848.63281 300.00000  L849.60938 300.00000  L850.58594 300.00000  L851.56250 300.00000  L852.53906 300.00000  L853.51563 300.00000  L854.49219 300.00000  L855.46875 300.00000  L856.44531 300.00000  L857.42188 300.00000  L858.39844 300.00000  L859.37500 300.00000  L860.35156 300.00000  L861.32813 300.00000  L862.30469 300.00000  L863.28125 300.00000  L864.25781 300.00000  L865.23438 300.00000  L866.21094 300.00000  L867.18750 300.00000  L868.16406 300.00000  L869.14063 300.00000  L870.11719 300.00000  L871.09375 300.00000  L872.07031 300.00000  L873.04688 300.00000  L874.02344 300.00000  L875.00000 300.00000  L875.97656 300.00000  L876.95313 300.00000  L877.92969 300.00000  L878.90625 300.00000  L879.88281 300.00000  L880.85938 300.00000  L881.83594 300.00000  L882.81250 300.00000  L883.78906 300.00000  L884.76563 300.00000  L885.74219 300.00000  L886.71875 300.00000  L887.69531 300.00000  L888.67188 300.00000  L889.64844 300.00000  L890.62500 300.00000  L891.60156 300.00000  L892.57813 300.00000  L893.55469 300.00000  L894.53125 300.00000  L895.50781 300.00000  L896.48438 300.00000  L897.46094 300.00000  L898.43750 300.00000  L899.41406 300.00000  L900.39063 300.00000  L901.36719 300.00000  L902.34375 300.00000  L903.32031 300.00000  L904.29688 300.00000  L905.27344 300.00000  L906.25000 300.00000  L907.22656 300.00000  L908.20313 300.00000  L909.17969 300.00000  L910.15625 300.00000  L911.13281 300.00000  L912.10938 300.00000  L913.08594 300.00000  L914.06250 300.00000  L915.03906 300.00000  L916.01563 300.00000  L916.99219 300.00000  L917.96875 300.00000  L918.94531 300.00000  L919.92188 300.00000  L920.89844 300.00000  L921.87500 300.00000  L922.85156 300.00000  L923.82813 300.00000  L924.80469 300.00000  L925.78125 300.00000  L926.75781 300.00000  L927.73438 300.00000  L928.71094 300.00000  L929.68750 300.00000  L930.66406 300.00000  L931.64063 300.00000  L932.61719 300.00000  L933.59375 300.00000  L934.57031 300.00000  L935.54688 300.00000  L936.52344 300.00000  L937.50000 300.00000  L938.47656 300.00000  L939.45313 300.00000  L940.42969 300.00000  L941.40625 300.00000  L942.38281 300.00000  L943.35938 300.00000  L944.33594 300.00000  L945.31250 300.00000  L946.28906 300.00000  L947.26563 300.00000  L948.24219 300.00000  L949.21875 300.00000  L950.19531 300.00000  L951.17188 300.00000  L952.14844 300.00000  L953.12500 300.00000  L954.10156 300.00000  L955.07813 300.00000  L956.05469 300.00000  L957.03125 300.00000  L958.00781 300.00000  L958.98438 300.00000  L959.96094 300.00000  L960.93750 300.00000  L961.91406 300.00000  L962.89063 300.00000  L963.86719 300.00000  L964.84375 300.00000  L965.82031 300.00000  L966.79688 300.00000  L967.77344 300.00000  L968.75000 300.00000  L969.72656 300.00000  L970.70313 300.00000  L971.67969 300.00000  L972.65625 300.00000  L973.63281 300.00000  L974.60938 300.00000  L975.58594 300.00000  L976.56250 300.00000  L977.53906 300.00000  L978.51563 300.00000  L979.49219 300.00000  L980.46875 300.00000  L981.44531 300.00000  L982.42188 300.00000  L983.39844 300.00000  L984.37500 300.00000  L985.35156 300.00000  L986.32813 300.00000  L987.30469 300.00000  L988.28125 300.00000  L989.25781 300.00000  L990.23438 300.00000  L991.21094 300.00000  L992.18750 300.00000  L993.16406 300.00000  L994.14063 300.00000  L995.11719 300.00000  L996.09375 300.00000  L997.07031 300.00000  L998.04688 300.00000  L999.02344 300.00000 " /></g><text x="1000.00000" dx="10" y="100.02238">[-0.99955;1.00000]</text><text x="1000.00000" dx="10" y="300.00000">[-0.00000;0.00000]</text></svg>