<svg xmlns="http://www.w3.org/2000/svg" version="1.1"><g stroke-width="0.6"><path fill="none" stroke="#000000" d="M0 199.99995 L1000.00000 199.99995" /><path fill="none" stroke="#000000" d="M0 300.00000 L1000.00000 300.00000" /><path fill="none" stroke="#000000" d="M500.00000 0 L500.00000 400.00000" /><path fill="none" stroke="#550000" d="M0 350.48566 L1000.00000 350.48566" /><path fill="none" stroke="#550000" d="M0 300.00000 L1000.00000 300.00000" /><path fill="none" stroke="#550000" d="M0 249.51433 L1000.00000 249.51433" /><path fill="none" stroke="#000000" d="M0 199.99995  L0.00000 192.58527 L0.97656 192.49562 L1.95313 192.21654 L2.92969 191.71364 L3.90625 190.91757 L4.88281 189.69347 L5.85938 187.77097 L6.83594 184.53613 L7.81250 178.26796 L8.78906 161.68207 L9.76563 6.02569 L10.74219 139.79430 L11.71875 174.38213 L12.69531 183.86966 L13.67188 188.28978 L14.64844 190.84010 L15.62500 192.49686 L16.60156 193.65858 L17.57813 194.51785 L18.55469 195.17906 L19.53125 195.70377 L20.50781 196.13060 L21.48438 196.48508 L22.46094 196.78426 L23.43750 197.04050 L24.41406 197.26265 L25.39063 197.45691 L26.36719 197.62941 L27.34375 197.78279 L28.32031 197.92082 L29.29688 198.04562 L30.27344 198.15921 L31.25000 198.26282 L32.22656 198.35803 L33.20313 198.44580 L34.17969 198.52698 L35.15625 198.60219 L36.13281 198.67200 L37.10938 198.73715 L38.08594 198.79750 L39.06250 198.85399 L40.03906 198.90654 L41.01563 198.95537 L41.99219 199.00064 L42.96875 199.04240 L43.94531 199.08073 L44.92188 199.11575 L45.89844 199.14726 L46.87500 199.17537 L47.85156 199.19971 L48.82813 199.22047 L49.80469 199.23726 L50.78125 199.25020 L51.75781 199.25909 L52.73438 199.26376 L53.71094 199.26436 L54.68750 199.26021 L55.66406 199.25220 L56.64063 199.23972 L57.61719 199.22394 L58.59375 199.20193 L59.57031 199.17801 L60.54688 199.14883 L61.52344 199.11578 L62.50000 199.07863 L63.47656 199.03767 L64.45313 198.99307 L65.42969 198.94429 L66.40625 198.89165 L67.38281 198.83455 L68.35938 198.77304 L69.33594 198.70760 L70.31250 198.63672 L71.28906 198.56085 L72.26563 198.47929 L73.24219 198.39175 L74.21875 198.29768 L75.19531 198.19615 L76.17188 198.08644 L77.14844 197.96750 L78.12500 197.83844 L79.10156 197.69775 L80.07813 197.54373 L81.05469 197.37427 L82.03125 197.18697 L83.00781 196.97882 L83.98438 196.74632 L84.96094 196.48441 L85.93750 196.18686 L86.91406 195.84578 L87.89063 195.45065 L88.86719 194.98799 L89.84375 194.43727 L90.82031 193.77145 L91.79688 192.94864 L92.77344 191.90527 L93.75000 190.53815 L94.72656 188.66742 L95.70313 185.94987 L96.67969 181.63797 L97.65625 173.73924 L98.63281 154.56702 L99.60938 39.57153 L100.58594 92.12872 L101.56250 159.21362 L102.53906 174.70045 L103.51563 181.58765 L104.49219 185.48364 L105.46875 187.99086 L106.44531 189.74063 L107.42188 191.03204 L108.39844 192.02483 L109.37500 192.81235 L110.35156 193.45267 L111.32813 193.98393 L112.30469 194.43214 L113.28125 194.81552 L114.25781 195.14754 L115.23438 195.43787 L116.21094 195.69423 L117.18750 195.92241 L118.16406 196.12689 L119.14063 196.31145 L120.11719 196.47870 L121.09375 196.63148 L122.07031 196.77126 L123.04688 196.89986 L124.02344 197.01886 L125.00000 197.12923 L125.97656 197.23207 L126.95313 197.32788 L127.92969 197.41786 L128.90625 197.50215 L129.88281 197.58165 L130.85938 197.65662 L131.83594 197.72786 L132.81250 197.79520 L133.78906 197.85928 L134.76563 197.92043 L135.74219 197.97879 L136.71875 198.03456 L137.69531 198.08784 L138.67188 198.13928 L139.64844 198.18875 L140.62500 198.23628 L141.60156 198.28207 L142.57813 198.32620 L143.55469 198.36900 L144.53125 198.41049 L145.50781 198.45076 L146.48438 198.48973 L147.46094 198.52756 L148.43750 198.56448 L149.41406 198.60056 L150.39063 198.63567 L151.36719 198.66972 L152.34375 198.70305 L153.32031 198.73552 L154.29688 198.76741 L155.27344 198.79837 L156.25000 198.82851 L157.22656 198.85753 L158.20313 198.88669 L159.17969 198.91389 L160.15625 198.94115 L161.13281 198.96716 L162.10938 198.99197 L163.08594 199.01579 L164.06250 199.03825 L165.03906 199.05934 L166.01563 199.07848 L166.99219 199.09544 L167.96875 199.11034 L168.94531 199.12299 L169.92188 199.13263 L170.89844 199.13834 L171.87500 199.13911 L172.85156 199.13507 L173.82813 199.12573 L174.80469 199.11067 L175.78125 199.08871 L176.75781 199.05867 L177.73438 199.01985 L178.71094 198.97153 L179.68750 198.91290 L180.66406 198.84247 L181.64063 198.75894 L182.61719 198.66068 L183.59375 198.54599 L184.57031 198.41217 L185.54688 198.25606 L186.52344 198.07335 L187.50000 197.85847 L188.47656 197.60410 L189.45313 197.29927 L190.42969 196.92979 L191.40625 196.47374 L192.38281 195.89828 L193.35938 195.15160 L194.33594 194.14534 L195.31250 192.71802 L196.28906 190.53769 L197.26563 186.79843 L198.24219 178.90291 L199.21875 151.26682 L200.19531 -0.00000 L201.17188 165.82472 L202.14844 180.90004 L203.12500 186.55406 L204.10156 189.51642 L205.07813 191.34024 L206.05469 192.57643 L207.03125 193.46982 L208.00781 194.14590 L208.98438 194.67557 L209.96094 195.10199 L210.93750 195.45265 L211.91406 195.74637 L212.89063 195.99596 L213.86719 196.21092 L214.84375 196.39806 L215.82031 196.56247 L216.79688 196.70810 L217.77344 196.83800 L218.75000 196.95473 L219.72656 197.06017 L220.70313 197.15619 L221.67969 197.24350 L222.65625 197.32355 L223.63281 197.39748 L224.60938 197.46567 L225.58594 197.52888 L226.56250 197.58769 L227.53906 197.64253 L228.51563 197.69386 L229.49219 197.74193 L230.46875 197.78696 L231.44531 197.82999 L232.42188 197.86963 L233.39844 197.90759 L234.37500 197.94368 L235.35156 197.97778 L236.32813 198.01021 L237.30469 198.04103 L238.28125 198.07043 L239.25781 198.09857 L240.23438 198.12529 L241.21094 198.15097 L242.18750 198.17549 L243.16406 198.19920 L244.14063 198.22194 L245.11719 198.24370 L246.09375 198.26459 L247.07031 198.28464 L248.04688 198.30406 L249.02344 198.32289 L250.00000 198.34097 L250.97656 198.35840 L251.95313 198.37544 L252.92969 198.39160 L253.90625 198.40733 L254.88281 198.42285 L255.85938 198.43764 L256.83594 198.45195 L257.81250 198.46600 L258.78906 198.47964 L259.76563 198.49283 L260.74219 198.50562 L261.71875 198.51799 L262.69531 198.53047 L263.67188 198.54211 L264.64844 198.55356 L265.62500 198.56477 L266.60156 198.57556 L267.57813 198.58633 L268.55469 198.59698 L269.53125 198.60716 L270.50781 198.61702 L271.48438 198.62631 L272.46094 198.63560 L273.43750 198.64481 L274.41406 198.65398 L275.39063 198.66295 L276.36719 198.67152 L277.34375 198.67995 L278.32031 198.68820 L279.29688 198.69624 L280.27344 198.70430 L281.25000 198.71196 L282.22656 198.71965 L283.20313 198.72751 L284.17969 198.73428 L285.15625 198.74097 L286.13281 198.74861 L287.10938 198.75529 L288.08594 198.76202 L289.06250 198.76877 L290.03906 198.77521 L291.01563 198.78171 L291.99219 198.78792 L292.96875 198.79407 L293.94531 198.80031 L294.92188 198.80602 L295.89844 198.81189 L296.87500 198.81769 L297.85156 198.82330 L298.82813 198.82883 L299.80469 198.83424 L300.78125 198.83955 L301.75781 198.84486 L302.73438 198.85007 L303.71094 198.85521 L304.68750 198.86014 L305.66406 198.86520 L306.64063 198.87000 L307.61719 198.87488 L308.59375 198.87952 L309.57031 198.88400 L310.54688 198.88863 L311.52344 198.89304 L312.50000 198.89780 L313.47656 198.90207 L314.45313 198.90619 L315.42969 198.91074 L316.40625 198.91522 L317.38281 198.91861 L318.35938 198.92284 L319.33594 198.92694 L320.31250 198.93077 L321.28906 198.93466 L322.26563 198.93835 L323.24219 198.94215 L324.21875 198.94597 L325.19531 198.94977 L326.17188 198.95320 L327.14844 198.95665 L328.12500 198.96030 L329.10156 198.96370 L330.07813 198.96703 L331.05469 198.97049 L332.03125 198.97366 L333.00781 198.97704 L333.98438 198.98022 L334.96094 198.98343 L335.93750 198.98659 L336.91406 198.98973 L337.89063 198.99278 L338.86719 198.99582 L339.84375 198.99876 L340.82031 199.00171 L341.79688 199.00464 L342.77344 199.00745 L343.75000 199.01030 L344.72656 199.01286 L345.70313 199.01559 L346.67969 199.01842 L347.65625 199.02136 L348.63281 199.02385 L349.60938 199.02650 L350.58594 199.02907 L351.56250 199.03152 L352.53906 199.03410 L353.51563 199.03665 L354.49219 199.03922 L355.46875 199.04158 L356.44531 199.04362 L357.42188 199.04622 L358.39844 199.04842 L359.37500 199.05063 L360.35156 199.05316 L361.32813 199.05551 L362.30469 199.05768 L363.28125 199.05974 L364.25781 199.06190 L365.23438 199.06404 L366.21094 199.06625 L367.18750 199.06828 L368.16406 199.07047 L369.14063 199.07240 L370.11719 199.07445 L371.09375 199.07643 L372.07031 199.07834 L373.04688 199.08035 L374.02344 199.08214 L375.00000 199.08409 L375.97656 199.08582 L376.95313 199.08765 L377.92969 199.08958 L378.90625 199.09146 L379.88281 199.09315 L380.85938 199.09488 L381.83594 199.09657 L382.81250 199.09839 L383.78906 199.09982 L384.76563 199.10164 L385.74219 199.10345 L386.71875 199.10507 L387.69531 199.10654 L388.67188 199.10817 L389.64844 199.10960 L390.62500 199.11121 L391.60156 199.11276 L392.57813 199.11429 L393.55469 199.11583 L394.53125 199.11707 L395.50781 199.11865 L396.48438 199.11992 L397.46094 199.12148 L398.43750 199.12288 L399.41406 199.12437 L400.39063 199.12570 L401.36719 199.12697 L402.34375 199.12828 L403.32031 199.12956 L404.29688 199.13089 L405.27344 199.13213 L406.25000 199.13338 L407.22656 199.13452 L408.20313 199.13577 L409.17969 199.13695 L410.15625 199.13828 L411.13281 199.13933 L412.10938 199.14055 L413.08594 199.14172 L414.06250 199.14264 L415.03906 199.14418 L416.01563 199.14502 L416.99219 199.14594 L417.96875 199.14708 L418.94531 199.14818 L419.92188 199.14911 L420.89844 199.15012 L421.87500 199.15120 L422.85156 199.15221 L423.82813 199.15317 L424.80469 199.15421 L425.78125 199.15497 L426.75781 199.15651 L427.73438 199.15710 L428.71094 199.15779 L429.68750 199.15807 L430.66406 199.15883 L431.64063 199.15973 L432.61719 199.16089 L433.59375 199.16194 L434.57031 199.16263 L435.54688 199.16335 L436.52344 199.16403 L437.50000 199.16498 L438.47656 199.16574 L439.45313 199.16643 L440.42969 199.16707 L441.40625 199.16785 L442.38281 199.16862 L443.35938 199.16940 L444.33594 199.17000 L445.31250 199.17050 L446.28906 199.17133 L447.26563 199.17203 L448.24219 199.17261 L449.21875 199.17319 L450.19531 199.17369 L451.17188 199.17418 L452.14844 199.17499 L453.12500 199.17560 L454.10156 199.17592 L455.07813 199.17632 L456.05469 199.17667 L457.03125 199.17834 L458.00781 199.17781 L458.98438 199.17928 L459.96094 199.17946 L460.93750 199.17967 L461.91406 199.17984 L462.89063 199.18048 L463.86719 199.18105 L464.84375 199.18141 L465.82031 199.18173 L466.79688 199.18208 L467.77344 199.18260 L468.75000 199.18306 L469.72656 199.18312 L470.70313 199.18327 L471.67969 199.18340 L472.65625 199.18396 L473.63281 199.18446 L474.60938 199.18484 L475.58594 199.18513 L476.56250 199.18524 L477.53906 199.18570 L478.51563 199.18599 L479.49219 199.18611 L480.46875 199.18645 L481.44531 199.18649 L482.42188 199.18671 L483.39844 199.18697 L484.37500 199.18718 L485.35156 199.18733 L486.32813 199.18741 L487.30469 199.18761 L488.28125 199.18796 L489.25781 199.18787 L490.23438 199.18820 L491.21094 199.18825 L492.18750 199.18822 L493.16406 199.18831 L494.14063 199.18837 L495.11719 199.18852 L496.09375 199.18860 L497.07031 199.18861 L498.04688 199.18861 L499.02344 199.18852 L500.00000 199.18861 L500.97656 199.18852 L501.95313 199.18861 L502.92969 199.18861 L503.90625 199.18860 L504.88281 199.18852 L505.85938 199.18837 L506.83594 199.18831 L507.81250 199.18822 L508.78906 199.18826 L509.76563 199.18820 L510.74219 199.18785 L511.71875 199.18796 L512.69531 199.18759 L513.67188 199.18741 L514.64844 199.18733 L515.62500 199.18718 L516.60156 199.18697 L517.57813 199.18671 L518.55469 199.18649 L519.53125 199.18645 L520.50781 199.18611 L521.48438 199.18599 L522.46094 199.18570 L523.43750 199.18524 L524.41406 199.18513 L525.39063 199.18484 L526.36719 199.18446 L527.34375 199.18396 L528.32031 199.18340 L529.29688 199.18327 L530.27344 199.18312 L531.25000 199.18306 L532.22656 199.18260 L533.20313 199.18208 L534.17969 199.18173 L535.15625 199.18141 L536.13281 199.18105 L537.10938 199.18048 L538.08594 199.17984 L539.06250 199.17967 L540.03906 199.17946 L541.01563 199.17928 L541.99219 199.17781 L542.96875 199.17833 L543.94531 199.17667 L544.92188 199.17632 L545.89844 199.17592 L546.87500 199.17560 L547.85156 199.17499 L548.82813 199.17418 L549.80469 199.17369 L550.78125 199.17319 L551.75781 199.17261 L552.73438 199.17204 L553.71094 199.17133 L554.68750 199.17050 L555.66406 199.17000 L556.64063 199.16940 L557.61719 199.16862 L558.59375 199.16785 L559.57031 199.16707 L560.54688 199.16643 L561.52344 199.16574 L562.50000 199.16498 L563.47656 199.16403 L564.45313 199.16335 L565.42969 199.16261 L566.40625 199.16194 L567.38281 199.16089 L568.35938 199.15974 L569.33594 199.15883 L570.31250 199.15807 L571.28906 199.15779 L572.26563 199.15710 L573.24219 199.15651 L574.21875 199.15497 L575.19531 199.15421 L576.17188 199.15317 L577.14844 199.15221 L578.12500 199.15120 L579.10156 199.15012 L580.07813 199.14911 L581.05469 199.14818 L582.03125 199.14708 L583.00781 199.14594 L583.98438 199.14503 L584.96094 199.14418 L585.93750 199.14264 L586.91406 199.14172 L587.89063 199.14055 L588.86719 199.13933 L589.84375 199.13828 L590.82031 199.13695 L591.79688 199.13577 L592.77344 199.13452 L593.75000 199.13338 L594.72656 199.13213 L595.70313 199.13089 L596.67969 199.12956 L597.65625 199.12828 L598.63281 199.12697 L599.60938 199.12570 L600.58594 199.12437 L601.56250 199.12288 L602.53906 199.12148 L603.51563 199.11992 L604.49219 199.11864 L605.46875 199.11707 L606.44531 199.11583 L607.42188 199.11429 L608.39844 199.11276 L609.37500 199.11121 L610.35156 199.10960 L611.32813 199.10817 L612.30469 199.10654 L613.28125 199.10507 L614.25781 199.10345 L615.23438 199.10164 L616.21094 199.09982 L617.18750 199.09839 L618.16406 199.09657 L619.14063 199.09488 L620.11719 199.09315 L621.09375 199.09146 L622.07031 199.08958 L623.04688 199.08765 L624.02344 199.08582 L625.00000 199.08409 L625.97656 199.08214 L626.95313 199.08035 L627.92969 199.07834 L628.90625 199.07643 L629.88281 199.07445 L630.85938 199.07239 L631.83594 199.07047 L632.81250 199.06828 L633.78906 199.06625 L634.76563 199.06404 L635.74219 199.06190 L636.71875 199.05974 L637.69531 199.05768 L638.67188 199.05551 L639.64844 199.05316 L640.62500 199.05063 L641.60156 199.04842 L642.57813 199.04622 L643.55469 199.04362 L644.53125 199.04158 L645.50781 199.03922 L646.48438 199.03665 L647.46094 199.03410 L648.43750 199.03152 L649.41406 199.02907 L650.39063 199.02650 L651.36719 199.02385 L652.34375 199.02136 L653.32031 199.01842 L654.29688 199.01559 L655.27344 199.01286 L656.25000 199.01030 L657.22656 199.00745 L658.20313 199.00464 L659.17969 199.00171 L660.15625 198.99876 L661.13281 198.99582 L662.10938 198.99278 L663.08594 198.98973 L664.06250 198.98659 L665.03906 198.98343 L666.01563 198.98022 L666.99219 198.97704 L667.96875 198.97366 L668.94531 198.97049 L669.92188 198.96703 L670.89844 198.96370 L671.87500 198.96030 L672.85156 198.95665 L673.82813 198.95320 L674.80469 198.94977 L675.78125 198.94597 L676.75781 198.94215 L677.73438 198.93834 L678.71094 198.93466 L679.68750 198.93077 L680.66406 198.92694 L681.64063 198.92284 L682.61719 198.91861 L683.59375 198.91522 L684.57031 198.91074 L685.54688 198.90619 L686.52344 198.90207 L687.50000 198.89780 L688.47656 198.89304 L689.45313 198.88863 L690.42969 198.88400 L691.40625 198.87952 L692.38281 198.87488 L693.35938 198.87000 L694.33594 198.86520 L695.31250 198.86014 L696.28906 198.85521 L697.26563 198.85007 L698.24219 198.84486 L699.21875 198.83955 L700.19531 198.83424 L701.17188 198.82883 L702.14844 198.82330 L703.12500 198.81769 L704.10156 198.81189 L705.07813 198.80602 L706.05469 198.80032 L707.03125 198.79407 L708.00781 198.78792 L708.98438 198.78171 L709.96094 198.77521 L710.93750 198.76877 L711.91406 198.76202 L712.89063 198.75529 L713.86719 198.74861 L714.84375 198.74097 L715.82031 198.73428 L716.79688 198.72751 L717.77344 198.71965 L718.75000 198.71196 L719.72656 198.70430 L720.70313 198.69624 L721.67969 198.68820 L722.65625 198.67995 L723.63281 198.67152 L724.60938 198.66295 L725.58594 198.65398 L726.56250 198.64481 L727.53906 198.63560 L728.51563 198.62631 L729.49219 198.61702 L730.46875 198.60716 L731.44531 198.59698 L732.42188 198.58633 L733.39844 198.57556 L734.37500 198.56477 L735.35156 198.55356 L736.32813 198.54211 L737.30469 198.53049 L738.28125 198.51799 L739.25781 198.50562 L740.23438 198.49284 L741.21094 198.47964 L742.18750 198.46600 L743.16406 198.45195 L744.14063 198.43764 L745.11719 198.42285 L746.09375 198.40733 L747.07031 198.39160 L748.04688 198.37544 L749.02344 198.35840 L750.00000 198.34097 L750.97656 198.32289 L751.95313 198.30406 L752.92969 198.28464 L753.90625 198.26459 L754.88281 198.24370 L755.85938 198.22194 L756.83594 198.19920 L757.81250 198.17549 L758.78906 198.15097 L759.76563 198.12531 L760.74219 198.09857 L761.71875 198.07043 L762.69531 198.04103 L763.67188 198.01019 L764.64844 197.97778 L765.62500 197.94368 L766.60156 197.90759 L767.57813 197.86963 L768.55469 197.83000 L769.53125 197.78696 L770.50781 197.74193 L771.48438 197.69386 L772.46094 197.64253 L773.43750 197.58769 L774.41406 197.52888 L775.39063 197.46565 L776.36719 197.39748 L777.34375 197.32355 L778.32031 197.24350 L779.29688 197.15619 L780.27344 197.06017 L781.25000 196.95473 L782.22656 196.83798 L783.20313 196.70810 L784.17969 196.56247 L785.15625 196.39806 L786.13281 196.21092 L787.10938 195.99596 L788.08594 195.74637 L789.06250 195.45265 L790.03906 195.10199 L791.01563 194.67557 L791.99219 194.14592 L792.96875 193.46982 L793.94531 192.57643 L794.92188 191.34024 L795.89844 189.51642 L796.87500 186.55406 L797.85156 180.90004 L798.82813 165.82472 L799.80469 -0.00000 L800.78125 151.26683 L801.75781 178.90291 L802.73438 186.79843 L803.71094 190.53769 L804.68750 192.71802 L805.66406 194.14534 L806.64063 195.15160 L807.61719 195.89830 L808.59375 196.47374 L809.57031 196.92979 L810.54688 197.29927 L811.52344 197.60410 L812.50000 197.85847 L813.47656 198.07335 L814.45313 198.25606 L815.42969 198.41217 L816.40625 198.54599 L817.38281 198.66068 L818.35938 198.75896 L819.33594 198.84247 L820.31250 198.91290 L821.28906 198.97153 L822.26563 199.01985 L823.24219 199.05867 L824.21875 199.08871 L825.19531 199.11067 L826.17188 199.12573 L827.14844 199.13507 L828.12500 199.13911 L829.10156 199.13834 L830.07813 199.13263 L831.05469 199.12299 L832.03125 199.11035 L833.00781 199.09544 L833.98438 199.07848 L834.96094 199.05934 L835.93750 199.03827 L836.91406 199.01579 L837.89063 198.99197 L838.86719 198.96716 L839.84375 198.94115 L840.82031 198.91389 L841.79688 198.88669 L842.77344 198.85753 L843.75000 198.82851 L844.72656 198.79837 L845.70313 198.76741 L846.67969 198.73550 L847.65625 198.70305 L848.63281 198.66974 L849.60938 198.63567 L850.58594 198.60054 L851.56250 198.56448 L852.53906 198.52756 L853.51563 198.48973 L854.49219 198.45076 L855.46875 198.41049 L856.44531 198.36900 L857.42188 198.32620 L858.39844 198.28207 L859.37500 198.23628 L860.35156 198.18875 L861.32813 198.13928 L862.30469 198.08784 L863.28125 198.03456 L864.25781 197.97879 L865.23438 197.92041 L866.21094 197.85928 L867.18750 197.79520 L868.16406 197.72786 L869.14063 197.65662 L870.11719 197.58165 L871.09375 197.50214 L872.07031 197.41786 L873.04688 197.32788 L874.02344 197.23207 L875.00000 197.12923 L875.97656 197.01886 L876.95313 196.89986 L877.92969 196.77126 L878.90625 196.63148 L879.88281 196.47870 L880.85938 196.31145 L881.83594 196.12689 L882.81250 195.92241 L883.78906 195.69423 L884.76563 195.43787 L885.74219 195.14754 L886.71875 194.81552 L887.69531 194.43214 L888.67188 193.98393 L889.64844 193.45267 L890.62500 192.81235 L891.60156 192.02484 L892.57813 191.03204 L893.55469 189.74062 L894.53125 187.99086 L895.50781 185.48364 L896.48438 181.58763 L897.46094 174.70045 L898.43750 159.21362 L899.41406 92.12872 L900.39063 39.57153 L901.36719 154.56702 L902.34375 173.73924 L903.32031 181.63797 L904.29688 185.94987 L905.27344 188.66742 L906.25000 190.53815 L907.22656 191.90527 L908.20313 192.94864 L909.17969 193.77145 L910.15625 194.43727 L911.13281 194.98799 L912.10938 195.45065 L913.08594 195.84578 L914.06250 196.18686 L915.03906 196.48441 L916.01563 196.74632 L916.99219 196.97882 L917.96875 197.18697 L918.94531 197.37427 L919.92188 197.54373 L920.89844 197.69775 L921.87500 197.83844 L922.85156 197.96750 L923.82813 198.08644 L924.80469 198.19615 L925.78125 198.29768 L926.75781 198.39175 L927.73438 198.47929 L928.71094 198.56085 L929.68750 198.63672 L930.66406 198.70760 L931.64063 198.77304 L932.61719 198.83455 L933.59375 198.89165 L934.57031 198.94429 L935.54688 198.99307 L936.52344 199.03767 L937.50000 199.07863 L938.47656 199.11578 L939.45313 199.14883 L940.42969 199.17801 L941.40625 199.20193 L942.38281 199.22394 L943.35938 199.23973 L944.33594 199.25220 L945.31250 199.26021 L946.28906 199.26434 L947.26563 199.26376 L948.24219 199.25909 L949.21875 199.25020 L950.19531 199.23724 L951.17188 199.22047 L952.14844 199.19971 L953.12500 199.17537 L954.10156 199.14726 L955.07813 199.11575 L956.05469 199.08073 L957.03125 199.04240 L958.00781 199.00064 L958.98438 198.95535 L959.96094 198.90654 L960.93750 198.85399 L961.91406 198.79750 L962.89063 198.73715 L963.86719 198.67200 L964.84375 198.60219 L965.82031 198.52698 L966.79688 198.44580 L967.77344 198.35803 L968.75000 198.26282 L969.72656 198.15921 L970.70313 198.04562 L971.67969 197.92082 L972.65625 197.78279 L973.63281 197.62941 L974.60938 197.45691 L975.58594 197.26265 L976.56250 197.04050 L977.53906 196.78426 L978.51563 196.48508 L979.49219 196.13060 L980.46875 195.70377 L981.44531 195.17906 L982.42188 194.51785 L983.39844 193.65858 L984.37500 192.49686 L985.35156 190.84010 L986.32813 188.28978 L987.30469 183.86966 L988.28125 174.38213 L989.25781 139.79430 L990.23438 6.02570 L991.21094 161.68207 L992.18750 178.26797 L993.16406 184.53613 L994.14063 187.77097 L995.11719 189.69347 L996.09375 190.91757 L997.07031 191.71364 L998.04688 192.21654 L999.02344 192.49562" /><path fill="none" stroke="#000000" d="M0 300.00000  L0.00000 300.00000  L0.97656 297.32214  L1.95313 294.66742  L2.92969 292.05841  L3.90625 289.51401  L4.88281 287.05112  L5.85938 284.67950  L6.83594 282.40912  L7.81250 280.24231  L8.78906 278.18042  L9.76563 276.22189  L10.74219 375.33435  L11.71875 373.56995  L12.69531 371.89380  L13.67188 370.29974  L14.64844 368.78033  L15.62500 367.32990  L16.60156 365.94025  L17.57813 364.60669  L18.55469 363.32227  L19.53125 362.08026  L20.50781 360.87503  L21.48438 359.70187  L22.46094 358.55615  L23.43750 357.43350  L24.41406 356.32861  L25.39063 355.23383  L26.36719 354.14557  L27.34375 353.06744  L28.32031 351.97980  L29.29688 350.89386  L30.27344 349.79724  L31.25000 348.68738  L32.22656 347.55872  L33.20313 346.40515  L34.17969 345.22409  L35.15625 344.01361  L36.13281 342.76007  L37.10938 341.46198  L38.08594 340.11713  L39.06250 338.71072  L40.03906 337.24255  L41.01563 335.70685  L41.99219 334.09607  L42.96875 332.40350  L43.94531 330.62299  L44.92188 328.75006  L45.89844 326.78568  L46.87500 324.72638  L47.85156 322.57434  L48.82813 320.33441  L49.80469 318.00534  L50.78125 315.61145  L51.75781 313.15308  L52.73438 310.66864  L53.71094 308.16058  L54.68750 305.65622  L55.66406 303.17810  L56.64063 300.72168  L57.61719 298.39850  L58.59375 296.09381  L59.57031 293.90582  L60.54688 291.82932  L61.52344 289.86182  L62.50000 287.98285  L63.47656 286.21576  L64.45313 284.54993  L65.42969 282.99265  L66.40625 281.53351  L67.38281 280.15677  L68.35938 278.86304  L69.33594 277.65524  L70.31250 276.51855  L71.28906 275.45184  L72.26563 274.44562  L73.24219 273.49750  L74.21875 272.60080  L75.19531 271.75903  L76.17188 270.96027  L77.14844 270.20322  L78.12500 269.48401  L79.10156 268.80261  L80.07813 268.15527  L81.05469 267.54059  L82.03125 266.95313  L83.00781 266.39215  L83.98438 265.85648  L84.96094 265.34531  L85.93750 264.85892  L86.91406 264.39063  L87.89063 263.94141  L88.86719 263.50845  L89.84375 263.09464  L90.82031 262.69601  L91.79688 262.31396  L92.77344 261.94659  L93.75000 261.59235  L94.72656 261.25110  L95.70313 260.92245  L96.67969 260.60580  L97.65625 260.30048  L98.63281 260.00598  L99.60938 259.72195  L100.58594 360.41931  L101.56250 360.15491  L102.53906 359.89984  L103.51563 359.65387  L104.49219 359.41663  L105.46875 359.18787  L106.44531 358.96680  L107.42188 358.75452  L108.39844 358.54987  L109.37500 358.35321  L110.35156 358.16357  L111.32813 357.98193  L112.30469 357.80719  L113.28125 357.64001  L114.25781 357.47986  L115.23438 357.32642  L116.21094 357.18094  L117.18750 357.04108  L118.16406 356.90973  L119.14063 356.78430  L120.11719 356.66748  L121.09375 356.55710  L122.07031 356.45532  L123.04688 356.36011  L124.02344 356.27094  L125.00000 356.18909  L125.97656 356.11835  L126.95313 356.05420  L127.92969 355.99860  L128.90625 355.95093  L129.88281 355.91107  L130.85938 355.87970  L131.83594 355.85883  L132.81250 355.84833  L133.78906 355.84857  L134.76563 355.85828  L135.74219 355.87903  L136.71875 355.91205  L137.69531 355.95184  L138.67188 356.01132  L139.64844 356.08136  L140.62500 356.16907  L141.60156 356.26917  L142.57813 356.38596  L143.55469 356.51819  L144.53125 356.66833  L145.50781 356.84061  L146.48438 357.03381  L147.46094 357.24878  L148.43750 357.48431  L149.41406 357.74884  L150.39063 358.04211  L151.36719 358.36993  L152.34375 358.72394  L153.32031 359.11685  L154.29688 359.54688  L155.27344 360.02380  L156.25000 360.55261  L157.22656 361.11041  L158.20313 361.74872  L159.17969 362.42545  L160.15625 363.17572  L161.13281 364.00311  L162.10938 364.91324  L163.08594 365.90195  L164.06250 366.98138  L165.03906 368.16779  L166.01563 369.46277  L166.99219 370.87250  L167.96875 372.39734  L168.94531 374.02451  L169.92188 375.82779  L170.89844 377.74945  L171.87500 379.78552  L172.85156 381.90710  L173.82813 384.10870  L174.80469 386.38699  L175.78125 388.71518  L176.75781 391.06256  L177.73438 393.38641  L178.71094 395.66370  L179.68750 397.87518  L180.66406 400.00000  L181.64063 200.07434  L182.61719 201.97031  L183.59375 203.74458  L184.57031 205.39435  L185.54688 206.92334  L186.52344 208.33234  L187.50000 209.62758  L188.47656 210.81575  L189.45313 211.90965  L190.42969 212.90834  L191.40625 213.82529  L192.38281 214.66516  L193.35938 215.43440  L194.33594 216.13959  L195.31250 216.78610  L196.28906 217.37894  L197.26563 217.92322  L198.24219 218.42297  L199.21875 218.88202  L200.19531 320.27524  L201.17188 320.66321  L202.14844 321.01996  L203.12500 321.34811  L204.10156 321.64951  L205.07813 321.92694  L206.05469 322.18228  L207.03125 322.41718  L208.00781 322.63284  L208.98438 322.83081  L209.96094 323.01245  L210.93750 323.17883  L211.91406 323.33157  L212.89063 323.47015  L213.86719 323.59698  L214.84375 323.71130  L215.82031 323.81720  L216.79688 323.91321  L217.77344 323.99893  L218.75000 324.07562  L219.72656 324.14417  L220.70313 324.20486  L221.67969 324.26111  L222.65625 324.30762  L223.63281 324.34775  L224.60938 324.38077  L225.58594 324.41064  L226.56250 324.43494  L227.53906 324.45337  L228.51563 324.46552  L229.49219 324.47250  L230.46875 324.47760  L231.44531 324.48108  L232.42188 324.47882  L233.39844 324.47174  L234.37500 324.46118  L235.35156 324.44543  L236.32813 324.42838  L237.30469 324.40775  L238.28125 324.38538  L239.25781 324.35983  L240.23438 324.33200  L241.21094 324.30078  L242.18750 324.26474  L243.16406 324.22968  L244.14063 324.19156  L245.11719 324.15433  L246.09375 324.11224  L247.07031 324.06750  L248.04688 324.02121  L249.02344 323.97192  L250.00000 323.92365  L250.97656 323.87512  L251.95313 323.82022  L252.92969 323.77048  L253.90625 323.71201  L254.88281 323.65591  L255.85938 323.59528  L256.83594 323.53653  L257.81250 323.47525  L258.78906 323.41309  L259.76563 323.35083  L260.74219 323.28604  L261.71875 323.22064  L262.69531 323.15567  L263.67188 323.08881  L264.64844 323.02060  L265.62500 322.95334  L266.60156 322.87970  L267.57813 322.80881  L268.55469 322.73691  L269.53125 322.66910  L270.50781 322.60101  L271.48438 322.52844  L272.46094 322.45184  L273.43750 322.36819  L274.41406 322.29050  L275.39063 322.21362  L276.36719 322.13922  L277.34375 322.06326  L278.32031 321.98224  L279.29688 321.90280  L280.27344 321.82135  L281.25000 321.74017  L282.22656 321.66721  L283.20313 321.57700  L284.17969 321.50961  L285.15625 321.41873  L286.13281 321.33661  L287.10938 321.24518  L288.08594 321.16757  L289.06250 321.08185  L290.03906 320.99854  L291.01563 320.91248  L291.99219 320.82434  L292.96875 320.74103  L293.94531 320.65521  L294.92188 320.57233  L295.89844 320.48230  L296.87500 320.39676  L297.85156 320.30798  L298.82813 320.22046  L299.80469 320.13342  L300.78125 320.04321  L301.75781 319.95367  L302.73438 319.86572  L303.71094 319.77515  L304.68750 319.68600  L305.66406 319.59668  L306.64063 319.50650  L307.61719 319.41910  L308.59375 319.32516  L309.57031 319.23776  L310.54688 319.14291  L311.52344 319.04852  L312.50000 318.95822  L313.47656 318.86017  L314.45313 318.78375  L315.42969 318.67853  L316.40625 318.59802  L317.38281 318.50208  L318.35938 318.41492  L319.33594 318.31592  L320.31250 318.22522  L321.28906 318.13220  L322.26563 318.03696  L323.24219 317.94537  L324.21875 317.84900  L325.19531 317.75623  L326.17188 317.66809  L327.14844 317.56580  L328.12500 317.47986  L329.10156 317.37997  L330.07813 317.28775  L331.05469 317.19290  L332.03125 317.09647  L333.00781 317.00323  L333.98438 316.90631  L334.96094 316.81039  L335.93750 316.71368  L336.91406 316.61987  L337.89063 316.52618  L338.86719 316.43045  L339.84375 316.33234  L340.82031 316.23865  L341.79688 316.14395  L342.77344 316.05048  L343.75000 315.95435  L344.72656 315.85355  L345.70313 315.75766  L346.67969 315.65259  L347.65625 315.56091  L348.63281 315.46432  L349.60938 315.37219  L350.58594 315.27383  L351.56250 315.17627  L352.53906 315.07660  L353.51563 314.97617  L354.49219 314.88806  L355.46875 314.78992  L356.44531 314.69812  L357.42188 314.58417  L358.39844 314.50534  L359.37500 314.38983  L360.35156 314.29279  L361.32813 314.19720  L362.30469 314.10645  L363.28125 314.00684  L364.25781 313.90543  L365.23438 313.80786  L366.21094 313.70685  L367.18750 313.61069  L368.16406 313.51459  L369.14063 313.41565  L370.11719 313.31943  L371.09375 313.21768  L372.07031 313.12323  L373.04688 313.02472  L374.02344 312.92545  L375.00000 312.82880  L375.97656 312.72635  L376.95313 312.63104  L377.92969 312.52676  L378.90625 312.42957  L379.88281 312.33206  L380.85938 312.23273  L381.83594 312.13754  L382.81250 312.03647  L383.78906 311.93295  L384.76563 311.82874  L385.74219 311.74139  L386.71875 311.63715  L387.69531 311.54266  L388.67188 311.43988  L389.64844 311.34338  L390.62500 311.24176  L391.60156 311.13873  L392.57813 311.04367  L393.55469 310.94678  L394.53125 310.84647  L395.50781 310.74512  L396.48438 310.64520  L397.46094 310.54138  L398.43750 310.43991  L399.41406 310.34491  L400.39063 310.24783  L401.36719 310.14932  L402.34375 310.04758  L403.32031 309.94791  L404.29688 309.84998  L405.27344 309.75116  L406.25000 309.65143  L407.22656 309.54990  L408.20313 309.44788  L409.17969 309.34637  L410.15625 309.24957  L411.13281 309.14871  L412.10938 309.05222  L413.08594 308.94553  L414.06250 308.84924  L415.03906 308.75092  L416.01563 308.65823  L416.99219 308.54590  L417.96875 308.45554  L418.94531 308.35333  L419.92188 308.24930  L420.89844 308.15027  L421.87500 308.04871  L422.85156 307.94904  L423.82813 307.85181  L424.80469 307.74988  L425.78125 307.64600  L426.75781 307.54852  L427.73438 307.47430  L428.71094 307.37659  L429.68750 307.27225  L430.66406 307.15967  L431.64063 307.04315  L432.61719 306.94159  L433.59375 306.84375  L434.57031 306.75107  L435.54688 306.64978  L436.52344 306.54370  L437.50000 306.44360  L438.47656 306.34467  L439.45313 306.24805  L440.42969 306.14331  L441.40625 306.03961  L442.38281 305.93842  L443.35938 305.84137  L444.33594 305.74301  L445.31250 305.64105  L446.28906 305.53589  L447.26563 305.44012  L448.24219 305.33691  L449.21875 305.24744  L450.19531 305.14078  L451.17188 305.03247  L452.14844 304.93347  L453.12500 304.83545  L454.10156 304.74475  L455.07813 304.63217  L456.05469 304.51666  L457.03125 304.41528  L458.00781 304.33847  L458.98438 304.21130  L459.96094 304.14606  L460.93750 304.04291  L461.91406 303.93283  L462.89063 303.82901  L463.86719 303.72699  L464.84375 303.63412  L465.82031 303.53397  L466.79688 303.42834  L467.77344 303.33017  L468.75000 303.23370  L469.72656 303.14096  L470.70313 303.03677  L471.67969 302.92282  L472.65625 302.81613  L473.63281 302.71185  L474.60938 302.61856  L475.58594 302.51935  L476.56250 302.41727  L477.53906 302.31451  L478.51563 302.21649  L479.49219 302.11450  L480.46875 302.02072  L481.44531 301.91696  L482.42188 301.81360  L483.39844 301.71118  L484.37500 301.61310  L485.35156 301.51352  L486.32813 301.41006  L487.30469 301.30664  L488.28125 301.20270  L489.25781 301.11090  L490.23438 301.00311  L491.21094 300.91003  L492.18750 300.80948  L493.16406 300.70566  L494.14063 300.60400  L495.11719 300.50241  L496.09375 300.40176  L497.07031 300.30551  L498.04688 300.20267  L499.02344 300.10278  L500.00000 300.00000  L500.97656 299.89722  L501.95313 299.79730  L502.92969 299.69452  L503.90625 299.59821  L504.88281 299.49765  L505.85938 299.39606  L506.83594 299.29422  L507.81250 299.19052  L508.78906 299.08997  L509.76563 298.99637  L510.74219 298.88928  L511.71875 298.79736  L512.69531 298.69339  L513.67188 298.58994  L514.64844 298.48651  L515.62500 298.38690  L516.60156 298.28882  L517.57813 298.18637  L518.55469 298.08307  L519.53125 297.97928  L520.50781 297.88547  L521.48438 297.78348  L522.46094 297.68539  L523.43750 297.58273  L524.41406 297.48059  L525.39063 297.38153  L526.36719 297.28812  L527.34375 297.18387  L528.32031 297.07718  L529.29688 296.96323  L530.27344 296.85907  L531.25000 296.76630  L532.22656 296.66980  L533.20313 296.57166  L534.17969 296.46609  L535.15625 296.36588  L536.13281 296.27307  L537.10938 296.17093  L538.08594 296.06720  L539.06250 295.95709  L540.03906 295.85397  L541.01563 295.78870  L541.99219 295.66150  L542.96875 295.58472  L543.94531 295.48340  L544.92188 295.36783  L545.89844 295.25522  L546.87500 295.16455  L547.85156 295.06656  L548.82813 294.96750  L549.80469 294.85919  L550.78125 294.75262  L551.75781 294.66306  L552.73438 294.55978  L553.71094 294.46411  L554.68750 294.35889  L555.66406 294.25699  L556.64063 294.15854  L557.61719 294.06161  L558.59375 293.96039  L559.57031 293.85666  L560.54688 293.75189  L561.52344 293.65530  L562.50000 293.55637  L563.47656 293.45633  L564.45313 293.35022  L565.42969 293.24887  L566.40625 293.15625  L567.38281 293.05841  L568.35938 292.95679  L569.33594 292.84033  L570.31250 292.72772  L571.28906 292.62341  L572.26563 292.52567  L573.24219 292.45148  L574.21875 292.35400  L575.19531 292.24976  L576.17188 292.14819  L577.14844 292.05093  L578.12500 291.95126  L579.10156 291.84979  L580.07813 291.75067  L581.05469 291.64661  L582.03125 291.54446  L583.00781 291.45410  L583.98438 291.34161  L584.96094 291.24902  L585.93750 291.15076  L586.91406 291.05450  L587.89063 290.94785  L588.86719 290.85126  L589.84375 290.75037  L590.82031 290.65356  L591.79688 290.55212  L592.77344 290.45010  L593.75000 290.34854  L594.72656 290.24878  L595.70313 290.15002  L596.67969 290.05212  L597.65625 289.95245  L598.63281 289.85065  L599.60938 289.75262  L600.58594 289.65485  L601.56250 289.56006  L602.53906 289.45862  L603.51563 289.35471  L604.49219 289.25494  L605.46875 289.15353  L606.44531 289.05322  L607.42188 288.95633  L608.39844 288.86124  L609.37500 288.75824  L610.35156 288.65656  L611.32813 288.56012  L612.30469 288.45724  L613.28125 288.36282  L614.25781 288.25854  L615.23438 288.17105  L616.21094 288.06708  L617.18750 287.96353  L618.16406 287.86243  L619.14063 287.76727  L620.11719 287.66797  L621.09375 287.57043  L622.07031 287.47324  L623.04688 287.36896  L624.02344 287.27368  L625.00000 287.17120  L625.97656 287.07455  L626.95313 286.97531  L627.92969 286.87674  L628.90625 286.78235  L629.88281 286.68060  L630.85938 286.58435  L631.83594 286.48541  L632.81250 286.38928  L633.78906 286.29309  L634.76563 286.19189  L635.74219 286.09454  L636.71875 285.99313  L637.69531 285.89355  L638.67188 285.80280  L639.64844 285.70721  L640.62500 285.61017  L641.60156 285.49463  L642.57813 285.41583  L643.55469 285.30182  L644.53125 285.21011  L645.50781 285.11200  L646.48438 285.02374  L647.46094 284.92337  L648.43750 284.82373  L649.41406 284.72614  L650.39063 284.62759  L651.36719 284.53564  L652.34375 284.43906  L653.32031 284.34738  L654.29688 284.24231  L655.27344 284.14648  L656.25000 284.04565  L657.22656 283.94949  L658.20313 283.85602  L659.17969 283.76129  L660.15625 283.66766  L661.13281 283.56952  L662.10938 283.47375  L663.08594 283.38010  L664.06250 283.28632  L665.03906 283.18958  L666.01563 283.09372  L666.99219 282.99677  L667.96875 282.90353  L668.94531 282.80713  L669.92188 282.71228  L670.89844 282.62003  L671.87500 282.52014  L672.85156 282.43420  L673.82813 282.33185  L674.80469 282.24380  L675.78125 282.15103  L676.75781 282.05466  L677.73438 281.96307  L678.71094 281.86780  L679.68750 281.77478  L680.66406 281.68402  L681.64063 281.58502  L682.61719 281.49792  L683.59375 281.40198  L684.57031 281.32144  L685.54688 281.21622  L686.52344 281.13986  L687.50000 281.04175  L688.47656 280.95148  L689.45313 280.85709  L690.42969 280.76221  L691.40625 280.67480  L692.38281 280.58093  L693.35938 280.49350  L694.33594 280.40332  L695.31250 280.31400  L696.28906 280.22485  L697.26563 280.13428  L698.24219 280.04630  L699.21875 279.95673  L700.19531 279.86667  L701.17188 279.77948  L702.14844 279.69202  L703.12500 279.60321  L704.10156 279.51773  L705.07813 279.42764  L706.05469 279.34473  L707.03125 279.25897  L708.00781 279.17566  L708.98438 279.08755  L709.96094 279.00140  L710.93750 278.91818  L711.91406 278.83246  L712.89063 278.75479  L713.86719 278.66342  L714.84375 278.58127  L715.82031 278.49036  L716.79688 278.42297  L717.77344 278.33282  L718.75000 278.25983  L719.72656 278.17865  L720.70313 278.09717  L721.67969 278.01770  L722.65625 277.93674  L723.63281 277.86078  L724.60938 277.78632  L725.58594 277.70956  L726.56250 277.63184  L727.53906 277.54816  L728.51563 277.47165  L729.49219 277.39902  L730.46875 277.33090  L731.44531 277.26312  L732.42188 277.19119  L733.39844 277.12030  L734.37500 277.04666  L735.35156 276.97940  L736.32813 276.91116  L737.30469 276.84430  L738.28125 276.77936  L739.25781 276.71402  L740.23438 276.64941  L741.21094 276.58691  L742.18750 276.52472  L743.16406 276.46350  L744.14063 276.40463  L745.11719 276.34409  L746.09375 276.28796  L747.07031 276.22952  L748.04688 276.17978  L749.02344 276.12488  L750.00000 276.07632  L750.97656 276.02808  L751.95313 275.97879  L752.92969 275.93243  L753.90625 275.88773  L754.88281 275.84564  L755.85938 275.80847  L756.83594 275.77032  L757.81250 275.73523  L758.78906 275.69922  L759.76563 275.66788  L760.74219 275.64023  L761.71875 275.61462  L762.69531 275.59222  L763.67188 275.57162  L764.64844 275.55457  L765.62500 275.53882  L766.60156 275.52829  L767.57813 275.52118  L768.55469 275.51892  L769.53125 275.52240  L770.50781 275.52750  L771.48438 275.53442  L772.46094 275.54660  L773.43750 275.56506  L774.41406 275.58936  L775.39063 275.61920  L776.36719 275.65222  L777.34375 275.69238  L778.32031 275.73889  L779.29688 275.79510  L780.27344 275.85583  L781.25000 275.92438  L782.22656 276.00107  L783.20313 276.08679  L784.17969 276.18277  L785.15625 276.28867  L786.13281 276.40302  L787.10938 276.52985  L788.08594 276.66843  L789.06250 276.82117  L790.03906 276.98755  L791.01563 277.16919  L791.99219 277.36719  L792.96875 277.58282  L793.94531 277.81769  L794.92188 278.07303  L795.89844 278.35049  L796.87500 278.65186  L797.85156 278.98004  L798.82813 279.33676  L799.80469 279.72473  L800.78125 381.11798  L801.75781 381.57703  L802.73438 382.07678  L803.71094 382.62103  L804.68750 383.21390  L805.66406 383.86041  L806.64063 384.56561  L807.61719 385.33487  L808.59375 386.17468  L809.57031 387.09167  L810.54688 388.09033  L811.52344 389.18427  L812.50000 390.37241  L813.47656 391.66766  L814.45313 393.07666  L815.42969 394.60565  L816.40625 396.25540  L817.38281 398.02966  L818.35938 399.92572  L819.33594 200.00000  L820.31250 202.12480  L821.28906 204.33623  L822.26563 206.61351  L823.24219 208.93750  L824.21875 211.28474  L825.19531 213.61302  L826.17188 215.89127  L827.14844 218.09293  L828.12500 220.21449  L829.10156 222.25053  L830.07813 224.17224  L831.05469 225.97556  L832.03125 227.60263  L833.00781 229.12744  L833.98438 230.53720  L834.96094 231.83226  L835.93750 233.01865  L836.91406 234.09807  L837.89063 235.08685  L838.86719 235.99698  L839.84375 236.82428  L840.82031 237.57457  L841.79688 238.25128  L842.77344 238.88959  L843.75000 239.44739  L844.72656 239.97621  L845.70313 240.45309  L846.67969 240.88318  L847.65625 241.27603  L848.63281 241.63004  L849.60938 241.95778  L850.58594 242.25119  L851.56250 242.51564  L852.53906 242.75122  L853.51563 242.96620  L854.49219 243.15942  L855.46875 243.33167  L856.44531 243.48184  L857.42188 243.61404  L858.39844 243.73083  L859.37500 243.83092  L860.35156 243.91867  L861.32813 243.98866  L862.30469 244.04825  L863.28125 244.08797  L864.25781 244.12100  L865.23438 244.14169  L866.21094 244.15138  L867.18750 244.15167  L868.16406 244.14117  L869.14063 244.12030  L870.11719 244.08897  L871.09375 244.04909  L872.07031 244.00140  L873.04688 243.94579  L874.02344 243.88164  L875.00000 243.81091  L875.97656 243.72906  L876.95313 243.63988  L877.92969 243.54468  L878.90625 243.44290  L879.88281 243.33252  L880.85938 243.21567  L881.83594 243.09024  L882.81250 242.95891  L883.78906 242.81906  L884.76563 242.67352  L885.74219 242.52017  L886.71875 242.35997  L887.69531 242.19281  L888.67188 242.01807  L889.64844 241.83644  L890.62500 241.64676  L891.60156 241.45016  L892.57813 241.24548  L893.55469 241.03317  L894.53125 240.81212  L895.50781 240.58337  L896.48438 240.34612  L897.46094 240.10016  L898.43750 239.84509  L899.41406 239.58070  L900.39063 340.27802  L901.36719 339.99402  L902.34375 339.69952  L903.32031 339.39420  L904.29688 339.07755  L905.27344 338.74890  L906.25000 338.40765  L907.22656 338.05341  L908.20313 337.68604  L909.17969 337.30396  L910.15625 336.90536  L911.13281 336.49152  L912.10938 336.05859  L913.08594 335.60934  L914.06250 335.14105  L915.03906 334.65466  L916.01563 334.14362  L916.99219 333.60785  L917.96875 333.04688  L918.94531 332.45944  L919.92188 331.84473  L920.89844 331.19736  L921.87500 330.51599  L922.85156 329.79678  L923.82813 329.03967  L924.80469 328.24091  L925.78125 327.39917  L926.75781 326.50250  L927.73438 325.55420  L928.71094 324.54816  L929.68750 323.48141  L930.66406 322.34476  L931.64063 321.13708  L932.61719 319.84323  L933.59375 318.46652  L934.57031 317.00732  L935.54688 315.45010  L936.52344 313.78418  L937.50000 312.01715  L938.47656 310.13815  L939.45313 308.17068  L940.42969 306.09418  L941.40625 303.90622  L942.38281 301.60162  L943.35938 299.27817  L944.33594 296.82187  L945.31250 294.34375  L946.28906 291.83936  L947.26563 289.33170  L948.24219 286.84705  L949.21875 284.38870  L950.19531 281.99472  L951.17188 279.66556  L952.14844 277.42560  L953.12500 275.27362  L954.10156 273.21423  L955.07813 271.24991  L956.05469 269.37704  L957.03125 267.59644  L958.00781 265.90402  L958.98438 264.29269  L959.96094 262.75742  L960.93750 261.28925  L961.91406 259.88284  L962.89063 258.53802  L963.86719 257.23996  L964.84375 255.98642  L965.82031 254.77591  L966.79688 253.59482  L967.77344 252.44125  L968.75000 251.31264  L969.72656 250.20270  L970.70313 249.10616  L971.67969 248.02023  L972.65625 246.93253  L973.63281 245.85449  L974.60938 244.76602  L975.58594 243.67142  L976.56250 242.56648  L977.53906 241.44385  L978.51563 240.29799  L979.49219 239.12500  L980.46875 237.91975  L981.44531 236.67773  L982.42188 235.39330  L983.39844 234.05977  L984.37500 232.67009  L985.35156 231.21967  L986.32813 229.70027  L987.30469 228.10622  L988.28125 226.43004  L989.25781 224.66568  L990.23438 323.77811  L991.21094 321.81958  L992.18750 319.75769  L993.16406 317.59088  L994.14063 315.32050  L995.11719 312.94885  L996.09375 310.48596  L997.07031 307.94159  L998.04688 305.33258  L999.02344 302.67786 " /></g><text x="1000.00000" dx="10" y="199.99995">[-0.00000;0.47012]</text><text x="1000.00000" dx="10" y="300.00000">[-3.11137;3.11137]</text></svg>