<svg xmlns="http://www.w3.org/2000/svg" version="1.1"><g stroke-width="0.6"><path fill="none" stroke="#000000" d="M0 152.01414 L1000.00000 152.01414" /><path fill="none" stroke="#000000" d="M0 300.00000 L1000.00000 300.00000" /><path fill="none" stroke="#000000" d="M500.00000 0 L500.00000 400.00000" /><path fill="none" stroke="#000000" d="M0 152.01414  L0.00000 147.18082 L0.97656 147.12436 L1.95313 146.94839 L2.92969 146.63054 L3.90625 146.12570 L4.88281 145.34602 L5.85938 144.11658 L6.83594 142.03879 L7.81250 137.99785 L8.78906 127.27468 L9.76563 26.46466 L10.74219 191.14224 L11.71875 168.76045 L12.69531 162.63866 L13.67188 159.79993 L14.64844 158.17258 L15.62500 157.12427 L16.60156 156.39650 L17.57813 155.86487 L18.55469 155.46123 L19.53125 155.14580 L20.50781 154.89349 L21.48438 154.68785 L22.46094 154.51790 L23.43750 154.37558 L24.41406 154.25500 L25.39063 154.15181 L26.36719 154.06268 L27.34375 153.98582 L28.32031 153.91814 L29.29688 153.85913 L30.27344 153.80705 L31.25000 153.76105 L32.22656 153.72017 L33.20313 153.68372 L34.17969 153.65134 L35.15625 153.62241 L36.13281 153.59651 L37.10938 153.57339 L38.08594 153.55255 L39.06250 153.53401 L40.03906 153.51744 L41.01563 153.50275 L41.99219 153.48970 L42.96875 153.47821 L43.94531 153.46808 L44.92188 153.45926 L45.89844 153.45160 L46.87500 153.44518 L47.85156 153.43971 L48.82813 153.43541 L49.80469 153.43190 L50.78125 153.42947 L51.75781 153.42787 L52.73438 153.42717 L53.71094 153.42746 L54.68750 153.42812 L55.66406 153.43002 L56.64063 153.43259 L57.61719 153.43689 L58.59375 153.44022 L59.57031 153.44637 L60.54688 153.45215 L61.52344 153.45883 L62.50000 153.46652 L63.47656 153.47520 L64.45313 153.48512 L65.42969 153.49588 L66.40625 153.50760 L67.38281 153.52045 L68.35938 153.53476 L69.33594 153.55014 L70.31250 153.56708 L71.28906 153.58549 L72.26563 153.60551 L73.24219 153.62738 L74.21875 153.65143 L75.19531 153.67743 L76.17188 153.70598 L77.14844 153.73717 L78.12500 153.77159 L79.10156 153.80954 L80.07813 153.85141 L81.05469 153.89775 L82.03125 153.94943 L83.00781 154.00737 L83.98438 154.07269 L84.96094 154.14659 L85.93750 154.23068 L86.91406 154.32767 L87.89063 154.44052 L88.86719 154.57373 L89.84375 154.73232 L90.82031 154.92516 L91.79688 155.16362 L92.77344 155.46661 L93.75000 155.86455 L94.72656 156.40970 L95.70313 157.20274 L96.67969 158.46198 L97.65625 160.77014 L98.63281 166.37495 L99.60938 200.00000 L100.58594 121.54408 L101.56250 141.15942 L102.53906 145.68695 L103.51563 147.69994 L104.49219 148.83841 L105.46875 149.57092 L106.44531 150.08176 L107.42188 150.45879 L108.39844 150.74860 L109.37500 150.97859 L110.35156 151.16562 L111.32813 151.32088 L112.30469 151.45181 L113.28125 151.56403 L114.25781 151.66127 L115.23438 151.74651 L116.21094 151.82185 L117.18750 151.88890 L118.16406 151.94934 L119.14063 152.00398 L120.11719 152.05389 L121.09375 152.09938 L122.07031 152.14145 L123.04688 152.18030 L124.02344 152.21638 L125.00000 152.25021 L125.97656 152.28165 L126.95313 152.31166 L127.92969 152.33969 L128.90625 152.36641 L129.88281 152.39183 L130.85938 152.41631 L131.83594 152.43945 L132.81250 152.46190 L133.78906 152.48355 L134.76563 152.50441 L135.74219 152.52475 L136.71875 152.54456 L137.69531 152.56364 L138.67188 152.58260 L139.64844 152.60107 L140.62500 152.61942 L141.60156 152.63742 L142.57813 152.65536 L143.55469 152.67296 L144.53125 152.69043 L145.50781 152.70796 L146.48438 152.72551 L147.46094 152.74316 L148.43750 152.76065 L149.41406 152.77831 L150.39063 152.79623 L151.36719 152.81442 L152.34375 152.83276 L153.32031 152.85143 L154.29688 152.87012 L155.27344 152.88950 L156.25000 152.90936 L157.22656 152.93002 L158.20313 152.95036 L159.17969 152.97226 L160.15625 152.99406 L161.13281 153.01689 L162.10938 153.04062 L163.08594 153.06502 L164.06250 153.09055 L165.03906 153.11720 L166.01563 153.14514 L166.99219 153.17447 L167.96875 153.20509 L168.94531 153.23669 L169.92188 153.27089 L170.89844 153.30711 L171.87500 153.34596 L172.85156 153.38702 L173.82813 153.43065 L174.80469 153.47701 L175.78125 153.52686 L176.75781 153.58092 L177.73438 153.63950 L178.71094 153.70313 L179.68750 153.77232 L180.66406 153.84836 L181.64063 153.93225 L182.61719 154.02544 L183.59375 154.12923 L184.57031 154.24591 L185.54688 154.37794 L186.52344 154.52895 L187.50000 154.70325 L188.47656 154.90663 L189.45313 155.14740 L190.42969 155.43684 L191.40625 155.79161 L192.38281 156.23705 L193.35938 156.81290 L194.33594 157.58682 L195.31250 158.68259 L196.28906 160.35437 L197.26563 163.21918 L198.24219 169.26555 L199.21875 190.42462 L200.19531 0.00004 L201.17188 126.95332 L202.14844 138.49521 L203.12500 142.82413 L204.10156 145.09207 L205.07813 146.48824 L206.05469 147.43439 L207.03125 148.11795 L208.00781 148.63501 L208.98438 149.03983 L209.96094 149.36548 L210.93750 149.63303 L211.91406 149.85693 L212.89063 150.04691 L213.86719 150.21036 L214.84375 150.35237 L215.82031 150.47704 L216.79688 150.58728 L217.77344 150.68533 L218.75000 150.77330 L219.72656 150.85254 L220.70313 150.92456 L221.67969 150.99002 L222.65625 151.04974 L223.63281 151.10478 L224.60938 151.15529 L225.58594 151.20219 L226.56250 151.24562 L227.53906 151.28596 L228.51563 151.32359 L229.49219 151.35863 L230.46875 151.39148 L231.44531 151.42285 L232.42188 151.45160 L233.39844 151.47902 L234.37500 151.50491 L235.35156 151.52927 L236.32813 151.55240 L237.30469 151.57434 L238.28125 151.59520 L239.25781 151.61504 L240.23438 151.63380 L241.21094 151.65181 L242.18750 151.66888 L243.16406 151.68544 L244.14063 151.70113 L245.11719 151.71611 L246.09375 151.73044 L247.07031 151.74416 L248.04688 151.75746 L249.02344 151.77017 L250.00000 151.78236 L250.97656 151.79414 L251.95313 151.80554 L252.92969 151.81653 L253.90625 151.82690 L254.88281 151.83717 L255.85938 151.84680 L256.83594 151.85632 L257.81250 151.86551 L258.78906 151.87437 L259.76563 151.88293 L260.74219 151.89111 L261.71875 151.89920 L262.69531 151.90730 L263.67188 151.91464 L264.64844 151.92188 L265.62500 151.92892 L266.60156 151.93582 L267.57813 151.94270 L268.55469 151.94925 L269.53125 151.95535 L270.50781 151.96129 L271.48438 151.96709 L272.46094 151.97313 L273.43750 151.97894 L274.41406 151.98462 L275.39063 151.98997 L276.36719 151.99507 L277.34375 152.00026 L278.32031 152.00526 L279.29688 152.01013 L280.27344 152.01486 L281.25000 152.01933 L282.22656 152.02412 L283.20313 152.02866 L284.17969 152.03296 L285.15625 152.03659 L286.13281 152.04114 L287.10938 152.04485 L288.08594 152.04890 L289.06250 152.05275 L290.03906 152.05655 L291.01563 152.06026 L291.99219 152.06371 L292.96875 152.06731 L293.94531 152.07089 L294.92188 152.07408 L295.89844 152.07738 L296.87500 152.08055 L297.85156 152.08377 L298.82813 152.08693 L299.80469 152.08997 L300.78125 152.09291 L301.75781 152.09583 L302.73438 152.09871 L303.71094 152.10149 L304.68750 152.10410 L305.66406 152.10686 L306.64063 152.10947 L307.61719 152.11223 L308.59375 152.11472 L309.57031 152.11714 L310.54688 152.11952 L311.52344 152.12183 L312.50000 152.12450 L313.47656 152.12671 L314.45313 152.12904 L315.42969 152.13132 L316.40625 152.13403 L317.38281 152.13554 L318.35938 152.13797 L319.33594 152.13998 L320.31250 152.14189 L321.28906 152.14409 L322.26563 152.14590 L323.24219 152.14795 L324.21875 152.14983 L325.19531 152.15170 L326.17188 152.15359 L327.14844 152.15523 L328.12500 152.15714 L329.10156 152.15886 L330.07813 152.16072 L331.05469 152.16243 L332.03125 152.16399 L333.00781 152.16570 L333.98438 152.16724 L334.96094 152.16882 L335.93750 152.17038 L336.91406 152.17203 L337.89063 152.17354 L338.86719 152.17506 L339.84375 152.17648 L340.82031 152.17799 L341.79688 152.17946 L342.77344 152.18085 L343.75000 152.18224 L344.72656 152.18340 L345.70313 152.18472 L346.67969 152.18607 L347.65625 152.18764 L348.63281 152.18872 L349.60938 152.19009 L350.58594 152.19133 L351.56250 152.19250 L352.53906 152.19379 L353.51563 152.19481 L354.49219 152.19617 L355.46875 152.19733 L356.44531 152.19873 L357.42188 152.19926 L358.39844 152.20090 L359.37500 152.20152 L360.35156 152.20261 L361.32813 152.20374 L362.30469 152.20499 L363.28125 152.20587 L364.25781 152.20685 L365.23438 152.20778 L366.21094 152.20877 L367.18750 152.20982 L368.16406 152.21089 L369.14063 152.21173 L370.11719 152.21271 L371.09375 152.21356 L372.07031 152.21455 L373.04688 152.21547 L374.02344 152.21623 L375.00000 152.21716 L375.97656 152.21786 L376.95313 152.21878 L377.92969 152.21964 L378.90625 152.22052 L379.88281 152.22125 L380.85938 152.22202 L381.83594 152.22287 L382.81250 152.22368 L383.78906 152.22421 L384.76563 152.22491 L385.74219 152.22601 L386.71875 152.22664 L387.69531 152.22736 L388.67188 152.22801 L389.64844 152.22867 L390.62500 152.22937 L391.60156 152.23003 L392.57813 152.23077 L393.55469 152.23151 L394.53125 152.23193 L395.50781 152.23268 L396.48438 152.23318 L397.46094 152.23389 L398.43750 152.23450 L399.41406 152.23526 L400.39063 152.23584 L401.36719 152.23639 L402.34375 152.23695 L403.32031 152.23750 L404.29688 152.23811 L405.27344 152.23866 L406.25000 152.23920 L407.22656 152.23962 L408.20313 152.24019 L409.17969 152.24068 L410.15625 152.24135 L411.13281 152.24174 L412.10938 152.24231 L413.08594 152.24286 L414.06250 152.24313 L415.03906 152.24400 L416.01563 152.24422 L416.99219 152.24458 L417.96875 152.24509 L418.94531 152.24561 L419.92188 152.24599 L420.89844 152.24635 L421.87500 152.24693 L422.85156 152.24734 L423.82813 152.24776 L424.80469 152.24825 L425.78125 152.24847 L426.75781 152.24948 L427.73438 152.24971 L428.71094 152.24989 L429.68750 152.24968 L430.66406 152.24986 L431.64063 152.25023 L432.61719 152.25085 L433.59375 152.25142 L434.57031 152.25168 L435.54688 152.25192 L436.52344 152.25217 L437.50000 152.25262 L438.47656 152.25293 L439.45313 152.25323 L440.42969 152.25348 L441.40625 152.25388 L442.38281 152.25424 L443.35938 152.25455 L444.33594 152.25481 L445.31250 152.25491 L446.28906 152.25528 L447.26563 152.25562 L448.24219 152.25591 L449.21875 152.25610 L450.19531 152.25624 L451.17188 152.25650 L452.14844 152.25687 L453.12500 152.25719 L454.10156 152.25720 L455.07813 152.25722 L456.05469 152.25732 L457.03125 152.25861 L458.00781 152.25789 L458.98438 152.25888 L459.96094 152.25890 L460.93750 152.25896 L461.91406 152.25877 L462.89063 152.25908 L463.86719 152.25935 L464.84375 152.25954 L465.82031 152.25972 L466.79688 152.25972 L467.77344 152.25981 L468.75000 152.25998 L469.72656 152.25999 L470.70313 152.26036 L471.67969 152.26067 L472.65625 152.26103 L473.63281 152.26114 L474.60938 152.26105 L475.58594 152.26112 L476.56250 152.26114 L477.53906 152.26138 L478.51563 152.26158 L479.49219 152.26157 L480.46875 152.26172 L481.44531 152.26164 L482.42188 152.26180 L483.39844 152.26189 L484.37500 152.26201 L485.35156 152.26199 L486.32813 152.26198 L487.30469 152.26212 L488.28125 152.26241 L489.25781 152.26225 L490.23438 152.26248 L491.21094 152.26239 L492.18750 152.26242 L493.16406 152.26244 L494.14063 152.26245 L495.11719 152.26254 L496.09375 152.26251 L497.07031 152.26251 L498.04688 152.26251 L499.02344 152.26248 L500.00000 152.26262 L500.97656 152.26248 L501.95313 152.26251 L502.92969 152.26253 L503.90625 152.26251 L504.88281 152.26254 L505.85938 152.26245 L506.83594 152.26244 L507.81250 152.26242 L508.78906 152.26239 L509.76563 152.26245 L510.74219 152.26225 L511.71875 152.26241 L512.69531 152.26212 L513.67188 152.26198 L514.64844 152.26199 L515.62500 152.26201 L516.60156 152.26189 L517.57813 152.26180 L518.55469 152.26164 L519.53125 152.26172 L520.50781 152.26157 L521.48438 152.26158 L522.46094 152.26138 L523.43750 152.26114 L524.41406 152.26112 L525.39063 152.26105 L526.36719 152.26114 L527.34375 152.26103 L528.32031 152.26067 L529.29688 152.26036 L530.27344 152.25999 L531.25000 152.25998 L532.22656 152.25981 L533.20313 152.25972 L534.17969 152.25972 L535.15625 152.25954 L536.13281 152.25935 L537.10938 152.25908 L538.08594 152.25877 L539.06250 152.25896 L540.03906 152.25890 L541.01563 152.25888 L541.99219 152.25789 L542.96875 152.25859 L543.94531 152.25732 L544.92188 152.25722 L545.89844 152.25720 L546.87500 152.25719 L547.85156 152.25687 L548.82813 152.25650 L549.80469 152.25624 L550.78125 152.25610 L551.75781 152.25591 L552.73438 152.25562 L553.71094 152.25528 L554.68750 152.25491 L555.66406 152.25481 L556.64063 152.25455 L557.61719 152.25426 L558.59375 152.25388 L559.57031 152.25348 L560.54688 152.25323 L561.52344 152.25293 L562.50000 152.25262 L563.47656 152.25217 L564.45313 152.25192 L565.42969 152.25168 L566.40625 152.25142 L567.38281 152.25085 L568.35938 152.25023 L569.33594 152.24986 L570.31250 152.24968 L571.28906 152.24989 L572.26563 152.24971 L573.24219 152.24948 L574.21875 152.24847 L575.19531 152.24826 L576.17188 152.24776 L577.14844 152.24734 L578.12500 152.24692 L579.10156 152.24635 L580.07813 152.24599 L581.05469 152.24561 L582.03125 152.24509 L583.00781 152.24458 L583.98438 152.24422 L584.96094 152.24400 L585.93750 152.24313 L586.91406 152.24286 L587.89063 152.24231 L588.86719 152.24174 L589.84375 152.24135 L590.82031 152.24068 L591.79688 152.24019 L592.77344 152.23962 L593.75000 152.23920 L594.72656 152.23866 L595.70313 152.23811 L596.67969 152.23750 L597.65625 152.23695 L598.63281 152.23639 L599.60938 152.23584 L600.58594 152.23526 L601.56250 152.23451 L602.53906 152.23389 L603.51563 152.23318 L604.49219 152.23268 L605.46875 152.23193 L606.44531 152.23151 L607.42188 152.23077 L608.39844 152.23003 L609.37500 152.22937 L610.35156 152.22867 L611.32813 152.22801 L612.30469 152.22736 L613.28125 152.22664 L614.25781 152.22601 L615.23438 152.22491 L616.21094 152.22421 L617.18750 152.22368 L618.16406 152.22287 L619.14063 152.22203 L620.11719 152.22125 L621.09375 152.22052 L622.07031 152.21964 L623.04688 152.21878 L624.02344 152.21786 L625.00000 152.21716 L625.97656 152.21623 L626.95313 152.21547 L627.92969 152.21455 L628.90625 152.21356 L629.88281 152.21271 L630.85938 152.21173 L631.83594 152.21091 L632.81250 152.20982 L633.78906 152.20877 L634.76563 152.20778 L635.74219 152.20685 L636.71875 152.20587 L637.69531 152.20499 L638.67188 152.20374 L639.64844 152.20261 L640.62500 152.20152 L641.60156 152.20090 L642.57813 152.19926 L643.55469 152.19873 L644.53125 152.19733 L645.50781 152.19617 L646.48438 152.19481 L647.46094 152.19379 L648.43750 152.19250 L649.41406 152.19133 L650.39063 152.19009 L651.36719 152.18872 L652.34375 152.18764 L653.32031 152.18607 L654.29688 152.18472 L655.27344 152.18340 L656.25000 152.18224 L657.22656 152.18085 L658.20313 152.17946 L659.17969 152.17799 L660.15625 152.17648 L661.13281 152.17506 L662.10938 152.17355 L663.08594 152.17203 L664.06250 152.17038 L665.03906 152.16882 L666.01563 152.16724 L666.99219 152.16570 L667.96875 152.16399 L668.94531 152.16243 L669.92188 152.16072 L670.89844 152.15886 L671.87500 152.15714 L672.85156 152.15523 L673.82813 152.15359 L674.80469 152.15170 L675.78125 152.14983 L676.75781 152.14795 L677.73438 152.14590 L678.71094 152.14409 L679.68750 152.14189 L680.66406 152.13998 L681.64063 152.13797 L682.61719 152.13556 L683.59375 152.13403 L684.57031 152.13132 L685.54688 152.12904 L686.52344 152.12671 L687.50000 152.12450 L688.47656 152.12183 L689.45313 152.11952 L690.42969 152.11714 L691.40625 152.11472 L692.38281 152.11223 L693.35938 152.10947 L694.33594 152.10686 L695.31250 152.10410 L696.28906 152.10147 L697.26563 152.09871 L698.24219 152.09583 L699.21875 152.09291 L700.19531 152.08997 L701.17188 152.08693 L702.14844 152.08377 L703.12500 152.08055 L704.10156 152.07738 L705.07813 152.07407 L706.05469 152.07089 L707.03125 152.06731 L708.00781 152.06371 L708.98438 152.06026 L709.96094 152.05655 L710.93750 152.05275 L711.91406 152.04890 L712.89063 152.04485 L713.86719 152.04115 L714.84375 152.03659 L715.82031 152.03296 L716.79688 152.02866 L717.77344 152.02412 L718.75000 152.01933 L719.72656 152.01486 L720.70313 152.01013 L721.67969 152.00526 L722.65625 152.00026 L723.63281 151.99507 L724.60938 151.98997 L725.58594 151.98462 L726.56250 151.97894 L727.53906 151.97313 L728.51563 151.96709 L729.49219 151.96129 L730.46875 151.95535 L731.44531 151.94925 L732.42188 151.94270 L733.39844 151.93582 L734.37500 151.92892 L735.35156 151.92188 L736.32813 151.91464 L737.30469 151.90732 L738.28125 151.89919 L739.25781 151.89111 L740.23438 151.88292 L741.21094 151.87437 L742.18750 151.86551 L743.16406 151.85632 L744.14063 151.84680 L745.11719 151.83717 L746.09375 151.82690 L747.07031 151.81653 L748.04688 151.80554 L749.02344 151.79414 L750.00000 151.78236 L750.97656 151.77017 L751.95313 151.75746 L752.92969 151.74416 L753.90625 151.73044 L754.88281 151.71611 L755.85938 151.70113 L756.83594 151.68544 L757.81250 151.66888 L758.78906 151.65181 L759.76563 151.63382 L760.74219 151.61504 L761.71875 151.59520 L762.69531 151.57434 L763.67188 151.55240 L764.64844 151.52927 L765.62500 151.50493 L766.60156 151.47902 L767.57813 151.45160 L768.55469 151.42287 L769.53125 151.39148 L770.50781 151.35861 L771.48438 151.32359 L772.46094 151.28596 L773.43750 151.24562 L774.41406 151.20219 L775.39063 151.15530 L776.36719 151.10478 L777.34375 151.04974 L778.32031 150.99002 L779.29688 150.92456 L780.27344 150.85254 L781.25000 150.77330 L782.22656 150.68533 L783.20313 150.58728 L784.17969 150.47704 L785.15625 150.35237 L786.13281 150.21036 L787.10938 150.04691 L788.08594 149.85693 L789.06250 149.63303 L790.03906 149.36548 L791.01563 149.03983 L791.99219 148.63501 L792.96875 148.11795 L793.94531 147.43439 L794.92188 146.48822 L795.89844 145.09207 L796.87500 142.82413 L797.85156 138.49521 L798.82813 126.95332 L799.80469 0.00000 L800.78125 190.42462 L801.75781 169.26555 L802.73438 163.21918 L803.71094 160.35437 L804.68750 158.68259 L805.66406 157.58682 L806.64063 156.81290 L807.61719 156.23705 L808.59375 155.79163 L809.57031 155.43684 L810.54688 155.14740 L811.52344 154.90663 L812.50000 154.70325 L813.47656 154.52895 L814.45313 154.37794 L815.42969 154.24590 L816.40625 154.12923 L817.38281 154.02544 L818.35938 153.93225 L819.33594 153.84836 L820.31250 153.77232 L821.28906 153.70313 L822.26563 153.63950 L823.24219 153.58092 L824.21875 153.52686 L825.19531 153.47701 L826.17188 153.43065 L827.14844 153.38702 L828.12500 153.34596 L829.10156 153.30711 L830.07813 153.27089 L831.05469 153.23669 L832.03125 153.20509 L833.00781 153.17447 L833.98438 153.14514 L834.96094 153.11720 L835.93750 153.09055 L836.91406 153.06502 L837.89063 153.04062 L838.86719 153.01689 L839.84375 152.99406 L840.82031 152.97226 L841.79688 152.95036 L842.77344 152.93002 L843.75000 152.90936 L844.72656 152.88950 L845.70313 152.87010 L846.67969 152.85141 L847.65625 152.83278 L848.63281 152.81442 L849.60938 152.79622 L850.58594 152.77832 L851.56250 152.76065 L852.53906 152.74316 L853.51563 152.72551 L854.49219 152.70796 L855.46875 152.69043 L856.44531 152.67296 L857.42188 152.65536 L858.39844 152.63742 L859.37500 152.61942 L860.35156 152.60107 L861.32813 152.58260 L862.30469 152.56363 L863.28125 152.54456 L864.25781 152.52475 L865.23438 152.50441 L866.21094 152.48357 L867.18750 152.46190 L868.16406 152.43945 L869.14063 152.41631 L870.11719 152.39183 L871.09375 152.36641 L872.07031 152.33969 L873.04688 152.31166 L874.02344 152.28165 L875.00000 152.25021 L875.97656 152.21640 L876.95313 152.18030 L877.92969 152.14146 L878.90625 152.09938 L879.88281 152.05389 L880.85938 152.00398 L881.83594 151.94934 L882.81250 151.88890 L883.78906 151.82187 L884.76563 151.74652 L885.74219 151.66127 L886.71875 151.56403 L887.69531 151.45181 L888.67188 151.32088 L889.64844 151.16562 L890.62500 150.97859 L891.60156 150.74860 L892.57813 150.45879 L893.55469 150.08176 L894.53125 149.57092 L895.50781 148.83841 L896.48438 147.69995 L897.46094 145.68695 L898.43750 141.15944 L899.41406 121.54410 L900.39063 199.99997 L901.36719 166.37492 L902.34375 160.77013 L903.32031 158.46198 L904.29688 157.20274 L905.27344 156.40968 L906.25000 155.86455 L907.22656 155.46660 L908.20313 155.16360 L909.17969 154.92516 L910.15625 154.73232 L911.13281 154.57373 L912.10938 154.44052 L913.08594 154.32767 L914.06250 154.23068 L915.03906 154.14659 L916.01563 154.07269 L916.99219 154.00737 L917.96875 153.94943 L918.94531 153.89775 L919.92188 153.85141 L920.89844 153.80954 L921.87500 153.77159 L922.85156 153.73717 L923.82813 153.70598 L924.80469 153.67743 L925.78125 153.65143 L926.75781 153.62738 L927.73438 153.60553 L928.71094 153.58549 L929.68750 153.56708 L930.66406 153.55014 L931.64063 153.53476 L932.61719 153.52045 L933.59375 153.50760 L934.57031 153.49588 L935.54688 153.48512 L936.52344 153.47520 L937.50000 153.46652 L938.47656 153.45883 L939.45313 153.45215 L940.42969 153.44637 L941.40625 153.44022 L942.38281 153.43689 L943.35938 153.43259 L944.33594 153.43002 L945.31250 153.42812 L946.28906 153.42746 L947.26563 153.42717 L948.24219 153.42787 L949.21875 153.42947 L950.19531 153.43190 L951.17188 153.43541 L952.14844 153.43971 L953.12500 153.44518 L954.10156 153.45160 L955.07813 153.45926 L956.05469 153.46808 L957.03125 153.47821 L958.00781 153.48969 L958.98438 153.50276 L959.96094 153.51744 L960.93750 153.53401 L961.91406 153.55255 L962.89063 153.57339 L963.86719 153.59651 L964.84375 153.62241 L965.82031 153.65134 L966.79688 153.68372 L967.77344 153.72017 L968.75000 153.76105 L969.72656 153.80705 L970.70313 153.85913 L971.67969 153.91814 L972.65625 153.98582 L973.63281 154.06268 L974.60938 154.15181 L975.58594 154.25500 L976.56250 154.37558 L977.53906 154.51790 L978.51563 154.68787 L979.49219 154.89349 L980.46875 155.14580 L981.44531 155.46124 L982.42188 155.86487 L983.39844 156.39650 L984.37500 157.12427 L985.35156 158.17258 L986.32813 159.79993 L987.30469 162.63866 L988.28125 168.76045 L989.25781 191.14227 L990.23438 26.46464 L991.21094 127.27467 L992.18750 137.99785 L993.16406 142.03879 L994.14063 144.11656 L995.11719 145.34602 L996.09375 146.12570 L997.07031 146.63054 L998.04688 146.94839 L999.02344 147.12436" /><path fill="none" stroke="#000000" d="M0 300.00000  L0.00000 300.00000  L0.97656 300.43521  L1.95313 300.89587  L2.92969 301.41272  L3.90625 302.02985  L4.88281 302.81921  L5.85938 303.91650  L6.83594 305.62112  L7.81250 308.76129  L8.78906 316.83304  L9.76563 391.57428  L10.74219 269.79239  L11.71875 286.46173  L12.69531 291.08746  L13.67188 293.27606  L14.64844 294.56177  L15.62500 295.41370  L16.60156 296.02332  L17.57813 296.48376  L18.55469 296.84564  L19.53125 297.13889  L20.50781 297.38226  L21.48438 297.58826  L22.46094 297.76547  L23.43750 297.92007  L24.41406 298.05655  L25.39063 298.17853  L26.36719 298.28790  L27.34375 298.38736  L28.32031 298.47812  L29.29688 298.56152  L30.27344 298.63855  L31.25000 298.71033  L32.22656 298.77734  L33.20313 298.84021  L34.17969 298.89944  L35.15625 298.95554  L36.13281 299.00885  L37.10938 299.05951  L38.08594 299.10825  L39.06250 299.15482  L40.03906 299.19965  L41.01563 299.24298  L41.99219 299.28488  L42.96875 299.32562  L43.94531 299.36533  L44.92188 299.40405  L45.89844 299.44205  L46.87500 299.47931  L47.85156 299.51605  L48.82813 299.55222  L49.80469 299.58804  L50.78125 299.62366  L51.75781 299.65891  L52.73438 299.69421  L53.71094 299.72943  L54.68750 299.76474  L55.66406 299.80017  L56.64063 299.83536  L57.61719 299.87207  L58.59375 299.90814  L59.57031 299.94525  L60.54688 299.98315  L61.52344 300.02179  L62.50000 300.06094  L63.47656 300.10126  L64.45313 300.14264  L65.42969 300.18546  L66.40625 300.22974  L67.38281 300.27557  L68.35938 300.32318  L69.33594 300.37296  L70.31250 300.42499  L71.28906 300.47955  L72.26563 300.53693  L73.24219 300.59760  L74.21875 300.66205  L75.19531 300.73068  L76.17188 300.80389  L77.14844 300.88232  L78.12500 300.96686  L79.10156 301.05844  L80.07813 301.15805  L81.05469 301.26697  L82.03125 301.38666  L83.00781 301.51913  L83.98438 301.66687  L84.96094 301.83286  L85.93750 302.02075  L86.91406 302.23544  L87.89063 302.48349  L88.86719 302.77417  L89.84375 303.11932  L90.82031 303.53680  L91.79688 304.05228  L92.77344 304.70538  L93.75000 305.56079  L94.72656 306.73120  L95.70313 308.43115  L96.67969 311.12848  L97.65625 316.06949  L98.63281 328.06268  L99.60938 400.00000  L100.58594 232.15863  L101.56250 274.12421  L102.53906 283.81134  L103.51563 288.11871  L104.49219 290.55475  L105.46875 292.12195  L106.44531 293.21521  L107.42188 294.02136  L108.39844 294.64069  L109.37500 295.13153  L110.35156 295.53027  L111.32813 295.86053  L112.30469 296.13873  L113.28125 296.37628  L114.25781 296.58154  L115.23438 296.76071  L116.21094 296.91843  L117.18750 297.05835  L118.16406 297.18329  L119.14063 297.29553  L120.11719 297.39709  L121.09375 297.48920  L122.07031 297.57318  L123.04688 297.65009  L124.02344 297.72073  L125.00000 297.78589  L125.97656 297.84604  L126.95313 297.90167  L127.92969 297.95367  L128.90625 298.00186  L129.88281 298.04688  L130.85938 298.08884  L131.83594 298.12842  L132.81250 298.16528  L133.78906 298.19986  L134.76563 298.23245  L135.74219 298.26306  L136.71875 298.29193  L137.69531 298.31924  L138.67188 298.34473  L139.64844 298.36884  L140.62500 298.39157  L141.60156 298.41309  L142.57813 298.43341  L143.55469 298.45255  L144.53125 298.47058  L145.50781 298.48752  L146.48438 298.50348  L147.46094 298.51855  L148.43750 298.53262  L149.41406 298.54578  L150.39063 298.55798  L151.36719 298.56943  L152.34375 298.58008  L153.32031 298.58990  L154.29688 298.59894  L155.27344 298.60699  L156.25000 298.61423  L157.22656 298.62119  L158.20313 298.62674  L159.17969 298.63196  L160.15625 298.63626  L161.13281 298.63968  L162.10938 298.64215  L163.08594 298.64386  L164.06250 298.64459  L165.03906 298.64444  L166.01563 298.64343  L166.99219 298.64139  L167.96875 298.63824  L168.94531 298.63403  L169.92188 298.62802  L170.89844 298.62091  L171.87500 298.61267  L172.85156 298.60321  L173.82813 298.59216  L174.80469 298.57907  L175.78125 298.56384  L176.75781 298.54633  L177.73438 298.52655  L178.71094 298.50403  L179.68750 298.47827  L180.66406 298.44882  L181.64063 298.41528  L182.61719 298.37701  L183.59375 298.33313  L184.57031 298.28256  L185.54688 298.22397  L186.52344 298.15570  L187.50000 298.07559  L188.47656 297.98071  L189.45313 297.86655  L190.42969 297.72791  L191.40625 297.55597  L192.38281 297.33820  L193.35938 297.05438  L194.33594 296.67041  L195.31250 296.12384  L196.28906 295.28625  L197.26563 293.84607  L198.24219 290.79910  L199.21875 280.12024  L200.19531 376.28970  L201.17188 312.18524  L202.14844 306.36267  L203.12500 304.18250  L204.10156 303.04291  L205.07813 302.34357  L206.05469 301.87143  L207.03125 301.53180  L208.00781 301.27618  L208.98438 301.07712  L209.96094 300.91797  L210.93750 300.78806  L211.91406 300.68011  L212.89063 300.58917  L213.86719 300.51160  L214.84375 300.44470  L215.82031 300.38669  L216.79688 300.33591  L217.77344 300.29108  L218.75000 300.25128  L219.72656 300.21582  L220.70313 300.18396  L221.67969 300.15552  L222.65625 300.12970  L223.63281 300.10623  L224.60938 300.08490  L225.58594 300.06555  L226.56250 300.04785  L227.53906 300.03156  L228.51563 300.01657  L229.49219 300.00281  L230.46875 299.99023  L231.44531 299.97842  L232.42188 299.96790  L233.39844 299.95789  L234.37500 299.94858  L235.35156 299.93994  L236.32813 299.93192  L237.30469 299.92450  L238.28125 299.91763  L239.25781 299.91119  L240.23438 299.90521  L241.21094 299.89960  L242.18750 299.89435  L243.16406 299.88947  L244.14063 299.88495  L245.11719 299.88077  L246.09375 299.87677  L247.07031 299.87305  L248.04688 299.86963  L249.02344 299.86633  L250.00000 299.86337  L250.97656 299.86057  L251.95313 299.85785  L252.92969 299.85556  L253.90625 299.85327  L254.88281 299.85110  L255.85938 299.84906  L256.83594 299.84729  L257.81250 299.84555  L258.78906 299.84393  L259.76563 299.84253  L260.74219 299.84113  L261.71875 299.83990  L262.69531 299.83868  L263.67188 299.83774  L264.64844 299.83679  L265.62500 299.83588  L266.60156 299.83502  L267.57813 299.83429  L268.55469 299.83374  L269.53125 299.83325  L270.50781 299.83264  L271.48438 299.83206  L272.46094 299.83148  L273.43750 299.83105  L274.41406 299.83087  L275.39063 299.83066  L276.36719 299.83051  L277.34375 299.83032  L278.32031 299.83014  L279.29688 299.83017  L280.27344 299.83008  L281.25000 299.83011  L282.22656 299.83020  L283.20313 299.82996  L284.17969 299.83060  L285.15625 299.83078  L286.13281 299.83075  L287.10938 299.83078  L288.08594 299.83121  L289.06250 299.83139  L290.03906 299.83170  L291.01563 299.83200  L291.99219 299.83221  L292.96875 299.83270  L293.94531 299.83301  L294.92188 299.83350  L295.89844 299.83392  L296.87500 299.83429  L297.85156 299.83472  L298.82813 299.83514  L299.80469 299.83572  L300.78125 299.83621  L301.75781 299.83673  L302.73438 299.83728  L303.71094 299.83783  L304.68750 299.83838  L305.66406 299.83890  L306.64063 299.83948  L307.61719 299.84006  L308.59375 299.84067  L309.57031 299.84137  L310.54688 299.84195  L311.52344 299.84250  L312.50000 299.84305  L313.47656 299.84360  L314.45313 299.84464  L315.42969 299.84497  L316.40625 299.84570  L317.38281 299.84662  L318.35938 299.84735  L319.33594 299.84793  L320.31250 299.84869  L321.28906 299.84937  L322.26563 299.85016  L323.24219 299.85089  L324.21875 299.85162  L325.19531 299.85236  L326.17188 299.85306  L327.14844 299.85391  L328.12500 299.85455  L329.10156 299.85532  L330.07813 299.85611  L331.05469 299.85690  L332.03125 299.85773  L333.00781 299.85849  L333.98438 299.85925  L334.96094 299.86002  L335.93750 299.86075  L336.91406 299.86154  L337.89063 299.86240  L338.86719 299.86316  L339.84375 299.86395  L340.82031 299.86478  L341.79688 299.86560  L342.77344 299.86646  L343.75000 299.86728  L344.72656 299.86804  L345.70313 299.86890  L346.67969 299.86954  L347.65625 299.87039  L348.63281 299.87128  L349.60938 299.87213  L350.58594 299.87292  L351.56250 299.87375  L352.53906 299.87460  L353.51563 299.87543  L354.49219 299.87613  L355.46875 299.87701  L356.44531 299.87805  L357.42188 299.87885  L358.39844 299.87964  L359.37500 299.88065  L360.35156 299.88126  L361.32813 299.88202  L362.30469 299.88293  L363.28125 299.88379  L364.25781 299.88467  L365.23438 299.88550  L366.21094 299.88620  L367.18750 299.88708  L368.16406 299.88791  L369.14063 299.88882  L370.11719 299.88965  L371.09375 299.89044  L372.07031 299.89136  L373.04688 299.89215  L374.02344 299.89307  L375.00000 299.89392  L375.97656 299.89471  L376.95313 299.89563  L377.92969 299.89633  L378.90625 299.89722  L379.88281 299.89810  L380.85938 299.89896  L381.83594 299.89984  L382.81250 299.90060  L383.78906 299.90155  L384.76563 299.90222  L385.74219 299.90314  L386.71875 299.90393  L387.69531 299.90491  L388.67188 299.90567  L389.64844 299.90659  L390.62500 299.90738  L391.60156 299.90814  L392.57813 299.90906  L393.55469 299.90994  L394.53125 299.91083  L395.50781 299.91159  L396.48438 299.91248  L397.46094 299.91321  L398.43750 299.91400  L399.41406 299.91492  L400.39063 299.91580  L401.36719 299.91669  L402.34375 299.91748  L403.32031 299.91833  L404.29688 299.91919  L405.27344 299.92004  L406.25000 299.92090  L407.22656 299.92172  L408.20313 299.92252  L409.17969 299.92334  L410.15625 299.92419  L411.13281 299.92505  L412.10938 299.92593  L413.08594 299.92667  L414.06250 299.92755  L415.03906 299.92844  L416.01563 299.92938  L416.99219 299.92999  L417.96875 299.93097  L418.94531 299.93182  L419.92188 299.93259  L420.89844 299.93344  L421.87500 299.93420  L422.85156 299.93506  L423.82813 299.93597  L424.80469 299.93677  L425.78125 299.93753  L426.75781 299.93829  L427.73438 299.93964  L428.71094 299.94058  L429.68750 299.94141  L430.66406 299.94205  L431.64063 299.94260  L432.61719 299.94336  L433.59375 299.94421  L434.57031 299.94519  L435.54688 299.94601  L436.52344 299.94675  L437.50000 299.94754  L438.47656 299.94839  L439.45313 299.94928  L440.42969 299.95001  L441.40625 299.95081  L442.38281 299.95163  L443.35938 299.95255  L444.33594 299.95343  L445.31250 299.95416  L446.28906 299.95496  L447.26563 299.95581  L448.24219 299.95660  L449.21875 299.95758  L450.19531 299.95831  L451.17188 299.95905  L452.14844 299.95987  L453.12500 299.96075  L454.10156 299.96176  L455.07813 299.96234  L456.05469 299.96295  L457.03125 299.96368  L458.00781 299.96503  L458.98438 299.96530  L459.96094 299.96674  L460.93750 299.96753  L461.91406 299.96820  L462.89063 299.96902  L463.86719 299.96973  L464.84375 299.97064  L465.82031 299.97150  L466.79688 299.97232  L467.77344 299.97318  L468.75000 299.97385  L469.72656 299.97458  L470.70313 299.97528  L471.67969 299.97604  L472.65625 299.97705  L473.63281 299.97797  L474.60938 299.97888  L475.58594 299.97968  L476.56250 299.98035  L477.53906 299.98120  L478.51563 299.98206  L479.49219 299.98288  L480.46875 299.98376  L481.44531 299.98450  L482.42188 299.98535  L483.39844 299.98608  L484.37500 299.98700  L485.35156 299.98785  L486.32813 299.98853  L487.30469 299.98935  L488.28125 299.99011  L489.25781 299.99109  L490.23438 299.99182  L491.21094 299.99274  L492.18750 299.99353  L493.16406 299.99426  L494.14063 299.99515  L495.11719 299.99594  L496.09375 299.99677  L497.07031 299.99759  L498.04688 299.99835  L499.02344 299.99921  L500.00000 300.00000  L500.97656 300.00079  L501.95313 300.00165  L502.92969 300.00241  L503.90625 300.00323  L504.88281 300.00406  L505.85938 300.00482  L506.83594 300.00574  L507.81250 300.00647  L508.78906 300.00726  L509.76563 300.00818  L510.74219 300.00891  L511.71875 300.00989  L512.69531 300.01065  L513.67188 300.01147  L514.64844 300.01215  L515.62500 300.01300  L516.60156 300.01392  L517.57813 300.01465  L518.55469 300.01550  L519.53125 300.01624  L520.50781 300.01712  L521.48438 300.01794  L522.46094 300.01880  L523.43750 300.01965  L524.41406 300.02032  L525.39063 300.02112  L526.36719 300.02203  L527.34375 300.02295  L528.32031 300.02396  L529.29688 300.02472  L530.27344 300.02542  L531.25000 300.02615  L532.22656 300.02686  L533.20313 300.02768  L534.17969 300.02850  L535.15625 300.02936  L536.13281 300.03027  L537.10938 300.03098  L538.08594 300.03180  L539.06250 300.03247  L540.03906 300.03326  L541.01563 300.03470  L541.99219 300.03497  L542.96875 300.03632  L543.94531 300.03705  L544.92188 300.03766  L545.89844 300.03824  L546.87500 300.03925  L547.85156 300.04013  L548.82813 300.04095  L549.80469 300.04169  L550.78125 300.04242  L551.75781 300.04340  L552.73438 300.04419  L553.71094 300.04504  L554.68750 300.04584  L555.66406 300.04657  L556.64063 300.04745  L557.61719 300.04837  L558.59375 300.04919  L559.57031 300.04999  L560.54688 300.05072  L561.52344 300.05161  L562.50000 300.05246  L563.47656 300.05325  L564.45313 300.05399  L565.42969 300.05481  L566.40625 300.05579  L567.38281 300.05664  L568.35938 300.05740  L569.33594 300.05795  L570.31250 300.05859  L571.28906 300.05942  L572.26563 300.06036  L573.24219 300.06171  L574.21875 300.06247  L575.19531 300.06323  L576.17188 300.06403  L577.14844 300.06494  L578.12500 300.06580  L579.10156 300.06656  L580.07813 300.06741  L581.05469 300.06818  L582.03125 300.06903  L583.00781 300.07001  L583.98438 300.07062  L584.96094 300.07153  L585.93750 300.07245  L586.91406 300.07333  L587.89063 300.07407  L588.86719 300.07495  L589.84375 300.07581  L590.82031 300.07666  L591.79688 300.07748  L592.77344 300.07828  L593.75000 300.07910  L594.72656 300.07996  L595.70313 300.08081  L596.67969 300.08167  L597.65625 300.08252  L598.63281 300.08331  L599.60938 300.08420  L600.58594 300.08508  L601.56250 300.08600  L602.53906 300.08679  L603.51563 300.08752  L604.49219 300.08841  L605.46875 300.08917  L606.44531 300.09006  L607.42188 300.09094  L608.39844 300.09186  L609.37500 300.09262  L610.35156 300.09341  L611.32813 300.09433  L612.30469 300.09509  L613.28125 300.09607  L614.25781 300.09686  L615.23438 300.09775  L616.21094 300.09845  L617.18750 300.09940  L618.16406 300.10016  L619.14063 300.10104  L620.11719 300.10190  L621.09375 300.10278  L622.07031 300.10367  L623.04688 300.10437  L624.02344 300.10529  L625.00000 300.10608  L625.97656 300.10693  L626.95313 300.10785  L627.92969 300.10864  L628.90625 300.10956  L629.88281 300.11035  L630.85938 300.11118  L631.83594 300.11209  L632.81250 300.11292  L633.78906 300.11377  L634.76563 300.11450  L635.74219 300.11533  L636.71875 300.11621  L637.69531 300.11707  L638.67188 300.11798  L639.64844 300.11874  L640.62500 300.11935  L641.60156 300.12036  L642.57813 300.12115  L643.55469 300.12195  L644.53125 300.12299  L645.50781 300.12390  L646.48438 300.12457  L647.46094 300.12540  L648.43750 300.12625  L649.41406 300.12708  L650.39063 300.12787  L651.36719 300.12872  L652.34375 300.12961  L653.32031 300.13046  L654.29688 300.13110  L655.27344 300.13196  L656.25000 300.13272  L657.22656 300.13354  L658.20313 300.13440  L659.17969 300.13522  L660.15625 300.13605  L661.13281 300.13684  L662.10938 300.13760  L663.08594 300.13846  L664.06250 300.13925  L665.03906 300.13998  L666.01563 300.14075  L666.99219 300.14154  L667.96875 300.14227  L668.94531 300.14310  L669.92188 300.14389  L670.89844 300.14468  L671.87500 300.14545  L672.85156 300.14609  L673.82813 300.14694  L674.80469 300.14764  L675.78125 300.14838  L676.75781 300.14911  L677.73438 300.14984  L678.71094 300.15063  L679.68750 300.15131  L680.66406 300.15207  L681.64063 300.15265  L682.61719 300.15338  L683.59375 300.15430  L684.57031 300.15503  L685.54688 300.15536  L686.52344 300.15640  L687.50000 300.15695  L688.47656 300.15750  L689.45313 300.15805  L690.42969 300.15863  L691.40625 300.15933  L692.38281 300.15994  L693.35938 300.16052  L694.33594 300.16110  L695.31250 300.16162  L696.28906 300.16217  L697.26563 300.16272  L698.24219 300.16327  L699.21875 300.16379  L700.19531 300.16428  L701.17188 300.16486  L702.14844 300.16528  L703.12500 300.16571  L704.10156 300.16608  L705.07813 300.16650  L706.05469 300.16699  L707.03125 300.16730  L708.00781 300.16779  L708.98438 300.16800  L709.96094 300.16830  L710.93750 300.16861  L711.91406 300.16879  L712.89063 300.16922  L713.86719 300.16925  L714.84375 300.16922  L715.82031 300.16940  L716.79688 300.17004  L717.77344 300.16980  L718.75000 300.16989  L719.72656 300.16992  L720.70313 300.16983  L721.67969 300.16986  L722.65625 300.16968  L723.63281 300.16949  L724.60938 300.16931  L725.58594 300.16913  L726.56250 300.16895  L727.53906 300.16852  L728.51563 300.16794  L729.49219 300.16736  L730.46875 300.16675  L731.44531 300.16626  L732.42188 300.16571  L733.39844 300.16498  L734.37500 300.16412  L735.35156 300.16321  L736.32813 300.16226  L737.30469 300.16132  L738.28125 300.16010  L739.25781 300.15887  L740.23438 300.15747  L741.21094 300.15607  L742.18750 300.15445  L743.16406 300.15271  L744.14063 300.15094  L745.11719 300.14890  L746.09375 300.14673  L747.07031 300.14444  L748.04688 300.14215  L749.02344 300.13943  L750.00000 300.13663  L750.97656 300.13367  L751.95313 300.13037  L752.92969 300.12695  L753.90625 300.12323  L754.88281 300.11923  L755.85938 300.11505  L756.83594 300.11053  L757.81250 300.10565  L758.78906 300.10040  L759.76563 300.09479  L760.74219 300.08881  L761.71875 300.08237  L762.69531 300.07550  L763.67188 300.06808  L764.64844 300.06006  L765.62500 300.05142  L766.60156 300.04211  L767.57813 300.03210  L768.55469 300.02158  L769.53125 300.00977  L770.50781 299.99719  L771.48438 299.98343  L772.46094 299.96844  L773.43750 299.95215  L774.41406 299.93445  L775.39063 299.91510  L776.36719 299.89377  L777.34375 299.87030  L778.32031 299.84448  L779.29688 299.81604  L780.27344 299.78418  L781.25000 299.74872  L782.22656 299.70892  L783.20313 299.66409  L784.17969 299.61331  L785.15625 299.55530  L786.13281 299.48840  L787.10938 299.41083  L788.08594 299.31989  L789.06250 299.21194  L790.03906 299.08203  L791.01563 298.92288  L791.99219 298.72382  L792.96875 298.46820  L793.94531 298.12857  L794.92188 297.65643  L795.89844 296.95709  L796.87500 295.81750  L797.85156 293.63733  L798.82813 287.81476  L799.80469 223.71033  L800.78125 319.87976  L801.75781 309.20090  L802.73438 306.15393  L803.71094 304.71375  L804.68750 303.87616  L805.66406 303.32959  L806.64063 302.94562  L807.61719 302.66180  L808.59375 302.44403  L809.57031 302.27209  L810.54688 302.13345  L811.52344 302.01929  L812.50000 301.92441  L813.47656 301.84430  L814.45313 301.77603  L815.42969 301.71744  L816.40625 301.66687  L817.38281 301.62299  L818.35938 301.58472  L819.33594 301.55115  L820.31250 301.52173  L821.28906 301.49597  L822.26563 301.47345  L823.24219 301.45367  L824.21875 301.43616  L825.19531 301.42093  L826.17188 301.40784  L827.14844 301.39679  L828.12500 301.38733  L829.10156 301.37909  L830.07813 301.37198  L831.05469 301.36597  L832.03125 301.36176  L833.00781 301.35861  L833.98438 301.35657  L834.96094 301.35556  L835.93750 301.35541  L836.91406 301.35614  L837.89063 301.35785  L838.86719 301.36032  L839.84375 301.36374  L840.82031 301.36804  L841.79688 301.37326  L842.77344 301.37881  L843.75000 301.38577  L844.72656 301.39301  L845.70313 301.40106  L846.67969 301.41010  L847.65625 301.41992  L848.63281 301.43057  L849.60938 301.44202  L850.58594 301.45422  L851.56250 301.46738  L852.53906 301.48145  L853.51563 301.49652  L854.49219 301.51248  L855.46875 301.52942  L856.44531 301.54745  L857.42188 301.56659  L858.39844 301.58691  L859.37500 301.60843  L860.35156 301.63116  L861.32813 301.65527  L862.30469 301.68076  L863.28125 301.70807  L864.25781 301.73694  L865.23438 301.76755  L866.21094 301.80014  L867.18750 301.83472  L868.16406 301.87158  L869.14063 301.91116  L870.11719 301.95313  L871.09375 301.99814  L872.07031 302.04633  L873.04688 302.09833  L874.02344 302.15396  L875.00000 302.21411  L875.97656 302.27927  L876.95313 302.34991  L877.92969 302.42682  L878.90625 302.51080  L879.88281 302.60291  L880.85938 302.70447  L881.83594 302.81671  L882.81250 302.94165  L883.78906 303.08157  L884.76563 303.23929  L885.74219 303.41846  L886.71875 303.62372  L887.69531 303.86124  L888.67188 304.13947  L889.64844 304.46973  L890.62500 304.86847  L891.60156 305.35931  L892.57813 305.97864  L893.55469 306.78479  L894.53125 307.87805  L895.50781 309.44525  L896.48438 311.88129  L897.46094 316.18866  L898.43750 325.87582  L899.41406 367.84137  L900.39063 200.00000  L901.36719 271.93732  L902.34375 283.93051  L903.32031 288.87152  L904.29688 291.56885  L905.27344 293.26880  L906.25000 294.43921  L907.22656 295.29462  L908.20313 295.94772  L909.17969 296.46320  L910.15625 296.88068  L911.13281 297.22583  L912.10938 297.51651  L913.08594 297.76456  L914.06250 297.97925  L915.03906 298.16714  L916.01563 298.33313  L916.99219 298.48087  L917.96875 298.61334  L918.94531 298.73303  L919.92188 298.84195  L920.89844 298.94156  L921.87500 299.03314  L922.85156 299.11768  L923.82813 299.19611  L924.80469 299.26932  L925.78125 299.33795  L926.75781 299.40240  L927.73438 299.46307  L928.71094 299.52045  L929.68750 299.57501  L930.66406 299.62704  L931.64063 299.67682  L932.61719 299.72443  L933.59375 299.77026  L934.57031 299.81454  L935.54688 299.85736  L936.52344 299.89874  L937.50000 299.93906  L938.47656 299.97821  L939.45313 300.01685  L940.42969 300.05475  L941.40625 300.09186  L942.38281 300.12793  L943.35938 300.16464  L944.33594 300.19983  L945.31250 300.23526  L946.28906 300.27057  L947.26563 300.30579  L948.24219 300.34109  L949.21875 300.37637  L950.19531 300.41193  L951.17188 300.44778  L952.14844 300.48395  L953.12500 300.52069  L954.10156 300.55795  L955.07813 300.59595  L956.05469 300.63467  L957.03125 300.67438  L958.00781 300.71512  L958.98438 300.75705  L959.96094 300.80035  L960.93750 300.84518  L961.91406 300.89175  L962.89063 300.94049  L963.86719 300.99115  L964.84375 301.04446  L965.82031 301.10056  L966.79688 301.15979  L967.77344 301.22266  L968.75000 301.28967  L969.72656 301.36145  L970.70313 301.43848  L971.67969 301.52188  L972.65625 301.61264  L973.63281 301.71210  L974.60938 301.82147  L975.58594 301.94342  L976.56250 302.07993  L977.53906 302.23456  L978.51563 302.41174  L979.49219 302.61774  L980.46875 302.86111  L981.44531 303.15436  L982.42188 303.51624  L983.39844 303.97668  L984.37500 304.58630  L985.35156 305.43823  L986.32813 306.72394  L987.30469 308.91254  L988.28125 313.53827  L989.25781 330.20758  L990.23438 208.42578  L991.21094 283.16699  L992.18750 291.23871  L993.16406 294.37888  L994.14063 296.08347  L995.11719 297.18079  L996.09375 297.97015  L997.07031 298.58728  L998.04688 299.10413  L999.02344 299.56479 " /></g><text x="1000.00000" dx="10" y="152.01414">[-0.11920;0.37761]</text><text x="1000.00000" dx="10" y="300.00000">[-0.35737;0.35737]</text></svg>