<svg xmlns="http://www.w3.org/2000/svg" version="1.1"><g stroke-width="0.6"><path fill="none" stroke="#000000" d="M0 37.19062 L1000.00000 37.19062" /><path fill="none" stroke="#000000" d="M0 300.00000 L1000.00000 300.00000" /><path fill="none" stroke="#000000" d="M500.00000 0 L500.00000 400.00000" /><path fill="none" stroke="#000000" d="M0 37.19062  L0.00000 36.66829 L0.97656 42.36067 L1.95313 37.74253 L2.92969 36.24055 L3.90625 40.21418 L4.88281 37.71938 L5.85938 39.90990 L6.83594 40.94431 L7.81250 34.67548 L8.78906 43.31845 L9.76563 39.23013 L10.74219 39.79322 L11.71875 43.97743 L12.69531 36.19369 L13.67188 43.35865 L14.64844 41.98245 L15.62500 183.66988 L16.60156 49.05360 L17.57813 37.45725 L18.55469 50.43519 L19.53125 64.12888 L20.50781 14.70224 L21.48438 3.94496 L22.46094 34.23310 L23.43750 32.70170 L24.41406 32.76115 L25.39063 36.31912 L26.36719 34.50373 L27.34375 35.67902 L28.32031 35.22699 L29.29688 33.59996 L30.27344 38.27539 L31.25000 36.87525 L32.22656 35.43730 L33.20313 35.37193 L34.17969 37.63504 L35.15625 39.09334 L36.13281 33.95789 L37.10938 40.84393 L38.08594 37.91457 L39.06250 33.17231 L40.03906 41.64584 L41.01563 37.24168 L41.99219 39.89077 L42.96875 39.42505 L43.94531 34.60146 L44.92188 43.68615 L45.89844 38.37263 L46.87500 40.32038 L47.85156 48.09967 L48.82813 34.05867 L49.80469 53.32516 L50.78125 61.73194 L51.75781 14.16416 L52.73438 4.92850 L53.71094 31.31328 L54.68750 42.23640 L55.66406 23.17945 L56.64063 34.34352 L57.61719 0.00000 L58.59375 44.84843 L59.57031 32.66761 L60.54688 27.22264 L61.52344 39.50632 L62.50000 33.28019 L63.47656 31.62067 L64.45313 34.63638 L65.42969 34.09726 L66.40625 37.82519 L67.38281 32.10707 L68.35938 35.89172 L69.33594 35.65024 L70.31250 34.67281 L71.28906 37.12137 L72.26563 35.62149 L73.24219 35.57089 L74.21875 36.05981 L75.19531 34.61001 L76.17188 37.88324 L77.14844 36.09639 L78.12500 38.86099 L79.10156 36.56641 L80.07813 33.20207 L81.05469 40.65186 L82.03125 38.46207 L83.00781 36.83048 L83.98438 39.29360 L84.96094 35.35909 L85.93750 46.89413 L86.91406 29.13218 L87.89063 34.29140 L88.86719 5.04841 L89.84375 45.52684 L90.82031 35.76812 L91.79688 27.64668 L92.77344 25.49888 L93.75000 25.03727 L94.72656 39.47777 L95.70313 35.22278 L96.67969 34.02201 L97.65625 39.06518 L98.63281 31.76788 L99.60938 36.14892 L100.58594 34.78347 L101.56250 34.65094 L102.53906 38.76629 L103.51563 33.73839 L104.49219 33.50153 L105.46875 38.06900 L106.44531 36.13578 L107.42188 35.65570 L108.39844 36.87550 L109.37500 34.10643 L110.35156 35.90209 L111.32813 35.48863 L112.30469 38.39465 L113.28125 37.24826 L114.25781 34.59633 L115.23438 36.46110 L116.21094 35.66842 L117.18750 39.84303 L118.16406 37.03539 L119.14063 36.65161 L120.11719 36.25618 L121.09375 35.94571 L122.07031 40.52147 L123.04688 33.06998 L124.02344 21.05430 L125.00000 30.89740 L125.97656 38.57956 L126.95313 27.48745 L127.92969 38.08207 L128.90625 22.11177 L129.88281 43.89703 L130.85938 35.29036 L131.83594 31.84142 L132.81250 37.68865 L133.78906 40.68656 L134.76563 32.99094 L135.74219 36.28994 L136.71875 38.91675 L137.69531 34.81403 L138.67188 36.16658 L139.64844 37.32549 L140.62500 37.32256 L141.60156 37.33937 L142.57813 38.13843 L143.55469 37.38423 L144.53125 36.19569 L145.50781 34.70788 L146.48438 36.71613 L147.46094 35.89446 L148.43750 39.65393 L149.41406 38.26625 L150.39063 36.53209 L151.36719 34.51876 L152.34375 37.99106 L153.32031 38.85479 L154.29688 37.60566 L155.27344 35.69258 L156.25000 39.13238 L157.22656 35.16031 L158.20313 29.02969 L159.17969 38.01503 L160.15625 21.50971 L161.13281 44.93917 L162.10938 34.11832 L163.08594 32.77301 L164.06250 33.32967 L165.03906 32.31895 L166.01563 38.76565 L166.99219 40.92659 L167.96875 37.71978 L168.94531 36.81757 L169.92188 37.83127 L170.89844 37.33582 L171.87500 37.30737 L172.85156 37.14715 L173.82813 38.21321 L174.80469 37.67743 L175.78125 35.28189 L176.75781 37.81410 L177.73438 38.19096 L178.71094 38.06946 L179.68750 37.01217 L180.66406 37.89284 L181.64063 36.94178 L182.61719 35.89121 L183.59375 38.38271 L184.57031 38.04448 L185.54688 39.19306 L186.52344 36.84962 L187.50000 35.45842 L188.47656 40.22802 L189.45313 36.75710 L190.42969 38.20672 L191.40625 35.90664 L192.38281 36.12741 L193.35938 36.83831 L194.33594 35.41982 L195.31250 30.80867 L196.28906 30.85775 L197.26563 37.87993 L198.24219 39.30131 L199.21875 37.18681 L200.19531 31.18663 L201.17188 36.98491 L202.14844 41.87281 L203.12500 40.67262 L204.10156 37.22591 L205.07813 40.34965 L206.05469 37.21379 L207.03125 36.96056 L208.00781 39.79226 L208.98438 37.01097 L209.96094 39.28322 L210.93750 38.12747 L211.91406 36.48438 L212.89063 38.17550 L213.86719 40.75925 L214.84375 37.01895 L215.82031 37.33235 L216.79688 37.94794 L217.77344 37.60417 L218.75000 35.99382 L219.72656 40.73779 L220.70313 38.61294 L221.67969 38.72134 L222.65625 35.57434 L223.63281 38.10138 L224.60938 38.98473 L225.58594 38.43165 L226.56250 35.47489 L227.53906 36.91405 L228.51563 34.99187 L229.49219 35.87089 L230.46875 36.83094 L231.44531 29.15822 L232.42188 35.44881 L233.39844 41.52549 L234.37500 35.16079 L235.35156 36.45712 L236.32813 36.83239 L237.30469 37.07880 L238.28125 44.10688 L239.25781 40.99156 L240.23438 36.51979 L241.21094 40.49855 L242.18750 37.96877 L243.16406 36.92284 L244.14063 38.80890 L245.11719 39.65661 L246.09375 38.18594 L247.07031 37.87214 L248.04688 37.47971 L249.02344 39.11551 L250.00000 40.77805 L250.97656 36.94968 L251.95313 38.66466 L252.92969 37.62534 L253.90625 37.57485 L254.88281 38.65236 L255.85938 38.48583 L256.83594 40.45023 L257.81250 35.28856 L258.78906 35.99068 L259.76563 40.17867 L260.74219 38.67821 L261.71875 37.79428 L262.69531 34.01772 L263.67188 35.82691 L264.64844 36.73061 L265.62500 34.40047 L266.60156 36.80013 L267.57813 34.78094 L268.55469 38.20953 L269.53125 43.60993 L270.50781 37.14396 L271.48438 34.98414 L272.46094 36.52528 L273.43750 44.59638 L274.41406 37.50634 L275.39063 39.49958 L276.36719 37.94531 L277.34375 41.50986 L278.32031 38.94178 L279.29688 37.41281 L280.27344 39.12851 L281.25000 38.82396 L282.22656 37.12623 L283.20313 38.56736 L284.17969 37.53510 L285.15625 41.65946 L286.13281 37.26756 L287.10938 37.29431 L288.08594 38.73586 L289.06250 36.37773 L290.03906 36.94536 L291.01563 41.11641 L291.99219 39.54338 L292.96875 38.96504 L293.94531 35.26357 L294.92188 35.88434 L295.89844 38.21691 L296.87500 40.41246 L297.85156 37.89878 L298.82813 36.68659 L299.80469 37.62377 L300.78125 37.21483 L301.75781 34.78489 L302.73438 34.63263 L303.71094 34.38338 L304.68750 44.63877 L305.66406 37.24637 L306.64063 39.14223 L307.61719 37.86407 L308.59375 40.13202 L309.57031 44.03778 L310.54688 40.19611 L311.52344 37.47982 L312.50000 37.13016 L313.47656 38.47704 L314.45313 37.60836 L315.42969 37.74350 L316.40625 40.85160 L317.38281 36.40519 L318.35938 38.45696 L319.33594 38.47436 L320.31250 37.39345 L321.28906 40.36061 L322.26563 38.48763 L323.24219 37.04979 L324.21875 37.93965 L325.19531 38.05659 L326.17188 37.00803 L327.14844 38.28138 L328.12500 39.39069 L329.10156 37.75434 L330.07813 35.84071 L331.05469 37.03047 L332.03125 38.71100 L333.00781 36.63071 L333.98438 37.14581 L334.96094 34.69579 L335.93750 37.46024 L336.91406 37.44728 L337.89063 36.89718 L338.86719 36.86939 L339.84375 36.93124 L340.82031 41.89548 L341.79688 40.72095 L342.77344 37.50950 L343.75000 35.96714 L344.72656 43.03378 L345.70313 37.21600 L346.67969 42.65091 L347.65625 34.46373 L348.63281 37.37037 L349.60938 38.98525 L350.58594 37.09306 L351.56250 38.03406 L352.53906 39.77427 L353.51563 37.49339 L354.49219 37.67270 L355.46875 36.90511 L356.44531 38.93222 L357.42188 38.35450 L358.39844 36.97726 L359.37500 37.09420 L360.35156 37.07611 L361.32813 36.98436 L362.30469 37.67865 L363.28125 38.42184 L364.25781 37.14076 L365.23438 37.89267 L366.21094 34.18851 L367.18750 38.11218 L368.16406 38.40062 L369.14063 36.73198 L370.11719 34.52789 L371.09375 36.65713 L372.07031 36.82840 L373.04688 38.43925 L374.02344 37.38932 L375.00000 35.75780 L375.97656 41.95418 L376.95313 37.67524 L377.92969 42.94877 L378.90625 34.40766 L379.88281 37.90746 L380.85938 40.63540 L381.83594 39.02713 L382.81250 38.41642 L383.78906 34.93471 L384.76563 37.85504 L385.74219 37.42429 L386.71875 36.46241 L387.69531 39.70283 L388.67188 37.55362 L389.64844 36.90407 L390.62500 37.80456 L391.60156 35.46119 L392.57813 37.58350 L393.55469 38.50256 L394.53125 34.36500 L395.50781 36.29769 L396.48438 36.80908 L397.46094 36.36236 L398.43750 37.73839 L399.41406 37.60018 L400.39063 37.59475 L401.36719 34.13174 L402.34375 35.89394 L403.32031 38.99444 L404.29688 37.68785 L405.27344 37.24816 L406.25000 30.85037 L407.22656 37.73682 L408.20313 37.66388 L409.17969 38.60106 L410.15625 38.57356 L411.13281 37.75379 L412.10938 40.19258 L413.08594 40.55078 L414.06250 36.67449 L415.03906 34.68419 L416.01563 39.25739 L416.99219 38.68641 L417.96875 39.16642 L418.94531 34.09901 L419.92188 34.80488 L420.89844 39.38844 L421.87500 37.23771 L422.85156 34.08252 L423.82813 38.08447 L424.80469 37.49366 L425.78125 33.46432 L426.75781 37.32526 L427.73438 36.56987 L428.71094 37.36815 L429.68750 35.65416 L430.66406 35.49121 L431.64063 36.70871 L432.61719 36.90001 L433.59375 35.87989 L434.57031 38.73266 L435.54688 36.92359 L436.52344 37.34151 L437.50000 31.28703 L438.47656 36.85588 L439.45313 37.67850 L440.42969 38.14908 L441.40625 35.07300 L442.38281 36.32151 L443.35938 37.22647 L444.33594 38.63198 L445.31250 36.38375 L446.28906 36.70166 L447.26563 39.45868 L448.24219 39.17545 L449.21875 40.40232 L450.19531 33.86159 L451.17188 35.23327 L452.14844 39.71832 L453.12500 39.38233 L454.10156 35.31865 L455.07813 35.03867 L456.05469 34.94939 L457.03125 36.85966 L458.00781 37.22045 L458.98438 36.73425 L459.96094 37.92108 L460.93750 35.17068 L461.91406 36.08723 L462.89063 36.13614 L463.86719 35.81408 L464.84375 36.92453 L465.82031 34.83614 L466.79688 35.91324 L467.77344 36.53956 L468.75000 37.78402 L469.72656 35.60781 L470.70313 37.35470 L471.67969 36.82583 L472.65625 34.05814 L473.63281 36.52685 L474.60938 35.32637 L475.58594 37.61507 L476.56250 37.78718 L477.53906 32.42241 L478.51563 37.99076 L479.49219 37.32616 L480.46875 38.60444 L481.44531 37.79777 L482.42188 37.64455 L483.39844 38.90881 L484.37500 38.49353 L485.35156 37.54549 L486.32813 35.33790 L487.30469 35.46741 L488.28125 38.76913 L489.25781 36.64392 L490.23438 36.33644 L491.21094 32.28418 L492.18750 37.05090 L493.16406 36.57427 L494.14063 35.27651 L495.11719 37.04218 L496.09375 37.47619 L497.07031 34.05860 L498.04688 36.79979 L499.02344 36.05244 L500.00000 35.08206 L500.97656 36.05244 L501.95313 36.79979 L502.92969 34.05860 L503.90625 37.47619 L504.88281 37.04218 L505.85938 35.27650 L506.83594 36.57427 L507.81250 37.05090 L508.78906 32.28418 L509.76563 36.33644 L510.74219 36.64392 L511.71875 38.76913 L512.69531 35.46741 L513.67188 35.33790 L514.64844 37.54549 L515.62500 38.31406 L516.60156 38.90881 L517.57813 37.64455 L518.55469 37.79778 L519.53125 38.60445 L520.50781 37.32616 L521.48438 37.99076 L522.46094 32.42241 L523.43750 37.78717 L524.41406 37.61507 L525.39063 35.32637 L526.36719 36.52685 L527.34375 34.05814 L528.32031 36.82583 L529.29688 37.35470 L530.27344 35.60781 L531.25000 37.78402 L532.22656 36.53956 L533.20313 35.91324 L534.17969 34.83614 L535.15625 36.92453 L536.13281 35.81408 L537.10938 36.13614 L538.08594 36.08723 L539.06250 35.17067 L540.03906 37.92108 L541.01563 36.73426 L541.99219 37.22045 L542.96875 36.85966 L543.94531 34.94939 L544.92188 35.03867 L545.89844 35.31865 L546.87500 39.18290 L547.85156 39.71831 L548.82813 35.23327 L549.80469 33.86159 L550.78125 40.40231 L551.75781 39.17545 L552.73438 39.45868 L553.71094 36.70166 L554.68750 36.38375 L555.66406 38.63198 L556.64063 37.22647 L557.61719 36.32151 L558.59375 35.07300 L559.57031 38.14907 L560.54688 37.67850 L561.52344 36.85588 L562.50000 31.28703 L563.47656 37.34151 L564.45313 36.92359 L565.42969 38.73266 L566.40625 35.87989 L567.38281 36.90001 L568.35938 36.70871 L569.33594 35.49121 L570.31250 35.65416 L571.28906 37.36815 L572.26563 36.56987 L573.24219 37.32526 L574.21875 33.46432 L575.19531 37.49366 L576.17188 38.08447 L577.14844 34.08252 L578.12500 37.53696 L579.10156 39.38844 L580.07813 34.80488 L581.05469 34.09901 L582.03125 39.16642 L583.00781 38.68641 L583.98438 39.25739 L584.96094 34.68419 L585.93750 36.67449 L586.91406 40.55078 L587.89063 40.19258 L588.86719 37.75379 L589.84375 38.57356 L590.82031 38.60106 L591.79688 37.66388 L592.77344 37.73682 L593.75000 30.85037 L594.72656 37.24817 L595.70313 37.68785 L596.67969 38.99444 L597.65625 35.89394 L598.63281 34.13173 L599.60938 37.59475 L600.58594 37.60018 L601.56250 37.73839 L602.53906 36.36236 L603.51563 36.80908 L604.49219 36.29769 L605.46875 34.36500 L606.44531 38.50256 L607.42188 37.58350 L608.39844 35.46119 L609.37500 35.50880 L610.35156 36.90406 L611.32813 37.55362 L612.30469 39.70283 L613.28125 36.46242 L614.25781 37.42429 L615.23438 37.85504 L616.21094 34.93470 L617.18750 38.41642 L618.16406 39.02713 L619.14063 40.63540 L620.11719 37.90746 L621.09375 34.40766 L622.07031 42.94877 L623.04688 37.67524 L624.02344 41.95418 L625.00000 35.75780 L625.97656 37.38932 L626.95313 38.43925 L627.92969 36.82840 L628.90625 36.65713 L629.88281 34.52789 L630.85938 36.73198 L631.83594 38.40062 L632.81250 38.11218 L633.78906 34.18851 L634.76563 37.89267 L635.74219 37.14076 L636.71875 38.42184 L637.69531 37.67865 L638.67188 36.98437 L639.64844 37.07611 L640.62500 36.51866 L641.60156 36.97725 L642.57813 38.35450 L643.55469 38.93222 L644.53125 36.90511 L645.50781 37.67270 L646.48438 37.49339 L647.46094 39.77427 L648.43750 38.03406 L649.41406 37.09306 L650.39063 38.98525 L651.36719 37.37037 L652.34375 34.46373 L653.32031 42.65091 L654.29688 37.21600 L655.27344 43.03378 L656.25000 35.96714 L657.22656 37.50950 L658.20313 40.72095 L659.17969 41.89548 L660.15625 36.93125 L661.13281 36.86939 L662.10938 36.89718 L663.08594 37.44728 L664.06250 37.46024 L665.03906 34.69579 L666.01563 37.14581 L666.99219 36.63071 L667.96875 38.71099 L668.94531 37.03047 L669.92188 35.84071 L670.89844 37.75434 L671.87500 39.11588 L672.85156 38.28138 L673.82813 37.00803 L674.80469 38.05660 L675.78125 37.93965 L676.75781 37.04979 L677.73438 38.48763 L678.71094 40.36061 L679.68750 37.39345 L680.66406 38.47436 L681.64063 38.45696 L682.61719 36.40520 L683.59375 40.85160 L684.57031 37.74350 L685.54688 37.60836 L686.52344 38.47704 L687.50000 37.13016 L688.47656 37.47982 L689.45313 40.19611 L690.42969 44.03778 L691.40625 40.13202 L692.38281 37.86407 L693.35938 39.14223 L694.33594 37.24637 L695.31250 44.63877 L696.28906 34.38338 L697.26563 34.63263 L698.24219 34.78490 L699.21875 37.21483 L700.19531 37.62377 L701.17188 36.68659 L702.14844 37.89878 L703.12500 40.37454 L704.10156 38.21691 L705.07813 35.88434 L706.05469 35.26357 L707.03125 38.96504 L708.00781 39.54338 L708.98438 41.11641 L709.96094 36.94536 L710.93750 36.37773 L711.91406 38.73586 L712.89063 37.29431 L713.86719 37.26755 L714.84375 41.65946 L715.82031 37.53510 L716.79688 38.56736 L717.77344 37.12623 L718.75000 38.82396 L719.72656 39.12851 L720.70313 37.41282 L721.67969 38.94178 L722.65625 41.50986 L723.63281 37.94531 L724.60938 39.49958 L725.58594 37.50635 L726.56250 44.59639 L727.53906 36.52528 L728.51563 34.98414 L729.49219 37.14397 L730.46875 43.60993 L731.44531 38.20953 L732.42188 34.78094 L733.39844 36.80012 L734.37500 38.74997 L735.35156 36.73061 L736.32813 35.82691 L737.30469 34.01772 L738.28125 37.79428 L739.25781 38.67821 L740.23438 40.17867 L741.21094 35.99068 L742.18750 35.28856 L743.16406 40.45023 L744.14063 38.48583 L745.11719 38.65236 L746.09375 37.57485 L747.07031 37.62534 L748.04688 38.66466 L749.02344 36.94968 L750.00000 40.77805 L750.97656 39.11552 L751.95313 37.47971 L752.92969 37.87214 L753.90625 38.18594 L754.88281 39.65661 L755.85938 38.80890 L756.83594 36.92284 L757.81250 37.96877 L758.78906 40.49855 L759.76563 36.51979 L760.74219 40.99156 L761.71875 44.10688 L762.69531 37.07880 L763.67188 36.83239 L764.64844 36.45712 L765.62500 39.92041 L766.60156 41.52550 L767.57813 35.44881 L768.55469 29.15822 L769.53125 36.83094 L770.50781 35.87089 L771.48438 34.99187 L772.46094 36.91405 L773.43750 35.47489 L774.41406 38.43165 L775.39063 38.98473 L776.36719 38.10138 L777.34375 35.57434 L778.32031 38.72134 L779.29688 38.61294 L780.27344 40.73779 L781.25000 35.99382 L782.22656 37.60417 L783.20313 37.94794 L784.17969 37.33235 L785.15625 37.01895 L786.13281 40.75925 L787.10938 38.17550 L788.08594 36.48438 L789.06250 38.12747 L790.03906 39.28322 L791.01563 37.01097 L791.99219 39.79226 L792.96875 36.96056 L793.94531 37.21379 L794.92188 40.34965 L795.89844 37.22592 L796.87500 39.85975 L797.85156 41.87282 L798.82813 36.98491 L799.80469 31.18663 L800.78125 37.18681 L801.75781 39.30131 L802.73438 37.87994 L803.71094 30.85776 L804.68750 30.80867 L805.66406 35.41982 L806.64063 36.83832 L807.61719 36.12741 L808.59375 35.90664 L809.57031 38.20672 L810.54688 36.75710 L811.52344 40.22802 L812.50000 35.45842 L813.47656 36.84962 L814.45313 39.19306 L815.42969 38.04448 L816.40625 38.38271 L817.38281 35.89121 L818.35938 36.94178 L819.33594 37.89284 L820.31250 37.01217 L821.28906 38.06946 L822.26563 38.19096 L823.24219 37.81410 L824.21875 35.28189 L825.19531 37.67743 L826.17188 38.21321 L827.14844 37.14715 L828.12500 36.86934 L829.10156 37.33582 L830.07813 37.83127 L831.05469 36.81757 L832.03125 37.71978 L833.00781 40.92659 L833.98438 38.76565 L834.96094 32.31896 L835.93750 33.32967 L836.91406 32.77301 L837.89063 34.11832 L838.86719 44.93918 L839.84375 21.50971 L840.82031 38.01503 L841.79688 29.02969 L842.77344 35.16031 L843.75000 39.13238 L844.72656 35.69258 L845.70313 37.60566 L846.67969 38.85479 L847.65625 37.99106 L848.63281 34.51876 L849.60938 36.53209 L850.58594 38.26625 L851.56250 39.65394 L852.53906 35.89446 L853.51563 36.71613 L854.49219 34.70789 L855.46875 36.19569 L856.44531 37.38423 L857.42188 38.13844 L858.39844 37.33937 L859.37500 33.42128 L860.35156 37.32550 L861.32813 36.16658 L862.30469 34.81403 L863.28125 38.91675 L864.25781 36.28994 L865.23438 32.99094 L866.21094 40.68657 L867.18750 37.68865 L868.16406 31.84142 L869.14063 35.29037 L870.11719 43.89703 L871.09375 22.11177 L872.07031 38.08207 L873.04688 27.48745 L874.02344 38.57957 L875.00000 30.89740 L875.97656 21.05430 L876.95313 33.06998 L877.92969 40.52147 L878.90625 35.94571 L879.88281 36.25619 L880.85938 36.65161 L881.83594 37.03539 L882.81250 39.84303 L883.78906 35.66841 L884.76563 36.46110 L885.74219 34.59634 L886.71875 37.24826 L887.69531 38.39465 L888.67188 35.48863 L889.64844 35.90209 L890.62500 33.91969 L891.60156 36.87550 L892.57813 35.65570 L893.55469 36.13578 L894.53125 38.06900 L895.50781 33.50154 L896.48438 33.73839 L897.46094 38.76629 L898.43750 34.65094 L899.41406 34.78347 L900.39063 36.14892 L901.36719 31.76788 L902.34375 39.06518 L903.32031 34.02201 L904.29688 35.22278 L905.27344 39.47778 L906.25000 25.03727 L907.22656 25.49888 L908.20313 27.64667 L909.17969 35.76812 L910.15625 45.52684 L911.13281 5.04841 L912.10938 34.29140 L913.08594 29.13217 L914.06250 46.89413 L915.03906 35.35908 L916.01563 39.29360 L916.99219 36.83049 L917.96875 38.46207 L918.94531 40.65186 L919.92188 33.20207 L920.89844 36.56641 L921.87500 37.58810 L922.85156 36.09639 L923.82813 37.88324 L924.80469 34.61001 L925.78125 36.05981 L926.75781 35.57089 L927.73438 35.62149 L928.71094 37.12137 L929.68750 34.67281 L930.66406 35.65024 L931.64063 35.89172 L932.61719 32.10708 L933.59375 37.82519 L934.57031 34.09726 L935.54688 34.63638 L936.52344 31.62067 L937.50000 33.28019 L938.47656 39.50632 L939.45313 27.22264 L940.42969 32.66761 L941.40625 44.84844 L942.38281 -0.00001 L943.35938 34.34352 L944.33594 23.17944 L945.31250 42.23640 L946.28906 31.31328 L947.26563 4.92850 L948.24219 14.16414 L949.21875 61.73193 L950.19531 53.32516 L951.17188 34.05866 L952.14844 48.09966 L953.12500 39.57766 L954.10156 38.37262 L955.07813 43.68614 L956.05469 34.60146 L957.03125 39.42505 L958.00781 39.89077 L958.98438 37.24168 L959.96094 41.64584 L960.93750 33.17231 L961.91406 37.91457 L962.89063 40.84393 L963.86719 33.95790 L964.84375 39.09334 L965.82031 37.63504 L966.79688 35.37193 L967.77344 35.43730 L968.75000 36.87525 L969.72656 38.27539 L970.70313 33.59995 L971.67969 35.22699 L972.65625 35.67902 L973.63281 34.50373 L974.60938 36.31912 L975.58594 32.76115 L976.56250 32.70170 L977.53906 34.23310 L978.51563 3.94496 L979.49219 14.70221 L980.46875 64.12887 L981.44531 50.43519 L982.42188 37.45724 L983.39844 49.05359 L984.37500 200.00000 L985.35156 41.98246 L986.32813 43.35865 L987.30469 36.19370 L988.28125 43.97743 L989.25781 39.79322 L990.23438 39.23014 L991.21094 43.31845 L992.18750 34.67548 L993.16406 40.94431 L994.14063 39.90990 L995.11719 37.71938 L996.09375 40.21418 L997.07031 36.24055 L998.04688 37.74253 L999.02344 42.36067" /><path fill="none" stroke="#000000" d="M0 300.00000  L0.00000 300.00000  L0.97656 300.00000  L1.95313 300.00000  L2.92969 300.00000  L3.90625 300.00000  L4.88281 300.00000  L5.85938 300.00000  L6.83594 300.00000  L7.81250 300.00000  L8.78906 300.00000  L9.76563 300.00000  L10.74219 300.00000  L11.71875 300.00000  L12.69531 300.00000  L13.67188 299.99997  L14.64844 299.99997  L15.62500 200.00000  L16.60156 300.00006  L17.57813 300.00003  L18.55469 300.00000  L19.53125 300.00003  L20.50781 300.00006  L21.48438 300.00000  L22.46094 300.00000  L23.43750 300.00000  L24.41406 300.00000  L25.39063 300.00000  L26.36719 300.00000  L27.34375 300.00000  L28.32031 300.00000  L29.29688 300.00000  L30.27344 300.00000  L31.25000 300.00000  L32.22656 300.00000  L33.20313 300.00000  L34.17969 300.00000  L35.15625 300.00000  L36.13281 300.00000  L37.10938 300.00000  L38.08594 300.00000  L39.06250 300.00000  L40.03906 300.00000  L41.01563 300.00000  L41.99219 300.00000  L42.96875 300.00000  L43.94531 300.00000  L44.92188 300.00000  L45.89844 300.00000  L46.87500 300.00000  L47.85156 300.00000  L48.82813 300.00000  L49.80469 300.00000  L50.78125 300.00003  L51.75781 300.00003  L52.73438 300.00000  L53.71094 300.00000  L54.68750 300.00000  L55.66406 300.00003  L56.64063 300.00000  L57.61719 300.00000  L58.59375 300.00000  L59.57031 300.00000  L60.54688 300.00000  L61.52344 300.00000  L62.50000 300.00000  L63.47656 300.00000  L64.45313 300.00000  L65.42969 300.00000  L66.40625 300.00000  L67.38281 300.00000  L68.35938 300.00000  L69.33594 300.00000  L70.31250 300.00000  L71.28906 300.00000  L72.26563 300.00000  L73.24219 300.00000  L74.21875 300.00000  L75.19531 300.00000  L76.17188 300.00000  L77.14844 300.00000  L78.12500 300.00000  L79.10156 300.00000  L80.07813 300.00000  L81.05469 300.00000  L82.03125 300.00000  L83.00781 300.00000  L83.98438 300.00000  L84.96094 300.00000  L85.93750 300.00000  L86.91406 300.00003  L87.89063 300.00000  L88.86719 300.00000  L89.84375 300.00000  L90.82031 300.00000  L91.79688 300.00000  L92.77344 300.00000  L93.75000 300.00000  L94.72656 300.00000  L95.70313 300.00000  L96.67969 300.00000  L97.65625 300.00000  L98.63281 300.00000  L99.60938 300.00000  L100.58594 300.00000  L101.56250 300.00000  L102.53906 300.00000  L103.51563 300.00000  L104.49219 300.00000  L105.46875 300.00000  L106.44531 300.00000  L107.42188 300.00000  L108.39844 300.00000  L109.37500 300.00000  L110.35156 300.00000  L111.32813 300.00000  L112.30469 300.00000  L113.28125 300.00000  L114.25781 300.00000  L115.23438 300.00000  L116.21094 300.00000  L117.18750 300.00000  L118.16406 300.00000  L119.14063 300.00000  L120.11719 300.00000  L121.09375 300.00000  L122.07031 300.00000  L123.04688 300.00000  L124.02344 300.00000  L125.00000 300.00000  L125.97656 300.00000  L126.95313 300.00000  L127.92969 300.00000  L128.90625 300.00000  L129.88281 300.00000  L130.85938 300.00000  L131.83594 300.00000  L132.81250 300.00000  L133.78906 300.00000  L134.76563 300.00000  L135.74219 300.00000  L136.71875 300.00000  L137.69531 300.00000  L138.67188 300.00000  L139.64844 300.00000  L140.62500 300.00000  L141.60156 300.00000  L142.57813 300.00000  L143.55469 300.00000  L144.53125 300.00000  L145.50781 300.00000  L146.48438 300.00000  L147.46094 300.00000  L148.43750 300.00000  L149.41406 300.00000  L150.39063 300.00000  L151.36719 300.00000  L152.34375 300.00000  L153.32031 300.00000  L154.29688 300.00000  L155.27344 300.00000  L156.25000 300.00000  L157.22656 300.00000  L158.20313 300.00000  L159.17969 300.00000  L160.15625 300.00000  L161.13281 300.00000  L162.10938 300.00000  L163.08594 300.00000  L164.06250 300.00000  L165.03906 300.00000  L166.01563 300.00000  L166.99219 300.00000  L167.96875 300.00000  L168.94531 300.00000  L169.92188 300.00000  L170.89844 300.00000  L171.87500 300.00000  L172.85156 300.00000  L173.82813 300.00000  L174.80469 300.00000  L175.78125 300.00000  L176.75781 300.00000  L177.73438 300.00000  L178.71094 300.00000  L179.68750 300.00000  L180.66406 300.00000  L181.64063 300.00000  L182.61719 300.00000  L183.59375 300.00000  L184.57031 300.00000  L185.54688 300.00000  L186.52344 300.00000  L187.50000 300.00000  L188.47656 300.00000  L189.45313 300.00000  L190.42969 300.00000  L191.40625 300.00000  L192.38281 300.00000  L193.35938 300.00000  L194.33594 300.00000  L195.31250 300.00000  L196.28906 300.00000  L197.26563 300.00000  L198.24219 300.00000  L199.21875 300.00000  L200.19531 300.00000  L201.17188 300.00000  L202.14844 300.00000  L203.12500 300.00000  L204.10156 300.00000  L205.07813 300.00000  L206.05469 300.00000  L207.03125 300.00000  L208.00781 300.00000  L208.98438 300.00000  L209.96094 300.00000  L210.93750 300.00000  L211.91406 300.00000  L212.89063 300.00000  L213.86719 300.00000  L214.84375 300.00000  L215.82031 300.00000  L216.79688 300.00000  L217.77344 300.00000  L218.75000 300.00000  L219.72656 300.00000  L220.70313 300.00000  L221.67969 300.00000  L222.65625 300.00000  L223.63281 300.00000  L224.60938 300.00000  L225.58594 300.00000  L226.56250 300.00000  L227.53906 300.00000  L228.51563 300.00000  L229.49219 300.00000  L230.46875 300.00000  L231.44531 300.00000  L232.42188 300.00000  L233.39844 300.00000  L234.37500 300.00000  L235.35156 300.00000  L236.32813 300.00000  L237.30469 300.00000  L238.28125 300.00000  L239.25781 300.00000  L240.23438 300.00000  L241.21094 300.00000  L242.18750 300.00000  L243.16406 300.00000  L244.14063 300.00000  L245.11719 300.00000  L246.09375 300.00000  L247.07031 300.00000  L248.04688 300.00000  L249.02344 300.00000  L250.00000 300.00000  L250.97656 300.00000  L251.95313 300.00000  L252.92969 300.00000  L253.90625 300.00000  L254.88281 300.00000  L255.85938 300.00000  L256.83594 300.00000  L257.81250 300.00000  L258.78906 300.00000  L259.76563 300.00000  L260.74219 300.00000  L261.71875 300.00000  L262.69531 300.00000  L263.67188 300.00000  L264.64844 300.00000  L265.62500 300.00000  L266.60156 300.00000  L267.57813 300.00000  L268.55469 300.00000  L269.53125 300.00000  L270.50781 300.00000  L271.48438 300.00000  L272.46094 300.00000  L273.43750 300.00000  L274.41406 300.00000  L275.39063 300.00000  L276.36719 300.00000  L277.34375 300.00000  L278.32031 300.00000  L279.29688 300.00000  L280.27344 300.00000  L281.25000 300.00000  L282.22656 300.00000  L283.20313 300.00000  L284.17969 300.00000  L285.15625 300.00000  L286.13281 300.00000  L287.10938 300.00000  L288.08594 300.00000  L289.06250 300.00000  L290.03906 300.00000  L291.01563 300.00000  L291.99219 300.00000  L292.96875 300.00000  L293.94531 300.00000  L294.92188 300.00000  L295.89844 300.00000  L296.87500 300.00000  L297.85156 300.00000  L298.82813 300.00000  L299.80469 300.00000  L300.78125 300.00000  L301.75781 300.00000  L302.73438 300.00000  L303.71094 300.00000  L304.68750 300.00000  L305.66406 300.00000  L306.64063 300.00000  L307.61719 300.00000  L308.59375 300.00000  L309.57031 300.00000  L310.54688 300.00000  L311.52344 300.00000  L312.50000 300.00000  L313.47656 300.00000  L314.45313 300.00000  L315.42969 300.00000  L316.40625 300.00000  L317.38281 300.00000  L318.35938 300.00000  L319.33594 300.00000  L320.31250 300.00000  L321.28906 300.00000  L322.26563 300.00000  L323.24219 300.00000  L324.21875 300.00000  L325.19531 300.00000  L326.17188 300.00000  L327.14844 300.00000  L328.12500 300.00000  L329.10156 300.00000  L330.07813 300.00000  L331.05469 300.00000  L332.03125 300.00000  L333.00781 300.00000  L333.98438 300.00000  L334.96094 300.00000  L335.93750 300.00000  L336.91406 300.00000  L337.89063 300.00000  L338.86719 300.00000  L339.84375 300.00000  L340.82031 300.00000  L341.79688 300.00000  L342.77344 300.00000  L343.75000 300.00000  L344.72656 300.00000  L345.70313 300.00000  L346.67969 300.00000  L347.65625 300.00000  L348.63281 300.00000  L349.60938 300.00000  L350.58594 300.00000  L351.56250 300.00000  L352.53906 300.00000  L353.51563 300.00000  L354.49219 300.00000  L355.46875 300.00000  L356.44531 300.00000  L357.42188 300.00000  L358.39844 300.00000  L359.37500 300.00000  L360.35156 300.00000  L361.32813 300.00000  L362.30469 300.00000  L363.28125 300.00000  L364.25781 300.00000  L365.23438 300.00000  L366.21094 300.00000  L367.18750 300.00000  L368.16406 300.00000  L369.14063 300.00000  L370.11719 300.00000  L371.09375 300.00000  L372.07031 300.00000  L373.04688 300.00000  L374.02344 300.00000  L375.00000 300.00000  L375.97656 300.00000  L376.95313 300.00000  L377.92969 300.00000  L378.90625 300.00000  L379.88281 300.00000  L380.85938 300.00000  L381.83594 300.00000  L382.81250 300.00000  L383.78906 300.00000  L384.76563 300.00000  L385.74219 300.00000  L386.71875 300.00000  L387.69531 300.00000  L388.67188 300.00000  L389.64844 300.00000  L390.62500 300.00000  L391.60156 300.00000  L392.57813 300.00000  L393.55469 300.00000  L394.53125 300.00000  L395.50781 300.00000  L396.48438 300.00000  L397.46094 300.00000  L398.43750 300.00000  L399.41406 300.00000  L400.39063 300.00000  L401.36719 300.00000  L402.34375 300.00000  L403.32031 300.00000  L404.29688 300.00000  L405.27344 300.00000  L406.25000 300.00000  L407.22656 300.00000  L408.20313 300.00000  L409.17969 300.00000  L410.15625 300.00000  L411.13281 300.00000  L412.10938 300.00000  L413.08594 300.00000  L414.06250 300.00000  L415.03906 300.00000  L416.01563 300.00000  L416.99219 300.00000  L417.96875 300.00000  L418.94531 300.00000  L419.92188 300.00000  L420.89844 300.00000  L421.87500 300.00000  L422.85156 300.00000  L423.82813 300.00000  L424.80469 300.00000  L425.78125 300.00000  L426.75781 300.00000  L427.73438 300.00000  L428.71094 300.00000  L429.68750 300.00000  L430.66406 300.00000  L431.64063 300.00000  L432.61719 300.00000  L433.59375 300.00000  L434.57031 300.00000  L435.54688 300.00000  L436.52344 300.00000  L437.50000 300.00000  L438.47656 300.00000  L439.45313 300.00000  L440.42969 300.00000  L441.40625 300.00000  L442.38281 300.00000  L443.35938 300.00000  L444.33594 300.00000  L445.31250 300.00000  L446.28906 300.00000  L447.26563 300.00000  L448.24219 300.00000  L449.21875 300.00000  L450.19531 300.00000  L451.17188 300.00000  L452.14844 300.00000  L453.12500 300.00000  L454.10156 300.00000  L455.07813 300.00000  L456.05469 300.00000  L457.03125 300.00000  L458.00781 300.00000  L458.98438 300.00000  L459.96094 300.00000  L460.93750 300.00000  L461.91406 300.00000  L462.89063 300.00000  L463.86719 300.00000  L464.84375 300.00000  L465.82031 300.00000  L466.79688 300.00000  L467.77344 300.00000  L468.75000 300.00000  L469.72656 300.00000  L470.70313 300.00000  L471.67969 300.00000  L472.65625 300.00000  L473.63281 300.00000  L474.60938 300.00000  L475.58594 300.00000  L476.56250 300.00000  L477.53906 300.00000  L478.51563 300.00000  L479.49219 300.00000  L480.46875 300.00000  L481.44531 300.00000  L482.42188 300.00000  L483.39844 300.00000  L484.37500 300.00000  L485.35156 300.00000  L486.32813 300.00000  L487.30469 300.00000  L488.28125 300.00000  L489.25781 300.00000  L490.23438 300.00000  L491.21094 300.00000  L492.18750 300.00000  L493.16406 300.00000  L494.14063 300.00000  L495.11719 300.00000  L496.09375 300.00000  L497.07031 300.00000  L498.04688 300.00000  L499.02344 300.00000  L500.00000 300.00000  L500.97656 300.00000  L501.95313 300.00000  L502.92969 300.00000  L503.90625 300.00000  L504.88281 300.00000  L505.85938 300.00000  L506.83594 300.00000  L507.81250 300.00000  L508.78906 300.00000  L509.76563 300.00000  L510.74219 300.00000  L511.71875 300.00000  L512.69531 300.00000  L513.67188 300.00000  L514.64844 300.00000  L515.62500 300.00000  L516.60156 300.00000  L517.57813 300.00000  L518.55469 300.00000  L519.53125 300.00000  L520.50781 300.00000  L521.48438 300.00000  L522.46094 300.00000  L523.43750 300.00000  L524.41406 300.00000  L525.39063 300.00000  L526.36719 300.00000  L527.34375 300.00000  L528.32031 300.00000  L529.29688 300.00000  L530.27344 300.00000  L531.25000 300.00000  L532.22656 300.00000  L533.20313 300.00000  L534.17969 300.00000  L535.15625 300.00000  L536.13281 300.00000  L537.10938 300.00000  L538.08594 300.00000  L539.06250 300.00000  L540.03906 300.00000  L541.01563 300.00000  L541.99219 300.00000  L542.96875 300.00000  L543.94531 300.00000  L544.92188 300.00000  L545.89844 300.00000  L546.87500 300.00000  L547.85156 300.00000  L548.82813 300.00000  L549.80469 300.00000  L550.78125 300.00000  L551.75781 300.00000  L552.73438 300.00000  L553.71094 300.00000  L554.68750 300.00000  L555.66406 300.00000  L556.64063 300.00000  L557.61719 300.00000  L558.59375 300.00000  L559.57031 300.00000  L560.54688 300.00000  L561.52344 300.00000  L562.50000 300.00000  L563.47656 300.00000  L564.45313 300.00000  L565.42969 300.00000  L566.40625 300.00000  L567.38281 300.00000  L568.35938 300.00000  L569.33594 300.00000  L570.31250 300.00000  L571.28906 300.00000  L572.26563 300.00000  L573.24219 300.00000  L574.21875 300.00000  L575.19531 300.00000  L576.17188 300.00000  L577.14844 300.00000  L578.12500 300.00000  L579.10156 300.00000  L580.07813 300.00000  L581.05469 300.00000  L582.03125 300.00000  L583.00781 300.00000  L583.98438 300.00000  L584.96094 300.00000  L585.93750 300.00000  L586.91406 300.00000  L587.89063 300.00000  L588.86719 300.00000  L589.84375 300.00000  L590.82031 300.00000  L591.79688 300.00000  L592.77344 300.00000  L593.75000 300.00000  L594.72656 300.00000  L595.70313 300.00000  L596.67969 300.00000  L597.65625 300.00000  L598.63281 300.00000  L599.60938 300.00000  L600.58594 300.00000  L601.56250 300.00000  L602.53906 300.00000  L603.51563 300.00000  L604.49219 300.00000  L605.46875 300.00000  L606.44531 300.00000  L607.42188 300.00000  L608.39844 300.00000  L609.37500 300.00000  L610.35156 300.00000  L611.32813 300.00000  L612.30469 300.00000  L613.28125 300.00000  L614.25781 300.00000  L615.23438 300.00000  L616.21094 300.00000  L617.18750 300.00000  L618.16406 300.00000  L619.14063 300.00000  L620.11719 300.00000  L621.09375 300.00000  L622.07031 300.00000  L623.04688 300.00000  L624.02344 300.00000  L625.00000 300.00000  L625.97656 300.00000  L626.95313 300.00000  L627.92969 300.00000  L628.90625 300.00000  L629.88281 300.00000  L630.85938 300.00000  L631.83594 300.00000  L632.81250 300.00000  L633.78906 300.00000  L634.76563 300.00000  L635.74219 300.00000  L636.71875 300.00000  L637.69531 300.00000  L638.67188 300.00000  L639.64844 300.00000  L640.62500 300.00000  L641.60156 300.00000  L642.57813 300.00000  L643.55469 300.00000  L644.53125 300.00000  L645.50781 300.00000  L646.48438 300.00000  L647.46094 300.00000  L648.43750 300.00000  L649.41406 300.00000  L650.39063 300.00000  L651.36719 300.00000  L652.34375 300.00000  L653.32031 300.00000  L654.29688 300.00000  L655.27344 300.00000  L656.25000 300.00000  L657.22656 300.00000  L658.20313 300.00000  L659.17969 300.00000  L660.15625 300.00000  L661.13281 300.00000  L662.10938 300.00000  L663.08594 300.00000  L664.06250 300.00000  L665.03906 300.00000  L666.01563 300.00000  L666.99219 300.00000  L667.96875 300.00000  L668.94531 300.00000  L669.92188 300.00000  L670.89844 300.00000  L671.87500 300.00000  L672.85156 300.00000  L673.82813 300.00000  L674.80469 300.00000  L675.78125 300.00000  L676.75781 300.00000  L677.73438 300.00000  L678.71094 300.00000  L679.68750 300.00000  L680.66406 300.00000  L681.64063 300.00000  L682.61719 300.00000  L683.59375 300.00000  L684.57031 300.00000  L685.54688 300.00000  L686.52344 300.00000  L687.50000 300.00000  L688.47656 300.00000  L689.45313 300.00000  L690.42969 300.00000  L691.40625 300.00000  L692.38281 300.00000  L693.35938 300.00000  L694.33594 300.00000  L695.31250 300.00000  L696.28906 300.00000  L697.26563 300.00000  L698.24219 300.00000  L699.21875 300.00000  L700.19531 300.00000  L701.17188 300.00000  L702.14844 300.00000  L703.12500 300.00000  L704.10156 300.00000  L705.07813 300.00000  L706.05469 300.00000  L707.03125 300.00000  L708.00781 300.00000  L708.98438 300.00000  L709.96094 300.00000  L710.93750 300.00000  L711.91406 300.00000  L712.89063 300.00000  L713.86719 300.00000  L714.84375 300.00000  L715.82031 300.00000  L716.79688 300.00000  L717.77344 300.00000  L718.75000 300.00000  L719.72656 300.00000  L720.70313 300.00000  L721.67969 300.00000  L722.65625 300.00000  L723.63281 300.00000  L724.60938 300.00000  L725.58594 300.00000  L726.56250 300.00000  L727.53906 300.00000  L728.51563 300.00000  L729.49219 300.00000  L730.46875 300.00000  L731.44531 300.00000  L732.42188 300.00000  L733.39844 300.00000  L734.37500 300.00000  L735.35156 300.00000  L736.32813 300.00000  L737.30469 300.00000  L738.28125 300.00000  L739.25781 300.00000  L740.23438 300.00000  L741.21094 300.00000  L742.18750 300.00000  L743.16406 300.00000  L744.14063 300.00000  L745.11719 300.00000  L746.09375 300.00000  L747.07031 300.00000  L748.04688 300.00000  L749.02344 300.00000  L750.00000 300.00000  L750.97656 300.00000  L751.95313 300.00000  L752.92969 300.00000  L753.90625 300.00000  L754.88281 300.00000  L755.85938 300.00000  L756.83594 300.00000  L757.81250 300.00000  L758.78906 300.00000  L759.76563 300.00000  L760.74219 300.00000  L761.71875 300.00000  L762.69531 300.00000  L763.67188 300.00000  L764.64844 300.00000  L765.62500 300.00000  L766.60156 300.00000  L767.57813 300.00000  L768.55469 300.00000  L769.53125 300.00000  L770.50781 300.00000  L771.48438 300.00000  L772.46094 300.00000  L773.43750 300.00000  L774.41406 300.00000  L775.39063 300.00000  L776.36719 300.00000  L777.34375 300.00000  L778.32031 300.00000  L779.29688 300.00000  L780.27344 300.00000  L781.25000 300.00000  L782.22656 300.00000  L783.20313 300.00000  L784.17969 300.00000  L785.15625 300.00000  L786.13281 300.00000  L787.10938 300.00000  L788.08594 300.00000  L789.06250 300.00000  L790.03906 300.00000  L791.01563 300.00000  L791.99219 300.00000  L792.96875 300.00000  L793.94531 300.00000  L794.92188 300.00000  L795.89844 300.00000  L796.87500 300.00000  L797.85156 300.00000  L798.82813 300.00000  L799.80469 300.00000  L800.78125 300.00000  L801.75781 300.00000  L802.73438 300.00000  L803.71094 300.00000  L804.68750 300.00000  L805.66406 300.00000  L806.64063 300.00000  L807.61719 300.00000  L808.59375 300.00000  L809.57031 300.00000  L810.54688 300.00000  L811.52344 300.00000  L812.50000 300.00000  L813.47656 300.00000  L814.45313 300.00000  L815.42969 300.00000  L816.40625 300.00000  L817.38281 300.00000  L818.35938 300.00000  L819.33594 300.00000  L820.31250 300.00000  L821.28906 300.00000  L822.26563 300.00000  L823.24219 300.00000  L824.21875 300.00000  L825.19531 300.00000  L826.17188 300.00000  L827.14844 300.00000  L828.12500 300.00000  L829.10156 300.00000  L830.07813 300.00000  L831.05469 300.00000  L832.03125 300.00000  L833.00781 300.00000  L833.98438 300.00000  L834.96094 300.00000  L835.93750 300.00000  L836.91406 300.00000  L837.89063 300.00000  L838.86719 300.00000  L839.84375 300.00000  L840.82031 300.00000  L841.79688 300.00000  L842.77344 300.00000  L843.75000 300.00000  L844.72656 300.00000  L845.70313 300.00000  L846.67969 300.00000  L847.65625 300.00000  L848.63281 300.00000  L849.60938 300.00000  L850.58594 300.00000  L851.56250 300.00000  L852.53906 300.00000  L853.51563 300.00000  L854.49219 300.00000  L855.46875 300.00000  L856.44531 300.00000  L857.42188 300.00000  L858.39844 300.00000  L859.37500 300.00000  L860.35156 300.00000  L861.32813 300.00000  L862.30469 300.00000  L863.28125 300.00000  L864.25781 300.00000  L865.23438 300.00000  L866.21094 300.00000  L867.18750 300.00000  L868.16406 300.00000  L869.14063 300.00000  L870.11719 300.00000  L871.09375 300.00000  L872.07031 300.00000  L873.04688 300.00000  L874.02344 300.00000  L875.00000 300.00000  L875.97656 300.00000  L876.95313 300.00000  L877.92969 300.00000  L878.90625 300.00000  L879.88281 300.00000  L880.85938 300.00000  L881.83594 300.00000  L882.81250 300.00000  L883.78906 300.00000  L884.76563 300.00000  L885.74219 300.00000  L886.71875 300.00000  L887.69531 300.00000  L888.67188 300.00000  L889.64844 300.00000  L890.62500 300.00000  L891.60156 300.00000  L892.57813 300.00000  L893.55469 300.00000  L894.53125 300.00000  L895.50781 300.00000  L896.48438 300.00000  L897.46094 300.00000  L898.43750 300.00000  L899.41406 300.00000  L900.39063 300.00000  L901.36719 300.00000  L902.34375 300.00000  L903.32031 300.00000  L904.29688 300.00000  L905.27344 300.00000  L906.25000 300.00000  L907.22656 300.00000  L908.20313 300.00000  L909.17969 300.00000  L910.15625 300.00000  L911.13281 300.00000  L912.10938 300.00000  L913.08594 299.99997  L914.06250 300.00000  L915.03906 300.00000  L916.01563 300.00000  L916.99219 300.00000  L917.96875 300.00000  L918.94531 300.00000  L919.92188 300.00000  L920.89844 300.00000  L921.87500 300.00000  L922.85156 300.00000  L923.82813 300.00000  L924.80469 300.00000  L925.78125 300.00000  L926.75781 300.00000  L927.73438 300.00000  L928.71094 300.00000  L929.68750 300.00000  L930.66406 300.00000  L931.64063 300.00000  L932.61719 300.00000  L933.59375 300.00000  L934.57031 300.00000  L935.54688 300.00000  L936.52344 300.00000  L937.50000 300.00000  L938.47656 300.00000  L939.45313 300.00000  L940.42969 300.00000  L941.40625 300.00000  L942.38281 300.00000  L943.35938 300.00000  L944.33594 299.99997  L945.31250 300.00000  L946.28906 300.00000  L947.26563 300.00000  L948.24219 299.99997  L949.21875 299.99997  L950.19531 300.00000  L951.17188 300.00000  L952.14844 300.00000  L953.12500 300.00000  L954.10156 300.00000  L955.07813 300.00000  L956.05469 300.00000  L957.03125 300.00000  L958.00781 300.00000  L958.98438 300.00000  L959.96094 300.00000  L960.93750 300.00000  L961.91406 300.00000  L962.89063 300.00000  L963.86719 300.00000  L964.84375 300.00000  L965.82031 300.00000  L966.79688 300.00000  L967.77344 300.00000  L968.75000 300.00000  L969.72656 300.00000  L970.70313 300.00000  L971.67969 300.00000  L972.65625 300.00000  L973.63281 300.00000  L974.60938 300.00000  L975.58594 300.00000  L976.56250 300.00000  L977.53906 300.00000  L978.51563 300.00000  L979.49219 299.99994  L980.46875 299.99997  L981.44531 300.00000  L982.42188 299.99997  L983.39844 299.99994  L984.37500 400.00000  L985.35156 300.00003  L986.32813 300.00003  L987.30469 300.00000  L988.28125 300.00000  L989.25781 300.00000  L990.23438 300.00000  L991.21094 300.00000  L992.18750 300.00000  L993.16406 300.00000  L994.14063 300.00000  L995.11719 300.00000  L996.09375 300.00000  L997.07031 300.00000  L998.04688 300.00000  L999.02344 300.00000 " /></g><text x="1000.00000" dx="10" y="37.19062">[-0.00000;0.00000]</text><text x="1000.00000" dx="10" y="300.00000">[-0.50000;0.50000]</text></svg>