<svg xmlns="http://www.w3.org/2000/svg" version="1.1"><g stroke-width="0.6"><path fill="none" stroke="#000000" d="M0 199.99995 L1000.00000 199.99995" /><path fill="none" stroke="#000000" d="M0 300.00000 L1000.00000 300.00000" /><path fill="none" stroke="#000000" d="M500.00000 0 L500.00000 400.00000" /><path fill="none" stroke="#550000" d="M0 367.73615 L1000.00000 367.73615" /><path fill="none" stroke="#550000" d="M0 300.00000 L1000.00000 300.00000" /><path fill="none" stroke="#550000" d="M0 232.26385 L1000.00000 232.26385" /><path fill="none" stroke="#000000" d="M0 199.99995  L0.00000 195.41933 L0.97656 195.39445 L1.95313 195.31877 L2.92969 195.18892 L3.90625 194.99884 L4.88281 194.73901 L5.85938 194.39496 L6.83594 193.94496 L7.81250 193.35576 L8.78906 192.57492 L9.76563 191.51553 L10.74219 190.02365 L11.71875 187.79968 L12.69531 184.17461 L13.67188 177.29105 L14.64844 159.36464 L15.62500 -0.00000 L16.60156 132.05400 L17.57813 171.00003 L18.55469 181.56564 L19.53125 186.48096 L20.50781 189.31874 L21.48438 191.16446 L22.46094 192.45990 L23.43750 193.41861 L24.41406 194.15642 L25.39063 194.74162 L26.36719 195.21698 L27.34375 195.61073 L28.32031 195.94218 L29.29688 196.22505 L30.27344 196.46928 L31.25000 196.68230 L32.22656 196.86974 L33.20313 197.03598 L34.17969 197.18445 L35.15625 197.31786 L36.13281 197.43842 L37.10938 197.54791 L38.08594 197.64781 L39.06250 197.73935 L40.03906 197.82355 L41.01563 197.90126 L41.99219 197.97321 L42.96875 198.04005 L43.94531 198.10231 L44.92188 198.16045 L45.89844 198.21486 L46.87500 198.26591 L47.85156 198.31392 L48.82813 198.35915 L49.80469 198.40182 L50.78125 198.44217 L51.75781 198.48038 L52.73438 198.51663 L53.71094 198.55106 L54.68750 198.58382 L55.66406 198.61501 L56.64063 198.64474 L57.61719 198.67316 L58.59375 198.70030 L59.57031 198.72629 L60.54688 198.75117 L61.52344 198.77505 L62.50000 198.79794 L63.47656 198.81995 L64.45313 198.84109 L65.42969 198.86145 L66.40625 198.88106 L67.38281 198.89993 L68.35938 198.91814 L69.33594 198.93571 L70.31250 198.95271 L71.28906 198.96913 L72.26563 198.98497 L73.24219 199.00032 L74.21875 199.01518 L75.19531 199.02956 L76.17188 199.04352 L77.14844 199.05704 L78.12500 199.07016 L79.10156 199.08289 L80.07813 199.09525 L81.05469 199.10725 L82.03125 199.11893 L83.00781 199.13028 L83.98438 199.14133 L84.96094 199.15207 L85.93750 199.16252 L86.91406 199.17271 L87.89063 199.18263 L88.86719 199.19231 L89.84375 199.20172 L90.82031 199.21092 L91.79688 199.21989 L92.77344 199.22864 L93.75000 199.23718 L94.72656 199.24551 L95.70313 199.25366 L96.67969 199.26163 L97.65625 199.26939 L98.63281 199.27701 L99.60938 199.28444 L100.58594 199.29170 L101.56250 199.29881 L102.53906 199.30580 L103.51563 199.31261 L104.49219 199.31927 L105.46875 199.32581 L106.44531 199.33218 L107.42188 199.33844 L108.39844 199.34459 L109.37500 199.35060 L110.35156 199.35651 L111.32813 199.36229 L112.30469 199.36795 L113.28125 199.37350 L114.25781 199.37897 L115.23438 199.38429 L116.21094 199.38960 L117.18750 199.39473 L118.16406 199.39978 L119.14063 199.40475 L120.11719 199.40964 L121.09375 199.41443 L122.07031 199.41914 L123.04688 199.42377 L124.02344 199.42830 L125.00000 199.43277 L125.97656 199.43716 L126.95313 199.44148 L127.92969 199.44572 L128.90625 199.44989 L129.88281 199.45399 L130.85938 199.45802 L131.83594 199.46201 L132.81250 199.46591 L133.78906 199.46974 L134.76563 199.47353 L135.74219 199.47725 L136.71875 199.48091 L137.69531 199.48453 L138.67188 199.48808 L139.64844 199.49156 L140.62500 199.49501 L141.60156 199.49841 L142.57813 199.50174 L143.55469 199.50502 L144.53125 199.50827 L145.50781 199.51147 L146.48438 199.51459 L147.46094 199.51772 L148.43750 199.52077 L149.41406 199.52380 L150.39063 199.52676 L151.36719 199.52968 L152.34375 199.53256 L153.32031 199.53542 L154.29688 199.53822 L155.27344 199.54099 L156.25000 199.54372 L157.22656 199.54640 L158.20313 199.54907 L159.17969 199.55170 L160.15625 199.55429 L161.13281 199.55684 L162.10938 199.55936 L163.08594 199.56183 L164.06250 199.56429 L165.03906 199.56671 L166.01563 199.56909 L166.99219 199.57146 L167.96875 199.57378 L168.94531 199.57608 L169.92188 199.57835 L170.89844 199.58060 L171.87500 199.58281 L172.85156 199.58499 L173.82813 199.58714 L174.80469 199.58928 L175.78125 199.59138 L176.75781 199.59346 L177.73438 199.59552 L178.71094 199.59755 L179.68750 199.59955 L180.66406 199.60153 L181.64063 199.60349 L182.61719 199.60542 L183.59375 199.60735 L184.57031 199.60922 L185.54688 199.61110 L186.52344 199.61295 L187.50000 199.61475 L188.47656 199.61656 L189.45313 199.61835 L190.42969 199.62012 L191.40625 199.62186 L192.38281 199.62358 L193.35938 199.62529 L194.33594 199.62695 L195.31250 199.62863 L196.28906 199.63028 L197.26563 199.63190 L198.24219 199.63353 L199.21875 199.63509 L200.19531 199.63664 L201.17188 199.63829 L202.14844 199.63988 L203.12500 199.64133 L204.10156 199.64282 L205.07813 199.64433 L206.05469 199.64578 L207.03125 199.64725 L208.00781 199.64870 L208.98438 199.65012 L209.96094 199.65155 L210.93750 199.65294 L211.91406 199.65433 L212.89063 199.65570 L213.86719 199.65704 L214.84375 199.65840 L215.82031 199.65973 L216.79688 199.66104 L217.77344 199.66234 L218.75000 199.66362 L219.72656 199.66490 L220.70313 199.66617 L221.67969 199.66742 L222.65625 199.66866 L223.63281 199.66988 L224.60938 199.67110 L225.58594 199.67229 L226.56250 199.67348 L227.53906 199.67465 L228.51563 199.67581 L229.49219 199.67697 L230.46875 199.67812 L231.44531 199.67921 L232.42188 199.68036 L233.39844 199.68156 L234.37500 199.68263 L235.35156 199.68365 L236.32813 199.68477 L237.30469 199.68582 L238.28125 199.68686 L239.25781 199.68793 L240.23438 199.68895 L241.21094 199.68999 L242.18750 199.69099 L243.16406 199.69199 L244.14063 199.69299 L245.11719 199.69400 L246.09375 199.69495 L247.07031 199.69595 L248.04688 199.69690 L249.02344 199.69785 L250.00000 199.69879 L250.97656 199.69972 L251.95313 199.70065 L252.92969 199.70157 L253.90625 199.70247 L254.88281 199.70338 L255.85938 199.70427 L256.83594 199.70515 L257.81250 199.70602 L258.78906 199.70689 L259.76563 199.70775 L260.74219 199.70860 L261.71875 199.70944 L262.69531 199.71028 L263.67188 199.71111 L264.64844 199.71193 L265.62500 199.71274 L266.60156 199.71356 L267.57813 199.71436 L268.55469 199.71515 L269.53125 199.71593 L270.50781 199.71671 L271.48438 199.71748 L272.46094 199.71825 L273.43750 199.71901 L274.41406 199.71976 L275.39063 199.72049 L276.36719 199.72122 L277.34375 199.72194 L278.32031 199.72269 L279.29688 199.72340 L280.27344 199.72412 L281.25000 199.72482 L282.22656 199.72551 L283.20313 199.72621 L284.17969 199.72690 L285.15625 199.72758 L286.13281 199.72824 L287.10938 199.72891 L288.08594 199.72957 L289.06250 199.73026 L290.03906 199.73088 L291.01563 199.73154 L291.99219 199.73219 L292.96875 199.73282 L293.94531 199.73344 L294.92188 199.73407 L295.89844 199.73468 L296.87500 199.73531 L297.85156 199.73590 L298.82813 199.73650 L299.80469 199.73711 L300.78125 199.73769 L301.75781 199.73828 L302.73438 199.73886 L303.71094 199.73943 L304.68750 199.74001 L305.66406 199.74057 L306.64063 199.74113 L307.61719 199.74168 L308.59375 199.74223 L309.57031 199.74278 L310.54688 199.74332 L311.52344 199.74387 L312.50000 199.74440 L313.47656 199.74492 L314.45313 199.74545 L315.42969 199.74596 L316.40625 199.74648 L317.38281 199.74699 L318.35938 199.74747 L319.33594 199.74799 L320.31250 199.74849 L321.28906 199.74898 L322.26563 199.74947 L323.24219 199.74995 L324.21875 199.75043 L325.19531 199.75090 L326.17188 199.75137 L327.14844 199.75185 L328.12500 199.75232 L329.10156 199.75276 L330.07813 199.75322 L331.05469 199.75368 L332.03125 199.75409 L333.00781 199.75452 L333.98438 199.75499 L334.96094 199.75543 L335.93750 199.75586 L336.91406 199.75629 L337.89063 199.75670 L338.86719 199.75713 L339.84375 199.75754 L340.82031 199.75795 L341.79688 199.75836 L342.77344 199.75876 L343.75000 199.75917 L344.72656 199.75957 L345.70313 199.75995 L346.67969 199.76035 L347.65625 199.76073 L348.63281 199.76111 L349.60938 199.76149 L350.58594 199.76187 L351.56250 199.76224 L352.53906 199.76262 L353.51563 199.76297 L354.49219 199.76335 L355.46875 199.76370 L356.44531 199.76405 L357.42188 199.76440 L358.39844 199.76476 L359.37500 199.76511 L360.35156 199.76546 L361.32813 199.76578 L362.30469 199.76613 L363.28125 199.76645 L364.25781 199.76675 L365.23438 199.76709 L366.21094 199.76744 L367.18750 199.76775 L368.16406 199.76807 L369.14063 199.76837 L370.11719 199.76869 L371.09375 199.76900 L372.07031 199.76930 L373.04688 199.76961 L374.02344 199.76990 L375.00000 199.77020 L375.97656 199.77049 L376.95313 199.77078 L377.92969 199.77109 L378.90625 199.77136 L379.88281 199.77164 L380.85938 199.77193 L381.83594 199.77219 L382.81250 199.77248 L383.78906 199.77274 L384.76563 199.77301 L385.74219 199.77327 L386.71875 199.77353 L387.69531 199.77379 L388.67188 199.77405 L389.64844 199.77431 L390.62500 199.77455 L391.60156 199.77480 L392.57813 199.77505 L393.55469 199.77528 L394.53125 199.77553 L395.50781 199.77577 L396.48438 199.77600 L397.46094 199.77623 L398.43750 199.77646 L399.41406 199.77669 L400.39063 199.77692 L401.36719 199.77713 L402.34375 199.77736 L403.32031 199.77759 L404.29688 199.77779 L405.27344 199.77800 L406.25000 199.77821 L407.22656 199.77841 L408.20313 199.77861 L409.17969 199.77882 L410.15625 199.77902 L411.13281 199.77924 L412.10938 199.77940 L413.08594 199.77960 L414.06250 199.77980 L415.03906 199.77998 L416.01563 199.78017 L416.99219 199.78032 L417.96875 199.78052 L418.94531 199.78069 L419.92188 199.78094 L420.89844 199.78105 L421.87500 199.78123 L422.85156 199.78142 L423.82813 199.78156 L424.80469 199.78172 L425.78125 199.78189 L426.75781 199.78204 L427.73438 199.78221 L428.71094 199.78236 L429.68750 199.78252 L430.66406 199.78267 L431.64063 199.78281 L432.61719 199.78296 L433.59375 199.78310 L434.57031 199.78323 L435.54688 199.78339 L436.52344 199.78351 L437.50000 199.78365 L438.47656 199.78378 L439.45313 199.78391 L440.42969 199.78404 L441.40625 199.78416 L442.38281 199.78429 L443.35938 199.78441 L444.33594 199.78452 L445.31250 199.78465 L446.28906 199.78474 L447.26563 199.78487 L448.24219 199.78499 L449.21875 199.78502 L450.19531 199.78520 L451.17188 199.78531 L452.14844 199.78543 L453.12500 199.78549 L454.10156 199.78561 L455.07813 199.78569 L456.05469 199.78578 L457.03125 199.78589 L458.00781 199.78596 L458.98438 199.78606 L459.96094 199.78615 L460.93750 199.78621 L461.91406 199.78630 L462.89063 199.78636 L463.86719 199.78644 L464.84375 199.78653 L465.82031 199.78661 L466.79688 199.78667 L467.77344 199.78674 L468.75000 199.78680 L469.72656 199.78687 L470.70313 199.78693 L471.67969 199.78699 L472.65625 199.78705 L473.63281 199.78709 L474.60938 199.78716 L475.58594 199.78722 L476.56250 199.78726 L477.53906 199.78731 L478.51563 199.78735 L479.49219 199.78738 L480.46875 199.78745 L481.44531 199.78748 L482.42188 199.78751 L483.39844 199.78755 L484.37500 199.78758 L485.35156 199.78761 L486.32813 199.78764 L487.30469 199.78766 L488.28125 199.78770 L489.25781 199.78772 L490.23438 199.78773 L491.21094 199.78777 L492.18750 199.78775 L493.16406 199.78780 L494.14063 199.78780 L495.11719 199.78780 L496.09375 199.78781 L497.07031 199.78783 L498.04688 199.78783 L499.02344 199.78784 L500.00000 199.78783 L500.97656 199.78784 L501.95313 199.78783 L502.92969 199.78783 L503.90625 199.78781 L504.88281 199.78780 L505.85938 199.78780 L506.83594 199.78780 L507.81250 199.78775 L508.78906 199.78777 L509.76563 199.78775 L510.74219 199.78772 L511.71875 199.78770 L512.69531 199.78766 L513.67188 199.78764 L514.64844 199.78761 L515.62500 199.78758 L516.60156 199.78755 L517.57813 199.78751 L518.55469 199.78748 L519.53125 199.78745 L520.50781 199.78738 L521.48438 199.78735 L522.46094 199.78731 L523.43750 199.78725 L524.41406 199.78722 L525.39063 199.78716 L526.36719 199.78709 L527.34375 199.78705 L528.32031 199.78699 L529.29688 199.78693 L530.27344 199.78687 L531.25000 199.78680 L532.22656 199.78674 L533.20313 199.78667 L534.17969 199.78661 L535.15625 199.78653 L536.13281 199.78644 L537.10938 199.78636 L538.08594 199.78630 L539.06250 199.78621 L540.03906 199.78615 L541.01563 199.78606 L541.99219 199.78596 L542.96875 199.78589 L543.94531 199.78578 L544.92188 199.78569 L545.89844 199.78561 L546.87500 199.78549 L547.85156 199.78543 L548.82813 199.78531 L549.80469 199.78520 L550.78125 199.78502 L551.75781 199.78499 L552.73438 199.78487 L553.71094 199.78474 L554.68750 199.78465 L555.66406 199.78452 L556.64063 199.78441 L557.61719 199.78429 L558.59375 199.78416 L559.57031 199.78404 L560.54688 199.78391 L561.52344 199.78378 L562.50000 199.78365 L563.47656 199.78351 L564.45313 199.78339 L565.42969 199.78323 L566.40625 199.78310 L567.38281 199.78296 L568.35938 199.78281 L569.33594 199.78267 L570.31250 199.78252 L571.28906 199.78236 L572.26563 199.78221 L573.24219 199.78204 L574.21875 199.78189 L575.19531 199.78172 L576.17188 199.78156 L577.14844 199.78142 L578.12500 199.78123 L579.10156 199.78105 L580.07813 199.78094 L581.05469 199.78069 L582.03125 199.78052 L583.00781 199.78032 L583.98438 199.78017 L584.96094 199.77998 L585.93750 199.77980 L586.91406 199.77960 L587.89063 199.77940 L588.86719 199.77924 L589.84375 199.77902 L590.82031 199.77882 L591.79688 199.77861 L592.77344 199.77841 L593.75000 199.77821 L594.72656 199.77800 L595.70313 199.77779 L596.67969 199.77759 L597.65625 199.77736 L598.63281 199.77713 L599.60938 199.77692 L600.58594 199.77669 L601.56250 199.77646 L602.53906 199.77623 L603.51563 199.77600 L604.49219 199.77577 L605.46875 199.77553 L606.44531 199.77528 L607.42188 199.77505 L608.39844 199.77480 L609.37500 199.77455 L610.35156 199.77431 L611.32813 199.77405 L612.30469 199.77379 L613.28125 199.77353 L614.25781 199.77327 L615.23438 199.77301 L616.21094 199.77274 L617.18750 199.77248 L618.16406 199.77219 L619.14063 199.77193 L620.11719 199.77164 L621.09375 199.77136 L622.07031 199.77109 L623.04688 199.77078 L624.02344 199.77049 L625.00000 199.77020 L625.97656 199.76990 L626.95313 199.76961 L627.92969 199.76930 L628.90625 199.76900 L629.88281 199.76869 L630.85938 199.76837 L631.83594 199.76807 L632.81250 199.76775 L633.78906 199.76744 L634.76563 199.76709 L635.74219 199.76675 L636.71875 199.76645 L637.69531 199.76613 L638.67188 199.76578 L639.64844 199.76546 L640.62500 199.76511 L641.60156 199.76476 L642.57813 199.76440 L643.55469 199.76405 L644.53125 199.76370 L645.50781 199.76335 L646.48438 199.76297 L647.46094 199.76262 L648.43750 199.76224 L649.41406 199.76187 L650.39063 199.76149 L651.36719 199.76111 L652.34375 199.76073 L653.32031 199.76035 L654.29688 199.75996 L655.27344 199.75957 L656.25000 199.75917 L657.22656 199.75876 L658.20313 199.75836 L659.17969 199.75795 L660.15625 199.75754 L661.13281 199.75713 L662.10938 199.75670 L663.08594 199.75629 L664.06250 199.75586 L665.03906 199.75543 L666.01563 199.75499 L666.99219 199.75452 L667.96875 199.75409 L668.94531 199.75368 L669.92188 199.75322 L670.89844 199.75276 L671.87500 199.75232 L672.85156 199.75185 L673.82813 199.75137 L674.80469 199.75090 L675.78125 199.75043 L676.75781 199.74995 L677.73438 199.74947 L678.71094 199.74898 L679.68750 199.74849 L680.66406 199.74799 L681.64063 199.74747 L682.61719 199.74699 L683.59375 199.74648 L684.57031 199.74596 L685.54688 199.74545 L686.52344 199.74492 L687.50000 199.74440 L688.47656 199.74387 L689.45313 199.74332 L690.42969 199.74278 L691.40625 199.74223 L692.38281 199.74168 L693.35938 199.74113 L694.33594 199.74057 L695.31250 199.74001 L696.28906 199.73943 L697.26563 199.73886 L698.24219 199.73828 L699.21875 199.73769 L700.19531 199.73711 L701.17188 199.73650 L702.14844 199.73590 L703.12500 199.73529 L704.10156 199.73468 L705.07813 199.73407 L706.05469 199.73344 L707.03125 199.73282 L708.00781 199.73219 L708.98438 199.73154 L709.96094 199.73088 L710.93750 199.73026 L711.91406 199.72957 L712.89063 199.72891 L713.86719 199.72824 L714.84375 199.72758 L715.82031 199.72690 L716.79688 199.72621 L717.77344 199.72551 L718.75000 199.72482 L719.72656 199.72412 L720.70313 199.72340 L721.67969 199.72269 L722.65625 199.72194 L723.63281 199.72122 L724.60938 199.72049 L725.58594 199.71976 L726.56250 199.71901 L727.53906 199.71825 L728.51563 199.71748 L729.49219 199.71671 L730.46875 199.71593 L731.44531 199.71515 L732.42188 199.71436 L733.39844 199.71355 L734.37500 199.71275 L735.35156 199.71193 L736.32813 199.71111 L737.30469 199.71028 L738.28125 199.70944 L739.25781 199.70860 L740.23438 199.70775 L741.21094 199.70689 L742.18750 199.70602 L743.16406 199.70515 L744.14063 199.70427 L745.11719 199.70338 L746.09375 199.70247 L747.07031 199.70157 L748.04688 199.70065 L749.02344 199.69972 L750.00000 199.69879 L750.97656 199.69785 L751.95313 199.69690 L752.92969 199.69595 L753.90625 199.69495 L754.88281 199.69400 L755.85938 199.69299 L756.83594 199.69199 L757.81250 199.69099 L758.78906 199.68999 L759.76563 199.68895 L760.74219 199.68793 L761.71875 199.68686 L762.69531 199.68582 L763.67188 199.68477 L764.64844 199.68365 L765.62500 199.68262 L766.60156 199.68156 L767.57813 199.68036 L768.55469 199.67921 L769.53125 199.67812 L770.50781 199.67697 L771.48438 199.67581 L772.46094 199.67465 L773.43750 199.67348 L774.41406 199.67229 L775.39063 199.67110 L776.36719 199.66988 L777.34375 199.66866 L778.32031 199.66742 L779.29688 199.66617 L780.27344 199.66490 L781.25000 199.66362 L782.22656 199.66234 L783.20313 199.66104 L784.17969 199.65973 L785.15625 199.65840 L786.13281 199.65704 L787.10938 199.65570 L788.08594 199.65433 L789.06250 199.65294 L790.03906 199.65155 L791.01563 199.65012 L791.99219 199.64870 L792.96875 199.64725 L793.94531 199.64578 L794.92188 199.64433 L795.89844 199.64282 L796.87500 199.64133 L797.85156 199.63988 L798.82813 199.63829 L799.80469 199.63664 L800.78125 199.63509 L801.75781 199.63353 L802.73438 199.63190 L803.71094 199.63028 L804.68750 199.62863 L805.66406 199.62695 L806.64063 199.62529 L807.61719 199.62358 L808.59375 199.62186 L809.57031 199.62012 L810.54688 199.61835 L811.52344 199.61656 L812.50000 199.61475 L813.47656 199.61295 L814.45313 199.61110 L815.42969 199.60922 L816.40625 199.60735 L817.38281 199.60542 L818.35938 199.60349 L819.33594 199.60153 L820.31250 199.59955 L821.28906 199.59755 L822.26563 199.59552 L823.24219 199.59346 L824.21875 199.59138 L825.19531 199.58928 L826.17188 199.58714 L827.14844 199.58499 L828.12500 199.58279 L829.10156 199.58058 L830.07813 199.57835 L831.05469 199.57608 L832.03125 199.57378 L833.00781 199.57146 L833.98438 199.56909 L834.96094 199.56671 L835.93750 199.56429 L836.91406 199.56183 L837.89063 199.55936 L838.86719 199.55684 L839.84375 199.55429 L840.82031 199.55170 L841.79688 199.54907 L842.77344 199.54640 L843.75000 199.54372 L844.72656 199.54099 L845.70313 199.53822 L846.67969 199.53542 L847.65625 199.53256 L848.63281 199.52968 L849.60938 199.52676 L850.58594 199.52380 L851.56250 199.52077 L852.53906 199.51772 L853.51563 199.51459 L854.49219 199.51147 L855.46875 199.50827 L856.44531 199.50502 L857.42188 199.50174 L858.39844 199.49841 L859.37500 199.49501 L860.35156 199.49156 L861.32813 199.48808 L862.30469 199.48451 L863.28125 199.48091 L864.25781 199.47725 L865.23438 199.47353 L866.21094 199.46974 L867.18750 199.46591 L868.16406 199.46201 L869.14063 199.45802 L870.11719 199.45399 L871.09375 199.44989 L872.07031 199.44572 L873.04688 199.44148 L874.02344 199.43716 L875.00000 199.43277 L875.97656 199.42830 L876.95313 199.42377 L877.92969 199.41914 L878.90625 199.41443 L879.88281 199.40964 L880.85938 199.40475 L881.83594 199.39978 L882.81250 199.39473 L883.78906 199.38960 L884.76563 199.38429 L885.74219 199.37897 L886.71875 199.37350 L887.69531 199.36795 L888.67188 199.36229 L889.64844 199.35651 L890.62500 199.35060 L891.60156 199.34459 L892.57813 199.33844 L893.55469 199.33218 L894.53125 199.32581 L895.50781 199.31927 L896.48438 199.31261 L897.46094 199.30580 L898.43750 199.29881 L899.41406 199.29170 L900.39063 199.28444 L901.36719 199.27701 L902.34375 199.26939 L903.32031 199.26163 L904.29688 199.25366 L905.27344 199.24551 L906.25000 199.23718 L907.22656 199.22864 L908.20313 199.21988 L909.17969 199.21092 L910.15625 199.20172 L911.13281 199.19231 L912.10938 199.18263 L913.08594 199.17271 L914.06250 199.16252 L915.03906 199.15207 L916.01563 199.14133 L916.99219 199.13028 L917.96875 199.11893 L918.94531 199.10725 L919.92188 199.09525 L920.89844 199.08289 L921.87500 199.07016 L922.85156 199.05704 L923.82813 199.04352 L924.80469 199.02956 L925.78125 199.01518 L926.75781 199.00032 L927.73438 198.98497 L928.71094 198.96913 L929.68750 198.95271 L930.66406 198.93571 L931.64063 198.91814 L932.61719 198.89993 L933.59375 198.88106 L934.57031 198.86145 L935.54688 198.84109 L936.52344 198.81995 L937.50000 198.79794 L938.47656 198.77505 L939.45313 198.75117 L940.42969 198.72629 L941.40625 198.70030 L942.38281 198.67316 L943.35938 198.64474 L944.33594 198.61501 L945.31250 198.58382 L946.28906 198.55106 L947.26563 198.51663 L948.24219 198.48038 L949.21875 198.44217 L950.19531 198.40182 L951.17188 198.35915 L952.14844 198.31392 L953.12500 198.26591 L954.10156 198.21486 L955.07813 198.16045 L956.05469 198.10231 L957.03125 198.04005 L958.00781 197.97321 L958.98438 197.90125 L959.96094 197.82355 L960.93750 197.73935 L961.91406 197.64781 L962.89063 197.54791 L963.86719 197.43842 L964.84375 197.31786 L965.82031 197.18445 L966.79688 197.03598 L967.77344 196.86974 L968.75000 196.68230 L969.72656 196.46927 L970.70313 196.22505 L971.67969 195.94218 L972.65625 195.61073 L973.63281 195.21698 L974.60938 194.74162 L975.58594 194.15643 L976.56250 193.41861 L977.53906 192.45990 L978.51563 191.16446 L979.49219 189.31873 L980.46875 186.48096 L981.44531 181.56564 L982.42188 171.00002 L983.39844 132.05400 L984.37500 -0.00000 L985.35156 159.36464 L986.32813 177.29105 L987.30469 184.17461 L988.28125 187.79968 L989.25781 190.02367 L990.23438 191.51553 L991.21094 192.57492 L992.18750 193.35576 L993.16406 193.94496 L994.14063 194.39496 L995.11719 194.73901 L996.09375 194.99884 L997.07031 195.18892 L998.04688 195.31877 L999.02344 195.39445" /><path fill="none" stroke="#000000" d="M0 300.00000  L0.00000 300.00000  L0.97656 297.41074  L1.95313 294.83728  L2.92969 292.29483  L3.90625 289.79745  L4.88281 287.35757  L5.85938 284.98578  L6.83594 282.69058  L7.81250 280.47836  L8.78906 278.35349  L9.76563 276.31851  L10.74219 274.37436  L11.71875 272.52057  L12.69531 270.75565  L13.67188 269.07715  L14.64844 267.48206  L15.62500 265.96680  L16.60156 400.00000  L17.57813 398.63312  L18.55469 397.33441  L19.53125 396.10004  L20.50781 394.92596  L21.48438 393.80865  L22.46094 392.74442  L23.43750 391.72992  L24.41406 390.76187  L25.39063 389.83728  L26.36719 388.95340  L27.34375 388.10760  L28.32031 387.29715  L29.29688 386.52017  L30.27344 385.77438  L31.25000 385.05756  L32.22656 384.36801  L33.20313 383.70422  L34.17969 383.06433  L35.15625 382.44708  L36.13281 381.85107  L37.10938 381.27478  L38.08594 380.71735  L39.06250 380.17761  L40.03906 379.65442  L41.01563 379.14703  L41.99219 378.65430  L42.96875 378.17566  L43.94531 377.71021  L44.92188 377.25732  L45.89844 376.81635  L46.87500 376.38641  L47.85156 375.96729  L48.82813 375.55817  L49.80469 375.15875  L50.78125 374.76843  L51.75781 374.38669  L52.73438 374.01337  L53.71094 373.64764  L54.68750 373.28976  L55.66406 372.93909  L56.64063 372.59454  L57.61719 372.25720  L58.59375 371.92557  L59.57031 371.60040  L60.54688 371.28027  L61.52344 370.96622  L62.50000 370.65759  L63.47656 370.35345  L64.45313 370.05389  L65.42969 369.75940  L66.40625 369.46890  L67.38281 369.18317  L68.35938 368.90115  L69.33594 368.62250  L70.31250 368.34802  L71.28906 368.07806  L72.26563 367.81067  L73.24219 367.54712  L74.21875 367.28635  L75.19531 367.02893  L76.17188 366.77423  L77.14844 366.52246  L78.12500 366.27368  L79.10156 366.02740  L80.07813 365.78394  L81.05469 365.54272  L82.03125 365.30408  L83.00781 365.06793  L83.98438 364.83374  L84.96094 364.60205  L85.93750 364.37225  L86.91406 364.14444  L87.89063 363.91882  L88.86719 363.69516  L89.84375 363.47327  L90.82031 363.25293  L91.79688 363.03479  L92.77344 362.81815  L93.75000 362.60309  L94.72656 362.38995  L95.70313 362.17792  L96.67969 361.96741  L97.65625 361.75879  L98.63281 361.55145  L99.60938 361.34546  L100.58594 361.14044  L101.56250 360.93610  L102.53906 360.73459  L103.51563 360.53455  L104.49219 360.33466  L105.46875 360.13599  L106.44531 359.93915  L107.42188 359.74255  L108.39844 359.54721  L109.37500 359.35236  L110.35156 359.16055  L111.32813 358.96887  L112.30469 358.77661  L113.28125 358.58609  L114.25781 358.39938  L115.23438 358.20740  L116.21094 358.02100  L117.18750 357.83371  L118.16406 357.64908  L119.14063 357.46472  L120.11719 357.27960  L121.09375 357.09653  L122.07031 356.91406  L123.04688 356.73199  L124.02344 356.55087  L125.00000 356.37064  L125.97656 356.19095  L126.95313 356.01141  L127.92969 355.83356  L128.90625 355.65561  L129.88281 355.47809  L130.85938 355.30219  L131.83594 355.12628  L132.81250 354.95099  L133.78906 354.77628  L134.76563 354.60199  L135.74219 354.42834  L136.71875 354.25513  L137.69531 354.08337  L138.67188 353.91116  L139.64844 353.73901  L140.62500 353.56866  L141.60156 353.39783  L142.57813 353.22797  L143.55469 353.05899  L144.53125 352.89075  L145.50781 352.72058  L146.48438 352.55313  L147.46094 352.38147  L148.43750 352.21747  L149.41406 352.05121  L150.39063 351.88354  L151.36719 351.71747  L152.34375 351.55228  L153.32031 351.38641  L154.29688 351.22223  L155.27344 351.05862  L156.25000 350.89221  L157.22656 350.72861  L158.20313 350.56586  L159.17969 350.40234  L160.15625 350.23932  L161.13281 350.07800  L162.10938 349.91589  L163.08594 349.75357  L164.06250 349.59210  L165.03906 349.43091  L166.01563 349.27002  L166.99219 349.10986  L167.96875 348.94946  L168.94531 348.78918  L169.92188 348.62958  L170.89844 348.47028  L171.87500 348.31116  L172.85156 348.15222  L173.82813 347.99359  L174.80469 347.83505  L175.78125 347.67719  L176.75781 347.51935  L177.73438 347.36163  L178.71094 347.20453  L179.68750 347.04703  L180.66406 346.89069  L181.64063 346.73401  L182.61719 346.57718  L183.59375 346.42148  L184.57031 346.26459  L185.54688 346.10968  L186.52344 345.95477  L187.50000 345.79764  L188.47656 345.64392  L189.45313 345.48688  L190.42969 345.33380  L191.40625 345.17871  L192.38281 345.02423  L193.35938 344.87170  L194.33594 344.71716  L195.31250 344.56171  L196.28906 344.41010  L197.26563 344.25516  L198.24219 344.10254  L199.21875 343.95099  L200.19531 343.79053  L201.17188 343.63483  L202.14844 343.49469  L203.12500 343.34393  L204.10156 343.18823  L205.07813 343.03723  L206.05469 342.88611  L207.03125 342.73236  L208.00781 342.58167  L208.98438 342.43024  L209.96094 342.27856  L210.93750 342.12833  L211.91406 341.97626  L212.89063 341.82571  L213.86719 341.67523  L214.84375 341.52423  L215.82031 341.37482  L216.79688 341.22372  L217.77344 341.07361  L218.75000 340.92374  L219.72656 340.77368  L220.70313 340.62463  L221.67969 340.47443  L222.65625 340.32501  L223.63281 340.17584  L224.60938 340.02600  L225.58594 339.87823  L226.56250 339.72791  L227.53906 339.57883  L228.51563 339.43134  L229.49219 339.28040  L230.46875 339.13416  L231.44531 338.98450  L232.42188 338.82559  L233.39844 338.68234  L234.37500 338.54587  L235.35156 338.39526  L236.32813 338.24536  L237.30469 338.10092  L238.28125 337.95013  L239.25781 337.80258  L240.23438 337.65588  L241.21094 337.50699  L242.18750 337.36179  L243.16406 337.21411  L244.14063 337.06598  L245.11719 336.92090  L246.09375 336.76971  L247.07031 336.62543  L248.04688 336.47900  L249.02344 336.33136  L250.00000 336.18573  L250.97656 336.03854  L251.95313 335.89252  L252.92969 335.74719  L253.90625 335.60065  L254.88281 335.45441  L255.85938 335.30804  L256.83594 335.16168  L257.81250 335.01642  L258.78906 334.87097  L259.76563 334.72498  L260.74219 334.57925  L261.71875 334.43341  L262.69531 334.28772  L263.67188 334.14337  L264.64844 333.99734  L265.62500 333.85101  L266.60156 333.70752  L267.57813 333.56107  L268.55469 333.41742  L269.53125 333.27167  L270.50781 333.12668  L271.48438 332.98254  L272.46094 332.83704  L273.43750 332.69427  L274.41406 332.54840  L275.39063 332.40234  L276.36719 332.25845  L277.34375 332.11597  L278.32031 331.96677  L279.29688 331.82480  L280.27344 331.68176  L281.25000 331.53766  L282.22656 331.39270  L283.20313 331.24866  L284.17969 331.10425  L285.15625 330.96024  L286.13281 330.81863  L287.10938 330.67072  L288.08594 330.52728  L289.06250 330.38440  L290.03906 330.24133  L291.01563 330.09686  L291.99219 329.95551  L292.96875 329.81079  L293.94531 329.66724  L294.92188 329.52460  L295.89844 329.37964  L296.87500 329.23703  L297.85156 329.09464  L298.82813 328.95001  L299.80469 328.80774  L300.78125 328.66455  L301.75781 328.52130  L302.73438 328.37891  L303.71094 328.23511  L304.68750 328.09229  L305.66406 327.94940  L306.64063 327.80652  L307.61719 327.66455  L308.59375 327.52051  L309.57031 327.37799  L310.54688 327.23572  L311.52344 327.09253  L312.50000 326.95105  L313.47656 326.80817  L314.45313 326.66504  L315.42969 326.52258  L316.40625 326.38062  L317.38281 326.23950  L318.35938 326.09494  L319.33594 325.95267  L320.31250 325.80762  L321.28906 325.67056  L322.26563 325.52454  L323.24219 325.38397  L324.21875 325.24390  L325.19531 325.10025  L326.17188 324.95883  L327.14844 324.81619  L328.12500 324.67413  L329.10156 324.53482  L330.07813 324.39017  L331.05469 324.25214  L332.03125 324.11108  L333.00781 323.96286  L333.98438 323.81967  L334.96094 323.68204  L335.93750 323.53821  L336.91406 323.39819  L337.89063 323.25620  L338.86719 323.11353  L339.84375 322.97354  L340.82031 322.83124  L341.79688 322.69031  L342.77344 322.54855  L343.75000 322.40646  L344.72656 322.26596  L345.70313 322.12387  L346.67969 321.98309  L347.65625 321.84177  L348.63281 321.69980  L349.60938 321.55933  L350.58594 321.41794  L351.56250 321.27646  L352.53906 321.13562  L353.51563 320.99414  L354.49219 320.85306  L355.46875 320.71231  L356.44531 320.57108  L357.42188 320.42981  L358.39844 320.28867  L359.37500 320.14767  L360.35156 320.00854  L361.32813 319.86682  L362.30469 319.72528  L363.28125 319.58881  L364.25781 319.44553  L365.23438 319.29889  L366.21094 319.15936  L367.18750 319.02063  L368.16406 318.87952  L369.14063 318.73880  L370.11719 318.59744  L371.09375 318.45654  L372.07031 318.31778  L373.04688 318.17725  L374.02344 318.03448  L375.00000 317.89346  L375.97656 317.75482  L376.95313 317.61194  L377.92969 317.47150  L378.90625 317.33130  L379.88281 317.19238  L380.85938 317.05154  L381.83594 316.90967  L382.81250 316.76993  L383.78906 316.62927  L384.76563 316.48917  L385.74219 316.34924  L386.71875 316.20837  L387.69531 316.06818  L388.67188 315.92752  L389.64844 315.78784  L390.62500 315.64786  L391.60156 315.50629  L392.57813 315.36713  L393.55469 315.22595  L394.53125 315.08594  L395.50781 314.94604  L396.48438 314.80505  L397.46094 314.66510  L398.43750 314.52515  L399.41406 314.38571  L400.39063 314.24490  L401.36719 314.10461  L402.34375 313.96472  L403.32031 313.82355  L404.29688 313.68567  L405.27344 313.54504  L406.25000 313.40457  L407.22656 313.26239  L408.20313 313.12427  L409.17969 312.98151  L410.15625 312.84332  L411.13281 312.70532  L412.10938 312.56372  L413.08594 312.42227  L414.06250 312.28546  L415.03906 312.14218  L416.01563 312.00360  L416.99219 311.87085  L417.96875 311.71289  L418.94531 311.57953  L419.92188 311.44141  L420.89844 311.30573  L421.87500 311.16223  L422.85156 311.02649  L423.82813 310.88477  L424.80469 310.74475  L425.78125 310.60626  L426.75781 310.46417  L427.73438 310.32614  L428.71094 310.18719  L429.68750 310.04504  L430.66406 309.90662  L431.64063 309.76685  L432.61719 309.62613  L433.59375 309.48798  L434.57031 309.34756  L435.54688 309.20776  L436.52344 309.06781  L437.50000 308.92850  L438.47656 308.78961  L439.45313 308.64835  L440.42969 308.50967  L441.40625 308.37006  L442.38281 308.22885  L443.35938 308.09152  L444.33594 307.95081  L445.31250 307.81049  L446.28906 307.67197  L447.26563 307.53186  L448.24219 307.39536  L449.21875 307.24976  L450.19531 307.10999  L451.17188 306.96027  L452.14844 306.83997  L453.12500 306.69150  L454.10156 306.55258  L455.07813 306.41858  L456.05469 306.27405  L457.03125 306.13571  L458.00781 305.99731  L458.98438 305.85651  L459.96094 305.72113  L460.93750 305.57703  L461.91406 305.43921  L462.89063 305.30157  L463.86719 305.15802  L464.84375 305.01834  L465.82031 304.88153  L466.79688 304.73959  L467.77344 304.60318  L468.75000 304.46136  L469.72656 304.32062  L470.70313 304.18433  L471.67969 304.04236  L472.65625 303.90421  L473.63281 303.76511  L474.60938 303.62402  L475.58594 303.48639  L476.56250 303.34607  L477.53906 303.20703  L478.51563 303.06784  L479.49219 302.92676  L480.46875 302.78900  L481.44531 302.64923  L482.42188 302.50928  L483.39844 302.37204  L484.37500 302.23065  L485.35156 302.09076  L486.32813 301.95300  L487.30469 301.81293  L488.28125 301.67300  L489.25781 301.53378  L490.23438 301.39349  L491.21094 301.25546  L492.18750 301.11682  L493.16406 300.97635  L494.14063 300.83929  L495.11719 300.69681  L496.09375 300.55566  L497.07031 300.41718  L498.04688 300.27823  L499.02344 300.13995  L500.00000 300.00000  L500.97656 299.86011  L501.95313 299.72180  L502.92969 299.58279  L503.90625 299.44434  L504.88281 299.30322  L505.85938 299.16061  L506.83594 299.02356  L507.81250 298.88303  L508.78906 298.74438  L509.76563 298.60638  L510.74219 298.46597  L511.71875 298.32672  L512.69531 298.18695  L513.67188 298.04697  L514.64844 297.90869  L515.62500 297.76935  L516.60156 297.62897  L517.57813 297.49072  L518.55469 297.35077  L519.53125 297.21097  L520.50781 297.07324  L521.48438 296.93225  L522.46094 296.79300  L523.43750 296.65393  L524.41406 296.51364  L525.39063 296.37604  L526.36719 296.23499  L527.34375 296.09589  L528.32031 295.95746  L529.29688 295.81561  L530.27344 295.67932  L531.25000 295.53864  L532.22656 295.39673  L533.20313 295.26041  L534.17969 295.11853  L535.15625 294.98166  L536.13281 294.84204  L537.10938 294.69843  L538.08594 294.56076  L539.06250 294.42297  L540.03906 294.27878  L541.01563 294.14346  L541.99219 294.00272  L542.96875 293.86429  L543.94531 293.72595  L544.92188 293.58121  L545.89844 293.44711  L546.87500 293.30872  L547.85156 293.15991  L548.82813 293.03961  L549.80469 292.88989  L550.78125 292.75024  L551.75781 292.60471  L552.73438 292.46814  L553.71094 292.32794  L554.68750 292.18951  L555.66406 292.04926  L556.64063 291.90845  L557.61719 291.77121  L558.59375 291.62994  L559.57031 291.49033  L560.54688 291.35165  L561.52344 291.21042  L562.50000 291.07147  L563.47656 290.93213  L564.45313 290.79224  L565.42969 290.65247  L566.40625 290.51202  L567.38281 290.37384  L568.35938 290.23328  L569.33594 290.09335  L570.31250 289.95496  L571.28906 289.81281  L572.26563 289.67386  L573.24219 289.53577  L574.21875 289.39365  L575.19531 289.25522  L576.17188 289.11523  L577.14844 288.97354  L578.12500 288.83792  L579.10156 288.69409  L580.07813 288.55859  L581.05469 288.42044  L582.03125 288.28705  L583.00781 288.12915  L583.98438 287.99643  L584.96094 287.85779  L585.93750 287.71451  L586.91406 287.57773  L587.89063 287.43634  L588.86719 287.29471  L589.84375 287.15668  L590.82031 287.01849  L591.79688 286.87570  L592.77344 286.73749  L593.75000 286.59540  L594.72656 286.45493  L595.70313 286.31433  L596.67969 286.17645  L597.65625 286.03528  L598.63281 285.89539  L599.60938 285.75513  L600.58594 285.61432  L601.56250 285.47491  L602.53906 285.33484  L603.51563 285.19495  L604.49219 285.05392  L605.46875 284.91409  L606.44531 284.77399  L607.42188 284.63303  L608.39844 284.49377  L609.37500 284.35223  L610.35156 284.21225  L611.32813 284.07251  L612.30469 283.93170  L613.28125 283.79163  L614.25781 283.65085  L615.23438 283.51086  L616.21094 283.37070  L617.18750 283.23004  L618.16406 283.09033  L619.14063 282.94843  L620.11719 282.80762  L621.09375 282.66870  L622.07031 282.52850  L623.04688 282.38812  L624.02344 282.24515  L625.00000 282.10651  L625.97656 281.96548  L626.95313 281.82275  L627.92969 281.68225  L628.90625 281.54340  L629.88281 281.40259  L630.85938 281.26120  L631.83594 281.12048  L632.81250 280.97937  L633.78906 280.84058  L634.76563 280.70105  L635.74219 280.55444  L636.71875 280.41119  L637.69531 280.27478  L638.67188 280.13318  L639.64844 279.99133  L640.62500 279.85223  L641.60156 279.71130  L642.57813 279.57022  L643.55469 279.42889  L644.53125 279.28769  L645.50781 279.14697  L646.48438 279.00583  L647.46094 278.86435  L648.43750 278.72351  L649.41406 278.58200  L650.39063 278.44067  L651.36719 278.30029  L652.34375 278.15826  L653.32031 278.01694  L654.29688 277.87613  L655.27344 277.73398  L656.25000 277.59354  L657.22656 277.45154  L658.20313 277.30975  L659.17969 277.16879  L660.15625 277.02643  L661.13281 276.88654  L662.10938 276.74380  L663.08594 276.60172  L664.06250 276.46179  L665.03906 276.31790  L666.01563 276.18033  L666.99219 276.03720  L667.96875 275.88895  L668.94531 275.74792  L669.92188 275.60992  L670.89844 275.46527  L671.87500 275.32599  L672.85156 275.18378  L673.82813 275.04120  L674.80469 274.89972  L675.78125 274.75604  L676.75781 274.61603  L677.73438 274.47549  L678.71094 274.32941  L679.68750 274.19232  L680.66406 274.04724  L681.64063 273.90503  L682.61719 273.76050  L683.59375 273.61942  L684.57031 273.47745  L685.54688 273.33496  L686.52344 273.19183  L687.50000 273.04892  L688.47656 272.90747  L689.45313 272.76425  L690.42969 272.62201  L691.40625 272.47949  L692.38281 272.33545  L693.35938 272.19348  L694.33594 272.05060  L695.31250 271.90771  L696.28906 271.76486  L697.26563 271.62115  L698.24219 271.47876  L699.21875 271.33539  L700.19531 271.19220  L701.17188 271.04996  L702.14844 270.90540  L703.12500 270.76291  L704.10156 270.62039  L705.07813 270.47543  L706.05469 270.33279  L707.03125 270.18915  L708.00781 270.04443  L708.98438 269.90314  L709.96094 269.75867  L710.93750 269.61560  L711.91406 269.47269  L712.89063 269.32925  L713.86719 269.18130  L714.84375 269.03979  L715.82031 268.89575  L716.79688 268.75134  L717.77344 268.60721  L718.75000 268.46234  L719.72656 268.31824  L720.70313 268.17517  L721.67969 268.03320  L722.65625 267.88400  L723.63281 267.74158  L724.60938 267.59763  L725.58594 267.45166  L726.56250 267.30573  L727.53906 267.16293  L728.51563 267.01740  L729.49219 266.87338  L730.46875 266.72833  L731.44531 266.58276  L732.42188 266.43900  L733.39844 266.29297  L734.37500 266.14801  L735.35156 266.00275  L736.32813 265.85651  L737.30469 265.71234  L738.28125 265.56656  L739.25781 265.42068  L740.23438 265.27505  L741.21094 265.12900  L742.18750 264.98358  L743.16406 264.83823  L744.14063 264.69189  L745.11719 264.54559  L746.09375 264.39929  L747.07031 264.25281  L748.04688 264.10745  L749.02344 263.96149  L750.00000 263.81424  L750.97656 263.66861  L751.95313 263.52100  L752.92969 263.37454  L753.90625 263.23022  L754.88281 263.07904  L755.85938 262.93399  L756.83594 262.78589  L757.81250 262.63815  L758.78906 262.49298  L759.76563 262.34421  L760.74219 262.19742  L761.71875 262.04984  L762.69531 261.89890  L763.67188 261.75464  L764.64844 261.60477  L765.62500 261.45255  L766.60156 261.31754  L767.57813 261.17465  L768.55469 261.01559  L769.53125 260.86591  L770.50781 260.71967  L771.48438 260.56860  L772.46094 260.42117  L773.43750 260.27203  L774.41406 260.12180  L775.39063 259.97400  L776.36719 259.82413  L777.34375 259.67499  L778.32031 259.52560  L779.29688 259.37531  L780.27344 259.22629  L781.25000 259.07626  L782.22656 258.92642  L783.20313 258.77628  L784.17969 258.62518  L785.15625 258.47577  L786.13281 258.32477  L787.10938 258.17422  L788.08594 258.02374  L789.06250 257.87164  L790.03906 257.72144  L791.01563 257.56973  L791.99219 257.41827  L792.96875 257.26767  L793.94531 257.11392  L794.92188 256.96280  L795.89844 256.81195  L796.87500 256.65616  L797.85156 256.50537  L798.82813 256.36520  L799.80469 256.20947  L800.78125 256.04898  L801.75781 255.89749  L802.73438 255.74484  L803.71094 255.58987  L804.68750 255.43829  L805.66406 255.28281  L806.64063 255.12833  L807.61719 254.97580  L808.59375 254.82130  L809.57031 254.66621  L810.54688 254.51311  L811.52344 254.35608  L812.50000 254.20235  L813.47656 254.04520  L814.45313 253.89032  L815.42969 253.73538  L816.40625 253.57851  L817.38281 253.42285  L818.35938 253.26593  L819.33594 253.10933  L820.31250 252.95296  L821.28906 252.79546  L822.26563 252.63837  L823.24219 252.48062  L824.21875 252.32283  L825.19531 252.16489  L826.17188 252.00641  L827.14844 251.84770  L828.12500 251.68849  L829.10156 251.52982  L830.07813 251.37036  L831.05469 251.21082  L832.03125 251.05057  L833.00781 250.89012  L833.98438 250.72998  L834.96094 250.56914  L835.93750 250.40788  L836.91406 250.24640  L837.89063 250.08409  L838.86719 249.92201  L839.84375 249.76071  L840.82031 249.59766  L841.79688 249.43411  L842.77344 249.27141  L843.75000 249.10776  L844.72656 248.94136  L845.70313 248.77773  L846.67969 248.61360  L847.65625 248.44772  L848.63281 248.28256  L849.60938 248.11646  L850.58594 247.94882  L851.56250 247.78253  L852.53906 247.61850  L853.51563 247.44684  L854.49219 247.27943  L855.46875 247.10928  L856.44531 246.94098  L857.42188 246.77200  L858.39844 246.60205  L859.37500 246.43071  L860.35156 246.26108  L861.32813 246.08882  L862.30469 245.91660  L863.28125 245.74490  L864.25781 245.57166  L865.23438 245.39801  L866.21094 245.22369  L867.18750 245.04898  L868.16406 244.87370  L869.14063 244.69777  L870.11719 244.52191  L871.09375 244.34438  L872.07031 244.16646  L873.04688 243.98851  L874.02344 243.80899  L875.00000 243.62933  L875.97656 243.44908  L876.95313 243.26796  L877.92969 243.08594  L878.90625 242.90344  L879.88281 242.72040  L880.85938 242.53525  L881.83594 242.35091  L882.81250 242.16629  L883.78906 241.97896  L884.76563 241.79257  L885.74219 241.60059  L886.71875 241.41391  L887.69531 241.22343  L888.67188 241.03116  L889.64844 240.83936  L890.62500 240.64708  L891.60156 240.45276  L892.57813 240.25743  L893.55469 240.06075  L894.53125 239.86401  L895.50781 239.66533  L896.48438 239.46541  L897.46094 239.26541  L898.43750 239.06390  L899.41406 238.85954  L900.39063 238.65451  L901.36719 238.44858  L902.34375 238.24121  L903.32031 238.03256  L904.29688 237.82207  L905.27344 237.61006  L906.25000 237.39690  L907.22656 237.18187  L908.20313 236.96519  L909.17969 236.74704  L910.15625 236.52670  L911.13281 236.30484  L912.10938 236.08119  L913.08594 235.85556  L914.06250 235.62776  L915.03906 235.39795  L916.01563 235.16626  L916.99219 234.93205  L917.96875 234.69592  L918.94531 234.45731  L919.92188 234.21602  L920.89844 233.97266  L921.87500 233.72617  L922.85156 233.47757  L923.82813 233.22586  L924.80469 232.97101  L925.78125 232.71367  L926.75781 232.45288  L927.73438 232.18933  L928.71094 231.92191  L929.68750 231.65195  L930.66406 231.37752  L931.64063 231.09886  L932.61719 230.81685  L933.59375 230.53108  L934.57031 230.24062  L935.54688 229.94609  L936.52344 229.64656  L937.50000 229.34241  L938.47656 229.03380  L939.45313 228.71971  L940.42969 228.39958  L941.40625 228.07445  L942.38281 227.74280  L943.35938 227.40543  L944.33594 227.06093  L945.31250 226.71021  L946.28906 226.35237  L947.26563 225.98665  L948.24219 225.61333  L949.21875 225.23154  L950.19531 224.84126  L951.17188 224.44182  L952.14844 224.03270  L953.12500 223.61353  L954.10156 223.18365  L955.07813 222.74268  L956.05469 222.28983  L957.03125 221.82436  L958.00781 221.34569  L958.98438 220.85300  L959.96094 220.34557  L960.93750 219.82239  L961.91406 219.28265  L962.89063 218.72522  L963.86719 218.14893  L964.84375 217.55290  L965.82031 216.93565  L966.79688 216.29576  L967.77344 215.63200  L968.75000 214.94243  L969.72656 214.22562  L970.70313 213.47981  L971.67969 212.70284  L972.65625 211.89240  L973.63281 211.04660  L974.60938 210.16272  L975.58594 209.23810  L976.56250 208.27008  L977.53906 207.25557  L978.51563 206.19135  L979.49219 205.07401  L980.46875 203.89998  L981.44531 202.66556  L982.42188 201.36688  L983.39844 199.99998  L984.37500 334.03317  L985.35156 332.51794  L986.32813 330.92285  L987.30469 329.24435  L988.28125 327.47943  L989.25781 325.62564  L990.23438 323.68146  L991.21094 321.64648  L992.18750 319.52164  L993.16406 317.30939  L994.14063 315.01419  L995.11719 312.64240  L996.09375 310.20251  L997.07031 307.70514  L998.04688 305.16272  L999.02344 302.58926 " /></g><text x="1000.00000" dx="10" y="199.99995">[-0.00000;0.44889]</text><text x="1000.00000" dx="10" y="300.00000">[-2.31899;2.31899]</text></svg>