<svg xmlns="http://www.w3.org/2000/svg" version="1.1"><g stroke-width="0.6"><path fill="none" stroke="#000000" d="M0 131.36658 L1000.00000 131.36658" /><path fill="none" stroke="#000000" d="M0 300.00000 L1000.00000 300.00000" /><path fill="none" stroke="#000000" d="M500.00000 0 L500.00000 400.00000" /><path fill="none" stroke="#000000" d="M0 131.36658  L0.00000 0.00000 L0.97656 45.59171 L1.95313 110.64395 L2.92969 114.71435 L3.90625 108.14404 L4.88281 148.91125 L5.85938 174.86282 L6.83594 132.07864 L7.81250 98.52493 L8.78906 144.89284 L9.76563 199.99873 L10.74219 185.40289 L11.71875 154.58913 L12.69531 169.32802 L13.67188 171.32738 L14.64844 110.01290 L15.62500 65.68329 L16.60156 110.01297 L17.57813 171.32739 L18.55469 169.32799 L19.53125 154.58914 L20.50781 185.40297 L21.48438 199.99869 L22.46094 144.89287 L23.43750 98.52493 L24.41406 132.07869 L25.39063 174.86282 L26.36719 148.91118 L27.34375 108.14400 L28.32031 114.71434 L29.29688 110.64394 L30.27344 45.59167 L31.25000 0.00000 L32.22656 45.59180 L33.20313 110.64401 L34.17969 114.71431 L35.15625 108.14404 L36.13281 148.91127 L37.10938 174.86281 L38.08594 132.07858 L39.06250 98.52495 L40.03906 144.89282 L41.01563 199.99878 L41.99219 185.40289 L42.96875 154.58910 L43.94531 169.32803 L44.92188 171.32742 L45.89844 110.01275 L46.87500 65.68329 L47.85156 110.01313 L48.82813 171.32742 L49.80469 169.32791 L50.78125 154.58914 L51.75781 185.40291 L52.73438 199.99867 L53.71094 144.89281 L54.68750 98.52491 L55.66406 132.07875 L56.64063 174.86281 L57.61719 148.91113 L58.59375 108.14403 L59.57031 114.71440 L60.54688 110.64391 L61.52344 45.59142 L62.50000 0.00000 L63.47656 45.59169 L64.45313 110.64405 L65.42969 114.71434 L66.40625 108.14409 L67.38281 148.91132 L68.35938 174.86278 L69.33594 132.07854 L70.31250 98.52493 L71.28906 144.89305 L72.26563 199.99875 L73.24219 185.40277 L74.21875 154.58911 L75.19531 169.32800 L76.17188 171.32732 L77.14844 110.01286 L78.12500 65.68329 L79.10156 110.01302 L80.07813 171.32738 L81.05469 169.32794 L82.03125 154.58917 L83.00781 185.40285 L83.98438 199.99870 L84.96094 144.89256 L85.93750 98.52489 L86.91406 132.07866 L87.89063 174.86285 L88.86719 148.91096 L89.84375 108.14405 L90.82031 114.71437 L91.79688 110.64379 L92.77344 45.59116 L93.75000 0.00000 L94.72656 45.59194 L95.70313 110.64417 L96.67969 114.71436 L97.65625 108.14406 L98.63281 148.91148 L99.60938 174.86275 L100.58594 132.07863 L101.56250 98.52496 L102.53906 144.89330 L103.51563 199.99872 L104.49219 185.40283 L105.46875 154.58908 L106.44531 169.32796 L107.42188 171.32736 L108.39844 110.01262 L109.37500 65.68329 L110.35156 110.01290 L111.32813 171.32748 L112.30469 169.32787 L113.28125 154.58911 L114.25781 185.40298 L115.23438 199.99863 L116.21094 144.89233 L117.18750 98.52493 L118.16406 132.07886 L119.14063 174.86288 L120.11719 148.91129 L121.09375 108.14400 L122.07031 114.71443 L123.04688 110.64367 L124.02344 45.59165 L125.00000 0.00000 L125.97656 45.59219 L126.95313 110.64394 L127.92969 114.71430 L128.90625 108.14412 L129.88281 148.91165 L130.85938 174.86281 L131.83594 132.07843 L132.81250 98.52498 L133.78906 144.89284 L134.76563 199.99878 L135.74219 185.40269 L136.71875 154.58907 L137.69531 169.32805 L138.67188 171.32726 L139.64844 110.01237 L140.62500 65.68329 L141.60156 110.01314 L142.57813 171.32759 L143.55469 169.32779 L144.53125 154.58914 L145.50781 185.40311 L146.48438 199.99855 L147.46094 144.89278 L148.43750 98.52491 L149.41406 132.07904 L150.39063 174.86281 L151.36719 148.91112 L152.34375 108.14394 L153.32031 114.71449 L154.29688 110.64391 L155.27344 45.59140 L156.25000 0.00000 L157.22656 45.59171 L158.20313 110.64406 L159.17969 114.71442 L160.15625 108.14400 L161.13281 148.91133 L162.10938 174.86278 L163.08594 132.07825 L164.06250 98.52500 L165.03906 144.89377 L166.01563 199.99864 L166.99219 185.40295 L167.96875 154.58911 L168.94531 169.32813 L169.92188 171.32715 L170.89844 110.01213 L171.87500 65.68329 L172.85156 110.01267 L173.82813 171.32738 L174.80469 169.32794 L175.78125 154.58917 L176.75781 185.40324 L177.73438 199.99847 L178.71094 144.89186 L179.68750 98.52496 L180.66406 132.07867 L181.64063 174.86285 L182.61719 148.91095 L183.59375 108.14388 L184.57031 114.71455 L185.54688 110.64342 L186.52344 45.59188 L187.50000 0.00000 L188.47656 45.59195 L189.45313 110.64418 L190.42969 114.71419 L191.40625 108.14423 L192.38281 148.91199 L193.35938 174.86284 L194.33594 132.07861 L195.31250 98.52496 L196.28906 144.89331 L197.26563 199.99895 L198.24219 185.40244 L199.21875 154.58900 L200.19531 169.32797 L201.17188 171.32735 L202.14844 110.01260 L203.12500 65.68329 L204.10156 110.01363 L205.07813 171.32780 L206.05469 169.32762 L207.03125 154.58913 L208.00781 185.40300 L208.98438 199.99863 L209.96094 144.89230 L210.93750 98.52486 L211.91406 132.07944 L212.89063 174.86278 L213.86719 148.91127 L214.84375 108.14399 L215.82031 114.71444 L216.79688 110.64366 L217.77344 45.59089 L218.75000 0.00000 L219.72656 45.59147 L220.70313 110.64394 L221.67969 114.71430 L222.65625 108.14413 L223.63281 148.91165 L224.60938 174.86270 L225.58594 132.07785 L226.56250 98.52492 L227.53906 144.89285 L228.51563 199.99879 L229.49219 185.40269 L230.46875 154.58905 L231.44531 169.32829 L232.42188 171.32693 L233.39844 110.01307 L234.37500 65.68329 L235.35156 110.01316 L236.32813 171.32761 L237.30469 169.32777 L238.28125 154.58923 L239.25781 185.40350 L240.23438 199.99876 L241.21094 144.89276 L242.18750 98.52491 L243.16406 132.07906 L244.14063 174.86292 L245.11719 148.91061 L246.09375 108.14376 L247.07031 114.71432 L248.04688 110.64390 L249.02344 45.59138 L250.00000 0.00000 L250.97656 45.59246 L251.95313 110.64442 L252.92969 114.71407 L253.90625 108.14401 L254.88281 148.91133 L255.85938 174.86278 L256.83594 132.07822 L257.81250 98.52500 L258.78906 144.89378 L259.76563 199.99908 L260.74219 185.40294 L261.71875 154.58911 L262.69531 169.32814 L263.67188 171.32715 L264.64844 110.01211 L265.62500 65.68329 L266.60156 110.01412 L267.57813 171.32739 L268.55469 169.32794 L269.53125 154.58917 L270.50781 185.40326 L271.48438 199.99847 L272.46094 144.89185 L273.43750 98.52483 L274.41406 132.07869 L275.39063 174.86285 L276.36719 148.91093 L277.34375 108.14388 L278.32031 114.71455 L279.29688 110.64341 L280.27344 45.59039 L281.25000 0.00000 L282.22656 45.59198 L283.20313 110.64419 L284.17969 114.71418 L285.15625 108.14424 L286.13281 148.91200 L287.10938 174.86263 L288.08594 132.07860 L289.06250 98.52496 L290.03906 144.89333 L291.01563 199.99895 L291.99219 185.40242 L292.96875 154.58900 L293.94531 169.32797 L294.92188 171.32735 L295.89844 110.01258 L296.87500 65.68329 L297.85156 110.01365 L298.82813 171.32782 L299.80469 169.32761 L300.78125 154.58913 L301.75781 185.40300 L302.73438 199.99863 L303.71094 144.89229 L304.68750 98.52486 L305.66406 132.07945 L306.64063 174.86299 L307.61719 148.91127 L308.59375 108.14399 L309.57031 114.71444 L310.54688 110.64365 L311.52344 45.59087 L312.50000 0.00000 L313.47656 45.59296 L314.45313 110.64395 L315.42969 114.71429 L316.40625 108.14413 L317.38281 148.91167 L318.35938 174.86290 L319.33594 132.07898 L320.31250 98.52492 L321.28906 144.89287 L322.26563 199.99879 L323.24219 185.40268 L324.21875 154.58905 L325.19531 169.32829 L326.17188 171.32692 L327.14844 110.01163 L328.12500 65.68329 L329.10156 110.01460 L330.07813 171.32825 L331.05469 169.32729 L332.03125 154.58907 L333.00781 185.40274 L333.98438 199.99876 L334.96094 144.89275 L335.93750 98.52491 L336.91406 132.07907 L337.89063 174.86293 L338.86719 148.91061 L339.84375 108.14376 L340.82031 114.71468 L341.79688 110.64316 L342.77344 45.58989 L343.75000 0.00000 L344.72656 45.59100 L345.70313 110.64371 L346.67969 114.71441 L347.65625 108.14401 L348.63281 148.91135 L349.60938 174.86276 L350.58594 132.07822 L351.56250 98.52500 L352.53906 144.89380 L353.51563 199.99908 L354.49219 185.40216 L355.46875 154.58894 L356.44531 169.32863 L357.42188 171.32649 L358.39844 110.01353 L359.37500 65.68329 L360.35156 110.01271 L361.32813 171.32739 L362.30469 169.32793 L363.28125 154.58917 L364.25781 185.40327 L365.23438 199.99846 L366.21094 144.89182 L367.18750 98.52483 L368.16406 132.07983 L369.14063 174.86307 L370.11719 148.90994 L371.09375 108.14353 L372.07031 114.71421 L373.04688 110.64413 L374.02344 45.59185 L375.00000 0.00000 L375.97656 45.59200 L376.95313 110.64420 L377.92969 114.71418 L378.90625 108.14424 L379.88281 148.91200 L380.85938 174.86263 L381.83594 132.07745 L382.81250 98.52509 L383.78906 144.89473 L384.76563 199.99939 L385.74219 185.40318 L386.71875 154.58916 L387.69531 169.32797 L388.67188 171.32733 L389.64844 110.01257 L390.62500 65.68329 L391.60156 110.01366 L392.57813 171.32782 L393.55469 169.32761 L394.53125 154.58928 L395.50781 185.40378 L396.48438 199.99817 L397.46094 144.89090 L398.43750 98.52474 L399.41406 132.07832 L400.39063 174.86278 L401.36719 148.91125 L402.34375 108.14398 L403.32031 114.71445 L404.29688 110.64364 L405.27344 45.59086 L406.25000 0.00000 L407.22656 45.59299 L408.20313 110.64468 L409.17969 114.71394 L410.15625 108.14447 L411.13281 148.91267 L412.10938 174.86249 L413.08594 132.07896 L414.06250 98.52492 L415.03906 144.89288 L416.01563 199.99879 L416.99219 185.40268 L417.96875 154.58905 L418.94531 169.32831 L419.92188 171.32692 L420.89844 110.01161 L421.87500 65.68329 L422.85156 110.01463 L423.82813 171.32825 L424.80469 169.32729 L425.78125 154.58907 L426.75781 185.40276 L427.73438 199.99876 L428.71094 144.89273 L429.68750 98.52491 L430.66406 132.07909 L431.64063 174.86293 L432.61719 148.91058 L433.59375 108.14375 L434.57031 114.71468 L435.54688 110.64315 L436.52344 45.58986 L437.50000 0.00000 L438.47656 45.59398 L439.45313 110.64372 L440.42969 114.71440 L441.40625 108.14402 L442.38281 148.91136 L443.35938 174.86276 L444.33594 132.07820 L445.31250 98.52500 L446.28906 144.89381 L447.26563 199.99910 L448.24219 185.40215 L449.21875 154.58894 L450.19531 169.32863 L451.17188 171.32649 L452.14844 110.01065 L453.12500 65.68329 L454.10156 110.01273 L455.07813 171.32741 L456.05469 169.32793 L457.03125 154.58917 L458.00781 185.40327 L458.98438 199.99846 L459.96094 144.89180 L460.93750 98.52482 L461.91406 132.07985 L462.89063 174.86307 L463.86719 148.90993 L464.84375 108.14353 L465.82031 114.71491 L466.79688 110.64412 L467.77344 45.59183 L468.75000 0.00000 L469.72656 45.59202 L470.70313 110.64420 L471.67969 114.71417 L472.65625 108.14425 L473.63281 148.91202 L474.60938 174.86263 L475.58594 132.07744 L476.56250 98.52509 L477.53906 144.89474 L478.51563 199.99939 L479.49219 185.40163 L480.46875 154.58916 L481.44531 169.32799 L482.42188 171.32733 L483.39844 110.01255 L484.37500 65.68329 L485.35156 110.01368 L486.32813 171.32784 L487.30469 169.32761 L488.28125 154.58929 L489.25781 185.40379 L490.23438 199.99817 L491.21094 144.89087 L492.18750 98.52474 L493.16406 132.08061 L494.14063 174.86279 L495.11719 148.91124 L496.09375 108.14398 L497.07031 114.71445 L498.04688 110.64363 L499.02344 45.59084 L500.00000 0.00000 L500.97656 45.59301 L501.95313 110.64470 L502.92969 114.71394 L503.90625 108.14448 L504.88281 148.91267 L505.85938 174.86249 L506.83594 132.07895 L507.81250 98.52493 L508.78906 144.89290 L509.76563 199.99881 L510.74219 185.40266 L511.71875 154.58905 L512.69531 169.32831 L513.67188 171.32690 L514.64844 110.01159 L515.62500 65.68329 L516.60156 110.01464 L517.57813 171.32825 L518.55469 169.32727 L519.53125 154.58940 L520.50781 185.40277 L521.48438 199.99875 L522.46094 144.89272 L523.43750 98.52490 L524.41406 132.07910 L525.39063 174.86293 L526.36719 148.91058 L527.34375 108.14375 L528.32031 114.71468 L529.29688 110.64314 L530.27344 45.58984 L531.25000 0.00000 L532.22656 45.59399 L533.20313 110.64518 L534.17969 114.71440 L535.15625 108.14403 L536.13281 148.91138 L537.10938 174.86276 L538.08594 132.07819 L539.06250 98.52501 L540.03906 144.89383 L541.01563 199.99911 L541.99219 185.40215 L542.96875 154.58894 L543.94531 169.32864 L544.92188 171.32648 L545.89844 110.01064 L546.87500 65.68329 L547.85156 110.01274 L548.82813 171.32742 L549.80469 169.32793 L550.78125 154.58919 L551.75781 185.40329 L552.73438 199.99844 L553.71094 144.89178 L554.68750 98.52482 L555.66406 132.07986 L556.64063 174.86307 L557.61719 148.90993 L558.59375 108.14352 L559.57031 114.71491 L560.54688 110.64265 L561.52344 45.59182 L562.50000 0.00000 L563.47656 45.59203 L564.45313 110.64422 L565.42969 114.71416 L566.40625 108.14426 L567.38281 148.91203 L568.35938 174.86263 L569.33594 132.07742 L570.31250 98.52509 L571.28906 144.89476 L572.26563 199.99939 L573.24219 185.40163 L574.21875 154.58884 L575.19531 169.32799 L576.17188 171.32732 L577.14844 110.01254 L578.12500 65.68329 L579.10156 110.01370 L580.07813 171.32784 L581.05469 169.32759 L582.03125 154.58929 L583.00781 185.40381 L583.98438 199.99817 L584.96094 144.89085 L585.93750 98.52473 L586.91406 132.08063 L587.89063 174.86279 L588.86719 148.91122 L589.84375 108.14397 L590.82031 114.71445 L591.79688 110.64362 L592.77344 45.59081 L593.75000 0.00000 L594.72656 45.59302 L595.70313 110.64471 L596.67969 114.71394 L597.65625 108.14448 L598.63281 148.91269 L599.60938 174.86249 L600.58594 132.07666 L601.56250 98.52493 L602.53906 144.89293 L603.51563 199.99883 L604.49219 185.40265 L605.46875 154.58905 L606.44531 169.32832 L607.42188 171.32690 L608.39844 110.01157 L609.37500 65.68329 L610.35156 110.01466 L611.32813 171.32826 L612.30469 169.32727 L613.28125 154.58940 L614.25781 185.40433 L615.23438 199.99873 L616.21094 144.89270 L617.18750 98.52490 L618.16406 132.07912 L619.14063 174.86293 L620.11719 148.91057 L621.09375 108.14375 L622.07031 114.71468 L623.04688 110.64314 L624.02344 45.58982 L625.00000 0.00000 L625.97656 45.59401 L626.95313 110.64520 L627.92969 114.71370 L628.90625 108.14403 L629.88281 148.91139 L630.85938 174.86276 L631.83594 132.07817 L632.81250 98.52501 L633.78906 144.89384 L634.76563 199.99911 L635.74219 185.40213 L636.71875 154.58926 L637.69531 169.32767 L638.67188 171.32774 L639.64844 110.01347 L640.62500 65.68329 L641.60156 110.01276 L642.57813 171.32742 L643.55469 169.32791 L644.53125 154.58919 L645.50781 185.40329 L646.48438 199.99844 L647.46094 144.89177 L648.43750 98.52482 L649.41406 132.07988 L650.39063 174.86307 L651.36719 148.90991 L652.34375 108.14352 L653.32031 114.71492 L654.29688 110.64265 L655.27344 45.58883 L656.25000 0.00000 L657.22656 45.59500 L658.20313 110.64568 L659.17969 114.71347 L660.15625 108.14494 L661.13281 148.91402 L662.10938 174.86220 L663.08594 132.07968 L664.06250 98.52484 L665.03906 144.89201 L666.01563 199.99854 L666.99219 185.40315 L667.96875 154.58916 L668.94531 169.32800 L669.92188 171.32732 L670.89844 110.01251 L671.87500 65.68329 L672.85156 110.01372 L673.82813 171.32785 L674.80469 169.32759 L675.78125 154.58929 L676.75781 185.40381 L677.73438 199.99815 L678.71094 144.89084 L679.68750 98.52473 L680.66406 132.08064 L681.64063 174.86322 L682.61719 148.90924 L683.59375 108.14330 L684.57031 114.71515 L685.54688 110.64216 L686.52344 45.58784 L687.50000 0.00000 L688.47656 45.59600 L689.45313 110.64326 L690.42969 114.71462 L691.40625 108.14381 L692.38281 148.91074 L693.35938 174.86290 L694.33594 132.07892 L695.31250 98.52493 L696.28906 144.89294 L697.26563 199.99883 L698.24219 185.40265 L699.21875 154.58905 L700.19531 169.32832 L701.17188 171.32689 L702.14844 110.01156 L703.12500 65.68329 L704.10156 110.01468 L705.07813 171.32826 L706.05469 169.32726 L707.03125 154.58940 L708.00781 185.40434 L708.98438 199.99785 L709.96094 144.88991 L710.93750 98.52465 L711.91406 132.08141 L712.89063 174.86336 L713.86719 148.90858 L714.84375 108.14307 L715.82031 114.71539 L716.79688 110.64458 L717.77344 45.59277 L718.75000 0.00000 L719.72656 45.59108 L720.70313 110.64375 L721.67969 114.71439 L722.65625 108.14404 L723.63281 148.91139 L724.60938 174.86276 L725.58594 132.07816 L726.56250 98.52501 L727.53906 144.89386 L728.51563 199.99913 L729.49219 185.40211 L730.46875 154.58894 L731.44531 169.32864 L732.42188 171.32648 L733.39844 110.01060 L734.37500 65.68329 L735.35156 110.01564 L736.32813 171.32869 L737.30469 169.32693 L738.28125 154.58951 L739.25781 185.40486 L740.23438 199.99756 L741.21094 144.88898 L742.18750 98.52457 L743.16406 132.08217 L744.14063 174.86266 L745.11719 148.91187 L746.09375 108.14420 L747.07031 114.71423 L748.04688 110.64409 L749.02344 45.59177 L750.00000 0.00000 L750.97656 45.59206 L751.95313 110.64423 L752.92969 114.71416 L753.90625 108.14426 L754.88281 148.91206 L755.85938 174.86261 L756.83594 132.07739 L757.81250 98.52509 L758.78906 144.89479 L759.76563 199.99942 L760.74219 185.40160 L761.71875 154.58884 L762.69531 169.32898 L763.67188 171.32605 L764.64844 110.00964 L765.62500 65.68329 L766.60156 110.01659 L767.57813 171.32912 L768.55469 169.32661 L769.53125 154.58961 L770.50781 185.40228 L771.48438 199.99902 L772.46094 144.89359 L773.43750 98.52499 L774.41406 132.07838 L775.39063 174.86279 L776.36719 148.91121 L777.34375 108.14397 L778.32031 114.71446 L779.29688 110.64360 L780.27344 45.59078 L781.25000 0.00000 L782.22656 45.59306 L783.20313 110.64472 L784.17969 114.71393 L785.15625 108.14449 L786.13281 148.91272 L787.10938 174.86247 L788.08594 132.07663 L789.06250 98.52518 L790.03906 144.89572 L791.01563 199.99971 L791.99219 185.40108 L792.96875 154.58871 L793.94531 169.32930 L794.92188 171.32562 L795.89844 110.00868 L796.87500 65.68329 L797.85156 110.01184 L798.82813 171.32701 L799.80469 169.32823 L800.78125 154.58908 L801.75781 185.40280 L802.73438 199.99873 L803.71094 144.89267 L804.68750 98.52490 L805.66406 132.07915 L806.64063 174.86293 L807.61719 148.91054 L808.59375 108.14374 L809.57031 114.71469 L810.54688 110.64312 L811.52344 45.58979 L812.50000 0.00000 L813.47656 45.59405 L814.45313 110.64521 L815.42969 114.71369 L816.40625 108.14471 L817.38281 148.91338 L818.35938 174.86234 L819.33594 132.07587 L820.31250 98.52526 L821.28906 144.89665 L822.26563 200.00000 L823.24219 185.40056 L824.21875 154.58861 L825.19531 169.32768 L826.17188 171.32771 L827.14844 110.01344 L828.12500 65.68329 L829.10156 110.01280 L830.07813 171.32744 L831.05469 169.32790 L832.03125 154.58919 L833.00781 185.40332 L833.98438 199.99844 L834.96094 144.89174 L835.93750 98.52482 L836.91406 132.07991 L837.89063 174.86308 L838.86719 148.90988 L839.84375 108.14351 L840.82031 114.71493 L841.79688 110.64263 L842.77344 45.58880 L843.75000 0.00000 L844.72656 45.59504 L845.70313 110.64570 L846.67969 114.71346 L847.65625 108.14494 L848.63281 148.91403 L849.60938 174.86220 L850.58594 132.07510 L851.56250 98.52484 L852.53906 144.89204 L853.51563 199.99854 L854.49219 185.40314 L855.46875 154.58916 L856.44531 169.32800 L857.42188 171.32730 L858.39844 110.01247 L859.37500 65.68329 L860.35156 110.01376 L861.32813 171.32787 L862.30469 169.32758 L863.28125 154.58929 L864.25781 185.40384 L865.23438 199.99814 L866.21094 144.89081 L867.18750 98.52473 L868.16406 132.08067 L869.14063 174.86322 L870.11719 148.90923 L871.09375 108.14328 L872.07031 114.71516 L873.04688 110.64214 L874.02344 45.58781 L875.00000 0.00000 L875.97656 45.59603 L876.95313 110.64619 L877.92969 114.71323 L878.90625 108.14381 L879.88281 148.91077 L880.85938 174.86288 L881.83594 132.07889 L882.81250 98.52493 L883.78906 144.89297 L884.76563 199.99884 L885.74219 185.40262 L886.71875 154.58904 L887.69531 169.32834 L888.67188 171.32687 L889.64844 110.01152 L890.62500 65.68329 L891.60156 110.01471 L892.57813 171.32829 L893.55469 169.32726 L894.53125 154.58940 L895.50781 185.40436 L896.48438 199.99785 L897.46094 144.88988 L898.43750 98.52465 L899.41406 132.08144 L900.39063 174.86336 L901.36719 148.90857 L902.34375 108.14306 L903.32031 114.71539 L904.29688 110.64165 L905.27344 45.58682 L906.25000 0.00000 L907.22656 45.59111 L908.20313 110.64377 L909.17969 114.71439 L910.15625 108.14404 L911.13281 148.91142 L912.10938 174.86275 L913.08594 132.07813 L914.06250 98.52501 L915.03906 144.89391 L916.01563 199.99913 L916.99219 185.40210 L917.96875 154.58893 L918.94531 169.32866 L919.92188 171.32645 L920.89844 110.01056 L921.87500 65.68329 L922.85156 110.01567 L923.82813 171.32870 L924.80469 169.32692 L925.78125 154.58951 L926.75781 185.40488 L927.73438 199.99756 L928.71094 144.88895 L929.68750 98.52456 L930.66406 132.08220 L931.64063 174.86349 L932.61719 148.91183 L933.59375 108.14419 L934.57031 114.71424 L935.54688 110.64407 L936.52344 45.59174 L937.50000 0.00000 L938.47656 45.59210 L939.45313 110.64426 L940.42969 114.71415 L941.40625 108.14427 L942.38281 148.91208 L943.35938 174.86261 L944.33594 132.07736 L945.31250 98.52510 L946.28906 144.89484 L947.26563 199.99944 L948.24219 185.40158 L949.21875 154.58882 L950.19531 169.32899 L951.17188 171.32603 L952.14844 110.00960 L953.12500 65.68329 L954.10156 110.01663 L955.07813 171.32913 L956.05469 169.32660 L957.03125 154.58961 L958.00781 185.40540 L958.98438 199.99725 L959.96094 144.89355 L960.93750 98.52498 L961.91406 132.07841 L962.89063 174.86281 L963.86719 148.91118 L964.84375 108.14396 L965.82031 114.71447 L966.79688 110.64359 L967.77344 45.59074 L968.75000 0.00000 L969.72656 45.59309 L970.70313 110.64474 L971.67969 114.71392 L972.65625 108.14450 L973.63281 148.91275 L974.60938 174.86247 L975.58594 132.07660 L976.56250 98.52518 L977.53906 144.89575 L978.51563 199.99973 L979.49219 185.40106 L980.46875 154.58871 L981.44531 169.32932 L982.42188 171.32561 L983.39844 110.00864 L984.37500 65.68329 L985.35156 110.01759 L986.32813 171.32956 L987.30469 169.32822 L988.28125 154.58908 L989.25781 185.40282 L990.23438 199.99872 L991.21094 144.89262 L992.18750 98.52489 L993.16406 132.07918 L994.14063 174.86295 L995.11719 148.91052 L996.09375 108.14373 L997.07031 114.71471 L998.04688 110.64310 L999.02344 45.58976" /><path fill="none" stroke="#000000" d="M0 300.00000  L0.00000 300.00000  L0.97656 300.00000  L1.95313 300.00000  L2.92969 300.00000  L3.90625 300.00000  L4.88281 300.00000  L5.85938 300.00000  L6.83594 300.00000  L7.81250 300.00000  L8.78906 300.00000  L9.76563 300.00000  L10.74219 300.00000  L11.71875 300.00000  L12.69531 300.00000  L13.67188 300.00000  L14.64844 300.00000  L15.62500 300.00000  L16.60156 300.00000  L17.57813 300.00000  L18.55469 300.00000  L19.53125 300.00000  L20.50781 300.00000  L21.48438 300.00000  L22.46094 300.00000  L23.43750 300.00000  L24.41406 300.00000  L25.39063 300.00000  L26.36719 300.00000  L27.34375 300.00000  L28.32031 300.00000  L29.29688 300.00000  L30.27344 300.00000  L31.25000 300.00000  L32.22656 300.00000  L33.20313 300.00000  L34.17969 300.00000  L35.15625 300.00000  L36.13281 300.00000  L37.10938 300.00000  L38.08594 300.00000  L39.06250 300.00000  L40.03906 300.00000  L41.01563 300.00000  L41.99219 300.00000  L42.96875 300.00000  L43.94531 300.00000  L44.92188 300.00000  L45.89844 300.00000  L46.87500 300.00000  L47.85156 300.00000  L48.82813 300.00000  L49.80469 300.00000  L50.78125 300.00000  L51.75781 300.00000  L52.73438 300.00000  L53.71094 300.00000  L54.68750 300.00000  L55.66406 300.00000  L56.64063 300.00000  L57.61719 300.00000  L58.59375 300.00000  L59.57031 300.00000  L60.54688 300.00000  L61.52344 300.00000  L62.50000 300.00000  L63.47656 300.00000  L64.45313 300.00000  L65.42969 300.00000  L66.40625 300.00000  L67.38281 300.00000  L68.35938 300.00000  L69.33594 300.00000  L70.31250 300.00000  L71.28906 300.00000  L72.26563 300.00000  L73.24219 300.00000  L74.21875 300.00000  L75.19531 300.00000  L76.17188 300.00000  L77.14844 300.00000  L78.12500 300.00000  L79.10156 300.00000  L80.07813 300.00000  L81.05469 300.00000  L82.03125 300.00000  L83.00781 300.00000  L83.98438 300.00000  L84.96094 300.00000  L85.93750 300.00000  L86.91406 300.00000  L87.89063 300.00000  L88.86719 300.00000  L89.84375 300.00000  L90.82031 300.00000  L91.79688 300.00000  L92.77344 300.00000  L93.75000 300.00000  L94.72656 300.00000  L95.70313 300.00000  L96.67969 300.00000  L97.65625 300.00000  L98.63281 300.00000  L99.60938 300.00000  L100.58594 300.00000  L101.56250 300.00000  L102.53906 300.00000  L103.51563 300.00000  L104.49219 300.00000  L105.46875 300.00000  L106.44531 300.00000  L107.42188 300.00000  L108.39844 300.00000  L109.37500 300.00000  L110.35156 300.00000  L111.32813 300.00000  L112.30469 300.00000  L113.28125 300.00000  L114.25781 300.00000  L115.23438 300.00000  L116.21094 300.00000  L117.18750 300.00000  L118.16406 300.00000  L119.14063 300.00000  L120.11719 300.00000  L121.09375 300.00000  L122.07031 300.00000  L123.04688 300.00000  L124.02344 300.00000  L125.00000 300.00000  L125.97656 300.00000  L126.95313 300.00000  L127.92969 300.00000  L128.90625 300.00000  L129.88281 300.00000  L130.85938 300.00000  L131.83594 300.00000  L132.81250 300.00000  L133.78906 300.00000  L134.76563 300.00000  L135.74219 300.00000  L136.71875 300.00000  L137.69531 300.00000  L138.67188 300.00000  L139.64844 300.00000  L140.62500 300.00000  L141.60156 300.00000  L142.57813 300.00000  L143.55469 300.00000  L144.53125 300.00000  L145.50781 300.00000  L146.48438 300.00000  L147.46094 300.00000  L148.43750 300.00000  L149.41406 300.00000  L150.39063 300.00000  L151.36719 300.00000  L152.34375 300.00000  L153.32031 300.00000  L154.29688 300.00000  L155.27344 300.00000  L156.25000 300.00000  L157.22656 300.00000  L158.20313 300.00000  L159.17969 300.00000  L160.15625 300.00000  L161.13281 300.00000  L162.10938 300.00000  L163.08594 300.00000  L164.06250 300.00000  L165.03906 300.00000  L166.01563 300.00000  L166.99219 300.00000  L167.96875 300.00000  L168.94531 300.00000  L169.92188 300.00000  L170.89844 300.00000  L171.87500 300.00000  L172.85156 300.00000  L173.82813 300.00000  L174.80469 300.00000  L175.78125 300.00000  L176.75781 300.00000  L177.73438 300.00000  L178.71094 300.00000  L179.68750 300.00000  L180.66406 300.00000  L181.64063 300.00000  L182.61719 300.00000  L183.59375 300.00000  L184.57031 300.00000  L185.54688 300.00000  L186.52344 300.00000  L187.50000 300.00000  L188.47656 300.00000  L189.45313 300.00000  L190.42969 300.00000  L191.40625 300.00000  L192.38281 300.00000  L193.35938 300.00000  L194.33594 300.00000  L195.31250 300.00000  L196.28906 300.00000  L197.26563 300.00000  L198.24219 300.00000  L199.21875 300.00000  L200.19531 300.00000  L201.17188 300.00000  L202.14844 300.00000  L203.12500 300.00000  L204.10156 300.00000  L205.07813 300.00000  L206.05469 300.00000  L207.03125 300.00000  L208.00781 300.00000  L208.98438 300.00000  L209.96094 300.00000  L210.93750 300.00000  L211.91406 300.00000  L212.89063 300.00000  L213.86719 300.00000  L214.84375 300.00000  L215.82031 300.00000  L216.79688 300.00000  L217.77344 300.00000  L218.75000 300.00000  L219.72656 300.00000  L220.70313 300.00000  L221.67969 300.00000  L222.65625 300.00000  L223.63281 300.00000  L224.60938 300.00000  L225.58594 300.00000  L226.56250 300.00000  L227.53906 300.00000  L228.51563 300.00000  L229.49219 300.00000  L230.46875 300.00000  L231.44531 300.00000  L232.42188 300.00000  L233.39844 300.00000  L234.37500 300.00000  L235.35156 300.00000  L236.32813 300.00000  L237.30469 300.00000  L238.28125 300.00000  L239.25781 300.00000  L240.23438 300.00000  L241.21094 300.00000  L242.18750 300.00000  L243.16406 300.00000  L244.14063 300.00000  L245.11719 300.00000  L246.09375 300.00000  L247.07031 300.00000  L248.04688 300.00000  L249.02344 300.00000  L250.00000 300.00000  L250.97656 300.00000  L251.95313 300.00000  L252.92969 300.00000  L253.90625 300.00000  L254.88281 300.00000  L255.85938 300.00000  L256.83594 300.00000  L257.81250 300.00000  L258.78906 300.00000  L259.76563 300.00000  L260.74219 300.00000  L261.71875 300.00000  L262.69531 300.00000  L263.67188 300.00000  L264.64844 300.00000  L265.62500 300.00000  L266.60156 300.00000  L267.57813 300.00000  L268.55469 300.00000  L269.53125 300.00000  L270.50781 300.00000  L271.48438 300.00000  L272.46094 300.00000  L273.43750 300.00000  L274.41406 300.00000  L275.39063 300.00000  L276.36719 300.00000  L277.34375 300.00000  L278.32031 300.00000  L279.29688 300.00000  L280.27344 300.00000  L281.25000 300.00000  L282.22656 300.00000  L283.20313 300.00000  L284.17969 300.00000  L285.15625 300.00000  L286.13281 300.00000  L287.10938 300.00000  L288.08594 300.00000  L289.06250 300.00000  L290.03906 300.00000  L291.01563 300.00000  L291.99219 300.00000  L292.96875 300.00000  L293.94531 300.00000  L294.92188 300.00000  L295.89844 300.00000  L296.87500 300.00000  L297.85156 300.00000  L298.82813 300.00000  L299.80469 300.00000  L300.78125 300.00000  L301.75781 300.00000  L302.73438 300.00000  L303.71094 300.00000  L304.68750 300.00000  L305.66406 300.00000  L306.64063 300.00000  L307.61719 300.00000  L308.59375 300.00000  L309.57031 300.00000  L310.54688 300.00000  L311.52344 300.00000  L312.50000 300.00000  L313.47656 300.00000  L314.45313 300.00000  L315.42969 300.00000  L316.40625 300.00000  L317.38281 300.00000  L318.35938 300.00000  L319.33594 300.00000  L320.31250 300.00000  L321.28906 300.00000  L322.26563 300.00000  L323.24219 300.00000  L324.21875 300.00000  L325.19531 300.00000  L326.17188 300.00000  L327.14844 300.00000  L328.12500 300.00000  L329.10156 300.00000  L330.07813 300.00000  L331.05469 300.00000  L332.03125 300.00000  L333.00781 300.00000  L333.98438 300.00000  L334.96094 300.00000  L335.93750 300.00000  L336.91406 300.00000  L337.89063 300.00000  L338.86719 300.00000  L339.84375 300.00000  L340.82031 300.00000  L341.79688 300.00000  L342.77344 300.00000  L343.75000 300.00000  L344.72656 300.00000  L345.70313 300.00000  L346.67969 300.00000  L347.65625 300.00000  L348.63281 300.00000  L349.60938 300.00000  L350.58594 300.00000  L351.56250 300.00000  L352.53906 300.00000  L353.51563 300.00000  L354.49219 300.00000  L355.46875 300.00000  L356.44531 300.00000  L357.42188 300.00000  L358.39844 300.00000  L359.37500 300.00000  L360.35156 300.00000  L361.32813 300.00000  L362.30469 300.00000  L363.28125 300.00000  L364.25781 300.00000  L365.23438 300.00000  L366.21094 300.00000  L367.18750 300.00000  L368.16406 300.00000  L369.14063 300.00000  L370.11719 300.00000  L371.09375 300.00000  L372.07031 300.00000  L373.04688 300.00000  L374.02344 300.00000  L375.00000 300.00000  L375.97656 300.00000  L376.95313 300.00000  L377.92969 300.00000  L378.90625 300.00000  L379.88281 300.00000  L380.85938 300.00000  L381.83594 300.00000  L382.81250 300.00000  L383.78906 300.00000  L384.76563 300.00000  L385.74219 300.00000  L386.71875 300.00000  L387.69531 300.00000  L388.67188 300.00000  L389.64844 300.00000  L390.62500 300.00000  L391.60156 300.00000  L392.57813 300.00000  L393.55469 300.00000  L394.53125 300.00000  L395.50781 300.00000  L396.48438 300.00000  L397.46094 300.00000  L398.43750 300.00000  L399.41406 300.00000  L400.39063 300.00000  L401.36719 300.00000  L402.34375 300.00000  L403.32031 300.00000  L404.29688 300.00000  L405.27344 300.00000  L406.25000 300.00000  L407.22656 300.00000  L408.20313 300.00000  L409.17969 300.00000  L410.15625 300.00000  L411.13281 300.00000  L412.10938 300.00000  L413.08594 300.00000  L414.06250 300.00000  L415.03906 300.00000  L416.01563 300.00000  L416.99219 300.00000  L417.96875 300.00000  L418.94531 300.00000  L419.92188 300.00000  L420.89844 300.00000  L421.87500 300.00000  L422.85156 300.00000  L423.82813 300.00000  L424.80469 300.00000  L425.78125 300.00000  L426.75781 300.00000  L427.73438 300.00000  L428.71094 300.00000  L429.68750 300.00000  L430.66406 300.00000  L431.64063 300.00000  L432.61719 300.00000  L433.59375 300.00000  L434.57031 300.00000  L435.54688 300.00000  L436.52344 300.00000  L437.50000 300.00000  L438.47656 300.00000  L439.45313 300.00000  L440.42969 300.00000  L441.40625 300.00000  L442.38281 300.00000  L443.35938 300.00000  L444.33594 300.00000  L445.31250 300.00000  L446.28906 300.00000  L447.26563 300.00000  L448.24219 300.00000  L449.21875 300.00000  L450.19531 300.00000  L451.17188 300.00000  L452.14844 300.00000  L453.12500 300.00000  L454.10156 300.00000  L455.07813 300.00000  L456.05469 300.00000  L457.03125 300.00000  L458.00781 300.00000  L458.98438 300.00000  L459.96094 300.00000  L460.93750 300.00000  L461.91406 300.00000  L462.89063 300.00000  L463.86719 300.00000  L464.84375 300.00000  L465.82031 300.00000  L466.79688 300.00000  L467.77344 300.00000  L468.75000 300.00000  L469.72656 300.00000  L470.70313 300.00000  L471.67969 300.00000  L472.65625 300.00000  L473.63281 300.00000  L474.60938 300.00000  L475.58594 300.00000  L476.56250 300.00000  L477.53906 300.00000  L478.51563 300.00000  L479.49219 300.00000  L480.46875 300.00000  L481.44531 300.00000  L482.42188 300.00000  L483.39844 300.00000  L484.37500 300.00000  L485.35156 300.00000  L486.32813 300.00000  L487.30469 300.00000  L488.28125 300.00000  L489.25781 300.00000  L490.23438 300.00000  L491.21094 300.00000  L492.18750 300.00000  L493.16406 300.00000  L494.14063 300.00000  L495.11719 300.00000  L496.09375 300.00000  L497.07031 300.00000  L498.04688 300.00000  L499.02344 300.00000  L500.00000 300.00000  L500.97656 300.00000  L501.95313 300.00000  L502.92969 300.00000  L503.90625 300.00000  L504.88281 300.00000  L505.85938 300.00000  L506.83594 300.00000  L507.81250 300.00000  L508.78906 300.00000  L509.76563 300.00000  L510.74219 300.00000  L511.71875 300.00000  L512.69531 300.00000  L513.67188 300.00000  L514.64844 300.00000  L515.62500 300.00000  L516.60156 300.00000  L517.57813 300.00000  L518.55469 300.00000  L519.53125 300.00000  L520.50781 300.00000  L521.48438 300.00000  L522.46094 300.00000  L523.43750 300.00000  L524.41406 300.00000  L525.39063 300.00000  L526.36719 300.00000  L527.34375 300.00000  L528.32031 300.00000  L529.29688 300.00000  L530.27344 300.00000  L531.25000 300.00000  L532.22656 300.00000  L533.20313 300.00000  L534.17969 300.00000  L535.15625 300.00000  L536.13281 300.00000  L537.10938 300.00000  L538.08594 300.00000  L539.06250 300.00000  L540.03906 300.00000  L541.01563 300.00000  L541.99219 300.00000  L542.96875 300.00000  L543.94531 300.00000  L544.92188 300.00000  L545.89844 300.00000  L546.87500 300.00000  L547.85156 300.00000  L548.82813 300.00000  L549.80469 300.00000  L550.78125 300.00000  L551.75781 300.00000  L552.73438 300.00000  L553.71094 300.00000  L554.68750 300.00000  L555.66406 300.00000  L556.64063 300.00000  L557.61719 300.00000  L558.59375 300.00000  L559.57031 300.00000  L560.54688 300.00000  L561.52344 300.00000  L562.50000 300.00000  L563.47656 300.00000  L564.45313 300.00000  L565.42969 300.00000  L566.40625 300.00000  L567.38281 300.00000  L568.35938 300.00000  L569.33594 300.00000  L570.31250 300.00000  L571.28906 300.00000  L572.26563 300.00000  L573.24219 300.00000  L574.21875 300.00000  L575.19531 300.00000  L576.17188 300.00000  L577.14844 300.00000  L578.12500 300.00000  L579.10156 300.00000  L580.07813 300.00000  L581.05469 300.00000  L582.03125 300.00000  L583.00781 300.00000  L583.98438 300.00000  L584.96094 300.00000  L585.93750 300.00000  L586.91406 300.00000  L587.89063 300.00000  L588.86719 300.00000  L589.84375 300.00000  L590.82031 300.00000  L591.79688 300.00000  L592.77344 300.00000  L593.75000 300.00000  L594.72656 300.00000  L595.70313 300.00000  L596.67969 300.00000  L597.65625 300.00000  L598.63281 300.00000  L599.60938 300.00000  L600.58594 300.00000  L601.56250 300.00000  L602.53906 300.00000  L603.51563 300.00000  L604.49219 300.00000  L605.46875 300.00000  L606.44531 300.00000  L607.42188 300.00000  L608.39844 300.00000  L609.37500 300.00000  L610.35156 300.00000  L611.32813 300.00000  L612.30469 300.00000  L613.28125 300.00000  L614.25781 300.00000  L615.23438 300.00000  L616.21094 300.00000  L617.18750 300.00000  L618.16406 300.00000  L619.14063 300.00000  L620.11719 300.00000  L621.09375 300.00000  L622.07031 300.00000  L623.04688 300.00000  L624.02344 300.00000  L625.00000 300.00000  L625.97656 300.00000  L626.95313 300.00000  L627.92969 300.00000  L628.90625 300.00000  L629.88281 300.00000  L630.85938 300.00000  L631.83594 300.00000  L632.81250 300.00000  L633.78906 300.00000  L634.76563 300.00000  L635.74219 300.00000  L636.71875 300.00000  L637.69531 300.00000  L638.67188 300.00000  L639.64844 300.00000  L640.62500 300.00000  L641.60156 300.00000  L642.57813 300.00000  L643.55469 300.00000  L644.53125 300.00000  L645.50781 300.00000  L646.48438 300.00000  L647.46094 300.00000  L648.43750 300.00000  L649.41406 300.00000  L650.39063 300.00000  L651.36719 300.00000  L652.34375 300.00000  L653.32031 300.00000  L654.29688 300.00000  L655.27344 300.00000  L656.25000 300.00000  L657.22656 300.00000  L658.20313 300.00000  L659.17969 300.00000  L660.15625 300.00000  L661.13281 300.00000  L662.10938 300.00000  L663.08594 300.00000  L664.06250 300.00000  L665.03906 300.00000  L666.01563 300.00000  L666.99219 300.00000  L667.96875 300.00000  L668.94531 300.00000  L669.92188 300.00000  L670.89844 300.00000  L671.87500 300.00000  L672.85156 300.00000  L673.82813 300.00000  L674.80469 300.00000  L675.78125 300.00000  L676.75781 300.00000  L677.73438 300.00000  L678.71094 300.00000  L679.68750 300.00000  L680.66406 300.00000  L681.64063 300.00000  L682.61719 300.00000  L683.59375 300.00000  L684.57031 300.00000  L685.54688 300.00000  L686.52344 300.00000  L687.50000 300.00000  L688.47656 300.00000  L689.45313 300.00000  L690.42969 300.00000  L691.40625 300.00000  L692.38281 300.00000  L693.35938 300.00000  L694.33594 300.00000  L695.31250 300.00000  L696.28906 300.00000  L697.26563 300.00000  L698.24219 300.00000  L699.21875 300.00000  L700.19531 300.00000  L701.17188 300.00000  L702.14844 300.00000  L703.12500 300.00000  L704.10156 300.00000  L705.07813 300.00000  L706.05469 300.00000  L707.03125 300.00000  L708.00781 300.00000  L708.98438 300.00000  L709.96094 300.00000  L710.93750 300.00000  L711.91406 300.00000  L712.89063 300.00000  L713.86719 300.00000  L714.84375 300.00000  L715.82031 300.00000  L716.79688 300.00000  L717.77344 300.00000  L718.75000 300.00000  L719.72656 300.00000  L720.70313 300.00000  L721.67969 300.00000  L722.65625 300.00000  L723.63281 300.00000  L724.60938 300.00000  L725.58594 300.00000  L726.56250 300.00000  L727.53906 300.00000  L728.51563 300.00000  L729.49219 300.00000  L730.46875 300.00000  L731.44531 300.00000  L732.42188 300.00000  L733.39844 300.00000  L734.37500 300.00000  L735.35156 300.00000  L736.32813 300.00000  L737.30469 300.00000  L738.28125 300.00000  L739.25781 300.00000  L740.23438 300.00000  L741.21094 300.00000  L742.18750 300.00000  L743.16406 300.00000  L744.14063 300.00000  L745.11719 300.00000  L746.09375 300.00000  L747.07031 300.00000  L748.04688 300.00000  L749.02344 300.00000  L750.00000 300.00000  L750.97656 300.00000  L751.95313 300.00000  L752.92969 300.00000  L753.90625 300.00000  L754.88281 300.00000  L755.85938 300.00000  L756.83594 300.00000  L757.81250 300.00000  L758.78906 300.00000  L759.76563 300.00000  L760.74219 300.00000  L761.71875 300.00000  L762.69531 300.00000  L763.67188 300.00000  L764.64844 300.00000  L765.62500 300.00000  L766.60156 300.00000  L767.57813 300.00000  L768.55469 300.00000  L769.53125 300.00000  L770.50781 300.00000  L771.48438 300.00000  L772.46094 300.00000  L773.43750 300.00000  L774.41406 300.00000  L775.39063 300.00000  L776.36719 300.00000  L777.34375 300.00000  L778.32031 300.00000  L779.29688 300.00000  L780.27344 300.00000  L781.25000 300.00000  L782.22656 300.00000  L783.20313 300.00000  L784.17969 300.00000  L785.15625 300.00000  L786.13281 300.00000  L787.10938 300.00000  L788.08594 300.00000  L789.06250 300.00000  L790.03906 300.00000  L791.01563 300.00000  L791.99219 300.00000  L792.96875 300.00000  L793.94531 300.00000  L794.92188 300.00000  L795.89844 300.00000  L796.87500 300.00000  L797.85156 300.00000  L798.82813 300.00000  L799.80469 300.00000  L800.78125 300.00000  L801.75781 300.00000  L802.73438 300.00000  L803.71094 300.00000  L804.68750 300.00000  L805.66406 300.00000  L806.64063 300.00000  L807.61719 300.00000  L808.59375 300.00000  L809.57031 300.00000  L810.54688 300.00000  L811.52344 300.00000  L812.50000 300.00000  L813.47656 300.00000  L814.45313 300.00000  L815.42969 300.00000  L816.40625 300.00000  L817.38281 300.00000  L818.35938 300.00000  L819.33594 300.00000  L820.31250 300.00000  L821.28906 300.00000  L822.26563 300.00000  L823.24219 300.00000  L824.21875 300.00000  L825.19531 300.00000  L826.17188 300.00000  L827.14844 300.00000  L828.12500 300.00000  L829.10156 300.00000  L830.07813 300.00000  L831.05469 300.00000  L832.03125 300.00000  L833.00781 300.00000  L833.98438 300.00000  L834.96094 300.00000  L835.93750 300.00000  L836.91406 300.00000  L837.89063 300.00000  L838.86719 300.00000  L839.84375 300.00000  L840.82031 300.00000  L841.79688 300.00000  L842.77344 300.00000  L843.75000 300.00000  L844.72656 300.00000  L845.70313 300.00000  L846.67969 300.00000  L847.65625 300.00000  L848.63281 300.00000  L849.60938 300.00000  L850.58594 300.00000  L851.56250 300.00000  L852.53906 300.00000  L853.51563 300.00000  L854.49219 300.00000  L855.46875 300.00000  L856.44531 300.00000  L857.42188 300.00000  L858.39844 300.00000  L859.37500 300.00000  L860.35156 300.00000  L861.32813 300.00000  L862.30469 300.00000  L863.28125 300.00000  L864.25781 300.00000  L865.23438 300.00000  L866.21094 300.00000  L867.18750 300.00000  L868.16406 300.00000  L869.14063 300.00000  L870.11719 300.00000  L871.09375 300.00000  L872.07031 300.00000  L873.04688 300.00000  L874.02344 300.00000  L875.00000 300.00000  L875.97656 300.00000  L876.95313 300.00000  L877.92969 300.00000  L878.90625 300.00000  L879.88281 300.00000  L880.85938 300.00000  L881.83594 300.00000  L882.81250 300.00000  L883.78906 300.00000  L884.76563 300.00000  L885.74219 300.00000  L886.71875 300.00000  L887.69531 300.00000  L888.67188 300.00000  L889.64844 300.00000  L890.62500 300.00000  L891.60156 300.00000  L892.57813 300.00000  L893.55469 300.00000  L894.53125 300.00000  L895.50781 300.00000  L896.48438 300.00000  L897.46094 300.00000  L898.43750 300.00000  L899.41406 300.00000  L900.39063 300.00000  L901.36719 300.00000  L902.34375 300.00000  L903.32031 300.00000  L904.29688 300.00000  L905.27344 300.00000  L906.25000 300.00000  L907.22656 300.00000  L908.20313 300.00000  L909.17969 300.00000  L910.15625 300.00000  L911.13281 300.00000  L912.10938 300.00000  L913.08594 300.00000  L914.06250 300.00000  L915.03906 300.00000  L916.01563 300.00000  L916.99219 300.00000  L917.96875 300.00000  L918.94531 300.00000  L919.92188 300.00000  L920.89844 300.00000  L921.87500 300.00000  L922.85156 300.00000  L923.82813 300.00000  L924.80469 300.00000  L925.78125 300.00000  L926.75781 300.00000  L927.73438 300.00000  L928.71094 300.00000  L929.68750 300.00000  L930.66406 300.00000  L931.64063 300.00000  L932.61719 300.00000  L933.59375 300.00000  L934.57031 300.00000  L935.54688 300.00000  L936.52344 300.00000  L937.50000 300.00000  L938.47656 300.00000  L939.45313 300.00000  L940.42969 300.00000  L941.40625 300.00000  L942.38281 300.00000  L943.35938 300.00000  L944.33594 300.00000  L945.31250 300.00000  L946.28906 300.00000  L947.26563 300.00000  L948.24219 300.00000  L949.21875 300.00000  L950.19531 300.00000  L951.17188 300.00000  L952.14844 300.00000  L953.12500 300.00000  L954.10156 300.00000  L955.07813 300.00000  L956.05469 300.00000  L957.03125 300.00000  L958.00781 300.00000  L958.98438 300.00000  L959.96094 300.00000  L960.93750 300.00000  L961.91406 300.00000  L962.89063 300.00000  L963.86719 300.00000  L964.84375 300.00000  L965.82031 300.00000  L966.79688 300.00000  L967.77344 300.00000  L968.75000 300.00000  L969.72656 300.00000  L970.70313 300.00000  L971.67969 300.00000  L972.65625 300.00000  L973.63281 300.00000  L974.60938 300.00000  L975.58594 300.00000  L976.56250 300.00000  L977.53906 300.00000  L978.51563 300.00000  L979.49219 300.00000  L980.46875 300.00000  L981.44531 300.00000  L982.42188 300.00000  L983.39844 300.00000  L984.37500 300.00000  L985.35156 300.00000  L986.32813 300.00000  L987.30469 300.00000  L988.28125 300.00000  L989.25781 300.00000  L990.23438 300.00000  L991.21094 300.00000  L992.18750 300.00000  L993.16406 300.00000  L994.14063 300.00000  L995.11719 300.00000  L996.09375 300.00000  L997.07031 300.00000  L998.04688 300.00000  L999.02344 300.00000 " /></g><text x="1000.00000" dx="10" y="131.36658">[-2.08983;4.00000]</text><text x="1000.00000" dx="10" y="300.00000">[-0.00000;0.00000]</text></svg>