<svg xmlns="http://www.w3.org/2000/svg" version="1.1"><g stroke-width="0.6"><path fill="none" stroke="#000000" d="M0 199.99995 L1000.00000 199.99995" /><path fill="none" stroke="#000000" d="M0 300.07410 L1000.00000 300.07410" /><path fill="none" stroke="#000000" d="M500.00000 0 L500.00000 400.00000" /><path fill="none" stroke="#550000" d="M0 350.11115 L1000.00000 350.11115" /><path fill="none" stroke="#550000" d="M0 300.07410 L1000.00000 300.07410" /><path fill="none" stroke="#550000" d="M0 250.03705 L1000.00000 250.03705" /><path fill="none" stroke="#000000" d="M0 199.99995  L0.00000 194.84427 L0.97656 194.74146 L1.95313 194.42419 L2.92969 193.86168 L3.90625 192.98880 L4.88281 191.67467 L5.85938 189.65138 L6.83594 186.30194 L7.81250 179.89253 L8.78906 163.07162 L9.76563 5.87565 L10.74219 137.62207 L11.71875 172.60042 L12.69531 182.23744 L13.67188 186.75429 L14.64844 189.37912 L15.62500 191.09779 L16.60156 192.31267 L17.57813 193.21843 L18.55469 193.92107 L19.53125 194.48296 L20.50781 194.94315 L21.48438 195.32748 L22.46094 195.65347 L23.43750 195.93387 L24.41406 196.17786 L25.39063 196.39262 L26.36719 196.58261 L27.34375 196.75221 L28.32031 196.90489 L29.29688 197.04256 L30.27344 197.16753 L31.25000 197.28163 L32.22656 197.38614 L33.20313 197.48212 L34.17969 197.57051 L35.15625 197.65218 L36.13281 197.72784 L37.10938 197.79782 L38.08594 197.86322 L39.06250 197.92374 L40.03906 197.98007 L41.01563 198.03247 L41.99219 198.08119 L42.96875 198.12648 L43.94531 198.16859 L44.92188 198.20760 L45.89844 198.24376 L46.87500 198.27701 L47.85156 198.30765 L48.82813 198.33545 L49.80469 198.36084 L50.78125 198.38353 L51.75781 198.40369 L52.73438 198.42134 L53.71094 198.43625 L54.68750 198.44908 L55.66406 198.45883 L56.64063 198.46597 L57.61719 198.46968 L58.59375 198.47227 L59.57031 198.46991 L60.54688 198.46584 L61.52344 198.45856 L62.50000 198.44791 L63.47656 198.43373 L64.45313 198.41570 L65.42969 198.39400 L66.40625 198.36835 L67.38281 198.33849 L68.35938 198.30380 L69.33594 198.26445 L70.31250 198.21971 L71.28906 198.16937 L72.26563 198.11304 L73.24219 198.05000 L74.21875 197.97946 L75.19531 197.90111 L76.17188 197.81393 L77.14844 197.71713 L78.12500 197.60918 L79.10156 197.48877 L80.07813 197.35439 L81.05469 197.20404 L82.03125 197.03520 L83.00781 196.84474 L83.98438 196.62875 L84.96094 196.38257 L85.93750 196.10037 L86.91406 195.77402 L87.89063 195.39302 L88.86719 194.94243 L89.84375 194.40335 L90.82031 193.74687 L91.79688 192.93184 L92.77344 191.89413 L93.75000 190.52934 L94.72656 188.65587 L95.70313 185.92734 L96.67969 181.58910 L97.65625 173.63007 L98.63281 154.29134 L99.60938 38.22748 L100.58594 90.93433 L101.56250 158.63699 L102.53906 174.25620 L103.51563 181.19502 L104.49219 185.11456 L105.46875 187.63252 L106.44531 189.38586 L107.42188 190.67628 L108.39844 191.66542 L109.37500 192.44751 L110.35156 193.08119 L111.32813 193.60461 L112.30469 194.04416 L113.28125 194.41829 L114.25781 194.74045 L115.23438 195.02071 L116.21094 195.26649 L117.18750 195.48366 L118.16406 195.67683 L119.14063 195.84966 L120.11719 196.00531 L121.09375 196.14575 L122.07031 196.27325 L123.04688 196.38942 L124.02344 196.49553 L125.00000 196.59285 L125.97656 196.68219 L126.95313 196.76427 L127.92969 196.84048 L128.90625 196.91064 L129.88281 196.97572 L130.85938 197.03587 L131.83594 197.09221 L132.81250 197.14413 L133.78906 197.19243 L134.76563 197.23750 L135.74219 197.27933 L136.71875 197.31837 L137.69531 197.35489 L138.67188 197.38840 L139.64844 197.41966 L140.62500 197.44859 L141.60156 197.47556 L142.57813 197.50047 L143.55469 197.52344 L144.53125 197.54456 L145.50781 197.56374 L146.48438 197.58128 L147.46094 197.59721 L148.43750 197.61147 L149.41406 197.62408 L150.39063 197.63501 L151.36719 197.64445 L152.34375 197.65248 L153.32031 197.65897 L154.29688 197.66402 L155.27344 197.66719 L156.25000 197.66878 L157.22656 197.66937 L158.20313 197.66789 L159.17969 197.66501 L160.15625 197.66063 L161.13281 197.65433 L162.10938 197.64601 L163.08594 197.63612 L164.06250 197.62408 L165.03906 197.61000 L166.01563 197.59383 L166.99219 197.57530 L167.96875 197.55437 L168.94531 197.53119 L169.92188 197.50394 L170.89844 197.47383 L171.87500 197.44048 L172.85156 197.40395 L173.82813 197.36354 L174.80469 197.31857 L175.78125 197.26845 L176.75781 197.21257 L177.73438 197.15060 L178.71094 197.08170 L179.68750 197.00484 L180.66406 196.91864 L181.64063 196.82182 L182.61719 196.71269 L183.59375 196.58916 L184.57031 196.44839 L185.54688 196.28699 L186.52344 196.10043 L187.50000 195.88298 L188.47656 195.62704 L189.45313 195.32132 L190.42969 194.95148 L191.40625 194.49512 L192.38281 193.91910 L193.35938 193.17091 L194.33594 192.16139 L195.31250 190.72736 L196.28906 188.53375 L197.26563 184.76694 L198.24219 176.80511 L199.21875 148.91727 L200.19531 0.00001 L201.17188 167.37653 L202.14844 182.58466 L203.12500 188.28267 L204.10156 191.26350 L205.07813 193.09494 L206.05469 194.33311 L207.03125 195.22514 L208.00781 195.89777 L208.98438 196.42249 L209.96094 196.84291 L210.93750 197.18681 L211.91406 197.47322 L212.89063 197.71501 L213.86719 197.92186 L214.84375 198.10052 L215.82031 198.25624 L216.79688 198.39299 L217.77344 198.51379 L218.75000 198.62132 L219.72656 198.71739 L220.70313 198.80391 L221.67969 198.88176 L222.65625 198.95215 L223.63281 199.01633 L224.60938 199.07460 L225.58594 199.12802 L226.56250 199.17688 L227.53906 199.22169 L228.51563 199.26291 L229.49219 199.30069 L230.46875 199.33559 L231.44531 199.36836 L232.42188 199.39787 L233.39844 199.42549 L234.37500 199.45107 L235.35156 199.47458 L236.32813 199.49644 L237.30469 199.51672 L238.28125 199.53554 L239.25781 199.55293 L240.23438 199.56897 L241.21094 199.58386 L242.18750 199.59753 L243.16406 199.61046 L244.14063 199.62224 L245.11719 199.63315 L246.09375 199.64310 L247.07031 199.65224 L248.04688 199.66083 L249.02344 199.66858 L250.00000 199.67578 L250.97656 199.68237 L251.95313 199.68832 L252.92969 199.69406 L253.90625 199.69896 L254.88281 199.70357 L255.85938 199.70750 L256.83594 199.71138 L257.81250 199.71480 L258.78906 199.71783 L259.76563 199.72067 L260.74219 199.72305 L261.71875 199.72539 L262.69531 199.72743 L263.67188 199.72928 L264.64844 199.73087 L265.62500 199.73219 L266.60156 199.73337 L267.57813 199.73451 L268.55469 199.73560 L269.53125 199.73651 L270.50781 199.73703 L271.48438 199.73738 L272.46094 199.73770 L273.43750 199.73798 L274.41406 199.73848 L275.39063 199.73882 L276.36719 199.73906 L277.34375 199.73915 L278.32031 199.73909 L279.29688 199.73932 L280.27344 199.73921 L281.25000 199.73918 L282.22656 199.73917 L283.20313 199.73854 L284.17969 199.73921 L285.15625 199.73917 L286.13281 199.73862 L287.10938 199.73822 L288.08594 199.73828 L289.06250 199.73795 L290.03906 199.73775 L291.01563 199.73749 L291.99219 199.73712 L292.96875 199.73701 L293.94531 199.73666 L294.92188 199.73659 L295.89844 199.73633 L296.87500 199.73596 L297.85156 199.73569 L298.82813 199.73532 L299.80469 199.73518 L300.78125 199.73495 L301.75781 199.73468 L302.73438 199.73448 L303.71094 199.73421 L304.68750 199.73404 L305.66406 199.73369 L306.64063 199.73346 L307.61719 199.73315 L308.59375 199.73296 L309.57031 199.73291 L310.54688 199.73264 L311.52344 199.73236 L312.50000 199.73187 L313.47656 199.73160 L314.45313 199.73189 L315.42969 199.73120 L316.40625 199.73087 L317.38281 199.73132 L318.35938 199.73105 L319.33594 199.73076 L320.31250 199.73076 L321.28906 199.73044 L322.26563 199.73048 L323.24219 199.73029 L324.21875 199.73016 L325.19531 199.73004 L326.17188 199.72981 L327.14844 199.72997 L328.12500 199.72963 L329.10156 199.72954 L330.07813 199.72939 L331.05469 199.72932 L332.03125 199.72935 L333.00781 199.72922 L333.98438 199.72920 L334.96094 199.72908 L335.93750 199.72897 L336.91406 199.72885 L337.89063 199.72884 L338.86719 199.72874 L339.84375 199.72870 L340.82031 199.72864 L341.79688 199.72861 L342.77344 199.72865 L343.75000 199.72862 L344.72656 199.72868 L345.70313 199.72868 L346.67969 199.72847 L347.65625 199.72829 L348.63281 199.72849 L349.60938 199.72842 L350.58594 199.72838 L351.56250 199.72842 L352.53906 199.72839 L353.51563 199.72852 L354.49219 199.72823 L355.46875 199.72830 L356.44531 199.72832 L357.42188 199.72873 L358.39844 199.72829 L359.37500 199.72884 L360.35156 199.72862 L361.32813 199.72852 L362.30469 199.72847 L363.28125 199.72862 L364.25781 199.72873 L365.23438 199.72878 L366.21094 199.72868 L367.18750 199.72868 L368.16406 199.72861 L369.14063 199.72879 L370.11719 199.72879 L371.09375 199.72882 L372.07031 199.72887 L373.04688 199.72885 L374.02344 199.72905 L375.00000 199.72903 L375.97656 199.72919 L376.95313 199.72920 L377.92969 199.72913 L378.90625 199.72916 L379.88281 199.72929 L380.85938 199.72937 L381.83594 199.72942 L382.81250 199.72935 L383.78906 199.72972 L384.76563 199.72968 L385.74219 199.72946 L386.71875 199.72958 L387.69531 199.72975 L388.67188 199.72978 L389.64844 199.72993 L390.62500 199.72995 L391.60156 199.72998 L392.57813 199.73003 L393.55469 199.73006 L394.53125 199.73033 L395.50781 199.73026 L396.48438 199.73045 L397.46094 199.73036 L398.43750 199.73041 L399.41406 199.73036 L400.39063 199.73048 L401.36719 199.73061 L402.34375 199.73067 L403.32031 199.73076 L404.29688 199.73079 L405.27344 199.73088 L406.25000 199.73096 L407.22656 199.73111 L408.20313 199.73112 L409.17969 199.73120 L410.15625 199.73114 L411.13281 199.73131 L412.10938 199.73135 L413.08594 199.73129 L414.06250 199.73160 L415.03906 199.73131 L416.01563 199.73169 L416.99219 199.73170 L417.96875 199.73181 L418.94531 199.73181 L419.92188 199.73189 L420.89844 199.73203 L421.87500 199.73192 L422.85156 199.73199 L423.82813 199.73210 L424.80469 199.73204 L425.78125 199.73227 L426.75781 199.73167 L427.73438 199.73216 L428.71094 199.73247 L429.68750 199.73311 L430.66406 199.73326 L431.64063 199.73317 L432.61719 199.73293 L433.59375 199.73277 L434.57031 199.73299 L435.54688 199.73314 L436.52344 199.73325 L437.50000 199.73314 L438.47656 199.73323 L439.45313 199.73332 L440.42969 199.73338 L441.40625 199.73334 L442.38281 199.73331 L443.35938 199.73340 L444.33594 199.73349 L445.31250 199.73369 L446.28906 199.73363 L447.26563 199.73361 L448.24219 199.73361 L449.21875 199.73378 L450.19531 199.73392 L451.17188 199.73392 L452.14844 199.73383 L453.12500 199.73381 L454.10156 199.73415 L455.07813 199.73431 L456.05469 199.73441 L457.03125 199.73332 L458.00781 199.73448 L458.98438 199.73354 L459.96094 199.73393 L460.93750 199.73412 L461.91406 199.73450 L462.89063 199.73439 L463.86719 199.73431 L464.84375 199.73436 L465.82031 199.73438 L466.79688 199.73459 L467.77344 199.73470 L468.75000 199.73468 L469.72656 199.73483 L470.70313 199.73460 L471.67969 199.73444 L472.65625 199.73425 L473.63281 199.73434 L474.60938 199.73462 L475.58594 199.73468 L476.56250 199.73477 L477.53906 199.73465 L478.51563 199.73460 L479.49219 199.73474 L480.46875 199.73471 L481.44531 199.73489 L482.42188 199.73483 L483.39844 199.73485 L484.37500 199.73482 L485.35156 199.73492 L486.32813 199.73502 L487.30469 199.73495 L488.28125 199.73471 L489.25781 199.73495 L490.23438 199.73476 L491.21094 199.73492 L492.18750 199.73494 L493.16406 199.73497 L494.14063 199.73499 L495.11719 199.73492 L496.09375 199.73499 L497.07031 199.73500 L498.04688 199.73503 L499.02344 199.73506 L500.00000 199.73492 L500.97656 199.73506 L501.95313 199.73503 L502.92969 199.73500 L503.90625 199.73499 L504.88281 199.73492 L505.85938 199.73499 L506.83594 199.73497 L507.81250 199.73494 L508.78906 199.73492 L509.76563 199.73480 L510.74219 199.73495 L511.71875 199.73471 L512.69531 199.73494 L513.67188 199.73502 L514.64844 199.73492 L515.62500 199.73482 L516.60156 199.73485 L517.57813 199.73483 L518.55469 199.73489 L519.53125 199.73471 L520.50781 199.73474 L521.48438 199.73460 L522.46094 199.73465 L523.43750 199.73477 L524.41406 199.73468 L525.39063 199.73462 L526.36719 199.73433 L527.34375 199.73427 L528.32031 199.73444 L529.29688 199.73460 L530.27344 199.73483 L531.25000 199.73468 L532.22656 199.73470 L533.20313 199.73459 L534.17969 199.73438 L535.15625 199.73436 L536.13281 199.73431 L537.10938 199.73439 L538.08594 199.73450 L539.06250 199.73412 L540.03906 199.73393 L541.01563 199.73354 L541.99219 199.73448 L542.96875 199.73332 L543.94531 199.73441 L544.92188 199.73431 L545.89844 199.73415 L546.87500 199.73381 L547.85156 199.73383 L548.82813 199.73392 L549.80469 199.73392 L550.78125 199.73380 L551.75781 199.73361 L552.73438 199.73360 L553.71094 199.73363 L554.68750 199.73369 L555.66406 199.73349 L556.64063 199.73340 L557.61719 199.73331 L558.59375 199.73334 L559.57031 199.73338 L560.54688 199.73332 L561.52344 199.73323 L562.50000 199.73314 L563.47656 199.73325 L564.45313 199.73314 L565.42969 199.73299 L566.40625 199.73277 L567.38281 199.73293 L568.35938 199.73317 L569.33594 199.73326 L570.31250 199.73311 L571.28906 199.73247 L572.26563 199.73216 L573.24219 199.73167 L574.21875 199.73227 L575.19531 199.73204 L576.17188 199.73210 L577.14844 199.73199 L578.12500 199.73192 L579.10156 199.73203 L580.07813 199.73189 L581.05469 199.73180 L582.03125 199.73181 L583.00781 199.73170 L583.98438 199.73169 L584.96094 199.73131 L585.93750 199.73160 L586.91406 199.73129 L587.89063 199.73135 L588.86719 199.73131 L589.84375 199.73114 L590.82031 199.73120 L591.79688 199.73112 L592.77344 199.73111 L593.75000 199.73096 L594.72656 199.73088 L595.70313 199.73079 L596.67969 199.73076 L597.65625 199.73067 L598.63281 199.73061 L599.60938 199.73048 L600.58594 199.73036 L601.56250 199.73041 L602.53906 199.73036 L603.51563 199.73045 L604.49219 199.73024 L605.46875 199.73033 L606.44531 199.73004 L607.42188 199.73003 L608.39844 199.72998 L609.37500 199.72995 L610.35156 199.72993 L611.32813 199.72978 L612.30469 199.72974 L613.28125 199.72958 L614.25781 199.72946 L615.23438 199.72968 L616.21094 199.72972 L617.18750 199.72935 L618.16406 199.72942 L619.14063 199.72937 L620.11719 199.72929 L621.09375 199.72916 L622.07031 199.72913 L623.04688 199.72920 L624.02344 199.72919 L625.00000 199.72903 L625.97656 199.72905 L626.95313 199.72885 L627.92969 199.72887 L628.90625 199.72882 L629.88281 199.72879 L630.85938 199.72881 L631.83594 199.72861 L632.81250 199.72868 L633.78906 199.72868 L634.76563 199.72878 L635.74219 199.72871 L636.71875 199.72862 L637.69531 199.72847 L638.67188 199.72852 L639.64844 199.72862 L640.62500 199.72884 L641.60156 199.72829 L642.57813 199.72873 L643.55469 199.72832 L644.53125 199.72830 L645.50781 199.72823 L646.48438 199.72852 L647.46094 199.72839 L648.43750 199.72841 L649.41406 199.72838 L650.39063 199.72842 L651.36719 199.72849 L652.34375 199.72829 L653.32031 199.72847 L654.29688 199.72868 L655.27344 199.72868 L656.25000 199.72862 L657.22656 199.72865 L658.20313 199.72861 L659.17969 199.72864 L660.15625 199.72870 L661.13281 199.72874 L662.10938 199.72884 L663.08594 199.72885 L664.06250 199.72897 L665.03906 199.72908 L666.01563 199.72920 L666.99219 199.72922 L667.96875 199.72935 L668.94531 199.72932 L669.92188 199.72939 L670.89844 199.72954 L671.87500 199.72963 L672.85156 199.72995 L673.82813 199.72981 L674.80469 199.73004 L675.78125 199.73016 L676.75781 199.73029 L677.73438 199.73048 L678.71094 199.73044 L679.68750 199.73076 L680.66406 199.73076 L681.64063 199.73105 L682.61719 199.73132 L683.59375 199.73087 L684.57031 199.73120 L685.54688 199.73189 L686.52344 199.73160 L687.50000 199.73187 L688.47656 199.73236 L689.45313 199.73264 L690.42969 199.73291 L691.40625 199.73296 L692.38281 199.73315 L693.35938 199.73346 L694.33594 199.73369 L695.31250 199.73404 L696.28906 199.73421 L697.26563 199.73447 L698.24219 199.73466 L699.21875 199.73495 L700.19531 199.73520 L701.17188 199.73532 L702.14844 199.73569 L703.12500 199.73596 L704.10156 199.73633 L705.07813 199.73659 L706.05469 199.73666 L707.03125 199.73701 L708.00781 199.73712 L708.98438 199.73749 L709.96094 199.73775 L710.93750 199.73795 L711.91406 199.73828 L712.89063 199.73824 L713.86719 199.73860 L714.84375 199.73917 L715.82031 199.73921 L716.79688 199.73854 L717.77344 199.73917 L718.75000 199.73918 L719.72656 199.73921 L720.70313 199.73932 L721.67969 199.73909 L722.65625 199.73915 L723.63281 199.73906 L724.60938 199.73883 L725.58594 199.73849 L726.56250 199.73798 L727.53906 199.73770 L728.51563 199.73738 L729.49219 199.73703 L730.46875 199.73651 L731.44531 199.73560 L732.42188 199.73451 L733.39844 199.73337 L734.37500 199.73219 L735.35156 199.73087 L736.32813 199.72928 L737.30469 199.72743 L738.28125 199.72537 L739.25781 199.72305 L740.23438 199.72067 L741.21094 199.71783 L742.18750 199.71480 L743.16406 199.71138 L744.14063 199.70750 L745.11719 199.70357 L746.09375 199.69896 L747.07031 199.69406 L748.04688 199.68832 L749.02344 199.68237 L750.00000 199.67578 L750.97656 199.66858 L751.95313 199.66083 L752.92969 199.65224 L753.90625 199.64310 L754.88281 199.63315 L755.85938 199.62224 L756.83594 199.61046 L757.81250 199.59753 L758.78906 199.58388 L759.76563 199.56897 L760.74219 199.55293 L761.71875 199.53554 L762.69531 199.51672 L763.67188 199.49644 L764.64844 199.47458 L765.62500 199.45107 L766.60156 199.42549 L767.57813 199.39787 L768.55469 199.36836 L769.53125 199.33559 L770.50781 199.30069 L771.48438 199.26291 L772.46094 199.22169 L773.43750 199.17688 L774.41406 199.12802 L775.39063 199.07460 L776.36719 199.01633 L777.34375 198.95215 L778.32031 198.88176 L779.29688 198.80391 L780.27344 198.71739 L781.25000 198.62132 L782.22656 198.51379 L783.20313 198.39299 L784.17969 198.25624 L785.15625 198.10051 L786.13281 197.92186 L787.10938 197.71501 L788.08594 197.47322 L789.06250 197.18681 L790.03906 196.84291 L791.01563 196.42249 L791.99219 195.89777 L792.96875 195.22514 L793.94531 194.33311 L794.92188 193.09494 L795.89844 191.26350 L796.87500 188.28267 L797.85156 182.58467 L798.82813 167.37653 L799.80469 -0.00000 L800.78125 148.91727 L801.75781 176.80513 L802.73438 184.76694 L803.71094 188.53375 L804.68750 190.72736 L805.66406 192.16139 L806.64063 193.17091 L807.61719 193.91910 L808.59375 194.49512 L809.57031 194.95148 L810.54688 195.32132 L811.52344 195.62704 L812.50000 195.88298 L813.47656 196.10043 L814.45313 196.28699 L815.42969 196.44839 L816.40625 196.58916 L817.38281 196.71269 L818.35938 196.82182 L819.33594 196.91864 L820.31250 197.00484 L821.28906 197.08170 L822.26563 197.15060 L823.24219 197.21257 L824.21875 197.26845 L825.19531 197.31857 L826.17188 197.36354 L827.14844 197.40395 L828.12500 197.44048 L829.10156 197.47383 L830.07813 197.50394 L831.05469 197.53120 L832.03125 197.55437 L833.00781 197.57530 L833.98438 197.59383 L834.96094 197.61000 L835.93750 197.62410 L836.91406 197.63612 L837.89063 197.64601 L838.86719 197.65433 L839.84375 197.66063 L840.82031 197.66501 L841.79688 197.66789 L842.77344 197.66937 L843.75000 197.66878 L844.72656 197.66719 L845.70313 197.66402 L846.67969 197.65897 L847.65625 197.65248 L848.63281 197.64445 L849.60938 197.63501 L850.58594 197.62408 L851.56250 197.61147 L852.53906 197.59721 L853.51563 197.58128 L854.49219 197.56374 L855.46875 197.54456 L856.44531 197.52344 L857.42188 197.50047 L858.39844 197.47556 L859.37500 197.44859 L860.35156 197.41966 L861.32813 197.38840 L862.30469 197.35490 L863.28125 197.31837 L864.25781 197.27933 L865.23438 197.23749 L866.21094 197.19243 L867.18750 197.14413 L868.16406 197.09221 L869.14063 197.03587 L870.11719 196.97572 L871.09375 196.91064 L872.07031 196.84048 L873.04688 196.76427 L874.02344 196.68219 L875.00000 196.59285 L875.97656 196.49553 L876.95313 196.38942 L877.92969 196.27327 L878.90625 196.14575 L879.88281 196.00531 L880.85938 195.84966 L881.83594 195.67683 L882.81250 195.48366 L883.78906 195.26651 L884.76563 195.02071 L885.74219 194.74045 L886.71875 194.41829 L887.69531 194.04416 L888.67188 193.60461 L889.64844 193.08119 L890.62500 192.44751 L891.60156 191.66542 L892.57813 190.67628 L893.55469 189.38586 L894.53125 187.63252 L895.50781 185.11456 L896.48438 181.19501 L897.46094 174.25620 L898.43750 158.63699 L899.41406 90.93431 L900.39063 38.22749 L901.36719 154.29134 L902.34375 173.63007 L903.32031 181.58910 L904.29688 185.92734 L905.27344 188.65587 L906.25000 190.52934 L907.22656 191.89415 L908.20313 192.93184 L909.17969 193.74686 L910.15625 194.40335 L911.13281 194.94243 L912.10938 195.39302 L913.08594 195.77402 L914.06250 196.10037 L915.03906 196.38258 L916.01563 196.62874 L916.99219 196.84474 L917.96875 197.03520 L918.94531 197.20404 L919.92188 197.35439 L920.89844 197.48877 L921.87500 197.60918 L922.85156 197.71713 L923.82813 197.81393 L924.80469 197.90112 L925.78125 197.97946 L926.75781 198.05000 L927.73438 198.11304 L928.71094 198.16937 L929.68750 198.21971 L930.66406 198.26445 L931.64063 198.30380 L932.61719 198.33849 L933.59375 198.36835 L934.57031 198.39400 L935.54688 198.41570 L936.52344 198.43373 L937.50000 198.44791 L938.47656 198.45856 L939.45313 198.46584 L940.42969 198.46991 L941.40625 198.47227 L942.38281 198.46968 L943.35938 198.46597 L944.33594 198.45883 L945.31250 198.44908 L946.28906 198.43625 L947.26563 198.42133 L948.24219 198.40369 L949.21875 198.38353 L950.19531 198.36084 L951.17188 198.33545 L952.14844 198.30765 L953.12500 198.27701 L954.10156 198.24376 L955.07813 198.20760 L956.05469 198.16859 L957.03125 198.12648 L958.00781 198.08119 L958.98438 198.03244 L959.96094 197.98007 L960.93750 197.92374 L961.91406 197.86322 L962.89063 197.79782 L963.86719 197.72784 L964.84375 197.65218 L965.82031 197.57051 L966.79688 197.48212 L967.77344 197.38614 L968.75000 197.28163 L969.72656 197.16753 L970.70313 197.04256 L971.67969 196.90489 L972.65625 196.75221 L973.63281 196.58263 L974.60938 196.39264 L975.58594 196.17786 L976.56250 195.93387 L977.53906 195.65347 L978.51563 195.32748 L979.49219 194.94315 L980.46875 194.48296 L981.44531 193.92107 L982.42188 193.21843 L983.39844 192.31267 L984.37500 191.09779 L985.35156 189.37912 L986.32813 186.75427 L987.30469 182.23744 L988.28125 172.60042 L989.25781 137.62207 L990.23438 5.87568 L991.21094 163.07162 L992.18750 179.89253 L993.16406 186.30194 L994.14063 189.65138 L995.11719 191.67468 L996.09375 192.98880 L997.07031 193.86169 L998.04688 194.42419 L999.02344 194.74146" /><path fill="none" stroke="#000000" d="M0 300.07410  L0.00000 300.07410  L0.97656 304.13092  L1.95313 308.01025  L2.92969 311.57297  L3.90625 314.73941  L4.88281 317.48151  L5.85938 319.81430  L6.83594 321.77417  L7.81250 323.40491  L8.78906 324.75269  L9.76563 325.85944  L10.74219 226.68730  L11.71875 227.41536  L12.69531 227.99551  L13.67188 228.44934  L14.64844 228.79477  L15.62500 229.04538  L16.60156 229.21495  L17.57813 229.31126  L18.55469 229.34396  L19.53125 229.31929  L20.50781 229.24393  L21.48438 229.12296  L22.46094 228.95888  L23.43750 228.75513  L24.41406 228.51506  L25.39063 228.23981  L26.36719 227.93762  L27.34375 227.59848  L28.32031 227.23662  L29.29688 226.84346  L30.27344 226.42488  L31.25000 225.97786  L32.22656 225.50533  L33.20313 225.00897  L34.17969 224.48581  L35.15625 223.93748  L36.13281 223.36349  L37.10938 222.76665  L38.08594 222.14206  L39.06250 221.49423  L40.03906 220.82104  L41.01563 220.12076  L41.99219 219.39551  L42.96875 218.64243  L43.94531 217.86264  L44.92188 217.05676  L45.89844 216.22339  L46.87500 215.36197  L47.85156 214.47267  L48.82813 213.55611  L49.80469 212.61267  L50.78125 211.63933  L51.75781 210.64296  L52.73438 209.61479  L53.71094 208.56168  L54.68750 207.48454  L55.66406 206.38158  L56.64063 205.27048  L57.61719 204.09773  L58.59375 202.94339  L59.57031 201.75034  L60.54688 200.53676  L61.52344 399.45746  L62.50000 398.22778  L63.47656 396.98212  L64.45313 395.73328  L65.42969 394.47342  L66.40625 393.20996  L67.38281 391.95053  L68.35938 390.69547  L69.33594 389.44287  L70.31250 388.20038  L71.28906 386.96924  L72.26563 385.75284  L73.24219 384.55060  L74.21875 383.36462  L75.19531 382.19424  L76.17188 381.04730  L77.14844 379.92270  L78.12500 378.82077  L79.10156 377.74109  L80.07813 376.68530  L81.05469 375.65283  L82.03125 374.64636  L83.00781 373.66479  L83.98438 372.70746  L84.96094 371.77307  L85.93750 370.86154  L86.91406 369.97580  L87.89063 369.11438  L88.86719 368.27637  L89.84375 367.45905  L90.82031 366.66443  L91.79688 365.88904  L92.77344 365.13440  L93.75000 364.40015  L94.72656 363.68414  L95.70313 362.98703  L96.67969 362.30701  L97.65625 361.64401  L98.63281 360.99741  L99.60938 360.36646  L100.58594 259.67633  L101.56250 259.07480  L102.53906 258.48706  L103.51563 257.91248  L104.49219 257.35043  L105.46875 256.80045  L106.44531 256.26282  L107.42188 255.73575  L108.39844 255.21942  L109.37500 254.71292  L110.35156 254.21631  L111.32813 253.72874  L112.30469 253.25073  L113.28125 252.78065  L114.25781 252.31882  L115.23438 251.86446  L116.21094 251.41785  L117.18750 250.97954  L118.16406 250.54652  L119.14063 250.12030  L120.11719 249.69902  L121.09375 249.28566  L122.07031 248.87607  L123.04688 248.47287  L124.02344 248.07489  L125.00000 247.68073  L125.97656 247.29408  L126.95313 246.90781  L127.92969 246.52896  L128.90625 246.15294  L129.88281 245.78093  L130.85938 245.41061  L131.83594 245.04671  L132.81250 244.68460  L133.78906 244.32538  L134.76563 243.97021  L135.74219 243.61650  L136.71875 243.26538  L137.69531 242.91910  L138.67188 242.57285  L139.64844 242.23016  L140.62500 241.88751  L141.60156 241.54762  L142.57813 241.20746  L143.55469 240.87206  L144.53125 240.53819  L145.50781 240.20471  L146.48438 239.87177  L147.46094 239.53860  L148.43750 239.20998  L149.41406 238.88162  L150.39063 238.55319  L151.36719 238.22385  L152.34375 237.89594  L153.32031 237.56836  L154.29688 237.24509  L155.27344 236.91905  L156.25000 236.59288  L157.22656 236.25838  L158.20313 235.94038  L159.17969 235.60580  L160.15625 235.28165  L161.13281 234.95393  L162.10938 234.62585  L163.08594 234.29887  L164.06250 233.97005  L165.03906 233.63985  L166.01563 233.30676  L166.99219 232.97156  L167.96875 232.63768  L168.94531 232.30937  L169.92188 231.97652  L170.89844 231.63934  L171.87500 231.29318  L172.85156 230.94482  L173.82813 230.59612  L174.80469 230.25177  L175.78125 229.90610  L176.75781 229.55551  L177.73438 229.20007  L178.71094 228.84163  L179.68750 228.48355  L180.66406 228.12221  L181.64063 227.75691  L182.61719 227.38614  L183.59375 227.01335  L184.57031 226.63649  L185.54688 226.25693  L186.52344 225.87216  L187.50000 225.48239  L188.47656 225.08774  L189.45313 224.69023  L190.42969 224.28600  L191.40625 223.87759  L192.38281 223.46339  L193.35938 223.04344  L194.33594 222.61761  L195.31250 222.18542  L196.28906 221.74652  L197.26563 221.30093  L198.24219 220.84821  L199.21875 220.38800  L200.19531 319.99411  L201.17188 319.51819  L202.14844 319.03372  L203.12500 318.54056  L204.10156 318.03766  L205.07813 317.52545  L206.05469 317.00351  L207.03125 316.47141  L208.00781 315.92834  L208.98438 315.37396  L209.96094 314.80768  L210.93750 314.22940  L211.91406 313.63870  L212.89063 313.03345  L213.86719 312.41513  L214.84375 311.78076  L215.82031 311.13593  L216.79688 310.47623  L217.77344 309.79892  L218.75000 309.10464  L219.72656 308.39349  L220.70313 307.66388  L221.67969 306.92529  L222.65625 306.16254  L223.63281 305.37811  L224.60938 304.57437  L225.58594 303.75793  L226.56250 302.91925  L227.53906 302.05798  L228.51563 301.17383  L229.49219 300.26913  L230.46875 299.35522  L231.44531 298.40265  L232.42188 297.46341  L233.39844 296.48242  L234.37500 295.47812  L235.35156 294.45551  L236.32813 293.41458  L237.30469 292.36084  L238.28125 291.29361  L239.25781 290.20447  L240.23438 289.10883  L241.21094 287.98907  L242.18750 286.86212  L243.16406 285.72272  L244.14063 284.57861  L245.11719 283.43921  L246.09375 282.28299  L247.07031 281.12775  L248.04688 279.97119  L249.02344 278.81207  L250.00000 277.66901  L250.97656 276.52429  L251.95313 275.36978  L252.92969 274.25641  L253.90625 273.15125  L254.88281 272.03253  L255.85938 270.95047  L256.83594 269.88010  L257.81250 268.81943  L258.78906 267.77509  L259.76563 266.75940  L260.74219 265.76593  L261.71875 264.78455  L262.69531 263.78091  L263.67188 262.87274  L264.64844 261.96646  L265.62500 261.07135  L266.60156 260.19269  L267.57813 259.31372  L268.55469 258.47681  L269.53125 257.69421  L270.50781 256.92172  L271.48438 256.16516  L272.46094 255.37650  L273.43750 254.61975  L274.41406 253.88361  L275.39063 253.18906  L276.36719 252.52499  L277.34375 251.84869  L278.32031 251.19443  L279.29688 250.56206  L280.27344 249.94473  L281.25000 249.36243  L282.22656 248.73782  L283.20313 248.15030  L284.17969 247.58391  L285.15625 247.10846  L286.13281 246.52049  L287.10938 246.04280  L288.08594 245.50883  L289.06250 245.00987  L290.03906 244.51608  L291.01563 244.03329  L291.99219 243.58707  L292.96875 243.11363  L293.94531 242.64929  L294.92188 242.22806  L295.89844 241.79547  L296.87500 241.38457  L297.85156 240.96452  L298.82813 240.55357  L299.80469 240.14960  L300.78125 239.76241  L301.75781 239.37811  L302.73438 238.99466  L303.71094 238.62929  L304.68750 238.27878  L305.66406 237.91727  L306.64063 237.56757  L307.61719 237.20212  L308.59375 236.86789  L309.57031 236.53226  L310.54688 236.21458  L311.52344 235.90599  L312.50000 235.55698  L313.47656 235.26219  L314.45313 234.91129  L315.42969 234.62976  L316.40625 234.26315  L317.38281 234.01477  L318.35938 233.68219  L319.33594 233.41058  L320.31250 233.13092  L321.28906 232.83017  L322.26563 232.56017  L323.24219 232.27275  L324.21875 232.00116  L325.19531 231.72935  L326.17188 231.46262  L327.14844 231.20500  L328.12500 230.94254  L329.10156 230.68550  L330.07813 230.41357  L331.05469 230.15471  L332.03125 229.90915  L333.00781 229.65457  L333.98438 229.41608  L334.96094 229.17477  L335.93750 228.93802  L336.91406 228.68820  L337.89063 228.44478  L338.86719 228.20892  L339.84375 227.98239  L340.82031 227.74144  L341.79688 227.50523  L342.77344 227.27090  L343.75000 227.04210  L344.72656 226.84262  L345.70313 226.61946  L346.67969 226.41389  L347.65625 226.16611  L348.63281 225.95789  L349.60938 225.72881  L350.58594 225.51826  L351.56250 225.30849  L352.53906 225.08615  L353.51563 224.89172  L354.49219 224.68294  L355.46875 224.46625  L356.44531 224.20999  L357.42188 224.06160  L358.39844 223.81865  L359.37500 223.63139  L360.35156 223.45818  L361.32813 223.26183  L362.30469 223.03320  L363.28125 222.84270  L364.25781 222.64458  L365.23438 222.45795  L366.21094 222.27684  L367.18750 222.07336  L368.16406 221.87114  L369.14063 221.67696  L370.11719 221.48332  L371.09375 221.30600  L372.07031 221.10086  L373.04688 220.91402  L374.02344 220.72650  L375.00000 220.53508  L375.97656 220.36575  L376.95313 220.16689  L377.92969 219.99847  L378.90625 219.80235  L379.88281 219.62253  L380.85938 219.44151  L381.83594 219.24634  L382.81250 219.07829  L383.78906 218.89789  L384.76563 218.74483  L385.74219 218.53392  L386.71875 218.36980  L387.69531 218.17168  L388.67188 218.01073  L389.64844 217.82727  L390.62500 217.65874  L391.60156 217.49628  L392.57813 217.30606  L393.55469 217.12230  L394.53125 216.95763  L395.50781 216.78894  L396.48438 216.62137  L397.46094 216.46082  L398.43750 216.29550  L399.41406 216.10638  L400.39063 215.93135  L401.36719 215.75752  L402.34375 215.59515  L403.32031 215.42616  L404.29688 215.25140  L405.27344 215.08073  L406.25000 214.91376  L407.22656 214.75458  L408.20313 214.59349  L409.17969 214.43506  L410.15625 214.25517  L411.13281 214.09583  L412.10938 213.91844  L413.08594 213.76970  L414.06250 213.60646  L415.03906 213.41315  L416.01563 213.24510  L416.99219 213.12721  L417.96875 212.93500  L418.94531 212.77057  L419.92188 212.62254  L420.89844 212.46059  L421.87500 212.30200  L422.85156 212.13737  L423.82813 211.96504  L424.80469 211.80965  L425.78125 211.66547  L426.75781 211.48793  L427.73438 211.25002  L428.71094 211.07990  L429.68750 210.94640  L430.66406 210.82970  L431.64063 210.71898  L432.61719 210.56142  L433.59375 210.38742  L434.57031 210.21193  L435.54688 210.05870  L436.52344 209.92026  L437.50000 209.76346  L438.47656 209.60172  L439.45313 209.43556  L440.42969 209.29849  L441.40625 209.14580  L442.38281 208.98456  L443.35938 208.81491  L444.33594 208.64923  L445.31250 208.51637  L446.28906 208.36156  L447.26563 208.20154  L448.24219 208.05101  L449.21875 207.87018  L450.19531 207.73607  L451.17188 207.59639  L452.14844 207.44077  L453.12500 207.27176  L454.10156 207.09085  L455.07813 206.98517  L456.05469 206.87151  L457.03125 206.70607  L458.00781 206.48642  L458.98438 206.41159  L459.96094 206.15338  L460.93750 206.00951  L461.91406 205.88622  L462.89063 205.73476  L463.86719 205.60321  L464.84375 205.42871  L465.82031 205.26881  L466.79688 205.12035  L467.77344 204.96556  L468.75000 204.83954  L469.72656 204.70451  L470.70313 204.56718  L471.67969 204.42375  L472.65625 204.23663  L473.63281 204.06270  L474.60938 203.89922  L475.58594 203.75299  L476.56250 203.63039  L477.53906 203.47313  L478.51563 203.31219  L479.49219 203.15935  L480.46875 202.99713  L481.44531 202.86200  L482.42188 202.70415  L483.39844 202.56703  L484.37500 202.40073  L485.35156 202.24521  L486.32813 202.12009  L487.30469 201.96724  L488.28125 201.82239  L489.25781 201.64352  L490.23438 201.51091  L491.21094 201.34341  L492.18750 201.19409  L493.16406 201.05768  L494.14063 200.89337  L495.11719 200.75026  L496.09375 200.59816  L497.07031 200.44308  L498.04688 200.30530  L499.02344 200.14822  L500.00000 200.00000  L500.97656 400.00000  L501.95313 399.84296  L502.92969 399.70511  L503.90625 399.54999  L504.88281 399.39807  L505.85938 399.25507  L506.83594 399.09036  L507.81250 398.95428  L508.78906 398.80505  L509.76563 398.63708  L510.74219 398.50470  L511.71875 398.32571  L512.69531 398.18115  L513.67188 398.02805  L514.64844 397.90302  L515.62500 397.74750  L516.60156 397.58115  L517.57813 397.44409  L518.55469 397.28632  L519.53125 397.15109  L520.50781 396.98901  L521.48438 396.83649  L522.46094 396.67517  L523.43750 396.51788  L524.41406 396.39557  L525.39063 396.24939  L526.36719 396.08548  L527.34375 395.91144  L528.32031 395.72461  L529.29688 395.58093  L530.27344 395.44373  L531.25000 395.30865  L532.22656 395.18246  L533.20313 395.02780  L534.17969 394.87936  L535.15625 394.71945  L536.13281 394.54498  L537.10938 394.41333  L538.08594 394.26190  L539.06250 394.13870  L540.03906 393.99472  L541.01563 393.73657  L541.99219 393.66171  L542.96875 393.44196  L543.94531 393.27661  L544.92188 393.16318  L545.89844 393.05734  L546.87500 392.87643  L547.85156 392.70740  L548.82813 392.55188  L549.80469 392.41309  L550.78125 392.27786  L551.75781 392.09732  L552.73438 391.94641  L553.71094 391.78650  L554.68750 391.63196  L555.66406 391.49915  L556.64063 391.33319  L557.61719 391.16354  L558.59375 391.00238  L559.57031 390.84985  L560.54688 390.71268  L561.52344 390.54657  L562.50000 390.38470  L563.47656 390.22800  L564.45313 390.08936  L565.42969 389.93631  L566.40625 389.76074  L567.38281 389.58649  L568.35938 389.42914  L569.33594 389.31827  L570.31250 389.20187  L571.28906 389.06857  L572.26563 388.89819  L573.24219 388.66034  L574.21875 388.48267  L575.19531 388.33923  L576.17188 388.18311  L577.14844 388.01074  L578.12500 387.84619  L579.10156 387.68774  L580.07813 387.52570  L581.05469 387.37744  L582.03125 387.21320  L583.00781 387.02115  L583.98438 386.90289  L584.96094 386.73523  L585.93750 386.54166  L586.91406 386.37881  L587.89063 386.23010  L588.86719 386.05225  L589.84375 385.89294  L590.82031 385.71280  L591.79688 385.55460  L592.77344 385.39374  L593.75000 385.23444  L594.72656 385.06747  L595.70313 384.89682  L596.67969 384.72186  L597.65625 384.55295  L598.63281 384.39063  L599.60938 384.21674  L600.58594 384.04144  L601.56250 383.85336  L602.53906 383.68756  L603.51563 383.52692  L604.49219 383.35928  L605.46875 383.19058  L606.44531 383.02600  L607.42188 382.84210  L608.39844 382.65189  L609.37500 382.48953  L610.35156 382.32117  L611.32813 382.13739  L612.30469 381.97644  L613.28125 381.77826  L614.25781 381.61414  L615.23438 381.40424  L616.21094 381.25067  L617.18750 381.06989  L618.16406 380.90186  L619.14063 380.70712  L620.11719 380.52576  L621.09375 380.34583  L622.07031 380.14975  L623.04688 379.98132  L624.02344 379.78259  L625.00000 379.61313  L625.97656 379.42169  L626.95313 379.23410  L627.92969 379.04758  L628.90625 378.84222  L629.88281 378.66498  L630.85938 378.47137  L631.83594 378.27704  L632.81250 378.07483  L633.78906 377.87140  L634.76563 377.69061  L635.74219 377.50363  L636.71875 377.30548  L637.69531 377.11487  L638.67188 376.88651  L639.64844 376.69006  L640.62500 376.51678  L641.60156 376.32959  L642.57813 376.08676  L643.55469 375.93854  L644.53125 375.68195  L645.50781 375.46521  L646.48438 375.25681  L647.46094 375.06195  L648.43750 374.83966  L649.41406 374.62958  L650.39063 374.41922  L651.36719 374.19034  L652.34375 373.98206  L653.32031 373.73419  L654.29688 373.52878  L655.27344 373.30566  L656.25000 373.10614  L657.22656 372.87726  L658.20313 372.64288  L659.17969 372.40698  L660.15625 372.16583  L661.13281 371.93909  L662.10938 371.70410  L663.08594 371.45984  L664.06250 371.21014  L665.03906 370.97342  L666.01563 370.73230  L666.99219 370.49362  L667.96875 370.23907  L668.94531 369.99347  L669.92188 369.73462  L670.89844 369.46280  L671.87500 369.20569  L672.85156 368.94327  L673.82813 368.68561  L674.80469 368.41937  L675.78125 368.14661  L676.75781 367.87537  L677.73438 367.58844  L678.71094 367.31793  L679.68750 367.01721  L680.66406 366.73795  L681.64063 366.46609  L682.61719 366.13364  L683.59375 365.88501  L684.57031 365.51868  L685.54688 365.23694  L686.52344 364.88599  L687.50000 364.59119  L688.47656 364.24219  L689.45313 363.93356  L690.42969 363.61600  L691.40625 363.28021  L692.38281 362.94580  L693.35938 362.58026  L694.33594 362.23096  L695.31250 361.86945  L696.28906 361.51877  L697.26563 361.15381  L698.24219 360.77026  L699.21875 360.38605  L700.19531 359.99811  L701.17188 359.59464  L702.14844 359.18372  L703.12500 358.76361  L704.10156 358.35272  L705.07813 357.92004  L706.05469 357.49902  L707.03125 357.03448  L708.00781 356.56100  L708.98438 356.11493  L709.96094 355.63223  L710.93750 355.13831  L711.91406 354.63922  L712.89063 354.10544  L713.86719 353.62775  L714.84375 353.03967  L715.82031 352.56451  L716.79688 351.99792  L717.77344 351.41034  L718.75000 350.78577  L719.72656 350.20337  L720.70313 349.58609  L721.67969 348.95380  L722.65625 348.29956  L723.63281 347.62280  L724.60938 346.95944  L725.58594 346.26440  L726.56250 345.52835  L727.53906 344.77161  L728.51563 343.98300  L729.49219 343.22656  L730.46875 342.45404  L731.44531 341.67120  L732.42188 340.83447  L733.39844 339.95569  L734.37500 339.07687  L735.35156 338.18164  L736.32813 337.27539  L737.30469 336.36829  L738.28125 335.36331  L739.25781 334.38202  L740.23438 333.38730  L741.21094 332.37311  L742.18750 331.32874  L743.16406 330.26797  L744.14063 329.19745  L745.11719 328.11560  L746.09375 326.99698  L747.07031 325.89163  L748.04688 324.77841  L749.02344 323.62390  L750.00000 322.47919  L750.97656 321.33603  L751.95313 320.17700  L752.92969 319.02048  L753.90625 317.86520  L754.88281 316.70886  L755.85938 315.56958  L756.83594 314.42535  L757.81250 313.28598  L758.78906 312.15909  L759.76563 311.03937  L760.74219 309.94421  L761.71875 308.85471  L762.69531 307.78729  L763.67188 306.73364  L764.64844 305.69275  L765.62500 304.67007  L766.60156 303.66577  L767.57813 302.68484  L768.55469 301.74567  L769.53125 300.79297  L770.50781 299.87900  L771.48438 298.97437  L772.46094 298.09015  L773.43750 297.22891  L774.41406 296.39035  L775.39063 295.57401  L776.36719 294.77017  L777.34375 293.98569  L778.32031 293.22293  L779.29688 292.48431  L780.27344 291.75470  L781.25000 291.04355  L782.22656 290.34930  L783.20313 289.67200  L784.17969 289.01227  L785.15625 288.36743  L786.13281 287.73306  L787.10938 287.11478  L788.08594 286.50952  L789.06250 285.91879  L790.03906 285.34052  L791.01563 284.77423  L791.99219 284.21988  L792.96875 283.67679  L793.94531 283.14468  L794.92188 282.62274  L795.89844 282.11053  L796.87500 281.60764  L797.85156 281.11447  L798.82813 280.63004  L799.80469 280.15408  L800.78125 379.76019  L801.75781 379.29999  L802.73438 378.84726  L803.71094 378.40167  L804.68750 377.96277  L805.66406 377.53058  L806.64063 377.10474  L807.61719 376.68481  L808.59375 376.27063  L809.57031 375.86218  L810.54688 375.45795  L811.52344 375.06049  L812.50000 374.66577  L813.47656 374.27603  L814.45313 373.89130  L815.42969 373.51166  L816.40625 373.13483  L817.38281 372.76205  L818.35938 372.39127  L819.33594 372.02600  L820.31250 371.66464  L821.28906 371.30658  L822.26563 370.94815  L823.24219 370.59271  L824.21875 370.24210  L825.19531 369.89648  L826.17188 369.55209  L827.14844 369.20337  L828.12500 368.85501  L829.10156 368.50885  L830.07813 368.17169  L831.05469 367.83881  L832.03125 367.51053  L833.00781 367.17664  L833.98438 366.84146  L834.96094 366.50836  L835.93750 366.17816  L836.91406 365.84933  L837.89063 365.52234  L838.86719 365.19424  L839.84375 364.86655  L840.82031 364.54239  L841.79688 364.20779  L842.77344 363.88983  L843.75000 363.55530  L844.72656 363.22919  L845.70313 362.90311  L846.67969 362.57977  L847.65625 362.25226  L848.63281 361.92432  L849.60938 361.59488  L850.58594 361.26666  L851.56250 360.93823  L852.53906 360.60956  L853.51563 360.27649  L854.49219 359.94348  L855.46875 359.60999  L856.44531 359.27612  L857.42188 358.94073  L858.39844 358.60059  L859.37500 358.26068  L860.35156 357.91803  L861.32813 357.57535  L862.30469 357.22903  L863.28125 356.88281  L864.25781 356.53168  L865.23438 356.17810  L866.21094 355.82281  L867.18750 355.46359  L868.16406 355.10150  L869.14063 354.73758  L870.11719 354.36728  L871.09375 353.99524  L872.07031 353.61920  L873.04688 353.24039  L874.02344 352.85413  L875.00000 352.46747  L875.97656 352.07330  L876.95313 351.67535  L877.92969 351.27216  L878.90625 350.86255  L879.88281 350.44916  L880.85938 350.02789  L881.83594 349.60168  L882.81250 349.16864  L883.78906 348.73035  L884.76563 348.28375  L885.74219 347.82941  L886.71875 347.36755  L887.69531 346.89746  L888.67188 346.41943  L889.64844 345.93188  L890.62500 345.43527  L891.60156 344.92877  L892.57813 344.41245  L893.55469 343.88538  L894.53125 343.34778  L895.50781 342.79779  L896.48438 342.23572  L897.46094 341.66113  L898.43750 341.07336  L899.41406 340.47186  L900.39063 239.78175  L901.36719 239.15080  L902.34375 238.50418  L903.32031 237.84117  L904.29688 237.16116  L905.27344 236.46405  L906.25000 235.74806  L907.22656 235.01381  L908.20313 234.25914  L909.17969 233.48376  L910.15625 232.68913  L911.13281 231.87186  L912.10938 231.03383  L913.08594 230.17241  L914.06250 229.28667  L915.03906 228.37512  L916.01563 227.44077  L916.99219 226.48340  L917.96875 225.50183  L918.94531 224.49538  L919.92188 223.46289  L920.89844 222.40712  L921.87500 221.32742  L922.85156 220.22551  L923.82813 219.10092  L924.80469 217.95401  L925.78125 216.78358  L926.75781 215.59756  L927.73438 214.39525  L928.71094 213.17892  L929.68750 211.94778  L930.66406 210.70529  L931.64063 209.45284  L932.61719 208.19768  L933.59375 206.93825  L934.57031 205.67477  L935.54688 204.41493  L936.52344 203.16605  L937.50000 201.92039  L938.47656 200.69073  L939.45313 399.61145  L940.42969 398.39783  L941.40625 397.20483  L942.38281 396.05048  L943.35938 394.87775  L944.33594 393.76660  L945.31250 392.66364  L946.28906 391.58655  L947.26563 390.53345  L948.24219 389.50525  L949.21875 388.50885  L950.19531 387.53558  L951.17188 386.59210  L952.14844 385.67554  L953.12500 384.78619  L954.10156 383.92480  L955.07813 383.09143  L956.05469 382.28558  L957.03125 381.50574  L958.00781 380.75269  L958.98438 380.02747  L959.96094 379.32715  L960.93750 378.65396  L961.91406 378.00613  L962.89063 377.38153  L963.86719 376.78467  L964.84375 376.21072  L965.82031 375.66238  L966.79688 375.13922  L967.77344 374.64288  L968.75000 374.17035  L969.72656 373.72330  L970.70313 373.30475  L971.67969 372.91156  L972.65625 372.54971  L973.63281 372.21057  L974.60938 371.90839  L975.58594 371.63312  L976.56250 371.39307  L977.53906 371.18933  L978.51563 371.02536  L979.49219 370.90427  L980.46875 370.82892  L981.44531 370.80420  L982.42188 370.83691  L983.39844 370.93326  L984.37500 371.10278  L985.35156 371.35339  L986.32813 371.69885  L987.30469 372.15271  L988.28125 372.73285  L989.25781 373.46091  L990.23438 274.28876  L991.21094 275.39551  L992.18750 276.74329  L993.16406 278.37402  L994.14063 280.33389  L995.11719 282.66669  L996.09375 285.40878  L997.07031 288.57523  L998.04688 292.13794  L999.02344 296.01727 " /></g><text x="1000.00000" dx="10" y="199.99995">[-0.00000;0.46574]</text><text x="1000.00000" dx="10" y="300.07410">[-3.13694;3.14159]</text></svg>