<svg xmlns="http://www.w3.org/2000/svg" version="1.1"><g stroke-width="0.6"><path fill="none" stroke="#000000" d="M0 100.06218 L1000.00000 100.06218" /><path fill="none" stroke="#000000" d="M0 300.00000 L1000.00000 300.00000" /><path fill="none" stroke="#000000" d="M500.00000 0 L500.00000 400.00000" /><path fill="none" stroke="#000000" d="M0 100.06218  L0.00000 -0.00001 L0.97656 0.49723 L1.95313 1.98398 L2.92969 4.44548 L3.90625 7.85726 L4.88281 12.18541 L5.85938 17.38692 L6.83594 23.41010 L7.81250 30.19508 L8.78906 37.67443 L9.76563 45.77381 L10.74219 54.41275 L11.71875 63.50536 L12.69531 72.96130 L13.67188 82.68657 L14.64844 92.58453 L15.62500 102.55679 L16.60156 112.50428 L17.57813 122.32811 L18.55469 131.93065 L19.53125 141.21646 L20.50781 150.09328 L21.48438 158.47285 L22.46094 166.27191 L23.43750 173.41295 L24.41406 179.82500 L25.39063 185.44434 L26.36719 190.21509 L27.34375 194.08987 L28.32031 197.03017 L29.29688 199.00674 L30.27344 199.99997 L31.25000 199.99997 L32.22656 199.00674 L33.20313 197.03017 L34.17969 194.08987 L35.15625 190.21509 L36.13281 185.44432 L37.10938 179.82500 L38.08594 173.41295 L39.06250 166.27190 L40.03906 158.47281 L41.01563 150.09326 L41.99219 141.21648 L42.96875 131.93063 L43.94531 122.32812 L44.92188 112.50426 L45.89844 102.55680 L46.87500 92.58450 L47.85156 82.68656 L48.82813 72.96127 L49.80469 63.50536 L50.78125 54.41272 L51.75781 45.77381 L52.73438 37.67440 L53.71094 30.19507 L54.68750 23.41008 L55.66406 17.38692 L56.64063 12.18539 L57.61719 7.85725 L58.59375 4.44547 L59.57031 1.98398 L60.54688 0.49722 L61.52344 -0.00001 L62.50000 0.49723 L63.47656 1.98398 L64.45313 4.44548 L65.42969 7.85726 L66.40625 12.18541 L67.38281 17.38694 L68.35938 23.41010 L69.33594 30.19510 L70.31250 37.67443 L71.28906 45.77384 L72.26563 54.41275 L73.24219 63.50539 L74.21875 72.96130 L75.19531 82.68660 L76.17188 92.58453 L77.14844 102.55684 L78.12500 112.50430 L79.10156 122.32815 L80.07813 131.93071 L81.05469 141.21646 L82.03125 150.09329 L83.00781 158.47289 L83.98438 166.27190 L84.96094 173.41295 L85.93750 179.82501 L86.91406 185.44435 L87.89063 190.21507 L88.86719 194.08987 L89.84375 197.03017 L90.82031 199.00676 L91.79688 199.99997 L92.77344 199.99997 L93.75000 199.00674 L94.72656 197.03015 L95.70313 194.08987 L96.67969 190.21507 L97.65625 185.44431 L98.63281 179.82495 L99.60938 173.41295 L100.58594 166.27188 L101.56250 158.47281 L102.53906 150.09329 L103.51563 141.21646 L104.49219 131.93062 L105.46875 122.32805 L106.44531 112.50430 L107.42188 102.55679 L108.39844 92.58448 L109.37500 82.68650 L110.35156 72.96130 L111.32813 63.50534 L112.30469 54.41270 L113.28125 45.77375 L114.25781 37.67443 L115.23438 30.19506 L116.21094 23.41007 L117.18750 17.38688 L118.16406 12.18541 L119.14063 7.85725 L120.11719 4.44546 L121.09375 1.98396 L122.07031 0.49723 L123.04688 -0.00001 L124.02344 0.49723 L125.00000 1.98398 L125.97656 4.44548 L126.95313 7.85727 L127.92969 12.18544 L128.90625 17.38692 L129.88281 23.41011 L130.85938 30.19511 L131.83594 37.67448 L132.81250 45.77381 L133.78906 54.41277 L134.76563 63.50541 L135.74219 72.96136 L136.71875 82.68657 L137.69531 92.58455 L138.67188 102.55685 L139.64844 112.50436 L140.62500 122.32812 L141.60156 131.93068 L142.57813 141.21652 L143.55469 150.09334 L144.53125 158.47285 L145.50781 166.27194 L146.48438 173.41299 L147.46094 179.82500 L148.43750 185.44434 L149.41406 190.21510 L150.39063 194.08989 L151.36719 197.03017 L152.34375 199.00674 L153.32031 199.99997 L154.29688 199.99997 L155.27344 199.00674 L156.25000 197.03015 L157.22656 194.08986 L158.20313 190.21506 L159.17969 185.44427 L160.15625 179.82491 L161.13281 173.41296 L162.10938 166.27191 L163.08594 158.47282 L164.06250 150.09323 L165.03906 141.21640 L166.01563 131.93056 L166.99219 122.32799 L167.96875 112.50432 L168.94531 102.55682 L169.92188 92.58451 L170.89844 82.68653 L171.87500 72.96124 L172.85156 63.50528 L173.82813 54.41265 L174.80469 45.77370 L175.78125 37.67445 L176.75781 30.19508 L177.73438 23.41009 L178.71094 17.38689 L179.68750 12.18537 L180.66406 7.85722 L181.64063 4.44544 L182.61719 1.98395 L183.59375 0.49723 L184.57031 -0.00001 L185.54688 0.49723 L186.52344 1.98399 L187.50000 4.44550 L188.47656 7.85729 L189.45313 12.18547 L190.42969 17.38690 L191.40625 23.41009 L192.38281 30.19509 L193.35938 37.67446 L194.33594 45.77387 L195.31250 54.41282 L196.28906 63.50547 L197.26563 72.96143 L198.24219 82.68654 L199.21875 92.58452 L200.19531 102.55682 L201.17188 112.50433 L202.14844 122.32819 L203.12500 131.93074 L204.10156 141.21658 L205.07813 150.09323 L206.05469 158.47284 L207.03125 166.27191 L208.00781 173.41298 L208.98438 179.82503 L209.96094 185.44437 L210.93750 190.21513 L211.91406 194.08992 L212.89063 197.03017 L213.86719 199.00674 L214.84375 199.99997 L215.82031 199.99997 L216.79688 199.00673 L217.77344 197.03014 L218.75000 194.08983 L219.72656 190.21503 L220.70313 185.44434 L221.67969 179.82498 L222.65625 173.41292 L223.63281 166.27187 L224.60938 158.47278 L225.58594 150.09317 L226.56250 141.21634 L227.53906 131.93068 L228.51563 122.32811 L229.49219 112.50426 L230.46875 102.55675 L231.44531 92.58445 L232.42188 82.68646 L233.39844 72.96117 L234.37500 63.50522 L235.35156 54.41276 L236.32813 45.77381 L237.30469 37.67440 L238.28125 30.19503 L239.25781 23.41004 L240.23438 17.38686 L241.21094 12.18534 L242.18750 7.85719 L243.16406 4.44548 L244.14063 1.98398 L245.11719 0.49722 L246.09375 -0.00001 L247.07031 0.49723 L248.04688 1.98400 L249.02344 4.44552 L250.00000 7.85725 L250.97656 12.18541 L251.95313 17.38694 L252.92969 23.41013 L253.90625 30.19514 L254.88281 37.67451 L255.85938 45.77393 L256.83594 54.41288 L257.81250 63.50535 L258.78906 72.96130 L259.76563 82.68660 L260.74219 92.58459 L261.71875 102.55688 L262.69531 112.50439 L263.67188 122.32825 L264.64844 131.93080 L265.62500 141.21646 L266.60156 150.09329 L267.57813 158.47289 L268.55469 166.27196 L269.53125 173.41301 L270.50781 179.82507 L271.48438 185.44441 L272.46094 190.21507 L273.43750 194.08987 L274.41406 197.03018 L275.39063 199.00676 L276.36719 199.99997 L277.34375 199.99997 L278.32031 199.00673 L279.29688 197.03012 L280.27344 194.08987 L281.25000 190.21507 L282.22656 185.44431 L283.20313 179.82495 L284.17969 173.41287 L285.15625 166.27180 L286.13281 158.47272 L287.10938 150.09311 L288.08594 141.21645 L289.06250 131.93062 L290.03906 122.32805 L291.01563 112.50419 L291.99219 102.55669 L292.96875 92.58438 L293.94531 82.68640 L294.92188 72.96129 L295.89844 63.50533 L296.87500 54.41270 L297.85156 45.77375 L298.82813 37.67435 L299.80469 30.19499 L300.78125 23.41000 L301.75781 17.38682 L302.73438 12.18540 L303.71094 7.85724 L304.68750 4.44546 L305.66406 1.98396 L306.64063 0.49722 L307.61719 -0.00001 L308.59375 0.49724 L309.57031 1.98398 L310.54688 4.44548 L311.52344 7.85728 L312.50000 12.18544 L313.47656 17.38687 L314.45313 23.41018 L315.42969 30.19505 L316.40625 37.67456 L317.38281 45.77382 L318.35938 54.41294 L319.33594 63.50541 L320.31250 72.96155 L321.28906 82.68667 L322.26563 92.58447 L323.24219 102.55695 L324.21875 112.50427 L325.19531 122.32831 L326.17188 131.93068 L327.14844 141.21669 L328.12500 150.09335 L329.10156 158.47278 L330.07813 166.27202 L331.05469 173.41293 L332.03125 179.82512 L333.00781 185.44434 L333.98438 190.21519 L334.96094 194.08990 L335.93750 197.03014 L336.91406 199.00677 L337.89063 199.99997 L338.86719 199.99997 L339.84375 199.00674 L340.82031 197.03011 L341.79688 194.08984 L342.77344 190.21497 L343.75000 185.44426 L344.72656 179.82503 L345.70313 173.41284 L346.67969 166.27191 L347.65625 158.47267 L348.63281 150.09322 L349.60938 141.21622 L350.58594 131.93054 L351.56250 122.32817 L352.53906 112.50413 L353.51563 102.55681 L354.49219 92.58432 L355.46875 82.68652 L356.44531 72.96104 L357.42188 63.50528 L358.39844 54.41281 L359.37500 45.77370 L360.35156 37.67445 L361.32813 30.19494 L362.30469 23.41008 L363.28125 17.38679 L364.25781 12.18537 L365.23438 7.85714 L366.21094 4.44544 L367.18750 1.98399 L368.16406 0.49721 L369.14063 -0.00001 L370.11719 0.49725 L371.09375 1.98399 L372.07031 4.44556 L373.04688 7.85730 L374.02344 12.18539 L375.00000 17.38701 L375.97656 23.41009 L376.95313 30.19522 L377.92969 37.67446 L378.90625 45.77403 L379.88281 54.41283 L380.85938 63.50529 L381.83594 72.96143 L382.81250 82.68655 L383.78906 92.58472 L384.76563 102.55683 L385.74219 112.50452 L386.71875 122.32819 L387.69531 131.93092 L388.67188 141.21658 L389.64844 150.09325 L390.62500 158.47299 L391.60156 166.27193 L392.57813 173.41310 L393.55469 179.82503 L394.53125 185.44447 L395.50781 190.21513 L396.48438 194.08986 L397.46094 197.03021 L398.43750 199.00674 L399.41406 199.99998 L400.39063 199.99997 L401.36719 199.00671 L402.34375 197.03014 L403.32031 194.08989 L404.29688 190.21503 L405.27344 185.44432 L406.25000 179.82487 L407.22656 173.41292 L408.20313 166.27171 L409.17969 158.47276 L410.15625 150.09334 L411.13281 141.21634 L412.10938 131.93066 L413.08594 122.32792 L414.06250 112.50425 L415.03906 102.55656 L416.01563 92.58444 L416.99219 82.68627 L417.96875 72.96117 L418.94531 63.50539 L419.92188 54.41258 L420.89844 45.77380 L421.87500 37.67425 L422.85156 30.19503 L423.82813 23.40992 L424.80469 17.38686 L425.78125 12.18543 L426.75781 7.85719 L427.73438 4.44548 L428.71094 1.98393 L429.68750 0.49722 L430.66406 -0.00001 L431.64063 0.49723 L432.61719 1.98396 L433.59375 4.44552 L434.57031 7.85725 L435.54688 12.18550 L436.52344 17.38694 L437.50000 23.41026 L438.47656 30.19514 L439.45313 37.67466 L440.42969 45.77393 L441.40625 54.41272 L442.38281 63.50553 L443.35938 72.96131 L444.33594 82.68680 L445.31250 92.58459 L446.28906 102.55708 L447.26563 112.50440 L448.24219 122.32806 L449.21875 131.93082 L450.19531 141.21646 L451.17188 150.09346 L452.14844 158.47289 L453.12500 166.27211 L454.10156 173.41302 L455.07813 179.82495 L456.05469 185.44441 L457.03125 190.21509 L458.00781 194.08994 L458.98438 197.03018 L459.96094 199.00679 L460.93750 199.99997 L461.91406 199.99995 L462.89063 199.00673 L463.86719 197.03017 L464.84375 194.08980 L465.82031 190.21507 L466.79688 185.44420 L467.77344 179.82495 L468.75000 173.41275 L469.72656 166.27180 L470.70313 158.47287 L471.67969 150.09311 L472.65625 141.21645 L473.63281 131.93042 L474.60938 122.32804 L475.58594 112.50400 L476.56250 102.55668 L477.53906 92.58457 L478.51563 82.68639 L479.49219 72.96129 L480.46875 63.50515 L481.44531 54.41270 L482.42188 45.77359 L483.39844 37.67434 L484.37500 30.19485 L485.35156 23.41000 L486.32813 17.38693 L487.30469 12.18531 L488.28125 7.85724 L489.25781 4.44540 L490.23438 1.98396 L491.21094 0.49720 L492.18750 -0.00001 L493.16406 0.49722 L494.14063 1.98402 L495.11719 4.44548 L496.09375 7.85735 L497.07031 12.18544 L498.04688 17.38708 L499.02344 23.41018 L500.00000 30.19505 L500.97656 37.67456 L501.95313 45.77382 L502.92969 54.41294 L503.90625 63.50541 L504.88281 72.96156 L505.85938 82.68667 L506.83594 92.58485 L507.81250 102.55696 L508.78906 112.50428 L509.76563 122.32832 L510.74219 131.93069 L511.71875 141.21671 L512.69531 150.09335 L513.67188 158.47310 L514.64844 166.27202 L515.62500 173.41293 L516.60156 179.82512 L517.57813 185.44434 L518.55469 190.21519 L519.53125 194.08990 L520.50781 197.03024 L521.48438 199.00677 L522.46094 199.99997 L523.43750 199.99997 L524.41406 199.00674 L525.39063 197.03011 L526.36719 194.08984 L527.34375 190.21497 L528.32031 185.44426 L529.29688 179.82478 L530.27344 173.41283 L531.25000 166.27191 L532.22656 158.47266 L533.20313 150.09322 L534.17969 141.21622 L535.15625 131.93054 L536.13281 122.32779 L537.10938 112.50412 L538.08594 102.55680 L539.06250 92.58431 L540.03906 82.68652 L541.01563 72.96104 L541.99219 63.50527 L542.96875 54.41247 L543.94531 45.77369 L544.92188 37.67445 L545.89844 30.19494 L546.87500 23.41008 L547.85156 17.38679 L548.82813 12.18537 L549.80469 7.85714 L550.78125 4.44544 L551.75781 1.98391 L552.73438 0.49721 L553.71094 -0.00001 L554.68750 0.49725 L555.66406 1.98399 L556.64063 4.44556 L557.61719 7.85730 L558.59375 12.18557 L559.57031 17.38701 L560.54688 23.41010 L561.52344 30.19523 L562.50000 37.67447 L563.47656 45.77404 L564.45313 54.41283 L565.42969 63.50565 L566.40625 72.96143 L567.38281 82.68655 L568.35938 92.58472 L569.33594 102.55683 L570.31250 112.50453 L571.28906 122.32819 L572.26563 131.93094 L573.24219 141.21658 L574.21875 150.09357 L575.19531 158.47299 L576.17188 166.27193 L577.14844 173.41312 L578.12500 179.82504 L579.10156 185.44447 L580.07813 190.21513 L581.05469 194.09000 L582.03125 197.03021 L583.00781 199.00674 L583.98438 199.99998 L584.96094 199.99997 L585.93750 199.00670 L586.91406 197.03014 L587.89063 194.08975 L588.86719 190.21503 L589.84375 185.44432 L590.82031 179.82487 L591.79688 173.41292 L592.77344 166.27171 L593.75000 158.47276 L594.72656 150.09300 L595.70313 141.21632 L596.67969 131.93066 L597.65625 122.32791 L598.63281 112.50425 L599.60938 102.55655 L600.58594 92.58444 L601.56250 82.68626 L602.53906 72.96116 L603.51563 63.50503 L604.49219 54.41258 L605.46875 45.77380 L606.44531 37.67424 L607.42188 30.19503 L608.39844 23.40991 L609.37500 17.38685 L610.35156 12.18525 L611.32813 7.85719 L612.30469 4.44547 L613.28125 1.98393 L614.25781 0.49722 L615.23438 -0.00001 L616.21094 0.49724 L617.18750 1.98404 L618.16406 4.44552 L619.14063 7.85725 L620.11719 12.18550 L621.09375 17.38694 L622.07031 23.41026 L623.04688 30.19514 L624.02344 37.67466 L625.00000 45.77393 L625.97656 54.41306 L626.95313 63.50518 L627.92969 72.96169 L628.90625 82.68680 L629.88281 92.58459 L630.85938 102.55671 L631.83594 112.50478 L632.81250 122.32845 L633.78906 131.93082 L634.76563 141.21648 L635.74219 150.09314 L636.71875 158.47321 L637.69531 166.27211 L638.67188 173.41302 L639.64844 179.82497 L640.62500 185.44461 L641.60156 190.21526 L642.57813 194.08994 L643.55469 197.03018 L644.53125 199.00673 L645.50781 200.00000 L646.48438 199.99995 L647.46094 199.00673 L648.43750 197.03017 L649.41406 194.08994 L650.39063 190.21490 L651.36719 185.44418 L652.34375 179.82495 L653.32031 173.41301 L654.29688 166.27151 L655.27344 158.47256 L656.25000 150.09311 L657.22656 141.21645 L658.20313 131.93079 L659.17969 122.32767 L660.15625 112.50399 L661.13281 102.55667 L662.10938 92.58456 L663.08594 82.68601 L664.06250 72.96091 L665.03906 63.50515 L666.01563 54.41269 L666.99219 45.77390 L667.96875 37.67405 L668.94531 30.19484 L669.92188 23.41000 L670.89844 17.38692 L671.87500 12.18549 L672.85156 7.85709 L673.82813 4.44540 L674.80469 1.98396 L675.78125 0.49723 L676.75781 -0.00001 L677.73438 0.49726 L678.71094 1.98402 L679.68750 4.44548 L680.66406 7.85720 L681.64063 12.18563 L682.61719 17.38709 L683.59375 23.41018 L684.57031 30.19505 L685.54688 37.67487 L686.52344 45.77415 L687.50000 54.41295 L688.47656 63.50542 L689.45313 72.96119 L690.42969 82.68705 L691.40625 92.58485 L692.38281 102.55696 L693.35938 112.50428 L694.33594 122.32795 L695.31250 131.93106 L696.28906 141.21671 L697.26563 150.09335 L698.24219 158.47279 L699.21875 166.27231 L700.19531 173.41319 L701.17188 179.82512 L702.14844 185.44435 L703.12500 190.21503 L704.10156 194.09003 L705.07813 197.03024 L706.05469 199.00677 L707.03125 199.99997 L708.00781 199.99994 L708.98438 199.00668 L709.96094 197.03011 L710.93750 194.08984 L711.91406 190.21513 L712.89063 185.44406 L713.86719 179.82478 L714.84375 173.41283 L715.82031 166.27190 L716.79688 158.47298 L717.77344 150.09288 L718.75000 141.21620 L719.72656 131.93054 L720.70313 122.32816 L721.67969 112.50374 L722.65625 102.55642 L723.63281 92.58430 L724.60938 82.68652 L725.58594 72.96140 L726.56250 63.50491 L727.53906 54.41246 L728.51563 45.77369 L729.49219 37.67444 L730.46875 30.19466 L731.44531 23.40983 L732.42188 17.38678 L733.39844 12.18537 L734.37500 7.85729 L735.35156 4.44532 L736.32813 1.98391 L737.30469 0.49721 L738.28125 -0.00001 L739.25781 0.49721 L740.23438 1.98406 L741.21094 4.44556 L742.18750 7.85730 L743.16406 12.18539 L744.14063 17.38723 L745.11719 23.41035 L746.09375 30.19524 L747.07031 37.67447 L748.04688 45.77372 L749.02344 54.41318 L750.00000 63.50566 L750.97656 72.96144 L751.95313 82.68655 L752.92969 92.58511 L753.90625 102.55722 L754.88281 112.50453 L755.85938 122.32819 L756.83594 131.93057 L757.81250 141.21693 L758.78906 150.09358 L759.76563 158.47299 L760.74219 166.27193 L761.71875 173.41286 L762.69531 179.82527 L763.67188 185.44447 L764.64844 190.21515 L765.62500 194.08986 L766.60156 197.03030 L767.57813 199.00681 L768.55469 199.99998 L769.53125 199.99997 L770.50781 199.00676 L771.48438 197.03004 L772.46094 194.08975 L773.43750 190.21501 L774.41406 185.44432 L775.39063 179.82463 L776.36719 173.41264 L777.34375 166.27171 L778.32031 158.47276 L779.29688 150.09332 L780.27344 141.21597 L781.25000 131.93030 L782.22656 122.32791 L783.20313 112.50424 L784.17969 102.55692 L785.15625 92.58405 L786.13281 82.68626 L787.10938 72.96116 L788.08594 63.50538 L789.06250 54.41224 L790.03906 45.77347 L791.01563 37.67424 L791.99219 30.19502 L792.96875 23.41016 L793.94531 17.38664 L794.92188 12.18525 L795.89844 7.85719 L796.87500 4.44547 L797.85156 1.98386 L798.82813 0.49718 L799.80469 -0.00001 L800.78125 0.49724 L801.75781 1.98397 L802.73438 4.44563 L803.71094 7.85740 L804.68750 12.18551 L805.66406 17.38695 L806.64063 23.41002 L807.61719 30.19542 L808.59375 37.67467 L809.57031 45.77394 L810.54688 54.41273 L811.52344 63.50589 L812.50000 72.96169 L813.47656 82.68681 L814.45313 92.58460 L815.42969 102.55671 L816.40625 112.50479 L817.38281 122.32845 L818.35938 131.93082 L819.33594 141.21648 L820.31250 150.09314 L821.28906 158.47321 L822.26563 166.27213 L823.24219 173.41302 L824.21875 179.82497 L825.19531 185.44461 L826.17188 190.21526 L827.14844 194.08995 L828.12500 197.03018 L829.10156 199.00673 L830.07813 200.00000 L831.05469 199.99995 L832.03125 199.00671 L833.00781 197.03017 L833.98438 194.08966 L834.96094 190.21490 L835.93750 185.44418 L836.91406 179.82494 L837.89063 173.41299 L838.86719 166.27151 L839.84375 158.47255 L840.82031 150.09309 L841.79688 141.21643 L842.77344 131.93077 L843.75000 122.32766 L844.72656 112.50399 L845.70313 102.55667 L846.67969 92.58456 L847.65625 82.68601 L848.63281 72.96091 L849.60938 63.50514 L850.58594 54.41269 L851.56250 45.77390 L852.53906 37.67404 L853.51563 30.19484 L854.49219 23.40999 L855.46875 17.38692 L856.44531 12.18512 L857.42188 7.85709 L858.39844 4.44540 L859.37500 1.98396 L860.35156 0.49723 L861.32813 -0.00001 L862.30469 0.49726 L863.28125 1.98402 L864.25781 4.44548 L865.23438 7.85720 L866.21094 12.18563 L867.18750 17.38709 L868.16406 23.41019 L869.14063 30.19505 L870.11719 37.67487 L871.09375 45.77415 L872.07031 54.41295 L873.04688 63.50542 L874.02344 72.96120 L875.00000 82.68706 L875.97656 92.58485 L876.95313 102.55697 L877.92969 112.50429 L878.90625 122.32870 L879.88281 131.93106 L880.85938 141.21671 L881.83594 150.09337 L882.81250 158.47279 L883.78906 166.27231 L884.76563 173.41319 L885.74219 179.82512 L886.71875 185.44435 L887.69531 190.21503 L888.67188 194.09003 L889.64844 197.03024 L890.62500 199.00677 L891.60156 199.99997 L892.57813 199.99994 L893.55469 199.00668 L894.53125 197.03011 L895.50781 194.08984 L896.48438 190.21513 L897.46094 185.44406 L898.43750 179.82478 L899.41406 173.41283 L900.39063 166.27190 L901.36719 158.47234 L902.34375 150.09288 L903.32031 141.21620 L904.29688 131.93054 L905.27344 122.32816 L906.25000 112.50373 L907.22656 102.55641 L908.20313 92.58430 L909.17969 82.68651 L910.15625 72.96140 L911.13281 63.50491 L912.10938 54.41246 L913.08594 45.77369 L914.06250 37.67444 L915.03906 30.19466 L916.01563 23.40983 L916.99219 17.38678 L917.96875 12.18537 L918.94531 7.85729 L919.92188 4.44532 L920.89844 1.98391 L921.87500 0.49721 L922.85156 -0.00001 L923.82813 0.49729 L924.80469 1.98407 L925.78125 4.44556 L926.75781 7.85731 L927.73438 12.18539 L928.71094 17.38723 L929.68750 23.41035 L930.66406 30.19524 L931.64063 37.67447 L932.61719 45.77372 L933.59375 54.41318 L934.57031 63.50566 L935.54688 72.96144 L936.52344 82.68655 L937.50000 92.58511 L938.47656 102.55722 L939.45313 112.50454 L940.42969 122.32820 L941.40625 131.93059 L942.38281 141.21695 L943.35938 150.09358 L944.33594 158.47301 L945.31250 166.27193 L946.28906 173.41338 L947.26563 179.82527 L948.24219 185.44449 L949.21875 190.21515 L950.19531 194.08986 L951.17188 197.03030 L952.14844 199.00681 L953.12500 199.99998 L954.10156 199.99997 L955.07813 199.00676 L956.05469 197.03004 L957.03125 194.08975 L958.00781 190.21501 L958.98438 185.44432 L959.96094 179.82463 L960.93750 173.41264 L961.91406 166.27170 L962.89063 158.47275 L963.86719 150.09332 L964.84375 141.21597 L965.82031 131.93030 L966.79688 122.32790 L967.77344 112.50424 L968.75000 102.55616 L969.72656 92.58405 L970.70313 82.68626 L971.67969 72.96115 L972.65625 63.50538 L973.63281 54.41223 L974.60938 45.77347 L975.58594 37.67424 L976.56250 30.19502 L977.53906 23.41015 L978.51563 17.38663 L979.49219 12.18524 L980.46875 7.85719 L981.44531 4.44547 L982.42188 1.98386 L983.39844 0.49718 L984.37500 -0.00001 L985.35156 0.49724 L986.32813 1.98397 L987.30469 4.44564 L988.28125 7.85740 L989.25781 12.18551 L990.23438 17.38695 L991.21094 23.41051 L992.18750 30.19542 L993.16406 37.67467 L994.14063 45.77394 L995.11719 54.41273 L996.09375 63.50590 L997.07031 72.96169 L998.04688 82.68681 L999.02344 92.58461" /><path fill="none" stroke="#000000" d="M0 300.00000  L0.00000 300.00000  L0.97656 300.00000  L1.95313 300.00000  L2.92969 300.00000  L3.90625 300.00000  L4.88281 300.00000  L5.85938 300.00000  L6.83594 300.00000  L7.81250 300.00000  L8.78906 300.00000  L9.76563 300.00000  L10.74219 300.00000  L11.71875 300.00000  L12.69531 300.00000  L13.67188 300.00000  L14.64844 300.00000  L15.62500 300.00000  L16.60156 300.00000  L17.57813 300.00000  L18.55469 300.00000  L19.53125 300.00000  L20.50781 300.00000  L21.48438 300.00000  L22.46094 300.00000  L23.43750 300.00000  L24.41406 300.00000  L25.39063 300.00000  L26.36719 300.00000  L27.34375 300.00000  L28.32031 300.00000  L29.29688 300.00000  L30.27344 300.00000  L31.25000 300.00000  L32.22656 300.00000  L33.20313 300.00000  L34.17969 300.00000  L35.15625 300.00000  L36.13281 300.00000  L37.10938 300.00000  L38.08594 300.00000  L39.06250 300.00000  L40.03906 300.00000  L41.01563 300.00000  L41.99219 300.00000  L42.96875 300.00000  L43.94531 300.00000  L44.92188 300.00000  L45.89844 300.00000  L46.87500 300.00000  L47.85156 300.00000  L48.82813 300.00000  L49.80469 300.00000  L50.78125 300.00000  L51.75781 300.00000  L52.73438 300.00000  L53.71094 300.00000  L54.68750 300.00000  L55.66406 300.00000  L56.64063 300.00000  L57.61719 300.00000  L58.59375 300.00000  L59.57031 300.00000  L60.54688 300.00000  L61.52344 300.00000  L62.50000 300.00000  L63.47656 300.00000  L64.45313 300.00000  L65.42969 300.00000  L66.40625 300.00000  L67.38281 300.00000  L68.35938 300.00000  L69.33594 300.00000  L70.31250 300.00000  L71.28906 300.00000  L72.26563 300.00000  L73.24219 300.00000  L74.21875 300.00000  L75.19531 300.00000  L76.17188 300.00000  L77.14844 300.00000  L78.12500 300.00000  L79.10156 300.00000  L80.07813 300.00000  L81.05469 300.00000  L82.03125 300.00000  L83.00781 300.00000  L83.98438 300.00000  L84.96094 300.00000  L85.93750 300.00000  L86.91406 300.00000  L87.89063 300.00000  L88.86719 300.00000  L89.84375 300.00000  L90.82031 300.00000  L91.79688 300.00000  L92.77344 300.00000  L93.75000 300.00000  L94.72656 300.00000  L95.70313 300.00000  L96.67969 300.00000  L97.65625 300.00000  L98.63281 300.00000  L99.60938 300.00000  L100.58594 300.00000  L101.56250 300.00000  L102.53906 300.00000  L103.51563 300.00000  L104.49219 300.00000  L105.46875 300.00000  L106.44531 300.00000  L107.42188 300.00000  L108.39844 300.00000  L109.37500 300.00000  L110.35156 300.00000  L111.32813 300.00000  L112.30469 300.00000  L113.28125 300.00000  L114.25781 300.00000  L115.23438 300.00000  L116.21094 300.00000  L117.18750 300.00000  L118.16406 300.00000  L119.14063 300.00000  L120.11719 300.00000  L121.09375 300.00000  L122.07031 300.00000  L123.04688 300.00000  L124.02344 300.00000  L125.00000 300.00000  L125.97656 300.00000  L126.95313 300.00000  L127.92969 300.00000  L128.90625 300.00000  L129.88281 300.00000  L130.85938 300.00000  L131.83594 300.00000  L132.81250 300.00000  L133.78906 300.00000  L134.76563 300.00000  L135.74219 300.00000  L136.71875 300.00000  L137.69531 300.00000  L138.67188 300.00000  L139.64844 300.00000  L140.62500 300.00000  L141.60156 300.00000  L142.57813 300.00000  L143.55469 300.00000  L144.53125 300.00000  L145.50781 300.00000  L146.48438 300.00000  L147.46094 300.00000  L148.43750 300.00000  L149.41406 300.00000  L150.39063 300.00000  L151.36719 300.00000  L152.34375 300.00000  L153.32031 300.00000  L154.29688 300.00000  L155.27344 300.00000  L156.25000 300.00000  L157.22656 300.00000  L158.20313 300.00000  L159.17969 300.00000  L160.15625 300.00000  L161.13281 300.00000  L162.10938 300.00000  L163.08594 300.00000  L164.06250 300.00000  L165.03906 300.00000  L166.01563 300.00000  L166.99219 300.00000  L167.96875 300.00000  L168.94531 300.00000  L169.92188 300.00000  L170.89844 300.00000  L171.87500 300.00000  L172.85156 300.00000  L173.82813 300.00000  L174.80469 300.00000  L175.78125 300.00000  L176.75781 300.00000  L177.73438 300.00000  L178.71094 300.00000  L179.68750 300.00000  L180.66406 300.00000  L181.64063 300.00000  L182.61719 300.00000  L183.59375 300.00000  L184.57031 300.00000  L185.54688 300.00000  L186.52344 300.00000  L187.50000 300.00000  L188.47656 300.00000  L189.45313 300.00000  L190.42969 300.00000  L191.40625 300.00000  L192.38281 300.00000  L193.35938 300.00000  L194.33594 300.00000  L195.31250 300.00000  L196.28906 300.00000  L197.26563 300.00000  L198.24219 300.00000  L199.21875 300.00000  L200.19531 300.00000  L201.17188 300.00000  L202.14844 300.00000  L203.12500 300.00000  L204.10156 300.00000  L205.07813 300.00000  L206.05469 300.00000  L207.03125 300.00000  L208.00781 300.00000  L208.98438 300.00000  L209.96094 300.00000  L210.93750 300.00000  L211.91406 300.00000  L212.89063 300.00000  L213.86719 300.00000  L214.84375 300.00000  L215.82031 300.00000  L216.79688 300.00000  L217.77344 300.00000  L218.75000 300.00000  L219.72656 300.00000  L220.70313 300.00000  L221.67969 300.00000  L222.65625 300.00000  L223.63281 300.00000  L224.60938 300.00000  L225.58594 300.00000  L226.56250 300.00000  L227.53906 300.00000  L228.51563 300.00000  L229.49219 300.00000  L230.46875 300.00000  L231.44531 300.00000  L232.42188 300.00000  L233.39844 300.00000  L234.37500 300.00000  L235.35156 300.00000  L236.32813 300.00000  L237.30469 300.00000  L238.28125 300.00000  L239.25781 300.00000  L240.23438 300.00000  L241.21094 300.00000  L242.18750 300.00000  L243.16406 300.00000  L244.14063 300.00000  L245.11719 300.00000  L246.09375 300.00000  L247.07031 300.00000  L248.04688 300.00000  L249.02344 300.00000  L250.00000 300.00000  L250.97656 300.00000  L251.95313 300.00000  L252.92969 300.00000  L253.90625 300.00000  L254.88281 300.00000  L255.85938 300.00000  L256.83594 300.00000  L257.81250 300.00000  L258.78906 300.00000  L259.76563 300.00000  L260.74219 300.00000  L261.71875 300.00000  L262.69531 300.00000  L263.67188 300.00000  L264.64844 300.00000  L265.62500 300.00000  L266.60156 300.00000  L267.57813 300.00000  L268.55469 300.00000  L269.53125 300.00000  L270.50781 300.00000  L271.48438 300.00000  L272.46094 300.00000  L273.43750 300.00000  L274.41406 300.00000  L275.39063 300.00000  L276.36719 300.00000  L277.34375 300.00000  L278.32031 300.00000  L279.29688 300.00000  L280.27344 300.00000  L281.25000 300.00000  L282.22656 300.00000  L283.20313 300.00000  L284.17969 300.00000  L285.15625 300.00000  L286.13281 300.00000  L287.10938 300.00000  L288.08594 300.00000  L289.06250 300.00000  L290.03906 300.00000  L291.01563 300.00000  L291.99219 300.00000  L292.96875 300.00000  L293.94531 300.00000  L294.92188 300.00000  L295.89844 300.00000  L296.87500 300.00000  L297.85156 300.00000  L298.82813 300.00000  L299.80469 300.00000  L300.78125 300.00000  L301.75781 300.00000  L302.73438 300.00000  L303.71094 300.00000  L304.68750 300.00000  L305.66406 300.00000  L306.64063 300.00000  L307.61719 300.00000  L308.59375 300.00000  L309.57031 300.00000  L310.54688 300.00000  L311.52344 300.00000  L312.50000 300.00000  L313.47656 300.00000  L314.45313 300.00000  L315.42969 300.00000  L316.40625 300.00000  L317.38281 300.00000  L318.35938 300.00000  L319.33594 300.00000  L320.31250 300.00000  L321.28906 300.00000  L322.26563 300.00000  L323.24219 300.00000  L324.21875 300.00000  L325.19531 300.00000  L326.17188 300.00000  L327.14844 300.00000  L328.12500 300.00000  L329.10156 300.00000  L330.07813 300.00000  L331.05469 300.00000  L332.03125 300.00000  L333.00781 300.00000  L333.98438 300.00000  L334.96094 300.00000  L335.93750 300.00000  L336.91406 300.00000  L337.89063 300.00000  L338.86719 300.00000  L339.84375 300.00000  L340.82031 300.00000  L341.79688 300.00000  L342.77344 300.00000  L343.75000 300.00000  L344.72656 300.00000  L345.70313 300.00000  L346.67969 300.00000  L347.65625 300.00000  L348.63281 300.00000  L349.60938 300.00000  L350.58594 300.00000  L351.56250 300.00000  L352.53906 300.00000  L353.51563 300.00000  L354.49219 300.00000  L355.46875 300.00000  L356.44531 300.00000  L357.42188 300.00000  L358.39844 300.00000  L359.37500 300.00000  L360.35156 300.00000  L361.32813 300.00000  L362.30469 300.00000  L363.28125 300.00000  L364.25781 300.00000  L365.23438 300.00000  L366.21094 300.00000  L367.18750 300.00000  L368.16406 300.00000  L369.14063 300.00000  L370.11719 300.00000  L371.09375 300.00000  L372.07031 300.00000  L373.04688 300.00000  L374.02344 300.00000  L375.00000 300.00000  L375.97656 300.00000  L376.95313 300.00000  L377.92969 300.00000  L378.90625 300.00000  L379.88281 300.00000  L380.85938 300.00000  L381.83594 300.00000  L382.81250 300.00000  L383.78906 300.00000  L384.76563 300.00000  L385.74219 300.00000  L386.71875 300.00000  L387.69531 300.00000  L388.67188 300.00000  L389.64844 300.00000  L390.62500 300.00000  L391.60156 300.00000  L392.57813 300.00000  L393.55469 300.00000  L394.53125 300.00000  L395.50781 300.00000  L396.48438 300.00000  L397.46094 300.00000  L398.43750 300.00000  L399.41406 300.00000  L400.39063 300.00000  L401.36719 300.00000  L402.34375 300.00000  L403.32031 300.00000  L404.29688 300.00000  L405.27344 300.00000  L406.25000 300.00000  L407.22656 300.00000  L408.20313 300.00000  L409.17969 300.00000  L410.15625 300.00000  L411.13281 300.00000  L412.10938 300.00000  L413.08594 300.00000  L414.06250 300.00000  L415.03906 300.00000  L416.01563 300.00000  L416.99219 300.00000  L417.96875 300.00000  L418.94531 300.00000  L419.92188 300.00000  L420.89844 300.00000  L421.87500 300.00000  L422.85156 300.00000  L423.82813 300.00000  L424.80469 300.00000  L425.78125 300.00000  L426.75781 300.00000  L427.73438 300.00000  L428.71094 300.00000  L429.68750 300.00000  L430.66406 300.00000  L431.64063 300.00000  L432.61719 300.00000  L433.59375 300.00000  L434.57031 300.00000  L435.54688 300.00000  L436.52344 300.00000  L437.50000 300.00000  L438.47656 300.00000  L439.45313 300.00000  L440.42969 300.00000  L441.40625 300.00000  L442.38281 300.00000  L443.35938 300.00000  L444.33594 300.00000  L445.31250 300.00000  L446.28906 300.00000  L447.26563 300.00000  L448.24219 300.00000  L449.21875 300.00000  L450.19531 300.00000  L451.17188 300.00000  L452.14844 300.00000  L453.12500 300.00000  L454.10156 300.00000  L455.07813 300.00000  L456.05469 300.00000  L457.03125 300.00000  L458.00781 300.00000  L458.98438 300.00000  L459.96094 300.00000  L460.93750 300.00000  L461.91406 300.00000  L462.89063 300.00000  L463.86719 300.00000  L464.84375 300.00000  L465.82031 300.00000  L466.79688 300.00000  L467.77344 300.00000  L468.75000 300.00000  L469.72656 300.00000  L470.70313 300.00000  L471.67969 300.00000  L472.65625 300.00000  L473.63281 300.00000  L474.60938 300.00000  L475.58594 300.00000  L476.56250 300.00000  L477.53906 300.00000  L478.51563 300.00000  L479.49219 300.00000  L480.46875 300.00000  L481.44531 300.00000  L482.42188 300.00000  L483.39844 300.00000  L484.37500 300.00000  L485.35156 300.00000  L486.32813 300.00000  L487.30469 300.00000  L488.28125 300.00000  L489.25781 300.00000  L490.23438 300.00000  L491.21094 300.00000  L492.18750 300.00000  L493.16406 300.00000  L494.14063 300.00000  L495.11719 300.00000  L496.09375 300.00000  L497.07031 300.00000  L498.04688 300.00000  L499.02344 300.00000  L500.00000 300.00000  L500.97656 300.00000  L501.95313 300.00000  L502.92969 300.00000  L503.90625 300.00000  L504.88281 300.00000  L505.85938 300.00000  L506.83594 300.00000  L507.81250 300.00000  L508.78906 300.00000  L509.76563 300.00000  L510.74219 300.00000  L511.71875 300.00000  L512.69531 300.00000  L513.67188 300.00000  L514.64844 300.00000  L515.62500 300.00000  L516.60156 300.00000  L517.57813 300.00000  L518.55469 300.00000  L519.53125 300.00000  L520.50781 300.00000  L521.48438 300.00000  L522.46094 300.00000  L523.43750 300.00000  L524.41406 300.00000  L525.39063 300.00000  L526.36719 300.00000  L527.34375 300.00000  L528.32031 300.00000  L529.29688 300.00000  L530.27344 300.00000  L531.25000 300.00000  L532.22656 300.00000  L533.20313 300.00000  L534.17969 300.00000  L535.15625 300.00000  L536.13281 300.00000  L537.10938 300.00000  L538.08594 300.00000  L539.06250 300.00000  L540.03906 300.00000  L541.01563 300.00000  L541.99219 300.00000  L542.96875 300.00000  L543.94531 300.00000  L544.92188 300.00000  L545.89844 300.00000  L546.87500 300.00000  L547.85156 300.00000  L548.82813 300.00000  L549.80469 300.00000  L550.78125 300.00000  L551.75781 300.00000  L552.73438 300.00000  L553.71094 300.00000  L554.68750 300.00000  L555.66406 300.00000  L556.64063 300.00000  L557.61719 300.00000  L558.59375 300.00000  L559.57031 300.00000  L560.54688 300.00000  L561.52344 300.00000  L562.50000 300.00000  L563.47656 300.00000  L564.45313 300.00000  L565.42969 300.00000  L566.40625 300.00000  L567.38281 300.00000  L568.35938 300.00000  L569.33594 300.00000  L570.31250 300.00000  L571.28906 300.00000  L572.26563 300.00000  L573.24219 300.00000  L574.21875 300.00000  L575.19531 300.00000  L576.17188 300.00000  L577.14844 300.00000  L578.12500 300.00000  L579.10156 300.00000  L580.07813 300.00000  L581.05469 300.00000  L582.03125 300.00000  L583.00781 300.00000  L583.98438 300.00000  L584.96094 300.00000  L585.93750 300.00000  L586.91406 300.00000  L587.89063 300.00000  L588.86719 300.00000  L589.84375 300.00000  L590.82031 300.00000  L591.79688 300.00000  L592.77344 300.00000  L593.75000 300.00000  L594.72656 300.00000  L595.70313 300.00000  L596.67969 300.00000  L597.65625 300.00000  L598.63281 300.00000  L599.60938 300.00000  L600.58594 300.00000  L601.56250 300.00000  L602.53906 300.00000  L603.51563 300.00000  L604.49219 300.00000  L605.46875 300.00000  L606.44531 300.00000  L607.42188 300.00000  L608.39844 300.00000  L609.37500 300.00000  L610.35156 300.00000  L611.32813 300.00000  L612.30469 300.00000  L613.28125 300.00000  L614.25781 300.00000  L615.23438 300.00000  L616.21094 300.00000  L617.18750 300.00000  L618.16406 300.00000  L619.14063 300.00000  L620.11719 300.00000  L621.09375 300.00000  L622.07031 300.00000  L623.04688 300.00000  L624.02344 300.00000  L625.00000 300.00000  L625.97656 300.00000  L626.95313 300.00000  L627.92969 300.00000  L628.90625 300.00000  L629.88281 300.00000  L630.85938 300.00000  L631.83594 300.00000  L632.81250 300.00000  L633.78906 300.00000  L634.76563 300.00000  L635.74219 300.00000  L636.71875 300.00000  L637.69531 300.00000  L638.67188 300.00000  L639.64844 300.00000  L640.62500 300.00000  L641.60156 300.00000  L642.57813 300.00000  L643.55469 300.00000  L644.53125 300.00000  L645.50781 300.00000  L646.48438 300.00000  L647.46094 300.00000  L648.43750 300.00000  L649.41406 300.00000  L650.39063 300.00000  L651.36719 300.00000  L652.34375 300.00000  L653.32031 300.00000  L654.29688 300.00000  L655.27344 300.00000  L656.25000 300.00000  L657.22656 300.00000  L658.20313 300.00000  L659.17969 300.00000  L660.15625 300.00000  L661.13281 300.00000  L662.10938 300.00000  L663.08594 300.00000  L664.06250 300.00000  L665.03906 300.00000  L666.01563 300.00000  L666.99219 300.00000  L667.96875 300.00000  L668.94531 300.00000  L669.92188 300.00000  L670.89844 300.00000  L671.87500 300.00000  L672.85156 300.00000  L673.82813 300.00000  L674.80469 300.00000  L675.78125 300.00000  L676.75781 300.00000  L677.73438 300.00000  L678.71094 300.00000  L679.68750 300.00000  L680.66406 300.00000  L681.64063 300.00000  L682.61719 300.00000  L683.59375 300.00000  L684.57031 300.00000  L685.54688 300.00000  L686.52344 300.00000  L687.50000 300.00000  L688.47656 300.00000  L689.45313 300.00000  L690.42969 300.00000  L691.40625 300.00000  L692.38281 300.00000  L693.35938 300.00000  L694.33594 300.00000  L695.31250 300.00000  L696.28906 300.00000  L697.26563 300.00000  L698.24219 300.00000  L699.21875 300.00000  L700.19531 300.00000  L701.17188 300.00000  L702.14844 300.00000  L703.12500 300.00000  L704.10156 300.00000  L705.07813 300.00000  L706.05469 300.00000  L707.03125 300.00000  L708.00781 300.00000  L708.98438 300.00000  L709.96094 300.00000  L710.93750 300.00000  L711.91406 300.00000  L712.89063 300.00000  L713.86719 300.00000  L714.84375 300.00000  L715.82031 300.00000  L716.79688 300.00000  L717.77344 300.00000  L718.75000 300.00000  L719.72656 300.00000  L720.70313 300.00000  L721.67969 300.00000  L722.65625 300.00000  L723.63281 300.00000  L724.60938 300.00000  L725.58594 300.00000  L726.56250 300.00000  L727.53906 300.00000  L728.51563 300.00000  L729.49219 300.00000  L730.46875 300.00000  L731.44531 300.00000  L732.42188 300.00000  L733.39844 300.00000  L734.37500 300.00000  L735.35156 300.00000  L736.32813 300.00000  L737.30469 300.00000  L738.28125 300.00000  L739.25781 300.00000  L740.23438 300.00000  L741.21094 300.00000  L742.18750 300.00000  L743.16406 300.00000  L744.14063 300.00000  L745.11719 300.00000  L746.09375 300.00000  L747.07031 300.00000  L748.04688 300.00000  L749.02344 300.00000  L750.00000 300.00000  L750.97656 300.00000  L751.95313 300.00000  L752.92969 300.00000  L753.90625 300.00000  L754.88281 300.00000  L755.85938 300.00000  L756.83594 300.00000  L757.81250 300.00000  L758.78906 300.00000  L759.76563 300.00000  L760.74219 300.00000  L761.71875 300.00000  L762.69531 300.00000  L763.67188 300.00000  L764.64844 300.00000  L765.62500 300.00000  L766.60156 300.00000  L767.57813 300.00000  L768.55469 300.00000  L769.53125 300.00000  L770.50781 300.00000  L771.48438 300.00000  L772.46094 300.00000  L773.43750 300.00000  L774.41406 300.00000  L775.39063 300.00000  L776.36719 300.00000  L777.34375 300.00000  L778.32031 300.00000  L779.29688 300.00000  L780.27344 300.00000  L781.25000 300.00000  L782.22656 300.00000  L783.20313 300.00000  L784.17969 300.00000  L785.15625 300.00000  L786.13281 300.00000  L787.10938 300.00000  L788.08594 300.00000  L789.06250 300.00000  L790.03906 300.00000  L791.01563 300.00000  L791.99219 300.00000  L792.96875 300.00000  L793.94531 300.00000  L794.92188 300.00000  L795.89844 300.00000  L796.87500 300.00000  L797.85156 300.00000  L798.82813 300.00000  L799.80469 300.00000  L800.78125 300.00000  L801.75781 300.00000  L802.73438 300.00000  L803.71094 300.00000  L804.68750 300.00000  L805.66406 300.00000  L806.64063 300.00000  L807.61719 300.00000  L808.59375 300.00000  L809.57031 300.00000  L810.54688 300.00000  L811.52344 300.00000  L812.50000 300.00000  L813.47656 300.00000  L814.45313 300.00000  L815.42969 300.00000  L816.40625 300.00000  L817.38281 300.00000  L818.35938 300.00000  L819.33594 300.00000  L820.31250 300.00000  L821.28906 300.00000  L822.26563 300.00000  L823.24219 300.00000  L824.21875 300.00000  L825.19531 300.00000  L826.17188 300.00000  L827.14844 300.00000  L828.12500 300.00000  L829.10156 300.00000  L830.07813 300.00000  L831.05469 300.00000  L832.03125 300.00000  L833.00781 300.00000  L833.98438 300.00000  L834.96094 300.00000  L835.93750 300.00000  L836.91406 300.00000  L837.89063 300.00000  L838.86719 300.00000  L839.84375 300.00000  L840.82031 300.00000  L841.79688 300.00000  L842.77344 300.00000  L843.75000 300.00000  L844.72656 300.00000  L845.70313 300.00000  L846.67969 300.00000  L847.65625 300.00000  L848.63281 300.00000  L849.60938 300.00000  L850.58594 300.00000  L851.56250 300.00000  L852.53906 300.00000  L853.51563 300.00000  L854.49219 300.00000  L855.46875 300.00000  L856.44531 300.00000  L857.42188 300.00000  L858.39844 300.00000  L859.37500 300.00000  L860.35156 300.00000  L861.32813 300.00000  L862.30469 300.00000  L863.28125 300.00000  L864.25781 300.00000  L865.23438 300.00000  L866.21094 300.00000  L867.18750 300.00000  L868.16406 300.00000  L869.14063 300.00000  L870.11719 300.00000  L871.09375 300.00000  L872.07031 300.00000  L873.04688 300.00000  L874.02344 300.00000  L875.00000 300.00000  L875.97656 300.00000  L876.95313 300.00000  L877.92969 300.00000  L878.90625 300.00000  L879.88281 300.00000  L880.85938 300.00000  L881.83594 300.00000  L882.81250 300.00000  L883.78906 300.00000  L884.76563 300.00000  L885.74219 300.00000  L886.71875 300.00000  L887.69531 300.00000  L888.67188 300.00000  L889.64844 300.00000  L890.62500 300.00000  L891.60156 300.00000  L892.57813 300.00000  L893.55469 300.00000  L894.53125 300.00000  L895.50781 300.00000  L896.48438 300.00000  L897.46094 300.00000  L898.43750 300.00000  L899.41406 300.00000  L900.39063 300.00000  L901.36719 300.00000  L902.34375 300.00000  L903.32031 300.00000  L904.29688 300.00000  L905.27344 300.00000  L906.25000 300.00000  L907.22656 300.00000  L908.20313 300.00000  L909.17969 300.00000  L910.15625 300.00000  L911.13281 300.00000  L912.10938 300.00000  L913.08594 300.00000  L914.06250 300.00000  L915.03906 300.00000  L916.01563 300.00000  L916.99219 300.00000  L917.96875 300.00000  L918.94531 300.00000  L919.92188 300.00000  L920.89844 300.00000  L921.87500 300.00000  L922.85156 300.00000  L923.82813 300.00000  L924.80469 300.00000  L925.78125 300.00000  L926.75781 300.00000  L927.73438 300.00000  L928.71094 300.00000  L929.68750 300.00000  L930.66406 300.00000  L931.64063 300.00000  L932.61719 300.00000  L933.59375 300.00000  L934.57031 300.00000  L935.54688 300.00000  L936.52344 300.00000  L937.50000 300.00000  L938.47656 300.00000  L939.45313 300.00000  L940.42969 300.00000  L941.40625 300.00000  L942.38281 300.00000  L943.35938 300.00000  L944.33594 300.00000  L945.31250 300.00000  L946.28906 300.00000  L947.26563 300.00000  L948.24219 300.00000  L949.21875 300.00000  L950.19531 300.00000  L951.17188 300.00000  L952.14844 300.00000  L953.12500 300.00000  L954.10156 300.00000  L955.07813 300.00000  L956.05469 300.00000  L957.03125 300.00000  L958.00781 300.00000  L958.98438 300.00000  L959.96094 300.00000  L960.93750 300.00000  L961.91406 300.00000  L962.89063 300.00000  L963.86719 300.00000  L964.84375 300.00000  L965.82031 300.00000  L966.79688 300.00000  L967.77344 300.00000  L968.75000 300.00000  L969.72656 300.00000  L970.70313 300.00000  L971.67969 300.00000  L972.65625 300.00000  L973.63281 300.00000  L974.60938 300.00000  L975.58594 300.00000  L976.56250 300.00000  L977.53906 300.00000  L978.51563 300.00000  L979.49219 300.00000  L980.46875 300.00000  L981.44531 300.00000  L982.42188 300.00000  L983.39844 300.00000  L984.37500 300.00000  L985.35156 300.00000  L986.32813 300.00000  L987.30469 300.00000  L988.28125 300.00000  L989.25781 300.00000  L990.23438 300.00000  L991.21094 300.00000  L992.18750 300.00000  L993.16406 300.00000  L994.14063 300.00000  L995.11719 300.00000  L996.09375 300.00000  L997.07031 300.00000  L998.04688 300.00000  L999.02344 300.00000 " /></g><text x="1000.00000" dx="10" y="100.06218">[-0.99876;1.00000]</text><text x="1000.00000" dx="10" y="300.00000">[-0.00000;0.00000]</text></svg>