<svg xmlns="http://www.w3.org/2000/svg" version="1.1"><g stroke-width="0.6"><path fill="none" stroke="#000000" d="M0 199.99989 L1000.00000 199.99989" /><path fill="none" stroke="#000000" d="M0 295.01819 L1000.00000 295.01819" /><path fill="none" stroke="#000000" d="M500.00000 0 L500.00000 400.00000" /><path fill="none" stroke="#000000" d="M0 199.99989  L0.00000 199.99988 L0.97656 199.99989 L1.95313 199.99988 L2.92969 199.99988 L3.90625 199.99988 L4.88281 199.99988 L5.85938 199.99988 L6.83594 199.99988 L7.81250 199.99986 L8.78906 199.99988 L9.76563 199.99988 L10.74219 199.99986 L11.71875 199.99988 L12.69531 199.99986 L13.67188 199.99983 L14.64844 199.99980 L15.62500 0.00001 L16.60156 199.99998 L17.57813 199.99994 L18.55469 199.99989 L19.53125 199.99994 L20.50781 200.00000 L21.48438 199.99992 L22.46094 199.99989 L23.43750 199.99991 L24.41406 199.99989 L25.39063 199.99989 L26.36719 199.99989 L27.34375 199.99989 L28.32031 199.99989 L29.29688 199.99989 L30.27344 199.99989 L31.25000 199.99989 L32.22656 199.99989 L33.20313 199.99989 L34.17969 199.99989 L35.15625 199.99989 L36.13281 199.99989 L37.10938 199.99989 L38.08594 199.99989 L39.06250 199.99991 L40.03906 199.99989 L41.01563 199.99989 L41.99219 199.99989 L42.96875 199.99988 L43.94531 199.99991 L44.92188 199.99989 L45.89844 199.99989 L46.87500 199.99991 L47.85156 199.99989 L48.82813 199.99989 L49.80469 199.99991 L50.78125 199.99986 L51.75781 199.99982 L52.73438 199.99986 L53.71094 199.99991 L54.68750 199.99991 L55.66406 199.99985 L56.64063 199.99989 L57.61719 199.99983 L58.59375 199.99992 L59.57031 199.99989 L60.54688 199.99988 L61.52344 199.99991 L62.50000 199.99989 L63.47656 199.99988 L64.45313 199.99989 L65.42969 199.99989 L66.40625 199.99989 L67.38281 199.99989 L68.35938 199.99989 L69.33594 199.99989 L70.31250 199.99989 L71.28906 199.99989 L72.26563 199.99989 L73.24219 199.99989 L74.21875 199.99989 L75.19531 199.99989 L76.17188 199.99989 L77.14844 199.99989 L78.12500 199.99989 L79.10156 199.99989 L80.07813 199.99989 L81.05469 199.99989 L82.03125 199.99989 L83.00781 199.99988 L83.98438 199.99989 L84.96094 199.99989 L85.93750 199.99986 L86.91406 199.99994 L87.89063 199.99989 L88.86719 199.99994 L89.84375 199.99986 L90.82031 199.99989 L91.79688 199.99991 L92.77344 199.99991 L93.75000 199.99991 L94.72656 199.99988 L95.70313 199.99989 L96.67969 199.99989 L97.65625 199.99988 L98.63281 199.99989 L99.60938 199.99989 L100.58594 199.99989 L101.56250 199.99989 L102.53906 199.99989 L103.51563 199.99989 L104.49219 199.99989 L105.46875 199.99989 L106.44531 199.99989 L107.42188 199.99989 L108.39844 199.99989 L109.37500 199.99988 L110.35156 199.99989 L111.32813 199.99989 L112.30469 199.99989 L113.28125 199.99989 L114.25781 199.99989 L115.23438 199.99989 L116.21094 199.99989 L117.18750 199.99989 L118.16406 199.99989 L119.14063 199.99989 L120.11719 199.99989 L121.09375 199.99989 L122.07031 199.99989 L123.04688 199.99988 L124.02344 199.99986 L125.00000 199.99988 L125.97656 199.99989 L126.95313 199.99988 L127.92969 199.99991 L128.90625 199.99986 L129.88281 199.99989 L130.85938 199.99988 L131.83594 199.99989 L132.81250 199.99989 L133.78906 199.99989 L134.76563 199.99989 L135.74219 199.99989 L136.71875 199.99989 L137.69531 199.99989 L138.67188 199.99989 L139.64844 199.99989 L140.62500 199.99988 L141.60156 199.99989 L142.57813 199.99989 L143.55469 199.99989 L144.53125 199.99989 L145.50781 199.99989 L146.48438 199.99989 L147.46094 199.99989 L148.43750 199.99989 L149.41406 199.99989 L150.39063 199.99989 L151.36719 199.99989 L152.34375 199.99989 L153.32031 199.99989 L154.29688 199.99989 L155.27344 199.99989 L156.25000 199.99989 L157.22656 199.99989 L158.20313 199.99991 L159.17969 199.99988 L160.15625 199.99992 L161.13281 199.99988 L162.10938 199.99991 L163.08594 199.99989 L164.06250 199.99989 L165.03906 199.99991 L166.01563 199.99989 L166.99219 199.99989 L167.96875 199.99989 L168.94531 199.99989 L169.92188 199.99989 L170.89844 199.99989 L171.87500 199.99989 L172.85156 199.99989 L173.82813 199.99989 L174.80469 199.99989 L175.78125 199.99989 L176.75781 199.99989 L177.73438 199.99989 L178.71094 199.99989 L179.68750 199.99989 L180.66406 199.99989 L181.64063 199.99989 L182.61719 199.99989 L183.59375 199.99989 L184.57031 199.99989 L185.54688 199.99989 L186.52344 199.99989 L187.50000 199.99989 L188.47656 199.99989 L189.45313 199.99989 L190.42969 199.99989 L191.40625 199.99989 L192.38281 199.99989 L193.35938 199.99989 L194.33594 199.99989 L195.31250 199.99989 L196.28906 199.99988 L197.26563 199.99988 L198.24219 199.99989 L199.21875 199.99989 L200.19531 199.99988 L201.17188 199.99989 L202.14844 199.99988 L203.12500 199.99989 L204.10156 199.99989 L205.07813 199.99989 L206.05469 199.99989 L207.03125 199.99989 L208.00781 199.99988 L208.98438 199.99989 L209.96094 199.99989 L210.93750 199.99989 L211.91406 199.99989 L212.89063 199.99989 L213.86719 199.99989 L214.84375 199.99989 L215.82031 199.99989 L216.79688 199.99989 L217.77344 199.99989 L218.75000 199.99989 L219.72656 199.99988 L220.70313 199.99989 L221.67969 199.99989 L222.65625 199.99989 L223.63281 199.99989 L224.60938 199.99989 L225.58594 199.99989 L226.56250 199.99989 L227.53906 199.99989 L228.51563 199.99989 L229.49219 199.99989 L230.46875 199.99988 L231.44531 199.99991 L232.42188 199.99989 L233.39844 199.99991 L234.37500 199.99988 L235.35156 199.99989 L236.32813 199.99989 L237.30469 199.99989 L238.28125 199.99989 L239.25781 199.99989 L240.23438 199.99989 L241.21094 199.99989 L242.18750 199.99989 L243.16406 199.99989 L244.14063 199.99989 L245.11719 199.99989 L246.09375 199.99989 L247.07031 199.99989 L248.04688 199.99989 L249.02344 199.99989 L250.00000 199.99989 L250.97656 199.99989 L251.95313 199.99989 L252.92969 199.99989 L253.90625 199.99989 L254.88281 199.99989 L255.85938 199.99989 L256.83594 199.99989 L257.81250 199.99989 L258.78906 199.99989 L259.76563 199.99989 L260.74219 199.99989 L261.71875 199.99989 L262.69531 199.99989 L263.67188 199.99989 L264.64844 199.99989 L265.62500 199.99989 L266.60156 199.99989 L267.57813 199.99989 L268.55469 199.99988 L269.53125 199.99988 L270.50781 199.99989 L271.48438 199.99989 L272.46094 199.99989 L273.43750 199.99988 L274.41406 199.99989 L275.39063 199.99989 L276.36719 199.99989 L277.34375 199.99988 L278.32031 199.99989 L279.29688 199.99989 L280.27344 199.99989 L281.25000 199.99989 L282.22656 199.99989 L283.20313 199.99989 L284.17969 199.99989 L285.15625 199.99989 L286.13281 199.99989 L287.10938 199.99989 L288.08594 199.99989 L289.06250 199.99989 L290.03906 199.99989 L291.01563 199.99989 L291.99219 199.99989 L292.96875 199.99989 L293.94531 199.99989 L294.92188 199.99989 L295.89844 199.99989 L296.87500 199.99989 L297.85156 199.99989 L298.82813 199.99989 L299.80469 199.99989 L300.78125 199.99989 L301.75781 199.99989 L302.73438 199.99989 L303.71094 199.99988 L304.68750 199.99991 L305.66406 199.99989 L306.64063 199.99989 L307.61719 199.99989 L308.59375 199.99989 L309.57031 199.99991 L310.54688 199.99989 L311.52344 199.99989 L312.50000 199.99989 L313.47656 199.99989 L314.45313 199.99989 L315.42969 199.99989 L316.40625 199.99989 L317.38281 199.99989 L318.35938 199.99989 L319.33594 199.99989 L320.31250 199.99989 L321.28906 199.99989 L322.26563 199.99989 L323.24219 199.99989 L324.21875 199.99989 L325.19531 199.99989 L326.17188 199.99989 L327.14844 199.99989 L328.12500 199.99989 L329.10156 199.99989 L330.07813 199.99989 L331.05469 199.99989 L332.03125 199.99989 L333.00781 199.99989 L333.98438 199.99989 L334.96094 199.99989 L335.93750 199.99989 L336.91406 199.99989 L337.89063 199.99989 L338.86719 199.99989 L339.84375 199.99989 L340.82031 199.99988 L341.79688 199.99989 L342.77344 199.99989 L343.75000 199.99989 L344.72656 199.99988 L345.70313 199.99989 L346.67969 199.99988 L347.65625 199.99989 L348.63281 199.99989 L349.60938 199.99989 L350.58594 199.99989 L351.56250 199.99989 L352.53906 199.99988 L353.51563 199.99989 L354.49219 199.99989 L355.46875 199.99989 L356.44531 199.99989 L357.42188 199.99989 L358.39844 199.99989 L359.37500 199.99989 L360.35156 199.99989 L361.32813 199.99989 L362.30469 199.99989 L363.28125 199.99989 L364.25781 199.99988 L365.23438 199.99989 L366.21094 199.99989 L367.18750 199.99989 L368.16406 199.99989 L369.14063 199.99989 L370.11719 199.99989 L371.09375 199.99989 L372.07031 199.99989 L373.04688 199.99989 L374.02344 199.99989 L375.00000 199.99989 L375.97656 199.99989 L376.95313 199.99989 L377.92969 199.99991 L378.90625 199.99989 L379.88281 199.99989 L380.85938 199.99989 L381.83594 199.99989 L382.81250 199.99989 L383.78906 199.99989 L384.76563 199.99989 L385.74219 199.99989 L386.71875 199.99989 L387.69531 199.99989 L388.67188 199.99989 L389.64844 199.99989 L390.62500 199.99988 L391.60156 199.99989 L392.57813 199.99989 L393.55469 199.99989 L394.53125 199.99989 L395.50781 199.99989 L396.48438 199.99989 L397.46094 199.99989 L398.43750 199.99989 L399.41406 199.99989 L400.39063 199.99989 L401.36719 199.99989 L402.34375 199.99989 L403.32031 199.99989 L404.29688 199.99989 L405.27344 199.99989 L406.25000 199.99991 L407.22656 199.99989 L408.20313 199.99989 L409.17969 199.99989 L410.15625 199.99989 L411.13281 199.99989 L412.10938 199.99989 L413.08594 199.99989 L414.06250 199.99989 L415.03906 199.99989 L416.01563 199.99989 L416.99219 199.99989 L417.96875 199.99988 L418.94531 199.99989 L419.92188 199.99989 L420.89844 199.99989 L421.87500 199.99989 L422.85156 199.99989 L423.82813 199.99989 L424.80469 199.99989 L425.78125 199.99989 L426.75781 199.99989 L427.73438 199.99989 L428.71094 199.99989 L429.68750 199.99988 L430.66406 199.99989 L431.64063 199.99989 L432.61719 199.99989 L433.59375 199.99989 L434.57031 199.99989 L435.54688 199.99989 L436.52344 199.99989 L437.50000 199.99988 L438.47656 199.99989 L439.45313 199.99989 L440.42969 199.99989 L441.40625 199.99989 L442.38281 199.99989 L443.35938 199.99989 L444.33594 199.99989 L445.31250 199.99989 L446.28906 199.99989 L447.26563 199.99989 L448.24219 199.99989 L449.21875 199.99991 L450.19531 199.99989 L451.17188 199.99989 L452.14844 199.99989 L453.12500 199.99989 L454.10156 199.99989 L455.07813 199.99989 L456.05469 199.99989 L457.03125 199.99989 L458.00781 199.99989 L458.98438 199.99989 L459.96094 199.99989 L460.93750 199.99989 L461.91406 199.99989 L462.89063 199.99989 L463.86719 199.99989 L464.84375 199.99989 L465.82031 199.99989 L466.79688 199.99989 L467.77344 199.99989 L468.75000 199.99989 L469.72656 199.99989 L470.70313 199.99989 L471.67969 199.99989 L472.65625 199.99989 L473.63281 199.99989 L474.60938 199.99989 L475.58594 199.99989 L476.56250 199.99989 L477.53906 199.99991 L478.51563 199.99989 L479.49219 199.99989 L480.46875 199.99989 L481.44531 199.99989 L482.42188 199.99989 L483.39844 199.99989 L484.37500 199.99991 L485.35156 199.99988 L486.32813 199.99989 L487.30469 199.99989 L488.28125 199.99989 L489.25781 199.99988 L490.23438 199.99989 L491.21094 199.99988 L492.18750 199.99989 L493.16406 199.99989 L494.14063 199.99989 L495.11719 199.99989 L496.09375 199.99989 L497.07031 199.99989 L498.04688 199.99989 L499.02344 199.99989 L500.00000 199.99989 L500.97656 199.99989 L501.95313 199.99989 L502.92969 199.99989 L503.90625 199.99989 L504.88281 199.99989 L505.85938 199.99989 L506.83594 199.99989 L507.81250 199.99989 L508.78906 199.99988 L509.76563 199.99989 L510.74219 199.99988 L511.71875 199.99989 L512.69531 199.99989 L513.67188 199.99989 L514.64844 199.99988 L515.62500 199.99989 L516.60156 199.99989 L517.57813 199.99989 L518.55469 199.99989 L519.53125 199.99989 L520.50781 199.99989 L521.48438 199.99989 L522.46094 199.99991 L523.43750 199.99989 L524.41406 199.99989 L525.39063 199.99989 L526.36719 199.99989 L527.34375 199.99989 L528.32031 199.99989 L529.29688 199.99989 L530.27344 199.99989 L531.25000 199.99989 L532.22656 199.99989 L533.20313 199.99989 L534.17969 199.99989 L535.15625 199.99989 L536.13281 199.99989 L537.10938 199.99989 L538.08594 199.99989 L539.06250 199.99989 L540.03906 199.99989 L541.01563 199.99989 L541.99219 199.99989 L542.96875 199.99989 L543.94531 199.99989 L544.92188 199.99989 L545.89844 199.99989 L546.87500 199.99989 L547.85156 199.99989 L548.82813 199.99989 L549.80469 199.99989 L550.78125 199.99991 L551.75781 199.99989 L552.73438 199.99989 L553.71094 199.99989 L554.68750 199.99989 L555.66406 199.99989 L556.64063 199.99989 L557.61719 199.99989 L558.59375 199.99989 L559.57031 199.99989 L560.54688 199.99989 L561.52344 199.99989 L562.50000 199.99988 L563.47656 199.99989 L564.45313 199.99989 L565.42969 199.99989 L566.40625 199.99989 L567.38281 199.99989 L568.35938 199.99989 L569.33594 199.99989 L570.31250 199.99988 L571.28906 199.99989 L572.26563 199.99989 L573.24219 199.99989 L574.21875 199.99989 L575.19531 199.99989 L576.17188 199.99989 L577.14844 199.99989 L578.12500 199.99989 L579.10156 199.99989 L580.07813 199.99989 L581.05469 199.99989 L582.03125 199.99988 L583.00781 199.99989 L583.98438 199.99989 L584.96094 199.99989 L585.93750 199.99989 L586.91406 199.99989 L587.89063 199.99989 L588.86719 199.99989 L589.84375 199.99989 L590.82031 199.99989 L591.79688 199.99989 L592.77344 199.99989 L593.75000 199.99991 L594.72656 199.99989 L595.70313 199.99989 L596.67969 199.99989 L597.65625 199.99989 L598.63281 199.99989 L599.60938 199.99989 L600.58594 199.99989 L601.56250 199.99989 L602.53906 199.99989 L603.51563 199.99989 L604.49219 199.99989 L605.46875 199.99989 L606.44531 199.99989 L607.42188 199.99989 L608.39844 199.99989 L609.37500 199.99989 L610.35156 199.99989 L611.32813 199.99989 L612.30469 199.99989 L613.28125 199.99989 L614.25781 199.99989 L615.23438 199.99989 L616.21094 199.99989 L617.18750 199.99989 L618.16406 199.99989 L619.14063 199.99989 L620.11719 199.99989 L621.09375 199.99989 L622.07031 199.99991 L623.04688 199.99989 L624.02344 199.99989 L625.00000 199.99989 L625.97656 199.99989 L626.95313 199.99989 L627.92969 199.99989 L628.90625 199.99989 L629.88281 199.99989 L630.85938 199.99989 L631.83594 199.99989 L632.81250 199.99989 L633.78906 199.99989 L634.76563 199.99989 L635.74219 199.99988 L636.71875 199.99989 L637.69531 199.99989 L638.67188 199.99989 L639.64844 199.99989 L640.62500 199.99989 L641.60156 199.99989 L642.57813 199.99989 L643.55469 199.99989 L644.53125 199.99989 L645.50781 199.99989 L646.48438 199.99989 L647.46094 199.99988 L648.43750 199.99989 L649.41406 199.99989 L650.39063 199.99989 L651.36719 199.99989 L652.34375 199.99989 L653.32031 199.99988 L654.29688 199.99989 L655.27344 199.99988 L656.25000 199.99989 L657.22656 199.99989 L658.20313 199.99989 L659.17969 199.99988 L660.15625 199.99989 L661.13281 199.99989 L662.10938 199.99989 L663.08594 199.99989 L664.06250 199.99989 L665.03906 199.99989 L666.01563 199.99989 L666.99219 199.99989 L667.96875 199.99989 L668.94531 199.99989 L669.92188 199.99989 L670.89844 199.99989 L671.87500 199.99989 L672.85156 199.99989 L673.82813 199.99989 L674.80469 199.99989 L675.78125 199.99989 L676.75781 199.99989 L677.73438 199.99989 L678.71094 199.99989 L679.68750 199.99989 L680.66406 199.99989 L681.64063 199.99989 L682.61719 199.99989 L683.59375 199.99989 L684.57031 199.99989 L685.54688 199.99989 L686.52344 199.99989 L687.50000 199.99989 L688.47656 199.99989 L689.45313 199.99989 L690.42969 199.99991 L691.40625 199.99989 L692.38281 199.99989 L693.35938 199.99989 L694.33594 199.99989 L695.31250 199.99991 L696.28906 199.99988 L697.26563 199.99989 L698.24219 199.99989 L699.21875 199.99989 L700.19531 199.99989 L701.17188 199.99989 L702.14844 199.99989 L703.12500 199.99989 L704.10156 199.99989 L705.07813 199.99989 L706.05469 199.99989 L707.03125 199.99989 L708.00781 199.99989 L708.98438 199.99989 L709.96094 199.99989 L710.93750 199.99989 L711.91406 199.99989 L712.89063 199.99989 L713.86719 199.99989 L714.84375 199.99989 L715.82031 199.99989 L716.79688 199.99989 L717.77344 199.99989 L718.75000 199.99989 L719.72656 199.99989 L720.70313 199.99989 L721.67969 199.99989 L722.65625 199.99988 L723.63281 199.99989 L724.60938 199.99989 L725.58594 199.99989 L726.56250 199.99988 L727.53906 199.99989 L728.51563 199.99989 L729.49219 199.99989 L730.46875 199.99988 L731.44531 199.99988 L732.42188 199.99989 L733.39844 199.99989 L734.37500 199.99989 L735.35156 199.99989 L736.32813 199.99989 L737.30469 199.99989 L738.28125 199.99989 L739.25781 199.99989 L740.23438 199.99989 L741.21094 199.99989 L742.18750 199.99989 L743.16406 199.99989 L744.14063 199.99989 L745.11719 199.99989 L746.09375 199.99989 L747.07031 199.99989 L748.04688 199.99989 L749.02344 199.99989 L750.00000 199.99989 L750.97656 199.99989 L751.95313 199.99989 L752.92969 199.99989 L753.90625 199.99989 L754.88281 199.99989 L755.85938 199.99989 L756.83594 199.99989 L757.81250 199.99989 L758.78906 199.99989 L759.76563 199.99989 L760.74219 199.99989 L761.71875 199.99989 L762.69531 199.99989 L763.67188 199.99989 L764.64844 199.99989 L765.62500 199.99988 L766.60156 199.99991 L767.57813 199.99989 L768.55469 199.99991 L769.53125 199.99988 L770.50781 199.99989 L771.48438 199.99989 L772.46094 199.99989 L773.43750 199.99989 L774.41406 199.99989 L775.39063 199.99989 L776.36719 199.99989 L777.34375 199.99989 L778.32031 199.99989 L779.29688 199.99989 L780.27344 199.99988 L781.25000 199.99989 L782.22656 199.99989 L783.20313 199.99989 L784.17969 199.99989 L785.15625 199.99989 L786.13281 199.99989 L787.10938 199.99989 L788.08594 199.99989 L789.06250 199.99989 L790.03906 199.99989 L791.01563 199.99989 L791.99219 199.99988 L792.96875 199.99989 L793.94531 199.99989 L794.92188 199.99989 L795.89844 199.99989 L796.87500 199.99991 L797.85156 199.99988 L798.82813 199.99989 L799.80469 199.99988 L800.78125 199.99989 L801.75781 199.99989 L802.73438 199.99988 L803.71094 199.99988 L804.68750 199.99989 L805.66406 199.99989 L806.64063 199.99989 L807.61719 199.99989 L808.59375 199.99989 L809.57031 199.99989 L810.54688 199.99989 L811.52344 199.99989 L812.50000 199.99989 L813.47656 199.99989 L814.45313 199.99989 L815.42969 199.99989 L816.40625 199.99989 L817.38281 199.99989 L818.35938 199.99989 L819.33594 199.99989 L820.31250 199.99989 L821.28906 199.99989 L822.26563 199.99989 L823.24219 199.99989 L824.21875 199.99989 L825.19531 199.99989 L826.17188 199.99989 L827.14844 199.99989 L828.12500 199.99991 L829.10156 199.99989 L830.07813 199.99989 L831.05469 199.99989 L832.03125 199.99989 L833.00781 199.99989 L833.98438 199.99989 L834.96094 199.99991 L835.93750 199.99989 L836.91406 199.99989 L837.89063 199.99991 L838.86719 199.99988 L839.84375 199.99992 L840.82031 199.99988 L841.79688 199.99991 L842.77344 199.99989 L843.75000 199.99989 L844.72656 199.99989 L845.70313 199.99989 L846.67969 199.99989 L847.65625 199.99989 L848.63281 199.99989 L849.60938 199.99989 L850.58594 199.99989 L851.56250 199.99989 L852.53906 199.99989 L853.51563 199.99989 L854.49219 199.99989 L855.46875 199.99989 L856.44531 199.99989 L857.42188 199.99989 L858.39844 199.99989 L859.37500 199.99989 L860.35156 199.99989 L861.32813 199.99989 L862.30469 199.99989 L863.28125 199.99989 L864.25781 199.99989 L865.23438 199.99989 L866.21094 199.99989 L867.18750 199.99989 L868.16406 199.99989 L869.14063 199.99988 L870.11719 199.99989 L871.09375 199.99986 L872.07031 199.99991 L873.04688 199.99988 L874.02344 199.99989 L875.00000 199.99988 L875.97656 199.99986 L876.95313 199.99988 L877.92969 199.99989 L878.90625 199.99989 L879.88281 199.99989 L880.85938 199.99989 L881.83594 199.99989 L882.81250 199.99989 L883.78906 199.99989 L884.76563 199.99989 L885.74219 199.99989 L886.71875 199.99989 L887.69531 199.99989 L888.67188 199.99989 L889.64844 199.99989 L890.62500 199.99988 L891.60156 199.99989 L892.57813 199.99989 L893.55469 199.99989 L894.53125 199.99989 L895.50781 199.99989 L896.48438 199.99989 L897.46094 199.99989 L898.43750 199.99989 L899.41406 199.99989 L900.39063 199.99989 L901.36719 199.99989 L902.34375 199.99988 L903.32031 199.99989 L904.29688 199.99989 L905.27344 199.99988 L906.25000 199.99991 L907.22656 199.99991 L908.20313 199.99991 L909.17969 199.99989 L910.15625 199.99986 L911.13281 199.99994 L912.10938 199.99989 L913.08594 199.99994 L914.06250 199.99986 L915.03906 199.99989 L916.01563 199.99989 L916.99219 199.99988 L917.96875 199.99989 L918.94531 199.99989 L919.92188 199.99989 L920.89844 199.99989 L921.87500 199.99989 L922.85156 199.99989 L923.82813 199.99989 L924.80469 199.99989 L925.78125 199.99989 L926.75781 199.99989 L927.73438 199.99989 L928.71094 199.99989 L929.68750 199.99989 L930.66406 199.99989 L931.64063 199.99989 L932.61719 199.99989 L933.59375 199.99989 L934.57031 199.99989 L935.54688 199.99989 L936.52344 199.99988 L937.50000 199.99989 L938.47656 199.99991 L939.45313 199.99988 L940.42969 199.99989 L941.40625 199.99992 L942.38281 199.99983 L943.35938 199.99989 L944.33594 199.99985 L945.31250 199.99991 L946.28906 199.99991 L947.26563 199.99986 L948.24219 199.99982 L949.21875 199.99986 L950.19531 199.99991 L951.17188 199.99989 L952.14844 199.99989 L953.12500 199.99991 L954.10156 199.99989 L955.07813 199.99989 L956.05469 199.99991 L957.03125 199.99988 L958.00781 199.99989 L958.98438 199.99989 L959.96094 199.99989 L960.93750 199.99991 L961.91406 199.99989 L962.89063 199.99989 L963.86719 199.99989 L964.84375 199.99989 L965.82031 199.99989 L966.79688 199.99989 L967.77344 199.99989 L968.75000 199.99989 L969.72656 199.99989 L970.70313 199.99989 L971.67969 199.99989 L972.65625 199.99989 L973.63281 199.99989 L974.60938 199.99989 L975.58594 199.99989 L976.56250 199.99991 L977.53906 199.99989 L978.51563 199.99992 L979.49219 200.00000 L980.46875 199.99994 L981.44531 199.99989 L982.42188 199.99994 L983.39844 199.99998 L984.37500 0.00001 L985.35156 199.99980 L986.32813 199.99983 L987.30469 199.99986 L988.28125 199.99988 L989.25781 199.99986 L990.23438 199.99988 L991.21094 199.99988 L992.18750 199.99986 L993.16406 199.99988 L994.14063 199.99988 L995.11719 199.99988 L996.09375 199.99988 L997.07031 199.99988 L998.04688 199.99988 L999.02344 199.99989" /><path fill="none" stroke="#000000" d="M0 295.01819  L0.00000 295.01819  L0.97656 292.40585  L1.95313 297.79651  L2.92969 294.57437  L3.90625 293.86639  L4.88281 296.05096  L5.85938 292.36206  L6.83594 296.12952  L7.81250 295.86673  L8.78906 291.28476  L9.76563 295.29074  L10.74219 293.23785  L11.71875 292.01044  L12.69531 296.57050  L13.67188 291.47635  L14.64844 292.99579  L15.62500 200.00000  L16.60156 287.73422  L17.57813 294.82458  L18.55469 288.83081  L19.53125 271.88260  L20.50781 295.48065  L21.48438 317.24960  L22.46094 302.60461  L23.43750 297.58337  L24.41406 300.89902  L25.39063 297.19733  L26.36719 297.14508  L27.34375 296.72754  L28.32031 298.09836  L29.29688 298.98111  L30.27344 294.88599  L31.25000 297.00916  L32.22656 297.74811  L33.20313 295.85852  L34.17969 299.08478  L35.15625 296.85498  L36.13281 295.31738  L37.10938 298.67175  L38.08594 295.42633  L39.06250 296.18857  L40.03906 298.51318  L41.01563 296.75281  L41.99219 299.27737  L42.96875 296.62881  L43.94531 295.53107  L44.92188 300.98126  L45.89844 296.88007  L46.87500 298.14728  L47.85156 303.90326  L48.82813 294.80350  L49.80469 305.91794  L50.78125 319.13870  L51.75781 294.63470  L52.73438 278.76398  L53.71094 288.25967  L54.68750 295.77863  L55.66406 302.70123  L56.64063 293.86108  L57.61719 280.35364  L58.59375 290.21939  L59.57031 294.17996  L60.54688 288.79752  L61.52344 295.14005  L62.50000 294.44189  L63.47656 290.80981  L64.45313 295.23712  L65.42969 292.66660  L66.40625 292.26257  L67.38281 296.03461  L68.35938 293.15204  L69.33594 292.36115  L70.31250 294.07080  L71.28906 293.33240  L72.26563 293.84662  L73.24219 293.57434  L74.21875 294.48706  L75.19531 294.30627  L76.17188 292.52032  L77.14844 293.82355  L78.12500 290.97083  L79.10156 293.60031  L80.07813 296.05280  L81.05469 291.02142  L82.03125 291.58762  L83.00781 294.79553  L83.98438 289.53412  L84.96094 292.93222  L85.93750 292.12979  L86.91406 281.29703  L87.89063 293.16837  L88.86719 305.72000  L89.84375 296.57831  L90.82031 292.55243  L91.79688 292.32635  L92.77344 293.27997  L93.75000 303.44974  L94.72656 300.10538  L95.70313 292.80573  L96.67969 298.70551  L97.65625 296.99789  L98.63281 293.21149  L99.60938 298.00961  L100.58594 295.93735  L101.56250 295.09775  L102.53906 297.75647  L103.51563 294.50104  L104.49219 294.55615  L105.46875 297.35727  L106.44531 295.71707  L107.42188 295.52274  L108.39844 296.09076  L109.37500 294.75800  L110.35156 295.46881  L111.32813 295.26389  L112.30469 296.39191  L113.28125 296.40610  L114.25781 295.07013  L115.23438 295.75238  L116.21094 295.72119  L117.18750 296.60593  L118.16406 297.53992  L119.14063 296.11697  L120.11719 297.33081  L121.09375 297.80630  L122.07031 297.87708  L123.04688 302.58521  L124.02344 297.86679  L125.00000 287.31323  L125.97656 291.31567  L126.95313 299.11200  L127.92969 300.08316  L128.90625 295.71982  L129.88281 286.96686  L130.85938 289.55905  L131.83594 298.43390  L132.81250 294.54199  L133.78906 291.68091  L134.76563 296.51041  L135.74219 294.37225  L136.71875 292.49066  L137.69531 295.33722  L138.67188 294.85614  L139.64844 294.17090  L140.62500 295.03979  L141.60156 294.01010  L142.57813 293.35773  L143.55469 294.42395  L144.53125 295.17825  L145.50781 295.27762  L146.48438 294.64764  L147.46094 294.73181  L148.43750 293.72989  L149.41406 292.92377  L150.39063 294.85983  L151.36719 295.34329  L152.34375 293.78995  L153.32031 293.46649  L154.29688 293.21851  L155.27344 292.30234  L156.25000 294.06226  L157.22656 295.77661  L158.20313 290.87045  L159.17969 286.57693  L160.15625 293.50946  L161.13281 301.85764  L162.10938 298.39374  L163.08594 290.82642  L164.06250 291.21774  L165.03906 296.52823  L166.01563 298.69431  L166.99219 297.46063  L167.96875 295.94742  L168.94531 295.54251  L169.92188 295.61014  L170.89844 295.45929  L171.87500 295.31500  L172.85156 295.37949  L173.82813 296.00323  L174.80469 295.63217  L175.78125 294.29446  L176.75781 295.01123  L177.73438 296.07736  L178.71094 296.03601  L179.68750 295.45322  L180.66406 295.53412  L181.64063 295.43381  L182.61719 294.66513  L183.59375 294.90781  L184.57031 296.24417  L185.54688 296.55984  L186.52344 295.66104  L187.50000 294.46487  L188.47656 295.37564  L189.45313 296.67264  L190.42969 296.61630  L191.40625 296.27444  L192.38281 296.52701  L193.35938 295.45975  L194.33594 297.35266  L195.31250 299.75153  L196.28906 295.71606  L197.26563 292.25760  L198.24219 293.86368  L199.21875 296.03079  L200.19531 297.70154  L201.17188 295.19891  L202.14844 291.25311  L203.12500 292.72418  L204.10156 295.06964  L205.07813 293.26874  L206.05469 294.68195  L207.03125 295.47577  L208.00781 294.46497  L208.98438 295.01126  L209.96094 293.91968  L210.93750 294.05841  L211.91406 296.40103  L212.89063 294.56592  L213.86719 293.53644  L214.84375 294.82507  L215.82031 294.57867  L216.79688 294.51654  L217.77344 295.05908  L218.75000 294.50348  L219.72656 295.13324  L220.70313 294.54260  L221.67969 293.79568  L222.65625 293.85199  L223.63281 295.00128  L224.60938 295.20184  L225.58594 293.82681  L226.56250 293.21240  L227.53906 294.06073  L228.51563 293.40656  L229.49219 293.76767  L230.46875 293.41037  L231.44531 290.38974  L232.42188 293.42520  L233.39844 298.13086  L234.37500 294.39874  L235.35156 294.11011  L236.32813 293.72882  L237.30469 293.73492  L238.28125 298.28049  L239.25781 297.91263  L240.23438 293.85458  L241.21094 296.14230  L242.18750 295.82074  L243.16406 292.93042  L244.14063 295.36517  L245.11719 296.02408  L246.09375 294.98608  L247.07031 295.78345  L248.04688 294.42978  L249.02344 294.83377  L250.00000 296.50626  L250.97656 295.18854  L251.95313 295.08884  L252.92969 295.80615  L253.90625 294.69464  L254.88281 294.78040  L255.85938 294.70880  L256.83594 294.99530  L257.81250 296.83783  L258.78906 296.41901  L259.76563 294.42807  L260.74219 294.35226  L261.71875 296.03119  L262.69531 297.69269  L263.67188 296.70779  L264.64844 296.03607  L265.62500 296.54370  L266.60156 295.82922  L267.57813 297.63324  L268.55469 296.40509  L269.53125 292.50385  L270.50781 295.12827  L271.48438 297.47382  L272.46094 295.40033  L273.43750 295.69577  L274.41406 294.46497  L275.39063 291.98074  L276.36719 294.07697  L277.34375 294.28714  L278.32031 294.46387  L279.29688 297.19238  L280.27344 295.35950  L281.25000 293.40271  L282.22656 295.01514  L283.20313 293.98587  L284.17969 295.15137  L285.15625 296.49414  L286.13281 293.61761  L287.10938 294.11649  L288.08594 295.66342  L289.06250 293.68066  L290.03906 293.88696  L291.01563 296.17157  L291.99219 296.38516  L292.96875 294.76572  L293.94531 293.17755  L294.92188 293.41827  L295.89844 294.98825  L296.87500 296.56201  L297.85156 294.92499  L298.82813 294.10040  L299.80469 294.12396  L300.78125 293.81741  L301.75781 292.41284  L302.73438 292.48178  L303.71094 293.51978  L304.68750 293.50995  L305.66406 295.50067  L306.64063 297.21030  L307.61719 295.28278  L308.59375 293.51373  L309.57031 294.24149  L310.54688 296.02966  L311.52344 296.21930  L312.50000 294.69360  L313.47656 295.36749  L314.45313 295.94247  L315.42969 294.05084  L316.40625 294.38062  L317.38281 296.54938  L318.35938 295.88885  L319.33594 294.81046  L320.31250 294.79987  L321.28906 294.80005  L322.26563 295.39844  L323.24219 295.69064  L324.21875 294.97040  L325.19531 295.10822  L326.17188 295.64227  L327.14844 294.85663  L328.12500 294.13715  L329.10156 295.15381  L330.07813 296.35245  L331.05469 295.87903  L332.03125 294.85223  L333.00781 294.61450  L333.98438 295.89575  L334.96094 296.78000  L335.93750 296.30084  L336.91406 295.88840  L337.89063 296.03098  L338.86719 296.73611  L339.84375 297.70517  L340.82031 296.30695  L341.79688 293.74225  L342.77344 293.66534  L343.75000 296.20282  L344.72656 297.35028  L345.70313 295.36829  L346.67969 292.87088  L347.65625 293.80063  L348.63281 295.07343  L349.60938 294.31662  L350.58594 295.03516  L351.56250 295.85413  L352.53906 294.87338  L353.51563 294.72601  L354.49219 294.66867  L355.46875 294.63184  L356.44531 295.79477  L357.42188 295.38513  L358.39844 294.35419  L359.37500 294.15121  L360.35156 294.56274  L361.32813 294.64203  L362.30469 294.98676  L363.28125 295.34485  L364.25781 295.87332  L365.23438 295.16479  L366.21094 293.41113  L367.18750 294.43170  L368.16406 295.87732  L369.14063 295.25528  L370.11719 293.81711  L371.09375 293.40967  L372.07031 293.85205  L373.04688 294.13449  L374.02344 293.97250  L375.00000 293.84781  L375.97656 292.23926  L376.95313 293.73074  L377.92969 296.72955  L378.90625 295.69238  L379.88281 293.71011  L380.85938 293.72403  L381.83594 294.55380  L382.81250 296.86151  L383.78906 296.61185  L384.76563 294.22461  L385.74219 295.56296  L386.71875 295.42984  L387.69531 293.47443  L388.67188 295.04419  L389.64844 295.43250  L390.62500 294.61783  L391.60156 296.31830  L392.57813 294.78278  L393.55469 294.07791  L394.53125 296.54974  L395.50781 296.00430  L396.48438 294.89624  L397.46094 295.54333  L398.43750 294.88580  L399.41406 293.87961  L400.39063 294.32532  L401.36719 295.06082  L402.34375 296.33594  L403.32031 295.22314  L404.29688 294.60956  L405.27344 295.89651  L406.25000 296.32565  L407.22656 295.74881  L408.20313 295.78168  L409.17969 295.94702  L410.15625 296.41302  L411.13281 296.78595  L412.10938 297.64618  L413.08594 296.65781  L414.06250 293.57935  L415.03906 293.78232  L416.01563 296.43921  L416.99219 296.59363  L417.96875 295.22903  L418.94531 293.12122  L419.92188 293.18555  L420.89844 296.69879  L421.87500 295.33521  L422.85156 293.02914  L423.82813 295.95081  L424.80469 295.64337  L425.78125 293.03760  L426.75781 295.29044  L427.73438 295.26257  L428.71094 294.75870  L429.68750 296.24155  L430.66406 294.54208  L431.64063 294.18204  L432.61719 295.58820  L433.59375 295.05029  L434.57031 295.43842  L435.54688 295.88968  L436.52344 294.74561  L437.50000 294.67062  L438.47656 294.59329  L439.45313 294.57898  L440.42969 295.70520  L441.40625 295.54358  L442.38281 293.41989  L443.35938 292.78998  L444.33594 293.23569  L445.31250 294.81650  L446.28906 294.80536  L447.26563 293.60217  L448.24219 292.50775  L449.21875 293.76288  L450.19531 296.92725  L451.17188 296.41068  L452.14844 292.92346  L453.12500 293.73914  L454.10156 295.69955  L455.07813 295.95325  L456.05469 296.18085  L457.03125 294.94098  L458.00781 294.22366  L458.98438 295.30154  L459.96094 294.74405  L460.93750 294.35254  L461.91406 295.74918  L462.89063 295.67291  L463.86719 295.11041  L464.84375 294.91467  L465.82031 293.96097  L466.79688 295.19324  L467.77344 296.17813  L468.75000 294.92523  L469.72656 294.98569  L470.70313 295.59567  L471.67969 293.69901  L472.65625 294.44925  L473.63281 295.99933  L474.60938 296.32782  L475.58594 295.77011  L476.56250 294.59888  L477.53906 294.33813  L478.51563 296.05722  L479.49219 296.66083  L480.46875 296.12994  L481.44531 295.81088  L482.42188 295.85944  L483.39844 296.63403  L484.37500 294.92886  L485.35156 295.93460  L486.32813 294.52609  L487.30469 294.27081  L488.28125 296.02298  L489.25781 296.33710  L490.23438 294.93994  L491.21094 293.88513  L492.18750 294.39816  L493.16406 294.88718  L494.14063 295.10257  L495.11719 295.11246  L496.09375 295.74881  L497.07031 295.79581  L498.04688 294.76199  L499.02344 294.09290  L500.00000 295.01819  L500.97656 295.94348  L501.95313 295.27435  L502.92969 294.24057  L503.90625 294.28754  L504.88281 294.92389  L505.85938 294.93378  L506.83594 295.14917  L507.81250 295.63821  L508.78906 296.15125  L509.76563 295.09644  L510.74219 293.69925  L511.71875 294.01337  L512.69531 295.76556  L513.67188 295.51025  L514.64844 294.10175  L515.62500 293.16653  L516.60156 293.40231  L517.57813 294.17691  L518.55469 294.22546  L519.53125 293.90643  L520.50781 293.37552  L521.48438 293.97913  L522.46094 295.69821  L523.43750 295.43747  L524.41406 294.26624  L525.39063 293.70853  L526.36719 294.03702  L527.34375 295.58713  L528.32031 296.33734  L529.29688 294.44067  L530.27344 295.05066  L531.25000 295.11115  L532.22656 293.85822  L533.20313 294.84314  L534.17969 296.07538  L535.15625 295.12167  L536.13281 294.92596  L537.10938 294.36346  L538.08594 294.28717  L539.06250 295.68384  L540.03906 295.29233  L541.01563 294.73480  L541.99219 295.81268  L542.96875 295.09537  L543.94531 293.85550  L544.92188 294.08310  L545.89844 294.33679  L546.87500 296.29745  L547.85156 297.11288  L548.82813 293.62570  L549.80469 293.10910  L550.78125 296.27350  L551.75781 297.52859  L552.73438 296.43417  L553.71094 295.23099  L554.68750 295.21985  L555.66406 296.80066  L556.64063 297.24637  L557.61719 296.61646  L558.59375 294.49277  L559.57031 294.33115  L560.54688 295.45737  L561.52344 295.44308  L562.50000 295.36572  L563.47656 295.29077  L564.45313 294.14670  L565.42969 294.59796  L566.40625 294.98608  L567.38281 294.44818  L568.35938 295.85431  L569.33594 295.49426  L570.31250 293.79480  L571.28906 295.27765  L572.26563 294.77377  L573.24219 294.74594  L574.21875 296.99878  L575.19531 294.39301  L576.17188 294.08554  L577.14844 297.00720  L578.12500 293.52078  L579.10156 293.33755  L580.07813 296.85083  L581.05469 296.91513  L582.03125 294.80731  L583.00781 293.44272  L583.98438 293.59714  L584.96094 296.25406  L585.93750 296.45703  L586.91406 293.37854  L587.89063 292.39017  L588.86719 293.25043  L589.84375 293.62335  L590.82031 294.08936  L591.79688 294.25470  L592.77344 294.28757  L593.75000 293.71069  L594.72656 294.13983  L595.70313 295.42679  L596.67969 294.81320  L597.65625 293.70044  L598.63281 294.97552  L599.60938 295.71103  L600.58594 296.15674  L601.56250 295.15057  L602.53906 294.49304  L603.51563 295.14011  L604.49219 294.03204  L605.46875 293.48660  L606.44531 295.95844  L607.42188 295.25357  L608.39844 293.71808  L609.37500 294.05734  L610.35156 294.60388  L611.32813 294.99219  L612.30469 296.56192  L613.28125 294.60651  L614.25781 294.47342  L615.23438 295.81177  L616.21094 293.42450  L617.18750 293.17484  L618.16406 295.48254  L619.14063 296.31232  L620.11719 296.32623  L621.09375 294.34396  L622.07031 293.30679  L623.04688 296.30560  L624.02344 297.79712  L625.00000 296.18854  L625.97656 296.06384  L626.95313 295.90186  L627.92969 296.18430  L628.90625 296.62668  L629.88281 296.21924  L630.85938 294.78107  L631.83594 294.15906  L632.81250 295.60464  L633.78906 296.62524  L634.76563 294.87155  L635.74219 294.16302  L636.71875 294.69150  L637.69531 295.04962  L638.67188 295.39432  L639.64844 295.47363  L640.62500 295.78021  L641.60156 295.68219  L642.57813 294.65125  L643.55469 294.24158  L644.53125 295.40454  L645.50781 295.36768  L646.48438 295.31033  L647.46094 295.16299  L648.43750 294.18225  L649.41406 295.00119  L650.39063 295.71973  L651.36719 294.96292  L652.34375 296.23572  L653.32031 297.16547  L654.29688 294.66806  L655.27344 292.68607  L656.25000 293.83356  L657.22656 296.37103  L658.20313 296.29413  L659.17969 293.72943  L660.15625 292.33118  L661.13281 293.30023  L662.10938 294.00537  L663.08594 294.14798  L664.06250 293.73550  L665.03906 293.25635  L666.01563 294.14059  L666.99219 295.42184  L667.96875 295.18414  L668.94531 294.15732  L669.92188 293.68390  L670.89844 294.88254  L671.87500 295.52075  L672.85156 295.17972  L673.82813 294.39410  L674.80469 294.92816  L675.78125 295.06595  L676.75781 294.34570  L677.73438 294.63791  L678.71094 295.23630  L679.68750 295.23648  L680.66406 295.22589  L681.64063 294.14752  L682.61719 293.48697  L683.59375 295.65573  L684.57031 295.98553  L685.54688 294.09387  L686.52344 294.66888  L687.50000 295.34274  L688.47656 293.81708  L689.45313 294.00668  L690.42969 295.79486  L691.40625 296.52264  L692.38281 294.75357  L693.35938 292.82605  L694.33594 294.53568  L695.31250 296.52640  L696.28906 296.51660  L697.26563 297.55457  L698.24219 297.62354  L699.21875 296.21893  L700.19531 295.91241  L701.17188 295.93597  L702.14844 295.11136  L703.12500 293.38068  L704.10156 295.04810  L705.07813 296.61807  L706.05469 296.85880  L707.03125 295.27063  L708.00781 293.65118  L708.98438 293.86481  L709.96094 296.14941  L710.93750 296.35568  L711.91406 294.37292  L712.89063 295.91986  L713.86719 296.41876  L714.84375 293.54224  L715.82031 294.88498  L716.79688 296.05048  L717.77344 295.02121  L718.75000 296.63367  L719.72656 294.67685  L720.70313 292.84396  L721.67969 295.57251  L722.65625 295.74921  L723.63281 295.95941  L724.60938 298.05560  L725.58594 295.57141  L726.56250 294.34058  L727.53906 294.63605  L728.51563 292.56253  L729.49219 294.90811  L730.46875 297.53253  L731.44531 293.63129  L732.42188 292.40311  L733.39844 294.20712  L734.37500 292.87103  L735.35156 294.00027  L736.32813 293.32855  L737.30469 292.34366  L738.28125 294.00516  L739.25781 295.68408  L740.23438 295.60828  L741.21094 293.61737  L742.18750 293.19855  L743.16406 295.04105  L744.14063 295.32755  L745.11719 295.25598  L746.09375 295.34171  L747.07031 294.23022  L748.04688 294.94751  L749.02344 294.84781  L750.00000 293.53009  L750.97656 295.20258  L751.95313 295.60657  L752.92969 294.25290  L753.90625 295.05026  L754.88281 294.01227  L755.85938 294.67117  L756.83594 297.10596  L757.81250 294.21561  L758.78906 293.89404  L759.76563 296.18176  L760.74219 292.12372  L761.71875 291.75586  L762.69531 296.30142  L763.67188 296.30756  L764.64844 295.92624  L765.62500 294.96527  L766.60156 291.90549  L767.57813 296.61115  L768.55469 299.64661  L769.53125 296.62598  L770.50781 296.26868  L771.48438 296.62979  L772.46094 295.97562  L773.43750 296.82394  L774.41406 296.20953  L775.39063 294.83450  L776.36719 295.03506  L777.34375 296.18436  L778.32031 296.24066  L779.29688 295.49374  L780.27344 294.90314  L781.25000 295.53290  L782.22656 294.97729  L783.20313 295.51981  L784.17969 295.45767  L785.15625 295.21127  L786.13281 296.49994  L787.10938 295.47046  L788.08594 293.63531  L789.06250 295.97794  L790.03906 296.11670  L791.01563 295.02509  L791.99219 295.57141  L792.96875 294.56061  L793.94531 295.35440  L794.92188 296.76764  L795.89844 294.96674  L796.87500 296.47040  L797.85156 298.78323  L798.82813 294.83746  L799.80469 292.33484  L800.78125 294.00555  L801.75781 296.17267  L802.73438 297.77878  L803.71094 294.32031  L804.68750 290.28485  L805.66406 292.68372  L806.64063 294.57660  L807.61719 293.50937  L808.59375 293.76190  L809.57031 293.42004  L810.54688 293.36371  L811.52344 294.66071  L812.50000 295.57147  L813.47656 294.37531  L814.45313 293.47650  L815.42969 293.79218  L816.40625 295.12854  L817.38281 295.37122  L818.35938 294.60254  L819.33594 294.50226  L820.31250 294.58316  L821.28906 294.00037  L822.26563 293.95901  L823.24219 295.02512  L824.21875 295.74188  L825.19531 294.40417  L826.17188 294.03314  L827.14844 294.65686  L828.12500 294.82962  L829.10156 294.57706  L830.07813 294.42621  L831.05469 294.49384  L832.03125 294.08893  L833.00781 292.57574  L833.98438 291.34204  L834.96094 293.50812  L835.93750 298.81860  L836.91406 299.20993  L837.89063 291.64264  L838.86719 288.17874  L839.84375 296.52692  L840.82031 303.45941  L841.79688 299.16589  L842.77344 294.25977  L843.75000 295.97409  L844.72656 297.73401  L845.70313 296.81784  L846.67969 296.56989  L847.65625 296.24640  L848.63281 294.69305  L849.60938 295.17651  L850.58594 297.11261  L851.56250 296.30646  L852.53906 295.30453  L853.51563 295.38870  L854.49219 294.75873  L855.46875 294.85809  L856.44531 295.61240  L857.42188 296.67862  L858.39844 296.02625  L859.37500 293.64331  L860.35156 295.86545  L861.32813 295.18021  L862.30469 294.69916  L863.28125 297.54572  L864.25781 295.66412  L865.23438 293.52594  L866.21094 298.35547  L867.18750 295.49435  L868.16406 291.60248  L869.14063 300.47729  L870.11719 303.06949  L871.09375 294.31653  L872.07031 289.95322  L873.04688 290.92435  L874.02344 298.72067  L875.00000 302.72314  L875.97656 292.16956  L876.95313 287.45117  L877.92969 292.15930  L878.90625 292.23004  L879.88281 292.70554  L880.85938 293.91937  L881.83594 292.49646  L882.81250 293.43045  L883.78906 294.31519  L884.76563 294.28397  L885.74219 294.96625  L886.71875 293.63025  L887.69531 293.64447  L888.67188 294.77249  L889.64844 294.56757  L890.62500 294.47455  L891.60156 293.94562  L892.57813 294.51361  L893.55469 294.31927  L894.53125 292.67911  L895.50781 295.48019  L896.48438 295.53534  L897.46094 292.27988  L898.43750 294.93860  L899.41406 294.09900  L900.39063 292.02673  L901.36719 296.82486  L902.34375 293.03845  L903.32031 291.33087  L904.29688 297.23065  L905.27344 289.93097  L906.25000 286.58661  L907.22656 296.75641  L908.20313 297.70999  L909.17969 297.48392  L910.15625 293.45807  L911.13281 284.31635  L912.10938 296.86798  L913.08594 308.73932  L914.06250 297.90656  L915.03906 297.10413  L916.01563 300.50223  L916.99219 295.24081  L917.96875 298.44876  L918.94531 299.01492  L919.92188 293.98358  L920.89844 296.43604  L921.87500 298.20496  L922.85156 296.21280  L923.82813 297.51605  L924.80469 295.73007  L925.78125 295.54932  L926.75781 296.46204  L927.73438 296.18973  L928.71094 296.70395  L929.68750 295.96555  L930.66406 297.67520  L931.64063 296.88431  L932.61719 294.00174  L933.59375 297.77377  L934.57031 297.36975  L935.54688 294.79926  L936.52344 299.22656  L937.50000 295.59448  L938.47656 294.89633  L939.45313 301.23883  L940.42969 295.85638  L941.40625 299.81696  L942.38281 309.68271  L943.35938 296.17526  L944.33594 287.33514  L945.31250 294.25775  L946.28906 301.77670  L947.26563 311.27240  L948.24219 295.40167  L949.21875 270.89764  L950.19531 284.11841  L951.17188 295.23285  L952.14844 286.13312  L953.12500 292.02982  L954.10156 293.15628  L955.07813 289.05511  L956.05469 294.50531  L957.03125 293.40753  L958.00781 290.75897  L958.98438 293.28354  L959.96094 291.52316  L960.93750 293.84778  L961.91406 294.61005  L962.89063 291.36462  L963.86719 294.71896  L964.84375 293.18140  L965.82031 290.95160  L966.79688 294.17786  L967.77344 292.28827  L968.75000 293.02719  L969.72656 295.15036  L970.70313 291.05524  L971.67969 291.93799  L972.65625 293.30881  L973.63281 292.89127  L974.60938 292.83902  L975.58594 289.13733  L976.56250 292.45300  L977.53906 287.43176  L978.51563 272.78674  L979.49219 294.55569  L980.46875 318.15375  L981.44531 301.20557  L982.42188 295.21176  L983.39844 302.30212  L984.37500 400.00000  L985.35156 297.04059  L986.32813 298.56003  L987.30469 293.46585  L988.28125 298.02591  L989.25781 296.79852  L990.23438 294.74561  L991.21094 298.75159  L992.18750 294.16965  L993.16406 293.90686  L994.14063 297.67432  L995.11719 293.98541  L996.09375 296.16995  L997.07031 295.46201  L998.04688 292.23987  L999.02344 297.63049 " /></g><text x="1000.00000" dx="10" y="199.99989">[-0.00000;0.50000]</text><text x="1000.00000" dx="10" y="295.01819">[-0.00000;0.00000]</text></svg>