<svg xmlns="http://www.w3.org/2000/svg" version="1.1"><g stroke-width="0.6"><path fill="none" stroke="#000000" d="M0 199.99995 L1000.00000 199.99995" /><path fill="none" stroke="#000000" d="M0 300.00000 L1000.00000 300.00000" /><path fill="none" stroke="#000000" d="M500.00000 0 L500.00000 400.00000" /><path fill="none" stroke="#550000" d="M0 350.00873 L1000.00000 350.00873" /><path fill="none" stroke="#550000" d="M0 300.00000 L1000.00000 300.00000" /><path fill="none" stroke="#550000" d="M0 249.99127 L1000.00000 249.99127" /><path fill="none" stroke="#000000" d="M0 199.99995  L0.00000 199.99988 L0.97656 199.99989 L1.95313 199.99985 L2.92969 199.99983 L3.90625 199.99980 L4.88281 199.99982 L5.85938 199.99976 L6.83594 199.99982 L7.81250 199.99982 L8.78906 199.99959 L9.76563 199.99986 L10.74219 199.99963 L11.71875 199.99989 L12.69531 199.99988 L13.67188 199.99983 L14.64844 199.99994 L15.62500 199.99979 L16.60156 199.99980 L17.57813 199.99965 L18.55469 199.99966 L19.53125 199.99971 L20.50781 199.99991 L21.48438 199.99971 L22.46094 199.99985 L23.43750 199.99989 L24.41406 199.99976 L25.39063 199.99963 L26.36719 199.99969 L27.34375 199.99966 L28.32031 199.99966 L29.29688 199.99979 L30.27344 199.99977 L31.25000 0.00011 L32.22656 199.99971 L33.20313 199.99992 L34.17969 199.99963 L35.15625 199.99983 L36.13281 199.99989 L37.10938 199.99986 L38.08594 199.99980 L39.06250 199.99960 L40.03906 199.99988 L41.01563 199.99988 L41.99219 199.99969 L42.96875 199.99988 L43.94531 199.99986 L44.92188 199.99980 L45.89844 199.99973 L46.87500 199.99982 L47.85156 199.99991 L48.82813 199.99985 L49.80469 199.99983 L50.78125 199.99988 L51.75781 199.99950 L52.73438 199.99982 L53.71094 199.99939 L54.68750 199.99969 L55.66406 199.99988 L56.64063 199.99988 L57.61719 199.99985 L58.59375 199.99982 L59.57031 199.99982 L60.54688 199.99980 L61.52344 199.99954 L62.50000 0.00001 L63.47656 199.99965 L64.45313 199.99980 L65.42969 199.99974 L66.40625 199.99985 L67.38281 199.99974 L68.35938 199.99962 L69.33594 199.99962 L70.31250 199.99977 L71.28906 199.99992 L72.26563 199.99991 L73.24219 199.99991 L74.21875 199.99985 L75.19531 199.99979 L76.17188 199.99983 L77.14844 199.99986 L78.12500 199.99991 L79.10156 199.99995 L80.07813 199.99985 L81.05469 199.99979 L82.03125 199.99973 L83.00781 199.99979 L83.98438 199.99986 L84.96094 199.99986 L85.93750 199.99988 L86.91406 199.99977 L87.89063 199.99951 L88.86719 199.99921 L89.84375 199.99934 L90.82031 199.99953 L91.79688 199.99983 L92.77344 199.99977 L93.75000 199.99982 L94.72656 199.99982 L95.70313 199.99989 L96.67969 199.99989 L97.65625 199.99960 L98.63281 199.99965 L99.60938 199.99969 L100.58594 199.99977 L101.56250 199.99986 L102.53906 199.99974 L103.51563 199.99969 L104.49219 199.99956 L105.46875 199.99937 L106.44531 199.99962 L107.42188 199.99963 L108.39844 199.99983 L109.37500 199.99983 L110.35156 199.99974 L111.32813 199.99983 L112.30469 199.99974 L113.28125 199.99980 L114.25781 199.99988 L115.23438 199.99979 L116.21094 199.99983 L117.18750 199.99986 L118.16406 199.99986 L119.14063 199.99986 L120.11719 199.99973 L121.09375 199.99982 L122.07031 199.99974 L123.04688 199.99951 L124.02344 199.99916 L125.00000 0.00013 L125.97656 199.99931 L126.95313 199.99954 L127.92969 199.99963 L128.90625 199.99971 L129.88281 199.99980 L130.85938 199.99980 L131.83594 199.99985 L132.81250 199.99995 L133.78906 199.99973 L134.76563 199.99985 L135.74219 199.99977 L136.71875 199.99983 L137.69531 199.99980 L138.67188 199.99980 L139.64844 199.99971 L140.62500 199.99948 L141.60156 199.99950 L142.57813 199.99963 L143.55469 199.99979 L144.53125 199.99991 L145.50781 199.99991 L146.48438 199.99991 L147.46094 199.99988 L148.43750 199.99974 L149.41406 199.99979 L150.39063 199.99988 L151.36719 199.99983 L152.34375 199.99982 L153.32031 199.99980 L154.29688 199.99983 L155.27344 199.99980 L156.25000 199.99985 L157.22656 199.99973 L158.20313 199.99988 L159.17969 199.99968 L160.15625 199.99928 L161.13281 199.99919 L162.10938 199.99954 L163.08594 199.99976 L164.06250 199.99973 L165.03906 199.99989 L166.01563 199.99989 L166.99219 199.99976 L167.96875 199.99992 L168.94531 199.99988 L169.92188 199.99991 L170.89844 199.99979 L171.87500 199.99985 L172.85156 199.99982 L173.82813 199.99973 L174.80469 199.99982 L175.78125 199.99950 L176.75781 199.99893 L177.73438 199.99988 L178.71094 199.99902 L179.68750 199.99954 L180.66406 199.99985 L181.64063 199.99969 L182.61719 199.99977 L183.59375 199.99979 L184.57031 199.99968 L185.54688 199.99983 L186.52344 199.99986 L187.50000 199.99983 L188.47656 199.99983 L189.45313 199.99982 L190.42969 199.99976 L191.40625 199.99992 L192.38281 199.99986 L193.35938 199.99979 L194.33594 199.99991 L195.31250 199.99963 L196.28906 199.99942 L197.26563 199.99983 L198.24219 199.99956 L199.21875 199.99971 L200.19531 199.99983 L201.17188 199.99983 L202.14844 199.99988 L203.12500 199.99995 L204.10156 199.99989 L205.07813 199.99982 L206.05469 199.99988 L207.03125 199.99992 L208.00781 199.99989 L208.98438 199.99980 L209.96094 199.99968 L210.93750 199.99991 L211.91406 199.99948 L212.89063 199.99887 L213.86719 199.99852 L214.84375 199.99884 L215.82031 199.99947 L216.79688 199.99985 L217.77344 199.99966 L218.75000 199.99982 L219.72656 199.99974 L220.70313 199.99974 L221.67969 199.99986 L222.65625 199.99982 L223.63281 199.99979 L224.60938 199.99983 L225.58594 199.99976 L226.56250 199.99966 L227.53906 199.99994 L228.51563 199.99986 L229.49219 199.99982 L230.46875 199.99989 L231.44531 199.99980 L232.42188 199.99969 L233.39844 199.99968 L234.37500 199.99976 L235.35156 199.99988 L236.32813 199.99976 L237.30469 199.99969 L238.28125 199.99989 L239.25781 199.99982 L240.23438 199.99973 L241.21094 199.99988 L242.18750 199.99966 L243.16406 199.99976 L244.14063 199.99976 L245.11719 199.99971 L246.09375 199.99953 L247.07031 199.99953 L248.04688 199.99922 L249.02344 199.99855 L250.00000 0.00010 L250.97656 199.99852 L251.95313 199.99922 L252.92969 199.99954 L253.90625 199.99954 L254.88281 199.99969 L255.85938 199.99977 L256.83594 199.99980 L257.81250 199.99980 L258.78906 199.99983 L259.76563 199.99977 L260.74219 199.99988 L261.71875 199.99977 L262.69531 199.99974 L263.67188 199.99976 L264.64844 199.99985 L265.62500 199.99985 L266.60156 199.99980 L267.57813 199.99977 L268.55469 199.99982 L269.53125 199.99965 L270.50781 199.99983 L271.48438 199.99977 L272.46094 199.99983 L273.43750 199.99977 L274.41406 199.99977 L275.39063 199.99985 L276.36719 199.99976 L277.34375 199.99983 L278.32031 199.99976 L279.29688 199.99971 L280.27344 199.99976 L281.25000 199.99976 L282.22656 199.99966 L283.20313 199.99986 L284.17969 199.99948 L285.15625 199.99887 L286.13281 199.99855 L287.10938 199.99890 L288.08594 199.99944 L289.06250 199.99986 L290.03906 199.99966 L291.01563 199.99969 L291.99219 199.99983 L292.96875 199.99979 L293.94531 199.99988 L294.92188 199.99992 L295.89844 199.99991 L296.87500 199.99980 L297.85156 199.99985 L298.82813 199.99995 L299.80469 199.99988 L300.78125 199.99986 L301.75781 199.99994 L302.73438 199.99985 L303.71094 199.99986 L304.68750 199.99983 L305.66406 199.99985 L306.64063 199.99985 L307.61719 199.99988 L308.59375 199.99994 L309.57031 199.99983 L310.54688 199.99983 L311.52344 199.99991 L312.50000 199.99983 L313.47656 199.99988 L314.45313 199.99992 L315.42969 199.99969 L316.40625 199.99973 L317.38281 199.99973 L318.35938 199.99969 L319.33594 199.99980 L320.31250 199.99953 L321.28906 199.99905 L322.26563 199.99985 L323.24219 199.99898 L324.21875 199.99954 L325.19531 199.99979 L326.17188 199.99968 L327.14844 199.99985 L328.12500 199.99986 L329.10156 199.99979 L330.07813 199.99983 L331.05469 199.99986 L332.03125 199.99989 L333.00781 199.99980 L333.98438 199.99991 L334.96094 199.99986 L335.93750 199.99992 L336.91406 199.99989 L337.89063 199.99995 L338.86719 199.99988 L339.84375 199.99980 L340.82031 199.99977 L341.79688 199.99991 L342.77344 199.99977 L343.75000 199.99991 L344.72656 199.99982 L345.70313 199.99986 L346.67969 199.99988 L347.65625 199.99986 L348.63281 199.99986 L349.60938 199.99994 L350.58594 199.99988 L351.56250 199.99982 L352.53906 199.99986 L353.51563 199.99992 L354.49219 199.99985 L355.46875 199.99992 L356.44531 199.99983 L357.42188 199.99963 L358.39844 199.99954 L359.37500 199.99954 L360.35156 199.99979 L361.32813 199.99994 L362.30469 199.99979 L363.28125 199.99985 L364.25781 199.99988 L365.23438 199.99986 L366.21094 199.99983 L367.18750 199.99991 L368.16406 199.99982 L369.14063 199.99986 L370.11719 199.99988 L371.09375 199.99986 L372.07031 199.99994 L373.04688 199.99994 L374.02344 199.99991 L375.00000 199.99992 L375.97656 199.99982 L376.95313 199.99986 L377.92969 199.99983 L378.90625 199.99988 L379.88281 199.99988 L380.85938 199.99991 L381.83594 199.99986 L382.81250 199.99991 L383.78906 199.99989 L384.76563 199.99988 L385.74219 199.99988 L386.71875 199.99983 L387.69531 199.99977 L388.67188 199.99992 L389.64844 199.99980 L390.62500 199.99979 L391.60156 199.99983 L392.57813 199.99969 L393.55469 199.99956 L394.53125 199.99947 L395.50781 199.99957 L396.48438 199.99973 L397.46094 199.99985 L398.43750 199.99991 L399.41406 199.99980 L400.39063 199.99994 L401.36719 199.99985 L402.34375 199.99995 L403.32031 199.99985 L404.29688 199.99988 L405.27344 199.99988 L406.25000 199.99979 L407.22656 199.99991 L408.20313 199.99988 L409.17969 199.99992 L410.15625 199.99991 L411.13281 199.99991 L412.10938 199.99994 L413.08594 199.99980 L414.06250 199.99974 L415.03906 199.99994 L416.01563 199.99994 L416.99219 199.99991 L417.96875 199.99983 L418.94531 199.99989 L419.92188 199.99986 L420.89844 199.99992 L421.87500 199.99991 L422.85156 199.99985 L423.82813 199.99980 L424.80469 199.99983 L425.78125 199.99988 L426.75781 199.99992 L427.73438 199.99995 L428.71094 199.99992 L429.68750 199.99977 L430.66406 199.99969 L431.64063 199.99973 L432.61719 199.99983 L433.59375 199.99994 L434.57031 199.99985 L435.54688 199.99986 L436.52344 199.99991 L437.50000 199.99983 L438.47656 199.99988 L439.45313 199.99994 L440.42969 199.99991 L441.40625 199.99985 L442.38281 199.99979 L443.35938 199.99992 L444.33594 199.99988 L445.31250 199.99994 L446.28906 199.99992 L447.26563 199.99989 L448.24219 199.99991 L449.21875 199.99982 L450.19531 199.99988 L451.17188 199.99991 L452.14844 199.99992 L453.12500 199.99983 L454.10156 199.99986 L455.07813 199.99994 L456.05469 199.99989 L457.03125 199.99982 L458.00781 199.99986 L458.98438 199.99983 L459.96094 199.99985 L460.93750 199.99960 L461.91406 199.99980 L462.89063 199.99994 L463.86719 199.99989 L464.84375 199.99988 L465.82031 199.99965 L466.79688 199.99989 L467.77344 199.99963 L468.75000 199.99980 L469.72656 199.99992 L470.70313 199.99980 L471.67969 199.99989 L472.65625 199.99992 L473.63281 199.99992 L474.60938 199.99982 L475.58594 199.99994 L476.56250 199.99988 L477.53906 199.99983 L478.51563 199.99988 L479.49219 199.99983 L480.46875 199.99994 L481.44531 199.99992 L482.42188 199.99992 L483.39844 199.99991 L484.37500 199.99980 L485.35156 199.99988 L486.32813 199.99986 L487.30469 199.99985 L488.28125 199.99989 L489.25781 199.99982 L490.23438 199.99989 L491.21094 199.99989 L492.18750 199.99988 L493.16406 199.99986 L494.14063 199.99995 L495.11719 199.99985 L496.09375 199.99977 L497.07031 199.99980 L498.04688 199.99986 L499.02344 199.99989 L500.00000 199.99992 L500.97656 199.99989 L501.95313 199.99986 L502.92969 199.99980 L503.90625 199.99977 L504.88281 199.99985 L505.85938 199.99995 L506.83594 199.99986 L507.81250 199.99988 L508.78906 199.99989 L509.76563 199.99989 L510.74219 199.99982 L511.71875 199.99989 L512.69531 199.99985 L513.67188 199.99986 L514.64844 199.99988 L515.62500 199.99980 L516.60156 199.99991 L517.57813 199.99992 L518.55469 199.99992 L519.53125 199.99994 L520.50781 199.99983 L521.48438 199.99988 L522.46094 199.99983 L523.43750 199.99988 L524.41406 199.99994 L525.39063 199.99982 L526.36719 199.99992 L527.34375 199.99992 L528.32031 199.99989 L529.29688 199.99980 L530.27344 199.99992 L531.25000 199.99980 L532.22656 199.99963 L533.20313 199.99989 L534.17969 199.99965 L535.15625 199.99988 L536.13281 199.99989 L537.10938 199.99994 L538.08594 199.99980 L539.06250 199.99960 L540.03906 199.99985 L541.01563 199.99983 L541.99219 199.99986 L542.96875 199.99982 L543.94531 199.99989 L544.92188 199.99994 L545.89844 199.99986 L546.87500 199.99983 L547.85156 199.99992 L548.82813 199.99991 L549.80469 199.99988 L550.78125 199.99982 L551.75781 199.99991 L552.73438 199.99989 L553.71094 199.99992 L554.68750 199.99994 L555.66406 199.99988 L556.64063 199.99992 L557.61719 199.99979 L558.59375 199.99985 L559.57031 199.99991 L560.54688 199.99994 L561.52344 199.99988 L562.50000 199.99983 L563.47656 199.99991 L564.45313 199.99986 L565.42969 199.99985 L566.40625 199.99994 L567.38281 199.99983 L568.35938 199.99973 L569.33594 199.99969 L570.31250 199.99977 L571.28906 199.99992 L572.26563 199.99995 L573.24219 199.99992 L574.21875 199.99988 L575.19531 199.99983 L576.17188 199.99980 L577.14844 199.99985 L578.12500 199.99991 L579.10156 199.99992 L580.07813 199.99986 L581.05469 199.99989 L582.03125 199.99983 L583.00781 199.99991 L583.98438 199.99994 L584.96094 199.99994 L585.93750 199.99974 L586.91406 199.99980 L587.89063 199.99994 L588.86719 199.99991 L589.84375 199.99991 L590.82031 199.99992 L591.79688 199.99988 L592.77344 199.99991 L593.75000 199.99979 L594.72656 199.99988 L595.70313 199.99988 L596.67969 199.99985 L597.65625 199.99995 L598.63281 199.99985 L599.60938 199.99994 L600.58594 199.99980 L601.56250 199.99991 L602.53906 199.99985 L603.51563 199.99973 L604.49219 199.99957 L605.46875 199.99947 L606.44531 199.99956 L607.42188 199.99969 L608.39844 199.99983 L609.37500 199.99979 L610.35156 199.99980 L611.32813 199.99992 L612.30469 199.99977 L613.28125 199.99983 L614.25781 199.99988 L615.23438 199.99988 L616.21094 199.99989 L617.18750 199.99991 L618.16406 199.99986 L619.14063 199.99991 L620.11719 199.99988 L621.09375 199.99988 L622.07031 199.99983 L623.04688 199.99986 L624.02344 199.99982 L625.00000 199.99994 L625.97656 199.99991 L626.95313 199.99994 L627.92969 199.99994 L628.90625 199.99986 L629.88281 199.99988 L630.85938 199.99986 L631.83594 199.99982 L632.81250 199.99991 L633.78906 199.99983 L634.76563 199.99986 L635.74219 199.99988 L636.71875 199.99985 L637.69531 199.99979 L638.67188 199.99994 L639.64844 199.99979 L640.62500 199.99954 L641.60156 199.99954 L642.57813 199.99963 L643.55469 199.99983 L644.53125 199.99992 L645.50781 199.99985 L646.48438 199.99992 L647.46094 199.99986 L648.43750 199.99982 L649.41406 199.99988 L650.39063 199.99994 L651.36719 199.99986 L652.34375 199.99986 L653.32031 199.99988 L654.29688 199.99986 L655.27344 199.99982 L656.25000 199.99991 L657.22656 199.99977 L658.20313 199.99991 L659.17969 199.99977 L660.15625 199.99980 L661.13281 199.99988 L662.10938 199.99995 L663.08594 199.99989 L664.06250 199.99992 L665.03906 199.99986 L666.01563 199.99991 L666.99219 199.99980 L667.96875 199.99989 L668.94531 199.99986 L669.92188 199.99983 L670.89844 199.99979 L671.87500 199.99986 L672.85156 199.99985 L673.82813 199.99968 L674.80469 199.99979 L675.78125 199.99954 L676.75781 199.99898 L677.73438 199.99985 L678.71094 199.99905 L679.68750 199.99953 L680.66406 199.99980 L681.64063 199.99969 L682.61719 199.99973 L683.59375 199.99973 L684.57031 199.99969 L685.54688 199.99992 L686.52344 199.99988 L687.50000 199.99983 L688.47656 199.99991 L689.45313 199.99983 L690.42969 199.99983 L691.40625 199.99994 L692.38281 199.99988 L693.35938 199.99985 L694.33594 199.99985 L695.31250 199.99983 L696.28906 199.99986 L697.26563 199.99985 L698.24219 199.99994 L699.21875 199.99986 L700.19531 199.99988 L701.17188 199.99995 L702.14844 199.99985 L703.12500 199.99980 L704.10156 199.99991 L705.07813 199.99992 L706.05469 199.99988 L707.03125 199.99979 L708.00781 199.99983 L708.98438 199.99969 L709.96094 199.99966 L710.93750 199.99986 L711.91406 199.99944 L712.89063 199.99890 L713.86719 199.99855 L714.84375 199.99887 L715.82031 199.99948 L716.79688 199.99986 L717.77344 199.99966 L718.75000 199.99974 L719.72656 199.99976 L720.70313 199.99971 L721.67969 199.99976 L722.65625 199.99983 L723.63281 199.99976 L724.60938 199.99985 L725.58594 199.99977 L726.56250 199.99977 L727.53906 199.99983 L728.51563 199.99977 L729.49219 199.99983 L730.46875 199.99965 L731.44531 199.99982 L732.42188 199.99977 L733.39844 199.99980 L734.37500 199.99985 L735.35156 199.99985 L736.32813 199.99976 L737.30469 199.99974 L738.28125 199.99977 L739.25781 199.99988 L740.23438 199.99977 L741.21094 199.99983 L742.18750 199.99980 L743.16406 199.99980 L744.14063 199.99977 L745.11719 199.99969 L746.09375 199.99954 L747.07031 199.99954 L748.04688 199.99922 L749.02344 199.99852 L750.00000 0.00010 L750.97656 199.99855 L751.95313 199.99922 L752.92969 199.99953 L753.90625 199.99953 L754.88281 199.99971 L755.85938 199.99976 L756.83594 199.99976 L757.81250 199.99966 L758.78906 199.99988 L759.76563 199.99973 L760.74219 199.99982 L761.71875 199.99989 L762.69531 199.99969 L763.67188 199.99976 L764.64844 199.99988 L765.62500 199.99976 L766.60156 199.99968 L767.57813 199.99969 L768.55469 199.99980 L769.53125 199.99989 L770.50781 199.99982 L771.48438 199.99986 L772.46094 199.99994 L773.43750 199.99966 L774.41406 199.99976 L775.39063 199.99983 L776.36719 199.99979 L777.34375 199.99982 L778.32031 199.99986 L779.29688 199.99974 L780.27344 199.99974 L781.25000 199.99982 L782.22656 199.99966 L783.20313 199.99985 L784.17969 199.99947 L785.15625 199.99884 L786.13281 199.99852 L787.10938 199.99887 L788.08594 199.99948 L789.06250 199.99991 L790.03906 199.99968 L791.01563 199.99980 L791.99219 199.99989 L792.96875 199.99992 L793.94531 199.99988 L794.92188 199.99982 L795.89844 199.99989 L796.87500 199.99995 L797.85156 199.99988 L798.82813 199.99983 L799.80469 199.99983 L800.78125 199.99971 L801.75781 199.99956 L802.73438 199.99983 L803.71094 199.99942 L804.68750 199.99963 L805.66406 199.99991 L806.64063 199.99979 L807.61719 199.99986 L808.59375 199.99992 L809.57031 199.99976 L810.54688 199.99982 L811.52344 199.99983 L812.50000 199.99983 L813.47656 199.99986 L814.45313 199.99983 L815.42969 199.99968 L816.40625 199.99979 L817.38281 199.99977 L818.35938 199.99969 L819.33594 199.99985 L820.31250 199.99954 L821.28906 199.99902 L822.26563 199.99988 L823.24219 199.99893 L824.21875 199.99950 L825.19531 199.99982 L826.17188 199.99973 L827.14844 199.99982 L828.12500 199.99985 L829.10156 199.99979 L830.07813 199.99991 L831.05469 199.99988 L832.03125 199.99992 L833.00781 199.99976 L833.98438 199.99989 L834.96094 199.99989 L835.93750 199.99973 L836.91406 199.99976 L837.89063 199.99954 L838.86719 199.99919 L839.84375 199.99928 L840.82031 199.99968 L841.79688 199.99988 L842.77344 199.99973 L843.75000 199.99985 L844.72656 199.99980 L845.70313 199.99983 L846.67969 199.99980 L847.65625 199.99982 L848.63281 199.99983 L849.60938 199.99988 L850.58594 199.99979 L851.56250 199.99974 L852.53906 199.99988 L853.51563 199.99991 L854.49219 199.99991 L855.46875 199.99991 L856.44531 199.99979 L857.42188 199.99963 L858.39844 199.99950 L859.37500 199.99948 L860.35156 199.99971 L861.32813 199.99980 L862.30469 199.99980 L863.28125 199.99983 L864.25781 199.99977 L865.23438 199.99985 L866.21094 199.99973 L867.18750 199.99995 L868.16406 199.99985 L869.14063 199.99980 L870.11719 199.99980 L871.09375 199.99971 L872.07031 199.99963 L873.04688 199.99954 L874.02344 199.99931 L875.00000 0.00014 L875.97656 199.99916 L876.95313 199.99951 L877.92969 199.99974 L878.90625 199.99982 L879.88281 199.99973 L880.85938 199.99986 L881.83594 199.99986 L882.81250 199.99986 L883.78906 199.99983 L884.76563 199.99979 L885.74219 199.99988 L886.71875 199.99980 L887.69531 199.99974 L888.67188 199.99983 L889.64844 199.99974 L890.62500 199.99983 L891.60156 199.99983 L892.57813 199.99963 L893.55469 199.99962 L894.53125 199.99937 L895.50781 199.99956 L896.48438 199.99969 L897.46094 199.99974 L898.43750 199.99986 L899.41406 199.99977 L900.39063 199.99969 L901.36719 199.99965 L902.34375 199.99960 L903.32031 199.99989 L904.29688 199.99989 L905.27344 199.99982 L906.25000 199.99982 L907.22656 199.99977 L908.20313 199.99983 L909.17969 199.99953 L910.15625 199.99934 L911.13281 199.99921 L912.10938 199.99951 L913.08594 199.99977 L914.06250 199.99988 L915.03906 199.99986 L916.01563 199.99986 L916.99219 199.99979 L917.96875 199.99973 L918.94531 199.99979 L919.92188 199.99985 L920.89844 199.99995 L921.87500 199.99991 L922.85156 199.99986 L923.82813 199.99983 L924.80469 199.99979 L925.78125 199.99985 L926.75781 199.99991 L927.73438 199.99991 L928.71094 199.99992 L929.68750 199.99977 L930.66406 199.99962 L931.64063 199.99962 L932.61719 199.99974 L933.59375 199.99985 L934.57031 199.99974 L935.54688 199.99980 L936.52344 199.99965 L937.50000 0.00001 L938.47656 199.99954 L939.45313 199.99980 L940.42969 199.99982 L941.40625 199.99982 L942.38281 199.99985 L943.35938 199.99988 L944.33594 199.99988 L945.31250 199.99969 L946.28906 199.99939 L947.26563 199.99982 L948.24219 199.99950 L949.21875 199.99988 L950.19531 199.99983 L951.17188 199.99985 L952.14844 199.99991 L953.12500 199.99982 L954.10156 199.99973 L955.07813 199.99980 L956.05469 199.99986 L957.03125 199.99988 L958.00781 199.99969 L958.98438 199.99988 L959.96094 199.99988 L960.93750 199.99960 L961.91406 199.99980 L962.89063 199.99986 L963.86719 199.99989 L964.84375 199.99983 L965.82031 199.99963 L966.79688 199.99992 L967.77344 199.99971 L968.75000 0.00013 L969.72656 199.99977 L970.70313 199.99979 L971.67969 199.99966 L972.65625 199.99966 L973.63281 199.99969 L974.60938 199.99963 L975.58594 199.99976 L976.56250 199.99989 L977.53906 199.99985 L978.51563 199.99971 L979.49219 199.99991 L980.46875 199.99971 L981.44531 199.99966 L982.42188 199.99965 L983.39844 199.99980 L984.37500 199.99979 L985.35156 199.99994 L986.32813 199.99983 L987.30469 199.99988 L988.28125 199.99989 L989.25781 199.99963 L990.23438 199.99986 L991.21094 199.99959 L992.18750 199.99982 L993.16406 199.99982 L994.14063 199.99976 L995.11719 199.99982 L996.09375 199.99980 L997.07031 199.99983 L998.04688 199.99985 L999.02344 199.99989" /><path fill="none" stroke="#000000" d="M0 300.00000  L0.00000 300.00000  L0.97656 299.12909  L1.95313 237.34729  L2.92969 207.17393  L3.90625 390.41171  L4.88281 380.61975  L5.85938 352.77802  L6.83594 331.00806  L7.81250 378.16925  L8.78906 320.71295  L9.76563 295.80701  L10.74219 279.31281  L11.71875 392.94495  L12.69531 291.19775  L13.67188 269.36691  L14.64844 341.31519  L15.62500 217.15672  L16.60156 216.30612  L17.57813 346.41064  L18.55469 344.42856  L19.53125 296.80618  L20.50781 263.51886  L21.48438 288.56042  L22.46094 272.05841  L23.43750 357.19098  L24.41406 284.17798  L25.39063 237.09372  L26.36719 398.60825  L27.34375 360.18665  L28.32031 326.52350  L29.29688 328.09033  L30.27344 308.80847  L31.25000 299.99994  L32.22656 335.57672  L33.20313 226.76384  L34.17969 285.02979  L35.15625 390.50272  L36.13281 341.29276  L37.10938 326.80988  L38.08594 375.82941  L39.06250 301.36487  L40.03906 303.83514  L41.01563 240.87894  L41.99219 266.71790  L42.96875 281.09314  L43.94531 288.06772  L44.92188 249.81487  L45.89844 386.20416  L46.87500 342.24344  L47.85156 245.24896  L48.82813 323.09125  L49.80469 322.06464  L50.78125 375.92267  L51.75781 316.34753  L52.73438 288.62003  L53.71094 278.53595  L54.68750 221.65201  L55.66406 246.36400  L56.64063 286.99622  L57.61719 367.58636  L58.59375 300.84045  L59.57031 292.48822  L60.54688 307.31998  L61.52344 296.89709  L62.50000 299.99982  L63.47656 396.04089  L64.45313 226.62411  L65.42969 203.73985  L66.40625 344.70544  L67.38281 272.55676  L68.35938 241.69878  L69.33594 202.01308  L70.31250 370.00955  L71.28906 315.26398  L72.26563 222.56490  L73.24219 262.88107  L74.21875 248.42078  L75.19531 205.42812  L76.17188 376.05670  L77.14844 372.31265  L78.12500 366.55154  L79.10156 387.98569  L80.07813 324.52701  L81.05469 352.66525  L82.03125 295.15488  L83.00781 230.78976  L83.98438 280.71292  L84.96094 268.92877  L85.93750 214.58757  L86.91406 260.45410  L87.89063 236.22404  L88.86719 396.68213  L89.84375 364.17279  L90.82031 324.21613  L91.79688 361.64233  L92.77344 315.29645  L93.75000 304.26373  L94.72656 360.11432  L95.70313 322.83188  L96.67969 361.55054  L97.65625 335.28403  L98.63281 301.06451  L99.60938 268.30945  L100.58594 375.75989  L101.56250 302.09882  L102.53906 244.81772  L103.51563 329.34167  L104.49219 356.28040  L105.46875 299.12366  L106.44531 235.65196  L107.42188 283.98526  L108.39844 329.33295  L109.37500 388.78577  L110.35156 295.18011  L111.32813 315.45621  L112.30469 292.15427  L113.28125 264.54480  L114.25781 279.02957  L115.23438 286.88458  L116.21094 276.24802  L117.18750 244.57796  L118.16406 273.69116  L119.14063 330.35583  L120.11719 305.81915  L121.09375 290.33752  L122.07031 308.89130  L123.04688 297.61700  L124.02344 295.67255  L125.00000 299.99963  L125.97656 204.31018  L126.95313 207.24445  L127.92969 202.04660  L128.90625 206.41086  L129.88281 389.34283  L130.85938 390.24252  L131.83594 218.65215  L132.81250 202.17029  L133.78906 209.20015  L134.76563 215.70667  L135.74219 377.46649  L136.71875 285.59747  L137.69531 219.09210  L138.67188 366.11414  L139.64844 275.94006  L140.62500 227.18918  L141.60156 395.90448  L142.57813 364.97394  L143.55469 348.29016  L144.53125 357.97739  L145.50781 387.66803  L146.48438 394.49124  L147.46094 397.79459  L148.43750 379.44983  L149.41406 350.92416  L150.39063 364.31769  L151.36719 364.68256  L152.34375 358.31583  L153.32031 325.73053  L154.29688 358.51959  L155.27344 291.50217  L156.25000 390.36124  L157.22656 346.89764  L158.20313 281.57623  L159.17969 378.27554  L160.15625 340.72986  L161.13281 302.77362  L162.10938 261.44830  L163.08594 210.06192  L164.06250 296.39847  L165.03906 250.62450  L166.01563 239.71199  L166.99219 263.84607  L167.96875 212.88863  L168.94531 311.66843  L169.92188 269.83649  L170.89844 326.27356  L171.87500 217.37364  L172.85156 219.90314  L173.82813 327.44720  L174.80469 282.06320  L175.78125 390.91467  L176.75781 321.00214  L177.73438 271.87170  L178.71094 278.95111  L179.68750 209.80534  L180.66406 262.29559  L181.64063 278.48724  L182.61719 382.36899  L183.59375 288.53751  L184.57031 261.11853  L185.54688 265.31601  L186.52344 273.06628  L187.50000 252.05292  L188.47656 249.85832  L189.45313 254.85196  L190.42969 223.13512  L191.40625 297.97052  L192.38281 297.40195  L193.35938 233.05847  L194.33594 226.47105  L195.31250 291.75287  L196.28906 226.74652  L197.26563 250.58893  L198.24219 383.04779  L199.21875 287.48203  L200.19531 221.01677  L201.17188 374.08704  L202.14844 243.90646  L203.12500 333.03897  L204.10156 327.16174  L205.07813 240.40007  L206.05469 269.89328  L207.03125 239.38022  L208.00781 263.97241  L208.98438 273.28387  L209.96094 244.31693  L210.93750 239.31721  L211.91406 273.74210  L212.89063 237.32668  L213.86719 200.14378  L214.84375 362.66714  L215.82031 324.48380  L216.79688 393.09454  L217.77344 347.60089  L218.75000 300.26404  L219.72656 394.05084  L220.70313 347.73172  L221.67969 328.04340  L222.65625 351.29999  L223.63281 336.87616  L224.60938 334.34210  L225.58594 357.90808  L226.56250 305.82428  L227.53906 212.70847  L228.51563 350.42908  L229.49219 302.11374  L230.46875 308.52539  L231.44531 357.79214  L232.42188 329.50839  L233.39844 317.10965  L234.37500 285.53998  L235.35156 286.96655  L236.32813 325.03607  L237.30469 297.07938  L238.28125 284.91718  L239.25781 305.18106  L240.23438 285.42627  L241.21094 325.38956  L242.18750 307.55392  L243.16406 278.49707  L244.14063 308.48340  L245.11719 310.64590  L246.09375 296.22574  L247.07031 305.63480  L248.04688 301.95370  L249.02344 300.15204  L250.00000 299.99930  L250.97656 200.52968  L251.95313 399.36853  L252.92969 395.03394  L253.90625 399.74780  L254.88281 382.76886  L255.85938 387.41351  L256.83594 220.60028  L257.81250 398.84515  L258.78906 203.19719  L259.76563 205.55745  L260.74219 203.13676  L261.71875 221.93428  L262.69531 392.92740  L263.67188 376.41467  L264.64844 230.79460  L265.62500 389.89468  L266.60156 355.96875  L267.57813 217.04045  L268.55469 261.54556  L269.53125 202.60081  L270.50781 360.62869  L271.48438 378.91479  L272.46094 226.23077  L273.43750 391.10614  L274.41406 350.87790  L275.39063 388.81140  L276.36719 368.52890  L277.34375 336.98212  L278.32031 203.55498  L279.29688 353.84253  L280.27344 318.81030  L281.25000 398.51031  L282.22656 352.00537  L283.20313 315.33698  L284.17969 376.61215  L285.15625 338.01163  L286.13281 300.50623  L287.10938 261.68616  L288.08594 225.35818  L289.06250 283.98889  L290.03906 247.69600  L291.01563 223.68997  L291.99219 249.56488  L292.96875 217.30402  L293.94531 392.61484  L294.92188 261.67017  L295.89844 207.83763  L296.87500 395.83038  L297.85156 298.91968  L298.82813 243.10152  L299.80469 256.71835  L300.78125 212.92862  L301.75781 211.75719  L302.73438 235.29776  L303.71094 201.16774  L304.68750 367.65198  L305.66406 294.75342  L306.64063 272.05670  L307.61719 396.75470  L308.59375 352.59863  L309.57031 263.70145  L310.54688 253.93961  L311.52344 276.77493  L312.50000 239.44943  L313.47656 225.10547  L314.45313 201.53101  L315.42969 251.02086  L316.40625 215.58818  L317.38281 319.56024  L318.35938 224.41124  L319.33594 226.45953  L320.31250 295.17517  L321.28906 220.55139  L322.26563 211.94989  L323.24219 377.81265  L324.21875 310.34625  L325.19531 200.54774  L326.17188 366.49011  L327.14844 288.53900  L328.12500 315.69250  L329.10156 343.05383  L330.07813 255.59753  L331.05469 202.58586  L332.03125 333.66885  L333.00781 248.99765  L333.98438 221.70181  L334.96094 387.61639  L335.93750 204.87857  L336.91406 345.47421  L337.89063 271.01935  L338.86719 387.49493  L339.84375 312.55048  L340.82031 230.56873  L341.79688 233.37862  L342.77344 375.92133  L343.75000 273.84680  L344.72656 209.93105  L345.70313 373.11591  L346.67969 391.20935  L347.65625 369.67786  L348.63281 348.07947  L349.60938 211.57315  L350.58594 373.21100  L351.56250 350.79529  L352.53906 299.11490  L353.51563 265.43546  L354.49219 366.58102  L355.46875 334.58020  L356.44531 384.71695  L357.42188 338.26630  L358.39844 301.88416  L359.37500 264.26215  L360.35156 222.83107  L361.32813 345.74167  L362.30469 254.62740  L363.28125 221.10204  L364.25781 212.30080  L365.23438 227.56891  L366.21094 372.33005  L367.18750 324.88937  L368.16406 218.96017  L369.14063 342.92682  L370.11719 361.65573  L371.09375 279.99350  L372.07031 242.42731  L373.04688 259.56305  L374.02344 393.31329  L375.00000 262.10529  L375.97656 211.49670  L376.95313 357.62405  L377.92969 312.15552  L378.90625 269.65143  L379.88281 365.53668  L380.85938 338.66055  L381.83594 263.34998  L382.81250 285.10983  L383.78906 260.73438  L384.76563 242.34015  L385.74219 387.93127  L386.71875 271.61743  L387.69531 228.14323  L388.67188 372.85202  L389.64844 400.00000  L390.62500 296.32910  L391.60156 371.08371  L392.57813 215.18916  L393.55469 265.73993  L394.53125 200.44211  L395.50781 341.41165  L396.48438 375.88025  L397.46094 236.53189  L398.43750 339.77145  L399.41406 331.78931  L400.39063 346.16315  L401.36719 306.70392  L402.34375 390.26947  L403.32031 225.31238  L404.29688 294.35696  L405.27344 305.82547  L406.25000 216.93582  L407.22656 214.90088  L408.20313 359.84528  L409.17969 397.94391  L410.15625 223.37387  L411.13281 321.48532  L412.10938 282.93472  L413.08594 282.59198  L414.06250 204.03670  L415.03906 319.08600  L416.01563 258.50082  L416.99219 398.40387  L417.96875 390.38416  L418.94531 380.16235  L419.92188 381.67090  L420.89844 348.19968  L421.87500 297.17224  L422.85156 372.28253  L423.82813 345.30023  L424.80469 299.78891  L425.78125 241.16974  L426.75781 380.40158  L427.73438 258.58188  L428.71094 372.44336  L429.68750 345.97357  L430.66406 301.30945  L431.64063 263.85965  L432.61719 219.18436  L433.59375 286.25500  L434.57031 256.34052  L435.54688 224.38507  L436.52344 212.85092  L437.50000 208.52640  L438.47656 383.24997  L439.45313 399.84320  L440.42969 258.09439  L441.40625 386.17404  L442.38281 322.77563  L443.35938 390.69736  L444.33594 257.67755  L445.31250 238.95126  L446.28906 343.03217  L447.26563 233.13606  L448.24219 203.98787  L449.21875 367.44678  L450.19531 320.74426  L451.17188 247.86606  L452.14844 220.99638  L453.12500 308.48526  L454.10156 315.95422  L455.07813 392.58411  L456.05469 257.52414  L457.03125 220.39232  L458.00781 244.30986  L458.98438 268.44202  L459.96094 273.24384  L460.93750 200.47537  L461.91406 311.75629  L462.89063 360.99466  L463.86719 371.40790  L464.84375 312.53766  L465.82031 217.51384  L466.79688 229.70416  L467.77344 379.76361  L468.75000 307.52124  L469.72656 214.72311  L470.70313 356.51871  L471.67969 339.07962  L472.65625 322.91119  L473.63281 327.87946  L474.60938 272.58133  L475.58594 371.35577  L476.56250 353.48822  L477.53906 257.89243  L478.51563 238.92171  L479.49219 391.26563  L480.46875 254.59224  L481.44531 342.56757  L482.42188 378.54987  L483.39844 215.28311  L484.37500 307.03421  L485.35156 229.03429  L486.32813 235.38225  L487.30469 384.57028  L488.28125 286.16492  L489.25781 215.34114  L490.23438 383.99695  L491.21094 394.92651  L492.18750 376.70987  L493.16406 335.27701  L494.14063 288.83511  L495.11719 372.65924  L496.09375 337.46466  L497.07031 299.97470  L498.04688 254.68045  L499.02344 206.24046  L500.00000 300.00000  L500.97656 393.75946  L501.95313 345.31955  L502.92969 300.02530  L503.90625 262.53534  L504.88281 227.34077  L505.85938 311.16498  L506.83594 264.72299  L507.81250 223.29013  L508.78906 205.07349  L509.76563 216.00302  L510.74219 384.65887  L511.71875 313.83508  L512.69531 215.42972  L513.67188 364.61774  L514.64844 370.96573  L515.62500 292.96579  L516.60156 384.71692  L517.57813 221.45012  L518.55469 257.43240  L519.53125 345.40781  L520.50781 208.73438  L521.48438 361.07831  L522.46094 342.10757  L523.43750 246.51180  L524.41406 228.64421  L525.39063 327.41867  L526.36719 272.12054  L527.34375 277.08884  L528.32031 260.92035  L529.29688 243.48129  L530.27344 385.27692  L531.25000 291.48462  L532.22656 220.23639  L533.20313 370.29584  L534.17969 382.48615  L535.15625 287.46237  L536.13281 228.59213  L537.10938 239.00519  L538.08594 288.24368  L539.06250 399.52463  L540.03906 326.75616  L541.01563 331.55798  L541.99219 355.69012  L542.96875 379.60767  L543.94531 342.47586  L544.92188 207.41585  L545.89844 284.04578  L546.87500 291.51474  L547.85156 379.00360  L548.82813 352.13391  L549.80469 279.25574  L550.78125 232.55322  L551.75781 396.01215  L552.73438 366.86392  L553.71094 256.96783  L554.68750 361.04883  L555.66406 342.32245  L556.64063 209.30264  L557.61719 277.22437  L558.59375 213.82596  L559.57031 341.90564  L560.54688 200.15675  L561.52344 216.75003  L562.50000 396.41510  L563.47656 387.14905  L564.45313 375.61493  L565.42969 343.65948  L566.40625 313.74496  L567.38281 380.81567  L568.35938 336.14035  L569.33594 298.69055  L570.31250 254.02641  L571.28906 227.55658  L572.26563 341.41815  L573.24219 219.59831  L574.21875 358.83023  L575.19531 300.21109  L576.17188 254.69977  L577.14844 227.71747  L578.12500 302.82776  L579.10156 251.80031  L580.07813 218.32907  L581.05469 219.83766  L582.03125 209.61586  L583.00781 201.59612  L583.98438 341.49921  L584.96094 280.91400  L585.93750 395.96332  L586.91406 317.40802  L587.89063 317.06531  L588.86719 278.51471  L589.84375 376.62610  L590.82031 202.05617  L591.79688 240.15471  L592.77344 385.09915  L593.75000 384.06323  L594.72656 294.17450  L595.70313 305.64304  L596.67969 374.68762  L597.65625 209.73018  L598.63281 293.29611  L599.60938 253.83688  L600.58594 268.21066  L601.56250 260.22852  L602.53906 363.46811  L603.51563 224.11974  L604.49219 258.58835  L605.46875 399.55786  L606.44531 334.26007  L607.42188 384.81082  L608.39844 228.91631  L609.37500 303.67090  L610.35156 200.00000  L611.32813 227.14793  L612.30469 371.85675  L613.28125 328.38257  L614.25781 212.06870  L615.23438 357.65985  L616.21094 339.26563  L617.18750 314.89017  L618.16406 336.65002  L619.14063 261.33945  L620.11719 234.46332  L621.09375 330.34857  L622.07031 287.84448  L623.04688 242.37595  L624.02344 388.50327  L625.00000 350.00873  L625.97656 206.68666  L626.95313 340.43713  L627.92969 357.57269  L628.90625 320.00653  L629.88281 238.34428  L630.85938 257.07315  L631.83594 381.03983  L632.81250 275.11063  L633.78906 227.66995  L634.76563 372.43109  L635.74219 387.69922  L636.71875 378.89795  L637.69531 345.37259  L638.67188 254.25830  L639.64844 377.16895  L640.62500 335.73782  L641.60156 298.11584  L642.57813 261.73370  L643.55469 215.28305  L644.53125 265.41980  L645.50781 233.41899  L646.48438 334.56454  L647.46094 300.88513  L648.43750 249.20471  L649.41406 226.78902  L650.39063 388.42682  L651.36719 251.92052  L652.34375 230.32211  L653.32031 208.79066  L654.29688 226.88409  L655.27344 390.06894  L656.25000 329.26898  L657.22656 224.07866  L658.20313 366.62140  L659.17969 369.43127  L660.15625 287.44952  L661.13281 212.50511  L662.10938 328.98041  L663.08594 254.52582  L664.06250 395.12146  L665.03906 212.38359  L666.01563 378.29819  L666.99219 351.00235  L667.96875 266.33115  L668.94531 397.41412  L669.92188 344.40247  L670.89844 256.94620  L671.87500 284.30750  L672.85156 311.46097  L673.82813 233.50989  L674.80469 399.45224  L675.78125 289.65372  L676.75781 222.18735  L677.73438 388.05011  L678.71094 379.44861  L679.68750 304.82483  L680.66406 373.54047  L681.64063 375.58875  L682.61719 280.43976  L683.59375 384.41180  L684.57031 348.97913  L685.54688 398.46899  L686.52344 374.89453  L687.50000 360.14276  L688.47656 323.22510  L689.45313 346.06042  L690.42969 336.29852  L691.40625 247.40140  L692.38281 203.24533  L693.35938 327.94330  L694.33594 305.24658  L695.31250 232.34801  L696.28906 398.83228  L697.26563 364.70227  L698.24219 388.24280  L699.21875 387.07138  L700.19531 343.28165  L701.17188 356.89847  L702.14844 301.08032  L703.12500 204.16960  L704.10156 392.16241  L705.07813 338.32983  L706.05469 207.38515  L707.03125 382.69598  L708.00781 350.43512  L708.98438 376.31003  L709.96094 352.30402  L710.93750 316.01111  L711.91406 374.64182  L712.89063 338.31384  L713.86719 299.49377  L714.84375 261.98837  L715.82031 223.38785  L716.79688 284.66302  L717.77344 247.99463  L718.75000 202.81087  L719.72656 281.18967  L720.70313 246.15749  L721.67969 396.44501  L722.65625 263.01785  L723.63281 231.47112  L724.60938 211.18857  L725.58594 249.12210  L726.56250 208.89386  L727.53906 373.76923  L728.51563 221.08519  L729.49219 239.37131  L730.46875 397.39917  L731.44531 338.45444  L732.42188 382.95953  L733.39844 244.03125  L734.37500 210.10532  L735.35156 369.20541  L736.32813 223.58534  L737.30469 207.07260  L738.28125 378.06570  L739.25781 396.86325  L740.23438 394.44257  L741.21094 396.80280  L742.18750 201.15482  L743.16406 379.39972  L744.14063 212.58649  L745.11719 217.23116  L746.09375 200.25221  L747.07031 204.96606  L748.04688 200.63147  L749.02344 399.47034  L750.00000 300.00070  L750.97656 299.84796  L751.95313 298.04630  L752.92969 294.36520  L753.90625 303.77426  L754.88281 289.35410  L755.85938 291.51660  L756.83594 321.50293  L757.81250 292.44608  L758.78906 274.61044  L759.76563 314.57373  L760.74219 294.81894  L761.71875 315.08282  L762.69531 302.92062  L763.67188 274.96393  L764.64844 313.03348  L765.62500 314.46002  L766.60156 282.89035  L767.57813 270.49161  L768.55469 242.20782  L769.53125 291.47461  L770.50781 297.88626  L771.48438 249.57092  L772.46094 387.29153  L773.43750 294.17572  L774.41406 242.09190  L775.39063 265.65787  L776.36719 263.12384  L777.34375 248.70001  L778.32031 271.95663  L779.29688 252.26828  L780.27344 205.94917  L781.25000 299.54407  L782.22656 252.39909  L783.20313 206.90546  L784.17969 275.51620  L785.15625 237.33286  L786.13281 399.85620  L787.10938 362.67331  L788.08594 326.25790  L789.06250 360.68280  L790.03906 355.68304  L791.01563 326.71613  L791.99219 336.02762  L792.96875 360.61987  L793.94531 330.10675  L794.92188 359.59991  L795.89844 272.83829  L796.87500 266.96106  L797.85156 356.09351  L798.82813 225.91295  L799.80469 378.98322  L800.78125 312.51797  L801.75781 216.95221  L802.73438 349.41107  L803.71094 373.25348  L804.68750 308.24710  L805.66406 373.52893  L806.64063 366.94153  L807.61719 302.59808  L808.59375 302.02951  L809.57031 376.86487  L810.54688 345.14804  L811.52344 350.14172  L812.50000 349.94507  L813.47656 326.93372  L814.45313 334.68399  L815.42969 338.88147  L816.40625 311.46249  L817.38281 217.63100  L818.35938 321.51276  L819.33594 337.70441  L820.31250 390.19464  L821.28906 321.04889  L822.26563 328.12830  L823.24219 278.99786  L824.21875 209.08530  L825.19531 317.93680  L826.17188 272.55280  L827.14844 380.09686  L828.12500 382.62634  L829.10156 273.72644  L830.07813 330.16351  L831.05469 288.33154  L832.03125 387.11139  L833.00781 336.15393  L833.98438 360.28802  L834.96094 349.37549  L835.93750 303.60153  L836.91406 389.93805  L837.89063 338.55170  L838.86719 297.22638  L839.84375 259.27014  L840.82031 221.72446  L841.79688 318.42377  L842.77344 253.10236  L843.75000 210.81955  L844.72656 308.49783  L845.70313 241.48041  L846.67969 274.26944  L847.65625 241.68417  L848.63281 235.31744  L849.60938 235.68233  L850.58594 249.07584  L851.56250 220.55017  L852.53906 202.20543  L853.51563 205.50873  L854.49219 212.33206  L855.46875 242.02257  L856.44531 251.70982  L857.42188 235.02608  L858.39844 204.09554  L859.37500 372.81079  L860.35156 324.05991  L861.32813 233.88585  L862.30469 380.90790  L863.28125 314.40253  L864.25781 222.53351  L865.23438 384.29333  L866.21094 390.79987  L867.18750 397.82953  L868.16406 381.34784  L869.14063 209.75748  L870.11719 210.65720  L871.09375 393.58914  L872.07031 397.95340  L873.04688 392.75555  L874.02344 395.68982  L875.00000 300.00037  L875.97656 304.32745  L876.95313 302.38300  L877.92969 291.10870  L878.90625 309.66248  L879.88281 294.18085  L880.85938 269.64417  L881.83594 326.30884  L882.81250 355.42206  L883.78906 323.75195  L884.76563 313.11542  L885.74219 320.97043  L886.71875 335.45520  L887.69531 307.84573  L888.67188 284.54376  L889.64844 304.81989  L890.62500 211.21423  L891.60156 270.66708  L892.57813 316.01471  L893.55469 364.34802  L894.53125 300.87631  L895.50781 243.71959  L896.48438 270.65829  L897.46094 355.18228  L898.43750 297.90118  L899.41406 224.24008  L900.39063 331.69055  L901.36719 298.93549  L902.34375 264.71597  L903.32031 238.44949  L904.29688 277.16809  L905.27344 239.88565  L906.25000 295.59598  L907.22656 284.70355  L908.20313 238.35767  L909.17969 275.78384  L910.15625 235.82718  L911.13281 203.31787  L912.10938 363.77594  L913.08594 339.54590  L914.06250 385.41241  L915.03906 331.07123  L916.01563 319.28708  L916.99219 369.21021  L917.96875 304.84512  L918.94531 247.33475  L919.92188 275.47296  L920.89844 212.01428  L921.87500 233.44846  L922.85156 227.68735  L923.82813 223.94331  L924.80469 394.57190  L925.78125 351.57919  L926.75781 337.11896  L927.73438 377.43512  L928.71094 284.73599  L929.68750 229.99045  L930.66406 397.98694  L931.64063 358.30121  L932.61719 327.44324  L933.59375 255.29456  L934.57031 396.26013  L935.54688 373.37589  L936.52344 203.95909  L937.50000 300.00018  L938.47656 303.10291  L939.45313 292.68002  L940.42969 307.51175  L941.40625 299.15955  L942.38281 232.41364  L943.35938 313.00378  L944.33594 353.63602  L945.31250 378.34799  L946.28906 321.46405  L947.26563 311.37997  L948.24219 283.65247  L949.21875 224.07732  L950.19531 277.93536  L951.17188 276.90875  L952.14844 354.75104  L953.12500 257.75653  L954.10156 213.79584  L955.07813 350.18512  L956.05469 311.93228  L957.03125 318.90686  L958.00781 333.28210  L958.98438 359.12109  L959.96094 296.16486  L960.93750 298.63513  L961.91406 224.17059  L962.89063 273.19009  L963.86719 258.70734  L964.84375 209.49730  L965.82031 314.97021  L966.79688 373.23615  L967.77344 264.42328  L968.75000 300.00006  L969.72656 291.19150  L970.70313 271.90964  L971.67969 273.47650  L972.65625 239.81337  L973.63281 201.39175  L974.60938 362.90628  L975.58594 315.82202  L976.56250 242.80899  L977.53906 327.94159  L978.51563 311.43958  L979.49219 336.48108  L980.46875 303.19382  L981.44531 255.57144  L982.42188 253.58934  L983.39844 383.69385  L984.37500 382.84326  L985.35156 258.68481  L986.32813 330.63306  L987.30469 308.80225  L988.28125 207.05502  L989.25781 320.68723  L990.23438 304.19299  L991.21094 279.28705  L992.18750 221.83075  L993.16406 268.99194  L994.14063 247.22197  L995.11719 219.38022  L996.09375 209.58829  L997.07031 392.82608  L998.04688 362.65271  L999.02344 300.87085 " /></g><text x="1000.00000" dx="10" y="199.99995">[-0.00000;0.50000]</text><text x="1000.00000" dx="10" y="300.00000">[-3.14104;3.14104]</text></svg>