<svg xmlns="http://www.w3.org/2000/svg" version="1.1"><g stroke-width="0.6"><path fill="none" stroke="#000000" d="M0 117.63830 L1000.00000 117.63830" /><path fill="none" stroke="#000000" d="M0 300.00000 L1000.00000 300.00000" /><path fill="none" stroke="#000000" d="M500.00000 0 L500.00000 400.00000" /><path fill="none" stroke="#000000" d="M0 117.63830  L0.00000 117.63830 L0.97656 134.78249 L1.95313 156.56483 L2.92969 129.89693 L3.90625 64.04525 L4.88281 27.09535 L5.85938 59.36191 L6.83594 120.54869 L7.81250 142.58861 L8.78906 116.23338 L9.76563 94.58960 L10.74219 112.24950 L11.71875 134.63649 L12.69531 108.65974 L13.67188 43.58314 L14.64844 7.48896 L15.62500 40.68869 L16.60156 102.88229 L17.57813 125.99870 L18.55469 100.78558 L19.53125 80.34474 L20.50781 99.26388 L21.48438 122.96125 L22.46094 98.34113 L23.43750 34.66167 L24.41406 0.00000 L25.39063 34.66178 L26.36719 98.34119 L27.34375 122.96135 L28.32031 99.26389 L29.29688 80.34474 L30.27344 100.78556 L31.25000 125.99876 L32.22656 102.88223 L33.20313 40.68858 L34.17969 7.48897 L35.15625 43.58328 L36.13281 108.65984 L37.10938 134.63657 L38.08594 112.24949 L39.06250 94.58961 L40.03906 116.23350 L41.01563 142.58864 L41.99219 120.54860 L42.96875 59.36190 L43.94531 27.09537 L44.92188 64.04534 L45.89844 129.89705 L46.87500 156.56488 L47.85156 134.78247 L48.82813 117.63831 L49.80469 139.70702 L50.78125 166.39429 L51.75781 144.59235 L52.73438 83.54875 L53.71094 51.33019 L54.68750 88.23223 L55.66406 153.94067 L56.64063 180.37047 L57.61719 158.25598 L58.59375 140.68700 L59.57031 162.23984 L60.54688 188.32246 L61.52344 165.82945 L62.50000 104.01093 L63.47656 70.93655 L64.45313 106.90571 L65.42969 171.60728 L66.40625 196.96016 L67.38281 173.70360 L68.35938 154.93185 L69.33594 175.22571 L70.31250 199.99782 L71.28906 176.14822 L72.26563 112.93246 L73.24219 78.42553 L74.21875 112.93254 L75.19531 176.14833 L76.17188 199.99774 L77.14844 175.22546 L78.12500 154.93185 L79.10156 173.70384 L80.07813 196.96024 L81.05469 171.60699 L82.03125 106.90534 L83.00781 70.93655 L83.98438 104.01127 L84.96094 165.82971 L85.93750 188.32253 L86.91406 162.23985 L87.89063 140.68697 L88.86719 158.25591 L89.84375 180.37033 L90.82031 153.94052 L91.79688 88.23211 L92.77344 51.33015 L93.75000 83.54908 L94.72656 144.59261 L95.70313 166.39417 L96.67969 139.70674 L97.65625 117.63827 L98.63281 134.78258 L99.60938 156.56479 L100.58594 129.89658 L101.56250 64.04485 L102.53906 27.09533 L103.51563 59.36235 L104.49219 120.54884 L105.46875 142.58833 L106.44531 116.23302 L107.42188 94.58961 L108.39844 112.24995 L109.37500 134.63644 L110.35156 108.65988 L111.32813 43.58324 L112.30469 7.48896 L113.28125 40.68861 L114.25781 102.88226 L115.23438 125.99878 L116.21094 100.78560 L117.18750 80.34473 L118.16406 99.26385 L119.14063 122.96126 L120.11719 98.34099 L121.09375 34.66155 L122.07031 0.00000 L123.04688 34.66191 L124.02344 98.34133 L125.00000 122.96133 L125.97656 99.26376 L126.95313 80.34474 L127.92969 100.78571 L128.90625 125.99872 L129.88281 102.88194 L130.85938 40.68827 L131.83594 7.48898 L132.81250 43.58360 L133.78906 108.66024 L134.76563 134.63654 L135.74219 112.24931 L136.71875 94.58963 L137.69531 116.23389 L138.67188 142.58893 L139.64844 120.54845 L140.62500 59.36147 L141.60156 27.09535 L142.57813 64.04522 L143.55469 129.89694 L144.53125 156.56488 L145.50781 134.78252 L146.48438 117.63830 L147.46094 139.70686 L148.43750 166.39412 L149.41406 144.59229 L150.39063 83.54876 L151.36719 51.33018 L152.34375 88.23248 L153.32031 153.94089 L154.29688 180.37044 L155.27344 158.25584 L156.25000 140.68700 L157.22656 162.23997 L158.20313 188.32248 L159.17969 165.82922 L160.15625 104.01065 L161.13281 70.93657 L162.10938 106.90598 L163.08594 171.60753 L164.06250 196.96028 L165.03906 173.70355 L166.01563 154.93185 L166.99219 175.22594 L167.96875 199.99799 L168.94531 176.14796 L169.92188 112.93201 L170.89844 78.42553 L171.87500 112.93243 L172.85156 176.14824 L173.82813 199.99774 L174.80469 175.22552 L175.78125 154.93184 L176.75781 173.70377 L177.73438 196.96021 L178.71094 171.60693 L179.68750 106.90535 L180.66406 70.93654 L181.64063 104.01123 L182.61719 165.82974 L183.59375 188.32248 L184.57031 162.23970 L185.54688 140.68695 L186.52344 158.25603 L187.50000 180.37033 L188.47656 153.94028 L189.45313 88.23182 L190.42969 51.33013 L191.40625 83.54932 L192.38281 144.59280 L193.35938 166.39412 L194.33594 139.70659 L195.31250 117.63824 L196.28906 134.78270 L197.26563 156.56508 L198.24219 129.89632 L199.21875 64.04473 L200.19531 27.09538 L201.17188 59.36246 L202.14844 120.54900 L203.12500 142.58832 L204.10156 116.23364 L205.07813 94.58962 L206.05469 112.24935 L207.03125 134.63684 L208.00781 108.65939 L208.98438 43.58241 L209.96094 7.48897 L210.93750 40.68944 L211.91406 102.88278 L212.89063 125.99841 L213.86719 100.78529 L214.84375 80.34474 L215.82031 99.26416 L216.79688 122.96163 L217.77344 98.34105 L218.75000 34.66186 L219.72656 0.00000 L220.70313 34.66159 L221.67969 98.34127 L222.65625 122.96165 L223.63281 99.26344 L224.60938 80.34474 L225.58594 100.78601 L226.56250 125.99839 L227.53906 102.88200 L228.51563 40.68858 L229.49219 7.48898 L230.46875 43.58329 L231.44531 108.66018 L232.42188 134.63686 L233.39844 112.24899 L234.37500 94.58962 L235.35156 116.23402 L236.32813 142.58830 L237.30469 120.54822 L238.28125 59.36159 L239.25781 27.09538 L240.23438 64.04568 L241.21094 129.89754 L242.18750 156.56517 L243.16406 134.78183 L244.14063 117.63832 L245.11719 139.70760 L246.09375 166.39445 L247.07031 144.59174 L248.04688 83.54870 L249.02344 51.33021 L250.00000 88.23260 L250.97656 153.94078 L251.95313 180.37013 L252.92969 158.25629 L253.90625 140.68701 L254.88281 162.23956 L255.85938 188.32280 L256.83594 165.82936 L257.81250 104.01058 L258.78906 70.93658 L259.76563 106.90609 L260.74219 171.60741 L261.71875 196.95999 L262.69531 173.70399 L263.67188 154.93187 L264.64844 175.22534 L265.62500 199.99802 L266.60156 176.14781 L267.57813 112.93174 L268.55469 78.42553 L269.53125 112.93327 L270.50781 176.14876 L271.48438 199.99736 L272.46094 175.22556 L273.43750 154.93184 L274.41406 173.70372 L275.39063 196.96057 L276.36719 171.60641 L277.34375 106.90450 L278.32031 70.93652 L279.29688 104.01209 L280.27344 165.82973 L281.25000 188.32214 L282.22656 162.23943 L283.20313 140.68698 L284.17969 158.25638 L285.15625 180.37006 L286.13281 153.94037 L287.10938 88.23218 L288.08594 51.33018 L289.06250 83.54906 L290.03906 144.59279 L291.01563 166.39449 L291.99219 139.70631 L292.96875 117.63829 L293.94531 134.78307 L294.92188 156.56451 L295.89844 129.89642 L296.87500 64.04491 L297.85156 27.09535 L298.82813 59.36230 L299.80469 120.54927 L300.78125 142.58890 L301.75781 116.23273 L302.73438 94.58960 L303.71094 112.25022 L304.68750 134.63620 L305.66406 108.65907 L306.64063 43.58252 L307.61719 7.48896 L308.59375 40.68895 L309.57031 102.88306 L310.54688 125.99844 L311.52344 100.78475 L312.50000 80.34473 L313.47656 99.26355 L314.45313 122.96159 L315.42969 98.34089 L316.40625 34.66120 L317.38281 0.00000 L318.35938 34.66225 L319.33594 98.34143 L320.31250 122.96100 L321.28906 99.26405 L322.26563 80.34475 L323.24219 100.78542 L324.21875 125.99905 L325.19531 102.88184 L326.17188 40.68793 L327.14844 7.48899 L328.12500 43.58396 L329.10156 108.66035 L330.07813 134.63622 L331.05469 112.24961 L332.03125 94.58965 L333.00781 116.23343 L333.98438 142.58897 L334.96094 120.54808 L335.93750 59.36095 L336.91406 27.09540 L337.89063 64.04637 L338.86719 129.89716 L339.84375 156.56454 L340.82031 134.78212 L341.79688 117.63834 L342.77344 139.70737 L343.75000 166.39388 L344.72656 144.59218 L345.70313 83.54886 L346.67969 51.33023 L347.65625 88.23249 L348.63281 153.94110 L349.60938 180.37077 L350.58594 158.25542 L351.56250 140.68703 L352.53906 162.24046 L353.51563 188.32220 L354.49219 165.82909 L355.46875 104.01073 L356.44531 70.93655 L357.42188 106.90593 L358.39844 171.60768 L359.37500 196.96057 L360.35156 173.70309 L361.32813 154.93185 L362.30469 175.22621 L363.28125 199.99741 L364.25781 176.14751 L365.23438 112.93186 L366.21094 78.42553 L367.18750 112.93314 L368.16406 176.14905 L369.14063 199.99799 L370.11719 175.22467 L371.09375 154.93185 L372.07031 173.70464 L373.04688 196.96056 L374.02344 171.60614 L375.00000 106.90501 L375.97656 70.93655 L376.95313 104.01160 L377.92969 165.82986 L378.90625 188.32217 L379.88281 162.24001 L380.85938 140.68697 L381.83594 158.25575 L382.81250 180.37068 L383.78906 153.94019 L384.76563 88.23149 L385.74219 51.33015 L386.71875 83.54969 L387.69531 144.59293 L388.67188 166.39381 L389.64844 139.70689 L390.62500 117.63827 L391.60156 134.78242 L392.57813 156.56514 L393.55469 129.89624 L394.53125 64.04388 L395.50781 27.09532 L396.48438 59.36294 L397.46094 120.54941 L398.43750 142.58879 L399.41406 116.23183 L400.39063 94.58958 L401.36719 112.24960 L402.34375 134.63742 L403.32031 108.65877 L404.29688 43.58299 L405.27344 7.48895 L406.25000 40.68959 L407.22656 102.88194 L408.20313 125.99904 L409.17969 100.78535 L410.15625 80.34473 L411.13281 99.26329 L412.10938 122.96097 L413.08594 98.34003 L414.06250 34.66054 L415.03906 0.00000 L416.01563 34.66212 L416.99219 98.34229 L417.96875 122.96034 L418.94531 99.26431 L419.92188 80.34476 L420.89844 100.78596 L421.87500 125.99973 L422.85156 102.88227 L423.82813 40.68807 L424.80469 7.48901 L425.78125 43.58463 L426.75781 108.65996 L427.73438 134.63684 L428.71094 112.24910 L429.68750 94.58966 L430.66406 116.23320 L431.64063 142.58839 L432.61719 120.54838 L433.59375 59.36032 L434.57031 27.09542 L435.54688 64.04626 L436.52344 129.89748 L437.50000 156.56531 L438.47656 134.78275 L439.45313 117.63837 L440.42969 139.70828 L441.40625 166.39384 L442.38281 144.59204 L443.35938 83.54787 L444.33594 51.33025 L445.31250 88.23203 L446.28906 153.94128 L447.26563 180.37071 L448.24219 158.25456 L449.21875 140.68706 L450.19531 162.23988 L451.17188 188.32231 L452.14844 165.82881 L453.12500 104.01122 L454.10156 70.93661 L455.07813 106.90700 L456.05469 171.60802 L457.03125 196.96066 L458.00781 173.70374 L458.98438 154.93188 L459.96094 175.22713 L460.93750 199.99738 L461.91406 176.14737 L462.89063 112.93086 L463.86719 78.42553 L464.84375 112.93266 L465.82031 176.14920 L466.79688 199.99673 L467.77344 175.22377 L468.75000 154.93182 L469.72656 173.70399 L470.70313 196.96118 L471.67969 171.60721 L472.65625 106.90508 L473.63281 70.93658 L474.60938 104.01228 L475.58594 165.82948 L476.56250 188.32281 L477.53906 162.23952 L478.51563 140.68701 L479.49219 158.25554 L480.46875 180.37012 L481.44531 153.93938 L482.42188 88.23088 L483.39844 51.33020 L484.37500 83.54961 L485.35156 144.59383 L486.32813 166.39320 L487.30469 139.70720 L488.28125 117.63831 L489.25781 134.78302 L490.23438 156.56586 L491.21094 129.89670 L492.18750 64.04441 L493.16406 27.09537 L494.14063 59.36364 L495.11719 120.54904 L496.09375 142.58888 L497.07031 116.23212 L498.04688 94.58962 L499.02344 112.24937 L500.00000 134.63626 L500.97656 108.65921 L501.95313 43.58350 L502.92969 7.48897 L503.90625 40.68984 L504.88281 102.88295 L505.85938 125.99911 L506.83594 100.78561 L507.81250 80.34474 L508.78906 99.26533 L509.76563 122.96094 L510.74219 98.34044 L511.71875 34.66032 L512.69531 0.00000 L513.67188 34.66165 L514.64844 98.34188 L515.62500 122.96152 L516.60156 99.26228 L517.57813 80.34474 L518.55469 100.78569 L519.53125 125.99852 L520.50781 102.88125 L521.48438 40.68852 L522.46094 7.48898 L523.43750 43.58482 L524.41406 108.66093 L525.39063 134.63686 L526.36719 112.24931 L527.34375 94.58962 L528.32031 116.23518 L529.29688 142.58830 L530.27344 120.54761 L531.25000 59.36076 L532.22656 27.09538 L533.20313 64.04574 L534.17969 129.89815 L535.15625 156.56390 L536.13281 134.78294 L537.10938 117.63832 L538.08594 139.70728 L539.06250 166.39517 L540.03906 144.59241 L541.01563 83.54830 L541.99219 51.33021 L542.96875 88.23378 L543.94531 153.94083 L544.92188 180.37071 L545.89844 158.25548 L546.87500 140.68701 L547.85156 162.23959 L548.82813 188.32224 L549.80469 165.82805 L550.78125 104.00940 L551.75781 70.93658 L552.73438 106.90649 L553.71094 171.60872 L554.68750 196.95927 L555.66406 173.70398 L556.64063 154.93187 L557.61719 175.22615 L558.59375 199.99873 L559.57031 176.14777 L560.54688 112.93134 L561.52344 78.42553 L562.50000 112.93446 L563.47656 176.14879 L564.45313 199.99792 L565.42969 175.22404 L566.40625 154.93184 L567.38281 173.70375 L568.35938 196.96002 L569.33594 171.60623 L570.31250 106.90559 L571.28906 70.93652 L572.26563 104.01244 L573.24219 165.83041 L574.21875 188.32278 L575.19531 162.23970 L576.17188 140.68692 L577.14844 158.25748 L578.12500 180.37000 L579.10156 153.93970 L580.07813 88.23057 L581.05469 51.33011 L582.03125 83.54903 L583.00781 144.59332 L583.98438 166.39427 L584.96094 139.70508 L585.93750 117.63821 L586.91406 134.78265 L587.89063 156.56458 L588.86719 129.89561 L589.84375 64.04479 L590.82031 27.09527 L591.79688 59.36307 L592.77344 120.54995 L593.75000 142.58884 L594.72656 116.23299 L595.70313 94.58954 L596.67969 112.24905 L597.65625 134.63615 L598.63281 108.65842 L599.60938 43.58164 L600.58594 7.48892 L601.56250 40.68930 L602.53906 102.88364 L603.51563 125.99770 L604.49219 100.78584 L605.46875 80.34471 L606.44531 99.26434 L607.42188 122.96228 L608.39844 98.34084 L609.37500 34.66080 L610.35156 0.00000 L611.32813 34.66344 L612.30469 98.34148 L613.28125 122.96158 L614.25781 99.26326 L615.23438 80.34477 L616.21094 100.78547 L617.18750 125.99852 L618.16406 102.88057 L619.14063 40.68679 L620.11719 7.48904 L621.09375 43.58440 L622.07031 108.66058 L623.04688 134.63557 L624.02344 112.24964 L625.00000 94.58971 L625.97656 116.23501 L626.95313 142.58835 L627.92969 120.54811 L628.90625 59.36063 L629.88281 27.09547 L630.85938 64.04520 L631.83594 129.89769 L632.81250 156.56503 L633.78906 134.78088 L634.76563 117.63828 L635.74219 139.70697 L636.71875 166.39394 L637.69531 144.59135 L638.67188 83.54874 L639.64844 51.33016 L640.62500 88.23396 L641.60156 153.94177 L642.57813 180.37071 L643.55469 158.25569 L644.53125 140.68697 L645.50781 162.24158 L646.48438 188.32216 L647.46094 165.82843 L648.43750 104.00914 L649.41406 70.93655 L650.39063 106.90598 L651.36719 171.60829 L652.34375 196.95929 L653.32031 173.70193 L654.29688 154.93185 L655.27344 175.22589 L656.25000 199.99867 L657.22656 176.14818 L658.20313 112.93182 L659.17969 78.42553 L660.15625 112.93397 L661.13281 176.14838 L662.10938 199.99799 L663.08594 175.22501 L664.06250 154.93185 L665.03906 173.70351 L666.01563 196.95999 L666.99219 171.60553 L667.96875 106.90382 L668.94531 70.93655 L669.92188 104.01199 L670.89844 165.83118 L671.87500 188.32146 L672.85156 162.23999 L673.82813 140.68697 L674.80469 158.25656 L675.78125 180.37140 L676.75781 153.94016 L677.73438 88.23109 L678.71094 51.33015 L679.68750 83.55088 L680.66406 144.59297 L681.64063 166.39438 L682.61719 139.70538 L683.59375 117.63827 L684.57031 134.78246 L685.54688 156.56458 L686.52344 129.89607 L687.50000 64.04533 L688.47656 27.09532 L689.45313 59.36333 L690.42969 120.54958 L691.40625 142.58893 L692.38281 116.23329 L693.35938 94.58958 L694.33594 112.25111 L695.31250 134.63614 L696.28906 108.65886 L697.26563 43.58146 L698.24219 7.48895 L699.21875 40.68885 L700.19531 102.88325 L701.17188 125.99890 L702.14844 100.78383 L703.12500 80.34473 L704.10156 99.26411 L705.07813 122.96111 L706.05469 98.33985 L707.03125 34.66128 L708.00781 0.00000 L708.98438 34.66367 L709.96094 98.34247 L710.93750 122.96162 L711.91406 99.26350 L712.89063 80.34476 L713.86719 100.78748 L714.84375 125.99846 L715.82031 102.88096 L716.79688 40.68724 L717.77344 7.48901 L718.75000 43.58390 L719.72656 108.66127 L720.70313 134.63557 L721.67969 112.24986 L722.65625 94.58967 L723.63281 116.23401 L724.60938 142.58966 L725.58594 120.54848 L726.56250 59.36106 L727.53906 27.09542 L728.51563 64.04710 L729.49219 129.89738 L730.46875 156.56517 L731.44531 134.78194 L732.42188 117.63837 L733.39844 139.70682 L734.37500 166.39400 L735.35156 144.59073 L736.32813 83.54704 L737.30469 51.33026 L738.28125 88.23357 L739.25781 153.94260 L740.23438 180.36943 L741.21094 158.25603 L742.18750 140.68706 L743.16406 162.24069 L744.14063 188.32359 L745.11719 165.82890 L746.09375 104.00969 L747.07031 70.93661 L748.04688 106.90783 L749.02344 171.60793 L750.00000 196.96053 L750.97656 173.70222 L751.95313 154.93188 L752.92969 175.22566 L753.90625 199.99751 L754.88281 176.14720 L755.85938 112.93230 L756.83594 78.42553 L757.81250 112.93419 L758.78906 176.14937 L759.76563 199.99800 L760.74219 175.22523 L761.71875 154.93182 L762.69531 173.70549 L763.67188 196.95990 L764.64844 171.60590 L765.62500 106.90355 L766.60156 70.93649 L767.57813 104.01144 L768.55469 165.83069 L769.53125 188.32257 L770.50781 162.23788 L771.48438 140.68689 L772.46094 158.25623 L773.43750 180.37013 L774.41406 153.93906 L775.39063 88.23148 L776.36719 51.33006 L777.34375 83.55030 L778.32031 144.59386 L779.29688 166.39432 L780.27344 139.70624 L781.25000 117.63817 L782.22656 134.78210 L783.20313 156.56442 L784.17969 129.89525 L785.15625 64.04343 L786.13281 27.09537 L787.10938 59.36290 L788.08594 120.55035 L789.06250 142.58760 L790.03906 116.23359 L791.01563 94.58961 L791.99219 112.25018 L792.96875 134.63754 L793.94531 108.65816 L794.92188 43.58197 L795.89844 7.48897 L796.87500 40.69137 L797.85156 102.88286 L798.82813 125.99642 L799.80469 100.78481 L800.78125 80.34474 L801.75781 99.26543 L802.73438 122.96107 L803.71094 98.34167 L804.68750 34.65879 L805.66406 0.00000 L806.64063 34.66475 L807.61719 98.34319 L808.59375 122.96165 L809.57031 99.26077 L810.54688 80.34474 L811.52344 100.78493 L812.50000 125.99866 L813.47656 102.88135 L814.45313 40.68997 L815.42969 7.48898 L816.40625 43.58338 L817.38281 108.66109 L818.35938 134.63672 L819.33594 112.25008 L820.31250 94.58963 L821.28906 116.23372 L822.26563 142.58817 L823.24219 120.54630 L824.21875 59.36150 L825.19531 27.09538 L826.17188 64.04728 L827.14844 129.89693 L828.12500 156.56490 L829.10156 134.78214 L830.07813 117.63833 L831.05469 139.70808 L832.03125 166.39391 L833.00781 144.59082 L833.98438 83.54677 L834.96094 51.33021 L835.93750 88.23602 L836.91406 153.94214 L837.89063 180.37085 L838.86719 158.25467 L839.84375 140.68701 L840.82031 162.24338 L841.79688 188.32237 L842.77344 165.82928 L843.75000 104.00856 L844.72656 70.93658 L845.70313 106.90504 L846.67969 171.61003 L847.65625 196.96056 L848.63281 173.70474 L849.60938 154.93187 L850.58594 175.22539 L851.56250 200.00000 L852.53906 176.14645 L853.51563 112.93279 L854.49219 78.42553 L855.46875 112.93371 L856.44531 176.14755 L857.42188 199.99779 L858.39844 175.22549 L859.37500 154.93184 L860.35156 173.70456 L861.32813 196.95988 L862.30469 171.60379 L863.28125 106.90405 L864.25781 70.93652 L865.23438 104.01398 L866.21094 165.83032 L867.18750 188.32010 L868.16406 162.23888 L869.14063 140.68692 L870.11719 158.25899 L871.09375 180.37013 L872.07031 153.94092 L873.04688 88.22903 L874.02344 51.33010 L875.00000 83.54759 L875.97656 144.59464 L876.95313 166.39441 L877.92969 139.70357 L878.90625 117.63821 L879.88281 134.78189 L880.85938 156.56471 L881.83594 129.89571 L882.81250 64.04623 L883.78906 27.09527 L884.76563 59.36232 L885.74219 120.55012 L886.71875 142.58868 L887.69531 116.23376 L888.67188 94.58954 L889.64844 112.24986 L890.62500 134.63602 L891.60156 108.65710 L892.57813 43.58238 L893.55469 7.48892 L894.53125 40.69084 L895.50781 102.88240 L896.48438 125.99870 L897.46094 100.78502 L898.43750 80.34471 L899.41406 99.26515 L900.39063 122.96101 L901.36719 98.33926 L902.34375 34.65926 L903.32031 0.00000 L904.29688 34.66427 L905.27344 98.34280 L906.25000 122.96171 L907.22656 99.26245 L908.20313 80.34477 L909.17969 100.78471 L910.15625 125.99866 L911.13281 102.88181 L912.10938 40.68595 L913.08594 7.48904 L914.06250 43.58296 L915.03906 108.66303 L916.01563 134.63684 L916.99219 112.25041 L917.96875 94.58971 L918.94531 116.23354 L919.92188 142.59103 L920.89844 120.54680 L921.87500 59.36193 L922.85156 27.09548 L923.82813 64.04675 L924.80469 129.89661 L925.78125 156.56490 L926.75781 134.78250 L927.73438 117.63828 L928.71094 139.70793 L929.68750 166.39381 L930.66406 144.58907 L931.64063 83.54720 L932.61719 51.33030 L933.59375 88.23550 L934.57031 153.94182 L935.54688 180.36803 L936.52344 158.25500 L937.50000 140.68697 L938.47656 162.24319 L939.45313 188.32230 L940.42969 165.82976 L941.40625 104.00761 L942.38281 70.93665 L943.35938 106.90453 L944.33594 171.60968 L945.31250 196.96057 L946.28906 173.70047 L947.26563 154.93185 L948.24219 175.22516 L949.21875 199.99768 L950.19531 176.14688 L951.17188 112.93327 L952.14844 78.42553 L953.12500 112.93323 L954.10156 176.14995 L955.07813 199.99783 L956.05469 175.22572 L957.03125 154.93185 L958.00781 173.70427 L958.98438 196.95985 L959.96094 171.60414 L960.93750 106.90456 L961.91406 70.93646 L962.89063 104.01353 L963.86719 165.82983 L964.84375 188.32019 L965.82031 162.23906 L966.79688 140.68697 L967.77344 158.25725 L968.75000 180.37012 L969.72656 153.94125 L970.70313 88.22955 L971.67969 51.33001 L972.65625 83.55171 L973.63281 144.59413 L974.60938 166.39450 L975.58594 139.70512 L976.56250 117.63826 L977.53906 134.78154 L978.51563 156.56471 L979.49219 129.89601 L980.46875 64.04221 L981.44531 27.09518 L982.42188 59.36189 L983.39844 120.55190 L984.37500 142.58878 L985.35156 116.23392 L986.32813 94.58958 L987.30469 112.24953 L988.28125 134.63882 L989.25781 108.65744 L990.23438 43.58289 L991.21094 7.48885 L992.18750 40.69038 L993.16406 102.88194 L994.14063 125.99876 L995.11719 100.78524 L996.09375 80.34473 L997.07031 99.26488 L998.04688 122.96098 L999.02344 98.33965" /><path fill="none" stroke="#000000" d="M0 300.00000  L0.00000 300.00000  L0.97656 300.00000  L1.95313 300.00000  L2.92969 300.00000  L3.90625 300.00000  L4.88281 300.00000  L5.85938 300.00000  L6.83594 300.00000  L7.81250 300.00000  L8.78906 300.00000  L9.76563 300.00000  L10.74219 300.00000  L11.71875 300.00000  L12.69531 300.00000  L13.67188 300.00000  L14.64844 300.00000  L15.62500 300.00000  L16.60156 300.00000  L17.57813 300.00000  L18.55469 300.00000  L19.53125 300.00000  L20.50781 300.00000  L21.48438 300.00000  L22.46094 300.00000  L23.43750 300.00000  L24.41406 300.00000  L25.39063 300.00000  L26.36719 300.00000  L27.34375 300.00000  L28.32031 300.00000  L29.29688 300.00000  L30.27344 300.00000  L31.25000 300.00000  L32.22656 300.00000  L33.20313 300.00000  L34.17969 300.00000  L35.15625 300.00000  L36.13281 300.00000  L37.10938 300.00000  L38.08594 300.00000  L39.06250 300.00000  L40.03906 300.00000  L41.01563 300.00000  L41.99219 300.00000  L42.96875 300.00000  L43.94531 300.00000  L44.92188 300.00000  L45.89844 300.00000  L46.87500 300.00000  L47.85156 300.00000  L48.82813 300.00000  L49.80469 300.00000  L50.78125 300.00000  L51.75781 300.00000  L52.73438 300.00000  L53.71094 300.00000  L54.68750 300.00000  L55.66406 300.00000  L56.64063 300.00000  L57.61719 300.00000  L58.59375 300.00000  L59.57031 300.00000  L60.54688 300.00000  L61.52344 300.00000  L62.50000 300.00000  L63.47656 300.00000  L64.45313 300.00000  L65.42969 300.00000  L66.40625 300.00000  L67.38281 300.00000  L68.35938 300.00000  L69.33594 300.00000  L70.31250 300.00000  L71.28906 300.00000  L72.26563 300.00000  L73.24219 300.00000  L74.21875 300.00000  L75.19531 300.00000  L76.17188 300.00000  L77.14844 300.00000  L78.12500 300.00000  L79.10156 300.00000  L80.07813 300.00000  L81.05469 300.00000  L82.03125 300.00000  L83.00781 300.00000  L83.98438 300.00000  L84.96094 300.00000  L85.93750 300.00000  L86.91406 300.00000  L87.89063 300.00000  L88.86719 300.00000  L89.84375 300.00000  L90.82031 300.00000  L91.79688 300.00000  L92.77344 300.00000  L93.75000 300.00000  L94.72656 300.00000  L95.70313 300.00000  L96.67969 300.00000  L97.65625 300.00000  L98.63281 300.00000  L99.60938 300.00000  L100.58594 300.00000  L101.56250 300.00000  L102.53906 300.00000  L103.51563 300.00000  L104.49219 300.00000  L105.46875 300.00000  L106.44531 300.00000  L107.42188 300.00000  L108.39844 300.00000  L109.37500 300.00000  L110.35156 300.00000  L111.32813 300.00000  L112.30469 300.00000  L113.28125 300.00000  L114.25781 300.00000  L115.23438 300.00000  L116.21094 300.00000  L117.18750 300.00000  L118.16406 300.00000  L119.14063 300.00000  L120.11719 300.00000  L121.09375 300.00000  L122.07031 300.00000  L123.04688 300.00000  L124.02344 300.00000  L125.00000 300.00000  L125.97656 300.00000  L126.95313 300.00000  L127.92969 300.00000  L128.90625 300.00000  L129.88281 300.00000  L130.85938 300.00000  L131.83594 300.00000  L132.81250 300.00000  L133.78906 300.00000  L134.76563 300.00000  L135.74219 300.00000  L136.71875 300.00000  L137.69531 300.00000  L138.67188 300.00000  L139.64844 300.00000  L140.62500 300.00000  L141.60156 300.00000  L142.57813 300.00000  L143.55469 300.00000  L144.53125 300.00000  L145.50781 300.00000  L146.48438 300.00000  L147.46094 300.00000  L148.43750 300.00000  L149.41406 300.00000  L150.39063 300.00000  L151.36719 300.00000  L152.34375 300.00000  L153.32031 300.00000  L154.29688 300.00000  L155.27344 300.00000  L156.25000 300.00000  L157.22656 300.00000  L158.20313 300.00000  L159.17969 300.00000  L160.15625 300.00000  L161.13281 300.00000  L162.10938 300.00000  L163.08594 300.00000  L164.06250 300.00000  L165.03906 300.00000  L166.01563 300.00000  L166.99219 300.00000  L167.96875 300.00000  L168.94531 300.00000  L169.92188 300.00000  L170.89844 300.00000  L171.87500 300.00000  L172.85156 300.00000  L173.82813 300.00000  L174.80469 300.00000  L175.78125 300.00000  L176.75781 300.00000  L177.73438 300.00000  L178.71094 300.00000  L179.68750 300.00000  L180.66406 300.00000  L181.64063 300.00000  L182.61719 300.00000  L183.59375 300.00000  L184.57031 300.00000  L185.54688 300.00000  L186.52344 300.00000  L187.50000 300.00000  L188.47656 300.00000  L189.45313 300.00000  L190.42969 300.00000  L191.40625 300.00000  L192.38281 300.00000  L193.35938 300.00000  L194.33594 300.00000  L195.31250 300.00000  L196.28906 300.00000  L197.26563 300.00000  L198.24219 300.00000  L199.21875 300.00000  L200.19531 300.00000  L201.17188 300.00000  L202.14844 300.00000  L203.12500 300.00000  L204.10156 300.00000  L205.07813 300.00000  L206.05469 300.00000  L207.03125 300.00000  L208.00781 300.00000  L208.98438 300.00000  L209.96094 300.00000  L210.93750 300.00000  L211.91406 300.00000  L212.89063 300.00000  L213.86719 300.00000  L214.84375 300.00000  L215.82031 300.00000  L216.79688 300.00000  L217.77344 300.00000  L218.75000 300.00000  L219.72656 300.00000  L220.70313 300.00000  L221.67969 300.00000  L222.65625 300.00000  L223.63281 300.00000  L224.60938 300.00000  L225.58594 300.00000  L226.56250 300.00000  L227.53906 300.00000  L228.51563 300.00000  L229.49219 300.00000  L230.46875 300.00000  L231.44531 300.00000  L232.42188 300.00000  L233.39844 300.00000  L234.37500 300.00000  L235.35156 300.00000  L236.32813 300.00000  L237.30469 300.00000  L238.28125 300.00000  L239.25781 300.00000  L240.23438 300.00000  L241.21094 300.00000  L242.18750 300.00000  L243.16406 300.00000  L244.14063 300.00000  L245.11719 300.00000  L246.09375 300.00000  L247.07031 300.00000  L248.04688 300.00000  L249.02344 300.00000  L250.00000 300.00000  L250.97656 300.00000  L251.95313 300.00000  L252.92969 300.00000  L253.90625 300.00000  L254.88281 300.00000  L255.85938 300.00000  L256.83594 300.00000  L257.81250 300.00000  L258.78906 300.00000  L259.76563 300.00000  L260.74219 300.00000  L261.71875 300.00000  L262.69531 300.00000  L263.67188 300.00000  L264.64844 300.00000  L265.62500 300.00000  L266.60156 300.00000  L267.57813 300.00000  L268.55469 300.00000  L269.53125 300.00000  L270.50781 300.00000  L271.48438 300.00000  L272.46094 300.00000  L273.43750 300.00000  L274.41406 300.00000  L275.39063 300.00000  L276.36719 300.00000  L277.34375 300.00000  L278.32031 300.00000  L279.29688 300.00000  L280.27344 300.00000  L281.25000 300.00000  L282.22656 300.00000  L283.20313 300.00000  L284.17969 300.00000  L285.15625 300.00000  L286.13281 300.00000  L287.10938 300.00000  L288.08594 300.00000  L289.06250 300.00000  L290.03906 300.00000  L291.01563 300.00000  L291.99219 300.00000  L292.96875 300.00000  L293.94531 300.00000  L294.92188 300.00000  L295.89844 300.00000  L296.87500 300.00000  L297.85156 300.00000  L298.82813 300.00000  L299.80469 300.00000  L300.78125 300.00000  L301.75781 300.00000  L302.73438 300.00000  L303.71094 300.00000  L304.68750 300.00000  L305.66406 300.00000  L306.64063 300.00000  L307.61719 300.00000  L308.59375 300.00000  L309.57031 300.00000  L310.54688 300.00000  L311.52344 300.00000  L312.50000 300.00000  L313.47656 300.00000  L314.45313 300.00000  L315.42969 300.00000  L316.40625 300.00000  L317.38281 300.00000  L318.35938 300.00000  L319.33594 300.00000  L320.31250 300.00000  L321.28906 300.00000  L322.26563 300.00000  L323.24219 300.00000  L324.21875 300.00000  L325.19531 300.00000  L326.17188 300.00000  L327.14844 300.00000  L328.12500 300.00000  L329.10156 300.00000  L330.07813 300.00000  L331.05469 300.00000  L332.03125 300.00000  L333.00781 300.00000  L333.98438 300.00000  L334.96094 300.00000  L335.93750 300.00000  L336.91406 300.00000  L337.89063 300.00000  L338.86719 300.00000  L339.84375 300.00000  L340.82031 300.00000  L341.79688 300.00000  L342.77344 300.00000  L343.75000 300.00000  L344.72656 300.00000  L345.70313 300.00000  L346.67969 300.00000  L347.65625 300.00000  L348.63281 300.00000  L349.60938 300.00000  L350.58594 300.00000  L351.56250 300.00000  L352.53906 300.00000  L353.51563 300.00000  L354.49219 300.00000  L355.46875 300.00000  L356.44531 300.00000  L357.42188 300.00000  L358.39844 300.00000  L359.37500 300.00000  L360.35156 300.00000  L361.32813 300.00000  L362.30469 300.00000  L363.28125 300.00000  L364.25781 300.00000  L365.23438 300.00000  L366.21094 300.00000  L367.18750 300.00000  L368.16406 300.00000  L369.14063 300.00000  L370.11719 300.00000  L371.09375 300.00000  L372.07031 300.00000  L373.04688 300.00000  L374.02344 300.00000  L375.00000 300.00000  L375.97656 300.00000  L376.95313 300.00000  L377.92969 300.00000  L378.90625 300.00000  L379.88281 300.00000  L380.85938 300.00000  L381.83594 300.00000  L382.81250 300.00000  L383.78906 300.00000  L384.76563 300.00000  L385.74219 300.00000  L386.71875 300.00000  L387.69531 300.00000  L388.67188 300.00000  L389.64844 300.00000  L390.62500 300.00000  L391.60156 300.00000  L392.57813 300.00000  L393.55469 300.00000  L394.53125 300.00000  L395.50781 300.00000  L396.48438 300.00000  L397.46094 300.00000  L398.43750 300.00000  L399.41406 300.00000  L400.39063 300.00000  L401.36719 300.00000  L402.34375 300.00000  L403.32031 300.00000  L404.29688 300.00000  L405.27344 300.00000  L406.25000 300.00000  L407.22656 300.00000  L408.20313 300.00000  L409.17969 300.00000  L410.15625 300.00000  L411.13281 300.00000  L412.10938 300.00000  L413.08594 300.00000  L414.06250 300.00000  L415.03906 300.00000  L416.01563 300.00000  L416.99219 300.00000  L417.96875 300.00000  L418.94531 300.00000  L419.92188 300.00000  L420.89844 300.00000  L421.87500 300.00000  L422.85156 300.00000  L423.82813 300.00000  L424.80469 300.00000  L425.78125 300.00000  L426.75781 300.00000  L427.73438 300.00000  L428.71094 300.00000  L429.68750 300.00000  L430.66406 300.00000  L431.64063 300.00000  L432.61719 300.00000  L433.59375 300.00000  L434.57031 300.00000  L435.54688 300.00000  L436.52344 300.00000  L437.50000 300.00000  L438.47656 300.00000  L439.45313 300.00000  L440.42969 300.00000  L441.40625 300.00000  L442.38281 300.00000  L443.35938 300.00000  L444.33594 300.00000  L445.31250 300.00000  L446.28906 300.00000  L447.26563 300.00000  L448.24219 300.00000  L449.21875 300.00000  L450.19531 300.00000  L451.17188 300.00000  L452.14844 300.00000  L453.12500 300.00000  L454.10156 300.00000  L455.07813 300.00000  L456.05469 300.00000  L457.03125 300.00000  L458.00781 300.00000  L458.98438 300.00000  L459.96094 300.00000  L460.93750 300.00000  L461.91406 300.00000  L462.89063 300.00000  L463.86719 300.00000  L464.84375 300.00000  L465.82031 300.00000  L466.79688 300.00000  L467.77344 300.00000  L468.75000 300.00000  L469.72656 300.00000  L470.70313 300.00000  L471.67969 300.00000  L472.65625 300.00000  L473.63281 300.00000  L474.60938 300.00000  L475.58594 300.00000  L476.56250 300.00000  L477.53906 300.00000  L478.51563 300.00000  L479.49219 300.00000  L480.46875 300.00000  L481.44531 300.00000  L482.42188 300.00000  L483.39844 300.00000  L484.37500 300.00000  L485.35156 300.00000  L486.32813 300.00000  L487.30469 300.00000  L488.28125 300.00000  L489.25781 300.00000  L490.23438 300.00000  L491.21094 300.00000  L492.18750 300.00000  L493.16406 300.00000  L494.14063 300.00000  L495.11719 300.00000  L496.09375 300.00000  L497.07031 300.00000  L498.04688 300.00000  L499.02344 300.00000  L500.00000 300.00000  L500.97656 300.00000  L501.95313 300.00000  L502.92969 300.00000  L503.90625 300.00000  L504.88281 300.00000  L505.85938 300.00000  L506.83594 300.00000  L507.81250 300.00000  L508.78906 300.00000  L509.76563 300.00000  L510.74219 300.00000  L511.71875 300.00000  L512.69531 300.00000  L513.67188 300.00000  L514.64844 300.00000  L515.62500 300.00000  L516.60156 300.00000  L517.57813 300.00000  L518.55469 300.00000  L519.53125 300.00000  L520.50781 300.00000  L521.48438 300.00000  L522.46094 300.00000  L523.43750 300.00000  L524.41406 300.00000  L525.39063 300.00000  L526.36719 300.00000  L527.34375 300.00000  L528.32031 300.00000  L529.29688 300.00000  L530.27344 300.00000  L531.25000 300.00000  L532.22656 300.00000  L533.20313 300.00000  L534.17969 300.00000  L535.15625 300.00000  L536.13281 300.00000  L537.10938 300.00000  L538.08594 300.00000  L539.06250 300.00000  L540.03906 300.00000  L541.01563 300.00000  L541.99219 300.00000  L542.96875 300.00000  L543.94531 300.00000  L544.92188 300.00000  L545.89844 300.00000  L546.87500 300.00000  L547.85156 300.00000  L548.82813 300.00000  L549.80469 300.00000  L550.78125 300.00000  L551.75781 300.00000  L552.73438 300.00000  L553.71094 300.00000  L554.68750 300.00000  L555.66406 300.00000  L556.64063 300.00000  L557.61719 300.00000  L558.59375 300.00000  L559.57031 300.00000  L560.54688 300.00000  L561.52344 300.00000  L562.50000 300.00000  L563.47656 300.00000  L564.45313 300.00000  L565.42969 300.00000  L566.40625 300.00000  L567.38281 300.00000  L568.35938 300.00000  L569.33594 300.00000  L570.31250 300.00000  L571.28906 300.00000  L572.26563 300.00000  L573.24219 300.00000  L574.21875 300.00000  L575.19531 300.00000  L576.17188 300.00000  L577.14844 300.00000  L578.12500 300.00000  L579.10156 300.00000  L580.07813 300.00000  L581.05469 300.00000  L582.03125 300.00000  L583.00781 300.00000  L583.98438 300.00000  L584.96094 300.00000  L585.93750 300.00000  L586.91406 300.00000  L587.89063 300.00000  L588.86719 300.00000  L589.84375 300.00000  L590.82031 300.00000  L591.79688 300.00000  L592.77344 300.00000  L593.75000 300.00000  L594.72656 300.00000  L595.70313 300.00000  L596.67969 300.00000  L597.65625 300.00000  L598.63281 300.00000  L599.60938 300.00000  L600.58594 300.00000  L601.56250 300.00000  L602.53906 300.00000  L603.51563 300.00000  L604.49219 300.00000  L605.46875 300.00000  L606.44531 300.00000  L607.42188 300.00000  L608.39844 300.00000  L609.37500 300.00000  L610.35156 300.00000  L611.32813 300.00000  L612.30469 300.00000  L613.28125 300.00000  L614.25781 300.00000  L615.23438 300.00000  L616.21094 300.00000  L617.18750 300.00000  L618.16406 300.00000  L619.14063 300.00000  L620.11719 300.00000  L621.09375 300.00000  L622.07031 300.00000  L623.04688 300.00000  L624.02344 300.00000  L625.00000 300.00000  L625.97656 300.00000  L626.95313 300.00000  L627.92969 300.00000  L628.90625 300.00000  L629.88281 300.00000  L630.85938 300.00000  L631.83594 300.00000  L632.81250 300.00000  L633.78906 300.00000  L634.76563 300.00000  L635.74219 300.00000  L636.71875 300.00000  L637.69531 300.00000  L638.67188 300.00000  L639.64844 300.00000  L640.62500 300.00000  L641.60156 300.00000  L642.57813 300.00000  L643.55469 300.00000  L644.53125 300.00000  L645.50781 300.00000  L646.48438 300.00000  L647.46094 300.00000  L648.43750 300.00000  L649.41406 300.00000  L650.39063 300.00000  L651.36719 300.00000  L652.34375 300.00000  L653.32031 300.00000  L654.29688 300.00000  L655.27344 300.00000  L656.25000 300.00000  L657.22656 300.00000  L658.20313 300.00000  L659.17969 300.00000  L660.15625 300.00000  L661.13281 300.00000  L662.10938 300.00000  L663.08594 300.00000  L664.06250 300.00000  L665.03906 300.00000  L666.01563 300.00000  L666.99219 300.00000  L667.96875 300.00000  L668.94531 300.00000  L669.92188 300.00000  L670.89844 300.00000  L671.87500 300.00000  L672.85156 300.00000  L673.82813 300.00000  L674.80469 300.00000  L675.78125 300.00000  L676.75781 300.00000  L677.73438 300.00000  L678.71094 300.00000  L679.68750 300.00000  L680.66406 300.00000  L681.64063 300.00000  L682.61719 300.00000  L683.59375 300.00000  L684.57031 300.00000  L685.54688 300.00000  L686.52344 300.00000  L687.50000 300.00000  L688.47656 300.00000  L689.45313 300.00000  L690.42969 300.00000  L691.40625 300.00000  L692.38281 300.00000  L693.35938 300.00000  L694.33594 300.00000  L695.31250 300.00000  L696.28906 300.00000  L697.26563 300.00000  L698.24219 300.00000  L699.21875 300.00000  L700.19531 300.00000  L701.17188 300.00000  L702.14844 300.00000  L703.12500 300.00000  L704.10156 300.00000  L705.07813 300.00000  L706.05469 300.00000  L707.03125 300.00000  L708.00781 300.00000  L708.98438 300.00000  L709.96094 300.00000  L710.93750 300.00000  L711.91406 300.00000  L712.89063 300.00000  L713.86719 300.00000  L714.84375 300.00000  L715.82031 300.00000  L716.79688 300.00000  L717.77344 300.00000  L718.75000 300.00000  L719.72656 300.00000  L720.70313 300.00000  L721.67969 300.00000  L722.65625 300.00000  L723.63281 300.00000  L724.60938 300.00000  L725.58594 300.00000  L726.56250 300.00000  L727.53906 300.00000  L728.51563 300.00000  L729.49219 300.00000  L730.46875 300.00000  L731.44531 300.00000  L732.42188 300.00000  L733.39844 300.00000  L734.37500 300.00000  L735.35156 300.00000  L736.32813 300.00000  L737.30469 300.00000  L738.28125 300.00000  L739.25781 300.00000  L740.23438 300.00000  L741.21094 300.00000  L742.18750 300.00000  L743.16406 300.00000  L744.14063 300.00000  L745.11719 300.00000  L746.09375 300.00000  L747.07031 300.00000  L748.04688 300.00000  L749.02344 300.00000  L750.00000 300.00000  L750.97656 300.00000  L751.95313 300.00000  L752.92969 300.00000  L753.90625 300.00000  L754.88281 300.00000  L755.85938 300.00000  L756.83594 300.00000  L757.81250 300.00000  L758.78906 300.00000  L759.76563 300.00000  L760.74219 300.00000  L761.71875 300.00000  L762.69531 300.00000  L763.67188 300.00000  L764.64844 300.00000  L765.62500 300.00000  L766.60156 300.00000  L767.57813 300.00000  L768.55469 300.00000  L769.53125 300.00000  L770.50781 300.00000  L771.48438 300.00000  L772.46094 300.00000  L773.43750 300.00000  L774.41406 300.00000  L775.39063 300.00000  L776.36719 300.00000  L777.34375 300.00000  L778.32031 300.00000  L779.29688 300.00000  L780.27344 300.00000  L781.25000 300.00000  L782.22656 300.00000  L783.20313 300.00000  L784.17969 300.00000  L785.15625 300.00000  L786.13281 300.00000  L787.10938 300.00000  L788.08594 300.00000  L789.06250 300.00000  L790.03906 300.00000  L791.01563 300.00000  L791.99219 300.00000  L792.96875 300.00000  L793.94531 300.00000  L794.92188 300.00000  L795.89844 300.00000  L796.87500 300.00000  L797.85156 300.00000  L798.82813 300.00000  L799.80469 300.00000  L800.78125 300.00000  L801.75781 300.00000  L802.73438 300.00000  L803.71094 300.00000  L804.68750 300.00000  L805.66406 300.00000  L806.64063 300.00000  L807.61719 300.00000  L808.59375 300.00000  L809.57031 300.00000  L810.54688 300.00000  L811.52344 300.00000  L812.50000 300.00000  L813.47656 300.00000  L814.45313 300.00000  L815.42969 300.00000  L816.40625 300.00000  L817.38281 300.00000  L818.35938 300.00000  L819.33594 300.00000  L820.31250 300.00000  L821.28906 300.00000  L822.26563 300.00000  L823.24219 300.00000  L824.21875 300.00000  L825.19531 300.00000  L826.17188 300.00000  L827.14844 300.00000  L828.12500 300.00000  L829.10156 300.00000  L830.07813 300.00000  L831.05469 300.00000  L832.03125 300.00000  L833.00781 300.00000  L833.98438 300.00000  L834.96094 300.00000  L835.93750 300.00000  L836.91406 300.00000  L837.89063 300.00000  L838.86719 300.00000  L839.84375 300.00000  L840.82031 300.00000  L841.79688 300.00000  L842.77344 300.00000  L843.75000 300.00000  L844.72656 300.00000  L845.70313 300.00000  L846.67969 300.00000  L847.65625 300.00000  L848.63281 300.00000  L849.60938 300.00000  L850.58594 300.00000  L851.56250 300.00000  L852.53906 300.00000  L853.51563 300.00000  L854.49219 300.00000  L855.46875 300.00000  L856.44531 300.00000  L857.42188 300.00000  L858.39844 300.00000  L859.37500 300.00000  L860.35156 300.00000  L861.32813 300.00000  L862.30469 300.00000  L863.28125 300.00000  L864.25781 300.00000  L865.23438 300.00000  L866.21094 300.00000  L867.18750 300.00000  L868.16406 300.00000  L869.14063 300.00000  L870.11719 300.00000  L871.09375 300.00000  L872.07031 300.00000  L873.04688 300.00000  L874.02344 300.00000  L875.00000 300.00000  L875.97656 300.00000  L876.95313 300.00000  L877.92969 300.00000  L878.90625 300.00000  L879.88281 300.00000  L880.85938 300.00000  L881.83594 300.00000  L882.81250 300.00000  L883.78906 300.00000  L884.76563 300.00000  L885.74219 300.00000  L886.71875 300.00000  L887.69531 300.00000  L888.67188 300.00000  L889.64844 300.00000  L890.62500 300.00000  L891.60156 300.00000  L892.57813 300.00000  L893.55469 300.00000  L894.53125 300.00000  L895.50781 300.00000  L896.48438 300.00000  L897.46094 300.00000  L898.43750 300.00000  L899.41406 300.00000  L900.39063 300.00000  L901.36719 300.00000  L902.34375 300.00000  L903.32031 300.00000  L904.29688 300.00000  L905.27344 300.00000  L906.25000 300.00000  L907.22656 300.00000  L908.20313 300.00000  L909.17969 300.00000  L910.15625 300.00000  L911.13281 300.00000  L912.10938 300.00000  L913.08594 300.00000  L914.06250 300.00000  L915.03906 300.00000  L916.01563 300.00000  L916.99219 300.00000  L917.96875 300.00000  L918.94531 300.00000  L919.92188 300.00000  L920.89844 300.00000  L921.87500 300.00000  L922.85156 300.00000  L923.82813 300.00000  L924.80469 300.00000  L925.78125 300.00000  L926.75781 300.00000  L927.73438 300.00000  L928.71094 300.00000  L929.68750 300.00000  L930.66406 300.00000  L931.64063 300.00000  L932.61719 300.00000  L933.59375 300.00000  L934.57031 300.00000  L935.54688 300.00000  L936.52344 300.00000  L937.50000 300.00000  L938.47656 300.00000  L939.45313 300.00000  L940.42969 300.00000  L941.40625 300.00000  L942.38281 300.00000  L943.35938 300.00000  L944.33594 300.00000  L945.31250 300.00000  L946.28906 300.00000  L947.26563 300.00000  L948.24219 300.00000  L949.21875 300.00000  L950.19531 300.00000  L951.17188 300.00000  L952.14844 300.00000  L953.12500 300.00000  L954.10156 300.00000  L955.07813 300.00000  L956.05469 300.00000  L957.03125 300.00000  L958.00781 300.00000  L958.98438 300.00000  L959.96094 300.00000  L960.93750 300.00000  L961.91406 300.00000  L962.89063 300.00000  L963.86719 300.00000  L964.84375 300.00000  L965.82031 300.00000  L966.79688 300.00000  L967.77344 300.00000  L968.75000 300.00000  L969.72656 300.00000  L970.70313 300.00000  L971.67969 300.00000  L972.65625 300.00000  L973.63281 300.00000  L974.60938 300.00000  L975.58594 300.00000  L976.56250 300.00000  L977.53906 300.00000  L978.51563 300.00000  L979.49219 300.00000  L980.46875 300.00000  L981.44531 300.00000  L982.42188 300.00000  L983.39844 300.00000  L984.37500 300.00000  L985.35156 300.00000  L986.32813 300.00000  L987.30469 300.00000  L988.28125 300.00000  L989.25781 300.00000  L990.23438 300.00000  L991.21094 300.00000  L992.18750 300.00000  L993.16406 300.00000  L994.14063 300.00000  L995.11719 300.00000  L996.09375 300.00000  L997.07031 300.00000  L998.04688 300.00000  L999.02344 300.00000 " /></g><text x="1000.00000" dx="10" y="117.63830">[-2.10038;3.00000]</text><text x="1000.00000" dx="10" y="300.00000">[-0.00000;0.00000]</text></svg>