<svg xmlns="http://www.w3.org/2000/svg" version="1.1"><g stroke-width="0.6"><path fill="none" stroke="#000000" d="M0 199.99995 L1000.00000 199.99995" /><path fill="none" stroke="#000000" d="M0 300.53232 L1000.00000 300.53232" /><path fill="none" stroke="#000000" d="M500.00000 0 L500.00000 400.00000" /><path fill="none" stroke="#550000" d="M0 350.79846 L1000.00000 350.79846" /><path fill="none" stroke="#550000" d="M0 300.53232 L1000.00000 300.53232" /><path fill="none" stroke="#550000" d="M0 250.26617 L1000.00000 250.26617" /><path fill="none" stroke="#000000" d="M0 199.99995  L0.00000 199.99995 L0.97656 199.99995 L1.95313 199.99995 L2.92969 199.99995 L3.90625 199.99995 L4.88281 199.99995 L5.85938 199.99995 L6.83594 199.99995 L7.81250 199.99995 L8.78906 199.99994 L9.76563 199.99995 L10.74219 199.99994 L11.71875 199.99994 L12.69531 199.99994 L13.67188 199.99991 L14.64844 199.99988 L15.62500 0.00001 L16.60156 199.99986 L17.57813 199.99989 L18.55469 199.99992 L19.53125 199.99986 L20.50781 199.99985 L21.48438 199.99989 L22.46094 199.99995 L23.43750 199.99994 L24.41406 199.99995 L25.39063 199.99995 L26.36719 199.99995 L27.34375 199.99995 L28.32031 199.99995 L29.29688 199.99995 L30.27344 199.99995 L31.25000 199.99995 L32.22656 199.99995 L33.20313 199.99995 L34.17969 199.99995 L35.15625 199.99995 L36.13281 199.99995 L37.10938 199.99995 L38.08594 199.99995 L39.06250 199.99995 L40.03906 199.99995 L41.01563 199.99995 L41.99219 199.99995 L42.96875 199.99994 L43.94531 199.99995 L44.92188 199.99995 L45.89844 199.99994 L46.87500 199.99995 L47.85156 199.99994 L48.82813 199.99994 L49.80469 199.99992 L50.78125 199.99988 L51.75781 199.99986 L52.73438 199.99989 L53.71094 199.99994 L54.68750 199.99995 L55.66406 199.99989 L56.64063 199.99995 L57.61719 199.99989 L58.59375 199.99994 L59.57031 199.99995 L60.54688 199.99994 L61.52344 199.99995 L62.50000 199.99995 L63.47656 199.99994 L64.45313 199.99995 L65.42969 199.99995 L66.40625 199.99995 L67.38281 199.99995 L68.35938 199.99995 L69.33594 199.99995 L70.31250 199.99995 L71.28906 199.99995 L72.26563 199.99995 L73.24219 199.99995 L74.21875 199.99995 L75.19531 199.99995 L76.17188 199.99995 L77.14844 199.99995 L78.12500 199.99995 L79.10156 199.99995 L80.07813 199.99995 L81.05469 199.99995 L82.03125 199.99995 L83.00781 199.99995 L83.98438 199.99994 L84.96094 199.99995 L85.93750 199.99994 L86.91406 199.99989 L87.89063 199.99995 L88.86719 199.99989 L89.84375 199.99994 L90.82031 199.99995 L91.79688 199.99994 L92.77344 199.99994 L93.75000 199.99992 L94.72656 199.99994 L95.70313 199.99995 L96.67969 199.99995 L97.65625 199.99995 L98.63281 199.99995 L99.60938 199.99995 L100.58594 199.99995 L101.56250 199.99995 L102.53906 199.99995 L103.51563 199.99995 L104.49219 199.99995 L105.46875 199.99995 L106.44531 199.99995 L107.42188 199.99995 L108.39844 199.99995 L109.37500 199.99994 L110.35156 199.99995 L111.32813 199.99995 L112.30469 199.99995 L113.28125 199.99995 L114.25781 199.99995 L115.23438 199.99995 L116.21094 199.99995 L117.18750 199.99995 L118.16406 199.99995 L119.14063 199.99995 L120.11719 199.99995 L121.09375 199.99995 L122.07031 199.99995 L123.04688 199.99994 L124.02344 199.99992 L125.00000 199.99994 L125.97656 199.99995 L126.95313 199.99994 L127.92969 199.99994 L128.90625 199.99992 L129.88281 199.99994 L130.85938 199.99994 L131.83594 199.99995 L132.81250 199.99995 L133.78906 199.99995 L134.76563 199.99995 L135.74219 199.99995 L136.71875 199.99995 L137.69531 199.99995 L138.67188 199.99995 L139.64844 199.99995 L140.62500 199.99994 L141.60156 199.99995 L142.57813 199.99995 L143.55469 199.99995 L144.53125 199.99995 L145.50781 199.99995 L146.48438 199.99995 L147.46094 199.99995 L148.43750 199.99995 L149.41406 199.99995 L150.39063 199.99995 L151.36719 199.99995 L152.34375 199.99995 L153.32031 199.99995 L154.29688 199.99995 L155.27344 199.99995 L156.25000 199.99995 L157.22656 199.99995 L158.20313 199.99994 L159.17969 199.99994 L160.15625 199.99992 L161.13281 199.99994 L162.10938 199.99994 L163.08594 199.99995 L164.06250 199.99995 L165.03906 199.99994 L166.01563 199.99994 L166.99219 199.99995 L167.96875 199.99995 L168.94531 199.99995 L169.92188 199.99995 L170.89844 199.99995 L171.87500 199.99994 L172.85156 199.99995 L173.82813 199.99995 L174.80469 199.99995 L175.78125 199.99995 L176.75781 199.99995 L177.73438 199.99995 L178.71094 199.99995 L179.68750 199.99995 L180.66406 199.99995 L181.64063 199.99995 L182.61719 199.99995 L183.59375 199.99995 L184.57031 199.99995 L185.54688 199.99995 L186.52344 199.99995 L187.50000 199.99995 L188.47656 199.99995 L189.45313 199.99995 L190.42969 199.99995 L191.40625 199.99995 L192.38281 199.99995 L193.35938 199.99995 L194.33594 199.99995 L195.31250 199.99995 L196.28906 199.99994 L197.26563 199.99994 L198.24219 199.99995 L199.21875 199.99995 L200.19531 199.99994 L201.17188 199.99995 L202.14844 199.99994 L203.12500 199.99995 L204.10156 199.99995 L205.07813 199.99995 L206.05469 199.99995 L207.03125 199.99995 L208.00781 199.99995 L208.98438 199.99995 L209.96094 199.99995 L210.93750 199.99995 L211.91406 199.99995 L212.89063 199.99995 L213.86719 199.99995 L214.84375 199.99995 L215.82031 199.99995 L216.79688 199.99995 L217.77344 199.99995 L218.75000 199.99995 L219.72656 199.99995 L220.70313 199.99995 L221.67969 199.99995 L222.65625 199.99995 L223.63281 199.99995 L224.60938 199.99995 L225.58594 199.99995 L226.56250 199.99995 L227.53906 199.99995 L228.51563 199.99995 L229.49219 199.99995 L230.46875 199.99995 L231.44531 199.99994 L232.42188 199.99995 L233.39844 199.99994 L234.37500 199.99995 L235.35156 199.99995 L236.32813 199.99995 L237.30469 199.99995 L238.28125 199.99994 L239.25781 199.99995 L240.23438 199.99995 L241.21094 199.99995 L242.18750 199.99995 L243.16406 199.99995 L244.14063 199.99995 L245.11719 199.99995 L246.09375 199.99995 L247.07031 199.99995 L248.04688 199.99995 L249.02344 199.99995 L250.00000 199.99995 L250.97656 199.99995 L251.95313 199.99995 L252.92969 199.99995 L253.90625 199.99995 L254.88281 199.99995 L255.85938 199.99995 L256.83594 199.99995 L257.81250 199.99995 L258.78906 199.99995 L259.76563 199.99995 L260.74219 199.99995 L261.71875 199.99995 L262.69531 199.99995 L263.67188 199.99995 L264.64844 199.99995 L265.62500 199.99995 L266.60156 199.99995 L267.57813 199.99995 L268.55469 199.99994 L269.53125 199.99994 L270.50781 199.99995 L271.48438 199.99995 L272.46094 199.99995 L273.43750 199.99994 L274.41406 199.99995 L275.39063 199.99995 L276.36719 199.99995 L277.34375 199.99995 L278.32031 199.99995 L279.29688 199.99995 L280.27344 199.99995 L281.25000 199.99995 L282.22656 199.99995 L283.20313 199.99995 L284.17969 199.99995 L285.15625 199.99995 L286.13281 199.99995 L287.10938 199.99995 L288.08594 199.99995 L289.06250 199.99995 L290.03906 199.99995 L291.01563 199.99995 L291.99219 199.99995 L292.96875 199.99995 L293.94531 199.99995 L294.92188 199.99995 L295.89844 199.99995 L296.87500 199.99995 L297.85156 199.99995 L298.82813 199.99995 L299.80469 199.99995 L300.78125 199.99995 L301.75781 199.99995 L302.73438 199.99995 L303.71094 199.99995 L304.68750 199.99994 L305.66406 199.99995 L306.64063 199.99995 L307.61719 199.99995 L308.59375 199.99995 L309.57031 199.99994 L310.54688 199.99995 L311.52344 199.99995 L312.50000 199.99995 L313.47656 199.99995 L314.45313 199.99995 L315.42969 199.99995 L316.40625 199.99995 L317.38281 199.99995 L318.35938 199.99995 L319.33594 199.99995 L320.31250 199.99995 L321.28906 199.99995 L322.26563 199.99995 L323.24219 199.99995 L324.21875 199.99995 L325.19531 199.99995 L326.17188 199.99995 L327.14844 199.99995 L328.12500 199.99995 L329.10156 199.99995 L330.07813 199.99995 L331.05469 199.99995 L332.03125 199.99995 L333.00781 199.99995 L333.98438 199.99995 L334.96094 199.99995 L335.93750 199.99995 L336.91406 199.99995 L337.89063 199.99995 L338.86719 199.99995 L339.84375 199.99995 L340.82031 199.99995 L341.79688 199.99995 L342.77344 199.99995 L343.75000 199.99995 L344.72656 199.99995 L345.70313 199.99995 L346.67969 199.99994 L347.65625 199.99995 L348.63281 199.99995 L349.60938 199.99995 L350.58594 199.99995 L351.56250 199.99995 L352.53906 199.99995 L353.51563 199.99995 L354.49219 199.99995 L355.46875 199.99995 L356.44531 199.99995 L357.42188 199.99995 L358.39844 199.99995 L359.37500 199.99995 L360.35156 199.99995 L361.32813 199.99995 L362.30469 199.99995 L363.28125 199.99995 L364.25781 199.99995 L365.23438 199.99995 L366.21094 199.99995 L367.18750 199.99995 L368.16406 199.99995 L369.14063 199.99995 L370.11719 199.99995 L371.09375 199.99995 L372.07031 199.99995 L373.04688 199.99995 L374.02344 199.99995 L375.00000 199.99995 L375.97656 199.99995 L376.95313 199.99995 L377.92969 199.99994 L378.90625 199.99995 L379.88281 199.99995 L380.85938 199.99995 L381.83594 199.99995 L382.81250 199.99995 L383.78906 199.99995 L384.76563 199.99995 L385.74219 199.99995 L386.71875 199.99995 L387.69531 199.99995 L388.67188 199.99995 L389.64844 199.99995 L390.62500 199.99995 L391.60156 199.99995 L392.57813 199.99995 L393.55469 199.99995 L394.53125 199.99995 L395.50781 199.99995 L396.48438 199.99995 L397.46094 199.99995 L398.43750 199.99995 L399.41406 199.99995 L400.39063 199.99995 L401.36719 199.99995 L402.34375 199.99995 L403.32031 199.99995 L404.29688 199.99995 L405.27344 199.99995 L406.25000 199.99995 L407.22656 199.99995 L408.20313 199.99995 L409.17969 199.99995 L410.15625 199.99995 L411.13281 199.99995 L412.10938 199.99995 L413.08594 199.99995 L414.06250 199.99995 L415.03906 199.99995 L416.01563 199.99995 L416.99219 199.99995 L417.96875 199.99995 L418.94531 199.99995 L419.92188 199.99995 L420.89844 199.99995 L421.87500 199.99995 L422.85156 199.99995 L423.82813 199.99995 L424.80469 199.99995 L425.78125 199.99995 L426.75781 199.99995 L427.73438 199.99995 L428.71094 199.99995 L429.68750 199.99995 L430.66406 199.99995 L431.64063 199.99995 L432.61719 199.99995 L433.59375 199.99995 L434.57031 199.99995 L435.54688 199.99995 L436.52344 199.99995 L437.50000 199.99995 L438.47656 199.99995 L439.45313 199.99995 L440.42969 199.99995 L441.40625 199.99995 L442.38281 199.99995 L443.35938 199.99995 L444.33594 199.99995 L445.31250 199.99995 L446.28906 199.99995 L447.26563 199.99995 L448.24219 199.99995 L449.21875 199.99995 L450.19531 199.99995 L451.17188 199.99995 L452.14844 199.99995 L453.12500 199.99995 L454.10156 199.99995 L455.07813 199.99995 L456.05469 199.99995 L457.03125 199.99995 L458.00781 199.99995 L458.98438 199.99995 L459.96094 199.99995 L460.93750 199.99995 L461.91406 199.99995 L462.89063 199.99995 L463.86719 199.99995 L464.84375 199.99995 L465.82031 199.99995 L466.79688 199.99995 L467.77344 199.99995 L468.75000 199.99995 L469.72656 199.99995 L470.70313 199.99995 L471.67969 199.99995 L472.65625 199.99995 L473.63281 199.99995 L474.60938 199.99995 L475.58594 199.99995 L476.56250 199.99995 L477.53906 199.99995 L478.51563 199.99995 L479.49219 199.99995 L480.46875 199.99995 L481.44531 199.99995 L482.42188 199.99995 L483.39844 199.99995 L484.37500 199.99995 L485.35156 199.99995 L486.32813 199.99995 L487.30469 199.99995 L488.28125 199.99995 L489.25781 199.99995 L490.23438 199.99995 L491.21094 199.99995 L492.18750 199.99995 L493.16406 199.99995 L494.14063 199.99995 L495.11719 199.99995 L496.09375 199.99995 L497.07031 199.99995 L498.04688 199.99995 L499.02344 199.99995 L500.00000 199.99995 L500.97656 199.99995 L501.95313 199.99995 L502.92969 199.99995 L503.90625 199.99995 L504.88281 199.99995 L505.85938 199.99995 L506.83594 199.99995 L507.81250 199.99995 L508.78906 199.99995 L509.76563 199.99995 L510.74219 199.99995 L511.71875 199.99995 L512.69531 199.99995 L513.67188 199.99995 L514.64844 199.99995 L515.62500 199.99995 L516.60156 199.99995 L517.57813 199.99995 L518.55469 199.99995 L519.53125 199.99995 L520.50781 199.99995 L521.48438 199.99995 L522.46094 199.99995 L523.43750 199.99995 L524.41406 199.99995 L525.39063 199.99995 L526.36719 199.99995 L527.34375 199.99995 L528.32031 199.99995 L529.29688 199.99995 L530.27344 199.99995 L531.25000 199.99995 L532.22656 199.99995 L533.20313 199.99995 L534.17969 199.99995 L535.15625 199.99995 L536.13281 199.99995 L537.10938 199.99995 L538.08594 199.99995 L539.06250 199.99995 L540.03906 199.99995 L541.01563 199.99995 L541.99219 199.99995 L542.96875 199.99995 L543.94531 199.99995 L544.92188 199.99995 L545.89844 199.99995 L546.87500 199.99995 L547.85156 199.99995 L548.82813 199.99995 L549.80469 199.99995 L550.78125 199.99995 L551.75781 199.99995 L552.73438 199.99995 L553.71094 199.99995 L554.68750 199.99995 L555.66406 199.99995 L556.64063 199.99995 L557.61719 199.99995 L558.59375 199.99995 L559.57031 199.99995 L560.54688 199.99995 L561.52344 199.99995 L562.50000 199.99995 L563.47656 199.99995 L564.45313 199.99995 L565.42969 199.99995 L566.40625 199.99995 L567.38281 199.99995 L568.35938 199.99995 L569.33594 199.99995 L570.31250 199.99995 L571.28906 199.99995 L572.26563 199.99995 L573.24219 199.99995 L574.21875 199.99995 L575.19531 199.99995 L576.17188 199.99995 L577.14844 199.99995 L578.12500 199.99995 L579.10156 199.99995 L580.07813 199.99995 L581.05469 199.99995 L582.03125 199.99995 L583.00781 199.99995 L583.98438 199.99995 L584.96094 199.99995 L585.93750 199.99995 L586.91406 199.99995 L587.89063 199.99995 L588.86719 199.99995 L589.84375 199.99995 L590.82031 199.99995 L591.79688 199.99995 L592.77344 199.99995 L593.75000 199.99995 L594.72656 199.99995 L595.70313 199.99995 L596.67969 199.99995 L597.65625 199.99995 L598.63281 199.99995 L599.60938 199.99995 L600.58594 199.99995 L601.56250 199.99995 L602.53906 199.99995 L603.51563 199.99995 L604.49219 199.99995 L605.46875 199.99995 L606.44531 199.99995 L607.42188 199.99995 L608.39844 199.99995 L609.37500 199.99995 L610.35156 199.99995 L611.32813 199.99995 L612.30469 199.99995 L613.28125 199.99995 L614.25781 199.99995 L615.23438 199.99995 L616.21094 199.99995 L617.18750 199.99995 L618.16406 199.99995 L619.14063 199.99995 L620.11719 199.99995 L621.09375 199.99995 L622.07031 199.99994 L623.04688 199.99995 L624.02344 199.99995 L625.00000 199.99995 L625.97656 199.99995 L626.95313 199.99995 L627.92969 199.99995 L628.90625 199.99995 L629.88281 199.99995 L630.85938 199.99995 L631.83594 199.99995 L632.81250 199.99995 L633.78906 199.99995 L634.76563 199.99995 L635.74219 199.99995 L636.71875 199.99995 L637.69531 199.99995 L638.67188 199.99995 L639.64844 199.99995 L640.62500 199.99995 L641.60156 199.99995 L642.57813 199.99995 L643.55469 199.99995 L644.53125 199.99995 L645.50781 199.99995 L646.48438 199.99995 L647.46094 199.99995 L648.43750 199.99995 L649.41406 199.99995 L650.39063 199.99995 L651.36719 199.99995 L652.34375 199.99995 L653.32031 199.99994 L654.29688 199.99995 L655.27344 199.99995 L656.25000 199.99995 L657.22656 199.99995 L658.20313 199.99995 L659.17969 199.99995 L660.15625 199.99995 L661.13281 199.99995 L662.10938 199.99995 L663.08594 199.99995 L664.06250 199.99995 L665.03906 199.99995 L666.01563 199.99995 L666.99219 199.99995 L667.96875 199.99995 L668.94531 199.99995 L669.92188 199.99995 L670.89844 199.99995 L671.87500 199.99995 L672.85156 199.99995 L673.82813 199.99995 L674.80469 199.99995 L675.78125 199.99995 L676.75781 199.99995 L677.73438 199.99995 L678.71094 199.99995 L679.68750 199.99995 L680.66406 199.99995 L681.64063 199.99995 L682.61719 199.99995 L683.59375 199.99995 L684.57031 199.99995 L685.54688 199.99995 L686.52344 199.99995 L687.50000 199.99995 L688.47656 199.99995 L689.45313 199.99995 L690.42969 199.99994 L691.40625 199.99995 L692.38281 199.99995 L693.35938 199.99995 L694.33594 199.99995 L695.31250 199.99994 L696.28906 199.99995 L697.26563 199.99995 L698.24219 199.99995 L699.21875 199.99995 L700.19531 199.99995 L701.17188 199.99995 L702.14844 199.99995 L703.12500 199.99995 L704.10156 199.99995 L705.07813 199.99995 L706.05469 199.99995 L707.03125 199.99995 L708.00781 199.99995 L708.98438 199.99995 L709.96094 199.99995 L710.93750 199.99995 L711.91406 199.99995 L712.89063 199.99995 L713.86719 199.99995 L714.84375 199.99995 L715.82031 199.99995 L716.79688 199.99995 L717.77344 199.99995 L718.75000 199.99995 L719.72656 199.99995 L720.70313 199.99995 L721.67969 199.99995 L722.65625 199.99995 L723.63281 199.99995 L724.60938 199.99995 L725.58594 199.99995 L726.56250 199.99994 L727.53906 199.99995 L728.51563 199.99995 L729.49219 199.99995 L730.46875 199.99994 L731.44531 199.99994 L732.42188 199.99995 L733.39844 199.99995 L734.37500 199.99995 L735.35156 199.99995 L736.32813 199.99995 L737.30469 199.99995 L738.28125 199.99995 L739.25781 199.99995 L740.23438 199.99995 L741.21094 199.99995 L742.18750 199.99995 L743.16406 199.99995 L744.14063 199.99995 L745.11719 199.99995 L746.09375 199.99995 L747.07031 199.99995 L748.04688 199.99995 L749.02344 199.99995 L750.00000 199.99995 L750.97656 199.99995 L751.95313 199.99995 L752.92969 199.99995 L753.90625 199.99995 L754.88281 199.99995 L755.85938 199.99995 L756.83594 199.99995 L757.81250 199.99995 L758.78906 199.99995 L759.76563 199.99995 L760.74219 199.99995 L761.71875 199.99994 L762.69531 199.99995 L763.67188 199.99995 L764.64844 199.99995 L765.62500 199.99995 L766.60156 199.99994 L767.57813 199.99995 L768.55469 199.99994 L769.53125 199.99995 L770.50781 199.99995 L771.48438 199.99995 L772.46094 199.99995 L773.43750 199.99995 L774.41406 199.99995 L775.39063 199.99995 L776.36719 199.99995 L777.34375 199.99995 L778.32031 199.99995 L779.29688 199.99995 L780.27344 199.99995 L781.25000 199.99995 L782.22656 199.99995 L783.20313 199.99995 L784.17969 199.99995 L785.15625 199.99995 L786.13281 199.99995 L787.10938 199.99995 L788.08594 199.99995 L789.06250 199.99995 L790.03906 199.99995 L791.01563 199.99995 L791.99219 199.99995 L792.96875 199.99995 L793.94531 199.99995 L794.92188 199.99995 L795.89844 199.99995 L796.87500 199.99995 L797.85156 199.99994 L798.82813 199.99995 L799.80469 199.99994 L800.78125 199.99995 L801.75781 199.99995 L802.73438 199.99994 L803.71094 199.99994 L804.68750 199.99995 L805.66406 199.99995 L806.64063 199.99995 L807.61719 199.99995 L808.59375 199.99995 L809.57031 199.99995 L810.54688 199.99995 L811.52344 199.99995 L812.50000 199.99995 L813.47656 199.99995 L814.45313 199.99995 L815.42969 199.99995 L816.40625 199.99995 L817.38281 199.99995 L818.35938 199.99995 L819.33594 199.99995 L820.31250 199.99995 L821.28906 199.99995 L822.26563 199.99995 L823.24219 199.99995 L824.21875 199.99995 L825.19531 199.99995 L826.17188 199.99995 L827.14844 199.99995 L828.12500 199.99995 L829.10156 199.99995 L830.07813 199.99995 L831.05469 199.99995 L832.03125 199.99995 L833.00781 199.99995 L833.98438 199.99994 L834.96094 199.99994 L835.93750 199.99995 L836.91406 199.99995 L837.89063 199.99994 L838.86719 199.99994 L839.84375 199.99992 L840.82031 199.99994 L841.79688 199.99994 L842.77344 199.99995 L843.75000 199.99995 L844.72656 199.99995 L845.70313 199.99995 L846.67969 199.99995 L847.65625 199.99995 L848.63281 199.99995 L849.60938 199.99995 L850.58594 199.99995 L851.56250 199.99995 L852.53906 199.99995 L853.51563 199.99995 L854.49219 199.99995 L855.46875 199.99995 L856.44531 199.99995 L857.42188 199.99995 L858.39844 199.99995 L859.37500 199.99995 L860.35156 199.99995 L861.32813 199.99995 L862.30469 199.99995 L863.28125 199.99995 L864.25781 199.99995 L865.23438 199.99995 L866.21094 199.99995 L867.18750 199.99995 L868.16406 199.99995 L869.14063 199.99994 L870.11719 199.99994 L871.09375 199.99992 L872.07031 199.99994 L873.04688 199.99994 L874.02344 199.99995 L875.00000 199.99994 L875.97656 199.99992 L876.95313 199.99994 L877.92969 199.99995 L878.90625 199.99995 L879.88281 199.99995 L880.85938 199.99995 L881.83594 199.99995 L882.81250 199.99995 L883.78906 199.99995 L884.76563 199.99995 L885.74219 199.99995 L886.71875 199.99995 L887.69531 199.99995 L888.67188 199.99995 L889.64844 199.99995 L890.62500 199.99995 L891.60156 199.99995 L892.57813 199.99995 L893.55469 199.99995 L894.53125 199.99995 L895.50781 199.99995 L896.48438 199.99995 L897.46094 199.99995 L898.43750 199.99995 L899.41406 199.99995 L900.39063 199.99995 L901.36719 199.99995 L902.34375 199.99995 L903.32031 199.99995 L904.29688 199.99995 L905.27344 199.99994 L906.25000 199.99992 L907.22656 199.99994 L908.20313 199.99994 L909.17969 199.99995 L910.15625 199.99994 L911.13281 199.99989 L912.10938 199.99995 L913.08594 199.99989 L914.06250 199.99994 L915.03906 199.99995 L916.01563 199.99994 L916.99219 199.99995 L917.96875 199.99995 L918.94531 199.99995 L919.92188 199.99995 L920.89844 199.99995 L921.87500 199.99995 L922.85156 199.99995 L923.82813 199.99995 L924.80469 199.99995 L925.78125 199.99995 L926.75781 199.99995 L927.73438 199.99995 L928.71094 199.99995 L929.68750 199.99995 L930.66406 199.99995 L931.64063 199.99995 L932.61719 199.99995 L933.59375 199.99995 L934.57031 199.99995 L935.54688 199.99995 L936.52344 199.99994 L937.50000 199.99995 L938.47656 199.99995 L939.45313 199.99994 L940.42969 199.99995 L941.40625 199.99994 L942.38281 199.99989 L943.35938 199.99995 L944.33594 199.99989 L945.31250 199.99995 L946.28906 199.99994 L947.26563 199.99989 L948.24219 199.99986 L949.21875 199.99988 L950.19531 199.99992 L951.17188 199.99994 L952.14844 199.99994 L953.12500 199.99995 L954.10156 199.99994 L955.07813 199.99995 L956.05469 199.99995 L957.03125 199.99994 L958.00781 199.99995 L958.98438 199.99995 L959.96094 199.99995 L960.93750 199.99995 L961.91406 199.99995 L962.89063 199.99995 L963.86719 199.99995 L964.84375 199.99995 L965.82031 199.99995 L966.79688 199.99995 L967.77344 199.99995 L968.75000 199.99995 L969.72656 199.99995 L970.70313 199.99995 L971.67969 199.99995 L972.65625 199.99995 L973.63281 199.99995 L974.60938 199.99995 L975.58594 199.99995 L976.56250 199.99994 L977.53906 199.99995 L978.51563 199.99989 L979.49219 199.99985 L980.46875 199.99986 L981.44531 199.99992 L982.42188 199.99989 L983.39844 199.99986 L984.37500 0.00001 L985.35156 199.99988 L986.32813 199.99991 L987.30469 199.99994 L988.28125 199.99994 L989.25781 199.99994 L990.23438 199.99995 L991.21094 199.99994 L992.18750 199.99995 L993.16406 199.99995 L994.14063 199.99995 L995.11719 199.99995 L996.09375 199.99995 L997.07031 199.99995 L998.04688 199.99995 L999.02344 199.99995" /><path fill="none" stroke="#000000" d="M0 300.53232  L0.00000 300.53232  L0.97656 220.37057  L1.95313 355.88486  L2.92969 262.73364  L3.90625 221.77402  L4.88281 219.49944  L5.85938 236.57806  L6.83594 389.21710  L7.81250 264.31073  L8.78906 227.35455  L9.76563 233.27486  L10.74219 242.09906  L11.71875 226.90196  L12.69531 252.81468  L13.67188 241.90543  L14.64844 246.29387  L15.62500 250.26611  L16.60156 358.09723  L17.57813 351.06500  L18.55469 380.46948  L19.53125 369.06635  L20.50781 338.31696  L21.48438 302.92715  L22.46094 273.08698  L23.43750 335.59964  L24.41406 309.32043  L25.39063 345.30090  L26.36719 336.57202  L27.34375 341.96021  L28.32031 331.55148  L29.29688 313.41147  L30.27344 355.97345  L31.25000 347.91553  L32.22656 327.78210  L33.20313 338.65717  L34.17969 206.04460  L35.15625 365.00189  L36.13281 328.47607  L37.10938 384.28931  L38.08594 354.59332  L39.06250 299.07523  L40.03906 377.79272  L41.01563 351.41867  L41.99219 207.50890  L42.96875 359.43857  L43.94531 290.31982  L44.92188 395.90186  L45.89844 355.82404  L46.87500 228.81236  L47.85156 382.54330  L48.82813 337.68604  L49.80469 201.52086  L50.78125 371.51538  L51.75781 334.48047  L52.73438 305.18976  L53.71094 270.14771  L54.68750 214.11290  L55.66406 335.66852  L56.64063 313.06021  L57.61719 297.75031  L58.59375 228.04257  L59.57031 314.00693  L60.54688 284.79315  L61.52344 376.44641  L62.50000 314.29453  L63.47656 279.83582  L64.45313 326.03427  L65.42969 285.37656  L66.40625 232.08882  L67.38281 314.97833  L68.35938 289.60535  L69.33594 269.31335  L70.31250 304.24335  L71.28906 348.60068  L72.26563 305.31409  L73.24219 284.41492  L74.21875 340.26270  L75.19531 282.03693  L76.17188 216.86917  L77.14844 299.03815  L78.12500 201.31438  L79.10156 334.21094  L80.07813 296.11209  L81.05469 391.92053  L82.03125 359.62848  L83.00781 254.26694  L83.98438 358.79852  L84.96094 338.53299  L85.93750 217.52138  L86.91406 342.75409  L87.89063 330.64716  L88.86719 298.73782  L89.84375 221.70676  L90.82031 339.35309  L91.79688 317.83514  L92.77344 310.37329  L93.75000 274.93555  L94.72656 240.18210  L95.70313 334.39716  L96.67969 265.94705  L97.65625 221.83652  L98.63281 308.22452  L99.60938 257.36533  L100.58594 278.22427  L101.56250 291.79706  L102.53906 228.93182  L103.51563 293.50793  L104.49219 286.87970  L105.46875 238.31494  L106.44531 287.82574  L107.42188 275.65787  L108.39844 341.21869  L109.37500 338.50473  L110.35156 281.11517  L111.32813 301.27551  L112.30469 240.64882  L113.28125 370.24982  L114.25781 311.21634  L115.23438 287.10648  L116.21094 313.25998  L117.18750 220.11574  L118.16406 349.05505  L119.14063 323.46625  L120.11719 340.38306  L121.09375 339.92804  L122.07031 382.49506  L123.04688 339.51923  L124.02344 309.99585  L125.00000 265.48138  L125.97656 243.01923  L126.95313 312.39731  L127.92969 354.44678  L128.90625 289.46573  L129.88281 231.38843  L130.85938 255.79047  L131.83594 314.60220  L132.81250 214.28149  L133.78906 221.01636  L134.76563 292.36145  L135.74219 263.79044  L136.71875 236.06129  L137.69531 273.99234  L138.67188 284.03210  L139.64844 354.12708  L140.62500 249.67708  L141.60156 243.59956  L142.57813 388.30948  L143.55469 248.14809  L144.53125 265.90076  L145.50781 305.28873  L146.48438 262.18552  L147.46094 291.44745  L148.43750 220.52660  L149.41406 377.18427  L150.39063 266.30072  L151.36719 289.64709  L152.34375 394.43140  L153.32031 395.01633  L154.29688 361.41019  L155.27344 335.12054  L156.25000 395.44775  L157.22656 271.72778  L158.20313 313.70883  L159.17969 352.94263  L160.15625 290.92392  L161.13281 226.22427  L162.10938 260.96152  L163.08594 322.82330  L164.06250 324.43027  L165.03906 264.79785  L166.01563 243.82623  L166.99219 207.22017  L167.96875 240.99908  L168.94531 253.87238  L169.92188 377.81940  L170.89844 245.35899  L171.87500 249.79128  L172.85156 252.43965  L173.82813 233.64111  L174.80469 239.36292  L175.78125 286.01782  L176.75781 244.38358  L177.73438 220.59258  L178.71094 217.18365  L179.68750 261.34467  L180.66406 233.70532  L181.64063 260.57727  L182.61719 273.89288  L183.59375 234.44402  L184.57031 393.65802  L185.54688 393.69952  L186.52344 273.27820  L187.50000 270.14151  L188.47656 205.28741  L189.45313 338.21655  L190.42969 370.04752  L191.40625 305.13736  L192.38281 318.78989  L193.35938 263.72336  L194.33594 325.45187  L195.31250 312.66483  L196.28906 272.95767  L197.26563 247.42197  L198.24219 214.55873  L199.21875 350.75211  L200.19531 271.81903  L201.17188 254.80194  L202.14844 238.05571  L203.12500 372.16809  L204.10156 249.36519  L205.07813 224.65979  L206.05469 351.66473  L207.03125 253.52193  L208.00781 232.00612  L208.98438 258.79309  L209.96094 213.95912  L210.93750 207.31651  L211.91406 257.37778  L212.89063 223.92917  L213.86719 204.46204  L214.84375 257.00858  L215.82031 241.33430  L216.79688 220.17546  L217.77344 240.30672  L218.75000 287.22891  L219.72656 209.34406  L220.70313 206.39397  L221.67969 381.92975  L222.65625 296.10052  L223.63281 225.05052  L224.60938 210.94093  L225.58594 370.59390  L226.56250 304.13846  L227.53906 313.52933  L228.51563 287.15820  L229.49219 284.81952  L230.46875 346.63809  L231.44531 280.34894  L232.42188 284.21140  L233.39844 237.94150  L234.37500 329.14941  L235.35156 279.06369  L236.32813 252.37462  L237.30469 250.99469  L238.28125 214.12633  L239.25781 383.10400  L240.23438 261.15445  L241.21094 213.06502  L242.18750 373.55591  L243.16406 252.36655  L244.14063 214.43707  L245.11719 201.06467  L246.09375 225.38205  L247.07031 384.90744  L248.04688 244.45233  L249.02344 217.88126  L250.00000 386.85687  L250.97656 261.74289  L251.95313 210.35870  L252.92969 380.11810  L253.90625 242.26553  L254.88281 216.34267  L255.85938 219.97734  L256.83594 389.79703  L257.81250 307.87622  L258.78906 301.66458  L259.76563 391.07758  L260.74219 227.07355  L261.71875 358.70551  L262.69531 295.93103  L263.67188 320.19885  L264.64844 329.11459  L265.62500 319.06735  L266.60156 336.94424  L267.57813 268.48306  L268.55469 246.10114  L269.53125 216.87741  L270.50781 349.42065  L271.48438 274.32944  L272.46094 325.59470  L273.43750 227.04536  L274.41406 359.05475  L275.39063 367.26208  L276.36719 367.36401  L277.34375 203.80153  L278.32031 396.09058  L279.29688 248.25366  L280.27344 214.31342  L281.25000 372.23648  L282.22656 255.38837  L283.20313 376.68823  L284.17969 235.19598  L285.15625 208.04669  L286.13281 352.31522  L287.10938 355.25430  L288.08594 218.55817  L289.06250 323.38797  L290.03906 342.59717  L291.01563 392.61865  L291.99219 222.18332  L292.96875 369.12878  L293.94531 294.07016  L294.92188 308.35788  L295.89844 386.70807  L296.87500 391.04584  L297.85156 364.05255  L298.82813 328.98480  L299.80469 245.18959  L300.78125 249.93353  L301.75781 279.73273  L302.73438 284.11929  L303.71094 313.09521  L304.68750 228.83786  L305.66406 351.81140  L306.64063 367.72461  L307.61719 375.17072  L308.59375 226.06487  L309.57031 212.67625  L310.54688 388.50928  L311.52344 355.36713  L312.50000 254.73596  L313.47656 384.47528  L314.45313 359.73059  L315.42969 238.33800  L316.40625 398.10938  L317.38281 338.22473  L318.35938 368.96689  L319.33594 397.13437  L320.31250 240.68335  L321.28906 379.50345  L322.26563 370.50958  L323.24219 341.90112  L324.21875 206.11566  L325.19531 378.25989  L326.17188 262.94299  L327.14844 395.45782  L328.12500 367.78619  L329.10156 364.42627  L330.07813 327.24796  L331.05469 257.28473  L332.03125 213.10928  L333.00781 346.63751  L333.98438 252.88280  L334.96094 304.90594  L335.93750 245.86523  L336.91406 239.90703  L337.89063 265.66809  L338.86719 255.86632  L339.84375 252.69708  L340.82031 216.58987  L341.79688 384.97729  L342.77344 354.70578  L343.75000 272.79358  L344.72656 212.55316  L345.70313 238.60764  L346.67969 376.22556  L347.65625 313.12112  L348.63281 371.01651  L349.60938 369.85428  L350.58594 293.15793  L351.56250 229.11119  L352.53906 371.73480  L353.51563 360.24527  L354.49219 360.47449  L355.46875 309.39917  L356.44531 391.04590  L357.42188 378.63428  L358.39844 348.59705  L359.37500 349.54742  L360.35156 330.47119  L361.32813 346.01926  L362.30469 374.57162  L363.28125 398.34375  L364.25781 350.43207  L365.23438 375.43503  L366.21094 312.09988  L367.18750 225.24202  L368.16406 370.49329  L369.14063 342.45959  L370.11719 304.43814  L371.09375 261.12680  L372.07031 262.93610  L373.04688 218.00285  L374.02344 242.65997  L375.00000 288.01852  L375.97656 217.89609  L376.95313 237.82303  L377.92969 378.03772  L378.90625 306.41486  L379.88281 233.42859  L380.85938 396.06976  L381.83594 383.28308  L382.81250 357.66858  L383.78906 318.64667  L384.76563 227.00507  L385.74219 353.79572  L386.71875 300.58914  L387.69531 395.18222  L388.67188 357.44757  L389.64844 346.81216  L390.62500 240.57797  L391.60156 304.87744  L392.57813 359.16010  L393.55469 371.74988  L394.53125 320.47073  L395.50781 285.52814  L396.48438 344.41864  L397.46094 322.15952  L398.43750 373.12738  L399.41406 355.64523  L400.39063 357.73584  L401.36719 321.58032  L402.34375 283.58719  L403.32031 201.46722  L404.29688 362.08215  L405.27344 246.87680  L406.25000 294.25284  L407.22656 214.16852  L408.20313 213.97437  L409.17969 205.05428  L410.15625 217.44801  L411.13281 240.87866  L412.10938 217.17236  L413.08594 396.72156  L414.06250 346.28494  L415.03906 309.97455  L416.01563 395.22479  L416.99219 220.54779  L417.96875 362.44913  L418.94531 309.29810  L419.92188 333.64636  L420.89844 204.43663  L421.87500 243.11115  L422.85156 298.06393  L423.82813 365.67230  L424.80469 355.45911  L425.78125 311.24997  L426.75781 356.25647  L427.73438 339.81970  L428.71094 239.48112  L429.68750 339.25031  L430.66406 315.89938  L431.64063 267.75198  L432.61719 345.00555  L433.59375 322.44385  L434.57031 387.17969  L435.54688 346.29968  L436.52344 374.59888  L437.50000 300.20163  L438.47656 298.46997  L439.45313 396.21841  L440.42969 364.65942  L441.40625 310.72702  L442.38281 261.57642  L443.35938 249.90033  L444.33594 223.78505  L445.31250 279.36273  L446.28906 300.49182  L447.26563 390.28986  L448.24219 230.54744  L449.21875 370.71439  L450.19531 308.82935  L451.17188 335.00842  L452.14844 207.74651  L453.12500 399.18018  L454.10156 336.99847  L455.07813 321.44205  L456.05469 303.55219  L457.03125 327.26611  L458.00781 351.29584  L458.98438 276.54245  L459.96094 218.12402  L460.93750 334.13309  L461.91406 286.27209  L462.89063 288.24170  L463.86719 315.37506  L464.84375 334.22211  L465.82031 327.09442  L466.79688 306.73987  L467.77344 264.66278  L468.75000 374.25159  L469.72656 306.77448  L470.70313 237.18625  L471.67969 346.10162  L472.65625 302.89600  L473.63281 264.91458  L474.60938 268.75507  L475.58594 217.89871  L476.56250 358.44000  L477.53906 281.91376  L478.51563 212.82678  L479.49219 248.99738  L480.46875 381.17328  L481.44531 381.92798  L482.42188 227.27737  L483.39844 398.56870  L484.37500 243.58827  L485.35156 354.10385  L486.32813 328.90601  L487.30469 295.11377  L488.28125 224.20325  L489.25781 346.44641  L490.23438 305.84857  L491.21094 315.97400  L492.18750 252.80334  L493.16406 288.41412  L494.14063 316.33707  L495.11719 284.23770  L496.09375 361.70883  L497.07031 318.54919  L498.04688 273.97415  L499.02344 272.94284  L500.00000 300.53232  L500.97656 328.12180  L501.95313 327.09052  L502.92969 282.51544  L503.90625 239.35585  L504.88281 316.82678  L505.85938 284.72760  L506.83594 312.65057  L507.81250 348.26132  L508.78906 285.09067  L509.76563 295.21616  L510.74219 254.61823  L511.71875 376.86142  L512.69531 305.95090  L513.67188 272.15869  L514.64844 246.96080  L515.62500 200.00002  L516.60156 202.49596  L517.57813 373.78723  L518.55469 219.13658  L519.53125 219.89136  L520.50781 352.06726  L521.48438 388.23801  L522.46094 319.15091  L523.43750 242.62465  L524.41406 383.16592  L525.39063 332.30957  L526.36719 336.15009  L527.34375 298.16864  L528.32031 254.96304  L529.29688 363.87842  L530.27344 294.29019  L531.25000 226.81303  L532.22656 336.40186  L533.20313 294.32480  L534.17969 273.97025  L535.15625 266.84259  L536.13281 285.68958  L537.10938 312.82297  L538.08594 314.79257  L539.06250 266.93158  L540.03906 382.94061  L541.01563 324.52225  L541.99219 249.76881  L542.96875 273.79861  L543.94531 297.51248  L544.92188 279.62262  L545.89844 264.06616  L546.87500 212.25610  L547.85156 393.31812  L548.82813 266.05624  L549.80469 292.23532  L550.78125 230.35030  L551.75781 370.51721  L552.73438 210.77490  L553.71094 300.57278  L554.68750 321.70197  L555.66406 377.27960  L556.64063 351.16431  L557.61719 339.48822  L558.59375 290.33765  L559.57031 236.40521  L560.54688 204.84618  L561.52344 302.59467  L562.50000 300.86304  L563.47656 226.46584  L564.45313 254.76500  L565.42969 213.88499  L566.40625 278.62082  L567.38281 256.05911  L568.35938 333.31268  L569.33594 285.16528  L570.31250 261.81436  L571.28906 361.58359  L572.26563 261.24493  L573.24219 244.80823  L574.21875 289.81470  L575.19531 245.60556  L576.17188 235.39236  L577.14844 303.00073  L578.12500 220.15231  L579.10156 396.62802  L580.07813 267.41833  L581.05469 291.76657  L582.03125 238.61554  L583.00781 380.51688  L583.98438 205.83989  L584.96094 291.09009  L585.93750 254.77971  L586.91406 204.34312  L587.89063 383.89230  L588.86719 360.18604  L589.84375 383.61670  L590.82031 396.01038  L591.79688 387.09027  L592.77344 386.89621  L593.75000 306.81183  L594.72656 354.18793  L595.70313 238.98253  L596.67969 399.59744  L597.65625 317.47745  L598.63281 279.48431  L599.60938 243.32880  L600.58594 245.41943  L601.56250 227.93727  L602.53906 278.90515  L603.51563 256.64600  L604.49219 315.53644  L605.46875 280.59393  L606.44531 229.31477  L607.42188 241.90453  L608.39844 296.18723  L609.37500 337.65744  L610.35156 254.25252  L611.32813 243.61714  L612.30469 205.88243  L613.28125 300.47546  L614.25781 247.26897  L615.23438 374.05963  L616.21094 282.41800  L617.18750 243.39609  L618.16406 217.78159  L619.14063 204.99487  L620.11719 367.63611  L621.09375 294.64978  L622.07031 223.02695  L623.04688 363.24164  L624.02344 383.16858  L625.00000 313.04611  L625.97656 358.40469  L626.95313 383.06183  L627.92969 338.12857  L628.90625 339.93787  L629.88281 296.62650  L630.85938 258.60504  L631.83594 230.57140  L632.81250 375.82263  L633.78906 288.96478  L634.76563 225.62958  L635.74219 250.63257  L636.71875 202.72090  L637.69531 226.49304  L638.67188 255.04538  L639.64844 270.59372  L640.62500 299.98950  L641.60156 252.46765  L642.57813 222.43039  L643.55469 210.01877  L644.53125 291.66559  L645.50781 240.59021  L646.48438 240.81941  L647.46094 229.32988  L648.43750 371.95349  L649.41406 307.90662  L650.39063 231.21039  L651.36719 230.04814  L652.34375 287.94354  L653.32031 224.83910  L654.29688 362.45706  L655.27344 388.51151  L656.25000 328.27106  L657.22656 246.35889  L658.20313 216.08740  L659.17969 384.47479  L660.15625 348.36761  L661.13281 345.19836  L662.10938 335.39661  L663.08594 361.15771  L664.06250 355.19940  L665.03906 296.15869  L666.01563 348.18201  L666.99219 254.42712  L667.96875 387.95538  L668.94531 343.77994  L669.92188 273.81671  L670.89844 236.63838  L671.87500 235.53076  L672.85156 205.60686  L673.82813 338.12167  L674.80469 222.80478  L675.78125 394.94891  L676.75781 259.16364  L677.73438 230.55508  L678.71094 221.56122  L679.68750 360.38132  L680.66406 203.93031  L681.64063 232.09778  L682.61719 262.83990  L683.59375 202.95528  L684.57031 362.72668  L685.54688 241.33406  L686.52344 216.58936  L687.50000 346.32867  L688.47656 245.69753  L689.45313 212.55539  L690.42969 388.38843  L691.40625 374.99979  L692.38281 225.89395  L693.35938 233.34003  L694.33594 249.25323  L695.31250 372.22681  L696.28906 287.96945  L697.26563 316.94537  L698.24219 321.33194  L699.21875 351.13113  L700.19531 355.87509  L701.17188 272.07980  L702.14844 237.01208  L703.12500 216.47217  L704.10156 214.35661  L705.07813 292.70679  L706.05469 306.99448  L707.03125 231.93590  L708.00781 378.88135  L708.98438 208.44600  L709.96094 258.46750  L710.93750 277.67670  L711.91406 382.50653  L712.89063 245.81032  L713.86719 248.74948  L714.84375 393.01794  L715.82031 365.86868  L716.79688 224.37643  L717.77344 345.67630  L718.75000 228.82817  L719.72656 386.75122  L720.70313 352.81097  L721.67969 204.97409  L722.65625 397.26312  L723.63281 233.70062  L724.60938 233.80258  L725.58594 242.00987  L726.56250 374.01929  L727.53906 275.46997  L728.51563 326.73523  L729.49219 251.64395  L730.46875 384.18726  L731.44531 354.96353  L732.42188 332.58160  L733.39844 264.12048  L734.37500 232.57977  L735.35156 271.95007  L736.32813 280.86578  L737.30469 305.13364  L738.28125 242.35915  L739.25781 373.99115  L740.23438 209.98709  L741.21094 299.40009  L742.18750 293.18845  L743.16406 211.26764  L744.14063 381.08734  L745.11719 384.72198  L746.09375 358.79913  L747.07031 220.94656  L748.04688 390.70599  L749.02344 339.32178  L750.00000 214.20776  L750.97656 383.18341  L751.95313 356.61237  L752.92969 216.15720  L753.90625 375.68262  L754.88281 400.00000  L755.85938 386.62762  L756.83594 348.69812  L757.81250 227.50876  L758.78906 387.99963  L759.76563 339.91022  L760.74219 217.96063  L761.71875 386.93832  L762.69531 350.06998  L763.67188 348.69006  L764.64844 322.00092  L765.62500 234.00436  L766.60156 363.12317  L767.57813 316.85324  L768.55469 320.71570  L769.53125 254.42661  L770.50781 316.24509  L771.48438 313.90646  L772.46094 287.53537  L773.43750 296.92621  L774.41406 230.47078  L775.39063 390.12372  L776.36719 376.01416  L777.34375 304.96414  L778.32031 219.13489  L779.29688 394.67068  L780.27344 391.72061  L781.25000 313.83575  L782.22656 360.75800  L783.20313 380.88922  L784.17969 359.73035  L785.15625 344.05609  L786.13281 396.60266  L787.10938 377.13550  L788.08594 343.68689  L789.06250 393.74814  L790.03906 387.10553  L791.01563 342.27158  L791.99219 369.05856  L792.96875 347.54276  L793.94531 249.39990  L794.92188 376.40485  L795.89844 351.69946  L796.87500 230.49702  L797.85156 363.00897  L798.82813 346.26270  L799.80469 329.24564  L800.78125 250.31259  L801.75781 386.50595  L802.73438 353.64270  L803.71094 328.10699  L804.68750 288.39984  L805.66406 275.61279  L806.64063 337.34131  L807.61719 282.27469  L808.59375 295.92728  L809.57031 231.01715  L810.54688 262.84808  L811.52344 395.77725  L812.50000 330.92316  L813.47656 327.78653  L814.45313 207.36513  L815.42969 207.40662  L816.40625 366.62064  L817.38281 327.17175  L818.35938 340.48737  L819.33594 367.35938  L820.31250 339.72003  L821.28906 383.88098  L822.26563 380.47214  L823.24219 356.68109  L824.21875 315.04684  L825.19531 361.70175  L826.17188 367.42355  L827.14844 348.62500  L828.12500 349.06146  L829.10156 355.70566  L830.07813 223.24522  L831.05469 347.19229  L832.03125 360.06555  L833.00781 393.84451  L833.98438 357.23843  L834.96094 336.26682  L835.93750 276.63440  L836.91406 278.24139  L837.89063 340.10315  L838.86719 374.84039  L839.84375 310.14072  L840.82031 248.12201  L841.79688 287.35583  L842.77344 329.33691  L843.75000 205.61691  L844.72656 265.94409  L845.70313 239.65446  L846.67969 206.04832  L847.65625 206.63326  L848.63281 311.41754  L849.60938 334.76395  L850.58594 223.88037  L851.56250 380.53806  L852.53906 309.61725  L853.51563 338.87918  L854.49219 295.77597  L855.46875 335.16394  L856.44531 352.91656  L857.42188 212.75514  L858.39844 357.46509  L859.37500 328.48871  L860.35156 246.93755  L861.32813 317.03259  L862.30469 327.07233  L863.28125 365.00336  L864.25781 337.27423  L865.23438 308.70322  L866.21094 380.04828  L867.18750 386.78314  L868.16406 286.46246  L869.14063 345.27417  L870.11719 369.67627  L871.09375 311.59894  L872.07031 246.61787  L873.04688 288.66736  L874.02344 358.04547  L875.00000 335.58325  L875.97656 291.06879  L876.95313 261.54544  L877.92969 218.56960  L878.90625 261.13663  L879.88281 260.68158  L880.85938 277.59845  L881.83594 252.00958  L882.81250 380.94891  L883.78906 287.80469  L884.76563 313.95831  L885.74219 289.84836  L886.71875 230.81476  L887.69531 360.41583  L888.67188 299.78915  L889.64844 319.94952  L890.62500 299.69141  L891.60156 259.84601  L892.57813 325.40680  L893.55469 313.23895  L894.53125 362.74969  L895.50781 314.18500  L896.48438 307.55670  L897.46094 372.13281  L898.43750 309.26761  L899.41406 322.84039  L900.39063 343.69934  L901.36719 292.84015  L902.34375 379.22809  L903.32031 335.11761  L904.29688 266.66748  L905.27344 360.88257  L906.25000 326.12909  L907.22656 290.69141  L908.20313 283.22952  L909.17969 261.71158  L910.15625 379.35791  L911.13281 302.32684  L912.10938 270.41751  L913.08594 258.31061  L914.06250 383.54327  L915.03906 262.53168  L916.01563 242.26611  L916.99219 346.79779  L917.96875 241.43620  L918.94531 209.14412  L919.92188 304.95258  L920.89844 266.85379  L921.87500 363.36295  L922.85156 302.02649  L923.82813 384.19550  L924.80469 319.02774  L925.78125 260.80197  L926.75781 316.64972  L927.73438 295.75058  L928.71094 252.46396  L929.68750 296.82129  L930.66406 331.75128  L931.64063 311.45932  L932.61719 286.08636  L933.59375 368.97583  L934.57031 315.68811  L935.54688 275.03040  L936.52344 321.22888  L937.50000 286.77014  L938.47656 224.61829  L939.45313 316.27151  L940.42969 287.05774  L941.40625 373.02209  L942.38281 303.31436  L943.35938 288.00443  L944.33594 265.39612  L945.31250 386.95175  L946.28906 330.91693  L947.26563 295.87491  L948.24219 266.58417  L949.21875 229.54927  L950.19531 399.54379  L951.17188 263.37863  L952.14844 218.52136  L953.12500 398.09351  L954.10156 245.24063  L955.07813 205.16278  L956.05469 310.74481  L957.03125 241.62611  L958.00781 393.55579  L958.98438 249.64595  L959.96094 223.27194  L960.93750 301.98944  L961.91406 246.47133  L962.89063 216.77534  L963.86719 272.58859  L964.84375 236.06277  L965.82031 395.02005  L966.79688 262.40750  L967.77344 273.28253  L968.75000 253.14911  L969.72656 245.09122  L970.70313 287.65317  L971.67969 269.51318  L972.65625 259.10446  L973.63281 264.49265  L974.60938 255.76375  L975.58594 291.74420  L976.56250 265.46503  L977.53906 327.97766  L978.51563 298.13751  L979.49219 262.74768  L980.46875 231.99831  L981.44531 220.59517  L982.42188 249.99966  L983.39844 242.96744  L984.37500 350.79852  L985.35156 354.77078  L986.32813 359.15924  L987.30469 348.24997  L988.28125 374.16272  L989.25781 358.96561  L990.23438 367.78983  L991.21094 373.71011  L992.18750 336.75391  L993.16406 211.84758  L994.14063 364.48657  L995.11719 381.56543  L996.09375 379.29065  L997.07031 338.33102  L998.04688 245.17981  L999.02344 380.69409 " /></g><text x="1000.00000" dx="10" y="199.99995">[-0.00000;0.50000]</text><text x="1000.00000" dx="10" y="300.53232">[-3.10832;3.14159]</text></svg>