<svg xmlns="http://www.w3.org/2000/svg" version="1.1"><g stroke-width="0.6"><path fill="none" stroke="#000000" d="M0 117.63957 L1000.00000 117.63957" /><path fill="none" stroke="#000000" d="M0 300.00000 L1000.00000 300.00000" /><path fill="none" stroke="#000000" d="M500.00000 0 L500.00000 400.00000" /><path fill="none" stroke="#000000" d="M0 117.63957  L0.00000 0.00000 L0.97656 34.66208 L1.95313 98.34219 L2.92969 122.96263 L3.90625 99.26493 L4.88281 80.34561 L5.85938 100.78667 L6.83594 126.00009 L7.81250 102.88338 L8.78906 40.68906 L9.76563 7.48906 L10.74219 43.58360 L11.71875 108.66100 L12.69531 134.63797 L13.67188 112.25076 L14.64844 94.59064 L15.62500 116.23470 L16.60156 142.59016 L17.57813 120.54993 L18.55469 59.36254 L19.53125 27.09565 L20.50781 64.04603 L21.48438 129.89835 L22.46094 156.56653 L23.43750 134.78394 L24.41406 117.63957 L25.39063 139.70844 L26.36719 166.39598 L27.34375 144.59402 L28.32031 83.54984 L29.29688 51.33073 L30.27344 88.23326 L31.25000 153.94238 L32.22656 180.37234 L33.20313 158.25760 L34.17969 140.68851 L35.15625 162.24167 L36.13281 188.32452 L37.10938 165.83133 L38.08594 104.01213 L39.06250 70.93733 L40.03906 106.90678 L41.01563 171.60905 L41.99219 196.96240 L42.96875 173.70567 L43.94531 154.93353 L44.92188 175.22742 L45.89844 199.99986 L46.87500 176.15007 L47.85156 112.93359 L48.82813 78.42638 L49.80469 112.93386 L50.78125 176.15030 L51.75781 199.99985 L52.73438 175.22728 L53.71094 154.93353 L54.68750 173.70561 L55.66406 196.96240 L56.64063 171.60898 L57.61719 106.90670 L58.59375 70.93732 L59.57031 104.01221 L60.54688 165.83139 L61.52344 188.32451 L62.50000 162.24153 L63.47656 140.68849 L64.45313 158.25772 L65.42969 180.37236 L66.40625 153.94214 L67.38281 88.23299 L68.35938 51.33073 L69.33594 83.55010 L70.31250 144.59425 L71.28906 166.39598 L72.26563 139.70839 L73.24219 117.63957 L74.21875 134.78397 L75.19531 156.56654 L76.17188 129.89827 L77.14844 64.04585 L78.12500 27.09564 L79.10156 59.36271 L80.07813 120.55016 L81.05469 142.59013 L82.03125 116.23456 L83.00781 94.59063 L83.98438 112.25088 L84.96094 134.63799 L85.93750 108.66100 L86.91406 43.58361 L87.89063 7.48905 L88.86719 40.68914 L89.84375 102.88345 L90.82031 126.00008 L91.79688 100.78661 L92.77344 80.34561 L93.75000 99.26501 L94.72656 122.96265 L95.70313 98.34200 L96.67969 34.66183 L97.65625 0.00000 L98.63281 34.66237 L99.60938 98.34245 L100.58594 122.96260 L101.56250 99.26474 L102.53906 80.34561 L103.51563 100.78689 L104.49219 126.00014 L105.46875 102.88300 L106.44531 40.68862 L107.42188 7.48906 L108.39844 43.58414 L109.37500 108.66083 L110.35156 134.63799 L111.32813 112.25081 L112.30469 94.59064 L113.28125 116.23465 L114.25781 142.59015 L115.23438 120.55003 L116.21094 59.36256 L117.18750 27.09566 L118.16406 64.04602 L119.14063 129.89842 L120.11719 156.56654 L121.09375 134.78391 L122.07031 117.63959 L123.04688 139.70848 L124.02344 166.39600 L125.00000 144.59381 L125.97656 83.54959 L126.95313 51.33075 L127.92969 88.23354 L128.90625 153.94263 L129.88281 180.37233 L130.85938 158.25746 L131.83594 140.68852 L132.81250 162.24184 L133.78906 188.32458 L134.76563 165.83096 L135.74219 104.01170 L136.71875 70.93732 L137.69531 106.90722 L138.67188 171.60942 L139.64844 196.96234 L140.62500 173.70534 L141.60156 154.93353 L142.57813 175.22736 L143.55469 199.99986 L144.53125 176.15018 L145.50781 112.93370 L146.48438 78.42638 L147.46094 112.93375 L148.43750 176.15021 L149.41406 199.99986 L150.39063 175.22734 L151.36719 154.93353 L152.34375 173.70575 L153.32031 196.96242 L154.29688 171.60875 L155.27344 106.90643 L156.25000 70.93732 L157.22656 104.01247 L158.20313 165.83162 L159.17969 188.32448 L160.15625 162.24139 L161.13281 140.68849 L162.10938 158.25786 L163.08594 180.37238 L164.06250 153.94191 L165.03906 88.23271 L166.01563 51.33071 L166.99219 83.55034 L167.96875 144.59445 L168.94531 166.39589 L169.92188 139.70802 L170.89844 117.63954 L171.87500 134.78389 L172.85156 156.56650 L173.82813 129.89833 L174.80469 64.04594 L175.78125 27.09562 L176.75781 59.36261 L177.73438 120.55007 L178.71094 142.59015 L179.68750 116.23463 L180.66406 94.59064 L181.64063 112.25083 L182.61719 134.63799 L183.59375 108.66078 L184.57031 43.58335 L185.54688 7.48905 L186.52344 40.68940 L187.50000 102.88366 L188.47656 126.00006 L189.45313 100.78646 L190.42969 80.34560 L191.40625 99.26515 L192.38281 122.96268 L193.35938 98.34177 L194.33594 34.66158 L195.31250 0.00000 L196.28906 34.66264 L197.26563 98.34268 L198.24219 122.96258 L199.21875 99.26460 L200.19531 80.34562 L201.17188 100.78703 L202.14844 126.00010 L203.12500 102.88277 L204.10156 40.68910 L205.07813 7.48906 L206.05469 43.58369 L207.03125 108.66171 L208.00781 134.63799 L208.98438 112.25030 L209.96094 94.59066 L210.93750 116.23521 L211.91406 142.59019 L212.89063 120.54919 L213.86719 59.36233 L214.84375 27.09564 L215.82031 64.04627 L216.79688 129.89926 L217.77344 156.56650 L218.75000 134.78413 L219.72656 117.63957 L220.70313 139.70822 L221.67969 166.39601 L222.65625 144.59421 L223.63281 83.54932 L224.60938 51.33074 L225.58594 88.23380 L226.56250 153.94220 L227.53906 180.37230 L228.51563 158.25772 L229.49219 140.68851 L230.46875 162.24158 L231.44531 188.32460 L232.42188 165.83138 L233.39844 104.01142 L234.37500 70.93733 L235.35156 106.90750 L236.32813 171.60902 L237.30469 196.96233 L238.28125 173.70561 L239.25781 154.93353 L240.23438 175.22751 L241.21094 199.99995 L242.18750 176.14995 L243.16406 112.93270 L244.14063 78.42638 L245.11719 112.93475 L246.09375 176.15044 L247.07031 199.99977 L248.04688 175.22719 L249.02344 154.93352 L250.00000 173.70589 L250.97656 196.96237 L251.95313 171.60851 L252.92969 106.90690 L253.90625 70.93731 L254.88281 104.01197 L255.85938 165.83183 L256.83594 188.32451 L257.81250 162.24123 L258.78906 140.68848 L259.76563 158.25797 L260.74219 180.37230 L261.71875 153.94167 L262.69531 88.23317 L263.67188 51.33069 L264.64844 83.54984 L265.62500 144.59465 L266.60156 166.39590 L267.57813 139.70787 L268.55469 117.63952 L269.53125 134.78439 L270.50781 156.56650 L271.48438 129.89745 L272.46094 64.04565 L273.43750 27.09567 L274.41406 59.36289 L275.39063 120.55094 L276.36719 142.59013 L277.34375 116.23410 L278.32031 94.59064 L279.29688 112.25137 L280.27344 134.63803 L281.25000 108.65993 L282.22656 43.58310 L283.20313 7.48906 L284.17969 40.68967 L285.15625 102.88326 L286.13281 126.00004 L287.10938 100.78672 L288.08594 80.34561 L289.06250 99.26490 L290.03906 122.96270 L291.01563 98.34219 L291.99219 34.66131 L292.96875 0.00000 L293.94531 34.66290 L294.92188 98.34227 L295.89844 122.96255 L296.87500 99.26485 L297.85156 80.34561 L298.82813 100.78677 L299.80469 126.00019 L300.78125 102.88318 L301.75781 40.68810 L302.73438 7.48906 L303.71094 43.58468 L304.68750 108.66129 L305.66406 134.63788 L306.64063 112.25054 L307.61719 94.59065 L308.59375 116.23494 L309.57031 142.59027 L310.54688 120.54960 L311.52344 59.36131 L312.50000 27.09567 L313.47656 64.04581 L314.45313 129.89888 L315.42969 156.56657 L316.40625 134.78363 L317.38281 117.63960 L318.35938 139.70879 L319.33594 166.39600 L320.31250 144.59337 L321.28906 83.54982 L322.26563 51.33076 L323.24219 88.23334 L324.21875 153.94308 L325.19531 180.37236 L326.17188 158.25720 L327.14844 140.68854 L328.12500 162.24213 L329.10156 188.32458 L330.07813 165.83054 L331.05469 104.01192 L332.03125 70.93736 L333.00781 106.90704 L333.98438 171.60991 L334.96094 196.96240 L335.93750 173.70508 L336.91406 154.93355 L337.89063 175.22804 L338.86719 199.99991 L339.84375 176.14909 L340.82031 112.93317 L341.79688 78.42638 L342.77344 112.93427 L343.75000 176.15002 L344.72656 199.99980 L345.70313 175.22743 L346.67969 154.93352 L347.65625 173.70563 L348.63281 196.96245 L349.60938 171.60892 L350.58594 106.90588 L351.56250 70.93729 L352.53906 104.01301 L353.51563 165.83145 L354.49219 188.32445 L355.46875 162.24152 L356.44531 140.68851 L357.42188 158.25775 L358.39844 180.37244 L359.37500 153.94212 L360.35156 88.23221 L361.32813 51.33073 L362.30469 83.55090 L363.28125 144.59428 L364.25781 166.39586 L365.23438 139.70816 L366.21094 117.63957 L367.18750 134.78418 L368.16406 156.56664 L369.14063 129.89790 L370.11719 64.04469 L371.09375 27.09564 L372.07031 59.36387 L373.04688 120.55051 L374.02344 142.59001 L375.00000 116.23433 L375.97656 94.59063 L376.95313 112.25110 L377.92969 134.63795 L378.90625 108.66032 L379.88281 43.58356 L380.85938 7.48905 L381.83594 40.68918 L382.81250 102.88411 L383.78906 126.00007 L384.76563 100.78618 L385.74219 80.34560 L386.71875 99.26543 L387.69531 122.96265 L388.67188 98.34132 L389.64844 34.66179 L390.62500 0.00000 L391.60156 34.66241 L392.57813 98.34313 L393.55469 122.96261 L394.53125 99.26433 L395.50781 80.34562 L396.48438 100.78731 L397.46094 126.00015 L398.43750 102.88233 L399.41406 40.68709 L400.39063 7.48907 L401.36719 43.58422 L402.34375 108.66216 L403.32031 134.63782 L404.29688 112.25082 L405.27344 94.59067 L406.25000 116.23549 L407.22656 142.59012 L408.20313 120.55003 L409.17969 59.36181 L410.15625 27.09570 L411.13281 64.04536 L412.10938 129.89850 L413.08594 156.56651 L414.06250 134.78313 L415.03906 117.63963 L416.01563 139.70854 L416.99219 166.39610 L417.96875 144.59254 L418.94531 83.55032 L419.92188 51.33079 L420.89844 88.23438 L421.87500 153.94397 L422.85156 180.37244 L423.82813 158.25748 L424.80469 140.68855 L425.78125 162.24268 L426.75781 188.32455 L427.73438 165.83096 L428.71094 104.01093 L429.68750 70.93732 L430.66406 106.90652 L431.64063 171.60947 L432.61719 196.96228 L433.59375 173.70453 L434.57031 154.93353 L435.54688 175.22778 L436.52344 200.00000 L437.50000 176.15077 L438.47656 112.93366 L439.45313 78.42638 L440.42969 112.93529 L441.40625 176.14961 L442.38281 199.99985 L443.35938 175.22691 L444.33594 154.93353 L445.31250 173.70538 L446.28906 196.96242 L447.26563 171.60808 L448.24219 106.90489 L449.21875 70.93732 L450.19531 104.01251 L451.17188 165.83229 L452.14844 188.32434 L453.12500 162.24176 L454.10156 140.68849 L455.07813 158.25827 L456.05469 180.37251 L457.03125 153.94250 L458.00781 88.23266 L458.98438 51.33071 L459.96094 83.55187 L460.93750 144.59386 L461.91406 166.39587 L462.89063 139.70761 L463.86719 117.63954 L464.84375 134.78391 L465.82031 156.56657 L466.79688 129.89702 L467.77344 64.04365 L468.75000 27.09561 L469.72656 59.36337 L470.70313 120.55135 L471.67969 142.59018 L472.65625 116.23457 L473.63281 94.59061 L474.60938 112.25162 L475.58594 134.63791 L476.56250 108.66072 L477.53906 43.58253 L478.51563 7.48903 L479.49219 40.68868 L480.46875 102.88368 L481.44531 125.99998 L482.42188 100.78564 L483.39844 80.34560 L484.37500 99.26517 L485.35156 122.96274 L486.32813 98.34045 L487.30469 34.66227 L488.28125 0.00000 L489.25781 34.66343 L490.23438 98.34399 L491.21094 122.96265 L492.18750 99.26459 L493.16406 80.34563 L494.14063 100.78785 L495.11719 126.00012 L496.09375 102.88275 L497.07031 40.68759 L498.04688 7.48909 L499.02344 43.58376 L500.00000 108.66177 L500.97656 134.63788 L501.95313 112.25109 L502.92969 94.59069 L503.90625 116.23526 L504.88281 142.59036 L505.85938 120.55046 L506.83594 59.36232 L507.81250 27.09571 L508.78906 64.04788 L509.76563 129.89810 L510.74219 156.56657 L511.71875 134.78340 L512.69531 117.63965 L513.67188 139.70833 L514.64844 166.39609 L515.62500 144.59297 L516.60156 83.54785 L517.57813 51.33081 L518.55469 88.23391 L519.53125 153.94357 L520.50781 180.37224 L521.48438 158.25775 L522.46094 140.68858 L523.43750 162.24245 L524.41406 188.32480 L525.39063 165.83139 L526.36719 104.01143 L527.34375 70.93738 L528.32031 106.90907 L529.29688 171.60912 L530.27344 196.96237 L531.25000 173.70482 L532.22656 154.93356 L533.20313 175.22755 L534.17969 199.99997 L535.15625 176.14865 L536.13281 112.93414 L537.10938 78.42638 L538.08594 112.93481 L539.06250 176.15173 L540.03906 199.99988 L541.01563 175.22714 L541.99219 154.93350 L542.96875 173.70667 L543.94531 196.96234 L544.92188 171.60843 L545.89844 106.90532 L546.87500 70.93735 L547.85156 104.01206 L548.82813 165.83191 L549.80469 188.32442 L550.78125 162.24048 L551.75781 140.68854 L552.73438 158.25806 L553.71094 180.37251 L554.68750 153.94041 L555.66406 88.23319 L556.64063 51.33076 L557.61719 83.55145 L558.59375 144.59604 L559.57031 166.39598 L560.54688 139.70792 L561.52344 117.63960 L562.50000 134.78528 L563.47656 156.56657 L564.45313 129.89748 L565.42969 64.04418 L566.40625 27.09566 L567.38281 59.36293 L568.35938 120.55098 L569.33594 142.59000 L570.31250 116.23486 L571.28906 94.59064 L572.26563 112.25140 L573.24219 134.63815 L574.21875 108.66116 L575.19531 43.58305 L576.17188 7.48906 L577.14844 40.69121 L578.12500 102.88329 L579.10156 126.00004 L580.07813 100.78591 L581.05469 80.34561 L582.03125 99.26493 L583.00781 122.96271 L583.98438 98.34087 L584.96094 34.65978 L585.93750 0.00000 L586.91406 34.66294 L587.89063 98.34358 L588.86719 122.96242 L589.84375 99.26483 L590.82031 80.34561 L591.79688 100.78758 L592.77344 126.00033 L593.75000 102.88314 L594.72656 40.68805 L595.70313 7.48906 L596.67969 43.58324 L597.65625 108.66133 L598.63281 134.63788 L599.60938 112.24973 L600.58594 94.59065 L601.56250 116.23496 L602.53906 142.59029 L603.51563 120.54829 L604.49219 59.36275 L605.46875 27.09567 L606.44531 64.04736 L607.42188 129.90019 L608.39844 156.56657 L609.37500 134.78362 L610.35156 117.63960 L611.32813 139.70959 L612.30469 166.39600 L613.28125 144.59334 L614.25781 83.54829 L615.23438 51.33076 L616.21094 88.23339 L617.18750 153.94313 L618.16406 180.37224 L619.14063 158.25639 L620.11719 140.68854 L621.09375 162.24214 L622.07031 188.32471 L623.04688 165.82921 L624.02344 104.01188 L625.00000 70.93736 L625.97656 106.90857 L626.95313 171.60867 L627.92969 196.96239 L628.90625 173.70505 L629.88281 154.93355 L630.85938 175.22728 L631.83594 199.99992 L632.81250 176.14905 L633.78906 112.93164 L634.76563 78.42638 L635.74219 112.93432 L636.71875 176.15134 L637.69531 199.99966 L638.67188 175.22740 L639.64844 154.93352 L640.62500 173.70644 L641.60156 196.96259 L642.57813 171.60887 L643.55469 106.90583 L644.53125 70.93729 L645.50781 104.01449 L646.48438 165.83144 L647.46094 188.32440 L648.43750 162.24065 L649.41406 140.68845 L650.39063 158.25772 L651.36719 180.37238 L652.34375 153.94073 L653.32031 88.23060 L654.29688 51.33067 L655.27344 83.55087 L656.25000 144.59554 L657.22656 166.39592 L658.20313 139.70807 L659.17969 117.63949 L660.15625 134.78493 L661.13281 156.56644 L662.10938 129.89780 L663.08594 64.04456 L664.06250 27.09557 L665.03906 59.36235 L666.01563 120.55048 L666.99219 142.58995 L667.96875 116.23345 L668.94531 94.59056 L669.92188 112.25107 L670.89844 134.63805 L671.87500 108.65896 L672.85156 43.58347 L673.82813 7.48900 L674.80469 40.69067 L675.78125 102.88538 L676.75781 126.00004 L677.73438 100.78613 L678.71094 80.34558 L679.68750 99.26622 L680.66406 122.96264 L681.64063 98.34127 L682.61719 34.66025 L683.59375 0.00000 L684.57031 34.66247 L685.54688 98.34319 L686.52344 122.96248 L687.50000 99.26511 L688.47656 80.34564 L689.45313 100.78736 L690.42969 126.00033 L691.40625 102.88360 L692.38281 40.68858 L693.35938 7.48912 L694.33594 43.58580 L695.31250 108.66099 L696.28906 134.63800 L697.26563 112.25006 L698.24219 94.59073 L699.21875 116.23479 L700.19531 142.59033 L701.17188 120.54878 L702.14844 59.36035 L703.12500 27.09576 L704.10156 64.04683 L705.07813 129.89973 L706.05469 156.56630 L707.03125 134.78381 L708.00781 117.63955 L708.98438 139.70929 L709.96094 166.39618 L710.93750 144.59370 L711.91406 83.54872 L712.89063 51.33072 L713.86719 88.23584 L714.84375 153.94267 L715.82031 180.37222 L716.79688 158.25661 L717.77344 140.68849 L718.75000 162.24185 L719.72656 188.32463 L720.70313 165.82959 L721.67969 104.01233 L722.65625 70.93732 L723.63281 106.90807 L724.60938 171.61078 L725.58594 196.96240 L726.56250 173.70529 L727.53906 154.93353 L728.51563 175.22859 L729.49219 199.99986 L730.46875 176.14946 L731.44531 112.93212 L732.42188 78.42638 L733.39844 112.93385 L734.37500 176.15092 L735.35156 199.99971 L736.32813 175.22610 L737.30469 154.93353 L738.28125 173.70619 L739.25781 196.96257 L740.23438 171.60677 L741.21094 106.90633 L742.18750 70.93732 L743.16406 104.01405 L744.14063 165.83360 L745.11719 188.32446 L746.09375 162.24094 L747.07031 140.68849 L748.04688 158.25908 L749.02344 180.37238 L750.00000 153.94119 L750.97656 88.23112 L751.95313 51.33071 L752.92969 83.55043 L753.90625 144.59517 L754.88281 166.39574 L755.85938 139.70837 L756.83594 117.63954 L757.81250 134.78471 L758.78906 156.56671 L759.76563 129.89825 L760.74219 64.04509 L761.71875 27.09561 L762.69531 59.36490 L763.67188 120.55011 L764.64844 142.59003 L765.62500 116.23375 L766.60156 94.59061 L767.57813 112.25085 L768.55469 134.63803 L769.53125 108.65940 L770.50781 43.58100 L771.48438 7.48903 L772.46094 40.69022 L773.43750 102.88499 L774.41406 125.99983 L775.39063 100.78639 L776.36719 80.34560 L777.34375 99.26598 L778.32031 122.96288 L779.29688 98.34169 L780.27344 34.66073 L781.25000 0.00000 L782.22656 34.66198 L783.20313 98.34277 L784.17969 122.96252 L785.15625 99.26378 L786.13281 80.34563 L787.10938 100.78709 L788.08594 126.00026 L789.06250 102.88144 L790.03906 40.68904 L791.01563 7.48909 L791.99219 43.58529 L792.96875 108.66309 L793.94531 134.63800 L794.92188 112.25028 L795.89844 94.59069 L796.87500 116.23607 L797.85156 142.59024 L798.82813 120.54661 L799.80469 59.36078 L800.78125 27.09571 L801.75781 64.04942 L802.73438 129.89943 L803.71094 156.56671 L804.68750 134.78259 L805.66406 117.63965 L806.64063 139.71071 L807.61719 166.39622 L808.59375 144.59421 L809.57031 83.54632 L810.54688 51.33081 L811.52344 88.23248 L812.50000 153.94490 L813.47656 180.37236 L814.45313 158.25851 L815.42969 140.68858 L816.40625 162.24168 L817.38281 188.32494 L818.35938 165.83008 L819.33594 104.01287 L820.31250 70.93738 L821.28906 106.90764 L822.26563 171.60788 L823.24219 196.96222 L824.21875 173.70558 L825.19531 154.93356 L826.17188 175.22836 L827.14844 199.99985 L828.12500 176.14734 L829.10156 112.93261 L830.07813 78.42638 L831.05469 112.93634 L832.03125 176.15051 L833.00781 199.99947 L833.98438 175.22633 L834.96094 154.93350 L835.93750 173.70747 L836.91406 196.96248 L837.89063 171.60966 L838.86719 106.90379 L839.84375 70.93726 L840.82031 104.01648 L841.79688 165.83313 L842.77344 188.32445 L843.75000 162.23955 L844.72656 140.68842 L845.70313 158.25717 L846.67969 180.37251 L847.65625 153.94151 L848.63281 88.23449 L849.60938 51.33061 L850.58594 83.54985 L851.56250 144.59720 L852.53906 166.39569 L853.51563 139.70853 L854.49219 117.63944 L855.46875 134.78436 L856.44531 156.56630 L857.42188 129.89603 L858.39844 64.04548 L859.37500 27.09566 L860.35156 59.36447 L861.32813 120.54974 L862.30469 142.58984 L863.28125 116.23405 L864.25781 94.59064 L865.23438 112.25220 L866.21094 134.63803 L867.18750 108.65730 L868.16406 43.58151 L869.14063 7.48906 L870.11719 40.69274 L871.09375 102.88461 L872.07031 126.00017 L873.04688 100.78510 L874.02344 80.34561 L875.00000 99.26416 L875.97656 122.96284 L876.95313 98.34211 L877.92969 34.65825 L878.90625 0.00000 L879.88281 34.66150 L880.85938 98.34489 L881.83594 122.96255 L882.81250 99.26559 L883.78906 80.34561 L884.76563 100.78682 L885.74219 126.00047 L886.71875 102.88183 L887.69531 40.68949 L888.67188 7.48906 L889.64844 43.58478 L890.62500 108.66010 L891.60156 134.63774 L892.57813 112.25050 L893.55469 94.59065 L894.53125 116.23578 L895.50781 142.59015 L896.48438 120.54697 L897.46094 59.36121 L898.43750 27.09567 L899.41406 64.04889 L900.39063 129.89896 L901.36719 156.56616 L902.34375 134.78281 L903.32031 117.63960 L904.29688 139.71040 L905.27344 166.39613 L906.25000 144.59457 L907.22656 83.54675 L908.20313 51.33077 L909.17969 88.23195 L910.15625 153.94444 L911.13281 180.37236 L912.10938 158.25558 L913.08594 140.68854 L914.06250 162.24139 L915.03906 188.32486 L916.01563 165.83046 L916.99219 104.01332 L917.96875 70.93736 L918.94531 106.90713 L919.92188 171.61253 L920.89844 196.96225 L921.87500 173.70583 L922.85156 154.93355 L923.82813 175.22809 L924.80469 199.99980 L925.78125 176.14774 L926.75781 112.93309 L927.73438 78.42638 L928.71094 112.93586 L929.68750 176.15010 L930.66406 199.99953 L931.64063 175.22659 L932.61719 154.93352 L933.59375 173.70724 L934.57031 196.96245 L935.54688 171.60501 L936.52344 106.90429 L937.50000 70.93729 L938.47656 104.01603 L939.45313 165.83275 L940.42969 188.32452 L941.40625 162.23984 L942.38281 140.68845 L943.35938 158.25696 L944.33594 180.37251 L945.31250 153.94196 L946.28906 88.22906 L947.26563 51.33066 L948.24219 83.54942 L949.21875 144.59683 L950.19531 166.39578 L951.17188 139.70883 L952.14844 117.63949 L953.12500 134.78416 L954.10156 156.56683 L955.07813 129.89648 L956.05469 64.04601 L957.03125 27.09557 L958.00781 59.36389 L958.98438 120.54925 L959.96094 142.58981 L960.93750 116.23421 L961.91406 94.59056 L962.89063 112.25188 L963.86719 134.63791 L964.84375 108.65765 L965.82031 43.58193 L966.79688 7.48900 L967.77344 40.69221 L968.75000 102.88415 L969.72656 126.00017 L970.70313 100.78531 L971.67969 80.34558 L972.65625 99.26703 L973.63281 122.96278 L974.60938 98.34251 L975.58594 34.65871 L976.56250 0.00000 L977.53906 34.66102 L978.51563 98.34449 L979.49219 122.96261 L980.46875 99.26273 L981.44531 80.34564 L982.42188 100.78661 L983.39844 126.00047 L984.37500 102.88229 L985.35156 40.69002 L986.32813 7.48912 L987.30469 43.58436 L988.28125 108.66484 L989.25781 134.63786 L990.23438 112.25082 L991.21094 94.59074 L992.18750 116.23560 L993.16406 142.59019 L994.14063 120.54748 L995.11719 59.36165 L996.09375 27.09577 L997.07031 64.04836 L998.04688 129.89865 L999.02344 156.56615" /><path fill="none" stroke="#000000" d="M0 300.00000  L0.00000 300.00000  L0.97656 300.00000  L1.95313 300.00000  L2.92969 300.00000  L3.90625 300.00000  L4.88281 300.00000  L5.85938 300.00000  L6.83594 300.00000  L7.81250 300.00000  L8.78906 300.00000  L9.76563 300.00000  L10.74219 300.00000  L11.71875 300.00000  L12.69531 300.00000  L13.67188 300.00000  L14.64844 300.00000  L15.62500 300.00000  L16.60156 300.00000  L17.57813 300.00000  L18.55469 300.00000  L19.53125 300.00000  L20.50781 300.00000  L21.48438 300.00000  L22.46094 300.00000  L23.43750 300.00000  L24.41406 300.00000  L25.39063 300.00000  L26.36719 300.00000  L27.34375 300.00000  L28.32031 300.00000  L29.29688 300.00000  L30.27344 300.00000  L31.25000 300.00000  L32.22656 300.00000  L33.20313 300.00000  L34.17969 300.00000  L35.15625 300.00000  L36.13281 300.00000  L37.10938 300.00000  L38.08594 300.00000  L39.06250 300.00000  L40.03906 300.00000  L41.01563 300.00000  L41.99219 300.00000  L42.96875 300.00000  L43.94531 300.00000  L44.92188 300.00000  L45.89844 300.00000  L46.87500 300.00000  L47.85156 300.00000  L48.82813 300.00000  L49.80469 300.00000  L50.78125 300.00000  L51.75781 300.00000  L52.73438 300.00000  L53.71094 300.00000  L54.68750 300.00000  L55.66406 300.00000  L56.64063 300.00000  L57.61719 300.00000  L58.59375 300.00000  L59.57031 300.00000  L60.54688 300.00000  L61.52344 300.00000  L62.50000 300.00000  L63.47656 300.00000  L64.45313 300.00000  L65.42969 300.00000  L66.40625 300.00000  L67.38281 300.00000  L68.35938 300.00000  L69.33594 300.00000  L70.31250 300.00000  L71.28906 300.00000  L72.26563 300.00000  L73.24219 300.00000  L74.21875 300.00000  L75.19531 300.00000  L76.17188 300.00000  L77.14844 300.00000  L78.12500 300.00000  L79.10156 300.00000  L80.07813 300.00000  L81.05469 300.00000  L82.03125 300.00000  L83.00781 300.00000  L83.98438 300.00000  L84.96094 300.00000  L85.93750 300.00000  L86.91406 300.00000  L87.89063 300.00000  L88.86719 300.00000  L89.84375 300.00000  L90.82031 300.00000  L91.79688 300.00000  L92.77344 300.00000  L93.75000 300.00000  L94.72656 300.00000  L95.70313 300.00000  L96.67969 300.00000  L97.65625 300.00000  L98.63281 300.00000  L99.60938 300.00000  L100.58594 300.00000  L101.56250 300.00000  L102.53906 300.00000  L103.51563 300.00000  L104.49219 300.00000  L105.46875 300.00000  L106.44531 300.00000  L107.42188 300.00000  L108.39844 300.00000  L109.37500 300.00000  L110.35156 300.00000  L111.32813 300.00000  L112.30469 300.00000  L113.28125 300.00000  L114.25781 300.00000  L115.23438 300.00000  L116.21094 300.00000  L117.18750 300.00000  L118.16406 300.00000  L119.14063 300.00000  L120.11719 300.00000  L121.09375 300.00000  L122.07031 300.00000  L123.04688 300.00000  L124.02344 300.00000  L125.00000 300.00000  L125.97656 300.00000  L126.95313 300.00000  L127.92969 300.00000  L128.90625 300.00000  L129.88281 300.00000  L130.85938 300.00000  L131.83594 300.00000  L132.81250 300.00000  L133.78906 300.00000  L134.76563 300.00000  L135.74219 300.00000  L136.71875 300.00000  L137.69531 300.00000  L138.67188 300.00000  L139.64844 300.00000  L140.62500 300.00000  L141.60156 300.00000  L142.57813 300.00000  L143.55469 300.00000  L144.53125 300.00000  L145.50781 300.00000  L146.48438 300.00000  L147.46094 300.00000  L148.43750 300.00000  L149.41406 300.00000  L150.39063 300.00000  L151.36719 300.00000  L152.34375 300.00000  L153.32031 300.00000  L154.29688 300.00000  L155.27344 300.00000  L156.25000 300.00000  L157.22656 300.00000  L158.20313 300.00000  L159.17969 300.00000  L160.15625 300.00000  L161.13281 300.00000  L162.10938 300.00000  L163.08594 300.00000  L164.06250 300.00000  L165.03906 300.00000  L166.01563 300.00000  L166.99219 300.00000  L167.96875 300.00000  L168.94531 300.00000  L169.92188 300.00000  L170.89844 300.00000  L171.87500 300.00000  L172.85156 300.00000  L173.82813 300.00000  L174.80469 300.00000  L175.78125 300.00000  L176.75781 300.00000  L177.73438 300.00000  L178.71094 300.00000  L179.68750 300.00000  L180.66406 300.00000  L181.64063 300.00000  L182.61719 300.00000  L183.59375 300.00000  L184.57031 300.00000  L185.54688 300.00000  L186.52344 300.00000  L187.50000 300.00000  L188.47656 300.00000  L189.45313 300.00000  L190.42969 300.00000  L191.40625 300.00000  L192.38281 300.00000  L193.35938 300.00000  L194.33594 300.00000  L195.31250 300.00000  L196.28906 300.00000  L197.26563 300.00000  L198.24219 300.00000  L199.21875 300.00000  L200.19531 300.00000  L201.17188 300.00000  L202.14844 300.00000  L203.12500 300.00000  L204.10156 300.00000  L205.07813 300.00000  L206.05469 300.00000  L207.03125 300.00000  L208.00781 300.00000  L208.98438 300.00000  L209.96094 300.00000  L210.93750 300.00000  L211.91406 300.00000  L212.89063 300.00000  L213.86719 300.00000  L214.84375 300.00000  L215.82031 300.00000  L216.79688 300.00000  L217.77344 300.00000  L218.75000 300.00000  L219.72656 300.00000  L220.70313 300.00000  L221.67969 300.00000  L222.65625 300.00000  L223.63281 300.00000  L224.60938 300.00000  L225.58594 300.00000  L226.56250 300.00000  L227.53906 300.00000  L228.51563 300.00000  L229.49219 300.00000  L230.46875 300.00000  L231.44531 300.00000  L232.42188 300.00000  L233.39844 300.00000  L234.37500 300.00000  L235.35156 300.00000  L236.32813 300.00000  L237.30469 300.00000  L238.28125 300.00000  L239.25781 300.00000  L240.23438 300.00000  L241.21094 300.00000  L242.18750 300.00000  L243.16406 300.00000  L244.14063 300.00000  L245.11719 300.00000  L246.09375 300.00000  L247.07031 300.00000  L248.04688 300.00000  L249.02344 300.00000  L250.00000 300.00000  L250.97656 300.00000  L251.95313 300.00000  L252.92969 300.00000  L253.90625 300.00000  L254.88281 300.00000  L255.85938 300.00000  L256.83594 300.00000  L257.81250 300.00000  L258.78906 300.00000  L259.76563 300.00000  L260.74219 300.00000  L261.71875 300.00000  L262.69531 300.00000  L263.67188 300.00000  L264.64844 300.00000  L265.62500 300.00000  L266.60156 300.00000  L267.57813 300.00000  L268.55469 300.00000  L269.53125 300.00000  L270.50781 300.00000  L271.48438 300.00000  L272.46094 300.00000  L273.43750 300.00000  L274.41406 300.00000  L275.39063 300.00000  L276.36719 300.00000  L277.34375 300.00000  L278.32031 300.00000  L279.29688 300.00000  L280.27344 300.00000  L281.25000 300.00000  L282.22656 300.00000  L283.20313 300.00000  L284.17969 300.00000  L285.15625 300.00000  L286.13281 300.00000  L287.10938 300.00000  L288.08594 300.00000  L289.06250 300.00000  L290.03906 300.00000  L291.01563 300.00000  L291.99219 300.00000  L292.96875 300.00000  L293.94531 300.00000  L294.92188 300.00000  L295.89844 300.00000  L296.87500 300.00000  L297.85156 300.00000  L298.82813 300.00000  L299.80469 300.00000  L300.78125 300.00000  L301.75781 300.00000  L302.73438 300.00000  L303.71094 300.00000  L304.68750 300.00000  L305.66406 300.00000  L306.64063 300.00000  L307.61719 300.00000  L308.59375 300.00000  L309.57031 300.00000  L310.54688 300.00000  L311.52344 300.00000  L312.50000 300.00000  L313.47656 300.00000  L314.45313 300.00000  L315.42969 300.00000  L316.40625 300.00000  L317.38281 300.00000  L318.35938 300.00000  L319.33594 300.00000  L320.31250 300.00000  L321.28906 300.00000  L322.26563 300.00000  L323.24219 300.00000  L324.21875 300.00000  L325.19531 300.00000  L326.17188 300.00000  L327.14844 300.00000  L328.12500 300.00000  L329.10156 300.00000  L330.07813 300.00000  L331.05469 300.00000  L332.03125 300.00000  L333.00781 300.00000  L333.98438 300.00000  L334.96094 300.00000  L335.93750 300.00000  L336.91406 300.00000  L337.89063 300.00000  L338.86719 300.00000  L339.84375 300.00000  L340.82031 300.00000  L341.79688 300.00000  L342.77344 300.00000  L343.75000 300.00000  L344.72656 300.00000  L345.70313 300.00000  L346.67969 300.00000  L347.65625 300.00000  L348.63281 300.00000  L349.60938 300.00000  L350.58594 300.00000  L351.56250 300.00000  L352.53906 300.00000  L353.51563 300.00000  L354.49219 300.00000  L355.46875 300.00000  L356.44531 300.00000  L357.42188 300.00000  L358.39844 300.00000  L359.37500 300.00000  L360.35156 300.00000  L361.32813 300.00000  L362.30469 300.00000  L363.28125 300.00000  L364.25781 300.00000  L365.23438 300.00000  L366.21094 300.00000  L367.18750 300.00000  L368.16406 300.00000  L369.14063 300.00000  L370.11719 300.00000  L371.09375 300.00000  L372.07031 300.00000  L373.04688 300.00000  L374.02344 300.00000  L375.00000 300.00000  L375.97656 300.00000  L376.95313 300.00000  L377.92969 300.00000  L378.90625 300.00000  L379.88281 300.00000  L380.85938 300.00000  L381.83594 300.00000  L382.81250 300.00000  L383.78906 300.00000  L384.76563 300.00000  L385.74219 300.00000  L386.71875 300.00000  L387.69531 300.00000  L388.67188 300.00000  L389.64844 300.00000  L390.62500 300.00000  L391.60156 300.00000  L392.57813 300.00000  L393.55469 300.00000  L394.53125 300.00000  L395.50781 300.00000  L396.48438 300.00000  L397.46094 300.00000  L398.43750 300.00000  L399.41406 300.00000  L400.39063 300.00000  L401.36719 300.00000  L402.34375 300.00000  L403.32031 300.00000  L404.29688 300.00000  L405.27344 300.00000  L406.25000 300.00000  L407.22656 300.00000  L408.20313 300.00000  L409.17969 300.00000  L410.15625 300.00000  L411.13281 300.00000  L412.10938 300.00000  L413.08594 300.00000  L414.06250 300.00000  L415.03906 300.00000  L416.01563 300.00000  L416.99219 300.00000  L417.96875 300.00000  L418.94531 300.00000  L419.92188 300.00000  L420.89844 300.00000  L421.87500 300.00000  L422.85156 300.00000  L423.82813 300.00000  L424.80469 300.00000  L425.78125 300.00000  L426.75781 300.00000  L427.73438 300.00000  L428.71094 300.00000  L429.68750 300.00000  L430.66406 300.00000  L431.64063 300.00000  L432.61719 300.00000  L433.59375 300.00000  L434.57031 300.00000  L435.54688 300.00000  L436.52344 300.00000  L437.50000 300.00000  L438.47656 300.00000  L439.45313 300.00000  L440.42969 300.00000  L441.40625 300.00000  L442.38281 300.00000  L443.35938 300.00000  L444.33594 300.00000  L445.31250 300.00000  L446.28906 300.00000  L447.26563 300.00000  L448.24219 300.00000  L449.21875 300.00000  L450.19531 300.00000  L451.17188 300.00000  L452.14844 300.00000  L453.12500 300.00000  L454.10156 300.00000  L455.07813 300.00000  L456.05469 300.00000  L457.03125 300.00000  L458.00781 300.00000  L458.98438 300.00000  L459.96094 300.00000  L460.93750 300.00000  L461.91406 300.00000  L462.89063 300.00000  L463.86719 300.00000  L464.84375 300.00000  L465.82031 300.00000  L466.79688 300.00000  L467.77344 300.00000  L468.75000 300.00000  L469.72656 300.00000  L470.70313 300.00000  L471.67969 300.00000  L472.65625 300.00000  L473.63281 300.00000  L474.60938 300.00000  L475.58594 300.00000  L476.56250 300.00000  L477.53906 300.00000  L478.51563 300.00000  L479.49219 300.00000  L480.46875 300.00000  L481.44531 300.00000  L482.42188 300.00000  L483.39844 300.00000  L484.37500 300.00000  L485.35156 300.00000  L486.32813 300.00000  L487.30469 300.00000  L488.28125 300.00000  L489.25781 300.00000  L490.23438 300.00000  L491.21094 300.00000  L492.18750 300.00000  L493.16406 300.00000  L494.14063 300.00000  L495.11719 300.00000  L496.09375 300.00000  L497.07031 300.00000  L498.04688 300.00000  L499.02344 300.00000  L500.00000 300.00000  L500.97656 300.00000  L501.95313 300.00000  L502.92969 300.00000  L503.90625 300.00000  L504.88281 300.00000  L505.85938 300.00000  L506.83594 300.00000  L507.81250 300.00000  L508.78906 300.00000  L509.76563 300.00000  L510.74219 300.00000  L511.71875 300.00000  L512.69531 300.00000  L513.67188 300.00000  L514.64844 300.00000  L515.62500 300.00000  L516.60156 300.00000  L517.57813 300.00000  L518.55469 300.00000  L519.53125 300.00000  L520.50781 300.00000  L521.48438 300.00000  L522.46094 300.00000  L523.43750 300.00000  L524.41406 300.00000  L525.39063 300.00000  L526.36719 300.00000  L527.34375 300.00000  L528.32031 300.00000  L529.29688 300.00000  L530.27344 300.00000  L531.25000 300.00000  L532.22656 300.00000  L533.20313 300.00000  L534.17969 300.00000  L535.15625 300.00000  L536.13281 300.00000  L537.10938 300.00000  L538.08594 300.00000  L539.06250 300.00000  L540.03906 300.00000  L541.01563 300.00000  L541.99219 300.00000  L542.96875 300.00000  L543.94531 300.00000  L544.92188 300.00000  L545.89844 300.00000  L546.87500 300.00000  L547.85156 300.00000  L548.82813 300.00000  L549.80469 300.00000  L550.78125 300.00000  L551.75781 300.00000  L552.73438 300.00000  L553.71094 300.00000  L554.68750 300.00000  L555.66406 300.00000  L556.64063 300.00000  L557.61719 300.00000  L558.59375 300.00000  L559.57031 300.00000  L560.54688 300.00000  L561.52344 300.00000  L562.50000 300.00000  L563.47656 300.00000  L564.45313 300.00000  L565.42969 300.00000  L566.40625 300.00000  L567.38281 300.00000  L568.35938 300.00000  L569.33594 300.00000  L570.31250 300.00000  L571.28906 300.00000  L572.26563 300.00000  L573.24219 300.00000  L574.21875 300.00000  L575.19531 300.00000  L576.17188 300.00000  L577.14844 300.00000  L578.12500 300.00000  L579.10156 300.00000  L580.07813 300.00000  L581.05469 300.00000  L582.03125 300.00000  L583.00781 300.00000  L583.98438 300.00000  L584.96094 300.00000  L585.93750 300.00000  L586.91406 300.00000  L587.89063 300.00000  L588.86719 300.00000  L589.84375 300.00000  L590.82031 300.00000  L591.79688 300.00000  L592.77344 300.00000  L593.75000 300.00000  L594.72656 300.00000  L595.70313 300.00000  L596.67969 300.00000  L597.65625 300.00000  L598.63281 300.00000  L599.60938 300.00000  L600.58594 300.00000  L601.56250 300.00000  L602.53906 300.00000  L603.51563 300.00000  L604.49219 300.00000  L605.46875 300.00000  L606.44531 300.00000  L607.42188 300.00000  L608.39844 300.00000  L609.37500 300.00000  L610.35156 300.00000  L611.32813 300.00000  L612.30469 300.00000  L613.28125 300.00000  L614.25781 300.00000  L615.23438 300.00000  L616.21094 300.00000  L617.18750 300.00000  L618.16406 300.00000  L619.14063 300.00000  L620.11719 300.00000  L621.09375 300.00000  L622.07031 300.00000  L623.04688 300.00000  L624.02344 300.00000  L625.00000 300.00000  L625.97656 300.00000  L626.95313 300.00000  L627.92969 300.00000  L628.90625 300.00000  L629.88281 300.00000  L630.85938 300.00000  L631.83594 300.00000  L632.81250 300.00000  L633.78906 300.00000  L634.76563 300.00000  L635.74219 300.00000  L636.71875 300.00000  L637.69531 300.00000  L638.67188 300.00000  L639.64844 300.00000  L640.62500 300.00000  L641.60156 300.00000  L642.57813 300.00000  L643.55469 300.00000  L644.53125 300.00000  L645.50781 300.00000  L646.48438 300.00000  L647.46094 300.00000  L648.43750 300.00000  L649.41406 300.00000  L650.39063 300.00000  L651.36719 300.00000  L652.34375 300.00000  L653.32031 300.00000  L654.29688 300.00000  L655.27344 300.00000  L656.25000 300.00000  L657.22656 300.00000  L658.20313 300.00000  L659.17969 300.00000  L660.15625 300.00000  L661.13281 300.00000  L662.10938 300.00000  L663.08594 300.00000  L664.06250 300.00000  L665.03906 300.00000  L666.01563 300.00000  L666.99219 300.00000  L667.96875 300.00000  L668.94531 300.00000  L669.92188 300.00000  L670.89844 300.00000  L671.87500 300.00000  L672.85156 300.00000  L673.82813 300.00000  L674.80469 300.00000  L675.78125 300.00000  L676.75781 300.00000  L677.73438 300.00000  L678.71094 300.00000  L679.68750 300.00000  L680.66406 300.00000  L681.64063 300.00000  L682.61719 300.00000  L683.59375 300.00000  L684.57031 300.00000  L685.54688 300.00000  L686.52344 300.00000  L687.50000 300.00000  L688.47656 300.00000  L689.45313 300.00000  L690.42969 300.00000  L691.40625 300.00000  L692.38281 300.00000  L693.35938 300.00000  L694.33594 300.00000  L695.31250 300.00000  L696.28906 300.00000  L697.26563 300.00000  L698.24219 300.00000  L699.21875 300.00000  L700.19531 300.00000  L701.17188 300.00000  L702.14844 300.00000  L703.12500 300.00000  L704.10156 300.00000  L705.07813 300.00000  L706.05469 300.00000  L707.03125 300.00000  L708.00781 300.00000  L708.98438 300.00000  L709.96094 300.00000  L710.93750 300.00000  L711.91406 300.00000  L712.89063 300.00000  L713.86719 300.00000  L714.84375 300.00000  L715.82031 300.00000  L716.79688 300.00000  L717.77344 300.00000  L718.75000 300.00000  L719.72656 300.00000  L720.70313 300.00000  L721.67969 300.00000  L722.65625 300.00000  L723.63281 300.00000  L724.60938 300.00000  L725.58594 300.00000  L726.56250 300.00000  L727.53906 300.00000  L728.51563 300.00000  L729.49219 300.00000  L730.46875 300.00000  L731.44531 300.00000  L732.42188 300.00000  L733.39844 300.00000  L734.37500 300.00000  L735.35156 300.00000  L736.32813 300.00000  L737.30469 300.00000  L738.28125 300.00000  L739.25781 300.00000  L740.23438 300.00000  L741.21094 300.00000  L742.18750 300.00000  L743.16406 300.00000  L744.14063 300.00000  L745.11719 300.00000  L746.09375 300.00000  L747.07031 300.00000  L748.04688 300.00000  L749.02344 300.00000  L750.00000 300.00000  L750.97656 300.00000  L751.95313 300.00000  L752.92969 300.00000  L753.90625 300.00000  L754.88281 300.00000  L755.85938 300.00000  L756.83594 300.00000  L757.81250 300.00000  L758.78906 300.00000  L759.76563 300.00000  L760.74219 300.00000  L761.71875 300.00000  L762.69531 300.00000  L763.67188 300.00000  L764.64844 300.00000  L765.62500 300.00000  L766.60156 300.00000  L767.57813 300.00000  L768.55469 300.00000  L769.53125 300.00000  L770.50781 300.00000  L771.48438 300.00000  L772.46094 300.00000  L773.43750 300.00000  L774.41406 300.00000  L775.39063 300.00000  L776.36719 300.00000  L777.34375 300.00000  L778.32031 300.00000  L779.29688 300.00000  L780.27344 300.00000  L781.25000 300.00000  L782.22656 300.00000  L783.20313 300.00000  L784.17969 300.00000  L785.15625 300.00000  L786.13281 300.00000  L787.10938 300.00000  L788.08594 300.00000  L789.06250 300.00000  L790.03906 300.00000  L791.01563 300.00000  L791.99219 300.00000  L792.96875 300.00000  L793.94531 300.00000  L794.92188 300.00000  L795.89844 300.00000  L796.87500 300.00000  L797.85156 300.00000  L798.82813 300.00000  L799.80469 300.00000  L800.78125 300.00000  L801.75781 300.00000  L802.73438 300.00000  L803.71094 300.00000  L804.68750 300.00000  L805.66406 300.00000  L806.64063 300.00000  L807.61719 300.00000  L808.59375 300.00000  L809.57031 300.00000  L810.54688 300.00000  L811.52344 300.00000  L812.50000 300.00000  L813.47656 300.00000  L814.45313 300.00000  L815.42969 300.00000  L816.40625 300.00000  L817.38281 300.00000  L818.35938 300.00000  L819.33594 300.00000  L820.31250 300.00000  L821.28906 300.00000  L822.26563 300.00000  L823.24219 300.00000  L824.21875 300.00000  L825.19531 300.00000  L826.17188 300.00000  L827.14844 300.00000  L828.12500 300.00000  L829.10156 300.00000  L830.07813 300.00000  L831.05469 300.00000  L832.03125 300.00000  L833.00781 300.00000  L833.98438 300.00000  L834.96094 300.00000  L835.93750 300.00000  L836.91406 300.00000  L837.89063 300.00000  L838.86719 300.00000  L839.84375 300.00000  L840.82031 300.00000  L841.79688 300.00000  L842.77344 300.00000  L843.75000 300.00000  L844.72656 300.00000  L845.70313 300.00000  L846.67969 300.00000  L847.65625 300.00000  L848.63281 300.00000  L849.60938 300.00000  L850.58594 300.00000  L851.56250 300.00000  L852.53906 300.00000  L853.51563 300.00000  L854.49219 300.00000  L855.46875 300.00000  L856.44531 300.00000  L857.42188 300.00000  L858.39844 300.00000  L859.37500 300.00000  L860.35156 300.00000  L861.32813 300.00000  L862.30469 300.00000  L863.28125 300.00000  L864.25781 300.00000  L865.23438 300.00000  L866.21094 300.00000  L867.18750 300.00000  L868.16406 300.00000  L869.14063 300.00000  L870.11719 300.00000  L871.09375 300.00000  L872.07031 300.00000  L873.04688 300.00000  L874.02344 300.00000  L875.00000 300.00000  L875.97656 300.00000  L876.95313 300.00000  L877.92969 300.00000  L878.90625 300.00000  L879.88281 300.00000  L880.85938 300.00000  L881.83594 300.00000  L882.81250 300.00000  L883.78906 300.00000  L884.76563 300.00000  L885.74219 300.00000  L886.71875 300.00000  L887.69531 300.00000  L888.67188 300.00000  L889.64844 300.00000  L890.62500 300.00000  L891.60156 300.00000  L892.57813 300.00000  L893.55469 300.00000  L894.53125 300.00000  L895.50781 300.00000  L896.48438 300.00000  L897.46094 300.00000  L898.43750 300.00000  L899.41406 300.00000  L900.39063 300.00000  L901.36719 300.00000  L902.34375 300.00000  L903.32031 300.00000  L904.29688 300.00000  L905.27344 300.00000  L906.25000 300.00000  L907.22656 300.00000  L908.20313 300.00000  L909.17969 300.00000  L910.15625 300.00000  L911.13281 300.00000  L912.10938 300.00000  L913.08594 300.00000  L914.06250 300.00000  L915.03906 300.00000  L916.01563 300.00000  L916.99219 300.00000  L917.96875 300.00000  L918.94531 300.00000  L919.92188 300.00000  L920.89844 300.00000  L921.87500 300.00000  L922.85156 300.00000  L923.82813 300.00000  L924.80469 300.00000  L925.78125 300.00000  L926.75781 300.00000  L927.73438 300.00000  L928.71094 300.00000  L929.68750 300.00000  L930.66406 300.00000  L931.64063 300.00000  L932.61719 300.00000  L933.59375 300.00000  L934.57031 300.00000  L935.54688 300.00000  L936.52344 300.00000  L937.50000 300.00000  L938.47656 300.00000  L939.45313 300.00000  L940.42969 300.00000  L941.40625 300.00000  L942.38281 300.00000  L943.35938 300.00000  L944.33594 300.00000  L945.31250 300.00000  L946.28906 300.00000  L947.26563 300.00000  L948.24219 300.00000  L949.21875 300.00000  L950.19531 300.00000  L951.17188 300.00000  L952.14844 300.00000  L953.12500 300.00000  L954.10156 300.00000  L955.07813 300.00000  L956.05469 300.00000  L957.03125 300.00000  L958.00781 300.00000  L958.98438 300.00000  L959.96094 300.00000  L960.93750 300.00000  L961.91406 300.00000  L962.89063 300.00000  L963.86719 300.00000  L964.84375 300.00000  L965.82031 300.00000  L966.79688 300.00000  L967.77344 300.00000  L968.75000 300.00000  L969.72656 300.00000  L970.70313 300.00000  L971.67969 300.00000  L972.65625 300.00000  L973.63281 300.00000  L974.60938 300.00000  L975.58594 300.00000  L976.56250 300.00000  L977.53906 300.00000  L978.51563 300.00000  L979.49219 300.00000  L980.46875 300.00000  L981.44531 300.00000  L982.42188 300.00000  L983.39844 300.00000  L984.37500 300.00000  L985.35156 300.00000  L986.32813 300.00000  L987.30469 300.00000  L988.28125 300.00000  L989.25781 300.00000  L990.23438 300.00000  L991.21094 300.00000  L992.18750 300.00000  L993.16406 300.00000  L994.14063 300.00000  L995.11719 300.00000  L996.09375 300.00000  L997.07031 300.00000  L998.04688 300.00000  L999.02344 300.00000 " /></g><text x="1000.00000" dx="10" y="117.63957">[-2.10032;3.00000]</text><text x="1000.00000" dx="10" y="300.00000">[-0.00000;0.00000]</text></svg>