<svg xmlns="http://www.w3.org/2000/svg" version="1.1"><g stroke-width="0.6"><path fill="none" stroke="#000000" d="M0 199.99857 L1000.00000 199.99857" /><path fill="none" stroke="#000000" d="M0 300.00000 L1000.00000 300.00000" /><path fill="none" stroke="#000000" d="M500.00000 0 L500.00000 400.00000" /><path fill="none" stroke="#000000" d="M0 199.99857  L0.00000 199.99847 L0.97656 199.99849 L1.95313 199.99861 L2.92969 199.99867 L3.90625 199.99872 L4.88281 199.99867 L5.85938 199.99858 L6.83594 199.99847 L7.81250 199.99867 L8.78906 199.99826 L9.76563 199.99846 L10.74219 199.99831 L11.71875 199.99863 L12.69531 199.99849 L13.67188 199.99849 L14.64844 199.99855 L15.62500 199.99870 L16.60156 199.99870 L17.57813 199.99852 L18.55469 199.99850 L19.53125 199.99831 L20.50781 199.99854 L21.48438 199.99832 L22.46094 199.99849 L23.43750 199.99858 L24.41406 199.99838 L25.39063 199.99869 L26.36719 199.99883 L27.34375 199.99866 L28.32031 199.99837 L29.29688 199.99844 L30.27344 199.99838 L31.25000 0.00010 L32.22656 199.99844 L33.20313 199.99858 L34.17969 199.99826 L35.15625 199.99867 L36.13281 199.99854 L37.10938 199.99850 L38.08594 199.99867 L39.06250 199.99821 L40.03906 199.99847 L41.01563 199.99858 L41.99219 199.99843 L42.96875 199.99849 L43.94531 199.99847 L44.92188 199.99857 L45.89844 199.99876 L46.87500 199.99852 L47.85156 199.99857 L48.82813 199.99847 L49.80469 199.99846 L50.78125 199.99863 L51.75781 199.99815 L52.73438 199.99841 L53.71094 199.99812 L54.68750 199.99876 L55.66406 199.99857 L56.64063 199.99847 L57.61719 199.99863 L58.59375 199.99841 L59.57031 199.99843 L60.54688 199.99840 L61.52344 199.99815 L62.50000 -0.00001 L63.47656 199.99887 L64.45313 199.99867 L65.42969 199.99878 L66.40625 199.99854 L67.38281 199.99841 L68.35938 199.99864 L69.33594 199.99890 L70.31250 199.99867 L71.28906 199.99854 L72.26563 199.99860 L73.24219 199.99854 L74.21875 199.99857 L75.19531 199.99873 L76.17188 199.99864 L77.14844 199.99863 L78.12500 199.99858 L79.10156 199.99857 L80.07813 199.99847 L81.05469 199.99857 L82.03125 199.99832 L83.00781 199.99866 L83.98438 199.99847 L84.96094 199.99850 L85.93750 199.99863 L86.91406 199.99850 L87.89063 199.99875 L88.86719 199.99931 L89.84375 199.99883 L90.82031 199.99825 L91.79688 199.99860 L92.77344 199.99838 L93.75000 199.99841 L94.72656 199.99860 L95.70313 199.99850 L96.67969 199.99858 L97.65625 199.99840 L98.63281 199.99825 L99.60938 199.99841 L100.58594 199.99869 L101.56250 199.99846 L102.53906 199.99860 L103.51563 199.99840 L104.49219 199.99864 L105.46875 199.99799 L106.44531 199.99870 L107.42188 199.99828 L108.39844 199.99847 L109.37500 199.99867 L110.35156 199.99834 L111.32813 199.99844 L112.30469 199.99835 L113.28125 199.99849 L114.25781 199.99849 L115.23438 199.99840 L116.21094 199.99846 L117.18750 199.99858 L118.16406 199.99849 L119.14063 199.99850 L120.11719 199.99832 L121.09375 199.99843 L122.07031 199.99835 L123.04688 199.99811 L124.02344 199.99777 L125.00000 0.00011 L125.97656 199.99919 L126.95313 199.99898 L127.92969 199.99889 L128.90625 199.99881 L129.88281 199.99872 L130.85938 199.99872 L131.83594 199.99866 L132.81250 199.99857 L133.78906 199.99878 L134.76563 199.99866 L135.74219 199.99870 L136.71875 199.99844 L137.69531 199.99869 L138.67188 199.99863 L139.64844 199.99838 L140.62500 199.99887 L141.60156 199.99902 L142.57813 199.99870 L143.55469 199.99855 L144.53125 199.99857 L145.50781 199.99860 L146.48438 199.99861 L147.46094 199.99864 L148.43750 199.99873 L149.41406 199.99857 L150.39063 199.99860 L151.36719 199.99861 L152.34375 199.99860 L153.32031 199.99844 L154.29688 199.99860 L155.27344 199.99840 L156.25000 199.99867 L157.22656 199.99854 L158.20313 199.99849 L159.17969 199.99878 L160.15625 199.99837 L161.13281 199.99779 L162.10938 199.99841 L163.08594 199.99875 L164.06250 199.99834 L165.03906 199.99855 L166.01563 199.99858 L166.99219 199.99847 L167.96875 199.99860 L168.94531 199.99847 L169.92188 199.99854 L170.89844 199.99844 L171.87500 199.99866 L172.85156 199.99867 L173.82813 199.99841 L174.80469 199.99844 L175.78125 199.99901 L176.75781 199.99774 L177.73438 199.99850 L178.71094 199.99782 L179.68750 199.99896 L180.66406 199.99852 L181.64063 199.99835 L182.61719 199.99872 L183.59375 199.99840 L184.57031 199.99846 L185.54688 199.99850 L186.52344 199.99849 L187.50000 199.99855 L188.47656 199.99857 L189.45313 199.99854 L190.42969 199.99870 L191.40625 199.99852 L192.38281 199.99846 L193.35938 199.99864 L194.33594 199.99860 L195.31250 199.99825 L196.28906 199.99892 L197.26563 199.99855 L198.24219 199.99892 L199.21875 199.99834 L200.19531 199.99866 L201.17188 199.99864 L202.14844 199.99858 L203.12500 199.99855 L204.10156 199.99852 L205.07813 199.99860 L206.05469 199.99852 L207.03125 199.99857 L208.00781 199.99854 L208.98438 199.99844 L209.96094 199.99861 L210.93750 199.99858 L211.91406 199.99823 L212.89063 199.99898 L213.86719 200.00000 L214.84375 199.99899 L215.82031 199.99820 L216.79688 199.99867 L217.77344 199.99854 L218.75000 199.99841 L219.72656 199.99878 L220.70313 199.99855 L221.67969 199.99850 L222.65625 199.99857 L223.63281 199.99849 L224.60938 199.99850 L225.58594 199.99861 L226.56250 199.99826 L227.53906 199.99858 L228.51563 199.99857 L229.49219 199.99841 L230.46875 199.99850 L231.44531 199.99860 L232.42188 199.99840 L233.39844 199.99832 L234.37500 199.99838 L235.35156 199.99849 L236.32813 199.99841 L237.30469 199.99831 L238.28125 199.99849 L239.25781 199.99843 L240.23438 199.99835 L241.21094 199.99850 L242.18750 199.99828 L243.16406 199.99840 L244.14063 199.99837 L245.11719 199.99832 L246.09375 199.99814 L247.07031 199.99814 L248.04688 199.99783 L249.02344 199.99715 L250.00000 0.00008 L250.97656 200.00000 L251.95313 199.99930 L252.92969 199.99898 L253.90625 199.99898 L254.88281 199.99878 L255.85938 199.99873 L256.83594 199.99869 L257.81250 199.99872 L258.78906 199.99869 L259.76563 199.99875 L260.74219 199.99864 L261.71875 199.99870 L262.69531 199.99876 L263.67188 199.99870 L264.64844 199.99863 L265.62500 199.99867 L266.60156 199.99858 L267.57813 199.99873 L268.55469 199.99850 L269.53125 199.99887 L270.50781 199.99860 L271.48438 199.99870 L272.46094 199.99864 L273.43750 199.99873 L274.41406 199.99857 L275.39063 199.99867 L276.36719 199.99867 L277.34375 199.99850 L278.32031 199.99876 L279.29688 199.99858 L280.27344 199.99840 L281.25000 199.99876 L282.22656 199.99858 L283.20313 199.99847 L284.17969 199.99892 L285.15625 199.99815 L286.13281 199.99715 L287.10938 199.99818 L288.08594 199.99893 L289.06250 199.99847 L290.03906 199.99858 L291.01563 199.99875 L291.99219 199.99857 L292.96875 199.99870 L293.94531 199.99864 L294.92188 199.99855 L295.89844 199.99861 L296.87500 199.99872 L297.85156 199.99844 L298.82813 199.99857 L299.80469 199.99854 L300.78125 199.99864 L301.75781 199.99857 L302.73438 199.99861 L303.71094 199.99866 L304.68750 199.99863 L305.66406 199.99844 L306.64063 199.99849 L307.61719 199.99863 L308.59375 199.99857 L309.57031 199.99850 L310.54688 199.99855 L311.52344 199.99852 L312.50000 199.99860 L313.47656 199.99861 L314.45313 199.99858 L315.42969 199.99855 L316.40625 199.99876 L317.38281 199.99837 L318.35938 199.99875 L319.33594 199.99866 L320.31250 199.99814 L321.28906 199.99928 L322.26563 199.99866 L323.24219 199.99931 L324.21875 199.99817 L325.19531 199.99873 L326.17188 199.99870 L327.14844 199.99844 L328.12500 199.99847 L329.10156 199.99852 L330.07813 199.99854 L331.05469 199.99866 L332.03125 199.99852 L333.00781 199.99857 L333.98438 199.99860 L334.96094 199.99864 L335.93750 199.99860 L336.91406 199.99855 L337.89063 199.99855 L338.86719 199.99864 L339.84375 199.99841 L340.82031 199.99867 L341.79688 199.99858 L342.77344 199.99870 L343.75000 199.99852 L344.72656 199.99869 L345.70313 199.99863 L346.67969 199.99864 L347.65625 199.99861 L348.63281 199.99855 L349.60938 199.99858 L350.58594 199.99861 L351.56250 199.99857 L352.53906 199.99847 L353.51563 199.99854 L354.49219 199.99861 L355.46875 199.99855 L356.44531 199.99867 L357.42188 199.99844 L358.39844 199.99814 L359.37500 199.99838 L360.35156 199.99869 L361.32813 199.99855 L362.30469 199.99854 L363.28125 199.99864 L364.25781 199.99863 L365.23438 199.99863 L366.21094 199.99864 L367.18750 199.99852 L368.16406 199.99867 L369.14063 199.99854 L370.11719 199.99858 L371.09375 199.99847 L372.07031 199.99857 L373.04688 199.99855 L374.02344 199.99861 L375.00000 199.99855 L375.97656 199.99869 L376.95313 199.99858 L377.92969 199.99844 L378.90625 199.99852 L379.88281 199.99860 L380.85938 199.99854 L381.83594 199.99852 L382.81250 199.99850 L383.78906 199.99854 L384.76563 199.99858 L385.74219 199.99863 L386.71875 199.99847 L387.69531 199.99867 L388.67188 199.99858 L389.64844 199.99870 L390.62500 199.99840 L391.60156 199.99864 L392.57813 199.99879 L393.55469 199.99837 L394.53125 199.99905 L395.50781 199.99846 L396.48438 199.99873 L397.46094 199.99860 L398.43750 199.99855 L399.41406 199.99847 L400.39063 199.99855 L401.36719 199.99844 L402.34375 199.99857 L403.32031 199.99864 L404.29688 199.99847 L405.27344 199.99849 L406.25000 199.99870 L407.22656 199.99860 L408.20313 199.99858 L409.17969 199.99860 L410.15625 199.99860 L411.13281 199.99852 L412.10938 199.99854 L413.08594 199.99843 L414.06250 199.99878 L415.03906 199.99854 L416.01563 199.99855 L416.99219 199.99861 L417.96875 199.99869 L418.94531 199.99861 L419.92188 199.99864 L420.89844 199.99855 L421.87500 199.99850 L422.85156 199.99863 L423.82813 199.99854 L424.80469 199.99843 L425.78125 199.99858 L426.75781 199.99858 L427.73438 199.99855 L428.71094 199.99858 L429.68750 199.99854 L430.66406 199.99829 L431.64063 199.99846 L432.61719 199.99867 L433.59375 199.99855 L434.57031 199.99854 L435.54688 199.99863 L436.52344 199.99860 L437.50000 199.99867 L438.47656 199.99863 L439.45313 199.99858 L440.42969 199.99855 L441.40625 199.99866 L442.38281 199.99843 L443.35938 199.99860 L444.33594 199.99854 L445.31250 199.99857 L446.28906 199.99855 L447.26563 199.99860 L448.24219 199.99861 L449.21875 199.99863 L450.19531 199.99849 L451.17188 199.99857 L452.14844 199.99858 L453.12500 199.99843 L454.10156 199.99847 L455.07813 199.99858 L456.05469 199.99855 L457.03125 199.99867 L458.00781 199.99858 L458.98438 199.99849 L459.96094 199.99849 L460.93750 199.99892 L461.91406 199.99841 L462.89063 199.99857 L463.86719 199.99860 L464.84375 199.99849 L465.82031 199.99883 L466.79688 199.99860 L467.77344 199.99883 L468.75000 199.99840 L469.72656 199.99860 L470.70313 199.99860 L471.67969 199.99854 L472.65625 199.99854 L473.63281 199.99854 L474.60938 199.99847 L475.58594 199.99857 L476.56250 199.99857 L477.53906 199.99854 L478.51563 199.99858 L479.49219 199.99869 L480.46875 199.99855 L481.44531 199.99855 L482.42188 199.99858 L483.39844 199.99861 L484.37500 199.99840 L485.35156 199.99861 L486.32813 199.99860 L487.30469 199.99866 L488.28125 199.99850 L489.25781 199.99869 L490.23438 199.99861 L491.21094 199.99863 L492.18750 199.99861 L493.16406 199.99852 L494.14063 199.99855 L495.11719 199.99863 L496.09375 199.99849 L497.07031 199.99840 L498.04688 199.99855 L499.02344 199.99863 L500.00000 199.99852 L500.97656 199.99863 L501.95313 199.99855 L502.92969 199.99840 L503.90625 199.99849 L504.88281 199.99863 L505.85938 199.99855 L506.83594 199.99852 L507.81250 199.99861 L508.78906 199.99863 L509.76563 199.99861 L510.74219 199.99869 L511.71875 199.99850 L512.69531 199.99866 L513.67188 199.99860 L514.64844 199.99861 L515.62500 199.99840 L516.60156 199.99861 L517.57813 199.99858 L518.55469 199.99855 L519.53125 199.99855 L520.50781 199.99869 L521.48438 199.99858 L522.46094 199.99854 L523.43750 199.99857 L524.41406 199.99857 L525.39063 199.99847 L526.36719 199.99854 L527.34375 199.99854 L528.32031 199.99854 L529.29688 199.99860 L530.27344 199.99860 L531.25000 199.99840 L532.22656 199.99883 L533.20313 199.99860 L534.17969 199.99883 L535.15625 199.99849 L536.13281 199.99860 L537.10938 199.99857 L538.08594 199.99841 L539.06250 199.99892 L540.03906 199.99849 L541.01563 199.99849 L541.99219 199.99858 L542.96875 199.99867 L543.94531 199.99855 L544.92188 199.99858 L545.89844 199.99847 L546.87500 199.99843 L547.85156 199.99858 L548.82813 199.99857 L549.80469 199.99849 L550.78125 199.99863 L551.75781 199.99861 L552.73438 199.99860 L553.71094 199.99855 L554.68750 199.99857 L555.66406 199.99854 L556.64063 199.99860 L557.61719 199.99843 L558.59375 199.99866 L559.57031 199.99855 L560.54688 199.99858 L561.52344 199.99863 L562.50000 199.99869 L563.47656 199.99860 L564.45313 199.99863 L565.42969 199.99854 L566.40625 199.99855 L567.38281 199.99867 L568.35938 199.99846 L569.33594 199.99829 L570.31250 199.99854 L571.28906 199.99858 L572.26563 199.99855 L573.24219 199.99858 L574.21875 199.99858 L575.19531 199.99843 L576.17188 199.99854 L577.14844 199.99863 L578.12500 199.99850 L579.10156 199.99855 L580.07813 199.99864 L581.05469 199.99861 L582.03125 199.99869 L583.00781 199.99861 L583.98438 199.99855 L584.96094 199.99854 L585.93750 199.99878 L586.91406 199.99843 L587.89063 199.99854 L588.86719 199.99852 L589.84375 199.99860 L590.82031 199.99860 L591.79688 199.99858 L592.77344 199.99860 L593.75000 199.99870 L594.72656 199.99849 L595.70313 199.99847 L596.67969 199.99864 L597.65625 199.99857 L598.63281 199.99844 L599.60938 199.99855 L600.58594 199.99847 L601.56250 199.99855 L602.53906 199.99860 L603.51563 199.99873 L604.49219 199.99846 L605.46875 199.99905 L606.44531 199.99837 L607.42188 199.99879 L608.39844 199.99864 L609.37500 199.99840 L610.35156 199.99870 L611.32813 199.99858 L612.30469 199.99867 L613.28125 199.99847 L614.25781 199.99863 L615.23438 199.99858 L616.21094 199.99854 L617.18750 199.99850 L618.16406 199.99852 L619.14063 199.99854 L620.11719 199.99860 L621.09375 199.99852 L622.07031 199.99844 L623.04688 199.99858 L624.02344 199.99869 L625.00000 199.99857 L625.97656 199.99861 L626.95313 199.99855 L627.92969 199.99857 L628.90625 199.99847 L629.88281 199.99858 L630.85938 199.99854 L631.83594 199.99867 L632.81250 199.99852 L633.78906 199.99864 L634.76563 199.99863 L635.74219 199.99863 L636.71875 199.99864 L637.69531 199.99854 L638.67188 199.99855 L639.64844 199.99869 L640.62500 199.99838 L641.60156 199.99814 L642.57813 199.99844 L643.55469 199.99867 L644.53125 199.99855 L645.50781 199.99861 L646.48438 199.99854 L647.46094 199.99847 L648.43750 199.99857 L649.41406 199.99861 L650.39063 199.99858 L651.36719 199.99855 L652.34375 199.99861 L653.32031 199.99864 L654.29688 199.99863 L655.27344 199.99869 L656.25000 199.99854 L657.22656 199.99870 L658.20313 199.99858 L659.17969 199.99867 L660.15625 199.99841 L661.13281 199.99864 L662.10938 199.99855 L663.08594 199.99855 L664.06250 199.99860 L665.03906 199.99864 L666.01563 199.99860 L666.99219 199.99857 L667.96875 199.99852 L668.94531 199.99866 L669.92188 199.99854 L670.89844 199.99852 L671.87500 199.99847 L672.85156 199.99844 L673.82813 199.99870 L674.80469 199.99873 L675.78125 199.99817 L676.75781 199.99931 L677.73438 199.99866 L678.71094 199.99928 L679.68750 199.99814 L680.66406 199.99866 L681.64063 199.99875 L682.61719 199.99837 L683.59375 199.99876 L684.57031 199.99855 L685.54688 199.99858 L686.52344 199.99861 L687.50000 199.99860 L688.47656 199.99852 L689.45313 199.99855 L690.42969 199.99850 L691.40625 199.99857 L692.38281 199.99863 L693.35938 199.99849 L694.33594 199.99844 L695.31250 199.99863 L696.28906 199.99866 L697.26563 199.99861 L698.24219 199.99857 L699.21875 199.99864 L700.19531 199.99854 L701.17188 199.99857 L702.14844 199.99844 L703.12500 199.99872 L704.10156 199.99861 L705.07813 199.99855 L706.05469 199.99864 L707.03125 199.99870 L708.00781 199.99857 L708.98438 199.99875 L709.96094 199.99858 L710.93750 199.99847 L711.91406 199.99893 L712.89063 199.99818 L713.86719 199.99715 L714.84375 199.99815 L715.82031 199.99892 L716.79688 199.99847 L717.77344 199.99858 L718.75000 199.99878 L719.72656 199.99840 L720.70313 199.99858 L721.67969 199.99876 L722.65625 199.99850 L723.63281 199.99867 L724.60938 199.99867 L725.58594 199.99857 L726.56250 199.99873 L727.53906 199.99864 L728.51563 199.99870 L729.49219 199.99860 L730.46875 199.99887 L731.44531 199.99850 L732.42188 199.99873 L733.39844 199.99858 L734.37500 199.99867 L735.35156 199.99863 L736.32813 199.99870 L737.30469 199.99876 L738.28125 199.99870 L739.25781 199.99864 L740.23438 199.99875 L741.21094 199.99869 L742.18750 199.99872 L743.16406 199.99869 L744.14063 199.99873 L745.11719 199.99878 L746.09375 199.99898 L747.07031 199.99898 L748.04688 199.99930 L749.02344 200.00000 L750.00000 0.00008 L750.97656 199.99715 L751.95313 199.99783 L752.92969 199.99814 L753.90625 199.99814 L754.88281 199.99832 L755.85938 199.99837 L756.83594 199.99840 L757.81250 199.99828 L758.78906 199.99850 L759.76563 199.99835 L760.74219 199.99843 L761.71875 199.99849 L762.69531 199.99831 L763.67188 199.99841 L764.64844 199.99849 L765.62500 199.99838 L766.60156 199.99832 L767.57813 199.99840 L768.55469 199.99860 L769.53125 199.99850 L770.50781 199.99841 L771.48438 199.99857 L772.46094 199.99858 L773.43750 199.99826 L774.41406 199.99861 L775.39063 199.99850 L776.36719 199.99849 L777.34375 199.99857 L778.32031 199.99850 L779.29688 199.99855 L780.27344 199.99878 L781.25000 199.99841 L782.22656 199.99854 L783.20313 199.99867 L784.17969 199.99820 L785.15625 199.99899 L786.13281 200.00000 L787.10938 199.99898 L788.08594 199.99823 L789.06250 199.99858 L790.03906 199.99861 L791.01563 199.99844 L791.99219 199.99854 L792.96875 199.99857 L793.94531 199.99852 L794.92188 199.99860 L795.89844 199.99852 L796.87500 199.99855 L797.85156 199.99858 L798.82813 199.99864 L799.80469 199.99866 L800.78125 199.99834 L801.75781 199.99892 L802.73438 199.99855 L803.71094 199.99892 L804.68750 199.99825 L805.66406 199.99860 L806.64063 199.99864 L807.61719 199.99846 L808.59375 199.99852 L809.57031 199.99870 L810.54688 199.99854 L811.52344 199.99857 L812.50000 199.99857 L813.47656 199.99849 L814.45313 199.99850 L815.42969 199.99846 L816.40625 199.99840 L817.38281 199.99872 L818.35938 199.99835 L819.33594 199.99852 L820.31250 199.99896 L821.28906 199.99782 L822.26563 199.99850 L823.24219 199.99774 L824.21875 199.99901 L825.19531 199.99844 L826.17188 199.99841 L827.14844 199.99867 L828.12500 199.99866 L829.10156 199.99844 L830.07813 199.99854 L831.05469 199.99847 L832.03125 199.99860 L833.00781 199.99847 L833.98438 199.99858 L834.96094 199.99855 L835.93750 199.99834 L836.91406 199.99875 L837.89063 199.99841 L838.86719 199.99779 L839.84375 199.99837 L840.82031 199.99878 L841.79688 199.99849 L842.77344 199.99854 L843.75000 199.99867 L844.72656 199.99840 L845.70313 199.99860 L846.67969 199.99844 L847.65625 199.99860 L848.63281 199.99861 L849.60938 199.99860 L850.58594 199.99857 L851.56250 199.99873 L852.53906 199.99864 L853.51563 199.99861 L854.49219 199.99860 L855.46875 199.99857 L856.44531 199.99855 L857.42188 199.99870 L858.39844 199.99902 L859.37500 199.99887 L860.35156 199.99838 L861.32813 199.99863 L862.30469 199.99869 L863.28125 199.99844 L864.25781 199.99870 L865.23438 199.99866 L866.21094 199.99878 L867.18750 199.99857 L868.16406 199.99866 L869.14063 199.99872 L870.11719 199.99872 L871.09375 199.99881 L872.07031 199.99889 L873.04688 199.99898 L874.02344 199.99919 L875.00000 0.00012 L875.97656 199.99777 L876.95313 199.99811 L877.92969 199.99835 L878.90625 199.99843 L879.88281 199.99832 L880.85938 199.99850 L881.83594 199.99849 L882.81250 199.99858 L883.78906 199.99846 L884.76563 199.99840 L885.74219 199.99849 L886.71875 199.99849 L887.69531 199.99835 L888.67188 199.99844 L889.64844 199.99834 L890.62500 199.99867 L891.60156 199.99847 L892.57813 199.99828 L893.55469 199.99870 L894.53125 199.99799 L895.50781 199.99864 L896.48438 199.99840 L897.46094 199.99860 L898.43750 199.99846 L899.41406 199.99869 L900.39063 199.99841 L901.36719 199.99825 L902.34375 199.99840 L903.32031 199.99858 L904.29688 199.99850 L905.27344 199.99860 L906.25000 199.99841 L907.22656 199.99838 L908.20313 199.99860 L909.17969 199.99825 L910.15625 199.99883 L911.13281 199.99931 L912.10938 199.99875 L913.08594 199.99850 L914.06250 199.99863 L915.03906 199.99850 L916.01563 199.99847 L916.99219 199.99866 L917.96875 199.99832 L918.94531 199.99857 L919.92188 199.99847 L920.89844 199.99857 L921.87500 199.99858 L922.85156 199.99863 L923.82813 199.99864 L924.80469 199.99873 L925.78125 199.99857 L926.75781 199.99854 L927.73438 199.99860 L928.71094 199.99854 L929.68750 199.99867 L930.66406 199.99890 L931.64063 199.99864 L932.61719 199.99841 L933.59375 199.99854 L934.57031 199.99878 L935.54688 199.99867 L936.52344 199.99887 L937.50000 -0.00001 L938.47656 199.99815 L939.45313 199.99840 L940.42969 199.99843 L941.40625 199.99841 L942.38281 199.99863 L943.35938 199.99847 L944.33594 199.99857 L945.31250 199.99876 L946.28906 199.99812 L947.26563 199.99841 L948.24219 199.99815 L949.21875 199.99863 L950.19531 199.99846 L951.17188 199.99847 L952.14844 199.99857 L953.12500 199.99852 L954.10156 199.99876 L955.07813 199.99857 L956.05469 199.99847 L957.03125 199.99849 L958.00781 199.99843 L958.98438 199.99858 L959.96094 199.99847 L960.93750 199.99821 L961.91406 199.99867 L962.89063 199.99850 L963.86719 199.99854 L964.84375 199.99867 L965.82031 199.99826 L966.79688 199.99858 L967.77344 199.99844 L968.75000 0.00011 L969.72656 199.99838 L970.70313 199.99844 L971.67969 199.99837 L972.65625 199.99866 L973.63281 199.99883 L974.60938 199.99869 L975.58594 199.99838 L976.56250 199.99858 L977.53906 199.99849 L978.51563 199.99832 L979.49219 199.99854 L980.46875 199.99831 L981.44531 199.99850 L982.42188 199.99852 L983.39844 199.99870 L984.37500 199.99870 L985.35156 199.99855 L986.32813 199.99849 L987.30469 199.99849 L988.28125 199.99863 L989.25781 199.99831 L990.23438 199.99846 L991.21094 199.99826 L992.18750 199.99867 L993.16406 199.99847 L994.14063 199.99858 L995.11719 199.99867 L996.09375 199.99872 L997.07031 199.99867 L998.04688 199.99861 L999.02344 199.99849" /><path fill="none" stroke="#000000" d="M0 300.00000  L0.00000 300.00000  L0.97656 299.95380  L1.95313 297.54205  L2.92969 299.36786  L3.90625 301.09772  L4.88281 301.83707  L5.85938 304.49518  L6.83594 302.69724  L7.81250 302.09872  L8.78906 305.07843  L9.76563 299.71585  L10.74219 295.58664  L11.71875 300.33765  L12.69531 299.52557  L13.67188 297.58646  L14.64844 300.62677  L15.62500 297.94476  L16.60156 298.18945  L17.57813 307.03122  L18.55469 306.47296  L19.53125 299.41699  L20.50781 298.89996  L21.48438 298.02795  L22.46094 297.96155  L23.43750 301.61377  L24.41406 297.83203  L25.39063 293.33289  L26.36719 300.26862  L27.34375 306.26428  L28.32031 304.96063  L29.29688 303.13531  L30.27344 301.16052  L31.25000 290.15253  L32.22656 305.04617  L33.20313 299.45944  L34.17969 296.58878  L35.15625 300.82401  L36.13281 301.35724  L37.10938 301.54230  L38.08594 302.58038  L39.06250 300.34225  L40.03906 300.24213  L41.01563 298.21906  L41.99219 294.89865  L42.96875 298.99408  L43.94531 299.21414  L44.92188 296.39612  L45.89844 302.23199  L46.87500 303.07529  L47.85156 298.77393  L48.82813 301.80914  L49.80469 301.87720  L50.78125 301.29688  L51.75781 305.11438  L52.73438 298.80899  L53.71094 291.97543  L54.68750 296.22205  L55.66406 298.18469  L56.64063 299.21713  L57.61719 302.28351  L58.59375 300.08365  L59.57031 299.25391  L60.54688 300.81738  L61.52344 299.08929  L62.50000 274.98303  L63.47656 300.87302  L64.45313 297.24323  L65.42969 299.40002  L66.40625 302.48993  L67.38281 296.14621  L68.35938 292.59650  L69.33594 299.49484  L70.31250 303.50452  L71.28906 300.36731  L72.26563 299.14877  L73.24219 299.07410  L74.21875 297.54059  L75.19531 299.32263  L76.17188 301.87543  L77.14844 301.80786  L78.12500 301.10455  L79.10156 300.08051  L80.07813 301.83960  L81.05469 303.83813  L82.03125 299.19614  L83.00781 296.83331  L83.98438 298.72583  L84.96094 298.17883  L85.93750 299.22433  L86.91406 296.03146  L87.89063 290.83185  L88.86719 301.80469  L89.84375 312.63611  L90.82031 306.77594  L91.79688 302.61633  L92.77344 302.03839  L93.75000 300.45102  L94.72656 303.03461  L95.70313 301.06140  L96.67969 301.26379  L97.65625 307.20932  L98.63281 300.23978  L99.60938 294.84521  L100.58594 302.88837  L101.56250 300.15063  L102.53906 294.96240  L103.51563 304.89108  L104.49219 309.10663  L105.46875 299.63721  L106.44531 292.90540  L107.42188 296.47235  L108.39844 302.44147  L109.37500 300.99219  L110.35156 299.22687  L111.32813 301.42255  L112.30469 298.77380  L113.28125 296.64883  L114.25781 298.82782  L115.23438 298.41107  L116.21094 298.00598  L117.18750 297.98227  L118.16406 298.45471  L119.14063 301.91406  L120.11719 300.98840  L121.09375 299.07806  L122.07031 301.38919  L123.04688 299.23627  L124.02344 297.54968  L125.00000 249.08475  L125.97656 298.02979  L126.95313 297.81827  L127.92969 299.51581  L128.90625 298.83209  L129.88281 301.20602  L130.85938 301.13968  L131.83594 298.55823  L132.81250 299.99536  L133.78906 298.50214  L134.76563 298.79434  L135.74219 302.87042  L136.71875 298.75497  L137.69531 297.97534  L138.67188 303.00854  L139.64844 296.19208  L140.62500 291.85226  L141.60156 301.36606  L142.57813 306.72723  L143.55469 303.79428  L144.53125 301.09595  L145.50781 300.41217  L146.48438 300.19107  L147.46094 300.13422  L148.43750 302.95975  L149.41406 303.94696  L150.39063 301.58554  L151.36719 302.71024  L152.34375 303.29114  L153.32031 302.65884  L154.29688 302.92001  L155.27344 299.04556  L156.25000 300.75848  L157.22656 305.18686  L158.20313 298.89456  L159.17969 304.02768  L160.15625 314.76920  L161.13281 301.51837  L162.10938 291.18573  L163.08594 298.59729  L164.06250 299.41647  L165.03906 298.57367  L166.01563 298.71658  L166.99219 295.88116  L167.96875 299.69275  L168.94531 300.68689  L169.92188 299.11615  L170.89844 302.82141  L171.87500 298.66422  L172.85156 298.05191  L173.82813 304.00220  L174.80469 298.31937  L175.78125 302.99277  L176.75781 314.35770  L177.73438 298.57751  L178.71094 286.84625  L179.68750 297.08304  L180.66406 297.57721  L181.64063 296.25620  L182.61719 302.28772  L183.59375 298.60590  L184.57031 294.13220  L185.54688 297.50800  L186.52344 298.32660  L187.50000 296.93201  L188.47656 297.01422  L189.45313 296.64044  L190.42969 297.02692  L191.40625 299.93909  L192.38281 299.81879  L193.35938 296.73242  L194.33594 299.20016  L195.31250 298.08917  L196.28906 290.81885  L197.26563 297.24622  L198.24219 304.71289  L199.21875 297.87592  L200.19531 298.21939  L201.17188 302.15170  L202.14844 298.19818  L203.12500 300.21161  L204.10156 301.10803  L205.07813 296.77197  L206.05469 298.57776  L207.03125 299.31131  L208.00781 298.72168  L208.98438 297.26129  L209.96094 293.84982  L210.93750 298.90945  L211.91406 292.02802  L212.89063 277.23004  L213.86719 299.83395  L214.84375 323.54340  L215.82031 307.92456  L216.79688 300.57703  L217.77344 306.63843  L218.75000 300.02689  L219.72656 300.94019  L220.70313 304.99817  L221.67969 301.58044  L222.65625 303.35101  L223.63281 303.70154  L224.60938 302.44543  L225.58594 304.61725  L226.56250 301.23413  L227.53906 299.79364  L228.51563 302.33954  L229.49219 300.22278  L230.46875 300.35928  L231.44531 303.40747  L232.42188 304.72986  L233.39844 303.26254  L234.37500 297.99597  L235.35156 299.29327  L236.32813 303.33920  L237.30469 299.46182  L238.28125 299.23431  L239.25781 300.51401  L240.23438 297.70865  L241.21094 301.32520  L242.18750 301.59717  L243.16406 297.09732  L244.14063 301.17813  L245.11719 301.87082  L246.09375 298.84354  L247.07031 301.71887  L248.04688 301.02359  L249.02344 300.15332  L250.00000 200.00000  L250.97656 299.43723  L251.95313 300.34174  L252.92969 301.49878  L253.90625 300.07941  L254.88281 303.03607  L255.85938 301.68643  L256.83594 297.89551  L257.81250 300.13022  L258.78906 299.70859  L259.76563 299.25406  L260.74219 299.81653  L261.71875 297.18149  L262.69531 301.07330  L263.67188 303.09705  L264.64844 297.80859  L265.62500 300.83609  L266.60156 303.41071  L267.57813 297.73376  L268.55469 296.87830  L269.53125 299.42032  L270.50781 302.68277  L271.48438 302.63708  L272.46094 297.77640  L273.43750 301.18463  L274.41406 304.34561  L275.39063 300.89874  L276.36719 303.83472  L277.34375 302.63858  L278.32031 299.46683  L279.29688 305.52866  L280.27344 302.50253  L281.25000 300.21509  L282.22656 306.88495  L283.20313 301.08752  L284.17969 307.25165  L285.15625 322.89737  L286.13281 300.51013  L287.10938 277.62994  L288.08594 291.47424  L289.06250 298.90436  L290.03906 293.38751  L291.01563 295.85904  L291.99219 297.14868  L292.96875 298.03036  L293.94531 300.41165  L294.92188 299.22473  L295.89844 299.71014  L296.87500 300.49438  L297.85156 299.91382  L298.82813 299.70380  L299.80469 298.25934  L300.78125 299.14539  L301.75781 299.87735  L302.73438 297.72568  L303.71094 299.92105  L304.68750 302.44772  L305.66406 299.56897  L306.64063 298.08212  L307.61719 300.17575  L308.59375 300.50113  L309.57031 297.47556  L310.54688 297.09348  L311.52344 299.18030  L312.50000 297.22134  L313.47656 298.73044  L314.45313 299.96805  L315.42969 294.07535  L316.40625 297.48422  L317.38281 303.14648  L318.35938 295.86566  L319.33594 297.35681  L320.31250 298.53745  L321.28906 287.65756  L322.26563 299.08060  L323.24219 314.44287  L324.21875 303.02393  L325.19531 299.93188  L326.17188 305.53897  L327.14844 299.05597  L328.12500 301.00531  L329.10156 303.89206  L330.07813 297.21869  L331.05469 299.82727  L332.03125 301.41977  L333.00781 296.52036  L333.98438 299.17709  L334.96094 300.80542  L335.93750 299.87775  L336.91406 301.38095  L337.89063 299.78735  L338.86719 300.73810  L339.84375 301.35785  L340.82031 296.49310  L341.79688 298.96872  L342.77344 303.03937  L343.75000 299.13428  L344.72656 299.03577  L345.70313 301.63495  L346.67969 300.51019  L347.65625 301.66986  L348.63281 302.27203  L349.60938 299.77197  L350.58594 301.27750  L351.56250 303.26151  L352.53906 299.94226  L353.51563 299.17084  L354.49219 302.29172  L355.46875 300.65808  L356.44531 301.37299  L357.42188 306.93341  L358.39844 300.56522  L359.37500 291.36984  L360.35156 297.40067  L361.32813 300.62601  L362.30469 296.05936  L363.28125 298.38821  L364.25781 299.33377  L365.23438 298.26105  L366.21094 302.27386  L367.18750 300.76202  L368.16406 298.14044  L369.14063 302.13666  L370.11719 301.68985  L371.09375 298.68829  L372.07031 299.39136  L373.04688 299.69110  L374.02344 300.22601  L375.00000 299.32202  L375.97656 298.89175  L376.95313 302.10608  L377.92969 301.11880  L378.90625 298.58606  L379.88281 301.70050  L380.85938 301.01428  L381.83594 297.98828  L382.81250 299.40472  L383.78906 298.40912  L384.76563 298.10309  L385.74219 300.65240  L386.71875 297.82605  L387.69531 296.64066  L388.67188 300.55841  L389.64844 300.00189  L390.62500 299.56485  L391.60156 302.22284  L392.57813 297.20114  L393.55469 291.79327  L394.53125 299.83853  L395.50781 308.52948  L396.48438 303.59912  L397.46094 297.73508  L398.43750 301.00806  L399.41406 303.05734  L400.39063 300.61594  L401.36719 300.52820  L402.34375 300.01306  L403.32031 298.17731  L404.29688 299.68079  L405.27344 300.32327  L406.25000 298.04965  L407.22656 299.49860  L408.20313 301.78281  L409.17969 300.04868  L410.15625 299.17160  L411.13281 300.65475  L412.10938 299.76260  L413.08594 298.18127  L414.06250 299.37970  L415.03906 300.30890  L416.01563 299.65915  L416.99219 300.05588  L417.96875 300.91568  L418.94531 300.89569  L419.92188 301.29102  L420.89844 300.96097  L421.87500 299.89355  L422.85156 301.86435  L423.82813 303.56195  L424.80469 299.98120  L425.78125 298.18613  L426.75781 300.44977  L427.73438 299.90433  L428.71094 300.63904  L429.68750 304.12775  L430.66406 300.25143  L431.64063 295.11179  L432.61719 298.25668  L433.59375 299.83752  L434.57031 297.54639  L435.54688 298.47330  L436.52344 299.60239  L437.50000 299.25424  L438.47656 300.87067  L439.45313 300.00275  L440.42969 298.90100  L441.40625 301.08728  L442.38281 302.58716  L443.35938 300.27750  L444.33594 298.13947  L445.31250 299.68454  L446.28906 300.67276  L447.26563 298.76730  L448.24219 299.87064  L449.21875 302.75854  L450.19531 301.17044  L451.17188 298.77277  L452.14844 299.48499  L453.12500 300.76477  L454.10156 301.12955  L455.07813 300.12128  L456.05469 298.57071  L457.03125 298.06601  L458.00781 297.79114  L458.98438 297.63348  L459.96094 298.10333  L460.93750 299.87463  L461.91406 301.24796  L462.89063 300.50659  L463.86719 301.16705  L464.84375 300.70303  L465.82031 296.34210  L466.79688 298.88034  L467.77344 304.49374  L468.75000 300.88135  L469.72656 299.61472  L470.70313 303.38837  L471.67969 301.52808  L472.65625 300.55508  L473.63281 300.63177  L474.60938 297.60571  L475.58594 300.25403  L476.56250 301.96338  L477.53906 297.33408  L478.51563 298.39761  L479.49219 300.78534  L480.46875 299.47757  L481.44531 300.85843  L482.42188 300.48126  L483.39844 299.40546  L484.37500 300.79877  L485.35156 298.65155  L486.32813 298.12445  L487.30469 301.12711  L488.28125 299.40659  L489.25781 298.55176  L490.23438 300.71295  L491.21094 300.22797  L492.18750 301.22272  L493.16406 302.05579  L494.14063 299.91159  L495.11719 301.92560  L496.09375 303.95770  L497.07031 299.99710  L498.04688 297.81952  L499.02344 299.67331  L500.00000 300.00000  L500.97656 300.32672  L501.95313 302.18048  L502.92969 300.00290  L503.90625 296.04230  L504.88281 298.07440  L505.85938 300.08841  L506.83594 297.94421  L507.81250 298.77728  L508.78906 299.77203  L509.76563 299.28705  L510.74219 301.44824  L511.71875 300.59341  L512.69531 298.87289  L513.67188 301.87555  L514.64844 301.34845  L515.62500 299.20123  L516.60156 300.59454  L517.57813 299.51874  L518.55469 299.14157  L519.53125 300.52243  L520.50781 299.21466  L521.48438 301.60239  L522.46094 302.66592  L523.43750 298.03662  L524.41406 299.74597  L525.39063 302.39429  L526.36719 299.36823  L527.34375 299.44492  L528.32031 298.47192  L529.29688 296.61163  L530.27344 300.38528  L531.25000 299.03391  L532.22656 295.50626  L533.20313 301.11966  L534.17969 303.65790  L535.15625 299.29697  L536.13281 298.83295  L537.10938 299.49341  L538.08594 298.75204  L539.06250 300.12537  L540.03906 301.89667  L541.01563 302.36652  L541.99219 302.20886  L542.96875 301.93399  L543.94531 301.42929  L544.92188 299.87872  L545.89844 298.87048  L546.87500 299.23523  L547.85156 300.51501  L548.82813 301.22723  L549.80469 298.82956  L550.78125 297.24146  L551.75781 300.12936  L552.73438 301.23270  L553.71094 299.32724  L554.68750 300.31546  L555.66406 301.86057  L556.64063 299.72250  L557.61719 297.41284  L558.59375 298.91272  L559.57031 301.09900  L560.54688 299.99725  L561.52344 299.12933  L562.50000 300.33899  L563.47656 300.39761  L564.45313 301.52670  L565.42969 302.45361  L566.40625 300.16248  L567.38281 301.74332  L568.35938 304.88821  L569.33594 299.74857  L570.31250 295.87225  L571.28906 299.36096  L572.26563 300.09567  L573.24219 299.55023  L574.21875 301.81387  L575.19531 300.01880  L576.17188 296.43805  L577.14844 298.13565  L578.12500 300.10645  L579.10156 299.03903  L580.07813 298.70898  L581.05469 299.10431  L582.03125 299.08432  L583.00781 299.94412  L583.98438 300.34085  L584.96094 299.69110  L585.93750 300.62030  L586.91406 301.81873  L587.89063 300.23740  L588.86719 299.34525  L589.84375 300.82840  L590.82031 299.95129  L591.79688 298.21719  L592.77344 300.50140  L593.75000 301.82452  L594.72656 299.67673  L595.70313 300.31921  L596.67969 301.82269  L597.65625 299.98694  L598.63281 299.47180  L599.60938 299.38406  L600.58594 296.94266  L601.56250 298.99194  L602.53906 302.26492  L603.51563 296.40088  L604.49219 291.47052  L605.46875 300.16147  L606.44531 308.20676  L607.42188 302.79886  L608.39844 297.77713  L609.37500 300.43515  L610.35156 299.99811  L611.32813 299.44159  L612.30469 303.35934  L613.28125 302.17395  L614.25781 299.34760  L615.23438 301.89691  L616.21094 301.59088  L617.18750 300.59528  L618.16406 302.01172  L619.14063 298.98572  L620.11719 298.29950  L621.09375 301.41397  L622.07031 298.88120  L623.04688 297.89392  L624.02344 301.10825  L625.00000 300.47458  L625.97656 299.77399  L626.95313 300.30890  L627.92969 300.60864  L628.90625 301.31171  L629.88281 298.31015  L630.85938 297.86334  L631.83594 301.85956  L632.81250 299.23798  L633.78906 297.72614  L634.76563 301.73895  L635.74219 300.66623  L636.71875 301.61179  L637.69531 303.94064  L638.67188 299.37399  L639.64844 302.59933  L640.62500 308.63016  L641.60156 299.43478  L642.57813 293.06659  L643.55469 298.62701  L644.53125 299.34192  L645.50781 297.70828  L646.48438 300.82916  L647.46094 300.05774  L648.43750 296.73853  L649.41406 298.72250  L650.39063 300.22803  L651.36719 297.72797  L652.34375 298.33014  L653.32031 299.48981  L654.29688 298.36505  L655.27344 300.96423  L656.25000 300.88596  L657.22656 296.96063  L658.20313 301.03128  L659.17969 303.50690  L660.15625 298.64215  L661.13281 299.26190  L662.10938 300.21265  L663.08594 298.61905  L664.06250 300.12225  L665.03906 299.19458  L666.01563 300.82291  L666.99219 303.47964  L667.96875 298.58023  L668.94531 300.17273  L669.92188 302.78131  L670.89844 296.10794  L671.87500 298.99469  L672.85156 300.94403  L673.82813 294.46103  L674.80469 300.06812  L675.78125 296.97607  L676.75781 285.55713  L677.73438 300.91940  L678.71094 312.34244  L679.68750 301.46255  L680.66406 302.64319  L681.64063 304.13434  L682.61719 296.85352  L683.59375 302.51578  L684.57031 305.92465  L685.54688 300.03195  L686.52344 301.26956  L687.50000 302.66119  L688.47656 300.81970  L689.45313 302.90652  L690.42969 302.52444  L691.40625 299.49887  L692.38281 299.82425  L693.35938 301.91788  L694.33594 300.43103  L695.31250 297.55228  L696.28906 300.07895  L697.26563 302.27432  L698.24219 300.12265  L699.21875 300.85461  L700.19531 301.74066  L701.17188 300.29620  L702.14844 300.08618  L703.12500 299.50562  L704.10156 300.28986  L705.07813 300.77527  L706.05469 299.58835  L707.03125 301.96964  L708.00781 302.85132  L708.98438 304.14096  L709.96094 306.61249  L710.93750 301.09564  L711.91406 308.52576  L712.89063 322.37006  L713.86719 299.48987  L714.84375 277.10263  L715.82031 292.74835  L716.79688 298.91248  L717.77344 293.11505  L718.75000 299.56635  L719.72656 297.49747  L720.70313 294.47134  L721.67969 300.53317  L722.65625 297.36142  L723.63281 296.16528  L724.60938 299.10126  L725.58594 295.65439  L726.56250 298.81537  L727.53906 302.22360  L728.51563 297.36292  L729.49219 297.31723  L730.46875 300.57968  L731.44531 303.12170  L732.42188 302.26624  L733.39844 296.58929  L734.37500 299.16391  L735.35156 302.19141  L736.32813 296.90295  L737.30469 298.92667  L738.28125 302.81851  L739.25781 300.18347  L740.23438 300.74594  L741.21094 300.29141  L742.18750 299.86978  L743.16406 302.10449  L744.14063 298.31357  L745.11719 296.96393  L746.09375 299.92059  L747.07031 298.50122  L748.04688 299.65823  L749.02344 300.56274  L750.00000 400.00000  L750.97656 299.84668  L751.95313 298.97641  L752.92969 298.28113  L753.90625 301.15646  L754.88281 298.12921  L755.85938 298.82187  L756.83594 302.90268  L757.81250 298.40283  L758.78906 298.67480  L759.76563 302.29135  L760.74219 299.48599  L761.71875 300.76569  L762.69531 300.53818  L763.67188 296.66080  L764.64844 300.70673  L765.62500 302.00403  L766.60156 296.73746  L767.57813 295.27014  L768.55469 296.59253  L769.53125 299.64072  L770.50781 299.77722  L771.48438 297.66046  L772.46094 300.20636  L773.43750 298.76587  L774.41406 295.38275  L775.39063 297.55457  L776.36719 296.29846  L777.34375 296.64899  L778.32031 298.41956  L779.29688 295.00183  L780.27344 299.05981  L781.25000 299.95441  L782.22656 293.36157  L783.20313 299.42297  L784.17969 292.07544  L785.15625 276.45660  L786.13281 300.16602  L787.10938 322.76996  L788.08594 307.97198  L789.06250 301.09055  L790.03906 306.15018  L791.01563 302.73871  L791.99219 301.27832  L792.96875 300.68869  L793.94531 301.42224  L794.92188 303.22803  L795.89844 298.89197  L796.87500 299.78839  L797.85156 301.80179  L798.82813 297.84830  L799.80469 301.78061  L800.78125 302.12408  L801.75781 295.28708  L802.73438 302.75378  L803.71094 309.18112  L804.68750 301.91083  L805.66406 300.79984  L806.64063 303.26758  L807.61719 300.18121  L808.59375 300.06091  L809.57031 302.97308  L810.54688 303.35956  L811.52344 302.98578  L812.50000 303.04987  L813.47656 301.67340  L814.45313 302.49200  L815.42969 305.86780  L816.40625 301.39410  L817.38281 297.71228  L818.35938 303.74380  L819.33594 302.42279  L820.31250 302.91696  L821.28906 313.15375  L822.26563 301.42249  L823.24219 285.64230  L824.21875 297.00723  L825.19531 301.68063  L826.17188 295.99780  L827.14844 301.94809  L828.12500 301.33578  L829.10156 297.17859  L830.07813 300.88385  L831.05469 299.31311  L832.03125 300.30725  L833.00781 304.11884  L833.98438 301.28342  L834.96094 301.42633  L835.93750 300.58353  L836.91406 301.40271  L837.89063 308.81427  L838.86719 298.48163  L839.84375 285.23080  L840.82031 295.97232  L841.79688 301.10544  L842.77344 294.81314  L843.75000 299.13254  L844.72656 300.95444  L845.70313 297.07999  L846.67969 297.34116  L847.65625 296.70886  L848.63281 297.28976  L849.60938 298.41446  L850.58594 296.05304  L851.56250 297.04025  L852.53906 299.86578  L853.51563 299.80893  L854.49219 299.58783  L855.46875 298.90405  L856.44531 296.20572  L857.42188 293.27277  L858.39844 298.63394  L859.37500 308.14774  L860.35156 303.80792  L861.32813 296.99146  L862.30469 302.02466  L863.28125 301.24503  L864.25781 297.12958  L865.23438 301.20566  L866.21094 301.49786  L867.18750 300.00464  L868.16406 301.44180  L869.14063 298.86032  L870.11719 298.79398  L871.09375 301.16791  L872.07031 300.48419  L873.04688 302.18173  L874.02344 301.97021  L875.00000 351.11865  L875.97656 302.45032  L876.95313 300.76373  L877.92969 298.61081  L878.90625 300.92194  L879.88281 299.01160  L880.85938 298.08594  L881.83594 301.54529  L882.81250 302.01773  L883.78906 301.99402  L884.76563 301.58893  L885.74219 301.17218  L886.71875 303.35117  L887.69531 301.22623  L888.67188 298.57745  L889.64844 300.77313  L890.62500 299.00781  L891.60156 297.55853  L892.57813 303.52765  L893.55469 307.09460  L894.53125 300.36279  L895.50781 290.89337  L896.48438 295.10892  L897.46094 305.03760  L898.43750 299.84937  L899.41406 297.11163  L900.39063 305.15479  L901.36719 299.76022  L902.34375 292.79068  L903.32031 298.73621  L904.29688 298.93860  L905.27344 296.96539  L906.25000 299.56015  L907.22656 297.96161  L908.20313 297.38367  L909.17969 293.22406  L910.15625 287.36389  L911.13281 298.19531  L912.10938 309.16815  L913.08594 303.96854  L914.06250 300.77567  L915.03906 301.82117  L916.01563 301.27417  L916.99219 303.16669  L917.96875 300.80386  L918.94531 296.16187  L919.92188 298.16040  L920.89844 299.91949  L921.87500 298.89545  L922.85156 298.19214  L923.82813 298.12457  L924.80469 300.67737  L925.78125 302.45941  L926.75781 300.92590  L927.73438 300.85123  L928.71094 299.63269  L929.68750 296.49548  L930.66406 300.50513  L931.64063 307.40350  L932.61719 303.85379  L933.59375 297.51007  L934.57031 300.59998  L935.54688 302.75677  L936.52344 299.12698  L937.50000 325.55933  L938.47656 300.91071  L939.45313 299.18262  L940.42969 300.74609  L941.40625 299.91635  L942.38281 297.71649  L943.35938 300.78287  L944.33594 301.81531  L945.31250 303.77795  L946.28906 308.02457  L947.26563 301.19104  L948.24219 294.88562  L949.21875 298.70313  L950.19531 298.12280  L951.17188 298.19086  L952.14844 301.22607  L953.12500 296.92471  L954.10156 297.76801  L955.07813 303.60388  L956.05469 300.78586  L957.03125 301.00592  L958.00781 305.10135  L958.98438 301.78094  L959.96094 299.75787  L960.93750 299.65775  L961.91406 297.41962  L962.89063 298.45770  L963.86719 298.64276  L964.84375 299.17599  L965.82031 303.41122  L966.79688 300.54056  L967.77344 294.95383  L968.75000 310.37286  L969.72656 298.83948  L970.70313 296.86469  L971.67969 295.03937  L972.65625 293.73572  L973.63281 299.73138  L974.60938 306.66711  L975.58594 302.16797  L976.56250 298.38623  L977.53906 302.03845  L978.51563 301.97205  L979.49219 301.10004  L980.46875 300.58301  L981.44531 293.52704  L982.42188 292.96878  L983.39844 301.81055  L984.37500 302.05524  L985.35156 299.37323  L986.32813 302.41354  L987.30469 300.47443  L988.28125 299.66235  L989.25781 304.41336  L990.23438 300.28415  L991.21094 294.92157  L992.18750 297.90128  L993.16406 297.30276  L994.14063 295.50482  L995.11719 298.16293  L996.09375 298.90228  L997.07031 300.63214  L998.04688 302.45795  L999.02344 300.04620 " /></g><text x="1000.00000" dx="10" y="199.99857">[-0.00000;0.50000]</text><text x="1000.00000" dx="10" y="300.00000">[-0.00001;0.00001]</text></svg>