<svg xmlns="http://www.w3.org/2000/svg" version="1.1"><g stroke-width="0.6"><path fill="none" stroke="#000000" d="M0 100.00000 L1000.00000 100.00000" /><path fill="none" stroke="#000000" d="M0 300.00000 L1000.00000 300.00000" /><path fill="none" stroke="#000000" d="M500.00000 0 L500.00000 400.00000" /><path fill="none" stroke="#000000" d="M0 100.00000  L0.00000 0.00000 L0.97656 0.48153 L1.95313 1.92147 L2.92969 4.30596 L3.90625 7.61205 L4.88281 11.80788 L5.85938 16.85304 L6.83594 22.69896 L7.81250 29.28932 L8.78906 36.56067 L9.76563 44.44298 L10.74219 52.86034 L11.71875 61.73166 L12.69531 70.97153 L13.67188 80.49097 L14.64844 90.19829 L15.62500 100.00001 L16.60156 109.80172 L17.57813 119.50903 L18.55469 129.02847 L19.53125 138.26836 L20.50781 147.13968 L21.48438 155.55704 L22.46094 163.43933 L23.43750 170.71068 L24.41406 177.30106 L25.39063 183.14697 L26.36719 188.19214 L27.34375 192.38797 L28.32031 195.69403 L29.29688 198.07854 L30.27344 199.51848 L31.25000 200.00000 L32.22656 199.51848 L33.20313 198.07852 L34.17969 195.69403 L35.15625 192.38795 L36.13281 188.19212 L37.10938 183.14696 L38.08594 177.30104 L39.06250 170.71066 L40.03906 163.43933 L41.01563 155.55701 L41.99219 147.13966 L42.96875 138.26831 L43.94531 129.02846 L44.92188 119.50904 L45.89844 109.80170 L46.87500 100.00000 L47.85156 90.19826 L48.82813 80.49096 L49.80469 70.97150 L50.78125 61.73164 L51.75781 52.86033 L52.73438 44.44296 L53.71094 36.56067 L54.68750 29.28930 L55.66406 22.69894 L56.64063 16.85304 L57.61719 11.80787 L58.59375 7.61204 L59.57031 4.30596 L60.54688 1.92147 L61.52344 0.48152 L62.50000 0.00000 L63.47656 0.48153 L64.45313 1.92147 L65.42969 4.30597 L66.40625 7.61206 L67.38281 11.80788 L68.35938 16.85306 L69.33594 22.69897 L70.31250 29.28932 L71.28906 36.56070 L72.26563 44.44299 L73.24219 52.86036 L74.21875 61.73167 L75.19531 70.97153 L76.17188 80.49099 L77.14844 90.19830 L78.12500 100.00003 L79.10156 109.80173 L80.07813 119.50903 L81.05469 129.02849 L82.03125 138.26839 L83.00781 147.13966 L83.98438 155.55704 L84.96094 163.43936 L85.93750 170.71072 L86.91406 177.30104 L87.89063 183.14697 L88.86719 188.19215 L89.84375 192.38795 L90.82031 195.69403 L91.79688 198.07854 L92.77344 199.51848 L93.75000 200.00000 L94.72656 199.51848 L95.70313 198.07852 L96.67969 195.69403 L97.65625 192.38794 L98.63281 188.19211 L99.60938 183.14691 L100.58594 177.30104 L101.56250 170.71065 L102.53906 163.43929 L103.51563 155.55704 L104.49219 147.13965 L105.46875 138.26830 L106.44531 129.02849 L107.42188 119.50903 L108.39844 109.80167 L109.37500 99.99993 L110.35156 90.19829 L111.32813 80.49094 L112.30469 70.97148 L113.28125 61.73167 L114.25781 52.86031 L115.23438 44.44294 L116.21094 36.56062 L117.18750 29.28932 L118.16406 22.69893 L119.14063 16.85300 L120.11719 11.80788 L121.09375 7.61204 L122.07031 4.30595 L123.04688 1.92146 L124.02344 0.48153 L125.00000 0.00000 L125.97656 0.48153 L126.95313 1.92147 L127.92969 4.30597 L128.90625 7.61207 L129.88281 11.80791 L130.85938 16.85305 L131.83594 22.69898 L132.81250 29.28937 L133.78906 36.56067 L134.76563 44.44300 L135.74219 52.86037 L136.71875 61.73174 L137.69531 70.97154 L138.67188 80.49101 L139.64844 90.19836 L140.62500 100.00000 L141.60156 109.80174 L142.57813 119.50909 L143.55469 129.02855 L144.53125 138.26836 L145.50781 147.13971 L146.48438 155.55708 L147.46094 163.43933 L148.43750 170.71069 L149.41406 177.30109 L150.39063 183.14696 L151.36719 188.19214 L152.34375 192.38797 L153.32031 195.69406 L154.29688 198.07854 L155.27344 199.51848 L156.25000 200.00000 L157.22656 199.51848 L158.20313 198.07852 L159.17969 195.69405 L160.15625 192.38795 L161.13281 188.19212 L162.10938 183.14694 L163.08594 177.30099 L164.06250 170.71060 L165.03906 163.43924 L166.01563 155.55705 L166.99219 147.13968 L167.96875 138.26833 L168.94531 129.02843 L169.92188 119.50896 L170.89844 109.80161 L171.87500 99.99987 L172.85156 90.19832 L173.82813 80.49097 L174.80469 70.97151 L175.78125 61.73161 L176.75781 52.86026 L177.73438 44.44289 L178.71094 36.56057 L179.68750 29.28934 L180.66406 22.69896 L181.64063 16.85302 L182.61719 11.80785 L183.59375 7.61201 L184.57031 4.30593 L185.54688 1.92145 L186.52344 0.48153 L187.50000 0.00000 L188.47656 0.48153 L189.45313 1.92148 L190.42969 4.30599 L191.40625 7.61209 L192.38281 11.80794 L193.35938 16.85303 L194.33594 22.69896 L195.31250 29.28935 L196.28906 36.56072 L197.26563 44.44305 L198.24219 52.86043 L199.21875 61.73180 L200.19531 70.97152 L201.17188 80.49098 L202.14844 90.19833 L203.12500 100.00007 L204.10156 109.80181 L205.07813 119.50916 L206.05469 129.02861 L207.03125 138.26834 L208.00781 147.13969 L208.98438 155.55707 L209.96094 163.43939 L210.93750 170.71075 L211.91406 177.30113 L212.89063 183.14694 L213.86719 188.19212 L214.84375 192.38797 L215.82031 195.69405 L216.79688 198.07854 L217.77344 199.51848 L218.75000 200.00000 L219.72656 199.51848 L220.70313 198.07854 L221.67969 195.69403 L222.65625 192.38794 L223.63281 188.19209 L224.60938 183.14690 L225.58594 177.30096 L226.56250 170.71069 L227.53906 163.43933 L228.51563 155.55701 L229.49219 147.13962 L230.46875 138.26826 L231.44531 129.02837 L232.42188 119.50890 L233.39844 109.80173 L234.37500 99.99999 L235.35156 90.19825 L236.32813 80.49091 L237.30469 70.97145 L238.28125 61.73155 L239.25781 52.86020 L240.23438 44.44299 L241.21094 36.56067 L242.18750 29.28929 L243.16406 22.69892 L244.14063 16.85299 L245.11719 11.80782 L246.09375 7.61199 L247.07031 4.30597 L248.04688 1.92147 L249.02344 0.48152 L250.00000 0.00000 L250.97656 0.48153 L251.95313 1.92150 L252.92969 4.30601 L253.90625 7.61204 L254.88281 11.80788 L255.85938 16.85306 L256.83594 22.69901 L257.81250 29.28939 L258.78906 36.56078 L259.76563 44.44311 L260.74219 52.86032 L261.71875 61.73168 L262.69531 70.97158 L263.67188 80.49104 L264.64844 90.19839 L265.62500 100.00014 L266.60156 109.80187 L267.57813 119.50903 L268.55469 129.02849 L269.53125 138.26839 L270.50781 147.13974 L271.48438 155.55711 L272.46094 163.43944 L273.43750 170.71080 L274.41406 177.30106 L275.39063 183.14697 L276.36719 188.19215 L277.34375 192.38799 L278.32031 195.69406 L279.29688 198.07855 L280.27344 199.51849 L281.25000 200.00000 L282.22656 199.51848 L283.20313 198.07851 L284.17969 195.69400 L285.15625 192.38791 L286.13281 188.19206 L287.10938 183.14687 L288.08594 177.30104 L289.06250 170.71065 L290.03906 163.43927 L291.01563 155.55695 L291.99219 147.13956 L292.96875 138.26820 L293.94531 129.02847 L294.92188 119.50902 L295.89844 109.80167 L296.87500 99.99993 L297.85156 90.19819 L298.82813 80.49084 L299.80469 70.97138 L300.78125 61.73166 L301.75781 52.86031 L302.73438 44.44294 L303.71094 36.56061 L304.68750 29.28925 L305.66406 22.69887 L306.64063 16.85295 L307.61719 11.80788 L308.59375 7.61204 L309.57031 4.30595 L310.54688 1.92146 L311.52344 0.48152 L312.50000 0.00000 L313.47656 0.48155 L314.45313 1.92147 L315.42969 4.30598 L316.40625 7.61207 L317.38281 11.80791 L318.35938 16.85299 L319.33594 22.69892 L320.31250 29.28930 L321.28906 36.56067 L322.26563 44.44300 L323.24219 52.86038 L324.21875 61.73174 L325.19531 70.97164 L326.17188 80.49110 L327.14844 90.19846 L328.12500 100.00020 L329.10156 109.80194 L330.07813 119.50928 L331.05469 129.02873 L332.03125 138.26828 L333.00781 147.13963 L333.98438 155.55701 L334.96094 163.43935 L335.93750 170.71071 L336.91406 177.30109 L337.89063 183.14702 L338.86719 188.19218 L339.84375 192.38802 L340.82031 195.69408 L341.79688 198.07857 L342.77344 199.51849 L343.75000 200.00000 L344.72656 199.51848 L345.70313 198.07854 L346.67969 195.69405 L347.65625 192.38795 L348.63281 188.19212 L349.60938 183.14694 L350.58594 177.30099 L351.56250 170.71060 L352.53906 163.43922 L353.51563 155.55688 L354.49219 147.13951 L355.46875 138.26814 L356.44531 129.02823 L357.42188 119.50877 L358.39844 109.80180 L359.37500 100.00005 L360.35156 90.19831 L361.32813 80.49097 L362.30469 70.97150 L363.28125 61.73161 L364.25781 52.86025 L365.23438 44.44288 L366.21094 36.56057 L367.18750 29.28920 L368.16406 22.69883 L369.14063 16.85291 L370.11719 11.80776 L371.09375 7.61194 L372.07031 4.30599 L373.04688 1.92148 L374.02344 0.48153 L375.00000 0.00000 L375.97656 0.48153 L376.95313 1.92149 L377.92969 4.30599 L378.90625 7.61209 L379.88281 11.80794 L380.85938 16.85314 L381.83594 22.69908 L382.81250 29.28948 L383.78906 36.56087 L384.76563 44.44321 L385.74219 52.86027 L386.71875 61.73162 L387.69531 70.97152 L388.67188 80.49098 L389.64844 90.19833 L390.62500 100.00008 L391.60156 109.80181 L392.57813 119.50916 L393.55469 129.02863 L394.53125 138.26851 L395.50781 147.13986 L396.48438 155.55722 L397.46094 163.43953 L398.43750 170.71089 L399.41406 177.30101 L400.39063 183.14694 L401.36719 188.19212 L402.34375 192.38797 L403.32031 195.69405 L404.29688 198.07854 L405.27344 199.51848 L406.25000 200.00000 L407.22656 199.51845 L408.20313 198.07849 L409.17969 195.69397 L410.15625 192.38785 L411.13281 188.19200 L412.10938 183.14679 L413.08594 177.30109 L414.06250 170.71069 L415.03906 163.43932 L416.01563 155.55699 L416.99219 147.13962 L417.96875 138.26826 L418.94531 129.02835 L419.92188 119.50889 L420.89844 109.80154 L421.87500 99.99980 L422.85156 90.19806 L423.82813 80.49072 L424.80469 70.97126 L425.78125 61.73172 L426.75781 52.86036 L427.73438 44.44299 L428.71094 36.56066 L429.68750 29.28929 L430.66406 22.69891 L431.64063 16.85299 L432.61719 11.80781 L433.59375 7.61199 L434.57031 4.30591 L435.54688 1.92143 L436.52344 0.48150 L437.50000 0.00000 L438.47656 0.48156 L439.45313 1.92146 L440.42969 4.30596 L441.40625 7.61204 L442.38281 11.80788 L443.35938 16.85306 L444.33594 22.69901 L445.31250 29.28939 L446.28906 36.56078 L447.26563 44.44311 L448.24219 52.86050 L449.21875 61.73186 L450.19531 70.97176 L451.17188 80.49123 L452.14844 90.19859 L453.12500 99.99995 L454.10156 109.80169 L455.07813 119.50903 L456.05469 129.02850 L457.03125 138.26840 L458.00781 147.13976 L458.98438 155.55711 L459.96094 163.43944 L460.93750 170.71080 L461.91406 177.30116 L462.89063 183.14708 L463.86719 188.19225 L464.84375 192.38806 L465.82031 195.69412 L466.79688 198.07852 L467.77344 199.51848 L468.75000 200.00000 L469.72656 199.51846 L470.70313 198.07851 L471.67969 195.69400 L472.65625 192.38791 L473.63281 188.19206 L474.60938 183.14687 L475.58594 177.30092 L476.56250 170.71051 L477.53906 163.43912 L478.51563 155.55678 L479.49219 147.13939 L480.46875 138.26837 L481.44531 129.02847 L482.42188 119.50901 L483.39844 109.80167 L484.37500 99.99992 L485.35156 90.19818 L486.32813 80.49084 L487.30469 70.97138 L488.28125 61.73148 L489.25781 52.86014 L490.23438 44.44277 L491.21094 36.56046 L492.18750 29.28911 L493.16406 22.69875 L494.14063 16.85305 L495.11719 11.80787 L496.09375 7.61204 L497.07031 4.30595 L498.04688 1.92146 L499.02344 0.48152 L500.00000 0.00000 L500.97656 0.48155 L501.95313 1.92151 L502.92969 4.30603 L503.90625 7.61214 L504.88281 11.80801 L505.85938 16.85321 L506.83594 22.69893 L507.81250 29.28931 L508.78906 36.56068 L509.76563 44.44300 L510.74219 52.86038 L511.71875 61.73174 L512.69531 70.97165 L513.67188 80.49111 L514.64844 90.19846 L515.62500 100.00021 L516.60156 109.80194 L517.57813 119.50928 L518.55469 129.02875 L519.53125 138.26863 L520.50781 147.13963 L521.48438 155.55701 L522.46094 163.43935 L523.43750 170.71071 L524.41406 177.30109 L525.39063 183.14702 L526.36719 188.19218 L527.34375 192.38802 L528.32031 195.69409 L529.29688 198.07857 L530.27344 199.51849 L531.25000 200.00000 L532.22656 199.51845 L533.20313 198.07846 L534.17969 195.69405 L535.15625 192.38795 L536.13281 188.19212 L537.10938 183.14693 L538.08594 177.30099 L539.06250 170.71060 L540.03906 163.43922 L541.01563 155.55688 L541.99219 147.13951 L542.96875 138.26814 L543.94531 129.02823 L544.92188 119.50876 L545.89844 109.80141 L546.87500 99.99967 L547.85156 90.19831 L548.82813 80.49096 L549.80469 70.97150 L550.78125 61.73160 L551.75781 52.86025 L552.73438 44.44288 L553.71094 36.56056 L554.68750 29.28920 L555.66406 22.69883 L556.64063 16.85291 L557.61719 11.80775 L558.59375 7.61194 L559.57031 4.30588 L560.54688 1.92140 L561.52344 0.48153 L562.50000 0.00000 L563.47656 0.48153 L564.45313 1.92149 L565.42969 4.30599 L566.40625 7.61210 L567.38281 11.80795 L568.35938 16.85314 L569.33594 22.69909 L570.31250 29.28949 L571.28906 36.56087 L572.26563 44.44322 L573.24219 52.86061 L574.21875 61.73198 L575.19531 70.97153 L576.17188 80.49099 L577.14844 90.19833 L578.12500 100.00008 L579.10156 109.80182 L580.07813 119.50916 L581.05469 129.02863 L582.03125 138.26852 L583.00781 147.13986 L583.98438 155.55722 L584.96094 163.43954 L585.93750 170.71089 L586.91406 177.30125 L587.89063 183.14694 L588.86719 188.19212 L589.84375 192.38797 L590.82031 195.69405 L591.79688 198.07854 L592.77344 199.51848 L593.75000 200.00000 L594.72656 199.51845 L595.70313 198.07849 L596.67969 195.69397 L597.65625 192.38785 L598.63281 188.19199 L599.60938 183.14679 L600.58594 177.30083 L601.56250 170.71069 L602.53906 163.43932 L603.51563 155.55699 L604.49219 147.13962 L605.46875 138.26825 L606.44531 129.02835 L607.42188 119.50889 L608.39844 109.80154 L609.37500 99.99979 L610.35156 90.19805 L611.32813 80.49072 L612.30469 70.97125 L613.28125 61.73136 L614.25781 52.86002 L615.23438 44.44298 L616.21094 36.56065 L617.18750 29.28929 L618.16406 22.69891 L619.14063 16.85298 L620.11719 11.80781 L621.09375 7.61198 L622.07031 4.30591 L623.04688 1.92143 L624.02344 0.48150 L625.00000 0.00000 L625.97656 0.48156 L626.95313 1.92153 L627.92969 4.30607 L628.90625 7.61205 L629.88281 11.80789 L630.85938 16.85307 L631.83594 22.69901 L632.81250 29.28940 L633.78906 36.56078 L634.76563 44.44312 L635.74219 52.86050 L636.71875 61.73151 L637.69531 70.97141 L638.67188 80.49087 L639.64844 90.19821 L640.62500 99.99995 L641.60156 109.80170 L642.57813 119.50904 L643.55469 129.02850 L644.53125 138.26840 L645.50781 147.13976 L646.48438 155.55713 L647.46094 163.43944 L648.43750 170.71080 L649.41406 177.30118 L650.39063 183.14709 L651.36719 188.19225 L652.34375 192.38806 L653.32031 195.69412 L654.29688 198.07860 L655.27344 199.51851 L656.25000 200.00000 L657.22656 199.51843 L658.20313 198.07845 L659.17969 195.69389 L660.15625 192.38776 L661.13281 188.19188 L662.10938 183.14665 L663.08594 177.30115 L664.06250 170.71078 L665.03906 163.43942 L666.01563 155.55710 L666.99219 147.13972 L667.96875 138.26837 L668.94531 129.02847 L669.92188 119.50901 L670.89844 109.80166 L671.87500 99.99992 L672.85156 90.19818 L673.82813 80.49084 L674.80469 70.97137 L675.78125 61.73148 L676.75781 52.86013 L677.73438 44.44277 L678.71094 36.56046 L679.68750 29.28911 L680.66406 22.69874 L681.64063 16.85284 L682.61719 11.80769 L683.59375 7.61189 L684.57031 4.30584 L685.54688 1.92138 L686.52344 0.48148 L687.50000 0.00000 L688.47656 0.48158 L689.45313 1.92144 L690.42969 4.30592 L691.40625 7.61200 L692.38281 11.80783 L693.35938 16.85300 L694.33594 22.69893 L695.31250 29.28931 L696.28906 36.56068 L697.26563 44.44301 L698.24219 52.86039 L699.21875 61.73175 L700.19531 70.97165 L701.17188 80.49112 L702.14844 90.19846 L703.12500 100.00021 L704.10156 109.80195 L705.07813 119.50929 L706.05469 129.02875 L707.03125 138.26863 L708.00781 147.13998 L708.98438 155.55733 L709.96094 163.43964 L710.93750 170.71098 L711.91406 177.30133 L712.89063 183.14723 L713.86719 188.19237 L714.84375 192.38815 L715.82031 195.69420 L716.79688 198.07849 L717.77344 199.51846 L718.75000 200.00000 L719.72656 199.51848 L720.70313 198.07854 L721.67969 195.69405 L722.65625 192.38795 L723.63281 188.19211 L724.60938 183.14693 L725.58594 177.30099 L726.56250 170.71060 L727.53906 163.43922 L728.51563 155.55688 L729.49219 147.13950 L730.46875 138.26813 L731.44531 129.02823 L732.42188 119.50876 L733.39844 109.80141 L734.37500 99.99966 L735.35156 90.19792 L736.32813 80.49059 L737.30469 70.97113 L738.28125 61.73124 L739.25781 52.85991 L740.23438 44.44256 L741.21094 36.56026 L742.18750 29.28892 L743.16406 22.69858 L744.14063 16.85312 L745.11719 11.80793 L746.09375 7.61208 L747.07031 4.30598 L748.04688 1.92148 L749.02344 0.48153 L750.00000 0.00000 L750.97656 0.48153 L751.95313 1.92149 L752.92969 4.30599 L753.90625 7.61210 L754.88281 11.80795 L755.85938 16.85314 L756.83594 22.69909 L757.81250 29.28949 L758.78906 36.56088 L759.76563 44.44323 L760.74219 52.86061 L761.71875 61.73198 L762.69531 70.97190 L763.67188 80.49137 L764.64844 90.19872 L765.62500 100.00047 L766.60156 109.80221 L767.57813 119.50954 L768.55469 129.02899 L769.53125 138.26888 L770.50781 147.13954 L771.48438 155.55692 L772.46094 163.43925 L773.43750 170.71062 L774.41406 177.30101 L775.39063 183.14694 L776.36719 188.19212 L777.34375 192.38797 L778.32031 195.69405 L779.29688 198.07854 L780.27344 199.51848 L781.25000 200.00000 L782.22656 199.51845 L783.20313 198.07849 L784.17969 195.69397 L785.15625 192.38785 L786.13281 188.19199 L787.10938 183.14679 L788.08594 177.30083 L789.06250 170.71042 L790.03906 163.43903 L791.01563 155.55667 L791.99219 147.13928 L792.96875 138.26790 L793.94531 129.02798 L794.92188 119.50851 L795.89844 109.80116 L796.87500 99.99940 L797.85156 90.19843 L798.82813 80.49108 L799.80469 70.97161 L800.78125 61.73171 L801.75781 52.86035 L802.73438 44.44298 L803.71094 36.56065 L804.68750 29.28929 L805.66406 22.69890 L806.64063 16.85298 L807.61719 11.80781 L808.59375 7.61198 L809.57031 4.30591 L810.54688 1.92143 L811.52344 0.48150 L812.50000 0.00000 L813.47656 0.48156 L814.45313 1.92153 L815.42969 4.30607 L816.40625 7.61219 L817.38281 11.80807 L818.35938 16.85328 L819.33594 22.69925 L820.31250 29.28967 L821.28906 36.56108 L822.26563 44.44344 L823.24219 52.86084 L824.21875 61.73222 L825.19531 70.97141 L826.17188 80.49087 L827.14844 90.19822 L828.12500 99.99995 L829.10156 109.80170 L830.07813 119.50905 L831.05469 129.02850 L832.03125 138.26840 L833.00781 147.13976 L833.98438 155.55713 L834.96094 163.43945 L835.93750 170.71082 L836.91406 177.30118 L837.89063 183.14709 L838.86719 188.19225 L839.84375 192.38806 L840.82031 195.69412 L841.79688 198.07860 L842.77344 199.51851 L843.75000 200.00000 L844.72656 199.51843 L845.70313 198.07843 L846.67969 195.69389 L847.65625 192.38776 L848.63281 188.19188 L849.60938 183.14664 L850.58594 177.30067 L851.56250 170.71077 L852.53906 163.43941 L853.51563 155.55708 L854.49219 147.13972 L855.46875 138.26837 L856.44531 129.02847 L857.42188 119.50900 L858.39844 109.80166 L859.37500 99.99992 L860.35156 90.19817 L861.32813 80.49083 L862.30469 70.97137 L863.28125 61.73148 L864.25781 52.86013 L865.23438 44.44277 L866.21094 36.56045 L867.18750 29.28910 L868.16406 22.69874 L869.14063 16.85284 L870.11719 11.80769 L871.09375 7.61189 L872.07031 4.30584 L873.04688 1.92138 L874.02344 0.48148 L875.00000 0.00000 L875.97656 0.48158 L876.95313 1.92159 L877.92969 4.30614 L878.90625 7.61200 L879.88281 11.80783 L880.85938 16.85300 L881.83594 22.69893 L882.81250 29.28932 L883.78906 36.56068 L884.76563 44.44302 L885.74219 52.86039 L886.71875 61.73175 L887.69531 70.97166 L888.67188 80.49112 L889.64844 90.19847 L890.62500 100.00021 L891.60156 109.80196 L892.57813 119.50929 L893.55469 129.02875 L894.53125 138.26865 L895.50781 147.13998 L896.48438 155.55734 L897.46094 163.43964 L898.43750 170.71098 L899.41406 177.30135 L900.39063 183.14723 L901.36719 188.19237 L902.34375 192.38817 L903.32031 195.69420 L904.29688 198.07864 L905.27344 199.51852 L906.25000 200.00000 L907.22656 199.51848 L908.20313 198.07854 L909.17969 195.69405 L910.15625 192.38795 L911.13281 188.19211 L912.10938 183.14693 L913.08594 177.30099 L914.06250 170.71059 L915.03906 163.43921 L916.01563 155.55687 L916.99219 147.13950 L917.96875 138.26813 L918.94531 129.02823 L919.92188 119.50875 L920.89844 109.80140 L921.87500 99.99966 L922.85156 90.19792 L923.82813 80.49058 L924.80469 70.97112 L925.78125 61.73124 L926.75781 52.85990 L927.73438 44.44255 L928.71094 36.56026 L929.68750 29.28892 L930.66406 22.69858 L931.64063 16.85270 L932.61719 11.80793 L933.59375 7.61208 L934.57031 4.30598 L935.54688 1.92148 L936.52344 0.48153 L937.50000 0.00000 L938.47656 0.48153 L939.45313 1.92149 L940.42969 4.30600 L941.40625 7.61210 L942.38281 11.80795 L943.35938 16.85315 L944.33594 22.69909 L945.31250 29.28950 L946.28906 36.56088 L947.26563 44.44323 L948.24219 52.86062 L949.21875 61.73199 L950.19531 70.97190 L951.17188 80.49137 L952.14844 90.19872 L953.12500 100.00047 L954.10156 109.80221 L955.07813 119.50954 L956.05469 129.02899 L957.03125 138.26888 L958.00781 147.14021 L958.98438 155.55756 L959.96094 163.43925 L960.93750 170.71063 L961.91406 177.30103 L962.89063 183.14696 L963.86719 188.19214 L964.84375 192.38797 L965.82031 195.69405 L966.79688 198.07855 L967.77344 199.51848 L968.75000 200.00000 L969.72656 199.51845 L970.70313 198.07849 L971.67969 195.69397 L972.65625 192.38785 L973.63281 188.19199 L974.60938 183.14679 L975.58594 177.30083 L976.56250 170.71042 L977.53906 163.43901 L978.51563 155.55667 L979.49219 147.13927 L980.46875 138.26790 L981.44531 129.02798 L982.42188 119.50850 L983.39844 109.80115 L984.37500 99.99940 L985.35156 90.19766 L986.32813 80.49033 L987.30469 70.97161 L988.28125 61.73171 L989.25781 52.86035 L990.23438 44.44297 L991.21094 36.56065 L992.18750 29.28928 L993.16406 22.69890 L994.14063 16.85297 L995.11719 11.80781 L996.09375 7.61198 L997.07031 4.30591 L998.04688 1.92143 L999.02344 0.48150" /><path fill="none" stroke="#000000" d="M0 300.00000  L0.00000 300.00000  L0.97656 300.00000  L1.95313 300.00000  L2.92969 300.00000  L3.90625 300.00000  L4.88281 300.00000  L5.85938 300.00000  L6.83594 300.00000  L7.81250 300.00000  L8.78906 300.00000  L9.76563 300.00000  L10.74219 300.00000  L11.71875 300.00000  L12.69531 300.00000  L13.67188 300.00000  L14.64844 300.00000  L15.62500 300.00000  L16.60156 300.00000  L17.57813 300.00000  L18.55469 300.00000  L19.53125 300.00000  L20.50781 300.00000  L21.48438 300.00000  L22.46094 300.00000  L23.43750 300.00000  L24.41406 300.00000  L25.39063 300.00000  L26.36719 300.00000  L27.34375 300.00000  L28.32031 300.00000  L29.29688 300.00000  L30.27344 300.00000  L31.25000 300.00000  L32.22656 300.00000  L33.20313 300.00000  L34.17969 300.00000  L35.15625 300.00000  L36.13281 300.00000  L37.10938 300.00000  L38.08594 300.00000  L39.06250 300.00000  L40.03906 300.00000  L41.01563 300.00000  L41.99219 300.00000  L42.96875 300.00000  L43.94531 300.00000  L44.92188 300.00000  L45.89844 300.00000  L46.87500 300.00000  L47.85156 300.00000  L48.82813 300.00000  L49.80469 300.00000  L50.78125 300.00000  L51.75781 300.00000  L52.73438 300.00000  L53.71094 300.00000  L54.68750 300.00000  L55.66406 300.00000  L56.64063 300.00000  L57.61719 300.00000  L58.59375 300.00000  L59.57031 300.00000  L60.54688 300.00000  L61.52344 300.00000  L62.50000 300.00000  L63.47656 300.00000  L64.45313 300.00000  L65.42969 300.00000  L66.40625 300.00000  L67.38281 300.00000  L68.35938 300.00000  L69.33594 300.00000  L70.31250 300.00000  L71.28906 300.00000  L72.26563 300.00000  L73.24219 300.00000  L74.21875 300.00000  L75.19531 300.00000  L76.17188 300.00000  L77.14844 300.00000  L78.12500 300.00000  L79.10156 300.00000  L80.07813 300.00000  L81.05469 300.00000  L82.03125 300.00000  L83.00781 300.00000  L83.98438 300.00000  L84.96094 300.00000  L85.93750 300.00000  L86.91406 300.00000  L87.89063 300.00000  L88.86719 300.00000  L89.84375 300.00000  L90.82031 300.00000  L91.79688 300.00000  L92.77344 300.00000  L93.75000 300.00000  L94.72656 300.00000  L95.70313 300.00000  L96.67969 300.00000  L97.65625 300.00000  L98.63281 300.00000  L99.60938 300.00000  L100.58594 300.00000  L101.56250 300.00000  L102.53906 300.00000  L103.51563 300.00000  L104.49219 300.00000  L105.46875 300.00000  L106.44531 300.00000  L107.42188 300.00000  L108.39844 300.00000  L109.37500 300.00000  L110.35156 300.00000  L111.32813 300.00000  L112.30469 300.00000  L113.28125 300.00000  L114.25781 300.00000  L115.23438 300.00000  L116.21094 300.00000  L117.18750 300.00000  L118.16406 300.00000  L119.14063 300.00000  L120.11719 300.00000  L121.09375 300.00000  L122.07031 300.00000  L123.04688 300.00000  L124.02344 300.00000  L125.00000 300.00000  L125.97656 300.00000  L126.95313 300.00000  L127.92969 300.00000  L128.90625 300.00000  L129.88281 300.00000  L130.85938 300.00000  L131.83594 300.00000  L132.81250 300.00000  L133.78906 300.00000  L134.76563 300.00000  L135.74219 300.00000  L136.71875 300.00000  L137.69531 300.00000  L138.67188 300.00000  L139.64844 300.00000  L140.62500 300.00000  L141.60156 300.00000  L142.57813 300.00000  L143.55469 300.00000  L144.53125 300.00000  L145.50781 300.00000  L146.48438 300.00000  L147.46094 300.00000  L148.43750 300.00000  L149.41406 300.00000  L150.39063 300.00000  L151.36719 300.00000  L152.34375 300.00000  L153.32031 300.00000  L154.29688 300.00000  L155.27344 300.00000  L156.25000 300.00000  L157.22656 300.00000  L158.20313 300.00000  L159.17969 300.00000  L160.15625 300.00000  L161.13281 300.00000  L162.10938 300.00000  L163.08594 300.00000  L164.06250 300.00000  L165.03906 300.00000  L166.01563 300.00000  L166.99219 300.00000  L167.96875 300.00000  L168.94531 300.00000  L169.92188 300.00000  L170.89844 300.00000  L171.87500 300.00000  L172.85156 300.00000  L173.82813 300.00000  L174.80469 300.00000  L175.78125 300.00000  L176.75781 300.00000  L177.73438 300.00000  L178.71094 300.00000  L179.68750 300.00000  L180.66406 300.00000  L181.64063 300.00000  L182.61719 300.00000  L183.59375 300.00000  L184.57031 300.00000  L185.54688 300.00000  L186.52344 300.00000  L187.50000 300.00000  L188.47656 300.00000  L189.45313 300.00000  L190.42969 300.00000  L191.40625 300.00000  L192.38281 300.00000  L193.35938 300.00000  L194.33594 300.00000  L195.31250 300.00000  L196.28906 300.00000  L197.26563 300.00000  L198.24219 300.00000  L199.21875 300.00000  L200.19531 300.00000  L201.17188 300.00000  L202.14844 300.00000  L203.12500 300.00000  L204.10156 300.00000  L205.07813 300.00000  L206.05469 300.00000  L207.03125 300.00000  L208.00781 300.00000  L208.98438 300.00000  L209.96094 300.00000  L210.93750 300.00000  L211.91406 300.00000  L212.89063 300.00000  L213.86719 300.00000  L214.84375 300.00000  L215.82031 300.00000  L216.79688 300.00000  L217.77344 300.00000  L218.75000 300.00000  L219.72656 300.00000  L220.70313 300.00000  L221.67969 300.00000  L222.65625 300.00000  L223.63281 300.00000  L224.60938 300.00000  L225.58594 300.00000  L226.56250 300.00000  L227.53906 300.00000  L228.51563 300.00000  L229.49219 300.00000  L230.46875 300.00000  L231.44531 300.00000  L232.42188 300.00000  L233.39844 300.00000  L234.37500 300.00000  L235.35156 300.00000  L236.32813 300.00000  L237.30469 300.00000  L238.28125 300.00000  L239.25781 300.00000  L240.23438 300.00000  L241.21094 300.00000  L242.18750 300.00000  L243.16406 300.00000  L244.14063 300.00000  L245.11719 300.00000  L246.09375 300.00000  L247.07031 300.00000  L248.04688 300.00000  L249.02344 300.00000  L250.00000 300.00000  L250.97656 300.00000  L251.95313 300.00000  L252.92969 300.00000  L253.90625 300.00000  L254.88281 300.00000  L255.85938 300.00000  L256.83594 300.00000  L257.81250 300.00000  L258.78906 300.00000  L259.76563 300.00000  L260.74219 300.00000  L261.71875 300.00000  L262.69531 300.00000  L263.67188 300.00000  L264.64844 300.00000  L265.62500 300.00000  L266.60156 300.00000  L267.57813 300.00000  L268.55469 300.00000  L269.53125 300.00000  L270.50781 300.00000  L271.48438 300.00000  L272.46094 300.00000  L273.43750 300.00000  L274.41406 300.00000  L275.39063 300.00000  L276.36719 300.00000  L277.34375 300.00000  L278.32031 300.00000  L279.29688 300.00000  L280.27344 300.00000  L281.25000 300.00000  L282.22656 300.00000  L283.20313 300.00000  L284.17969 300.00000  L285.15625 300.00000  L286.13281 300.00000  L287.10938 300.00000  L288.08594 300.00000  L289.06250 300.00000  L290.03906 300.00000  L291.01563 300.00000  L291.99219 300.00000  L292.96875 300.00000  L293.94531 300.00000  L294.92188 300.00000  L295.89844 300.00000  L296.87500 300.00000  L297.85156 300.00000  L298.82813 300.00000  L299.80469 300.00000  L300.78125 300.00000  L301.75781 300.00000  L302.73438 300.00000  L303.71094 300.00000  L304.68750 300.00000  L305.66406 300.00000  L306.64063 300.00000  L307.61719 300.00000  L308.59375 300.00000  L309.57031 300.00000  L310.54688 300.00000  L311.52344 300.00000  L312.50000 300.00000  L313.47656 300.00000  L314.45313 300.00000  L315.42969 300.00000  L316.40625 300.00000  L317.38281 300.00000  L318.35938 300.00000  L319.33594 300.00000  L320.31250 300.00000  L321.28906 300.00000  L322.26563 300.00000  L323.24219 300.00000  L324.21875 300.00000  L325.19531 300.00000  L326.17188 300.00000  L327.14844 300.00000  L328.12500 300.00000  L329.10156 300.00000  L330.07813 300.00000  L331.05469 300.00000  L332.03125 300.00000  L333.00781 300.00000  L333.98438 300.00000  L334.96094 300.00000  L335.93750 300.00000  L336.91406 300.00000  L337.89063 300.00000  L338.86719 300.00000  L339.84375 300.00000  L340.82031 300.00000  L341.79688 300.00000  L342.77344 300.00000  L343.75000 300.00000  L344.72656 300.00000  L345.70313 300.00000  L346.67969 300.00000  L347.65625 300.00000  L348.63281 300.00000  L349.60938 300.00000  L350.58594 300.00000  L351.56250 300.00000  L352.53906 300.00000  L353.51563 300.00000  L354.49219 300.00000  L355.46875 300.00000  L356.44531 300.00000  L357.42188 300.00000  L358.39844 300.00000  L359.37500 300.00000  L360.35156 300.00000  L361.32813 300.00000  L362.30469 300.00000  L363.28125 300.00000  L364.25781 300.00000  L365.23438 300.00000  L366.21094 300.00000  L367.18750 300.00000  L368.16406 300.00000  L369.14063 300.00000  L370.11719 300.00000  L371.09375 300.00000  L372.07031 300.00000  L373.04688 300.00000  L374.02344 300.00000  L375.00000 300.00000  L375.97656 300.00000  L376.95313 300.00000  L377.92969 300.00000  L378.90625 300.00000  L379.88281 300.00000  L380.85938 300.00000  L381.83594 300.00000  L382.81250 300.00000  L383.78906 300.00000  L384.76563 300.00000  L385.74219 300.00000  L386.71875 300.00000  L387.69531 300.00000  L388.67188 300.00000  L389.64844 300.00000  L390.62500 300.00000  L391.60156 300.00000  L392.57813 300.00000  L393.55469 300.00000  L394.53125 300.00000  L395.50781 300.00000  L396.48438 300.00000  L397.46094 300.00000  L398.43750 300.00000  L399.41406 300.00000  L400.39063 300.00000  L401.36719 300.00000  L402.34375 300.00000  L403.32031 300.00000  L404.29688 300.00000  L405.27344 300.00000  L406.25000 300.00000  L407.22656 300.00000  L408.20313 300.00000  L409.17969 300.00000  L410.15625 300.00000  L411.13281 300.00000  L412.10938 300.00000  L413.08594 300.00000  L414.06250 300.00000  L415.03906 300.00000  L416.01563 300.00000  L416.99219 300.00000  L417.96875 300.00000  L418.94531 300.00000  L419.92188 300.00000  L420.89844 300.00000  L421.87500 300.00000  L422.85156 300.00000  L423.82813 300.00000  L424.80469 300.00000  L425.78125 300.00000  L426.75781 300.00000  L427.73438 300.00000  L428.71094 300.00000  L429.68750 300.00000  L430.66406 300.00000  L431.64063 300.00000  L432.61719 300.00000  L433.59375 300.00000  L434.57031 300.00000  L435.54688 300.00000  L436.52344 300.00000  L437.50000 300.00000  L438.47656 300.00000  L439.45313 300.00000  L440.42969 300.00000  L441.40625 300.00000  L442.38281 300.00000  L443.35938 300.00000  L444.33594 300.00000  L445.31250 300.00000  L446.28906 300.00000  L447.26563 300.00000  L448.24219 300.00000  L449.21875 300.00000  L450.19531 300.00000  L451.17188 300.00000  L452.14844 300.00000  L453.12500 300.00000  L454.10156 300.00000  L455.07813 300.00000  L456.05469 300.00000  L457.03125 300.00000  L458.00781 300.00000  L458.98438 300.00000  L459.96094 300.00000  L460.93750 300.00000  L461.91406 300.00000  L462.89063 300.00000  L463.86719 300.00000  L464.84375 300.00000  L465.82031 300.00000  L466.79688 300.00000  L467.77344 300.00000  L468.75000 300.00000  L469.72656 300.00000  L470.70313 300.00000  L471.67969 300.00000  L472.65625 300.00000  L473.63281 300.00000  L474.60938 300.00000  L475.58594 300.00000  L476.56250 300.00000  L477.53906 300.00000  L478.51563 300.00000  L479.49219 300.00000  L480.46875 300.00000  L481.44531 300.00000  L482.42188 300.00000  L483.39844 300.00000  L484.37500 300.00000  L485.35156 300.00000  L486.32813 300.00000  L487.30469 300.00000  L488.28125 300.00000  L489.25781 300.00000  L490.23438 300.00000  L491.21094 300.00000  L492.18750 300.00000  L493.16406 300.00000  L494.14063 300.00000  L495.11719 300.00000  L496.09375 300.00000  L497.07031 300.00000  L498.04688 300.00000  L499.02344 300.00000  L500.00000 300.00000  L500.97656 300.00000  L501.95313 300.00000  L502.92969 300.00000  L503.90625 300.00000  L504.88281 300.00000  L505.85938 300.00000  L506.83594 300.00000  L507.81250 300.00000  L508.78906 300.00000  L509.76563 300.00000  L510.74219 300.00000  L511.71875 300.00000  L512.69531 300.00000  L513.67188 300.00000  L514.64844 300.00000  L515.62500 300.00000  L516.60156 300.00000  L517.57813 300.00000  L518.55469 300.00000  L519.53125 300.00000  L520.50781 300.00000  L521.48438 300.00000  L522.46094 300.00000  L523.43750 300.00000  L524.41406 300.00000  L525.39063 300.00000  L526.36719 300.00000  L527.34375 300.00000  L528.32031 300.00000  L529.29688 300.00000  L530.27344 300.00000  L531.25000 300.00000  L532.22656 300.00000  L533.20313 300.00000  L534.17969 300.00000  L535.15625 300.00000  L536.13281 300.00000  L537.10938 300.00000  L538.08594 300.00000  L539.06250 300.00000  L540.03906 300.00000  L541.01563 300.00000  L541.99219 300.00000  L542.96875 300.00000  L543.94531 300.00000  L544.92188 300.00000  L545.89844 300.00000  L546.87500 300.00000  L547.85156 300.00000  L548.82813 300.00000  L549.80469 300.00000  L550.78125 300.00000  L551.75781 300.00000  L552.73438 300.00000  L553.71094 300.00000  L554.68750 300.00000  L555.66406 300.00000  L556.64063 300.00000  L557.61719 300.00000  L558.59375 300.00000  L559.57031 300.00000  L560.54688 300.00000  L561.52344 300.00000  L562.50000 300.00000  L563.47656 300.00000  L564.45313 300.00000  L565.42969 300.00000  L566.40625 300.00000  L567.38281 300.00000  L568.35938 300.00000  L569.33594 300.00000  L570.31250 300.00000  L571.28906 300.00000  L572.26563 300.00000  L573.24219 300.00000  L574.21875 300.00000  L575.19531 300.00000  L576.17188 300.00000  L577.14844 300.00000  L578.12500 300.00000  L579.10156 300.00000  L580.07813 300.00000  L581.05469 300.00000  L582.03125 300.00000  L583.00781 300.00000  L583.98438 300.00000  L584.96094 300.00000  L585.93750 300.00000  L586.91406 300.00000  L587.89063 300.00000  L588.86719 300.00000  L589.84375 300.00000  L590.82031 300.00000  L591.79688 300.00000  L592.77344 300.00000  L593.75000 300.00000  L594.72656 300.00000  L595.70313 300.00000  L596.67969 300.00000  L597.65625 300.00000  L598.63281 300.00000  L599.60938 300.00000  L600.58594 300.00000  L601.56250 300.00000  L602.53906 300.00000  L603.51563 300.00000  L604.49219 300.00000  L605.46875 300.00000  L606.44531 300.00000  L607.42188 300.00000  L608.39844 300.00000  L609.37500 300.00000  L610.35156 300.00000  L611.32813 300.00000  L612.30469 300.00000  L613.28125 300.00000  L614.25781 300.00000  L615.23438 300.00000  L616.21094 300.00000  L617.18750 300.00000  L618.16406 300.00000  L619.14063 300.00000  L620.11719 300.00000  L621.09375 300.00000  L622.07031 300.00000  L623.04688 300.00000  L624.02344 300.00000  L625.00000 300.00000  L625.97656 300.00000  L626.95313 300.00000  L627.92969 300.00000  L628.90625 300.00000  L629.88281 300.00000  L630.85938 300.00000  L631.83594 300.00000  L632.81250 300.00000  L633.78906 300.00000  L634.76563 300.00000  L635.74219 300.00000  L636.71875 300.00000  L637.69531 300.00000  L638.67188 300.00000  L639.64844 300.00000  L640.62500 300.00000  L641.60156 300.00000  L642.57813 300.00000  L643.55469 300.00000  L644.53125 300.00000  L645.50781 300.00000  L646.48438 300.00000  L647.46094 300.00000  L648.43750 300.00000  L649.41406 300.00000  L650.39063 300.00000  L651.36719 300.00000  L652.34375 300.00000  L653.32031 300.00000  L654.29688 300.00000  L655.27344 300.00000  L656.25000 300.00000  L657.22656 300.00000  L658.20313 300.00000  L659.17969 300.00000  L660.15625 300.00000  L661.13281 300.00000  L662.10938 300.00000  L663.08594 300.00000  L664.06250 300.00000  L665.03906 300.00000  L666.01563 300.00000  L666.99219 300.00000  L667.96875 300.00000  L668.94531 300.00000  L669.92188 300.00000  L670.89844 300.00000  L671.87500 300.00000  L672.85156 300.00000  L673.82813 300.00000  L674.80469 300.00000  L675.78125 300.00000  L676.75781 300.00000  L677.73438 300.00000  L678.71094 300.00000  L679.68750 300.00000  L680.66406 300.00000  L681.64063 300.00000  L682.61719 300.00000  L683.59375 300.00000  L684.57031 300.00000  L685.54688 300.00000  L686.52344 300.00000  L687.50000 300.00000  L688.47656 300.00000  L689.45313 300.00000  L690.42969 300.00000  L691.40625 300.00000  L692.38281 300.00000  L693.35938 300.00000  L694.33594 300.00000  L695.31250 300.00000  L696.28906 300.00000  L697.26563 300.00000  L698.24219 300.00000  L699.21875 300.00000  L700.19531 300.00000  L701.17188 300.00000  L702.14844 300.00000  L703.12500 300.00000  L704.10156 300.00000  L705.07813 300.00000  L706.05469 300.00000  L707.03125 300.00000  L708.00781 300.00000  L708.98438 300.00000  L709.96094 300.00000  L710.93750 300.00000  L711.91406 300.00000  L712.89063 300.00000  L713.86719 300.00000  L714.84375 300.00000  L715.82031 300.00000  L716.79688 300.00000  L717.77344 300.00000  L718.75000 300.00000  L719.72656 300.00000  L720.70313 300.00000  L721.67969 300.00000  L722.65625 300.00000  L723.63281 300.00000  L724.60938 300.00000  L725.58594 300.00000  L726.56250 300.00000  L727.53906 300.00000  L728.51563 300.00000  L729.49219 300.00000  L730.46875 300.00000  L731.44531 300.00000  L732.42188 300.00000  L733.39844 300.00000  L734.37500 300.00000  L735.35156 300.00000  L736.32813 300.00000  L737.30469 300.00000  L738.28125 300.00000  L739.25781 300.00000  L740.23438 300.00000  L741.21094 300.00000  L742.18750 300.00000  L743.16406 300.00000  L744.14063 300.00000  L745.11719 300.00000  L746.09375 300.00000  L747.07031 300.00000  L748.04688 300.00000  L749.02344 300.00000  L750.00000 300.00000  L750.97656 300.00000  L751.95313 300.00000  L752.92969 300.00000  L753.90625 300.00000  L754.88281 300.00000  L755.85938 300.00000  L756.83594 300.00000  L757.81250 300.00000  L758.78906 300.00000  L759.76563 300.00000  L760.74219 300.00000  L761.71875 300.00000  L762.69531 300.00000  L763.67188 300.00000  L764.64844 300.00000  L765.62500 300.00000  L766.60156 300.00000  L767.57813 300.00000  L768.55469 300.00000  L769.53125 300.00000  L770.50781 300.00000  L771.48438 300.00000  L772.46094 300.00000  L773.43750 300.00000  L774.41406 300.00000  L775.39063 300.00000  L776.36719 300.00000  L777.34375 300.00000  L778.32031 300.00000  L779.29688 300.00000  L780.27344 300.00000  L781.25000 300.00000  L782.22656 300.00000  L783.20313 300.00000  L784.17969 300.00000  L785.15625 300.00000  L786.13281 300.00000  L787.10938 300.00000  L788.08594 300.00000  L789.06250 300.00000  L790.03906 300.00000  L791.01563 300.00000  L791.99219 300.00000  L792.96875 300.00000  L793.94531 300.00000  L794.92188 300.00000  L795.89844 300.00000  L796.87500 300.00000  L797.85156 300.00000  L798.82813 300.00000  L799.80469 300.00000  L800.78125 300.00000  L801.75781 300.00000  L802.73438 300.00000  L803.71094 300.00000  L804.68750 300.00000  L805.66406 300.00000  L806.64063 300.00000  L807.61719 300.00000  L808.59375 300.00000  L809.57031 300.00000  L810.54688 300.00000  L811.52344 300.00000  L812.50000 300.00000  L813.47656 300.00000  L814.45313 300.00000  L815.42969 300.00000  L816.40625 300.00000  L817.38281 300.00000  L818.35938 300.00000  L819.33594 300.00000  L820.31250 300.00000  L821.28906 300.00000  L822.26563 300.00000  L823.24219 300.00000  L824.21875 300.00000  L825.19531 300.00000  L826.17188 300.00000  L827.14844 300.00000  L828.12500 300.00000  L829.10156 300.00000  L830.07813 300.00000  L831.05469 300.00000  L832.03125 300.00000  L833.00781 300.00000  L833.98438 300.00000  L834.96094 300.00000  L835.93750 300.00000  L836.91406 300.00000  L837.89063 300.00000  L838.86719 300.00000  L839.84375 300.00000  L840.82031 300.00000  L841.79688 300.00000  L842.77344 300.00000  L843.75000 300.00000  L844.72656 300.00000  L845.70313 300.00000  L846.67969 300.00000  L847.65625 300.00000  L848.63281 300.00000  L849.60938 300.00000  L850.58594 300.00000  L851.56250 300.00000  L852.53906 300.00000  L853.51563 300.00000  L854.49219 300.00000  L855.46875 300.00000  L856.44531 300.00000  L857.42188 300.00000  L858.39844 300.00000  L859.37500 300.00000  L860.35156 300.00000  L861.32813 300.00000  L862.30469 300.00000  L863.28125 300.00000  L864.25781 300.00000  L865.23438 300.00000  L866.21094 300.00000  L867.18750 300.00000  L868.16406 300.00000  L869.14063 300.00000  L870.11719 300.00000  L871.09375 300.00000  L872.07031 300.00000  L873.04688 300.00000  L874.02344 300.00000  L875.00000 300.00000  L875.97656 300.00000  L876.95313 300.00000  L877.92969 300.00000  L878.90625 300.00000  L879.88281 300.00000  L880.85938 300.00000  L881.83594 300.00000  L882.81250 300.00000  L883.78906 300.00000  L884.76563 300.00000  L885.74219 300.00000  L886.71875 300.00000  L887.69531 300.00000  L888.67188 300.00000  L889.64844 300.00000  L890.62500 300.00000  L891.60156 300.00000  L892.57813 300.00000  L893.55469 300.00000  L894.53125 300.00000  L895.50781 300.00000  L896.48438 300.00000  L897.46094 300.00000  L898.43750 300.00000  L899.41406 300.00000  L900.39063 300.00000  L901.36719 300.00000  L902.34375 300.00000  L903.32031 300.00000  L904.29688 300.00000  L905.27344 300.00000  L906.25000 300.00000  L907.22656 300.00000  L908.20313 300.00000  L909.17969 300.00000  L910.15625 300.00000  L911.13281 300.00000  L912.10938 300.00000  L913.08594 300.00000  L914.06250 300.00000  L915.03906 300.00000  L916.01563 300.00000  L916.99219 300.00000  L917.96875 300.00000  L918.94531 300.00000  L919.92188 300.00000  L920.89844 300.00000  L921.87500 300.00000  L922.85156 300.00000  L923.82813 300.00000  L924.80469 300.00000  L925.78125 300.00000  L926.75781 300.00000  L927.73438 300.00000  L928.71094 300.00000  L929.68750 300.00000  L930.66406 300.00000  L931.64063 300.00000  L932.61719 300.00000  L933.59375 300.00000  L934.57031 300.00000  L935.54688 300.00000  L936.52344 300.00000  L937.50000 300.00000  L938.47656 300.00000  L939.45313 300.00000  L940.42969 300.00000  L941.40625 300.00000  L942.38281 300.00000  L943.35938 300.00000  L944.33594 300.00000  L945.31250 300.00000  L946.28906 300.00000  L947.26563 300.00000  L948.24219 300.00000  L949.21875 300.00000  L950.19531 300.00000  L951.17188 300.00000  L952.14844 300.00000  L953.12500 300.00000  L954.10156 300.00000  L955.07813 300.00000  L956.05469 300.00000  L957.03125 300.00000  L958.00781 300.00000  L958.98438 300.00000  L959.96094 300.00000  L960.93750 300.00000  L961.91406 300.00000  L962.89063 300.00000  L963.86719 300.00000  L964.84375 300.00000  L965.82031 300.00000  L966.79688 300.00000  L967.77344 300.00000  L968.75000 300.00000  L969.72656 300.00000  L970.70313 300.00000  L971.67969 300.00000  L972.65625 300.00000  L973.63281 300.00000  L974.60938 300.00000  L975.58594 300.00000  L976.56250 300.00000  L977.53906 300.00000  L978.51563 300.00000  L979.49219 300.00000  L980.46875 300.00000  L981.44531 300.00000  L982.42188 300.00000  L983.39844 300.00000  L984.37500 300.00000  L985.35156 300.00000  L986.32813 300.00000  L987.30469 300.00000  L988.28125 300.00000  L989.25781 300.00000  L990.23438 300.00000  L991.21094 300.00000  L992.18750 300.00000  L993.16406 300.00000  L994.14063 300.00000  L995.11719 300.00000  L996.09375 300.00000  L997.07031 300.00000  L998.04688 300.00000  L999.02344 300.00000 " /></g><text x="1000.00000" dx="10" y="100.00000">[-1.00000;1.00000]</text><text x="1000.00000" dx="10" y="300.00000">[-0.00000;0.00000]</text></svg>