<svg xmlns="http://www.w3.org/2000/svg" version="1.1"><g stroke-width="0.6"><path fill="none" stroke="#000000" d="M0 150.58902 L1000.00000 150.58902" /><path fill="none" stroke="#000000" d="M0 300.00000 L1000.00000 300.00000" /><path fill="none" stroke="#000000" d="M500.00000 0 L500.00000 400.00000" /><path fill="none" stroke="#000000" d="M0 150.58902  L0.00000 145.69267 L0.97656 145.67496 L1.95313 145.62100 L2.92969 145.52826 L3.90625 145.39214 L4.88281 145.20541 L5.85938 144.95720 L6.83594 144.63115 L7.81250 144.20230 L8.78906 143.63136 L9.76563 142.85338 L10.74219 141.75327 L11.71875 140.10733 L12.69531 137.41611 L13.67188 132.29321 L14.64844 118.92862 L15.62500 0.00000 L16.60156 200.00000 L17.57813 170.94742 L18.55469 163.07687 L19.53125 159.42342 L20.50781 157.32045 L21.48438 155.95775 L22.46094 155.00557 L23.43750 154.30450 L24.41406 153.76808 L25.39063 153.34534 L26.36719 153.00430 L27.34375 152.72394 L28.32031 152.48979 L29.29688 152.29166 L30.27344 152.12209 L31.25000 151.97552 L32.22656 151.84778 L33.20313 151.73560 L34.17969 151.63643 L35.15625 151.54822 L36.13281 151.46935 L37.10938 151.39848 L38.08594 151.33452 L39.06250 151.27657 L40.03906 151.22386 L41.01563 151.17575 L41.99219 151.13171 L42.96875 151.09126 L43.94531 151.05403 L44.92188 151.01965 L45.89844 150.98785 L46.87500 150.95836 L47.85156 150.93095 L48.82813 150.90543 L49.80469 150.88162 L50.78125 150.85938 L51.75781 150.83855 L52.73438 150.81902 L53.71094 150.80067 L54.68750 150.78345 L55.66406 150.76721 L56.64063 150.75189 L57.61719 150.73744 L58.59375 150.72379 L59.57031 150.71086 L60.54688 150.69861 L61.52344 150.68701 L62.50000 150.67601 L63.47656 150.66554 L64.45313 150.65558 L65.42969 150.64610 L66.40625 150.63707 L67.38281 150.62848 L68.35938 150.62027 L69.33594 150.61241 L70.31250 150.60490 L71.28906 150.59776 L72.26563 150.59090 L73.24219 150.58434 L74.21875 150.57805 L75.19531 150.57202 L76.17188 150.56622 L77.14844 150.56065 L78.12500 150.55533 L79.10156 150.55019 L80.07813 150.54526 L81.05469 150.54051 L82.03125 150.53593 L83.00781 150.53154 L83.98438 150.52730 L84.96094 150.52321 L85.93750 150.51927 L86.91406 150.51546 L87.89063 150.51178 L88.86719 150.50824 L89.84375 150.50481 L90.82031 150.50150 L91.79688 150.49829 L92.77344 150.49519 L93.75000 150.49220 L94.72656 150.48930 L95.70313 150.48648 L96.67969 150.48376 L97.65625 150.48112 L98.63281 150.47858 L99.60938 150.47609 L100.58594 150.47368 L101.56250 150.47133 L102.53906 150.46909 L103.51563 150.46689 L104.49219 150.46475 L105.46875 150.46268 L106.44531 150.46066 L107.42188 150.45869 L108.39844 150.45679 L109.37500 150.45493 L110.35156 150.45314 L111.32813 150.45140 L112.30469 150.44968 L113.28125 150.44800 L114.25781 150.44643 L115.23438 150.44478 L116.21094 150.44328 L117.18750 150.44177 L118.16406 150.44032 L119.14063 150.43890 L120.11719 150.43752 L121.09375 150.43616 L122.07031 150.43484 L123.04688 150.43355 L124.02344 150.43230 L125.00000 150.43108 L125.97656 150.42989 L126.95313 150.42871 L127.92969 150.42757 L128.90625 150.42645 L129.88281 150.42535 L130.85938 150.42430 L131.83594 150.42326 L132.81250 150.42224 L133.78906 150.42125 L134.76563 150.42027 L135.74219 150.41933 L136.71875 150.41838 L137.69531 150.41748 L138.67188 150.41660 L139.64844 150.41571 L140.62500 150.41487 L141.60156 150.41403 L142.57813 150.41321 L143.55469 150.41241 L144.53125 150.41164 L145.50781 150.41086 L146.48438 150.41010 L147.46094 150.40933 L148.43750 150.40865 L149.41406 150.40794 L150.39063 150.40724 L151.36719 150.40656 L152.34375 150.40590 L153.32031 150.40523 L154.29688 150.40460 L155.27344 150.40398 L156.25000 150.40334 L157.22656 150.40274 L158.20313 150.40215 L159.17969 150.40157 L160.15625 150.40099 L161.13281 150.40044 L162.10938 150.39989 L163.08594 150.39934 L164.06250 150.39880 L165.03906 150.39828 L166.01563 150.39778 L166.99219 150.39728 L167.96875 150.39677 L168.94531 150.39629 L169.92188 150.39581 L170.89844 150.39534 L171.87500 150.39488 L172.85156 150.39442 L173.82813 150.39398 L174.80469 150.39355 L175.78125 150.39311 L176.75781 150.39270 L177.73438 150.39227 L178.71094 150.39188 L179.68750 150.39146 L180.66406 150.39108 L181.64063 150.39069 L182.61719 150.39030 L183.59375 150.38992 L184.57031 150.38954 L185.54688 150.38919 L186.52344 150.38884 L187.50000 150.38846 L188.47656 150.38814 L189.45313 150.38777 L190.42969 150.38745 L191.40625 150.38712 L192.38281 150.38680 L193.35938 150.38649 L194.33594 150.38615 L195.31250 150.38583 L196.28906 150.38554 L197.26563 150.38522 L198.24219 150.38495 L199.21875 150.38464 L200.19531 150.38429 L201.17188 150.38403 L202.14844 150.38387 L203.12500 150.38356 L204.10156 150.38326 L205.07813 150.38301 L206.05469 150.38274 L207.03125 150.38246 L208.00781 150.38222 L208.98438 150.38196 L209.96094 150.38171 L210.93750 150.38147 L211.91406 150.38123 L212.89063 150.38098 L213.86719 150.38075 L214.84375 150.38051 L215.82031 150.38029 L216.79688 150.38005 L217.77344 150.37984 L218.75000 150.37962 L219.72656 150.37939 L220.70313 150.37920 L221.67969 150.37897 L222.65625 150.37877 L223.63281 150.37857 L224.60938 150.37836 L225.58594 150.37817 L226.56250 150.37796 L227.53906 150.37776 L228.51563 150.37758 L229.49219 150.37738 L230.46875 150.37721 L231.44531 150.37700 L232.42188 150.37677 L233.39844 150.37668 L234.37500 150.37656 L235.35156 150.37633 L236.32813 150.37616 L237.30469 150.37601 L238.28125 150.37581 L239.25781 150.37566 L240.23438 150.37549 L241.21094 150.37532 L242.18750 150.37517 L243.16406 150.37498 L244.14063 150.37485 L245.11719 150.37471 L246.09375 150.37451 L247.07031 150.37439 L248.04688 150.37424 L249.02344 150.37408 L250.00000 150.37395 L250.97656 150.37379 L251.95313 150.37366 L252.92969 150.37354 L253.90625 150.37338 L254.88281 150.37326 L255.85938 150.37312 L256.83594 150.37299 L257.81250 150.37285 L258.78906 150.37273 L259.76563 150.37260 L260.74219 150.37247 L261.71875 150.37234 L262.69531 150.37222 L263.67188 150.37210 L264.64844 150.37198 L265.62500 150.37186 L266.60156 150.37175 L267.57813 150.37163 L268.55469 150.37152 L269.53125 150.37140 L270.50781 150.37129 L271.48438 150.37117 L272.46094 150.37106 L273.43750 150.37097 L274.41406 150.37085 L275.39063 150.37074 L276.36719 150.37064 L277.34375 150.37053 L278.32031 150.37042 L279.29688 150.37033 L280.27344 150.37024 L281.25000 150.37013 L282.22656 150.37003 L283.20313 150.36993 L284.17969 150.36984 L285.15625 150.36975 L286.13281 150.36966 L287.10938 150.36955 L288.08594 150.36946 L289.06250 150.36940 L290.03906 150.36928 L291.01563 150.36920 L291.99219 150.36913 L292.96875 150.36903 L293.94531 150.36894 L294.92188 150.36887 L295.89844 150.36877 L296.87500 150.36870 L297.85156 150.36862 L298.82813 150.36853 L299.80469 150.36845 L300.78125 150.36836 L301.75781 150.36830 L302.73438 150.36823 L303.71094 150.36813 L304.68750 150.36807 L305.66406 150.36798 L306.64063 150.36792 L307.61719 150.36784 L308.59375 150.36777 L309.57031 150.36769 L310.54688 150.36763 L311.52344 150.36755 L312.50000 150.36749 L313.47656 150.36742 L314.45313 150.36736 L315.42969 150.36728 L316.40625 150.36722 L317.38281 150.36716 L318.35938 150.36707 L319.33594 150.36702 L320.31250 150.36694 L321.28906 150.36690 L322.26563 150.36682 L323.24219 150.36678 L324.21875 150.36671 L325.19531 150.36665 L326.17188 150.36659 L327.14844 150.36653 L328.12500 150.36649 L329.10156 150.36642 L330.07813 150.36635 L331.05469 150.36632 L332.03125 150.36624 L333.00781 150.36615 L333.98438 150.36612 L334.96094 150.36607 L335.93750 150.36601 L336.91406 150.36597 L337.89063 150.36591 L338.86719 150.36586 L339.84375 150.36581 L340.82031 150.36575 L341.79688 150.36571 L342.77344 150.36566 L343.75000 150.36562 L344.72656 150.36557 L345.70313 150.36551 L346.67969 150.36546 L347.65625 150.36542 L348.63281 150.36537 L349.60938 150.36533 L350.58594 150.36528 L351.56250 150.36523 L352.53906 150.36519 L353.51563 150.36514 L354.49219 150.36511 L355.46875 150.36507 L356.44531 150.36502 L357.42188 150.36497 L358.39844 150.36493 L359.37500 150.36488 L360.35156 150.36487 L361.32813 150.36481 L362.30469 150.36478 L363.28125 150.36473 L364.25781 150.36467 L365.23438 150.36462 L366.21094 150.36461 L367.18750 150.36456 L368.16406 150.36453 L369.14063 150.36449 L370.11719 150.36446 L371.09375 150.36443 L372.07031 150.36440 L373.04688 150.36435 L374.02344 150.36430 L375.00000 150.36427 L375.97656 150.36424 L376.95313 150.36420 L377.92969 150.36418 L378.90625 150.36415 L379.88281 150.36411 L380.85938 150.36409 L381.83594 150.36404 L382.81250 150.36401 L383.78906 150.36398 L384.76563 150.36395 L385.74219 150.36392 L386.71875 150.36389 L387.69531 150.36386 L388.67188 150.36383 L389.64844 150.36380 L390.62500 150.36378 L391.60156 150.36374 L392.57813 150.36372 L393.55469 150.36369 L394.53125 150.36366 L395.50781 150.36363 L396.48438 150.36360 L397.46094 150.36359 L398.43750 150.36356 L399.41406 150.36353 L400.39063 150.36351 L401.36719 150.36348 L402.34375 150.36345 L403.32031 150.36343 L404.29688 150.36340 L405.27344 150.36337 L406.25000 150.36336 L407.22656 150.36333 L408.20313 150.36330 L409.17969 150.36328 L410.15625 150.36327 L411.13281 150.36325 L412.10938 150.36320 L413.08594 150.36319 L414.06250 150.36317 L415.03906 150.36314 L416.01563 150.36314 L416.99219 150.36308 L417.96875 150.36307 L418.94531 150.36304 L419.92188 150.36311 L420.89844 150.36302 L421.87500 150.36302 L422.85156 150.36302 L423.82813 150.36298 L424.80469 150.36296 L425.78125 150.36295 L426.75781 150.36292 L427.73438 150.36292 L428.71094 150.36290 L429.68750 150.36287 L430.66406 150.36285 L431.64063 150.36284 L432.61719 150.36282 L433.59375 150.36281 L434.57031 150.36279 L435.54688 150.36278 L436.52344 150.36276 L437.50000 150.36275 L438.47656 150.36273 L439.45313 150.36272 L440.42969 150.36270 L441.40625 150.36269 L442.38281 150.36267 L443.35938 150.36266 L444.33594 150.36264 L445.31250 150.36264 L446.28906 150.36261 L447.26563 150.36261 L448.24219 150.36261 L449.21875 150.36252 L450.19531 150.36258 L451.17188 150.36256 L452.14844 150.36258 L453.12500 150.36253 L454.10156 150.36255 L455.07813 150.36253 L456.05469 150.36250 L457.03125 150.36250 L458.00781 150.36249 L458.98438 150.36249 L459.96094 150.36249 L460.93750 150.36246 L461.91406 150.36246 L462.89063 150.36244 L463.86719 150.36243 L464.84375 150.36244 L465.82031 150.36243 L466.79688 150.36241 L467.77344 150.36241 L468.75000 150.36240 L469.72656 150.36240 L470.70313 150.36238 L471.67969 150.36238 L472.65625 150.36238 L473.63281 150.36237 L474.60938 150.36237 L475.58594 150.36237 L476.56250 150.36235 L477.53906 150.36235 L478.51563 150.36234 L479.49219 150.36234 L480.46875 150.36234 L481.44531 150.36232 L482.42188 150.36232 L483.39844 150.36232 L484.37500 150.36232 L485.35156 150.36232 L486.32813 150.36230 L487.30469 150.36230 L488.28125 150.36230 L489.25781 150.36229 L490.23438 150.36230 L491.21094 150.36230 L492.18750 150.36227 L493.16406 150.36230 L494.14063 150.36229 L495.11719 150.36227 L496.09375 150.36229 L497.07031 150.36229 L498.04688 150.36229 L499.02344 150.36229 L500.00000 150.36227 L500.97656 150.36229 L501.95313 150.36229 L502.92969 150.36229 L503.90625 150.36229 L504.88281 150.36227 L505.85938 150.36229 L506.83594 150.36230 L507.81250 150.36227 L508.78906 150.36230 L509.76563 150.36230 L510.74219 150.36229 L511.71875 150.36230 L512.69531 150.36230 L513.67188 150.36230 L514.64844 150.36232 L515.62500 150.36232 L516.60156 150.36232 L517.57813 150.36232 L518.55469 150.36232 L519.53125 150.36234 L520.50781 150.36234 L521.48438 150.36234 L522.46094 150.36235 L523.43750 150.36235 L524.41406 150.36237 L525.39063 150.36237 L526.36719 150.36237 L527.34375 150.36238 L528.32031 150.36238 L529.29688 150.36238 L530.27344 150.36240 L531.25000 150.36240 L532.22656 150.36241 L533.20313 150.36241 L534.17969 150.36243 L535.15625 150.36244 L536.13281 150.36243 L537.10938 150.36244 L538.08594 150.36246 L539.06250 150.36246 L540.03906 150.36249 L541.01563 150.36249 L541.99219 150.36249 L542.96875 150.36250 L543.94531 150.36250 L544.92188 150.36253 L545.89844 150.36255 L546.87500 150.36253 L547.85156 150.36258 L548.82813 150.36256 L549.80469 150.36258 L550.78125 150.36252 L551.75781 150.36261 L552.73438 150.36261 L553.71094 150.36261 L554.68750 150.36264 L555.66406 150.36264 L556.64063 150.36266 L557.61719 150.36267 L558.59375 150.36269 L559.57031 150.36270 L560.54688 150.36272 L561.52344 150.36273 L562.50000 150.36275 L563.47656 150.36276 L564.45313 150.36278 L565.42969 150.36279 L566.40625 150.36281 L567.38281 150.36282 L568.35938 150.36284 L569.33594 150.36285 L570.31250 150.36287 L571.28906 150.36290 L572.26563 150.36292 L573.24219 150.36292 L574.21875 150.36295 L575.19531 150.36296 L576.17188 150.36298 L577.14844 150.36302 L578.12500 150.36302 L579.10156 150.36302 L580.07813 150.36311 L581.05469 150.36304 L582.03125 150.36307 L583.00781 150.36308 L583.98438 150.36314 L584.96094 150.36314 L585.93750 150.36317 L586.91406 150.36319 L587.89063 150.36320 L588.86719 150.36325 L589.84375 150.36327 L590.82031 150.36328 L591.79688 150.36330 L592.77344 150.36333 L593.75000 150.36336 L594.72656 150.36337 L595.70313 150.36340 L596.67969 150.36343 L597.65625 150.36345 L598.63281 150.36348 L599.60938 150.36351 L600.58594 150.36353 L601.56250 150.36356 L602.53906 150.36359 L603.51563 150.36360 L604.49219 150.36363 L605.46875 150.36366 L606.44531 150.36369 L607.42188 150.36372 L608.39844 150.36374 L609.37500 150.36377 L610.35156 150.36380 L611.32813 150.36383 L612.30469 150.36386 L613.28125 150.36389 L614.25781 150.36392 L615.23438 150.36395 L616.21094 150.36398 L617.18750 150.36401 L618.16406 150.36404 L619.14063 150.36409 L620.11719 150.36411 L621.09375 150.36415 L622.07031 150.36418 L623.04688 150.36420 L624.02344 150.36424 L625.00000 150.36427 L625.97656 150.36430 L626.95313 150.36435 L627.92969 150.36440 L628.90625 150.36443 L629.88281 150.36446 L630.85938 150.36449 L631.83594 150.36453 L632.81250 150.36456 L633.78906 150.36461 L634.76563 150.36462 L635.74219 150.36467 L636.71875 150.36473 L637.69531 150.36478 L638.67188 150.36481 L639.64844 150.36487 L640.62500 150.36490 L641.60156 150.36493 L642.57813 150.36497 L643.55469 150.36502 L644.53125 150.36507 L645.50781 150.36511 L646.48438 150.36514 L647.46094 150.36519 L648.43750 150.36523 L649.41406 150.36528 L650.39063 150.36533 L651.36719 150.36537 L652.34375 150.36542 L653.32031 150.36546 L654.29688 150.36551 L655.27344 150.36557 L656.25000 150.36562 L657.22656 150.36566 L658.20313 150.36571 L659.17969 150.36575 L660.15625 150.36581 L661.13281 150.36586 L662.10938 150.36591 L663.08594 150.36597 L664.06250 150.36601 L665.03906 150.36607 L666.01563 150.36612 L666.99219 150.36615 L667.96875 150.36624 L668.94531 150.36632 L669.92188 150.36635 L670.89844 150.36642 L671.87500 150.36649 L672.85156 150.36653 L673.82813 150.36659 L674.80469 150.36665 L675.78125 150.36671 L676.75781 150.36678 L677.73438 150.36682 L678.71094 150.36690 L679.68750 150.36694 L680.66406 150.36702 L681.64063 150.36707 L682.61719 150.36716 L683.59375 150.36722 L684.57031 150.36728 L685.54688 150.36736 L686.52344 150.36742 L687.50000 150.36749 L688.47656 150.36755 L689.45313 150.36763 L690.42969 150.36769 L691.40625 150.36777 L692.38281 150.36784 L693.35938 150.36792 L694.33594 150.36798 L695.31250 150.36807 L696.28906 150.36813 L697.26563 150.36823 L698.24219 150.36830 L699.21875 150.36836 L700.19531 150.36845 L701.17188 150.36853 L702.14844 150.36862 L703.12500 150.36870 L704.10156 150.36877 L705.07813 150.36887 L706.05469 150.36894 L707.03125 150.36903 L708.00781 150.36913 L708.98438 150.36920 L709.96094 150.36928 L710.93750 150.36940 L711.91406 150.36946 L712.89063 150.36955 L713.86719 150.36966 L714.84375 150.36975 L715.82031 150.36984 L716.79688 150.36993 L717.77344 150.37003 L718.75000 150.37013 L719.72656 150.37024 L720.70313 150.37033 L721.67969 150.37042 L722.65625 150.37053 L723.63281 150.37064 L724.60938 150.37074 L725.58594 150.37085 L726.56250 150.37097 L727.53906 150.37106 L728.51563 150.37117 L729.49219 150.37128 L730.46875 150.37140 L731.44531 150.37152 L732.42188 150.37163 L733.39844 150.37173 L734.37500 150.37186 L735.35156 150.37198 L736.32813 150.37210 L737.30469 150.37222 L738.28125 150.37234 L739.25781 150.37247 L740.23438 150.37260 L741.21094 150.37273 L742.18750 150.37285 L743.16406 150.37299 L744.14063 150.37312 L745.11719 150.37326 L746.09375 150.37338 L747.07031 150.37354 L748.04688 150.37366 L749.02344 150.37379 L750.00000 150.37395 L750.97656 150.37408 L751.95313 150.37424 L752.92969 150.37439 L753.90625 150.37451 L754.88281 150.37471 L755.85938 150.37485 L756.83594 150.37498 L757.81250 150.37517 L758.78906 150.37532 L759.76563 150.37549 L760.74219 150.37566 L761.71875 150.37581 L762.69531 150.37601 L763.67188 150.37616 L764.64844 150.37633 L765.62500 150.37656 L766.60156 150.37668 L767.57813 150.37677 L768.55469 150.37700 L769.53125 150.37721 L770.50781 150.37738 L771.48438 150.37758 L772.46094 150.37776 L773.43750 150.37796 L774.41406 150.37817 L775.39063 150.37836 L776.36719 150.37857 L777.34375 150.37877 L778.32031 150.37897 L779.29688 150.37920 L780.27344 150.37939 L781.25000 150.37962 L782.22656 150.37984 L783.20313 150.38005 L784.17969 150.38029 L785.15625 150.38051 L786.13281 150.38075 L787.10938 150.38098 L788.08594 150.38123 L789.06250 150.38147 L790.03906 150.38171 L791.01563 150.38196 L791.99219 150.38222 L792.96875 150.38246 L793.94531 150.38274 L794.92188 150.38301 L795.89844 150.38326 L796.87500 150.38356 L797.85156 150.38387 L798.82813 150.38403 L799.80469 150.38429 L800.78125 150.38464 L801.75781 150.38495 L802.73438 150.38522 L803.71094 150.38554 L804.68750 150.38583 L805.66406 150.38615 L806.64063 150.38649 L807.61719 150.38680 L808.59375 150.38712 L809.57031 150.38745 L810.54688 150.38777 L811.52344 150.38814 L812.50000 150.38846 L813.47656 150.38884 L814.45313 150.38919 L815.42969 150.38954 L816.40625 150.38992 L817.38281 150.39030 L818.35938 150.39069 L819.33594 150.39108 L820.31250 150.39146 L821.28906 150.39188 L822.26563 150.39227 L823.24219 150.39270 L824.21875 150.39311 L825.19531 150.39355 L826.17188 150.39398 L827.14844 150.39442 L828.12500 150.39488 L829.10156 150.39534 L830.07813 150.39581 L831.05469 150.39629 L832.03125 150.39677 L833.00781 150.39728 L833.98438 150.39777 L834.96094 150.39828 L835.93750 150.39880 L836.91406 150.39934 L837.89063 150.39989 L838.86719 150.40044 L839.84375 150.40099 L840.82031 150.40157 L841.79688 150.40215 L842.77344 150.40274 L843.75000 150.40334 L844.72656 150.40398 L845.70313 150.40460 L846.67969 150.40523 L847.65625 150.40590 L848.63281 150.40656 L849.60938 150.40724 L850.58594 150.40794 L851.56250 150.40865 L852.53906 150.40933 L853.51563 150.41010 L854.49219 150.41086 L855.46875 150.41164 L856.44531 150.41241 L857.42188 150.41321 L858.39844 150.41403 L859.37500 150.41487 L860.35156 150.41571 L861.32813 150.41660 L862.30469 150.41748 L863.28125 150.41838 L864.25781 150.41933 L865.23438 150.42027 L866.21094 150.42125 L867.18750 150.42224 L868.16406 150.42326 L869.14063 150.42430 L870.11719 150.42535 L871.09375 150.42645 L872.07031 150.42757 L873.04688 150.42871 L874.02344 150.42989 L875.00000 150.43108 L875.97656 150.43230 L876.95313 150.43355 L877.92969 150.43484 L878.90625 150.43616 L879.88281 150.43752 L880.85938 150.43890 L881.83594 150.44032 L882.81250 150.44177 L883.78906 150.44328 L884.76563 150.44478 L885.74219 150.44643 L886.71875 150.44800 L887.69531 150.44968 L888.67188 150.45140 L889.64844 150.45314 L890.62500 150.45494 L891.60156 150.45679 L892.57813 150.45869 L893.55469 150.46066 L894.53125 150.46268 L895.50781 150.46475 L896.48438 150.46689 L897.46094 150.46907 L898.43750 150.47133 L899.41406 150.47368 L900.39063 150.47609 L901.36719 150.47858 L902.34375 150.48112 L903.32031 150.48376 L904.29688 150.48648 L905.27344 150.48930 L906.25000 150.49220 L907.22656 150.49519 L908.20313 150.49829 L909.17969 150.50150 L910.15625 150.50481 L911.13281 150.50824 L912.10938 150.51178 L913.08594 150.51546 L914.06250 150.51927 L915.03906 150.52321 L916.01563 150.52730 L916.99219 150.53154 L917.96875 150.53593 L918.94531 150.54051 L919.92188 150.54526 L920.89844 150.55019 L921.87500 150.55533 L922.85156 150.56065 L923.82813 150.56622 L924.80469 150.57202 L925.78125 150.57805 L926.75781 150.58434 L927.73438 150.59090 L928.71094 150.59776 L929.68750 150.60490 L930.66406 150.61241 L931.64063 150.62025 L932.61719 150.62848 L933.59375 150.63707 L934.57031 150.64610 L935.54688 150.65558 L936.52344 150.66554 L937.50000 150.67601 L938.47656 150.68701 L939.45313 150.69861 L940.42969 150.71086 L941.40625 150.72379 L942.38281 150.73744 L943.35938 150.75189 L944.33594 150.76721 L945.31250 150.78345 L946.28906 150.80067 L947.26563 150.81902 L948.24219 150.83855 L949.21875 150.85938 L950.19531 150.88162 L951.17188 150.90543 L952.14844 150.93095 L953.12500 150.95836 L954.10156 150.98785 L955.07813 151.01965 L956.05469 151.05403 L957.03125 151.09126 L958.00781 151.13171 L958.98438 151.17575 L959.96094 151.22386 L960.93750 151.27657 L961.91406 151.33452 L962.89063 151.39848 L963.86719 151.46935 L964.84375 151.54822 L965.82031 151.63641 L966.79688 151.73560 L967.77344 151.84778 L968.75000 151.97552 L969.72656 152.12209 L970.70313 152.29166 L971.67969 152.48979 L972.65625 152.72394 L973.63281 153.00430 L974.60938 153.34532 L975.58594 153.76808 L976.56250 154.30450 L977.53906 155.00557 L978.51563 155.95773 L979.49219 157.32043 L980.46875 159.42342 L981.44531 163.07687 L982.42188 170.94742 L983.39844 199.99998 L984.37500 0.00003 L985.35156 118.92863 L986.32813 132.29323 L987.30469 137.41612 L988.28125 140.10733 L989.25781 141.75328 L990.23438 142.85338 L991.21094 143.63138 L992.18750 144.20230 L993.16406 144.63113 L994.14063 144.95720 L995.11719 145.20541 L996.09375 145.39214 L997.07031 145.52826 L998.04688 145.62100 L999.02344 145.67496" /><path fill="none" stroke="#000000" d="M0 300.00000  L0.00000 300.00000  L0.97656 299.80530  L1.95313 299.60614  L2.92969 299.39764  L3.90625 299.17426  L4.88281 298.92902  L5.85938 298.65289  L6.83594 298.33353  L7.81250 297.95285  L8.78906 297.48337  L9.76563 296.88034  L10.74219 296.06537  L11.71875 294.88666  L12.69531 293.00629  L13.67188 289.48709  L14.64844 280.40320  L15.62500 200.00000  L16.60156 335.07895  L17.57813 315.40494  L18.55469 310.04477  L19.53125 307.53613  L20.50781 306.07724  L21.48438 305.12048  L22.46094 304.44290  L23.43750 303.93668  L24.41406 303.54327  L25.39063 303.22809  L26.36719 302.96951  L27.34375 302.75317  L28.32031 302.56927  L29.29688 302.41077  L30.27344 302.27261  L31.25000 302.15100  L32.22656 302.04297  L33.20313 301.94635  L34.17969 301.85931  L35.15625 301.78043  L36.13281 301.70856  L37.10938 301.64282  L38.08594 301.58237  L39.06250 301.52658  L40.03906 301.47491  L41.01563 301.42688  L41.99219 301.38214  L42.96875 301.34033  L43.94531 301.30112  L44.92188 301.26431  L45.89844 301.22968  L46.87500 301.19696  L47.85156 301.16608  L48.82813 301.13684  L49.80469 301.10910  L50.78125 301.08276  L51.75781 301.05768  L52.73438 301.03381  L53.71094 301.01105  L54.68750 300.98929  L55.66406 300.96848  L56.64063 300.94858  L57.61719 300.92947  L58.59375 300.91116  L59.57031 300.89359  L60.54688 300.87668  L61.52344 300.86041  L62.50000 300.84476  L63.47656 300.82968  L64.45313 300.81512  L65.42969 300.80109  L66.40625 300.78754  L67.38281 300.77441  L68.35938 300.76175  L69.33594 300.74951  L70.31250 300.73761  L71.28906 300.72610  L72.26563 300.71497  L73.24219 300.70413  L74.21875 300.69363  L75.19531 300.68347  L76.17188 300.67355  L77.14844 300.66394  L78.12500 300.65457  L79.10156 300.64548  L80.07813 300.63663  L81.05469 300.62799  L82.03125 300.61960  L83.00781 300.61142  L83.98438 300.60345  L84.96094 300.59567  L85.93750 300.58810  L86.91406 300.58069  L87.89063 300.57349  L88.86719 300.56641  L89.84375 300.55954  L90.82031 300.55280  L91.79688 300.54620  L92.77344 300.53979  L93.75000 300.53351  L94.72656 300.52734  L95.70313 300.52133  L96.67969 300.51544  L97.65625 300.50967  L98.63281 300.50403  L99.60938 300.49847  L100.58594 300.49307  L101.56250 300.48776  L102.53906 300.48254  L103.51563 300.47745  L104.49219 300.47241  L105.46875 300.46753  L106.44531 300.46271  L107.42188 300.45798  L108.39844 300.45334  L109.37500 300.44879  L110.35156 300.44431  L111.32813 300.43991  L112.30469 300.43561  L113.28125 300.43140  L114.25781 300.42722  L115.23438 300.42313  L116.21094 300.41907  L117.18750 300.41513  L118.16406 300.41125  L119.14063 300.40741  L120.11719 300.40366  L121.09375 300.39996  L122.07031 300.39630  L123.04688 300.39273  L124.02344 300.38919  L125.00000 300.38574  L125.97656 300.38229  L126.95313 300.37894  L127.92969 300.37561  L128.90625 300.37238  L129.88281 300.36914  L130.85938 300.36597  L131.83594 300.36285  L132.81250 300.35977  L133.78906 300.35675  L134.76563 300.35376  L135.74219 300.35080  L136.71875 300.34790  L137.69531 300.34503  L138.67188 300.34219  L139.64844 300.33942  L140.62500 300.33667  L141.60156 300.33392  L142.57813 300.33127  L143.55469 300.32861  L144.53125 300.32602  L145.50781 300.32343  L146.48438 300.32092  L147.46094 300.31839  L148.43750 300.31592  L149.41406 300.31348  L150.39063 300.31104  L151.36719 300.30865  L152.34375 300.30630  L153.32031 300.30399  L154.29688 300.30170  L155.27344 300.29941  L156.25000 300.29715  L157.22656 300.29495  L158.20313 300.29276  L159.17969 300.29059  L160.15625 300.28845  L161.13281 300.28632  L162.10938 300.28424  L163.08594 300.28217  L164.06250 300.28012  L165.03906 300.27808  L166.01563 300.27609  L166.99219 300.27411  L167.96875 300.27216  L168.94531 300.27020  L169.92188 300.26831  L170.89844 300.26642  L171.87500 300.26453  L172.85156 300.26266  L173.82813 300.26083  L174.80469 300.25900  L175.78125 300.25720  L176.75781 300.25543  L177.73438 300.25366  L178.71094 300.25192  L179.68750 300.25018  L180.66406 300.24847  L181.64063 300.24680  L182.61719 300.24512  L183.59375 300.24347  L184.57031 300.24182  L185.54688 300.24017  L186.52344 300.23856  L187.50000 300.23697  L188.47656 300.23538  L189.45313 300.23383  L190.42969 300.23224  L191.40625 300.23071  L192.38281 300.22919  L193.35938 300.22766  L194.33594 300.22620  L195.31250 300.22467  L196.28906 300.22321  L197.26563 300.22177  L198.24219 300.22031  L199.21875 300.21890  L200.19531 300.21747  L201.17188 300.21597  L202.14844 300.21460  L203.12500 300.21326  L204.10156 300.21188  L205.07813 300.21051  L206.05469 300.20917  L207.03125 300.20782  L208.00781 300.20651  L208.98438 300.20520  L209.96094 300.20386  L210.93750 300.20258  L211.91406 300.20129  L212.89063 300.20001  L213.86719 300.19876  L214.84375 300.19751  L215.82031 300.19626  L216.79688 300.19501  L217.77344 300.19379  L218.75000 300.19257  L219.72656 300.19135  L220.70313 300.19016  L221.67969 300.18896  L222.65625 300.18777  L223.63281 300.18661  L224.60938 300.18542  L225.58594 300.18430  L226.56250 300.18314  L227.53906 300.18201  L228.51563 300.18088  L229.49219 300.17975  L230.46875 300.17865  L231.44531 300.17755  L232.42188 300.17639  L233.39844 300.17526  L234.37500 300.17422  L235.35156 300.17319  L236.32813 300.17209  L237.30469 300.17105  L238.28125 300.16998  L239.25781 300.16891  L240.23438 300.16791  L241.21094 300.16687  L242.18750 300.16583  L243.16406 300.16483  L244.14063 300.16379  L245.11719 300.16278  L246.09375 300.16180  L247.07031 300.16077  L248.04688 300.15979  L249.02344 300.15881  L250.00000 300.15784  L250.97656 300.15686  L251.95313 300.15591  L252.92969 300.15497  L253.90625 300.15399  L254.88281 300.15305  L255.85938 300.15210  L256.83594 300.15118  L257.81250 300.15024  L258.78906 300.14932  L259.76563 300.14841  L260.74219 300.14749  L261.71875 300.14658  L262.69531 300.14566  L263.67188 300.14478  L264.64844 300.14389  L265.62500 300.14301  L266.60156 300.14212  L267.57813 300.14124  L268.55469 300.14038  L269.53125 300.13950  L270.50781 300.13861  L271.48438 300.13776  L272.46094 300.13690  L273.43750 300.13608  L274.41406 300.13522  L275.39063 300.13437  L276.36719 300.13354  L277.34375 300.13272  L278.32031 300.13187  L279.29688 300.13104  L280.27344 300.13025  L281.25000 300.12943  L282.22656 300.12863  L283.20313 300.12781  L284.17969 300.12701  L285.15625 300.12622  L286.13281 300.12543  L287.10938 300.12463  L288.08594 300.12384  L289.06250 300.12305  L290.03906 300.12228  L291.01563 300.12149  L291.99219 300.12073  L292.96875 300.11996  L293.94531 300.11920  L294.92188 300.11844  L295.89844 300.11768  L296.87500 300.11694  L297.85156 300.11618  L298.82813 300.11542  L299.80469 300.11469  L300.78125 300.11395  L301.75781 300.11322  L302.73438 300.11249  L303.71094 300.11176  L304.68750 300.11102  L305.66406 300.11029  L306.64063 300.10956  L307.61719 300.10886  L308.59375 300.10815  L309.57031 300.10742  L310.54688 300.10672  L311.52344 300.10602  L312.50000 300.10532  L313.47656 300.10461  L314.45313 300.10391  L315.42969 300.10321  L316.40625 300.10254  L317.38281 300.10187  L318.35938 300.10117  L319.33594 300.10046  L320.31250 300.09979  L321.28906 300.09912  L322.26563 300.09845  L323.24219 300.09778  L324.21875 300.09711  L325.19531 300.09644  L326.17188 300.09576  L327.14844 300.09509  L328.12500 300.09445  L329.10156 300.09381  L330.07813 300.09314  L331.05469 300.09250  L332.03125 300.09186  L333.00781 300.09119  L333.98438 300.09052  L334.96094 300.08990  L335.93750 300.08926  L336.91406 300.08862  L337.89063 300.08798  L338.86719 300.08734  L339.84375 300.08673  L340.82031 300.08609  L341.79688 300.08545  L342.77344 300.08484  L343.75000 300.08423  L344.72656 300.08359  L345.70313 300.08298  L346.67969 300.08237  L347.65625 300.08173  L348.63281 300.08112  L349.60938 300.08051  L350.58594 300.07990  L351.56250 300.07928  L352.53906 300.07870  L353.51563 300.07809  L354.49219 300.07748  L355.46875 300.07690  L356.44531 300.07629  L357.42188 300.07568  L358.39844 300.07510  L359.37500 300.07449  L360.35156 300.07391  L361.32813 300.07333  L362.30469 300.07272  L363.28125 300.07217  L364.25781 300.07159  L365.23438 300.07098  L366.21094 300.07037  L367.18750 300.06982  L368.16406 300.06924  L369.14063 300.06866  L370.11719 300.06808  L371.09375 300.06750  L372.07031 300.06696  L373.04688 300.06638  L374.02344 300.06580  L375.00000 300.06525  L375.97656 300.06467  L376.95313 300.06412  L377.92969 300.06354  L378.90625 300.06299  L379.88281 300.06244  L380.85938 300.06186  L381.83594 300.06131  L382.81250 300.06076  L383.78906 300.06018  L384.76563 300.05963  L385.74219 300.05908  L386.71875 300.05853  L387.69531 300.05798  L388.67188 300.05743  L389.64844 300.05688  L390.62500 300.05634  L391.60156 300.05579  L392.57813 300.05527  L393.55469 300.05472  L394.53125 300.05417  L395.50781 300.05365  L396.48438 300.05310  L397.46094 300.05255  L398.43750 300.05203  L399.41406 300.05148  L400.39063 300.05096  L401.36719 300.05042  L402.34375 300.04990  L403.32031 300.04935  L404.29688 300.04883  L405.27344 300.04831  L406.25000 300.04776  L407.22656 300.04724  L408.20313 300.04672  L409.17969 300.04617  L410.15625 300.04565  L411.13281 300.04514  L412.10938 300.04462  L413.08594 300.04410  L414.06250 300.04358  L415.03906 300.04303  L416.01563 300.04254  L416.99219 300.04205  L417.96875 300.04144  L418.94531 300.04095  L419.92188 300.04044  L420.89844 300.03995  L421.87500 300.03943  L422.85156 300.03894  L423.82813 300.03842  L424.80469 300.03790  L425.78125 300.03738  L426.75781 300.03687  L427.73438 300.03638  L428.71094 300.03586  L429.68750 300.03534  L430.66406 300.03485  L431.64063 300.03433  L432.61719 300.03381  L433.59375 300.03333  L434.57031 300.03284  L435.54688 300.03232  L436.52344 300.03180  L437.50000 300.03131  L438.47656 300.03082  L439.45313 300.03030  L440.42969 300.02982  L441.40625 300.02930  L442.38281 300.02881  L443.35938 300.02832  L444.33594 300.02783  L445.31250 300.02731  L446.28906 300.02682  L447.26563 300.02631  L448.24219 300.02582  L449.21875 300.02533  L450.19531 300.02481  L451.17188 300.02429  L452.14844 300.02386  L453.12500 300.02335  L454.10156 300.02283  L455.07813 300.02237  L456.05469 300.02185  L457.03125 300.02136  L458.00781 300.02087  L458.98438 300.02039  L459.96094 300.01990  L460.93750 300.01941  L461.91406 300.01892  L462.89063 300.01843  L463.86719 300.01794  L464.84375 300.01746  L465.82031 300.01697  L466.79688 300.01648  L467.77344 300.01599  L468.75000 300.01550  L469.72656 300.01501  L470.70313 300.01453  L471.67969 300.01404  L472.65625 300.01355  L473.63281 300.01306  L474.60938 300.01257  L475.58594 300.01208  L476.56250 300.01160  L477.53906 300.01111  L478.51563 300.01062  L479.49219 300.01013  L480.46875 300.00967  L481.44531 300.00919  L482.42188 300.00870  L483.39844 300.00821  L484.37500 300.00772  L485.35156 300.00723  L486.32813 300.00677  L487.30469 300.00629  L488.28125 300.00580  L489.25781 300.00531  L490.23438 300.00482  L491.21094 300.00433  L492.18750 300.00385  L493.16406 300.00336  L494.14063 300.00290  L495.11719 300.00241  L496.09375 300.00192  L497.07031 300.00143  L498.04688 300.00095  L499.02344 300.00049  L500.00000 300.00000  L500.97656 299.99951  L501.95313 299.99902  L502.92969 299.99854  L503.90625 299.99805  L504.88281 299.99756  L505.85938 299.99707  L506.83594 299.99661  L507.81250 299.99612  L508.78906 299.99564  L509.76563 299.99518  L510.74219 299.99469  L511.71875 299.99420  L512.69531 299.99371  L513.67188 299.99323  L514.64844 299.99274  L515.62500 299.99225  L516.60156 299.99176  L517.57813 299.99127  L518.55469 299.99078  L519.53125 299.99033  L520.50781 299.98984  L521.48438 299.98935  L522.46094 299.98886  L523.43750 299.98837  L524.41406 299.98788  L525.39063 299.98743  L526.36719 299.98691  L527.34375 299.98642  L528.32031 299.98596  L529.29688 299.98544  L530.27344 299.98499  L531.25000 299.98450  L532.22656 299.98398  L533.20313 299.98352  L534.17969 299.98303  L535.15625 299.98254  L536.13281 299.98206  L537.10938 299.98154  L538.08594 299.98105  L539.06250 299.98059  L540.03906 299.98007  L541.01563 299.97958  L541.99219 299.97910  L542.96875 299.97861  L543.94531 299.97812  L544.92188 299.97760  L545.89844 299.97714  L546.87500 299.97665  L547.85156 299.97614  L548.82813 299.97571  L549.80469 299.97516  L550.78125 299.97467  L551.75781 299.97415  L552.73438 299.97366  L553.71094 299.97314  L554.68750 299.97266  L555.66406 299.97217  L556.64063 299.97168  L557.61719 299.97119  L558.59375 299.97067  L559.57031 299.97015  L560.54688 299.96967  L561.52344 299.96918  L562.50000 299.96866  L563.47656 299.96817  L564.45313 299.96765  L565.42969 299.96716  L566.40625 299.96664  L567.38281 299.96616  L568.35938 299.96564  L569.33594 299.96515  L570.31250 299.96463  L571.28906 299.96411  L572.26563 299.96362  L573.24219 299.96310  L574.21875 299.96259  L575.19531 299.96210  L576.17188 299.96158  L577.14844 299.96106  L578.12500 299.96057  L579.10156 299.96002  L580.07813 299.95953  L581.05469 299.95901  L582.03125 299.95853  L583.00781 299.95795  L583.98438 299.95746  L584.96094 299.95694  L585.93750 299.95642  L586.91406 299.95590  L587.89063 299.95538  L588.86719 299.95483  L589.84375 299.95432  L590.82031 299.95380  L591.79688 299.95328  L592.77344 299.95276  L593.75000 299.95221  L594.72656 299.95169  L595.70313 299.95114  L596.67969 299.95062  L597.65625 299.95010  L598.63281 299.94955  L599.60938 299.94904  L600.58594 299.94849  L601.56250 299.94797  L602.53906 299.94742  L603.51563 299.94690  L604.49219 299.94635  L605.46875 299.94580  L606.44531 299.94525  L607.42188 299.94470  L608.39844 299.94418  L609.37500 299.94363  L610.35156 299.94308  L611.32813 299.94254  L612.30469 299.94199  L613.28125 299.94144  L614.25781 299.94089  L615.23438 299.94034  L616.21094 299.93979  L617.18750 299.93924  L618.16406 299.93866  L619.14063 299.93811  L620.11719 299.93756  L621.09375 299.93701  L622.07031 299.93643  L623.04688 299.93588  L624.02344 299.93530  L625.00000 299.93475  L625.97656 299.93417  L626.95313 299.93359  L627.92969 299.93304  L628.90625 299.93246  L629.88281 299.93188  L630.85938 299.93130  L631.83594 299.93073  L632.81250 299.93018  L633.78906 299.92960  L634.76563 299.92902  L635.74219 299.92841  L636.71875 299.92780  L637.69531 299.92725  L638.67188 299.92664  L639.64844 299.92606  L640.62500 299.92548  L641.60156 299.92487  L642.57813 299.92429  L643.55469 299.92371  L644.53125 299.92310  L645.50781 299.92249  L646.48438 299.92188  L647.46094 299.92130  L648.43750 299.92068  L649.41406 299.92007  L650.39063 299.91946  L651.36719 299.91885  L652.34375 299.91824  L653.32031 299.91763  L654.29688 299.91699  L655.27344 299.91638  L656.25000 299.91577  L657.22656 299.91516  L658.20313 299.91452  L659.17969 299.91388  L660.15625 299.91327  L661.13281 299.91263  L662.10938 299.91199  L663.08594 299.91135  L664.06250 299.91074  L665.03906 299.91010  L666.01563 299.90945  L666.99219 299.90878  L667.96875 299.90811  L668.94531 299.90747  L669.92188 299.90686  L670.89844 299.90619  L671.87500 299.90552  L672.85156 299.90488  L673.82813 299.90421  L674.80469 299.90353  L675.78125 299.90286  L676.75781 299.90222  L677.73438 299.90155  L678.71094 299.90085  L679.68750 299.90021  L680.66406 299.89951  L681.64063 299.89880  L682.61719 299.89813  L683.59375 299.89746  L684.57031 299.89676  L685.54688 299.89606  L686.52344 299.89536  L687.50000 299.89465  L688.47656 299.89398  L689.45313 299.89325  L690.42969 299.89255  L691.40625 299.89185  L692.38281 299.89111  L693.35938 299.89041  L694.33594 299.88968  L695.31250 299.88898  L696.28906 299.88824  L697.26563 299.88751  L698.24219 299.88678  L699.21875 299.88605  L700.19531 299.88528  L701.17188 299.88455  L702.14844 299.88379  L703.12500 299.88306  L704.10156 299.88229  L705.07813 299.88153  L706.05469 299.88080  L707.03125 299.88000  L708.00781 299.87924  L708.98438 299.87848  L709.96094 299.87769  L710.93750 299.87695  L711.91406 299.87616  L712.89063 299.87537  L713.86719 299.87454  L714.84375 299.87378  L715.82031 299.87299  L716.79688 299.87216  L717.77344 299.87137  L718.75000 299.87054  L719.72656 299.86975  L720.70313 299.86893  L721.67969 299.86810  L722.65625 299.86725  L723.63281 299.86642  L724.60938 299.86560  L725.58594 299.86475  L726.56250 299.86389  L727.53906 299.86307  L728.51563 299.86221  L729.49219 299.86136  L730.46875 299.86047  L731.44531 299.85962  L732.42188 299.85876  L733.39844 299.85785  L734.37500 299.85699  L735.35156 299.85608  L736.32813 299.85519  L737.30469 299.85431  L738.28125 299.85339  L739.25781 299.85248  L740.23438 299.85159  L741.21094 299.85065  L742.18750 299.84973  L743.16406 299.84882  L744.14063 299.84787  L745.11719 299.84692  L746.09375 299.84598  L747.07031 299.84503  L748.04688 299.84409  L749.02344 299.84311  L750.00000 299.84213  L750.97656 299.84119  L751.95313 299.84018  L752.92969 299.83920  L753.90625 299.83820  L754.88281 299.83719  L755.85938 299.83618  L756.83594 299.83514  L757.81250 299.83414  L758.78906 299.83313  L759.76563 299.83209  L760.74219 299.83105  L761.71875 299.82999  L762.69531 299.82895  L763.67188 299.82788  L764.64844 299.82681  L765.62500 299.82574  L766.60156 299.82471  L767.57813 299.82361  L768.55469 299.82245  L769.53125 299.82135  L770.50781 299.82025  L771.48438 299.81909  L772.46094 299.81799  L773.43750 299.81683  L774.41406 299.81567  L775.39063 299.81454  L776.36719 299.81335  L777.34375 299.81219  L778.32031 299.81100  L779.29688 299.80981  L780.27344 299.80862  L781.25000 299.80743  L782.22656 299.80621  L783.20313 299.80496  L784.17969 299.80374  L785.15625 299.80249  L786.13281 299.80124  L787.10938 299.79996  L788.08594 299.79871  L789.06250 299.79739  L790.03906 299.79611  L791.01563 299.79480  L791.99219 299.79349  L792.96875 299.79214  L793.94531 299.79080  L794.92188 299.78946  L795.89844 299.78809  L796.87500 299.78671  L797.85156 299.78537  L798.82813 299.78400  L799.80469 299.78253  L800.78125 299.78110  L801.75781 299.77966  L802.73438 299.77823  L803.71094 299.77676  L804.68750 299.77530  L805.66406 299.77380  L806.64063 299.77231  L807.61719 299.77081  L808.59375 299.76926  L809.57031 299.76773  L810.54688 299.76617  L811.52344 299.76459  L812.50000 299.76300  L813.47656 299.76141  L814.45313 299.75980  L815.42969 299.75818  L816.40625 299.75653  L817.38281 299.75488  L818.35938 299.75317  L819.33594 299.75150  L820.31250 299.74979  L821.28906 299.74805  L822.26563 299.74631  L823.24219 299.74454  L824.21875 299.74277  L825.19531 299.74097  L826.17188 299.73914  L827.14844 299.73730  L828.12500 299.73544  L829.10156 299.73358  L830.07813 299.73169  L831.05469 299.72977  L832.03125 299.72784  L833.00781 299.72586  L833.98438 299.72388  L834.96094 299.72189  L835.93750 299.71988  L836.91406 299.71783  L837.89063 299.71576  L838.86719 299.71365  L839.84375 299.71155  L840.82031 299.70941  L841.79688 299.70721  L842.77344 299.70502  L843.75000 299.70282  L844.72656 299.70056  L845.70313 299.69830  L846.67969 299.69601  L847.65625 299.69366  L848.63281 299.69131  L849.60938 299.68893  L850.58594 299.68652  L851.56250 299.68408  L852.53906 299.68158  L853.51563 299.67908  L854.49219 299.67654  L855.46875 299.67395  L856.44531 299.67136  L857.42188 299.66870  L858.39844 299.66605  L859.37500 299.66333  L860.35156 299.66058  L861.32813 299.65778  L862.30469 299.65497  L863.28125 299.65210  L864.25781 299.64917  L865.23438 299.64624  L866.21094 299.64325  L867.18750 299.64020  L868.16406 299.63715  L869.14063 299.63400  L870.11719 299.63086  L871.09375 299.62762  L872.07031 299.62436  L873.04688 299.62103  L874.02344 299.61768  L875.00000 299.61426  L875.97656 299.61078  L876.95313 299.60724  L877.92969 299.60367  L878.90625 299.60004  L879.88281 299.59631  L880.85938 299.59256  L881.83594 299.58875  L882.81250 299.58484  L883.78906 299.58090  L884.76563 299.57684  L885.74219 299.57275  L886.71875 299.56860  L887.69531 299.56439  L888.67188 299.56006  L889.64844 299.55566  L890.62500 299.55121  L891.60156 299.54663  L892.57813 299.54199  L893.55469 299.53729  L894.53125 299.53247  L895.50781 299.52756  L896.48438 299.52255  L897.46094 299.51746  L898.43750 299.51224  L899.41406 299.50690  L900.39063 299.50150  L901.36719 299.49597  L902.34375 299.49030  L903.32031 299.48456  L904.29688 299.47864  L905.27344 299.47263  L906.25000 299.46649  L907.22656 299.46021  L908.20313 299.45377  L909.17969 299.44717  L910.15625 299.44046  L911.13281 299.43356  L912.10938 299.42651  L913.08594 299.41928  L914.06250 299.41190  L915.03906 299.40430  L916.01563 299.39655  L916.99219 299.38855  L917.96875 299.38037  L918.94531 299.37198  L919.92188 299.36334  L920.89844 299.35449  L921.87500 299.34540  L922.85156 299.33606  L923.82813 299.32642  L924.80469 299.31653  L925.78125 299.30634  L926.75781 299.29584  L927.73438 299.28503  L928.71094 299.27386  L929.68750 299.26239  L930.66406 299.25049  L931.64063 299.23822  L932.61719 299.22556  L933.59375 299.21246  L934.57031 299.19888  L935.54688 299.18484  L936.52344 299.17029  L937.50000 299.15521  L938.47656 299.13959  L939.45313 299.12329  L940.42969 299.10638  L941.40625 299.08881  L942.38281 299.07050  L943.35938 299.05142  L944.33594 299.03149  L945.31250 299.01068  L946.28906 298.98895  L947.26563 298.96616  L948.24219 298.94229  L949.21875 298.91724  L950.19531 298.89087  L951.17188 298.86313  L952.14844 298.83389  L953.12500 298.80301  L954.10156 298.77032  L955.07813 298.73566  L956.05469 298.69885  L957.03125 298.65967  L958.00781 298.61783  L958.98438 298.57309  L959.96094 298.52509  L960.93750 298.47339  L961.91406 298.41760  L962.89063 298.35718  L963.86719 298.29141  L964.84375 298.21954  L965.82031 298.14069  L966.79688 298.05365  L967.77344 297.95700  L968.75000 297.84900  L969.72656 297.72736  L970.70313 297.58920  L971.67969 297.43073  L972.65625 297.24680  L973.63281 297.03046  L974.60938 296.77188  L975.58594 296.45673  L976.56250 296.06332  L977.53906 295.55710  L978.51563 294.87952  L979.49219 293.92273  L980.46875 292.46384  L981.44531 289.95520  L982.42188 284.59503  L983.39844 264.92102  L984.37500 400.00000  L985.35156 319.59680  L986.32813 310.51291  L987.30469 306.99371  L988.28125 305.11331  L989.25781 303.93463  L990.23438 303.11963  L991.21094 302.51660  L992.18750 302.04715  L993.16406 301.66647  L994.14063 301.34708  L995.11719 301.07098  L996.09375 300.82574  L997.07031 300.60233  L998.04688 300.39383  L999.02344 300.19467 " /></g><text x="1000.00000" dx="10" y="150.58902">[-0.10375;0.31620]</text><text x="1000.00000" dx="10" y="300.00000">[-0.31863;0.31863]</text></svg>