<svg xmlns="http://www.w3.org/2000/svg" version="1.1"><g stroke-width="0.6"><path fill="none" stroke="#000000" d="M0 199.99995 L1000.00000 199.99995" /><path fill="none" stroke="#000000" d="M0 300.00000 L1000.00000 300.00000" /><path fill="none" stroke="#000000" d="M500.00000 0 L500.00000 400.00000" /><path fill="none" stroke="#550000" d="M0 350.06561 L1000.00000 350.06561" /><path fill="none" stroke="#550000" d="M0 300.00000 L1000.00000 300.00000" /><path fill="none" stroke="#550000" d="M0 249.93439 L1000.00000 249.93439" /><path fill="none" stroke="#000000" d="M0 199.99995  L0.00000 199.99994 L0.97656 199.99995 L1.95313 199.99994 L2.92969 199.99994 L3.90625 199.99995 L4.88281 199.99994 L5.85938 199.99994 L6.83594 199.99995 L7.81250 199.99994 L8.78906 199.99994 L9.76563 199.99994 L10.74219 199.99994 L11.71875 199.99994 L12.69531 199.99992 L13.67188 199.99991 L14.64844 199.99988 L15.62500 0.00001 L16.60156 199.99986 L17.57813 199.99991 L18.55469 199.99994 L19.53125 199.99988 L20.50781 199.99985 L21.48438 199.99989 L22.46094 199.99994 L23.43750 199.99994 L24.41406 199.99994 L25.39063 199.99995 L26.36719 199.99995 L27.34375 199.99995 L28.32031 199.99995 L29.29688 199.99994 L30.27344 199.99995 L31.25000 199.99995 L32.22656 199.99995 L33.20313 199.99995 L34.17969 199.99995 L35.15625 199.99995 L36.13281 199.99995 L37.10938 199.99995 L38.08594 199.99995 L39.06250 199.99994 L40.03906 199.99995 L41.01563 199.99995 L41.99219 199.99994 L42.96875 199.99995 L43.94531 199.99995 L44.92188 199.99994 L45.89844 199.99995 L46.87500 199.99994 L47.85156 199.99994 L48.82813 199.99995 L49.80469 199.99992 L50.78125 199.99988 L51.75781 199.99988 L52.73438 199.99991 L53.71094 199.99994 L54.68750 199.99994 L55.66406 199.99991 L56.64063 199.99995 L57.61719 199.99989 L58.59375 199.99992 L59.57031 199.99995 L60.54688 199.99994 L61.52344 199.99995 L62.50000 199.99995 L63.47656 199.99994 L64.45313 199.99995 L65.42969 199.99995 L66.40625 199.99995 L67.38281 199.99995 L68.35938 199.99995 L69.33594 199.99995 L70.31250 199.99995 L71.28906 199.99995 L72.26563 199.99995 L73.24219 199.99995 L74.21875 199.99995 L75.19531 199.99995 L76.17188 199.99995 L77.14844 199.99995 L78.12500 199.99995 L79.10156 199.99995 L80.07813 199.99995 L81.05469 199.99995 L82.03125 199.99995 L83.00781 199.99995 L83.98438 199.99994 L84.96094 199.99995 L85.93750 199.99994 L86.91406 199.99989 L87.89063 199.99995 L88.86719 199.99991 L89.84375 199.99994 L90.82031 199.99995 L91.79688 199.99994 L92.77344 199.99994 L93.75000 199.99992 L94.72656 199.99994 L95.70313 199.99995 L96.67969 199.99995 L97.65625 199.99995 L98.63281 199.99995 L99.60938 199.99995 L100.58594 199.99995 L101.56250 199.99995 L102.53906 199.99995 L103.51563 199.99995 L104.49219 199.99995 L105.46875 199.99995 L106.44531 199.99995 L107.42188 199.99995 L108.39844 199.99995 L109.37500 199.99995 L110.35156 199.99995 L111.32813 199.99995 L112.30469 199.99995 L113.28125 199.99995 L114.25781 199.99995 L115.23438 199.99995 L116.21094 199.99995 L117.18750 199.99995 L118.16406 199.99995 L119.14063 199.99995 L120.11719 199.99995 L121.09375 199.99995 L122.07031 199.99995 L123.04688 199.99994 L124.02344 199.99992 L125.00000 199.99994 L125.97656 199.99995 L126.95313 199.99994 L127.92969 199.99994 L128.90625 199.99994 L129.88281 199.99994 L130.85938 199.99994 L131.83594 199.99995 L132.81250 199.99995 L133.78906 199.99995 L134.76563 199.99995 L135.74219 199.99995 L136.71875 199.99995 L137.69531 199.99995 L138.67188 199.99995 L139.64844 199.99995 L140.62500 199.99995 L141.60156 199.99995 L142.57813 199.99995 L143.55469 199.99995 L144.53125 199.99995 L145.50781 199.99995 L146.48438 199.99995 L147.46094 199.99995 L148.43750 199.99995 L149.41406 199.99995 L150.39063 199.99995 L151.36719 199.99995 L152.34375 199.99995 L153.32031 199.99995 L154.29688 199.99995 L155.27344 199.99995 L156.25000 199.99995 L157.22656 199.99995 L158.20313 199.99994 L159.17969 199.99994 L160.15625 199.99992 L161.13281 199.99994 L162.10938 199.99994 L163.08594 199.99995 L164.06250 199.99995 L165.03906 199.99994 L166.01563 199.99995 L166.99219 199.99995 L167.96875 199.99995 L168.94531 199.99995 L169.92188 199.99995 L170.89844 199.99995 L171.87500 199.99995 L172.85156 199.99995 L173.82813 199.99995 L174.80469 199.99995 L175.78125 199.99995 L176.75781 199.99995 L177.73438 199.99995 L178.71094 199.99995 L179.68750 199.99995 L180.66406 199.99995 L181.64063 199.99995 L182.61719 199.99995 L183.59375 199.99995 L184.57031 199.99995 L185.54688 199.99995 L186.52344 199.99995 L187.50000 199.99995 L188.47656 199.99995 L189.45313 199.99995 L190.42969 199.99995 L191.40625 199.99995 L192.38281 199.99995 L193.35938 199.99995 L194.33594 199.99995 L195.31250 199.99994 L196.28906 199.99994 L197.26563 199.99995 L198.24219 199.99995 L199.21875 199.99995 L200.19531 199.99994 L201.17188 199.99995 L202.14844 199.99994 L203.12500 199.99995 L204.10156 199.99995 L205.07813 199.99995 L206.05469 199.99995 L207.03125 199.99995 L208.00781 199.99995 L208.98438 199.99995 L209.96094 199.99995 L210.93750 199.99995 L211.91406 199.99995 L212.89063 199.99995 L213.86719 199.99995 L214.84375 199.99995 L215.82031 199.99995 L216.79688 199.99995 L217.77344 199.99995 L218.75000 199.99995 L219.72656 199.99995 L220.70313 199.99995 L221.67969 199.99995 L222.65625 199.99995 L223.63281 199.99995 L224.60938 199.99995 L225.58594 199.99995 L226.56250 199.99995 L227.53906 199.99995 L228.51563 199.99995 L229.49219 199.99995 L230.46875 199.99995 L231.44531 199.99994 L232.42188 199.99995 L233.39844 199.99994 L234.37500 199.99995 L235.35156 199.99995 L236.32813 199.99995 L237.30469 199.99995 L238.28125 199.99995 L239.25781 199.99995 L240.23438 199.99995 L241.21094 199.99995 L242.18750 199.99995 L243.16406 199.99995 L244.14063 199.99995 L245.11719 199.99995 L246.09375 199.99995 L247.07031 199.99995 L248.04688 199.99995 L249.02344 199.99995 L250.00000 199.99995 L250.97656 199.99995 L251.95313 199.99995 L252.92969 199.99995 L253.90625 199.99995 L254.88281 199.99995 L255.85938 199.99995 L256.83594 199.99995 L257.81250 199.99995 L258.78906 199.99995 L259.76563 199.99995 L260.74219 199.99995 L261.71875 199.99995 L262.69531 199.99995 L263.67188 199.99995 L264.64844 199.99995 L265.62500 199.99995 L266.60156 199.99995 L267.57813 199.99995 L268.55469 199.99994 L269.53125 199.99995 L270.50781 199.99995 L271.48438 199.99995 L272.46094 199.99995 L273.43750 199.99994 L274.41406 199.99995 L275.39063 199.99995 L276.36719 199.99995 L277.34375 199.99995 L278.32031 199.99995 L279.29688 199.99995 L280.27344 199.99995 L281.25000 199.99995 L282.22656 199.99995 L283.20313 199.99995 L284.17969 199.99995 L285.15625 199.99995 L286.13281 199.99995 L287.10938 199.99995 L288.08594 199.99995 L289.06250 199.99995 L290.03906 199.99995 L291.01563 199.99995 L291.99219 199.99995 L292.96875 199.99995 L293.94531 199.99995 L294.92188 199.99995 L295.89844 199.99995 L296.87500 199.99995 L297.85156 199.99995 L298.82813 199.99995 L299.80469 199.99995 L300.78125 199.99995 L301.75781 199.99995 L302.73438 199.99995 L303.71094 199.99995 L304.68750 199.99994 L305.66406 199.99995 L306.64063 199.99995 L307.61719 199.99995 L308.59375 199.99995 L309.57031 199.99995 L310.54688 199.99995 L311.52344 199.99995 L312.50000 199.99995 L313.47656 199.99995 L314.45313 199.99995 L315.42969 199.99995 L316.40625 199.99995 L317.38281 199.99995 L318.35938 199.99995 L319.33594 199.99995 L320.31250 199.99995 L321.28906 199.99995 L322.26563 199.99995 L323.24219 199.99995 L324.21875 199.99995 L325.19531 199.99995 L326.17188 199.99995 L327.14844 199.99995 L328.12500 199.99995 L329.10156 199.99995 L330.07813 199.99995 L331.05469 199.99995 L332.03125 199.99995 L333.00781 199.99995 L333.98438 199.99995 L334.96094 199.99995 L335.93750 199.99995 L336.91406 199.99995 L337.89063 199.99995 L338.86719 199.99995 L339.84375 199.99995 L340.82031 199.99995 L341.79688 199.99995 L342.77344 199.99995 L343.75000 199.99995 L344.72656 199.99995 L345.70313 199.99995 L346.67969 199.99995 L347.65625 199.99995 L348.63281 199.99995 L349.60938 199.99995 L350.58594 199.99995 L351.56250 199.99995 L352.53906 199.99995 L353.51563 199.99995 L354.49219 199.99995 L355.46875 199.99995 L356.44531 199.99995 L357.42188 199.99995 L358.39844 199.99995 L359.37500 199.99995 L360.35156 199.99995 L361.32813 199.99995 L362.30469 199.99995 L363.28125 199.99995 L364.25781 199.99995 L365.23438 199.99995 L366.21094 199.99995 L367.18750 199.99995 L368.16406 199.99995 L369.14063 199.99995 L370.11719 199.99995 L371.09375 199.99995 L372.07031 199.99995 L373.04688 199.99995 L374.02344 199.99995 L375.00000 199.99995 L375.97656 199.99995 L376.95313 199.99995 L377.92969 199.99994 L378.90625 199.99995 L379.88281 199.99995 L380.85938 199.99995 L381.83594 199.99995 L382.81250 199.99995 L383.78906 199.99995 L384.76563 199.99995 L385.74219 199.99995 L386.71875 199.99995 L387.69531 199.99995 L388.67188 199.99995 L389.64844 199.99995 L390.62500 199.99995 L391.60156 199.99995 L392.57813 199.99995 L393.55469 199.99995 L394.53125 199.99995 L395.50781 199.99995 L396.48438 199.99995 L397.46094 199.99995 L398.43750 199.99995 L399.41406 199.99995 L400.39063 199.99995 L401.36719 199.99995 L402.34375 199.99995 L403.32031 199.99995 L404.29688 199.99995 L405.27344 199.99995 L406.25000 199.99995 L407.22656 199.99995 L408.20313 199.99995 L409.17969 199.99995 L410.15625 199.99995 L411.13281 199.99995 L412.10938 199.99995 L413.08594 199.99995 L414.06250 199.99995 L415.03906 199.99995 L416.01563 199.99995 L416.99219 199.99995 L417.96875 199.99995 L418.94531 199.99995 L419.92188 199.99995 L420.89844 199.99995 L421.87500 199.99995 L422.85156 199.99995 L423.82813 199.99995 L424.80469 199.99995 L425.78125 199.99995 L426.75781 199.99995 L427.73438 199.99995 L428.71094 199.99995 L429.68750 199.99995 L430.66406 199.99995 L431.64063 199.99995 L432.61719 199.99995 L433.59375 199.99995 L434.57031 199.99995 L435.54688 199.99995 L436.52344 199.99995 L437.50000 199.99995 L438.47656 199.99995 L439.45313 199.99995 L440.42969 199.99995 L441.40625 199.99995 L442.38281 199.99995 L443.35938 199.99995 L444.33594 199.99995 L445.31250 199.99995 L446.28906 199.99995 L447.26563 199.99995 L448.24219 199.99995 L449.21875 199.99995 L450.19531 199.99995 L451.17188 199.99995 L452.14844 199.99995 L453.12500 199.99995 L454.10156 199.99995 L455.07813 199.99995 L456.05469 199.99995 L457.03125 199.99995 L458.00781 199.99995 L458.98438 199.99995 L459.96094 199.99995 L460.93750 199.99995 L461.91406 199.99995 L462.89063 199.99995 L463.86719 199.99995 L464.84375 199.99995 L465.82031 199.99995 L466.79688 199.99995 L467.77344 199.99995 L468.75000 199.99995 L469.72656 199.99995 L470.70313 199.99995 L471.67969 199.99995 L472.65625 199.99995 L473.63281 199.99995 L474.60938 199.99995 L475.58594 199.99995 L476.56250 199.99995 L477.53906 199.99995 L478.51563 199.99995 L479.49219 199.99995 L480.46875 199.99995 L481.44531 199.99995 L482.42188 199.99995 L483.39844 199.99995 L484.37500 199.99995 L485.35156 199.99995 L486.32813 199.99995 L487.30469 199.99995 L488.28125 199.99995 L489.25781 199.99995 L490.23438 199.99995 L491.21094 199.99995 L492.18750 199.99995 L493.16406 199.99995 L494.14063 199.99995 L495.11719 199.99995 L496.09375 199.99995 L497.07031 199.99995 L498.04688 199.99995 L499.02344 199.99995 L500.00000 199.99995 L500.97656 199.99995 L501.95313 199.99995 L502.92969 199.99995 L503.90625 199.99995 L504.88281 199.99995 L505.85938 199.99995 L506.83594 199.99995 L507.81250 199.99995 L508.78906 199.99995 L509.76563 199.99995 L510.74219 199.99995 L511.71875 199.99995 L512.69531 199.99995 L513.67188 199.99995 L514.64844 199.99995 L515.62500 199.99995 L516.60156 199.99995 L517.57813 199.99995 L518.55469 199.99995 L519.53125 199.99995 L520.50781 199.99995 L521.48438 199.99995 L522.46094 199.99995 L523.43750 199.99995 L524.41406 199.99995 L525.39063 199.99995 L526.36719 199.99995 L527.34375 199.99995 L528.32031 199.99995 L529.29688 199.99995 L530.27344 199.99995 L531.25000 199.99995 L532.22656 199.99995 L533.20313 199.99995 L534.17969 199.99995 L535.15625 199.99995 L536.13281 199.99995 L537.10938 199.99995 L538.08594 199.99995 L539.06250 199.99995 L540.03906 199.99995 L541.01563 199.99995 L541.99219 199.99995 L542.96875 199.99995 L543.94531 199.99995 L544.92188 199.99995 L545.89844 199.99995 L546.87500 199.99995 L547.85156 199.99995 L548.82813 199.99995 L549.80469 199.99995 L550.78125 199.99995 L551.75781 199.99995 L552.73438 199.99995 L553.71094 199.99995 L554.68750 199.99995 L555.66406 199.99995 L556.64063 199.99995 L557.61719 199.99995 L558.59375 199.99995 L559.57031 199.99995 L560.54688 199.99995 L561.52344 199.99995 L562.50000 199.99995 L563.47656 199.99995 L564.45313 199.99995 L565.42969 199.99995 L566.40625 199.99995 L567.38281 199.99995 L568.35938 199.99995 L569.33594 199.99995 L570.31250 199.99995 L571.28906 199.99995 L572.26563 199.99995 L573.24219 199.99995 L574.21875 199.99995 L575.19531 199.99995 L576.17188 199.99995 L577.14844 199.99995 L578.12500 199.99995 L579.10156 199.99995 L580.07813 199.99995 L581.05469 199.99995 L582.03125 199.99995 L583.00781 199.99995 L583.98438 199.99995 L584.96094 199.99995 L585.93750 199.99995 L586.91406 199.99995 L587.89063 199.99995 L588.86719 199.99995 L589.84375 199.99995 L590.82031 199.99995 L591.79688 199.99995 L592.77344 199.99995 L593.75000 199.99995 L594.72656 199.99995 L595.70313 199.99995 L596.67969 199.99995 L597.65625 199.99995 L598.63281 199.99995 L599.60938 199.99995 L600.58594 199.99995 L601.56250 199.99995 L602.53906 199.99995 L603.51563 199.99995 L604.49219 199.99995 L605.46875 199.99995 L606.44531 199.99995 L607.42188 199.99995 L608.39844 199.99995 L609.37500 199.99995 L610.35156 199.99995 L611.32813 199.99995 L612.30469 199.99995 L613.28125 199.99995 L614.25781 199.99995 L615.23438 199.99995 L616.21094 199.99995 L617.18750 199.99995 L618.16406 199.99995 L619.14063 199.99995 L620.11719 199.99995 L621.09375 199.99995 L622.07031 199.99994 L623.04688 199.99995 L624.02344 199.99995 L625.00000 199.99995 L625.97656 199.99995 L626.95313 199.99995 L627.92969 199.99995 L628.90625 199.99995 L629.88281 199.99995 L630.85938 199.99995 L631.83594 199.99995 L632.81250 199.99995 L633.78906 199.99995 L634.76563 199.99995 L635.74219 199.99995 L636.71875 199.99995 L637.69531 199.99995 L638.67188 199.99995 L639.64844 199.99995 L640.62500 199.99995 L641.60156 199.99995 L642.57813 199.99995 L643.55469 199.99995 L644.53125 199.99995 L645.50781 199.99995 L646.48438 199.99995 L647.46094 199.99995 L648.43750 199.99995 L649.41406 199.99995 L650.39063 199.99995 L651.36719 199.99995 L652.34375 199.99995 L653.32031 199.99995 L654.29688 199.99995 L655.27344 199.99995 L656.25000 199.99995 L657.22656 199.99995 L658.20313 199.99995 L659.17969 199.99995 L660.15625 199.99995 L661.13281 199.99995 L662.10938 199.99995 L663.08594 199.99995 L664.06250 199.99995 L665.03906 199.99995 L666.01563 199.99995 L666.99219 199.99995 L667.96875 199.99995 L668.94531 199.99995 L669.92188 199.99995 L670.89844 199.99995 L671.87500 199.99995 L672.85156 199.99995 L673.82813 199.99995 L674.80469 199.99995 L675.78125 199.99995 L676.75781 199.99995 L677.73438 199.99995 L678.71094 199.99995 L679.68750 199.99995 L680.66406 199.99995 L681.64063 199.99995 L682.61719 199.99995 L683.59375 199.99995 L684.57031 199.99995 L685.54688 199.99995 L686.52344 199.99995 L687.50000 199.99995 L688.47656 199.99995 L689.45313 199.99995 L690.42969 199.99995 L691.40625 199.99995 L692.38281 199.99995 L693.35938 199.99995 L694.33594 199.99995 L695.31250 199.99994 L696.28906 199.99995 L697.26563 199.99995 L698.24219 199.99995 L699.21875 199.99995 L700.19531 199.99995 L701.17188 199.99995 L702.14844 199.99995 L703.12500 199.99995 L704.10156 199.99995 L705.07813 199.99995 L706.05469 199.99995 L707.03125 199.99995 L708.00781 199.99995 L708.98438 199.99995 L709.96094 199.99995 L710.93750 199.99995 L711.91406 199.99995 L712.89063 199.99995 L713.86719 199.99995 L714.84375 199.99995 L715.82031 199.99995 L716.79688 199.99995 L717.77344 199.99995 L718.75000 199.99995 L719.72656 199.99995 L720.70313 199.99995 L721.67969 199.99995 L722.65625 199.99995 L723.63281 199.99995 L724.60938 199.99995 L725.58594 199.99995 L726.56250 199.99994 L727.53906 199.99995 L728.51563 199.99995 L729.49219 199.99995 L730.46875 199.99995 L731.44531 199.99994 L732.42188 199.99995 L733.39844 199.99995 L734.37500 199.99995 L735.35156 199.99995 L736.32813 199.99995 L737.30469 199.99995 L738.28125 199.99995 L739.25781 199.99995 L740.23438 199.99995 L741.21094 199.99995 L742.18750 199.99995 L743.16406 199.99995 L744.14063 199.99995 L745.11719 199.99995 L746.09375 199.99995 L747.07031 199.99995 L748.04688 199.99995 L749.02344 199.99995 L750.00000 199.99995 L750.97656 199.99995 L751.95313 199.99995 L752.92969 199.99995 L753.90625 199.99995 L754.88281 199.99995 L755.85938 199.99995 L756.83594 199.99995 L757.81250 199.99995 L758.78906 199.99995 L759.76563 199.99995 L760.74219 199.99995 L761.71875 199.99995 L762.69531 199.99995 L763.67188 199.99995 L764.64844 199.99995 L765.62500 199.99994 L766.60156 199.99994 L767.57813 199.99995 L768.55469 199.99994 L769.53125 199.99995 L770.50781 199.99995 L771.48438 199.99995 L772.46094 199.99995 L773.43750 199.99995 L774.41406 199.99995 L775.39063 199.99995 L776.36719 199.99995 L777.34375 199.99995 L778.32031 199.99995 L779.29688 199.99995 L780.27344 199.99995 L781.25000 199.99995 L782.22656 199.99995 L783.20313 199.99995 L784.17969 199.99995 L785.15625 199.99995 L786.13281 199.99995 L787.10938 199.99995 L788.08594 199.99995 L789.06250 199.99995 L790.03906 199.99995 L791.01563 199.99995 L791.99219 199.99995 L792.96875 199.99995 L793.94531 199.99995 L794.92188 199.99995 L795.89844 199.99995 L796.87500 199.99995 L797.85156 199.99994 L798.82813 199.99995 L799.80469 199.99994 L800.78125 199.99995 L801.75781 199.99995 L802.73438 199.99995 L803.71094 199.99994 L804.68750 199.99994 L805.66406 199.99995 L806.64063 199.99995 L807.61719 199.99995 L808.59375 199.99995 L809.57031 199.99995 L810.54688 199.99995 L811.52344 199.99995 L812.50000 199.99995 L813.47656 199.99995 L814.45313 199.99995 L815.42969 199.99995 L816.40625 199.99995 L817.38281 199.99995 L818.35938 199.99995 L819.33594 199.99995 L820.31250 199.99995 L821.28906 199.99995 L822.26563 199.99995 L823.24219 199.99995 L824.21875 199.99995 L825.19531 199.99995 L826.17188 199.99995 L827.14844 199.99995 L828.12500 199.99995 L829.10156 199.99995 L830.07813 199.99995 L831.05469 199.99995 L832.03125 199.99995 L833.00781 199.99995 L833.98438 199.99995 L834.96094 199.99994 L835.93750 199.99995 L836.91406 199.99995 L837.89063 199.99994 L838.86719 199.99994 L839.84375 199.99992 L840.82031 199.99994 L841.79688 199.99994 L842.77344 199.99995 L843.75000 199.99995 L844.72656 199.99995 L845.70313 199.99995 L846.67969 199.99995 L847.65625 199.99995 L848.63281 199.99995 L849.60938 199.99995 L850.58594 199.99995 L851.56250 199.99995 L852.53906 199.99995 L853.51563 199.99995 L854.49219 199.99995 L855.46875 199.99995 L856.44531 199.99995 L857.42188 199.99995 L858.39844 199.99995 L859.37500 199.99995 L860.35156 199.99995 L861.32813 199.99995 L862.30469 199.99995 L863.28125 199.99995 L864.25781 199.99995 L865.23438 199.99995 L866.21094 199.99995 L867.18750 199.99995 L868.16406 199.99995 L869.14063 199.99994 L870.11719 199.99994 L871.09375 199.99994 L872.07031 199.99994 L873.04688 199.99994 L874.02344 199.99995 L875.00000 199.99994 L875.97656 199.99992 L876.95313 199.99994 L877.92969 199.99995 L878.90625 199.99995 L879.88281 199.99995 L880.85938 199.99995 L881.83594 199.99995 L882.81250 199.99995 L883.78906 199.99995 L884.76563 199.99995 L885.74219 199.99995 L886.71875 199.99995 L887.69531 199.99995 L888.67188 199.99995 L889.64844 199.99995 L890.62500 199.99995 L891.60156 199.99995 L892.57813 199.99995 L893.55469 199.99995 L894.53125 199.99995 L895.50781 199.99995 L896.48438 199.99995 L897.46094 199.99995 L898.43750 199.99995 L899.41406 199.99995 L900.39063 199.99995 L901.36719 199.99995 L902.34375 199.99995 L903.32031 199.99995 L904.29688 199.99995 L905.27344 199.99994 L906.25000 199.99992 L907.22656 199.99994 L908.20313 199.99994 L909.17969 199.99995 L910.15625 199.99994 L911.13281 199.99991 L912.10938 199.99995 L913.08594 199.99989 L914.06250 199.99994 L915.03906 199.99995 L916.01563 199.99994 L916.99219 199.99995 L917.96875 199.99995 L918.94531 199.99995 L919.92188 199.99995 L920.89844 199.99995 L921.87500 199.99995 L922.85156 199.99995 L923.82813 199.99995 L924.80469 199.99995 L925.78125 199.99995 L926.75781 199.99995 L927.73438 199.99995 L928.71094 199.99995 L929.68750 199.99995 L930.66406 199.99995 L931.64063 199.99995 L932.61719 199.99995 L933.59375 199.99995 L934.57031 199.99995 L935.54688 199.99995 L936.52344 199.99994 L937.50000 199.99995 L938.47656 199.99995 L939.45313 199.99994 L940.42969 199.99995 L941.40625 199.99992 L942.38281 199.99989 L943.35938 199.99995 L944.33594 199.99991 L945.31250 199.99994 L946.28906 199.99994 L947.26563 199.99991 L948.24219 199.99988 L949.21875 199.99988 L950.19531 199.99992 L951.17188 199.99995 L952.14844 199.99994 L953.12500 199.99994 L954.10156 199.99995 L955.07813 199.99994 L956.05469 199.99995 L957.03125 199.99995 L958.00781 199.99994 L958.98438 199.99995 L959.96094 199.99995 L960.93750 199.99994 L961.91406 199.99995 L962.89063 199.99995 L963.86719 199.99995 L964.84375 199.99995 L965.82031 199.99995 L966.79688 199.99995 L967.77344 199.99995 L968.75000 199.99995 L969.72656 199.99995 L970.70313 199.99994 L971.67969 199.99995 L972.65625 199.99995 L973.63281 199.99995 L974.60938 199.99995 L975.58594 199.99994 L976.56250 199.99994 L977.53906 199.99994 L978.51563 199.99989 L979.49219 199.99985 L980.46875 199.99988 L981.44531 199.99994 L982.42188 199.99991 L983.39844 199.99986 L984.37500 0.00001 L985.35156 199.99988 L986.32813 199.99991 L987.30469 199.99992 L988.28125 199.99994 L989.25781 199.99994 L990.23438 199.99994 L991.21094 199.99994 L992.18750 199.99994 L993.16406 199.99995 L994.14063 199.99994 L995.11719 199.99994 L996.09375 199.99995 L997.07031 199.99994 L998.04688 199.99994 L999.02344 199.99995" /><path fill="none" stroke="#000000" d="M0 300.00000  L0.00000 300.00000  L0.97656 270.56488  L1.95313 318.01419  L2.92969 297.71454  L3.90625 290.80850  L4.88281 306.78430  L5.85938 285.94171  L6.83594 314.94370  L7.81250 303.25449  L8.78906 281.11905  L9.76563 301.56152  L10.74219 293.94971  L11.71875 287.11459  L12.69531 304.09052  L13.67188 293.81799  L14.64844 297.76291  L15.62500 299.99994  L16.60156 207.32822  L17.57813 200.20381  L18.55469 242.76439  L19.53125 229.79552  L20.50781 399.74054  L21.48438 366.05383  L22.46094 342.43042  L23.43750 385.83533  L24.41406 360.71863  L25.39063 372.22595  L26.36719 381.09717  L27.34375 379.47589  L28.32031 369.09344  L29.29688 371.11420  L30.27344 208.29541  L31.25000 368.98257  L32.22656 372.35394  L33.20313 387.82294  L34.17969 360.81625  L35.15625 343.85617  L36.13281 396.72668  L37.10938 345.16055  L38.08594 321.09702  L39.06250 392.35135  L40.03906 339.36844  L41.01563 371.43073  L41.99219 367.06317  L42.96875 318.02069  L43.94531 396.28345  L44.92188 358.85257  L45.89844 325.71216  L46.87500 379.13824  L47.85156 347.55902  L48.82813 296.23163  L49.80469 368.26477  L50.78125 336.94153  L51.75781 299.57031  L52.73438 269.50317  L53.71094 229.79474  L54.68750 396.53461  L55.66406 314.29724  L56.64063 228.95206  L57.61719 278.41302  L58.59375 214.34097  L59.57031 273.20065  L60.54688 266.07788  L61.52344 399.07483  L62.50000 270.80698  L63.47656 264.38010  L64.45313 385.95453  L65.42969 258.88251  L66.40625 233.02289  L67.38281 325.95825  L68.35938 246.36523  L69.33594 259.79507  L70.31250 259.90918  L71.28906 231.95547  L72.26563 251.17844  L73.24219 266.28174  L74.21875 208.73169  L75.19531 287.24841  L76.17188 255.20921  L77.14844 262.68076  L78.12500 260.38428  L79.10156 247.68204  L80.07813 332.51971  L81.05469 257.27667  L82.03125 237.12965  L83.00781 297.38522  L83.98438 235.73724  L84.96094 226.73444  L85.93750 289.95700  L86.91406 222.28590  L87.89063 226.63297  L88.86719 382.23871  L89.84375 305.83130  L90.82031 248.16119  L91.79688 214.31108  L92.77344 208.12299  L93.75000 371.26611  L94.72656 335.33508  L95.70313 258.22516  L96.67969 364.70551  L97.65625 323.84058  L98.63281 227.41182  L99.60938 361.51147  L100.58594 376.63007  L101.56250 393.89407  L102.53906 343.72412  L103.51563 216.64220  L104.49219 209.73260  L105.46875 356.51819  L106.44531 349.40897  L107.42188 382.07733  L108.39844 327.06335  L109.37500 297.34464  L110.35156 375.45343  L111.32813 328.00671  L112.30469 386.06812  L113.28125 353.42007  L114.25781 301.70624  L115.23438 365.42316  L116.21094 333.84412  L117.18750 383.43552  L118.16406 343.55994  L119.14063 360.19650  L120.11719 343.30261  L121.09375 341.31989  L122.07031 374.69510  L123.04688 337.72076  L124.02344 308.88010  L125.00000 262.30219  L125.97656 235.65895  L126.95313 322.96808  L127.92969 368.82715  L128.90625 302.32928  L129.88281 241.81970  L130.85938 269.62100  L131.83594 345.96799  L132.81250 210.71777  L133.78906 238.09422  L134.76563 330.68298  L135.74219 265.82162  L136.71875 259.96521  L137.69531 308.79877  L138.67188 212.09258  L139.64844 214.25781  L140.62500 300.17343  L141.60156 242.57664  L142.57813 236.42690  L143.55469 286.96313  L144.53125 310.01727  L145.50781 394.19382  L146.48438 268.81317  L147.46094 215.40747  L148.43750 280.66443  L149.41406 252.00616  L150.39063 278.23553  L151.36719 391.00711  L152.34375 266.91504  L153.32031 272.88696  L154.29688 259.65094  L155.27344 242.11075  L156.25000 285.54480  L157.22656 377.48883  L158.20313 224.72025  L159.17969 263.08698  L160.15625 204.53795  L161.13281 337.58008  L162.10938 378.25854  L163.08594 251.49188  L164.06250 255.24672  L165.03906 392.64038  L166.01563 370.53781  L166.99219 331.09436  L167.96875 352.37097  L168.94531 387.32629  L169.92188 312.71866  L170.89844 331.07440  L171.87500 395.95813  L172.85156 322.45215  L173.82813 365.35306  L174.80469 361.06079  L175.78125 269.92917  L176.75781 200.01234  L177.73438 356.61377  L178.71094 354.10077  L179.68750 340.37830  L180.66406 375.10843  L181.64063 339.39481  L182.61719 281.61688  L183.59375 202.64510  L184.57031 361.10120  L185.54688 372.30820  L186.52344 344.45667  L187.50000 281.80484  L188.47656 395.09219  L189.45313 353.77933  L190.42969 372.18573  L191.40625 344.95627  L192.38281 352.27460  L193.35938 358.57196  L194.33594 356.29163  L195.31250 343.14813  L196.28906 303.81198  L197.26563 277.58722  L198.24219 229.31921  L199.21875 388.10260  L200.19531 315.31531  L201.17188 341.39856  L202.14844 283.48596  L203.12500 221.39359  L204.10156 379.40955  L205.07813 272.47461  L206.05469 207.18884  L207.03125 326.48816  L208.00781 292.72391  L208.98438 200.26183  L209.96094 266.19641  L210.93750 242.65663  L211.91406 344.02612  L212.89063 263.11649  L213.86719 276.93951  L214.84375 212.36600  L215.82031 231.11906  L216.79688 256.97275  L217.77344 343.83862  L218.75000 211.72794  L219.72656 301.75430  L220.70313 281.28931  L221.67969 273.47256  L222.65625 226.27483  L223.63281 298.30368  L224.60938 306.69403  L225.58594 279.51425  L226.56250 242.26135  L227.53906 258.82623  L228.51563 232.07211  L229.49219 240.33311  L230.46875 279.44855  L231.44531 224.34412  L232.42188 243.93730  L233.39844 385.37268  L234.37500 293.07428  L235.35156 262.21442  L236.32813 213.50395  L237.30469 215.61096  L238.28125 373.83197  L239.25781 339.49765  L240.23438 248.70807  L241.21094 378.21695  L242.18750 323.70508  L243.16406 237.86987  L244.14063 379.74091  L245.11719 370.67786  L246.09375 206.67511  L247.07031 337.96622  L248.04688 261.35095  L249.02344 207.30768  L250.00000 378.92810  L250.97656 307.57721  L251.95313 395.40140  L252.92969 348.14502  L253.90625 281.88440  L254.88281 219.69232  L255.85938 234.03665  L256.83594 200.22372  L257.81250 336.61627  L258.78906 338.80423  L259.76563 210.53714  L260.74219 268.05661  L261.71875 383.74402  L262.69531 341.97473  L263.67188 363.14258  L264.64844 369.03925  L265.62500 338.90088  L266.60156 378.91916  L267.57813 331.80759  L268.55469 309.18454  L269.53125 279.71478  L270.50781 397.36902  L271.48438 351.80273  L272.46094 390.99756  L273.43750 303.15463  L274.41406 215.26685  L275.39063 240.38046  L276.36719 229.53703  L277.34375 289.18799  L278.32031 267.71484  L279.29688 351.36469  L280.27344 315.39642  L281.25000 259.79926  L282.22656 200.00000  L283.20313 263.42270  L284.17969 392.18402  L285.15625 321.22778  L286.13281 250.39522  L287.10938 245.30025  L288.08594 354.06964  L289.06250 239.23997  L290.03906 250.69743  L291.01563 318.21164  L291.99219 364.44373  L292.96875 295.88043  L293.94531 237.35068  L294.92188 249.97876  L295.89844 297.47299  L296.87500 322.57907  L297.85156 297.36307  L298.82813 269.86768  L299.80469 215.88593  L300.78125 224.47038  L301.75781 249.70934  L302.73438 256.64136  L303.71094 280.94260  L304.68750 206.11325  L305.66406 312.18350  L306.64063 340.11142  L307.61719 319.85406  L308.59375 219.75725  L309.57031 205.46927  L310.54688 377.41931  L311.52344 336.00739  L312.50000 283.98630  L313.47656 370.83441  L314.45313 342.94110  L315.42969 266.68851  L316.40625 210.98958  L317.38281 340.27759  L318.35938 374.12671  L319.33594 229.76260  L320.31250 291.43307  L321.28906 203.10580  L322.26563 388.44513  L323.24219 340.24127  L324.21875 295.09589  L325.19531 389.82031  L326.17188 323.96802  L327.14844 266.39917  L328.12500 211.95007  L329.10156 393.03241  L330.07813 370.64294  L331.05469 332.57599  L332.03125 293.79108  L333.00781 204.55240  L333.98438 341.76019  L334.96094 370.94635  L335.93750 329.41754  L336.91406 341.07272  L337.89063 356.57434  L338.86719 348.46017  L339.84375 345.61548  L340.82031 312.29663  L341.79688 279.03564  L342.77344 240.55190  L343.75000 378.59796  L344.72656 319.86713  L345.70313 381.63907  L346.67969 284.33084  L347.65625 217.53922  L348.63281 395.72400  L349.60938 285.15048  L350.58594 399.30383  L351.56250 369.73038  L352.53906 297.96658  L353.51563 258.44083  L354.49219 280.60547  L355.46875 218.95061  L356.44531 343.17838  L357.42188 329.11237  L358.39844 287.29654  L359.37500 234.92902  L360.35156 230.92389  L361.32813 280.63733  L362.30469 209.49075  L363.28125 383.07050  L364.25781 311.19156  L365.23438 366.23956  L366.21094 275.80618  L367.18750 218.53342  L368.16406 349.52716  L369.14063 308.54791  L370.11719 280.30966  L371.09375 249.96637  L372.07031 254.32886  L373.04688 226.94246  L374.02344 249.88457  L375.00000 276.31494  L375.97656 225.20395  L376.95313 253.70432  L377.92969 388.19452  L378.90625 310.49261  L379.88281 258.70187  L380.85938 220.75894  L381.83594 213.86955  L382.81250 380.71362  L383.78906 336.72086  L384.76563 272.86008  L385.74219 384.68982  L386.71875 316.78668  L387.69531 244.47308  L388.67188 398.83441  L389.64844 387.55609  L390.62500 295.56610  L391.60156 344.57248  L392.57813 216.39429  L393.55469 237.70657  L394.53125 375.30664  L395.50781 337.69031  L396.48438 204.76341  L397.46094 368.33038  L398.43750 290.71753  L399.41406 233.61438  L400.39063 241.58621  L401.36719 399.55225  L402.34375 360.37027  L403.32031 304.93121  L404.29688 267.96790  L405.27344 345.51306  L406.25000 390.06683  L407.22656 337.07629  L408.20313 341.25677  L409.17969 328.47766  L410.15625 339.61945  L411.13281 358.10004  L412.10938 340.88684  L413.08594 324.73126  L414.06250 273.72601  L415.03906 228.03232  L416.01563 337.10986  L416.99219 361.44418  L417.96875 302.03613  L418.94531 241.88168  L419.92188 275.22867  L420.89844 359.98386  L421.87500 331.50995  L422.85156 242.72188  L423.82813 333.48959  L424.80469 321.92587  L425.78125 267.77832  L426.75781 359.63586  L427.73438 310.94495  L428.71094 209.56435  L429.68750 315.76151  L430.66406 282.99393  L431.64063 233.02383  L432.61719 336.28256  L433.59375 301.48837  L434.57031 389.50232  L435.54688 347.76996  L436.52344 219.41977  L437.50000 297.12762  L438.47656 249.83179  L439.45313 221.17230  L440.42969 383.25317  L441.40625 315.32288  L442.38281 270.33749  L443.35938 264.35925  L444.33594 246.77702  L445.31250 290.84134  L446.28906 280.09192  L447.26563 227.47591  L448.24219 264.10422  L449.21875 211.05034  L450.19531 344.85803  L451.17188 380.09134  L452.14844 258.09412  L453.12500 242.73952  L454.10156 391.63718  L455.07813 376.60010  L456.05469 354.87640  L457.03125 276.18274  L458.00781 226.96658  L458.98438 317.00690  L459.96094 291.52872  L460.93750 208.84705  L461.91406 345.14465  L462.89063 349.92163  L463.86719 395.07413  L464.84375 280.13235  L465.82031 218.69556  L466.79688 388.81512  L467.77344 348.22931  L468.75000 296.29694  L469.72656 201.42336  L470.70313 331.30487  L471.67969 262.94232  L472.65625 210.63545  L473.63281 366.54071  L474.60938 380.90607  L475.58594 337.82086  L476.56250 291.30838  L477.53906 205.91187  L478.51563 344.65305  L479.49219 377.71667  L480.46875 327.15717  L481.44531 336.66946  L482.42188 363.20441  L483.39844 348.19794  L484.37500 200.55618  L485.35156 313.19580  L486.32813 289.95758  L487.30469 245.36301  L488.28125 382.72461  L489.25781 317.05432  L490.23438 264.62613  L491.21094 288.68213  L492.18750 214.66333  L493.16406 217.80524  L494.14063 302.67709  L495.11719 392.72528  L496.09375 368.54987  L497.07031 312.27600  L498.04688 222.32550  L499.02344 255.95569  L500.00000 300.00000  L500.97656 344.04431  L501.95313 377.67444  L502.92969 287.72400  L503.90625 231.45012  L504.88281 207.27469  L505.85938 297.32291  L506.83594 382.19482  L507.81250 385.33667  L508.78906 311.31787  L509.76563 335.37408  L510.74219 282.94568  L511.71875 217.27539  L512.69531 354.63696  L513.67188 310.04239  L514.64844 286.80417  L515.62500 249.93439  L516.60156 251.80200  L517.57813 236.79555  L518.55469 263.33054  L519.53125 272.84286  L520.50781 222.28329  L521.48438 255.34705  L522.46094 394.08813  L523.43750 308.69162  L524.41406 262.17917  L525.39063 219.09392  L526.36719 233.45932  L527.34375 389.36456  L528.32031 337.05768  L529.29688 268.69513  L530.27344 398.57660  L531.25000 303.70306  L532.22656 251.77069  L533.20313 211.18491  L534.17969 381.30444  L535.15625 319.86758  L536.13281 204.92586  L537.10938 250.07835  L538.08594 254.85536  L539.06250 391.15295  L540.03906 308.47128  L541.01563 282.99307  L541.99219 373.03339  L542.96875 323.81720  L543.94531 245.12361  L544.92188 223.39990  L545.89844 208.36282  L546.87500 338.07748  L547.85156 341.90588  L548.82813 219.90868  L549.80469 255.14197  L550.78125 388.94968  L551.75781 335.89578  L552.73438 372.52411  L553.71094 319.90808  L554.68750 309.15869  L555.66406 353.22296  L556.64063 335.64075  L557.61719 329.66254  L558.59375 284.67712  L559.57031 216.74684  L560.54688 378.82770  L561.52344 350.16821  L562.50000 302.87238  L563.47656 380.58026  L564.45313 252.23003  L565.42969 210.49770  L566.40625 298.51163  L567.38281 263.71747  L568.35938 366.97617  L569.33594 317.00604  L570.31250 284.23849  L571.28906 390.43567  L572.26563 289.05511  L573.24219 240.36407  L574.21875 332.22168  L575.19531 278.07410  L576.17188 266.51041  L577.14844 357.27811  L578.12500 247.59644  L579.10156 240.01611  L580.07813 324.77133  L581.05469 358.11829  L582.03125 297.96384  L583.00781 238.55582  L583.98438 262.89014  L584.96094 371.96768  L585.93750 326.27396  L586.91406 275.26874  L587.89063 259.11316  L588.86719 241.89993  L589.84375 260.38055  L590.82031 271.52231  L591.79688 258.74323  L592.77344 262.92371  L593.75000 209.93317  L594.72656 254.48697  L595.70313 332.03207  L596.67969 295.06879  L597.65625 239.62971  L598.63281 200.44774  L599.60938 358.41376  L600.58594 366.38562  L601.56250 309.28247  L602.53906 231.66959  L603.51563 395.23657  L604.49219 262.30969  L605.46875 224.69336  L606.44531 362.29340  L607.42188 383.60568  L608.39844 255.42754  L609.37500 283.56213  L610.35156 212.44392  L611.32813 201.16559  L612.30469 355.52692  L613.28125 283.21329  L614.25781 215.31015  L615.23438 327.13995  L616.21094 263.27914  L617.18750 219.28638  L618.16406 386.13049  L619.14063 379.24106  L620.11719 341.29813  L621.09375 289.50739  L622.07031 211.80547  L623.04688 346.29568  L624.02344 374.79605  L625.00000 323.68503  L625.97656 350.11542  L626.95313 373.05756  L627.92969 345.67111  L628.90625 350.03363  L629.88281 319.69037  L630.85938 291.45209  L631.83594 250.47282  L632.81250 381.46655  L633.78906 324.19382  L634.76563 233.76044  L635.74219 288.80844  L636.71875 216.92949  L637.69531 390.50934  L638.67188 319.36267  L639.64844 369.07614  L640.62500 375.81055  L641.60156 312.70349  L642.57813 270.88757  L643.55469 256.82159  L644.53125 381.04938  L645.50781 319.39450  L646.48438 341.55923  L647.46094 302.03345  L648.43750 230.26962  L649.41406 200.69614  L650.39063 314.84952  L651.36719 204.27602  L652.34375 382.46078  L653.32031 315.66916  L654.29688 218.36093  L655.27344 280.13287  L656.25000 221.40201  L657.22656 359.44812  L658.20313 320.96439  L659.17969 287.70337  L660.15625 254.38449  L661.13281 251.53983  L662.10938 243.42566  L663.08594 258.92731  L664.06250 270.58246  L665.03906 229.05367  L666.01563 258.23981  L666.99219 395.44760  L667.96875 306.20886  L668.94531 267.42401  L669.92188 229.35704  L670.89844 206.96759  L671.87500 392.40915  L672.85156 333.60080  L673.82813 276.03195  L674.80469 210.17961  L675.78125 304.90408  L676.75781 259.75876  L677.73438 211.55487  L678.71094 396.89417  L679.68750 308.56693  L680.66406 370.23740  L681.64063 225.87329  L682.61719 259.72241  L683.59375 389.01041  L684.57031 333.31149  L685.54688 257.05887  L686.52344 229.16559  L687.50000 316.01370  L688.47656 263.99258  L689.45313 222.58069  L690.42969 394.53073  L691.40625 380.24274  L692.38281 280.14578  L693.35938 259.88858  L694.33594 287.81650  L695.31250 393.88675  L696.28906 319.05737  L697.26563 343.35864  L698.24219 350.29065  L699.21875 375.52960  L700.19531 384.11407  L701.17188 330.13232  L702.14844 302.63696  L703.12500 273.02393  L704.10156 302.52707  L705.07813 350.02124  L706.05469 362.64932  L707.03125 304.11957  L708.00781 235.55627  L708.98438 281.78836  L709.96094 349.30255  L710.93750 360.76004  L711.91406 245.93037  L712.89063 354.69977  L713.86719 349.60480  L714.84375 278.77222  L715.82031 207.81601  L716.79688 336.57730  L717.77344 400.00000  L718.75000 340.20074  L719.72656 284.60358  L720.70313 248.63531  L721.67969 332.28519  L722.65625 310.81201  L723.63281 370.46295  L724.60938 359.61954  L725.58594 384.73312  L726.56250 296.84537  L727.53906 209.00243  L728.51563 248.19724  L729.49219 202.63086  L730.46875 320.28522  L731.44531 290.81546  L732.42188 268.19241  L733.39844 221.08087  L734.37500 220.68814  L735.35156 230.96078  L736.32813 236.85741  L737.30469 258.02527  L738.28125 216.25597  L739.25781 331.94339  L740.23438 389.46286  L741.21094 261.19577  L742.18750 263.38373  L743.16406 399.77631  L744.14063 365.96344  L745.11719 380.30774  L746.09375 318.11554  L747.07031 251.85501  L748.04688 204.59863  L749.02344 292.42279  L750.00000 221.07188  L750.97656 392.69235  L751.95313 338.64908  L752.92969 262.03381  L753.90625 393.32498  L754.88281 229.32214  L755.85938 220.25911  L756.83594 362.13013  L757.81250 276.29492  L758.78906 221.78307  L759.76563 351.29193  L760.74219 260.50235  L761.71875 226.16805  L762.69531 384.38904  L763.67188 386.49603  L764.64844 337.78558  L765.62500 299.70172  L766.60156 214.62729  L767.57813 356.06265  L768.55469 375.65588  L769.53125 320.55148  L770.50781 359.66678  L771.48438 367.92792  L772.46094 341.17377  L773.43750 357.73865  L774.41406 320.48575  L775.39063 293.30597  L776.36719 301.69635  L777.34375 373.72516  L778.32031 326.52740  L779.29688 318.71069  L780.27344 298.24570  L781.25000 388.27203  L782.22656 256.16199  L783.20313 343.02722  L784.17969 368.88098  L785.15625 387.63400  L786.13281 323.06049  L787.10938 336.88354  L788.08594 255.97385  L789.06250 357.34338  L790.03906 333.80359  L791.01563 399.73816  L791.99219 307.27606  L792.96875 273.51190  L793.94531 392.81116  L794.92188 327.52539  L795.89844 220.59067  L796.87500 387.41000  L797.85156 316.51401  L798.82813 258.60156  L799.80469 284.68469  L800.78125 211.89738  L801.75781 370.68079  L802.73438 322.41278  L803.71094 296.18802  L804.68750 256.85184  L805.66406 243.70839  L806.64063 241.42804  L807.61719 247.72539  L808.59375 255.04373  L809.57031 227.81427  L810.54688 246.22067  L811.52344 204.90779  L812.50000 318.19513  L813.47656 255.54330  L814.45313 227.69179  L815.42969 238.89882  L816.40625 397.35489  L817.38281 318.38312  L818.35938 260.60519  L819.33594 224.89157  L820.31250 259.62167  L821.28906 245.89923  L822.26563 243.38626  L823.24219 399.98764  L824.21875 330.07080  L825.19531 238.93918  L826.17188 234.64693  L827.14844 277.54785  L828.12500 201.65919  L829.10156 268.92560  L830.07813 287.28131  L831.05469 212.67368  L832.03125 247.62909  L833.00781 268.90564  L833.98438 229.46220  L834.96094 207.35960  L835.93750 344.75330  L836.91406 348.50812  L837.89063 221.74142  L838.86719 262.41995  L839.84375 395.46204  L840.82031 336.91299  L841.79688 375.27975  L842.77344 222.51118  L843.75000 314.45517  L844.72656 357.88928  L845.70313 340.34906  L846.67969 327.11304  L847.65625 333.08496  L848.63281 208.99286  L849.60938 321.76447  L850.58594 347.99384  L851.56250 319.33554  L852.53906 384.59250  L853.51563 331.18686  L854.49219 205.80623  L855.46875 289.98279  L856.44531 313.03690  L857.42188 363.57312  L858.39844 357.42328  L859.37500 244.68350  L860.35156 385.74216  L861.32813 387.90738  L862.30469 291.20117  L863.28125 340.03479  L864.25781 334.17838  L865.23438 269.31702  L866.21094 361.90576  L867.18750 389.28223  L868.16406 254.03200  L869.14063 330.37897  L870.11719 358.18030  L871.09375 297.67072  L872.07031 231.17287  L873.04688 277.03192  L874.02344 364.34106  L875.00000 337.69781  L875.97656 291.11990  L876.95313 262.27924  L877.92969 225.30490  L878.90625 258.68011  L879.88281 256.69736  L880.85938 239.80350  L881.83594 256.44006  L882.81250 216.56448  L883.78906 266.15588  L884.76563 234.57683  L885.74219 298.29376  L886.71875 246.57990  L887.69531 213.93185  L888.67188 271.99323  L889.64844 224.54654  L890.62500 292.42719  L891.60156 272.93665  L892.57813 217.92270  L893.55469 250.59106  L894.53125 243.48181  L895.50781 390.26736  L896.48438 383.35785  L897.46094 256.27588  L898.43750 206.10597  L899.41406 223.36992  L900.39063 238.48851  L901.36719 372.58820  L902.34375 276.15942  L903.32031 235.29448  L904.29688 341.77484  L905.27344 264.66492  L906.25000 228.73386  L907.22656 391.87701  L908.20313 385.68890  L909.17969 351.83878  L910.15625 294.16867  L911.13281 217.76129  L912.10938 373.36703  L913.08594 377.71411  L914.06250 310.04300  L915.03906 373.26556  L916.01563 364.26276  L916.99219 302.61475  L917.96875 362.87030  L918.94531 342.72333  L919.92188 267.48029  L920.89844 352.31796  L921.87500 340.58496  L922.85156 337.31924  L923.82813 344.79077  L924.80469 312.75159  L925.78125 391.26831  L926.75781 333.71832  L927.73438 348.82159  L928.71094 368.04453  L929.68750 340.09082  L930.66406 340.20493  L931.64063 353.63477  L932.61719 274.04175  L933.59375 366.97711  L934.57031 341.11749  L935.54688 214.04547  L936.52344 335.61990  L937.50000 329.19299  L938.47656 200.92516  L939.45313 333.92212  L940.42969 326.79938  L941.40625 385.65903  L942.38281 321.58698  L943.35938 371.04794  L944.33594 285.70276  L945.31250 203.46536  L946.28906 370.20526  L947.26563 330.49683  L948.24219 300.42969  L949.21875 263.05847  L950.19531 231.73521  L951.17188 303.76840  L952.14844 252.44098  L953.12500 213.76329  L954.10156 274.28784  L955.07813 241.14743  L956.05469 203.71654  L957.03125 281.97931  L958.00781 232.93681  L958.98438 228.56927  L959.96094 260.63156  L960.93750 207.64864  L961.91406 278.90302  L962.89063 254.83945  L963.86719 203.27332  L964.84375 256.14383  L965.82031 239.18375  L966.79688 212.17705  L967.77344 227.64606  L968.75000 231.01743  L969.72656 391.70453  L970.70313 228.88580  L971.67969 230.90656  L972.65625 220.52411  L973.63281 218.90282  L974.60938 227.77403  L975.58594 239.28139  L976.56250 214.16469  L977.53906 257.56958  L978.51563 233.94615  L979.49219 200.25946  L980.46875 370.20447  L981.44531 357.23560  L982.42188 399.79620  L983.39844 392.67178  L984.37500 300.00003  L985.35156 302.23709  L986.32813 306.18201  L987.30469 295.90948  L988.28125 312.88541  L989.25781 306.05029  L990.23438 298.43848  L991.21094 318.88095  L992.18750 296.74548  L993.16406 285.05630  L994.14063 314.05826  L995.11719 293.21570  L996.09375 309.19150  L997.07031 302.28546  L998.04688 281.98578  L999.02344 329.43512 " /></g><text x="1000.00000" dx="10" y="199.99995">[-0.00000;0.50000]</text><text x="1000.00000" dx="10" y="300.00000">[-3.13748;3.13748]</text></svg>