<svg xmlns="http://www.w3.org/2000/svg" version="1.1"><g stroke-width="0.6"><path fill="none" stroke="#000000" d="M0 158.68741 L1000.00000 158.68741" /><path fill="none" stroke="#000000" d="M0 300.00000 L1000.00000 300.00000" /><path fill="none" stroke="#000000" d="M500.00000 0 L500.00000 400.00000" /><path fill="none" stroke="#000000" d="M0 158.68741  L0.00000 151.40215 L0.97656 151.33965 L1.95313 151.14487 L2.92969 150.79300 L3.90625 150.23430 L4.88281 149.37163 L5.85938 148.01131 L6.83594 145.71298 L7.81250 141.24388 L8.78906 129.38625 L9.76563 17.92142 L10.74219 200.00000 L11.71875 175.25117 L12.69531 168.48055 L13.67188 165.33974 L14.64844 163.53812 L15.62500 162.37659 L16.60156 161.56929 L17.57813 160.97856 L18.55469 160.52934 L19.53125 160.17738 L20.50781 159.89505 L21.48438 159.66418 L22.46094 159.47247 L23.43750 159.31111 L24.41406 159.17366 L25.39063 159.05519 L26.36719 158.95206 L27.34375 158.86221 L28.32031 158.78233 L29.29688 158.71179 L30.27344 158.64867 L31.25000 158.59195 L32.22656 158.54070 L33.20313 158.49405 L34.17969 158.45154 L35.15625 158.41272 L36.13281 158.37679 L37.10938 158.34361 L38.08594 158.31284 L39.06250 158.28406 L40.03906 158.25716 L41.01563 158.23192 L41.99219 158.20813 L42.96875 158.18558 L43.94531 158.16409 L44.92188 158.14365 L45.89844 158.12410 L46.87500 158.10538 L47.85156 158.08722 L48.82813 158.06976 L49.80469 158.05257 L50.78125 158.03593 L51.75781 158.01958 L52.73438 158.00354 L53.71094 157.98781 L54.68750 157.97179 L55.66406 157.95628 L56.64063 157.94063 L57.61719 157.92587 L58.59375 157.90909 L59.57031 157.89429 L60.54688 157.87802 L61.52344 157.86153 L62.50000 157.84470 L63.47656 157.82755 L64.45313 157.81021 L65.42969 157.79202 L66.40625 157.77328 L67.38281 157.75374 L68.35938 157.73334 L69.33594 157.71231 L70.31250 157.68982 L71.28906 157.66618 L72.26563 157.64119 L73.24219 157.61472 L74.21875 157.58667 L75.19531 157.55637 L76.17188 157.52393 L77.14844 157.48889 L78.12500 157.45111 L79.10156 157.40993 L80.07813 157.36485 L81.05469 157.31512 L82.03125 157.26027 L83.00781 157.19926 L83.98438 157.13106 L84.96094 157.05397 L85.93750 156.96588 L86.91406 156.86491 L87.89063 156.74767 L88.86719 156.61035 L89.84375 156.44612 L90.82031 156.24727 L91.79688 156.00063 L92.77344 155.68707 L93.75000 155.27545 L94.72656 154.71106 L95.70313 153.88963 L96.67969 152.58420 L97.65625 150.18987 L98.63281 144.37286 L99.60938 109.46256 L100.58594 190.92636 L101.56250 170.56258 L102.53906 165.86487 L103.51563 163.77827 L104.49219 162.59991 L105.46875 161.84332 L106.44531 161.31662 L107.42188 160.92941 L108.39844 160.63292 L109.37500 160.39893 L110.35156 160.20959 L111.32813 160.05360 L112.30469 159.92287 L113.28125 159.81197 L114.25781 159.71677 L115.23438 159.63428 L116.21094 159.56233 L117.18750 159.49890 L118.16406 159.44298 L119.14063 159.39310 L120.11719 159.34875 L121.09375 159.30890 L122.07031 159.27325 L123.04688 159.24104 L124.02344 159.21179 L125.00000 159.18530 L125.97656 159.16159 L126.95313 159.14000 L127.92969 159.12044 L128.90625 159.10272 L129.88281 159.08659 L130.85938 159.07201 L131.83594 159.05888 L132.81250 159.04718 L133.78906 159.03674 L134.76563 159.02737 L135.74219 159.01909 L136.71875 159.01189 L137.69531 159.00539 L138.67188 159.00017 L139.64844 158.99567 L140.62500 158.99223 L141.60156 158.98950 L142.57813 158.98761 L143.55469 158.98642 L144.53125 158.98598 L145.50781 158.98642 L146.48438 158.98764 L147.46094 158.98958 L148.43750 158.99211 L149.41406 158.99548 L150.39063 158.99966 L151.36719 159.00482 L152.34375 159.01047 L153.32031 159.01704 L154.29688 159.02432 L155.27344 159.03265 L156.25000 159.04205 L157.22656 159.05174 L158.20313 159.06293 L159.17969 159.07477 L160.15625 159.08757 L161.13281 159.10172 L162.10938 159.11720 L163.08594 159.13364 L164.06250 159.15135 L165.03906 159.17059 L166.01563 159.19147 L166.99219 159.21408 L167.96875 159.23820 L168.94531 159.26355 L169.92188 159.29184 L170.89844 159.32246 L171.87500 159.35602 L172.85156 159.39203 L173.82813 159.43083 L174.80469 159.47275 L175.78125 159.51842 L176.75781 159.56866 L177.73438 159.62370 L178.71094 159.68413 L179.68750 159.75053 L180.66406 159.82416 L181.64063 159.90610 L182.61719 159.99780 L183.59375 160.10063 L184.57031 160.21698 L185.54688 160.34943 L186.52344 160.50162 L187.50000 160.67813 L188.47656 160.88490 L189.45313 161.13068 L190.42969 161.42703 L191.40625 161.79134 L192.38281 162.24986 L193.35938 162.84389 L194.33594 163.64369 L195.31250 164.77771 L196.28906 166.50989 L197.26563 169.48088 L198.24219 175.75537 L199.21875 197.72147 L200.19531 0.00002 L201.17188 131.81256 L202.14844 143.79333 L203.12500 148.28494 L204.10156 150.63669 L205.07813 152.08333 L206.05469 153.06279 L207.03125 153.76967 L208.00781 154.30371 L208.98438 154.72127 L209.96094 155.05670 L210.93750 155.33186 L211.91406 155.56177 L212.89063 155.75644 L213.86719 155.92363 L214.84375 156.06857 L215.82031 156.19560 L216.79688 156.30771 L217.77344 156.40723 L218.75000 156.49628 L219.72656 156.57634 L220.70313 156.64890 L221.67969 156.71472 L222.65625 156.77461 L223.63281 156.82965 L224.60938 156.88008 L225.58594 156.92671 L226.56250 156.96986 L227.53906 157.00981 L228.51563 157.04694 L229.49219 157.08145 L230.46875 157.11372 L231.44531 157.14449 L232.42188 157.17258 L233.39844 157.19925 L234.37500 157.22446 L235.35156 157.24805 L236.32813 157.27042 L237.30469 157.29152 L238.28125 157.31155 L239.25781 157.33060 L240.23438 157.34857 L241.21094 157.36569 L242.18750 157.38185 L243.16406 157.39749 L244.14063 157.41237 L245.11719 157.42661 L246.09375 157.44008 L247.07031 157.45288 L248.04688 157.46524 L249.02344 157.47708 L250.00000 157.48848 L250.97656 157.49942 L251.95313 157.50992 L252.92969 157.51997 L253.90625 157.52948 L254.88281 157.53894 L255.85938 157.54776 L256.83594 157.55635 L257.81250 157.56470 L258.78906 157.57275 L259.76563 157.58052 L260.74219 157.58794 L261.71875 157.59508 L262.69531 157.60236 L263.67188 157.60899 L264.64844 157.61548 L265.62500 157.62186 L266.60156 157.62776 L267.57813 157.63379 L268.55469 157.63971 L269.53125 157.64543 L270.50781 157.65094 L271.48438 157.65594 L272.46094 157.66086 L273.43750 157.66556 L274.41406 157.67043 L275.39063 157.67520 L276.36719 157.67976 L277.34375 157.68420 L278.32031 157.68843 L279.29688 157.69257 L280.27344 157.69669 L281.25000 157.70053 L282.22656 157.70464 L283.20313 157.70848 L284.17969 157.71207 L285.15625 157.71506 L286.13281 157.71902 L287.10938 157.72205 L288.08594 157.72548 L289.06250 157.72874 L290.03906 157.73186 L291.01563 157.73499 L291.99219 157.73787 L292.96875 157.74083 L293.94531 157.74385 L294.92188 157.74652 L295.89844 157.74921 L296.87500 157.75194 L297.85156 157.75450 L298.82813 157.75702 L299.80469 157.75951 L300.78125 157.76187 L301.75781 157.76425 L302.73438 157.76662 L303.71094 157.76891 L304.68750 157.77107 L305.66406 157.77336 L306.64063 157.77545 L307.61719 157.77768 L308.59375 157.77960 L309.57031 157.78156 L310.54688 157.78349 L311.52344 157.78529 L312.50000 157.78748 L313.47656 157.78914 L314.45313 157.79109 L315.42969 157.79289 L316.40625 157.79512 L317.38281 157.79617 L318.35938 157.79810 L319.33594 157.79973 L320.31250 157.80130 L321.28906 157.80290 L322.26563 157.80431 L323.24219 157.80591 L324.21875 157.80745 L325.19531 157.80905 L326.17188 157.81044 L327.14844 157.81163 L328.12500 157.81328 L329.10156 157.81451 L330.07813 157.81581 L331.05469 157.81720 L332.03125 157.81836 L333.00781 157.81973 L333.98438 157.82092 L334.96094 157.82216 L335.93750 157.82333 L336.91406 157.82460 L337.89063 157.82578 L338.86719 157.82693 L339.84375 157.82799 L340.82031 157.82913 L341.79688 157.83026 L342.77344 157.83131 L343.75000 157.83238 L344.72656 157.83316 L345.70313 157.83415 L346.67969 157.83511 L347.65625 157.83640 L348.63281 157.83723 L349.60938 157.83827 L350.58594 157.83917 L351.56250 157.84000 L352.53906 157.84093 L353.51563 157.84181 L354.49219 157.84291 L355.46875 157.84370 L356.44531 157.84431 L357.42188 157.84514 L358.39844 157.84608 L359.37500 157.84659 L360.35156 157.84761 L361.32813 157.84851 L362.30469 157.84933 L363.28125 157.84995 L364.25781 157.85065 L365.23438 157.85138 L366.21094 157.85217 L367.18750 157.85284 L368.16406 157.85368 L369.14063 157.85428 L370.11719 157.85503 L371.09375 157.85565 L372.07031 157.85631 L373.04688 157.85704 L374.02344 157.85756 L375.00000 157.85826 L375.97656 157.85872 L376.95313 157.85936 L377.92969 157.86002 L378.90625 157.86069 L379.88281 157.86121 L380.85938 157.86177 L381.83594 157.86232 L382.81250 157.86298 L383.78906 157.86324 L384.76563 157.86388 L385.74219 157.86469 L386.71875 157.86514 L387.69531 157.86559 L388.67188 157.86610 L389.64844 157.86652 L390.62500 157.86705 L391.60156 157.86752 L392.57813 157.86806 L393.55469 157.86861 L394.53125 157.86885 L395.50781 157.86942 L396.48438 157.86974 L397.46094 157.87027 L398.43750 157.87070 L399.41406 157.87128 L400.39063 157.87170 L401.36719 157.87207 L402.34375 157.87245 L403.32031 157.87285 L404.29688 157.87329 L405.27344 157.87367 L406.25000 157.87405 L407.22656 157.87434 L408.20313 157.87473 L409.17969 157.87506 L410.15625 157.87558 L411.13281 157.87582 L412.10938 157.87627 L413.08594 157.87660 L414.06250 157.87677 L415.03906 157.87755 L416.01563 157.87769 L416.99219 157.87778 L417.96875 157.87825 L418.94531 157.87860 L419.92188 157.87878 L420.89844 157.87910 L421.87500 157.87947 L422.85156 157.87979 L423.82813 157.88010 L424.80469 157.88046 L425.78125 157.88055 L426.75781 157.88142 L427.73438 157.88156 L428.71094 157.88164 L429.68750 157.88129 L430.66406 157.88138 L431.64063 157.88159 L432.61719 157.88214 L433.59375 157.88261 L434.57031 157.88277 L435.54688 157.88292 L436.52344 157.88303 L437.50000 157.88342 L438.47656 157.88367 L439.45313 157.88385 L440.42969 157.88396 L441.40625 157.88422 L442.38281 157.88449 L443.35938 157.88480 L444.33594 157.88492 L445.31250 157.88495 L446.28906 157.88528 L447.26563 157.88556 L448.24219 157.88568 L449.21875 157.88588 L450.19531 157.88593 L451.17188 157.88597 L452.14844 157.88637 L453.12500 157.88658 L454.10156 157.88655 L455.07813 157.88652 L456.05469 157.88646 L457.03125 157.88773 L458.00781 157.88696 L458.98438 157.88795 L459.96094 157.88792 L460.93750 157.88780 L461.91406 157.88763 L462.89063 157.88794 L463.86719 157.88820 L464.84375 157.88828 L465.82031 157.88832 L466.79688 157.88837 L467.77344 157.88861 L468.75000 157.88882 L469.72656 157.88866 L470.70313 157.88855 L471.67969 157.88841 L472.65625 157.88872 L473.63281 157.88899 L474.60938 157.88918 L475.58594 157.88927 L476.56250 157.88918 L477.53906 157.88943 L478.51563 157.88954 L479.49219 157.88950 L480.46875 157.88968 L481.44531 157.88957 L482.42188 157.88962 L483.39844 157.88974 L484.37500 157.88983 L485.35156 157.88985 L486.32813 157.88982 L487.30469 157.88989 L488.28125 157.89014 L489.25781 157.88995 L490.23438 157.89020 L491.21094 157.89018 L492.18750 157.89009 L493.16406 157.89011 L494.14063 157.89012 L495.11719 157.89023 L496.09375 157.89027 L497.07031 157.89026 L498.04688 157.89024 L499.02344 157.89014 L500.00000 157.89023 L500.97656 157.89014 L501.95313 157.89024 L502.92969 157.89026 L503.90625 157.89027 L504.88281 157.89023 L505.85938 157.89012 L506.83594 157.89011 L507.81250 157.89009 L508.78906 157.89020 L509.76563 157.89021 L510.74219 157.88995 L511.71875 157.89014 L512.69531 157.88988 L513.67188 157.88982 L514.64844 157.88985 L515.62500 157.88983 L516.60156 157.88974 L517.57813 157.88962 L518.55469 157.88956 L519.53125 157.88968 L520.50781 157.88950 L521.48438 157.88954 L522.46094 157.88943 L523.43750 157.88918 L524.41406 157.88927 L525.39063 157.88918 L526.36719 157.88899 L527.34375 157.88872 L528.32031 157.88841 L529.29688 157.88855 L530.27344 157.88866 L531.25000 157.88882 L532.22656 157.88861 L533.20313 157.88837 L534.17969 157.88832 L535.15625 157.88828 L536.13281 157.88820 L537.10938 157.88794 L538.08594 157.88763 L539.06250 157.88780 L540.03906 157.88792 L541.01563 157.88795 L541.99219 157.88696 L542.96875 157.88773 L543.94531 157.88646 L544.92188 157.88652 L545.89844 157.88655 L546.87500 157.88658 L547.85156 157.88637 L548.82813 157.88597 L549.80469 157.88593 L550.78125 157.88586 L551.75781 157.88568 L552.73438 157.88556 L553.71094 157.88528 L554.68750 157.88495 L555.66406 157.88492 L556.64063 157.88480 L557.61719 157.88449 L558.59375 157.88422 L559.57031 157.88396 L560.54688 157.88385 L561.52344 157.88367 L562.50000 157.88342 L563.47656 157.88304 L564.45313 157.88292 L565.42969 157.88277 L566.40625 157.88261 L567.38281 157.88214 L568.35938 157.88159 L569.33594 157.88138 L570.31250 157.88129 L571.28906 157.88164 L572.26563 157.88156 L573.24219 157.88142 L574.21875 157.88055 L575.19531 157.88046 L576.17188 157.88010 L577.14844 157.87979 L578.12500 157.87947 L579.10156 157.87910 L580.07813 157.87878 L581.05469 157.87860 L582.03125 157.87825 L583.00781 157.87778 L583.98438 157.87770 L584.96094 157.87755 L585.93750 157.87677 L586.91406 157.87660 L587.89063 157.87627 L588.86719 157.87582 L589.84375 157.87560 L590.82031 157.87506 L591.79688 157.87473 L592.77344 157.87434 L593.75000 157.87405 L594.72656 157.87367 L595.70313 157.87329 L596.67969 157.87285 L597.65625 157.87245 L598.63281 157.87207 L599.60938 157.87169 L600.58594 157.87128 L601.56250 157.87070 L602.53906 157.87025 L603.51563 157.86974 L604.49219 157.86942 L605.46875 157.86885 L606.44531 157.86861 L607.42188 157.86806 L608.39844 157.86752 L609.37500 157.86705 L610.35156 157.86652 L611.32813 157.86610 L612.30469 157.86559 L613.28125 157.86514 L614.25781 157.86469 L615.23438 157.86388 L616.21094 157.86324 L617.18750 157.86298 L618.16406 157.86232 L619.14063 157.86177 L620.11719 157.86121 L621.09375 157.86069 L622.07031 157.86000 L623.04688 157.85936 L624.02344 157.85872 L625.00000 157.85826 L625.97656 157.85756 L626.95313 157.85704 L627.92969 157.85631 L628.90625 157.85565 L629.88281 157.85503 L630.85938 157.85428 L631.83594 157.85368 L632.81250 157.85284 L633.78906 157.85217 L634.76563 157.85139 L635.74219 157.85065 L636.71875 157.84995 L637.69531 157.84932 L638.67188 157.84851 L639.64844 157.84761 L640.62500 157.84659 L641.60156 157.84608 L642.57813 157.84514 L643.55469 157.84433 L644.53125 157.84370 L645.50781 157.84291 L646.48438 157.84181 L647.46094 157.84093 L648.43750 157.84000 L649.41406 157.83917 L650.39063 157.83827 L651.36719 157.83723 L652.34375 157.83640 L653.32031 157.83511 L654.29688 157.83415 L655.27344 157.83316 L656.25000 157.83238 L657.22656 157.83131 L658.20313 157.83026 L659.17969 157.82913 L660.15625 157.82799 L661.13281 157.82693 L662.10938 157.82578 L663.08594 157.82460 L664.06250 157.82333 L665.03906 157.82216 L666.01563 157.82092 L666.99219 157.81973 L667.96875 157.81836 L668.94531 157.81720 L669.92188 157.81581 L670.89844 157.81451 L671.87500 157.81328 L672.85156 157.81165 L673.82813 157.81044 L674.80469 157.80905 L675.78125 157.80745 L676.75781 157.80591 L677.73438 157.80431 L678.71094 157.80290 L679.68750 157.80130 L680.66406 157.79973 L681.64063 157.79810 L682.61719 157.79617 L683.59375 157.79512 L684.57031 157.79289 L685.54688 157.79109 L686.52344 157.78914 L687.50000 157.78748 L688.47656 157.78529 L689.45313 157.78349 L690.42969 157.78156 L691.40625 157.77960 L692.38281 157.77768 L693.35938 157.77545 L694.33594 157.77336 L695.31250 157.77107 L696.28906 157.76891 L697.26563 157.76662 L698.24219 157.76425 L699.21875 157.76187 L700.19531 157.75951 L701.17188 157.75702 L702.14844 157.75450 L703.12500 157.75194 L704.10156 157.74919 L705.07813 157.74652 L706.05469 157.74385 L707.03125 157.74083 L708.00781 157.73787 L708.98438 157.73499 L709.96094 157.73186 L710.93750 157.72874 L711.91406 157.72548 L712.89063 157.72206 L713.86719 157.71902 L714.84375 157.71506 L715.82031 157.71207 L716.79688 157.70848 L717.77344 157.70464 L718.75000 157.70053 L719.72656 157.69669 L720.70313 157.69257 L721.67969 157.68843 L722.65625 157.68420 L723.63281 157.67976 L724.60938 157.67520 L725.58594 157.67043 L726.56250 157.66556 L727.53906 157.66087 L728.51563 157.65594 L729.49219 157.65094 L730.46875 157.64543 L731.44531 157.63971 L732.42188 157.63379 L733.39844 157.62776 L734.37500 157.62186 L735.35156 157.61548 L736.32813 157.60899 L737.30469 157.60237 L738.28125 157.59508 L739.25781 157.58794 L740.23438 157.58051 L741.21094 157.57275 L742.18750 157.56470 L743.16406 157.55635 L744.14063 157.54776 L745.11719 157.53894 L746.09375 157.52948 L747.07031 157.51997 L748.04688 157.50992 L749.02344 157.49942 L750.00000 157.48848 L750.97656 157.47708 L751.95313 157.46524 L752.92969 157.45288 L753.90625 157.44008 L754.88281 157.42661 L755.85938 157.41237 L756.83594 157.39749 L757.81250 157.38185 L758.78906 157.36569 L759.76563 157.34859 L760.74219 157.33060 L761.71875 157.31155 L762.69531 157.29152 L763.67188 157.27040 L764.64844 157.24805 L765.62500 157.22446 L766.60156 157.19925 L767.57813 157.17258 L768.55469 157.14449 L769.53125 157.11372 L770.50781 157.08145 L771.48438 157.04694 L772.46094 157.00981 L773.43750 156.96986 L774.41406 156.92671 L775.39063 156.88008 L776.36719 156.82965 L777.34375 156.77461 L778.32031 156.71472 L779.29688 156.64890 L780.27344 156.57634 L781.25000 156.49628 L782.22656 156.40723 L783.20313 156.30771 L784.17969 156.19562 L785.15625 156.06857 L786.13281 155.92363 L787.10938 155.75644 L788.08594 155.56175 L789.06250 155.33186 L790.03906 155.05670 L791.01563 154.72127 L791.99219 154.30371 L792.96875 153.76967 L793.94531 153.06279 L794.92188 152.08333 L795.89844 150.63667 L796.87500 148.28494 L797.85156 143.79333 L798.82813 131.81255 L799.80469 0.00000 L800.78125 197.72147 L801.75781 175.75537 L802.73438 169.48088 L803.71094 166.50989 L804.68750 164.77771 L805.66406 163.64369 L806.64063 162.84389 L807.61719 162.24986 L808.59375 161.79135 L809.57031 161.42703 L810.54688 161.13068 L811.52344 160.88490 L812.50000 160.67813 L813.47656 160.50162 L814.45313 160.34943 L815.42969 160.21698 L816.40625 160.10063 L817.38281 159.99780 L818.35938 159.90610 L819.33594 159.82417 L820.31250 159.75053 L821.28906 159.68413 L822.26563 159.62370 L823.24219 159.56866 L824.21875 159.51843 L825.19531 159.47273 L826.17188 159.43083 L827.14844 159.39203 L828.12500 159.35602 L829.10156 159.32246 L830.07813 159.29184 L831.05469 159.26353 L832.03125 159.23822 L833.00781 159.21408 L833.98438 159.19147 L834.96094 159.17059 L835.93750 159.15135 L836.91406 159.13364 L837.89063 159.11720 L838.86719 159.10172 L839.84375 159.08757 L840.82031 159.07477 L841.79688 159.06293 L842.77344 159.05174 L843.75000 159.04205 L844.72656 159.03265 L845.70313 159.02432 L846.67969 159.01704 L847.65625 159.01047 L848.63281 159.00482 L849.60938 158.99966 L850.58594 158.99548 L851.56250 158.99211 L852.53906 158.98958 L853.51563 158.98763 L854.49219 158.98642 L855.46875 158.98598 L856.44531 158.98642 L857.42188 158.98761 L858.39844 158.98950 L859.37500 158.99223 L860.35156 158.99567 L861.32813 159.00017 L862.30469 159.00539 L863.28125 159.01189 L864.25781 159.01909 L865.23438 159.02737 L866.21094 159.03674 L867.18750 159.04718 L868.16406 159.05888 L869.14063 159.07201 L870.11719 159.08659 L871.09375 159.10272 L872.07031 159.12044 L873.04688 159.14000 L874.02344 159.16158 L875.00000 159.18530 L875.97656 159.21179 L876.95313 159.24104 L877.92969 159.27324 L878.90625 159.30890 L879.88281 159.34875 L880.85938 159.39310 L881.83594 159.44298 L882.81250 159.49890 L883.78906 159.56233 L884.76563 159.63428 L885.74219 159.71675 L886.71875 159.81197 L887.69531 159.92285 L888.67188 160.05360 L889.64844 160.20959 L890.62500 160.39893 L891.60156 160.63292 L892.57813 160.92941 L893.55469 161.31662 L894.53125 161.84331 L895.50781 162.59991 L896.48438 163.77826 L897.46094 165.86485 L898.43750 170.56258 L899.41406 190.92635 L900.39063 109.46260 L901.36719 144.37288 L902.34375 150.18987 L903.32031 152.58420 L904.29688 153.88965 L905.27344 154.71106 L906.25000 155.27545 L907.22656 155.68707 L908.20313 156.00063 L909.17969 156.24727 L910.15625 156.44612 L911.13281 156.61035 L912.10938 156.74767 L913.08594 156.86491 L914.06250 156.96588 L915.03906 157.05397 L916.01563 157.13107 L916.99219 157.19926 L917.96875 157.26027 L918.94531 157.31514 L919.92188 157.36485 L920.89844 157.40993 L921.87500 157.45111 L922.85156 157.48889 L923.82813 157.52391 L924.80469 157.55637 L925.78125 157.58667 L926.75781 157.61472 L927.73438 157.64119 L928.71094 157.66618 L929.68750 157.68982 L930.66406 157.71231 L931.64063 157.73334 L932.61719 157.75374 L933.59375 157.77328 L934.57031 157.79202 L935.54688 157.81021 L936.52344 157.82755 L937.50000 157.84470 L938.47656 157.86153 L939.45313 157.87802 L940.42969 157.89429 L941.40625 157.90909 L942.38281 157.92587 L943.35938 157.94063 L944.33594 157.95628 L945.31250 157.97179 L946.28906 157.98781 L947.26563 158.00354 L948.24219 158.01958 L949.21875 158.03593 L950.19531 158.05257 L951.17188 158.06976 L952.14844 158.08722 L953.12500 158.10538 L954.10156 158.12410 L955.07813 158.14365 L956.05469 158.16409 L957.03125 158.18558 L958.00781 158.20813 L958.98438 158.23192 L959.96094 158.25716 L960.93750 158.28406 L961.91406 158.31284 L962.89063 158.34361 L963.86719 158.37679 L964.84375 158.41272 L965.82031 158.45152 L966.79688 158.49405 L967.77344 158.54070 L968.75000 158.59195 L969.72656 158.64867 L970.70313 158.71179 L971.67969 158.78233 L972.65625 158.86221 L973.63281 158.95206 L974.60938 159.05521 L975.58594 159.17366 L976.56250 159.31111 L977.53906 159.47247 L978.51563 159.66420 L979.49219 159.89505 L980.46875 160.17738 L981.44531 160.52933 L982.42188 160.97856 L983.39844 161.56929 L984.37500 162.37659 L985.35156 163.53812 L986.32813 165.33974 L987.30469 168.48055 L988.28125 175.25117 L989.25781 199.99998 L990.23438 17.92148 L991.21094 129.38626 L992.18750 141.24388 L993.16406 145.71300 L994.14063 148.01131 L995.11719 149.37163 L996.09375 150.23430 L997.07031 150.79300 L998.04688 151.14487 L999.02344 151.33965" /><path fill="none" stroke="#000000" d="M0 300.00000  L0.00000 300.00000  L0.97656 299.59021  L1.95313 299.15656  L2.92969 298.67017  L3.90625 298.09003  L4.88281 297.34857  L5.85938 296.31836  L6.83594 294.71976  L7.81250 291.77603  L8.78906 284.21255  L9.76563 214.19624  L10.74219 328.27377  L11.71875 312.65665  L12.69531 308.32147  L13.67188 306.26913  L14.64844 305.06253  L15.62500 304.26236  L16.60156 303.68903  L17.57813 303.25543  L18.55469 302.91425  L19.53125 302.63748  L20.50781 302.40735  L21.48438 302.21210  L22.46094 302.04379  L23.43750 301.89664  L24.41406 301.76648  L25.39063 301.65045  L26.36719 301.54535  L27.34375 301.45010  L28.32031 301.36273  L29.29688 301.28223  L30.27344 301.20752  L31.25000 301.13803  L32.22656 301.07288  L33.20313 301.01154  L34.17969 300.95355  L35.15625 300.89862  L36.13281 300.84628  L37.10938 300.79614  L38.08594 300.74829  L39.06250 300.70203  L40.03906 300.65741  L41.01563 300.61420  L41.99219 300.57227  L42.96875 300.53143  L43.94531 300.49158  L44.92188 300.45248  L45.89844 300.41415  L46.87500 300.37637  L47.85156 300.33923  L48.82813 300.30243  L49.80469 300.26593  L50.78125 300.22968  L51.75781 300.19342  L52.73438 300.15741  L53.71094 300.12125  L54.68750 300.08499  L55.66406 300.04843  L56.64063 300.01120  L57.61719 299.97464  L58.59375 299.93652  L59.57031 299.89835  L60.54688 299.85956  L61.52344 299.82001  L62.50000 299.77921  L63.47656 299.73743  L64.45313 299.69452  L65.42969 299.65033  L66.40625 299.60480  L67.38281 299.55731  L68.35938 299.50793  L69.33594 299.45682  L70.31250 299.40311  L71.28906 299.34689  L72.26563 299.28766  L73.24219 299.22519  L74.21875 299.15903  L75.19531 299.08878  L76.17188 299.01373  L77.14844 298.93329  L78.12500 298.84680  L79.10156 298.75336  L80.07813 298.65192  L81.05469 298.54111  L82.03125 298.41937  L83.00781 298.28479  L83.98438 298.13522  L84.96094 297.96750  L85.93750 297.77783  L86.91406 297.56107  L87.89063 297.31070  L88.86719 297.01825  L89.84375 296.67108  L90.82031 296.25214  L91.79688 295.73538  L92.77344 295.08112  L93.75000 294.22491  L94.72656 293.05450  L95.70313 291.35577  L96.67969 288.66217  L97.65625 283.73038  L98.63281 271.76361  L99.60938 200.00002  L100.58594 367.42548  L101.56250 325.55981  L102.53906 315.89313  L103.51563 311.59296  L104.49219 309.15945  L105.46875 307.59265  L106.44531 306.49860  L107.42188 305.69058  L108.39844 305.06900  L109.37500 304.57553  L110.35156 304.17398  L111.32813 303.84052  L112.30469 303.55890  L113.28125 303.31781  L114.25781 303.10880  L115.23438 302.92584  L116.21094 302.76410  L117.18750 302.62000  L118.16406 302.49072  L119.14063 302.37387  L120.11719 302.26785  L121.09375 302.17090  L122.07031 302.08206  L123.04688 302.00024  L124.02344 301.92444  L125.00000 301.85403  L125.97656 301.78833  L126.95313 301.72702  L127.92969 301.66937  L128.90625 301.61530  L129.88281 301.56421  L130.85938 301.51596  L131.83594 301.47003  L132.81250 301.42654  L133.78906 301.38507  L134.76563 301.34546  L135.74219 301.30756  L136.71875 301.27124  L137.69531 301.23651  L138.67188 301.20288  L139.64844 301.17047  L140.62500 301.13919  L141.60156 301.10898  L142.57813 301.07977  L143.55469 301.05136  L144.53125 301.02368  L145.50781 300.99670  L146.48438 300.97043  L147.46094 300.94479  L148.43750 300.91965  L149.41406 300.89487  L150.39063 300.87054  L151.36719 300.84668  L152.34375 300.82315  L153.32031 300.79993  L154.29688 300.77679  L155.27344 300.75397  L156.25000 300.73126  L157.22656 300.70901  L158.20313 300.68607  L159.17969 300.66400  L160.15625 300.64130  L161.13281 300.61859  L162.10938 300.59586  L163.08594 300.57288  L164.06250 300.54971  L165.03906 300.52612  L166.01563 300.50226  L166.99219 300.47806  L167.96875 300.45325  L168.94531 300.42786  L169.92188 300.40115  L170.89844 300.37384  L171.87500 300.34595  L172.85156 300.31723  L173.82813 300.28735  L174.80469 300.25580  L175.78125 300.22253  L176.75781 300.18741  L177.73438 300.15036  L178.71094 300.11093  L179.68750 300.06860  L180.66406 300.02295  L181.64063 299.97351  L182.61719 299.91968  L183.59375 299.86053  L184.57031 299.79501  L185.54688 299.72174  L186.52344 299.63916  L187.50000 299.54498  L188.47656 299.43631  L189.45313 299.30865  L190.42969 299.15686  L191.40625 298.97205  L192.38281 298.74170  L193.35938 298.44577  L194.33594 298.05011  L195.31250 297.49243  L196.28906 296.64468  L197.26563 295.19601  L198.24219 292.14465  L199.21875 281.48041  L200.19531 377.40182  L201.17188 313.44376  L202.14844 307.62433  L203.12500 305.43857  L204.10156 304.29095  L205.07813 303.58267  L206.05469 303.10117  L207.03125 302.75201  L208.00781 302.48682  L208.98438 302.27817  L209.96094 302.10944  L210.93750 301.97003  L211.91406 301.85272  L212.89063 301.75250  L213.86719 301.66568  L214.84375 301.58966  L215.82031 301.52258  L216.79688 301.46283  L217.77344 301.40918  L218.75000 301.36066  L219.72656 301.31653  L220.70313 301.27612  L221.67969 301.23926  L222.65625 301.20511  L223.63281 301.17337  L224.60938 301.14386  L225.58594 301.11642  L226.56250 301.09073  L227.53906 301.06659  L228.51563 301.04376  L229.49219 301.02225  L230.46875 301.00201  L231.44531 300.98264  L232.42188 300.96463  L233.39844 300.94720  L234.37500 300.93054  L235.35156 300.91467  L236.32813 300.89948  L237.30469 300.88495  L238.28125 300.87103  L239.25781 300.85760  L240.23438 300.84479  L241.21094 300.83237  L242.18750 300.82034  L243.16406 300.80875  L244.14063 300.79752  L245.11719 300.78677  L246.09375 300.77634  L247.07031 300.76624  L248.04688 300.75638  L249.02344 300.74673  L250.00000 300.73749  L250.97656 300.72855  L251.95313 300.71964  L252.92969 300.71127  L253.90625 300.70291  L254.88281 300.69470  L255.85938 300.68677  L256.83594 300.67908  L257.81250 300.67151  L258.78906 300.66409  L259.76563 300.65689  L260.74219 300.64984  L261.71875 300.64301  L262.69531 300.63611  L263.67188 300.62958  L264.64844 300.62311  L265.62500 300.61679  L266.60156 300.61053  L267.57813 300.60437  L268.55469 300.59827  L269.53125 300.59244  L270.50781 300.58679  L271.48438 300.58130  L272.46094 300.57571  L273.43750 300.57007  L274.41406 300.56458  L275.39063 300.55920  L276.36719 300.55405  L277.34375 300.54895  L278.32031 300.54382  L279.29688 300.53888  L280.27344 300.53387  L281.25000 300.52905  L282.22656 300.52441  L283.20313 300.51935  L284.17969 300.51523  L285.15625 300.51065  L286.13281 300.50592  L287.10938 300.50137  L288.08594 300.49713  L289.06250 300.49271  L290.03906 300.48846  L291.01563 300.48419  L291.99219 300.47998  L292.96875 300.47589  L293.94531 300.47174  L294.92188 300.46790  L295.89844 300.46384  L296.87500 300.45990  L297.85156 300.45599  L298.82813 300.45218  L299.80469 300.44843  L300.78125 300.44464  L301.75781 300.44089  L302.73438 300.43723  L303.71094 300.43353  L304.68750 300.42996  L305.66406 300.42636  L306.64063 300.42285  L307.61719 300.41937  L308.59375 300.41589  L309.57031 300.41257  L310.54688 300.40909  L311.52344 300.40570  L312.50000 300.40225  L313.47656 300.39886  L314.45313 300.39597  L315.42969 300.39236  L316.40625 300.38925  L317.38281 300.38626  L318.35938 300.38315  L319.33594 300.37985  L320.31250 300.37683  L321.28906 300.37375  L322.26563 300.37073  L323.24219 300.36771  L324.21875 300.36462  L325.19531 300.36163  L326.17188 300.35883  L327.14844 300.35577  L328.12500 300.35300  L329.10156 300.35004  L330.07813 300.34723  L331.05469 300.34436  L332.03125 300.34155  L333.00781 300.33875  L333.98438 300.33594  L334.96094 300.33316  L335.93750 300.33038  L336.91406 300.32770  L337.89063 300.32501  L338.86719 300.32233  L339.84375 300.31964  L340.82031 300.31702  L341.79688 300.31442  L342.77344 300.31186  L343.75000 300.30927  L344.72656 300.30667  L345.70313 300.30414  L346.67969 300.30139  L347.65625 300.29889  L348.63281 300.29642  L349.60938 300.29398  L350.58594 300.29147  L351.56250 300.28900  L352.53906 300.28650  L353.51563 300.28400  L354.49219 300.28168  L355.46875 300.27927  L356.44531 300.27707  L357.42188 300.27432  L358.39844 300.27231  L359.37500 300.26965  L360.35156 300.26724  L361.32813 300.26492  L362.30469 300.26273  L363.28125 300.26044  L364.25781 300.25806  L365.23438 300.25580  L366.21094 300.25342  L367.18750 300.25122  L368.16406 300.24896  L369.14063 300.24673  L370.11719 300.24451  L371.09375 300.24225  L372.07031 300.24011  L373.04688 300.23788  L374.02344 300.23572  L375.00000 300.23355  L375.97656 300.23135  L376.95313 300.22925  L377.92969 300.22696  L378.90625 300.22482  L379.88281 300.22275  L380.85938 300.22061  L381.83594 300.21857  L382.81250 300.21640  L383.78906 300.21429  L384.76563 300.21207  L385.74219 300.21014  L386.71875 300.20798  L387.69531 300.20602  L388.67188 300.20392  L389.64844 300.20193  L390.62500 300.19983  L391.60156 300.19772  L392.57813 300.19577  L393.55469 300.19379  L394.53125 300.19180  L395.50781 300.18976  L396.48438 300.18777  L397.46094 300.18567  L398.43750 300.18365  L399.41406 300.18173  L400.39063 300.17981  L401.36719 300.17789  L402.34375 300.17590  L403.32031 300.17395  L404.29688 300.17203  L405.27344 300.17010  L406.25000 300.16818  L407.22656 300.16626  L408.20313 300.16431  L409.17969 300.16235  L410.15625 300.16046  L411.13281 300.15857  L412.10938 300.15674  L413.08594 300.15472  L414.06250 300.15292  L415.03906 300.15100  L416.01563 300.14929  L416.99219 300.14725  L417.96875 300.14554  L418.94531 300.14362  L419.92188 300.14172  L420.89844 300.13989  L421.87500 300.13800  L422.85156 300.13617  L423.82813 300.13440  L424.80469 300.13251  L425.78125 300.13065  L426.75781 300.12878  L427.73438 300.12744  L428.71094 300.12573  L429.68750 300.12393  L430.66406 300.12195  L431.64063 300.11984  L432.61719 300.11798  L433.59375 300.11621  L434.57031 300.11456  L435.54688 300.11276  L436.52344 300.11090  L437.50000 300.10910  L438.47656 300.10736  L439.45313 300.10565  L440.42969 300.10382  L441.40625 300.10199  L442.38281 300.10022  L443.35938 300.09851  L444.33594 300.09680  L445.31250 300.09503  L446.28906 300.09320  L447.26563 300.09152  L448.24219 300.08972  L449.21875 300.08817  L450.19531 300.08636  L451.17188 300.08450  L452.14844 300.08276  L453.12500 300.08105  L454.10156 300.07953  L455.07813 300.07764  L456.05469 300.07565  L457.03125 300.07382  L458.00781 300.07260  L458.98438 300.07037  L459.96094 300.06927  L460.93750 300.06754  L461.91406 300.06567  L462.89063 300.06390  L463.86719 300.06216  L464.84375 300.06061  L465.82031 300.05890  L466.79688 300.05713  L467.77344 300.05548  L468.75000 300.05383  L469.72656 300.05231  L470.70313 300.05057  L471.67969 300.04865  L472.65625 300.04684  L473.63281 300.04510  L474.60938 300.04352  L475.58594 300.04187  L476.56250 300.04016  L477.53906 300.03845  L478.51563 300.03680  L479.49219 300.03510  L480.46875 300.03354  L481.44531 300.03180  L482.42188 300.03009  L483.39844 300.02838  L484.37500 300.02676  L485.35156 300.02509  L486.32813 300.02338  L487.30469 300.02167  L488.28125 300.01993  L489.25781 300.01843  L490.23438 300.01663  L491.21094 300.01508  L492.18750 300.01343  L493.16406 300.01169  L494.14063 300.01001  L495.11719 300.00833  L496.09375 300.00665  L497.07031 300.00507  L498.04688 300.00336  L499.02344 300.00171  L500.00000 300.00000  L500.97656 299.99829  L501.95313 299.99664  L502.92969 299.99493  L503.90625 299.99335  L504.88281 299.99167  L505.85938 299.98999  L506.83594 299.98831  L507.81250 299.98657  L508.78906 299.98492  L509.76563 299.98337  L510.74219 299.98160  L511.71875 299.98007  L512.69531 299.97833  L513.67188 299.97662  L514.64844 299.97491  L515.62500 299.97324  L516.60156 299.97162  L517.57813 299.96991  L518.55469 299.96820  L519.53125 299.96646  L520.50781 299.96490  L521.48438 299.96320  L522.46094 299.96155  L523.43750 299.95984  L524.41406 299.95813  L525.39063 299.95648  L526.36719 299.95490  L527.34375 299.95316  L528.32031 299.95135  L529.29688 299.94946  L530.27344 299.94769  L531.25000 299.94617  L532.22656 299.94452  L533.20313 299.94287  L534.17969 299.94110  L535.15625 299.93939  L536.13281 299.93784  L537.10938 299.93610  L538.08594 299.93433  L539.06250 299.93246  L540.03906 299.93073  L541.01563 299.92963  L541.99219 299.92740  L542.96875 299.92618  L543.94531 299.92435  L544.92188 299.92236  L545.89844 299.92047  L546.87500 299.91895  L547.85156 299.91724  L548.82813 299.91550  L549.80469 299.91364  L550.78125 299.91183  L551.75781 299.91028  L552.73438 299.90848  L553.71094 299.90680  L554.68750 299.90497  L555.66406 299.90320  L556.64063 299.90149  L557.61719 299.89978  L558.59375 299.89801  L559.57031 299.89618  L560.54688 299.89435  L561.52344 299.89264  L562.50000 299.89090  L563.47656 299.88910  L564.45313 299.88724  L565.42969 299.88544  L566.40625 299.88379  L567.38281 299.88202  L568.35938 299.88016  L569.33594 299.87805  L570.31250 299.87607  L571.28906 299.87427  L572.26563 299.87256  L573.24219 299.87122  L574.21875 299.86935  L575.19531 299.86749  L576.17188 299.86560  L577.14844 299.86383  L578.12500 299.86200  L579.10156 299.86011  L580.07813 299.85828  L581.05469 299.85638  L582.03125 299.85446  L583.00781 299.85275  L583.98438 299.85071  L584.96094 299.84900  L585.93750 299.84708  L586.91406 299.84528  L587.89063 299.84326  L588.86719 299.84143  L589.84375 299.83954  L590.82031 299.83765  L591.79688 299.83569  L592.77344 299.83374  L593.75000 299.83182  L594.72656 299.82990  L595.70313 299.82797  L596.67969 299.82605  L597.65625 299.82410  L598.63281 299.82211  L599.60938 299.82019  L600.58594 299.81824  L601.56250 299.81635  L602.53906 299.81433  L603.51563 299.81223  L604.49219 299.81024  L605.46875 299.80820  L606.44531 299.80621  L607.42188 299.80423  L608.39844 299.80228  L609.37500 299.80017  L610.35156 299.79807  L611.32813 299.79608  L612.30469 299.79398  L613.28125 299.79202  L614.25781 299.78986  L615.23438 299.78793  L616.21094 299.78571  L617.18750 299.78360  L618.16406 299.78143  L619.14063 299.77939  L620.11719 299.77725  L621.09375 299.77518  L622.07031 299.77304  L623.04688 299.77075  L624.02344 299.76865  L625.00000 299.76645  L625.97656 299.76428  L626.95313 299.76212  L627.92969 299.75989  L628.90625 299.75775  L629.88281 299.75549  L630.85938 299.75327  L631.83594 299.75104  L632.81250 299.74878  L633.78906 299.74658  L634.76563 299.74420  L635.74219 299.74194  L636.71875 299.73956  L637.69531 299.73727  L638.67188 299.73508  L639.64844 299.73276  L640.62500 299.73035  L641.60156 299.72769  L642.57813 299.72568  L643.55469 299.72293  L644.53125 299.72073  L645.50781 299.71832  L646.48438 299.71600  L647.46094 299.71350  L648.43750 299.71100  L649.41406 299.70853  L650.39063 299.70602  L651.36719 299.70358  L652.34375 299.70111  L653.32031 299.69861  L654.29688 299.69586  L655.27344 299.69333  L656.25000 299.69073  L657.22656 299.68814  L658.20313 299.68558  L659.17969 299.68298  L660.15625 299.68036  L661.13281 299.67767  L662.10938 299.67499  L663.08594 299.67230  L664.06250 299.66962  L665.03906 299.66684  L666.01563 299.66406  L666.99219 299.66125  L667.96875 299.65845  L668.94531 299.65564  L669.92188 299.65277  L670.89844 299.64996  L671.87500 299.64700  L672.85156 299.64423  L673.82813 299.64117  L674.80469 299.63837  L675.78125 299.63538  L676.75781 299.63229  L677.73438 299.62927  L678.71094 299.62625  L679.68750 299.62317  L680.66406 299.62015  L681.64063 299.61685  L682.61719 299.61374  L683.59375 299.61075  L684.57031 299.60764  L685.54688 299.60403  L686.52344 299.60114  L687.50000 299.59775  L688.47656 299.59430  L689.45313 299.59091  L690.42969 299.58743  L691.40625 299.58411  L692.38281 299.58063  L693.35938 299.57715  L694.33594 299.57364  L695.31250 299.57004  L696.28906 299.56647  L697.26563 299.56277  L698.24219 299.55911  L699.21875 299.55536  L700.19531 299.55157  L701.17188 299.54782  L702.14844 299.54401  L703.12500 299.54010  L704.10156 299.53616  L705.07813 299.53210  L706.05469 299.52826  L707.03125 299.52411  L708.00781 299.52002  L708.98438 299.51581  L709.96094 299.51154  L710.93750 299.50729  L711.91406 299.50287  L712.89063 299.49863  L713.86719 299.49408  L714.84375 299.48935  L715.82031 299.48477  L716.79688 299.48065  L717.77344 299.47559  L718.75000 299.47095  L719.72656 299.46613  L720.70313 299.46112  L721.67969 299.45618  L722.65625 299.45105  L723.63281 299.44595  L724.60938 299.44080  L725.58594 299.43542  L726.56250 299.42993  L727.53906 299.42429  L728.51563 299.41870  L729.49219 299.41321  L730.46875 299.40756  L731.44531 299.40173  L732.42188 299.39563  L733.39844 299.38947  L734.37500 299.38321  L735.35156 299.37689  L736.32813 299.37042  L737.30469 299.36389  L738.28125 299.35699  L739.25781 299.35016  L740.23438 299.34311  L741.21094 299.33591  L742.18750 299.32849  L743.16406 299.32092  L744.14063 299.31323  L745.11719 299.30530  L746.09375 299.29709  L747.07031 299.28873  L748.04688 299.28036  L749.02344 299.27145  L750.00000 299.26251  L750.97656 299.25327  L751.95313 299.24362  L752.92969 299.23376  L753.90625 299.22366  L754.88281 299.21320  L755.85938 299.20248  L756.83594 299.19125  L757.81250 299.17966  L758.78906 299.16763  L759.76563 299.15521  L760.74219 299.14240  L761.71875 299.12897  L762.69531 299.11505  L763.67188 299.10052  L764.64844 299.08533  L765.62500 299.06946  L766.60156 299.05280  L767.57813 299.03537  L768.55469 299.01736  L769.53125 298.99799  L770.50781 298.97775  L771.48438 298.95624  L772.46094 298.93341  L773.43750 298.90927  L774.41406 298.88358  L775.39063 298.85614  L776.36719 298.82663  L777.34375 298.79489  L778.32031 298.76074  L779.29688 298.72388  L780.27344 298.68347  L781.25000 298.63934  L782.22656 298.59082  L783.20313 298.53717  L784.17969 298.47742  L785.15625 298.41034  L786.13281 298.33432  L787.10938 298.24753  L788.08594 298.14728  L789.06250 298.02997  L790.03906 297.89056  L791.01563 297.72183  L791.99219 297.51318  L792.96875 297.24799  L793.94531 296.89883  L794.92188 296.41733  L795.89844 295.70905  L796.87500 294.56143  L797.85156 292.37567  L798.82813 286.55624  L799.80469 222.59821  L800.78125 318.51959  L801.75781 307.85532  L802.73438 304.80399  L803.71094 303.35532  L804.68750 302.50757  L805.66406 301.94989  L806.64063 301.55423  L807.61719 301.25830  L808.59375 301.02795  L809.57031 300.84314  L810.54688 300.69135  L811.52344 300.56369  L812.50000 300.45502  L813.47656 300.36084  L814.45313 300.27826  L815.42969 300.20499  L816.40625 300.13947  L817.38281 300.08032  L818.35938 300.02649  L819.33594 299.97705  L820.31250 299.93140  L821.28906 299.88907  L822.26563 299.84964  L823.24219 299.81259  L824.21875 299.77747  L825.19531 299.74420  L826.17188 299.71265  L827.14844 299.68277  L828.12500 299.65405  L829.10156 299.62616  L830.07813 299.59885  L831.05469 299.57214  L832.03125 299.54675  L833.00781 299.52197  L833.98438 299.49774  L834.96094 299.47388  L835.93750 299.45029  L836.91406 299.42712  L837.89063 299.40414  L838.86719 299.38141  L839.84375 299.35870  L840.82031 299.33600  L841.79688 299.31393  L842.77344 299.29099  L843.75000 299.26874  L844.72656 299.24603  L845.70313 299.22321  L846.67969 299.20007  L847.65625 299.17685  L848.63281 299.15332  L849.60938 299.12946  L850.58594 299.10513  L851.56250 299.08035  L852.53906 299.05521  L853.51563 299.02957  L854.49219 299.00330  L855.46875 298.97632  L856.44531 298.94864  L857.42188 298.92023  L858.39844 298.89102  L859.37500 298.86081  L860.35156 298.82953  L861.32813 298.79712  L862.30469 298.76349  L863.28125 298.72876  L864.25781 298.69244  L865.23438 298.65454  L866.21094 298.61493  L867.18750 298.57346  L868.16406 298.52997  L869.14063 298.48401  L870.11719 298.43579  L871.09375 298.38470  L872.07031 298.33063  L873.04688 298.27298  L874.02344 298.21167  L875.00000 298.14597  L875.97656 298.07556  L876.95313 297.99976  L877.92969 297.91794  L878.90625 297.82910  L879.88281 297.73215  L880.85938 297.62613  L881.83594 297.50928  L882.81250 297.38000  L883.78906 297.23590  L884.76563 297.07416  L885.74219 296.89120  L886.71875 296.68219  L887.69531 296.44110  L888.67188 296.15948  L889.64844 295.82602  L890.62500 295.42447  L891.60156 294.93100  L892.57813 294.30942  L893.55469 293.50140  L894.53125 292.40735  L895.50781 290.84055  L896.48438 288.40704  L897.46094 284.10687  L898.43750 274.44019  L899.41406 232.57452  L900.39063 400.00000  L901.36719 328.23639  L902.34375 316.26962  L903.32031 311.33783  L904.29688 308.64423  L905.27344 306.94550  L906.25000 305.77509  L907.22656 304.91888  L908.20313 304.26462  L909.17969 303.74786  L910.15625 303.32892  L911.13281 302.98175  L912.10938 302.68930  L913.08594 302.43893  L914.06250 302.22217  L915.03906 302.03250  L916.01563 301.86481  L916.99219 301.71521  L917.96875 301.58063  L918.94531 301.45889  L919.92188 301.34808  L920.89844 301.24664  L921.87500 301.15320  L922.85156 301.06671  L923.82813 300.98627  L924.80469 300.91122  L925.78125 300.84097  L926.75781 300.77481  L927.73438 300.71234  L928.71094 300.65311  L929.68750 300.59689  L930.66406 300.54318  L931.64063 300.49210  L932.61719 300.44269  L933.59375 300.39520  L934.57031 300.34967  L935.54688 300.30548  L936.52344 300.26257  L937.50000 300.22079  L938.47656 300.17999  L939.45313 300.14044  L940.42969 300.10165  L941.40625 300.06348  L942.38281 300.02536  L943.35938 299.98880  L944.33594 299.95157  L945.31250 299.91501  L946.28906 299.87875  L947.26563 299.84259  L948.24219 299.80658  L949.21875 299.77032  L950.19531 299.73407  L951.17188 299.69757  L952.14844 299.66077  L953.12500 299.62363  L954.10156 299.58585  L955.07813 299.54752  L956.05469 299.50842  L957.03125 299.46857  L958.00781 299.42773  L958.98438 299.38577  L959.96094 299.34259  L960.93750 299.29797  L961.91406 299.25171  L962.89063 299.20386  L963.86719 299.15372  L964.84375 299.10138  L965.82031 299.04645  L966.79688 298.98846  L967.77344 298.92712  L968.75000 298.86197  L969.72656 298.79248  L970.70313 298.71777  L971.67969 298.63727  L972.65625 298.54990  L973.63281 298.45465  L974.60938 298.34958  L975.58594 298.23352  L976.56250 298.10336  L977.53906 297.95621  L978.51563 297.78790  L979.49219 297.59265  L980.46875 297.36252  L981.44531 297.08575  L982.42188 296.74457  L983.39844 296.31097  L984.37500 295.73764  L985.35156 294.93747  L986.32813 293.73087  L987.30469 291.67850  L988.28125 287.34335  L989.25781 271.72620  L990.23438 385.80380  L991.21094 315.78745  L992.18750 308.22397  L993.16406 305.28024  L994.14063 303.68164  L995.11719 302.65143  L996.09375 301.90997  L997.07031 301.32983  L998.04688 300.84344  L999.02344 300.40979 " /></g><text x="1000.00000" dx="10" y="158.68741">[-0.09884;0.37964]</text><text x="1000.00000" dx="10" y="300.00000">[-0.35825;0.35825]</text></svg>